<?xml version="1.0" encoding="utf-8"?>
<!-- Generator: Adobe Illustrator 22.1.0, SVG Export Plug-In . SVG Version: 6.00 Build 0)  -->
<svg version="1.1" xmlns="http://www.w3.org/2000/svg" xmlns:xlink="http://www.w3.org/1999/xlink" x="0px" y="0px"
	 viewBox="0 0 4308.7 4308.7" style="enable-background:new 0 0 4308.7 4308.7;" xml:space="preserve">
<style type="text/css">
	.st0{fill:none;stroke:#FF0000;stroke-width:1.28;stroke-linecap:round;stroke-linejoin:round;stroke-miterlimit:10;}
	.st1{fill:none;stroke:#FF0000;stroke-width:1.1005;stroke-linecap:round;stroke-linejoin:round;stroke-miterlimit:10;}
	.st2{fill:none;stroke:#000000;stroke-width:0.709;stroke-linecap:round;stroke-linejoin:round;stroke-miterlimit:10;}
	.st3{fill:none;stroke:#0A7300;stroke-width:0.709;stroke-linecap:round;stroke-linejoin:round;stroke-miterlimit:10;}
	.st4{fill:none;stroke:#231F20;stroke-width:0.8231;stroke-miterlimit:10;}
</style>
<g id="Layer_2">
	<rect x="8" y="-10.8" class="st0" width="3259.8" height="4308.7"/>
	<rect x="5602.8" y="-9" class="st1" width="2409.9" height="4308.7"/>
</g>
<g id="Layer_1">
	<path class="st2" d="M1599.3,3017.7h-61.1 M1672.9,3017.7h-61.7 M2399.9,3017.7h-49.7 M2350.2,3017.7v-14.2 M2399.9,2884.5v133.2
		 M2314.9,2884.5h85 M2314.9,2884.5v-22.7 M2314.9,2861.8l-0.1-1.1l-0.3-1.1l-0.6-1l-0.7-0.8l-0.8-0.7l-1-0.5l-1.1-0.4l-1.1-0.1
		 M2309.2,2856.1h-22.6 M2286.6,2856.1l-1.2,0.1l-1,0.4l-1,0.5l-0.9,0.7l-0.7,0.8l-0.5,1l-0.3,1.1l-0.1,1.1 M2280.9,2861.8v22.7
		 M2265.6,2884.5h15.3 M2265.6,2884.5v31.1 M2269.8,2915.6h-4.2 M2269.8,2924.2v-8.6 M2269.8,2924.2h-4.2 M2265.6,2924.2v2.8
		 M2265.6,2927h-11.9 M2253.7,2924.2v2.8 M2253.7,2924.2h-4.3 M2249.4,2924.2v-8.6 M2253.7,2915.6h-4.3 M2253.7,2884.5v31.1
		 M2238.4,2884.5h15.3 M2238.4,2884.5v-22.7 M2238.4,2861.8l-0.1-1.1l-0.4-1.1l-0.5-1l-0.7-0.8l-0.9-0.7l-0.9-0.5l-1.1-0.4l-1.1-0.1
		 M2232.7,2856.1H2210 M2210,2856.1l-1.1,0.1l-1,0.4l-1,0.5l-0.9,0.7l-0.7,0.8l-0.5,1l-0.3,1.1l-0.1,1.1 M2204.4,2861.8v22.7
		 M1745.1,2884.5h459.3 M1745.1,2861.8v22.7 M1745.1,2861.8l-0.1-1.1l-0.3-1.1l-0.5-1l-0.7-0.8l-0.9-0.7l-1-0.5l-1-0.4l-1.1-0.1
		 M1716.8,2856.1h22.7 M1716.8,2856.1l-1.1,0.1l-1.1,0.4l-1,0.5l-0.8,0.7l-0.7,0.8l-0.5,1l-0.4,1.1l-0.1,1.1 M1711.1,2884.5v-22.7
		 M1695.8,2884.5h15.3 M1695.8,2884.5v31.1 M1695.8,2915.6h4.3 M1700.1,2924.2v-8.6 M1695.8,2924.2h4.3 M1695.8,2924.2v2.8
		 M1683.9,2927h11.9 M1683.9,2924.2v2.8 M1679.7,2924.2h4.2 M1679.7,2924.2v-8.6 M1679.7,2915.6h4.2 M1683.9,2884.5v31.1
		 M1668.6,2884.5h15.3 M1668.6,2861.8v22.7 M1668.6,2861.8l-0.1-1.1l-0.3-1.1l-0.6-1l-0.7-0.8l-0.8-0.7l-1-0.5l-1.1-0.4l-1.1-0.1
		 M1640.3,2856.1h22.6 M1640.3,2856.1l-1.1,0.1l-1.1,0.4l-1,0.5l-0.9,0.7l-0.7,0.8l-0.5,1l-0.3,1.1l-0.1,1.1 M1634.6,2884.5v-22.7
		 M1549.5,2884.5h85.1 M1549.5,2983.7v-99.2 M1538.2,2983.7h11.3 M1538.2,2983.7l-1.1,0.1l-1.1,0.3l-0.9,0.5l-0.9,0.7l-0.7,0.9
		l-0.5,1l-0.4,1l-0.1,1.1 M1532.5,3012v-22.7 M1532.5,3012l0.1,1.1l0.4,1.1l0.5,1l0.7,0.8l0.9,0.7l0.9,0.6l1.1,0.3l1.1,0.1
		 M1599.3,3017.7v-14.2 M1595,3003.5h4.3 M1595,2995v8.5 M1595,2995h4.3 M1599.3,2995v-19.8 M1599.3,2975.2h11.9 M1611.2,2975.2
		v19.8 M1611.2,2995h4.3 M1615.5,2995v8.5 M1611.2,3003.5h4.3 M1611.2,3003.5v14.2 M1672.9,3017.7v11.3 M1672.9,3029l0.1,1.1
		l0.3,1.1l0.5,1l0.7,0.8l0.9,0.7l1,0.6l1,0.3l1.1,0.1 M1678.5,3034.7h22.7 M1701.2,3034.7l1.1-0.1l1.1-0.3l1-0.6l0.8-0.7l0.7-0.8
		l0.5-1l0.4-1.1l0.1-1.1 M1706.9,3017.7v11.3 M2242.6,3017.7h-535.7 M2242.6,3017.7v11.3 M2242.6,3029l0.1,1.1l0.4,1.1l0.5,1
		l0.7,0.8l0.8,0.7l1,0.6l1.1,0.3l1.1,0.1 M2271,3034.7h-22.7 M2271,3034.7l1.1-0.1l1-0.3l1-0.6l0.9-0.7l0.7-0.8l0.5-1l0.3-1.1
		l0.1-1.1 M2276.6,3017.7v11.3 M2338.3,3017.7h-61.7 M2338.3,3003.5v14.2 M2338.3,3003.5h-4.3 M2334,2995v8.5 M2338.3,2995h-4.3
		 M2338.3,2975.2v19.8 M2350.2,2975.2h-11.9 M2350.2,2995v-19.8 M2354.4,2995h-4.2 M2354.4,2995v8.5 M2354.4,3003.5h-4.2"/>
	<path class="st2" d="M1350.6,2845.7h-61.1 M1424.2,2845.7h-61.7 M2151.3,2845.7h-49.8 M2101.5,2845.7v-14.2 M2151.3,2712.4v133.3
		 M2066.2,2712.4h85.1 M2066.2,2712.4v-22.6 M2066.2,2689.8l-0.1-1.1l-0.3-1.1l-0.5-1l-0.7-0.8l-0.9-0.7l-1-0.6l-1-0.3l-1.1-0.1
		 M2060.6,2684.1h-22.7 M2037.9,2684.1l-1.1,0.1l-1.1,0.3l-1,0.6l-0.8,0.7l-0.7,0.8l-0.5,1l-0.4,1.1l-0.1,1.1 M2032.2,2689.8v22.6
		 M2016.9,2712.4h15.3 M2016.9,2712.4v31.2 M2021.2,2743.6h-4.3 M2021.2,2752.1v-8.5 M2021.2,2752.1h-4.3 M2016.9,2752.1v2.9
		 M2016.9,2755H2005 M2005,2752.1v2.9 M2005,2752.1h-4.2 M2000.8,2752.1v-8.5 M2005,2743.6h-4.2 M2005,2712.4v31.2 M1989.7,2712.4
		h15.3 M1989.7,2712.4v-22.6 M1989.7,2689.8l-0.1-1.1l-0.3-1.1l-0.6-1l-0.7-0.8l-0.8-0.7l-1-0.6l-1.1-0.3l-1.1-0.1 M1984,2684.1
		h-22.6 M1961.4,2684.1l-1.1,0.1l-1.1,0.3l-1,0.6l-0.9,0.7l-0.7,0.8l-0.5,1l-0.3,1.1l-0.1,1.1 M1955.7,2689.8v22.6 M1496.5,2712.4
		h459.2 M1496.5,2689.8v22.6 M1496.5,2689.8l-0.1-1.1l-0.4-1.1l-0.5-1l-0.7-0.8l-0.8-0.7l-1-0.6l-1.1-0.3l-1.1-0.1 M1468.1,2684.1
		h22.7 M1468.1,2684.1l-1.1,0.1l-1,0.3l-1,0.6l-0.9,0.7l-0.7,0.8l-0.5,1l-0.3,1.1l-0.1,1.1 M1462.5,2712.4v-22.6 M1447.2,2712.4
		h15.3 M1447.2,2712.4v31.2 M1447.2,2743.6h4.2 M1451.4,2752.1v-8.5 M1447.2,2752.1h4.2 M1447.2,2752.1v2.9 M1435.2,2755h12
		 M1435.2,2752.1v2.9 M1431,2752.1h4.2 M1431,2752.1v-8.5 M1431,2743.6h4.2 M1435.2,2712.4v31.2 M1419.9,2712.4h15.3 M1419.9,2689.8
		v22.6 M1419.9,2689.8l-0.1-1.1l-0.3-1.1l-0.5-1l-0.7-0.8l-0.9-0.7l-1-0.6l-1-0.3l-1.1-0.1 M1391.6,2684.1h22.7 M1391.6,2684.1
		l-1.1,0.1l-1.1,0.3l-1,0.6l-0.8,0.7l-0.7,0.8l-0.5,1l-0.4,1.1l-0.1,1.1 M1385.9,2712.4v-22.6 M1300.9,2712.4h85 M1300.9,2811.7
		v-99.3 M1289.5,2811.7h11.4 M1289.5,2811.7l-1.1,0.1l-1,0.3l-1,0.5l-0.9,0.7l-0.7,0.9l-0.5,1l-0.3,1l-0.1,1.1 M1283.9,2840v-22.7
		 M1283.9,2840l0.1,1.1l0.3,1.1l0.5,1l0.7,0.8l0.9,0.7l1,0.5l1,0.4l1.1,0.1 M1350.6,2845.7v-14.2 M1346.4,2831.5h4.2 M1346.4,2823
		v8.5 M1346.4,2823h4.2 M1350.6,2823v-19.8 M1350.6,2803.2h11.9 M1362.5,2803.2v19.8 M1362.5,2823h4.3 M1366.8,2823v8.5
		 M1362.5,2831.5h4.3 M1362.5,2831.5v14.2 M1424.2,2845.7v11.3 M1424.2,2857l0.1,1.1l0.3,1.1l0.5,1l0.8,0.8l0.8,0.7l1,0.6l1.1,0.3
		l1.1,0.1 M1429.9,2862.7h22.6 M1452.5,2862.7l1.1-0.1l1.1-0.3l1-0.6l0.8-0.7l0.8-0.8l0.5-1l0.3-1.1l0.1-1.1 M1458.2,2845.7v11.3
		 M1994,2845.7h-535.8 M1994,2845.7v11.3 M1994,2857l0.1,1.1l0.3,1.1l0.5,1l0.7,0.8l0.9,0.7l1,0.6l1,0.3l1.1,0.1 M2022.3,2862.7
		h-22.7 M2022.3,2862.7l1.1-0.1l1.1-0.3l1-0.6l0.8-0.7l0.7-0.8l0.5-1l0.4-1.1l0.1-1.1 M2028,2845.7v11.3 M2089.6,2845.7H2028
		 M2089.6,2831.5v14.2 M2089.6,2831.5h-4.2 M2085.4,2823v8.5 M2089.6,2823h-4.2 M2089.6,2803.2v19.8 M2101.5,2803.2h-11.9
		 M2101.5,2823v-19.8 M2105.8,2823h-4.3 M2105.8,2823v8.5 M2105.8,2831.5h-4.3"/>
	<path class="st2" d="M576.9,3748.2h36.6 M625.4,3748.2H662 M520.2,3770.9v-22.7 M609.2,3742.5v-8.5 M576.9,3770.9v-22.7
		 M715.8,3666H696 M696,3666l-1.1,0.1l-1.1,0.3l-1,0.5l-0.8,0.7l-0.7,0.9l-0.6,1l-0.3,1l-0.1,1.1 M690.3,3671.6v8.5 M497.6,3680.1
		h192.7 M497.6,3680.1l-1.2,0.2l-1,0.3l-1,0.5l-0.9,0.7l-0.7,0.9l-0.5,0.9l-0.3,1.1l-0.1,1.1 M491.9,3685.8v56.7 M491.9,3742.5
		l0.1,1.1l0.3,1.1l0.5,1l0.7,0.8l0.9,0.7l1,0.5l1,0.4l1.2,0.1 M497.6,3748.2h22.6 M520.2,3770.9l0.1,1.1l0.4,1l0.5,1l0.7,0.9
		l0.9,0.7l0.9,0.5l1.1,0.3l1.1,0.1 M525.9,3776.5h45.4 M571.3,3776.5l1.1-0.1l1-0.3l1-0.5l0.9-0.7l0.7-0.9l0.5-1l0.3-1l0.1-1.1
		 M613.5,3748.2v-5.7 M609.2,3742.5h4.3 M609.2,3734h4.3 M613.5,3734v-5.7 M613.5,3728.3h11.9 M625.4,3728.3v5.7 M625.4,3734h4.3
		 M629.7,3742.5v-8.5 M625.4,3742.5h4.3 M625.4,3748.2v-5.7 M662,3770.9v-22.7 M662,3770.9l0.1,1.1l0.3,1l0.5,1l0.7,0.9l0.9,0.7
		l1,0.5l1,0.3l1.1,0.1 M667.6,3776.5H713 M713,3776.5l1.1-0.1l1.1-0.3l0.9-0.5l0.9-0.7l0.7-0.9l0.5-1l0.3-1l0.2-1.1 M718.7,3770.9
		v-22.7 M718.7,3748.2h22.6 M741.3,3748.2l1.1-0.1l1.1-0.4l1-0.5l0.8-0.7l0.7-0.8l0.6-1l0.3-1.1l0.1-1.1 M747,3620.6v121.9
		 M747,3620.6l-0.1-1.1l-0.3-1.1l-0.6-0.9l-0.7-0.9l-0.8-0.7l-1-0.5l-1.1-0.3l-1.1-0.2 M741.3,3614.9h-19.8 M721.5,3614.9l-1.1,0.2
		l-1.1,0.3l-1,0.5l-0.8,0.7l-0.7,0.9l-0.5,0.9l-0.4,1.1l-0.1,1.1 M715.8,3620.6v45.4 M517.4,3715.6l-0.1-1l-0.3-0.9l-0.5-0.8
		l-0.7-0.6l-0.8-0.6l-0.9-0.3l-1-0.1l-0.9,0.1l-0.9,0.3l-0.8,0.6l-0.7,0.6l-0.5,0.8l-0.3,0.9l-0.1,1l0.1,0.9l0.3,0.9l0.5,0.8
		l0.7,0.7l0.8,0.5l0.9,0.3l0.9,0.1l1-0.1l0.9-0.3l0.8-0.5l0.7-0.7l0.5-0.8l0.3-0.9L517.4,3715.6 M631.5,3711.3v-14.1 M607.4,3711.3
		h24.1 M607.4,3697.2v14.1 M631.5,3697.2h-24.1 M713,3711.3v-14.1 M688.9,3711.3H713 M688.9,3697.2v14.1 M713,3697.2h-24.1
		 M550,3711.3v-14.1 M525.9,3711.3H550 M525.9,3697.2v14.1 M550,3697.2h-24.1 M721.5,3715.6l0.1,0.9l0.3,0.9l0.5,0.8l0.7,0.7
		l0.8,0.5l0.9,0.3l0.9,0.1l1-0.1l0.9-0.3l0.8-0.5l0.7-0.7l0.5-0.8l0.3-0.9l0.1-0.9l-0.1-1l-0.3-0.9l-0.5-0.8l-0.7-0.6l-0.8-0.6
		l-0.9-0.3l-1-0.1l-0.9,0.1l-0.9,0.3l-0.8,0.6l-0.7,0.6l-0.5,0.8l-0.3,0.9L721.5,3715.6"/>
	<path class="st2" d="M1256.4,28.5h1955.9 M3226.5,42.7v1167.9 M3212.3,1224.8H1256.4 M1242.2,1210.6V42.7 M1284.7,534.5v184.3
		 M1284.7,718.8l0.6,7l1.5,7l2.4,6.6l3.4,6.2l4.3,5.7l5,5l5.6,4.2l6.2,3.4l6.7,2.5l6.9,1.5l7.1,0.5l7-0.5l6.9-1.5l6.7-2.5l6.2-3.4
		l5.6-4.2l5-5l4.3-5.7l3.4-6.2l2.4-6.6l1.6-7l0.5-7 M1384,534.5l-0.5-7l-1.6-6.9l-2.4-6.7l-3.4-6.2l-4.3-5.7l-5-5l-5.6-4.2l-6.2-3.4
		l-6.7-2.5l-6.9-1.5l-7-0.5l-7.1,0.5l-6.9,1.5l-6.7,2.5l-6.2,3.4l-5.6,4.2l-5,5l-4.3,5.7l-3.4,6.2l-2.4,6.7l-1.5,6.9l-0.6,7
		 M1384,718.8V534.5 M1303.5,285.1h53.2 M1303.5,285.1l-2.8-0.3l-2.7-0.8l-2.4-1.3l-2.2-1.8l-1.7-2.1l-1.3-2.5l-0.8-2.6l-0.3-2.8
		 M1289.3,81v189.9 M1289.3,81l0.3-2.8l0.8-2.6l1.3-2.5l1.7-2.1l2.2-1.8l2.4-1.3l2.7-0.8l2.8-0.3 M1356.7,66.8h-53.2 M1356.7,66.8
		l2.8,0.3l2.7,0.8l2.4,1.3l2.2,1.8l1.7,2.1l1.3,2.5l0.8,2.6l0.3,2.8 M1370.9,270.9V81 M1370.9,270.9l-0.3,2.8l-0.8,2.6l-1.3,2.5
		l-1.7,2.1l-2.2,1.8l-2.4,1.3l-2.7,0.8l-2.8,0.3 M3226.5,42.7l-0.3-2.7l-0.8-2.7l-1.3-2.5l-1.8-2.1l-2.1-1.8l-2.5-1.3l-2.6-0.8
		l-2.8-0.3 M1256.4,28.5l-2.8,0.3l-2.6,0.8l-2.5,1.3l-2.1,1.8l-1.8,2.1l-1.3,2.5l-0.8,2.7l-0.3,2.7 M1242.2,1210.6l0.3,2.8l0.8,2.6
		l1.3,2.5l1.8,2.1l2.1,1.8l2.5,1.3l2.6,0.8l2.8,0.3 M3212.3,1224.8l2.8-0.3l2.6-0.8l2.5-1.3l2.1-1.8l1.8-2.1l1.3-2.5l0.8-2.6
		l0.3-2.8"/>
	<path class="st2" d="M5620,314.3v0.6 M6060.8,300.7h155.9 M6060.8,300.7l-2.8-0.3l-2.7-0.8l-2.4-1.3l-2.2-1.7l-1.7-2.2l-1.3-2.4
		l-0.8-2.7l-0.3-2.8 M6046.6,266.4v20.1 M6046.6,266.4l0.3-2.7l0.8-2.7l1.3-2.5l1.7-2.1l2.2-1.8l2.4-1.3l2.7-0.8l2.8-0.3
		 M6216.7,252.2h-155.9 M6216.7,252.2l2.7,0.3l2.7,0.8l2.4,1.3l2.2,1.8l1.8,2.1l1.3,2.5l0.8,2.7l0.2,2.7 M6230.8,286.5v-20.1
		 M6230.8,286.5l-0.2,2.8l-0.8,2.7l-1.3,2.4l-1.8,2.2l-2.2,1.7l-2.4,1.3l-2.7,0.8l-2.7,0.3 M5620,150.5v163.8 M5676.7,314.3H5620
		 M5676.7,314.9v-0.6 M5620,314.9h56.7 M5620,314.9v2834.6 M5620,3149.5l0.6,12.3l1.6,12.2l2.6,12l3.7,11.8l4.7,11.3l5.6,11
		l6.6,10.4l7.5,9.7l8.2,9.1l9.1,8.4l9.7,7.5l10.3,6.7l10.9,5.7l11.4,4.8l11.7,3.8l11.9,2.7l12.2,1.7l12.3,0.7l12.3-0.5l12.2-1.5
		 M5785.1,3289.3l424.6-70.8 M6209.7,3218.5l424.5,70.8 M6634.2,3289.3l12.2,1.5l12.3,0.5l12.3-0.7l12.2-1.7l11.9-2.7l11.8-3.8
		l11.3-4.8l10.9-5.7l10.3-6.7l9.7-7.5l9.1-8.4l8.2-9.1l7.5-9.7l6.6-10.4l5.6-11l4.7-11.3l3.7-11.8l2.6-12l1.6-12.2l0.6-12.3
		 M6799.3,3149.5v-226.7 M6799.3,2922.8h-17 M6782.3,2922.8v-113.4 M6782.3,2809.4h17 M6799.3,2809.4V1788.9 M6799.3,1788.9h-17
		 M6782.3,1788.9v-113.4 M6782.3,1675.5h17 M6799.3,1675.5V655 M6799.3,655h-17 M6782.3,655V541.7 M6782.3,541.7h17 M6799.3,541.7
		V150.5 M6657.5,8.8l12.4,0.5l12.2,1.6l12.1,2.7l11.8,3.7l11.4,4.7l11,5.7l10.4,6.7l9.8,7.5l9.1,8.4l8.4,9.1l7.5,9.8l6.7,10.4
		l5.7,11l4.7,11.4l3.7,11.8l2.7,12.1l1.6,12.2l0.6,12.4 M5761.8,8.8h895.7 M5761.8,8.8l-12.4,0.5l-12.2,1.6l-12.1,2.7l-11.8,3.7
		l-11.4,4.7l-11,5.7l-10.4,6.7l-9.8,7.5l-9.1,8.4l-8.4,9.1l-7.5,9.8l-6.7,10.4l-5.7,11l-4.7,11.4l-3.7,11.8l-2.7,12.1l-1.6,12.2
		l-0.6,12.4 M6782.3,406.2h-32.6 M6749.7,406.2v-17 M6782.3,389.2h-32.6 M6782.3,406.2v-17 M6734.3,397.7l-0.4-2.3l-1.3-1.9
		l-1.9-1.3l-2.3-0.5l-2.3,0.5l-1.9,1.3l-1.3,1.9l-0.5,2.3l0.5,2.2l1.3,2l1.9,1.3l2.3,0.4l2.3-0.4l1.9-1.3l1.3-2L6734.3,397.7
		 M6707.1,406.2v-17 M6674.5,406.2h32.6 M6674.5,406.2v-17 M6674.5,389.2h32.6 M6734.3,3124l-0.4-2.3l-1.3-1.9l-1.9-1.3l-2.3-0.4
		l-2.3,0.4l-1.9,1.3l-1.3,1.9l-0.5,2.3l0.5,2.3l1.3,1.9l1.9,1.3l2.3,0.5l2.3-0.5l1.9-1.3l1.3-1.9L6734.3,3124 M6782.3,3115.5h-32.6
		 M6782.3,3132.5v-17 M6782.3,3132.5h-32.6 M6749.7,3132.5v-17 M5669.7,3132.5v-17 M5637.1,3132.5h32.6 M5637.1,3132.5v-17
		 M5637.1,3115.5h32.6 M5696.9,3124l-0.5-2.3l-1.3-1.9l-1.9-1.3l-2.3-0.4l-2.3,0.4l-1.9,1.3l-1.3,1.9l-0.4,2.3l0.4,2.3l1.3,1.9
		l1.9,1.3l2.3,0.5l2.3-0.5l1.9-1.3l1.3-1.9L5696.9,3124 M6782.3,1241.8h-32.6 M6749.7,1241.8v-17 M6782.3,1224.8h-32.6
		 M6782.3,1241.8v-17 M6707.1,3132.5v-17 M6674.5,3132.5h32.6 M6674.5,3132.5v-17 M6674.5,3115.5h32.6 M6705.4,2871.8l0.5,2.2l1.3,2
		l1.9,1.3l2.3,0.4l2.3-0.4l1.9-1.3l1.3-2l0.4-2.2l-0.4-2.3l-1.3-1.9l-1.9-1.3l-2.3-0.5l-2.3,0.5l-1.9,1.3l-1.3,1.9L6705.4,2871.8
		 M6209.4,2871.8l0.4,2.2l1.3,2l1.9,1.3l2.3,0.4l2.3-0.4l1.9-1.3l1.3-2l0.5-2.2l-0.5-2.3l-1.3-1.9l-1.9-1.3l-2.3-0.5l-2.3,0.5
		l-1.9,1.3l-1.3,1.9L6209.4,2871.8 M5839.7,314.9h35.5 M5875.2,314.9v17 M5875.2,331.9h-35.5 M5839.7,331.9v-17 M5761.8,314.9h35.4
		 M5797.2,331.9v-17 M5797.2,331.9h-35.4 M5761.8,331.9v-17 M6527.1,2151.7v-17 M6527.1,2134.7h35.5 M6562.6,2134.7v17
		 M6527.1,2151.7h35.5 M5797.2,2134.7h-35.4 M5797.2,2134.7v17 M5797.2,2151.7h-35.4 M5761.8,2151.7v-17 M5875.2,2843.4
		L5875.2,2843.4 M5875.2,2843.4h-113.4 M5761.8,2843.4L5761.8,2843.4 M5875.2,2843.4h-113.4 M6527.1,2843.4h113.4 M6527.1,2843.4
		L6527.1,2843.4 M6527.1,2843.4h113.4 M6640.5,2843.4L6640.5,2843.4 M5812.5,323.4l0.5-2.3l1.3-1.9l1.9-1.3l2.3-0.5l2.3,0.5l1.9,1.3
		l1.3,1.9l0.4,2.3l-0.4,2.3l-1.3,1.9l-1.9,1.3l-2.3,0.4l-2.3-0.4l-1.9-1.3l-1.3-1.9L5812.5,323.4 M6577.9,2143.2l0.4-2.2l1.3-2
		l1.9-1.3l2.3-0.4l2.3,0.4l1.9,1.3l1.3,2l0.5,2.2l-0.5,2.3l-1.3,1.9l-1.9,1.3l-2.3,0.5l-2.3-0.5l-1.9-1.3l-1.3-1.9L6577.9,2143.2
		 M5812.5,2143.2l0.5-2.2l1.3-2l1.9-1.3l2.3-0.4l2.3,0.4l1.9,1.3l1.3,2l0.4,2.2l-0.4,2.3l-1.3,1.9l-1.9,1.3l-2.3,0.5l-2.3-0.5
		l-1.9-1.3l-1.3-1.9L5812.5,2143.2 M5839.7,2134.7v17 M5875.2,2134.7h-35.5 M5875.2,2151.7v-17 M5875.2,2151.7h-35.5 M6605.1,2134.7
		v17 M6605.1,2134.7h35.4 M6640.5,2151.7v-17 M6605.1,2151.7h35.4 M5713.3,2871.8l0.5-2.3l1.3-1.9l1.9-1.3l2.3-0.5l2.2,0.5l2,1.3
		l1.3,1.9l0.4,2.3l-0.4,2.2l-1.3,2l-2,1.3l-2.2,0.4l-2.3-0.4l-1.9-1.3l-1.3-2L5713.3,2871.8 M6734.3,1233.3l-0.4-2.3l-1.3-1.9
		l-1.9-1.3l-2.3-0.4l-2.3,0.4l-1.9,1.3l-1.3,1.9l-0.5,2.3l0.5,2.3l1.3,1.9l1.9,1.3l2.3,0.5l2.3-0.5l1.9-1.3l1.3-1.9L6734.3,1233.3
		 M6707.1,1241.8v-17 M6674.5,1241.8h32.6 M6674.5,1241.8v-17 M6674.5,1224.8h32.6 M5712.2,3132.5v-17 M5744.8,3115.5h-32.6
		 M5744.8,3132.5v-17 M5744.8,3132.5h-32.6 M5633.1,1230.2h7.9 M5641,1230.2l2.3,0.5l1.9,1.2l1.3,2l0.5,2.3l-0.5,2.2l-1.3,2
		l-1.9,1.3l-2.3,0.4 M5641,1242.1h-7.9 M5633.1,1242.1l-2.3-0.4l-1.9-1.3l-1.3-2l-0.5-2.2l0.5-2.3l1.3-2l1.9-1.2l2.3-0.5
		 M5633.1,365.9h7.9 M5641,365.9l2.3,0.5l1.9,1.3l1.3,1.9l0.5,2.3l-0.5,2.2l-1.3,2l-1.9,1.3l-2.3,0.4 M5641,377.8h-7.9
		 M5633.1,377.8l-2.3-0.4l-1.9-1.3l-1.3-2l-0.5-2.2l0.5-2.3l1.3-1.9l1.9-1.3l2.3-0.5 M5633.1,2094.5h7.9 M5641,2094.5l2.3,0.4
		l1.9,1.3l1.3,2l0.5,2.2l-0.5,2.3l-1.3,1.9l-1.9,1.3l-2.3,0.5 M5641,2106.4h-7.9 M5633.1,2106.4l-2.3-0.5l-1.9-1.3l-1.3-1.9
		l-0.5-2.3l0.5-2.2l1.3-2l1.9-1.3l2.3-0.4 M6117.5,51.3h184.3 M6301.8,51.3l7,0.5l7,1.5l6.6,2.5l6.2,3.3l5.7,4.3l5,5l4.2,5.7
		l3.4,6.2l2.5,6.6l1.5,6.9l0.5,7.1l-0.5,7l-1.5,7l-2.5,6.6l-3.4,6.2l-4.2,5.7l-5,5l-5.7,4.2l-6.2,3.4l-6.6,2.5l-7,1.5l-7,0.5
		 M6301.8,150.5h-184.3 M6117.5,150.5l-7-0.5l-6.9-1.5l-6.7-2.5l-6.2-3.4l-5.7-4.2l-5-5l-4.2-5.7l-3.4-6.2l-2.5-6.6l-1.5-7l-0.5-7
		l0.5-7.1l1.5-6.9l2.5-6.6l3.4-6.2l4.2-5.7l5-5l5.7-4.3l6.2-3.3l6.7-2.5l6.9-1.5l7-0.5 M6416.6,336.2h-24.1 M6392.5,336.2v-4.3
		 M6392.5,331.9h28.3 M6420.8,331.9v56.7 M6420.8,388.6h-4.2 M6416.6,388.6v-52.4 M6009.8,331.9h-28.3 M6009.8,336.2v-4.3
		 M5985.7,336.2h24.1 M5985.7,388.6v-52.4 M5981.5,388.6h4.2 M5981.5,331.9v56.7"/>
	<path class="st2" d="M7997.5,314.9v-0.6 M6910.4,3132.5v-17 M7225.1,331.9h-28.4 M7225.1,336.2v-4.3 M7201,336.2h24.1 M7201,388.6
		v-52.4 M7196.7,388.6h4.3 M7196.7,331.9v56.7 M7636.1,331.9h-28.3 M7636.1,388.6v-56.7 M7631.9,388.6h4.2 M7631.9,336.2v52.4
		 M7607.8,336.2h24.1 M7607.8,331.9v4.3 M7315.8,51.3l-7.1,0.5l-6.9,1.5l-6.6,2.5l-6.2,3.3l-5.7,4.3l-5,5l-4.2,5.7l-3.4,6.2
		l-2.5,6.6l-1.5,6.9l-0.5,7.1l0.5,7l1.5,7l2.5,6.6l3.4,6.2l4.2,5.7l5,5l5.7,4.2l6.2,3.4l6.6,2.5l6.9,1.5l7.1,0.5 M7500,51.3h-184.2
		 M7500,150.5l7.1-0.5l6.9-1.5l6.7-2.5l6.2-3.4l5.6-4.2l5-5l4.3-5.7l3.4-6.2l2.4-6.6l1.5-7l0.5-7l-0.5-7.1l-1.5-6.9l-2.4-6.6
		l-3.4-6.2l-4.3-5.7l-5-5l-5.6-4.3l-6.2-3.3l-6.7-2.5l-6.9-1.5l-7.1-0.5 M7315.8,150.5H7500 M7997.5,314.3h-56.7 M7997.5,150.5
		v163.8 M7997.5,150.5l-0.5-12.4l-1.6-12.2l-2.7-12.1L7989,102l-4.8-11.4l-5.7-11l-6.6-10.4l-7.5-9.8l-8.4-9.1l-9.1-8.4l-9.8-7.5
		l-10.4-6.7l-11-5.7l-11.4-4.7l-11.8-3.7l-12.1-2.7l-12.3-1.6l-12.3-0.5 M6960,8.8h895.8 M6818.3,150.5l0.6-12.4l1.6-12.2l2.6-12.1
		l3.8-11.8l4.7-11.4l5.7-11l6.6-10.4l7.6-9.8l8.3-9.1l9.1-8.4l9.8-7.5l10.5-6.7l10.9-5.7l11.5-4.7l11.8-3.7l12-2.7l12.3-1.6
		l12.3-0.5 M6818.3,541.7V150.5 M6835.3,541.7h-17 M6835.3,655V541.7 M6818.3,655h17 M6818.3,1675.5V655 M6835.3,1675.5h-17
		 M6835.3,1788.9v-113.4 M6818.3,1788.9h17 M6818.3,2809.4V1788.9 M6835.3,2809.4h-17 M6835.3,2922.8v-113.4 M6818.3,2922.8h17
		 M6818.3,3149.5v-226.7 M6818.3,3149.5l0.5,12.3l1.6,12.2l2.7,12l3.7,11.8l4.7,11.3l5.6,11l6.6,10.4l7.4,9.7l8.3,9.1l9,8.4l9.8,7.5
		l10.3,6.7l10.9,5.7l11.3,4.8l11.7,3.8l12,2.7l12.2,1.7l12.3,0.7l12.3-0.5l12.2-1.5 M6983.4,3289.3l424.5-70.8 M7407.9,3218.5
		l424.6,70.8 M7832.5,3289.3l12.2,1.5l12.3,0.5l12.2-0.7l12.2-1.7l12-2.7l11.7-3.8l11.4-4.8l10.8-5.7l10.4-6.7l9.7-7.5l9-8.4
		l8.3-9.1l7.5-9.7l6.5-10.4l5.7-11l4.7-11.3l3.6-11.8l2.7-12l1.6-12.2l0.5-12.3 M7997.5,314.9v2834.6 M7940.8,314.9h56.7
		 M7940.8,314.3v0.6 M7976.5,2094.5l-2.2,0.4l-2,1.3l-1.3,2l-0.4,2.2l0.4,2.3l1.3,1.9l2,1.3l2.2,0.5 M7984.5,2094.5h-8
		 M7984.5,2106.4l2.3-0.5l1.9-1.3l1.3-1.9l0.4-2.3l-0.4-2.2l-1.3-2l-1.9-1.3l-2.3-0.4 M7976.5,2106.4h8 M7976.5,365.9l-2.2,0.5
		l-2,1.3l-1.3,1.9l-0.4,2.3l0.4,2.2l1.3,2l2,1.3l2.2,0.4 M7984.5,365.9h-8 M7984.5,377.8l2.3-0.4l1.9-1.3l1.3-2l0.4-2.2l-0.4-2.3
		l-1.3-1.9l-1.9-1.3l-2.3-0.5 M7976.5,377.8h8 M7976.5,1230.2l-2.2,0.5l-2,1.2l-1.3,2l-0.4,2.3l0.4,2.2l1.3,2l2,1.3l2.2,0.4
		 M7984.5,1230.2h-8 M7984.5,1242.1l2.3-0.4l1.9-1.3l1.3-2l0.4-2.2l-0.4-2.3l-1.3-2l-1.9-1.2l-2.3-0.5 M7976.5,1242.1h8
		 M6883.2,397.7l0.5-2.3l1.3-1.9l1.9-1.3l2.3-0.5l2.3,0.5l1.9,1.3l1.3,1.9l0.4,2.3l-0.4,2.2l-1.3,2l-1.9,1.3l-2.3,0.4l-2.3-0.4
		l-1.9-1.3l-1.3-2L6883.2,397.7 M6943,406.2h-32.6 M6910.4,406.2v-17 M6943,389.2h-32.6 M6943,406.2v-17 M6883.2,3124l0.5-2.3
		l1.3-1.9l1.9-1.3l2.3-0.4l2.3,0.4l1.9,1.3l1.3,1.9l0.4,2.3l-0.4,2.3l-1.3,1.9l-1.9,1.3l-2.3,0.5l-2.3-0.5l-1.9-1.3l-1.3-1.9
		L6883.2,3124 M6835.3,3132.5v-17 M6835.3,3115.5h32.6 M6867.9,3132.5v-17 M6835.3,3132.5h32.6 M7980.5,3132.5h-32.6 M7947.9,3132.5
		v-17 M7980.5,3115.5h-32.6 M7980.5,3132.5v-17 M7920.7,3124l0.5-2.3l1.2-1.9l2-1.3l2.3-0.4l2.2,0.4l2,1.3l1.3,1.9l0.4,2.3l-0.4,2.3
		l-1.3,1.9l-2,1.3l-2.2,0.5l-2.3-0.5l-2-1.3l-1.2-1.9L7920.7,3124 M6943,1241.8h-32.6 M6910.4,1241.8v-17 M6943,1224.8h-32.6
		 M6943,1241.8v-17 M6883.2,1233.3l0.5-2.3l1.3-1.9l1.9-1.3l2.3-0.4l2.3,0.4l1.9,1.3l1.3,1.9l0.4,2.3l-0.4,2.3l-1.3,1.9l-1.9,1.3
		l-2.3,0.5l-2.3-0.5l-1.9-1.3l-1.3-1.9L6883.2,1233.3 M6943,3132.5h-32.6 M6943,3115.5h-32.6 M6943,3132.5v-17 M6912.1,2871.8
		l-0.4-2.3l-1.3-1.9l-1.9-1.3l-2.3-0.5l-2.3,0.5l-1.9,1.3l-1.3,1.9l-0.5,2.3l0.5,2.2l1.3,2l1.9,1.3l2.3,0.4l2.3-0.4l1.9-1.3l1.3-2
		L6912.1,2871.8 M7012.5,2134.7h-35.4 M7012.5,2134.7v17 M7012.5,2151.7h-35.4 M6977.1,2151.7v-17 M7820.4,2134.7v17 M7820.4,2134.7
		h35.4 M7855.8,2151.7v-17 M7820.4,2151.7h35.4 M7742.4,2134.7h35.4 M7777.8,2134.7v17 M7742.4,2151.7h35.4 M7742.4,2151.7v-17
		 M7742.4,2843.4h113.4 M7742.4,2843.4L7742.4,2843.4 M7742.4,2843.4h113.4 M7855.8,2843.4L7855.8,2843.4 M7090.4,2843.4
		L7090.4,2843.4 M7090.4,2843.4h-113.3 M6977.1,2843.4L6977.1,2843.4 M7090.4,2843.4h-113.3 M7805.1,323.4l-0.5-2.3l-1.3-1.9
		l-1.9-1.3l-2.3-0.5l-2.3,0.5l-1.9,1.3l-1.3,1.9l-0.5,2.3l0.5,2.3l1.3,1.9l1.9,1.3l2.3,0.4l2.3-0.4l1.9-1.3l1.3-1.9L7805.1,323.4
		 M7039.7,2143.2l-0.5-2.2l-1.2-2l-2-1.3l-2.3-0.4l-2.2,0.4l-2,1.3l-1.3,2l-0.4,2.2l0.4,2.3l1.3,1.9l2,1.3l2.2,0.5l2.3-0.5l2-1.3
		l1.2-1.9L7039.7,2143.2 M7805.1,2143.2l-0.5-2.2l-1.3-2l-1.9-1.3l-2.3-0.4l-2.3,0.4l-1.9,1.3l-1.3,2l-0.5,2.2l0.5,2.3l1.3,1.9
		l1.9,1.3l2.3,0.5l2.3-0.5l1.9-1.3l1.3-1.9L7805.1,2143.2 M7090.4,2134.7H7055 M7090.4,2151.7v-17 M7090.4,2151.7H7055 M7055,2134.7
		v17 M7820.4,331.9v-17 M7820.4,314.9h35.4 M7855.8,331.9v-17 M7820.4,331.9h35.4 M7742.4,314.9v17 M7742.4,314.9h35.4
		 M7777.8,331.9v-17 M7742.4,331.9h35.4 M7408.2,2871.8l-0.5-2.3l-1.2-1.9l-2-1.3l-2.3-0.5l-2.2,0.5l-2,1.3l-1.3,1.9l-0.4,2.3
		l0.4,2.2l1.3,2l2,1.3l2.2,0.4l2.3-0.4l2-1.3l1.2-2L7408.2,2871.8 M7904.3,2871.8l-0.5,2.2l-1.3,2l-1.9,1.3l-2.3,0.4l-2.3-0.4
		l-1.9-1.3l-1.3-2l-0.4-2.2l0.4-2.3l1.3-1.9l1.9-1.3l2.3-0.5l2.3,0.5l1.9,1.3l1.3,1.9L7904.3,2871.8 M6867.9,1241.8v-17
		 M6835.3,1241.8h32.6 M6835.3,1241.8v-17 M6835.3,1224.8h32.6 M7872.8,3115.5h32.6 M7905.4,3132.5v-17 M7872.8,3132.5h32.6
		 M7872.8,3132.5v-17 M6867.9,406.2v-17 M6835.3,406.2h32.6 M6835.3,406.2v-17 M6835.3,389.2h32.6"/>
	<path class="st2" d="M45.8,424.2v-360 M45.8,2691.9V1671.5 M1208,1671.5v1020.4 M1208,33v391.2 M1208,2805.3v226.8 M45.8,1558.1
		V537.6 M632.9,280.2l-0.5-2.2l-1.3-2l-1.9-1.3l-2.3-0.4l-2.3,0.4l-1.9,1.3l-1.3,2l-0.4,2.2l0.4,2.3l1.3,1.9l1.9,1.3l2.3,0.5
		l2.3-0.5l1.9-1.3l1.3-1.9L632.9,280.2 M307.7,571.6l0.4-1.7l1-1.5l1.4-1l1.8-0.3l1.7,0.3l1.5,1l1,1.5l0.3,1.7l-0.3,1.8l-1,1.4
		l-1.5,1l-1.7,0.4l-1.8-0.4l-1.4-1l-1-1.4L307.7,571.6 M1165.5,33h42.5 M1165.5,33l-1.1,0.2l-1.1,0.3l-0.9,0.5l-0.9,0.7l-0.7,0.9
		l-0.5,0.9l-0.4,1.1l-0.1,1.1 M1159.8,151V38.7 M1147,167.5l2.6-0.9l2.5-1.4l2.2-1.7l1.9-2.1l1.6-2.3l1.1-2.6l0.7-2.7l0.2-2.8
		 M1052,191.3l95-23.8 M1043.7,191.3l1,0.2l1.1,0.2l1,0.1h1.1h1l1-0.1l1.1-0.2l1-0.2 M948.8,167.5l94.9,23.8 M935.9,151l0.2,2.8
		l0.7,2.7l1.1,2.6l1.6,2.3l1.9,2.1l2.2,1.7l2.5,1.4l2.7,0.9 M935.9,38.7V151 M935.9,38.7l-0.1-1.1l-0.3-1.1l-0.6-0.9l-0.7-0.9
		l-0.8-0.7l-1-0.5l-1.1-0.3l-1.1-0.2 M108.2,33h822 M108.2,33l-1.1,0.2l-1.1,0.3l-1,0.5l-0.8,0.7l-0.7,0.9l-0.6,0.9l-0.3,1.1
		l-0.1,1.1 M102.5,64.2V38.7 M45.8,64.2h56.7 M28.8,424.2h17 M28.8,537.6V424.2 M45.8,537.6h-17 M28.8,1558.1h17 M28.8,1671.5
		v-113.4 M45.8,1671.5h-17 M28.8,2691.9h17 M28.8,2805.3v-113.4 M45.8,2805.3h-17 M45.8,3032.1v-226.8 M1208,3032.1H45.8
		 M1225,2805.3h-17 M1225,2691.9v113.4 M1208,2691.9h17 M1225,1671.5h-17 M1225,1558.1v113.4 M1208,1558.1h17 M1208,537.6v1020.5
		 M1225,537.6h-17 M1225,424.2v113.4 M1208,424.2h17 M573.1,2998.1v17 M605.7,2998.1h-32.6 M605.7,3015.1v-17 M573.1,3015.1h32.6
		 M680.8,3015.1v-17 M648.2,3015.1h32.6 M648.2,2998.1v17 M680.8,2998.1h-32.6 M632.9,1115.9l-0.5-2.3l-1.3-1.9l-1.9-1.3l-2.3-0.5
		l-2.3,0.5l-1.9,1.3l-1.3,1.9l-0.4,2.3l0.4,2.3l1.3,1.9l1.9,1.3l2.3,0.4l2.3-0.4l1.9-1.3l1.3-1.9L632.9,1115.9 M573.1,1107.4v17
		 M605.7,1107.4h-32.6 M605.7,1124.4v-17 M573.1,1124.4h32.6 M680.8,288.7v-17 M648.2,288.7h32.6 M648.2,271.7v17 M680.8,271.7
		h-32.6 M573.1,271.7v17 M605.7,271.7h-32.6 M605.7,288.7v-17 M573.1,288.7h32.6 M680.8,1124.4v-17 M648.2,1124.4h32.6
		 M648.2,1107.4v17 M680.8,1107.4h-32.6 M632.9,3006.6l-0.5-2.3l-1.3-1.9l-1.9-1.3l-2.3-0.5l-2.3,0.5l-1.9,1.3l-1.3,1.9l-0.4,2.3
		l0.4,2.3l1.3,1.9l1.9,1.3l2.3,0.4l2.3-0.4l1.9-1.3l1.3-1.9L632.9,3006.6 M621,2025.8l0.4-2.3l1.3-1.9l1.9-1.3l2.3-0.4l2.3,0.4
		l1.9,1.3l1.3,1.9l0.5,2.3l-0.5,2.3l-1.3,1.9l-1.9,1.3l-2.3,0.5l-2.3-0.5l-1.9-1.3l-1.3-1.9L621,2025.8 M683.6,197.5v17
		 M683.6,214.5H570.2 M570.2,214.5v-17 M683.6,197.5H570.2 M570.2,2017.3h35.5 M605.7,2017.3v17 M570.2,2034.3h35.5 M570.2,2034.3
		v-17 M567.4,2706.1h119 M686.4,2728.8v-22.7 M567.4,2728.8h119 M567.4,2728.8v-22.7 M648.2,2034.3h35.4 M648.2,2017.3v17
		 M648.2,2017.3h35.4 M683.6,2034.3v-17"/>
	<path class="st2" d="M2932.8,4262.6V4084 M2975.3,3664.2v11.9 M2975.3,3676.1h-2.8 M2972.5,3676.1v4.2 M2972.5,3680.3h-8.5
		 M2964,3676.1v4.2 M2964,3676.1h-31.2 M2932.8,3676.1v15.3 M2921.4,3691.4h11.4 M2915.8,3697v21.3 M2921.4,3724h11.4
		 M2932.8,3984.8V3724 M2959.7,4268.2h-21.3 M2965.4,4262.6v-11.4 M2965.4,4251.2h15.3 M2980.7,4251.2V4220 M2980.7,4220h-4.3
		 M2976.4,4220v-8.5 M2980.7,4211.5h-4.3 M2980.7,4211.5v-2.8 M2980.7,4208.7h11.9 M2992.6,4211.5v-2.8 M2996.8,4211.5h-4.2
		 M2996.8,4220v-8.5 M2996.8,4220h-4.2 M2992.6,4251.2V4220 M2992.6,4251.2h15.3 M3007.9,4262.6v-11.4 M3013.6,4268.2h21.2
		 M3040.5,4262.6v-11.4 M3040.5,4251.2h17 M3057.5,3089v1162.2 M3040.5,3089h17 M3040.5,3077.7v11.3 M3013.6,3072h21.2
		 M3007.9,3077.7v11.3 M2992.6,3089h15.3 M2992.6,3089v31.2 M2996.8,3120.2h-4.2 M2996.8,3120.2v8.5 M2996.8,3128.7h-4.2
		 M2992.6,3128.7v2.8 M2980.7,3131.5h11.9 M2980.7,3128.7v2.8 M2980.7,3128.7h-4.3 M2976.4,3120.2v8.5 M2980.7,3120.2h-4.3
		 M2980.7,3089v31.2 M2965.4,3089h15.3 M2965.4,3077.7v11.3 M2959.7,3072h-21.3 M2932.8,3077.7v538.6 M2921.4,3616.3h11.4
		 M2915.8,3643.2v-21.3 M2921.4,3648.9h11.4 M2932.8,3648.9v15.3 M2964,3664.2h-31.2 M2964,3659.9v4.3 M2972.5,3659.9h-8.5
		 M2972.5,3659.9v4.3 M2975.3,3664.2h-2.8 M2982.4,3990.4v87.9 M2982.4,4078.3l-0.1,1.1l-0.3,1.1l-0.6,1l-0.7,0.8l-0.8,0.7l-1,0.5
		l-1.1,0.4l-1.1,0.1 M2976.7,4084h-43.9 M2932.8,4262.6l0.1,1.1l0.3,1l0.5,1l0.7,0.9l0.9,0.7l1,0.5l1,0.3l1.1,0.1 M2959.7,4268.2
		l1.1-0.1l1.1-0.3l1-0.5l0.8-0.7l0.7-0.9l0.5-1l0.4-1l0.1-1.1 M3007.9,4262.6l0.1,1.1l0.3,1l0.6,1l0.7,0.9l0.8,0.7l1,0.5l1.1,0.3
		l1.1,0.1 M3034.8,4268.2l1.1-0.1l1.1-0.3l1-0.5l0.8-0.7l0.7-0.9l0.6-1l0.3-1l0.1-1.1 M3040.5,3077.7l-0.1-1.1l-0.3-1.1l-0.6-1
		l-0.7-0.8l-0.8-0.7l-1-0.6l-1.1-0.3l-1.1-0.1 M3013.6,3072l-1.1,0.1l-1.1,0.3l-1,0.6l-0.8,0.7l-0.7,0.8l-0.6,1l-0.3,1.1l-0.1,1.1
		 M2965.4,3077.7l-0.1-1.1l-0.4-1.1l-0.5-1l-0.7-0.8l-0.8-0.7l-1-0.6l-1.1-0.3l-1.1-0.1 M2938.4,3072l-1.1,0.1l-1,0.3l-1,0.6
		l-0.9,0.7l-0.7,0.8l-0.5,1l-0.3,1.1l-0.1,1.1 M2921.4,3616.3l-1.1,0.1l-1,0.3l-1,0.5l-0.9,0.7l-0.7,0.9l-0.5,1l-0.3,1l-0.1,1.1
		 M2915.8,3643.2l0.1,1.1l0.3,1.1l0.5,0.9l0.7,0.9l0.9,0.7l1,0.5l1,0.3l1.1,0.2 M2921.4,3691.4l-1.1,0.1l-1,0.3l-1,0.5l-0.9,0.7
		l-0.7,0.9l-0.5,1l-0.3,1l-0.1,1.1 M2915.8,3718.3l0.1,1.1l0.3,1.1l0.5,1l0.7,0.8l0.9,0.7l1,0.5l1,0.4l1.1,0.1 M2932.8,3984.8h43.9
		 M2976.7,3984.8l1.1,0.1l1.1,0.3l1,0.5l0.8,0.7l0.7,0.9l0.6,1l0.3,1l0.1,1.1"/>
	<path class="st2" d="M2703.9,3984.7v-260.8 M2746.5,3664.1v11.9 M2746.5,3676h-2.9 M2743.6,3676v4.3 M2743.6,3680.3h-8.5
		 M2735.1,3676v4.3 M2735.1,3676h-31.2 M2703.9,3676v15.3 M2692.6,3691.3h11.3 M2686.9,3697v21.2 M2692.6,3723.9h11.3
		 M2703.9,4262.5v-235.3 M2730.9,4268.2h-21.3 M2736.5,4262.5v-11.3 M2736.5,4251.2h15.4 M2751.9,4251.2V4220 M2751.9,4220h-4.3
		 M2747.6,4220v-8.5 M2751.9,4211.5h-4.3 M2751.9,4211.5v-2.9 M2751.9,4208.6h11.9 M2763.8,4211.5v-2.9 M2768,4211.5h-4.2
		 M2768,4220v-8.5 M2768,4220h-4.2 M2763.8,4251.2V4220 M2763.8,4251.2h15.3 M2779.1,4262.5v-11.3 M2784.7,4268.2h21.3
		 M2811.7,4262.5v-11.3 M2811.7,4251.2h17 M2828.7,3089v1162.2 M2811.7,3089h17 M2811.7,3077.6v11.4 M2784.7,3071.9h21.3
		 M2779.1,3077.6v11.4 M2763.8,3089h15.3 M2763.8,3089v31.1 M2768,3120.1h-4.2 M2768,3120.1v8.5 M2768,3128.6h-4.2 M2763.8,3128.6
		v2.9 M2751.9,3131.5h11.9 M2751.9,3128.6v2.9 M2751.9,3128.6h-4.3 M2747.6,3120.1v8.5 M2751.9,3120.1h-4.3 M2751.9,3089v31.1
		 M2736.5,3089h15.4 M2736.5,3077.6v11.4 M2730.9,3071.9h-21.3 M2703.9,3077.6v538.6 M2692.6,3616.2h11.3 M2686.9,3643.1v-21.2
		 M2692.6,3648.8h11.3 M2703.9,3648.8v15.3 M2735.1,3664.1h-31.2 M2735.1,3659.9v4.2 M2743.6,3659.9h-8.5 M2743.6,3659.9v4.2
		 M2746.5,3664.1h-2.9 M2790.8,3962.9l1.8,0.3l1.4,1l1,1.5l0.4,1.7l-0.4,1.7l-1,1.5l-1.4,1l-1.8,0.3l-1.7-0.3l-1.5-1l-1-1.5
		l-0.3-1.7l0.3-1.7l1-1.5l1.5-1L2790.8,3962.9 M2814.5,3729.9l1.5,0.3l1.3,0.8l0.9,1.3l0.3,1.5l-0.3,1.6l-0.9,1.2l-1.3,0.9l-1.5,0.3
		l-1.5-0.3l-1.3-0.9l-0.9-1.2l-0.3-1.6l0.3-1.5l0.9-1.3l1.3-0.8L2814.5,3729.9 M2814.5,3700.1l1.5,0.3l1.3,0.9l0.9,1.3l0.3,1.5
		l-0.3,1.5l-0.9,1.3l-1.3,0.8l-1.5,0.3l-1.5-0.3l-1.3-0.8l-0.9-1.3l-0.3-1.5l0.3-1.5l0.9-1.3l1.3-0.9L2814.5,3700.1 M2703.9,3984.7
		h36.9 M2740.8,3984.7l1.1,0.1l1.1,0.3l0.9,0.6l0.9,0.7l0.7,0.8l0.5,1l0.4,1.1l0.1,1.1 M2746.5,3990.4v31.2 M2746.5,4021.6l-0.1,1.1
		l-0.4,1l-0.5,1l-0.7,0.9l-0.9,0.7l-0.9,0.5l-1.1,0.3l-1.1,0.1 M2740.8,4027.2h-36.9 M2703.9,4262.5l0.2,1.1l0.3,1.1l0.5,0.9
		l0.7,0.9l0.9,0.7l0.9,0.5l1.1,0.4l1.1,0.1 M2730.9,4268.2l1.1-0.1l1-0.4l1-0.5l0.9-0.7l0.7-0.9l0.5-0.9l0.3-1.1l0.1-1.1
		 M2779.1,4262.5l0.1,1.1l0.3,1.1l0.5,0.9l0.7,0.9l0.9,0.7l1,0.5l1,0.4l1.1,0.1 M2806,4268.2l1.1-0.1l1.1-0.4l0.9-0.5l0.9-0.7
		l0.7-0.9l0.5-0.9l0.4-1.1l0.1-1.1 M2811.7,3077.6l-0.1-1.1l-0.4-1.1l-0.5-0.9l-0.7-0.9l-0.9-0.7l-0.9-0.5l-1.1-0.3l-1.1-0.2
		 M2784.7,3071.9l-1.1,0.2l-1,0.3l-1,0.5l-0.9,0.7l-0.7,0.9l-0.5,0.9l-0.3,1.1l-0.1,1.1 M2736.5,3077.6l-0.1-1.1l-0.3-1.1l-0.5-0.9
		l-0.7-0.9l-0.9-0.7l-1-0.5l-1-0.3l-1.1-0.2 M2709.6,3071.9l-1.1,0.2l-1.1,0.3l-0.9,0.5l-0.9,0.7l-0.7,0.9l-0.5,0.9l-0.3,1.1
		l-0.2,1.1 M2692.6,3616.2l-1.1,0.1l-1.1,0.3l-0.9,0.6l-0.9,0.7l-0.7,0.8l-0.5,1l-0.4,1.1l-0.1,1.1 M2686.9,3643.1l0.1,1.1l0.4,1.1
		l0.5,1l0.7,0.8l0.9,0.7l0.9,0.6l1.1,0.3l1.1,0.1 M2692.6,3691.3l-1.1,0.1l-1.1,0.3l-0.9,0.6l-0.9,0.7l-0.7,0.8l-0.5,1l-0.4,1.1
		l-0.1,1.1 M2686.9,3718.2l0.1,1.1l0.4,1.1l0.5,1l0.7,0.9l0.9,0.7l0.9,0.5l1.1,0.3l1.1,0.1"/>
	<path class="st2" d="M3109.7,1846.2v11.9 M3109.7,1858.1h-2.8 M3106.9,1858.1v4.2 M3106.9,1862.3h-8.5 M3098.4,1858.1v4.2
		 M3098.4,1858.1h-31.2 M3067.2,1858.1v15.3 M3055.9,1873.4h11.3 M3050.2,1879.1v21.2 M3055.9,1906h11.3 M3067.2,2444.6V1906
		 M3094.1,2450.3h-21.2 M3099.8,2444.6v-11.4 M3099.8,2433.2h15.3 M3115.1,2433.2v-31.1 M3115.1,2402.1h-4.2 M3110.9,2402.1v-8.5
		 M3115.1,2393.6h-4.2 M3115.1,2393.6v-2.9 M3115.1,2390.7h11.9 M3127,2393.6v-2.9 M3131.3,2393.6h-4.3 M3131.3,2402.1v-8.5
		 M3131.3,2402.1h-4.3 M3127,2433.2v-31.1 M3127,2433.2h15.3 M3142.3,2444.6v-11.4 M3148,2450.3h21.3 M3174.9,2444.6v-11.4
		 M3174.9,2433.2h17 M3191.9,1271v1162.2 M3174.9,1271h17 M3174.9,1259.7v11.3 M3148,1254h21.3 M3142.3,1259.7v11.3 M3127,1271h15.3
		 M3127,1271v31.2 M3131.3,1302.2h-4.3 M3131.3,1302.2v8.5 M3131.3,1310.7h-4.3 M3127,1310.7v2.9 M3115.1,1313.6h11.9
		 M3115.1,1310.7v2.9 M3115.1,1310.7h-4.2 M3110.9,1302.2v8.5 M3115.1,1302.2h-4.2 M3115.1,1271v31.2 M3099.8,1271h15.3
		 M3099.8,1259.7v11.3 M3094.1,1254h-21.2 M3067.2,1259.7v538.6 M3055.9,1798.3h11.3 M3050.2,1825.2V1804 M3055.9,1830.9h11.3
		 M3067.2,1830.9v15.3 M3098.4,1846.2h-31.2 M3098.4,1841.9v4.3 M3106.9,1841.9h-8.5 M3106.9,1841.9v4.3 M3109.7,1846.2h-2.8
		 M3055.9,1798.3l-1.1,0.1l-1.1,0.3l-1,0.5l-0.8,0.7l-0.7,0.9l-0.6,1l-0.3,1l-0.1,1.2 M3050.2,1825.2l0.1,1.1l0.3,1.1l0.6,1l0.7,0.8
		l0.8,0.7l1,0.6l1.1,0.3l1.1,0.1 M3055.9,1873.4l-1.1,0.1l-1.1,0.3l-1,0.6l-0.8,0.7l-0.7,0.8l-0.6,1l-0.3,1.1l-0.1,1.1
		 M3050.2,1900.3l0.1,1.1l0.3,1.1l0.6,1l0.7,0.8l0.8,0.7l1,0.6l1.1,0.3l1.1,0.1 M3067.2,2444.6l0.1,1.1l0.3,1.1l0.6,0.9l0.7,0.9
		l0.8,0.7l1,0.5l1.1,0.3l1.1,0.2 M3094.1,2450.3l1.1-0.2l1.1-0.3l1-0.5l0.9-0.7l0.7-0.9l0.5-0.9l0.3-1.1l0.1-1.1 M3142.3,2444.6
		l0.1,1.1l0.4,1.1l0.5,0.9l0.7,0.9l0.8,0.7l1,0.5l1.1,0.3l1.1,0.2 M3169.3,2450.3l1.1-0.2l1-0.3l1-0.5l0.9-0.7l0.7-0.9l0.5-0.9
		l0.3-1.1l0.1-1.1 M3174.9,1259.7l-0.1-1.1l-0.3-1.1l-0.5-0.9l-0.7-0.9l-0.9-0.7l-1-0.5l-1-0.4l-1.1-0.1 M3148,1254l-1.1,0.1
		l-1.1,0.4l-1,0.5l-0.8,0.7l-0.7,0.9l-0.5,0.9l-0.4,1.1l-0.1,1.1 M3099.8,1259.7l-0.1-1.1l-0.3-1.1l-0.5-0.9l-0.7-0.9l-0.9-0.7
		l-1-0.5l-1.1-0.4l-1.1-0.1 M3072.9,1254l-1.1,0.1l-1.1,0.4l-1,0.5l-0.8,0.7l-0.7,0.9l-0.6,0.9l-0.3,1.1l-0.1,1.1"/>
	<path class="st2" d="M2854.6,2433.2h17 M2871.6,2444.5v-11.3 M2898.5,2450.2h-21.2 M2904.2,2444.5v-11.3 M2904.2,2433.2h15.3
		 M2919.5,2433.2V2402 M2919.5,2402h-4.3 M2915.2,2402v-8.5 M2919.5,2393.5h-4.3 M2919.5,2393.5v-2.8 M2919.5,2390.7h11.9
		 M2931.4,2393.5v-2.8 M2935.6,2393.5h-4.2 M2935.6,2402v-8.5 M2935.6,2402h-4.2 M2931.4,2433.2V2402 M2931.4,2433.2h15.3
		 M2946.7,2444.5v-11.3 M2952.4,2450.2h21.2 M2979.3,2444.5v-11.3 M2979.3,2433.2h17 M2996.3,1271v1162.2 M2979.3,1271h17
		 M2979.3,1259.6v11.4 M2952.4,1254h21.2 M2946.7,1259.6v11.4 M2931.4,1271h15.3 M2931.4,1271v31.2 M2935.6,1302.2h-4.2
		 M2935.6,1302.2v8.5 M2935.6,1310.7h-4.2 M2931.4,1310.7v2.8 M2919.5,1313.5h11.9 M2919.5,1310.7v2.8 M2919.5,1310.7h-4.3
		 M2915.2,1302.2v8.5 M2919.5,1302.2h-4.3 M2919.5,1271v31.2 M2904.2,1271h15.3 M2904.2,1259.6v11.4 M2898.5,1254h-21.2
		 M2871.6,1259.6v11.4 M2854.6,1271h17 M2854.6,1271v1162.2 M2952.4,1254l-1.1,0.1l-1.1,0.3l-1,0.5l-0.8,0.7l-0.7,0.9l-0.6,1l-0.3,1
		l-0.1,1.1 M2904.2,1259.6l-0.1-1.1l-0.3-1l-0.6-1l-0.7-0.9l-0.8-0.7l-1-0.5l-1.1-0.3l-1.1-0.1 M2877.3,1254l-1.2,0.1l-1,0.3l-1,0.5
		l-0.9,0.7l-0.7,0.9l-0.5,1l-0.3,1l-0.1,1.1 M2871.6,2444.5l0.1,1.1l0.3,1.1l0.5,1l0.7,0.8l0.9,0.7l1,0.6l1,0.3l1.2,0.1
		 M2898.5,2450.2l1.1-0.1l1.1-0.3l1-0.6l0.8-0.7l0.7-0.8l0.6-1l0.3-1.1l0.1-1.1 M2946.7,2444.5l0.1,1.1l0.3,1.1l0.6,1l0.7,0.8
		l0.8,0.7l1,0.6l1.1,0.3l1.1,0.1 M2973.6,2450.2l1.1-0.1l1.1-0.3l1-0.6l0.8-0.7l0.7-0.8l0.6-1l0.3-1.1l0.1-1.1 M2979.3,1259.6
		l-0.1-1.1l-0.3-1l-0.6-1l-0.7-0.9l-0.8-0.7l-1-0.5l-1.1-0.3l-1.1-0.1"/>
	<path class="st2" d="M2376.1,1271h-36.3 M2113.8,1533.2h-191.3 M1766.6,1271h-496.1 M1242.2,1299.4v1105.5 M1270.5,2433.2h1105.6
		 M2404.4,2404.9V1299.4 M2141.3,1271H1880 M2339.8,1271l-5.6,0.6l-5.3,1.6l-4.9,2.6l-4.3,3.5l-3.5,4.3l-2.6,4.9l-1.6,5.4l-0.6,5.5
		 M2311.4,1299.4l-0.5,5.5l-1.6,5.3l-2.7,4.9l-3.5,4.3l-4.3,3.6l-4.9,2.6l-5.3,1.6l-5.5,0.5 M2198,1327.7h85.1 M2198,1327.7
		l-5.5-0.5l-5.3-1.6l-4.9-2.6l-4.3-3.6l-3.5-4.3l-2.7-4.9l-1.6-5.3l-0.5-5.5 M2169.7,1299.4l-0.6-5.5l-1.6-5.4l-2.6-4.9l-3.5-4.3
		l-4.3-3.5l-4.9-2.6l-5.3-1.6l-5.6-0.6 M1880,1271v-11.3 M1880,1259.7l-0.1-1.1l-0.3-1.1l-0.6-0.9l-0.7-0.9l-0.8-0.7l-1-0.5
		l-1.1-0.4l-1.1-0.1 M1772.3,1254h102 M1772.3,1254l-1.1,0.1l-1.1,0.4l-1,0.5l-0.8,0.7l-0.7,0.9l-0.6,0.9l-0.3,1.1l-0.1,1.1
		 M1766.6,1271v-11.3 M1270.5,1271l-5.5,0.6l-5.3,1.6l-4.9,2.6l-4.3,3.5l-3.5,4.3l-2.6,4.9l-1.7,5.4l-0.5,5.5 M1242.2,2404.9
		l0.5,5.5l1.7,5.3l2.6,4.9l3.5,4.3l4.3,3.6l4.9,2.6l5.3,1.6l5.5,0.5 M2376.1,2433.2l5.5-0.5l5.3-1.6l4.9-2.6l4.3-3.6l3.5-4.3
		l2.6-4.9l1.7-5.3l0.5-5.5 M2404.4,1299.4l-0.5-5.5l-1.7-5.4l-2.6-4.9l-3.5-4.3l-4.3-3.5l-4.9-2.6l-5.3-1.6l-5.5-0.6 M1724.1,1533.2
		h-191.4 M1724.1,1533.2l5.5-0.5l5.3-1.6l4.9-2.6l4.3-3.6l3.6-4.3l2.6-4.9l1.6-5.3l0.5-5.5 M1752.4,1504.9v-14.2 M1752.4,1490.7
		l0.6-5.5l1.6-5.3l2.6-4.9l3.5-4.3l4.3-3.5l4.9-2.7l5.3-1.6l5.6-0.5 M1780.8,1462.4h85 M1865.8,1462.4l5.5,0.5l5.4,1.6l4.9,2.7
		l4.3,3.5l3.5,4.3l2.6,4.9l1.6,5.3l0.6,5.5 M1894.2,1490.7v14.2 M1894.2,1504.9l0.5,5.5l1.6,5.3l2.6,4.9l3.6,4.3l4.3,3.6l4.9,2.6
		l5.3,1.6l5.5,0.5 M2113.8,1533.2l5.6,0.6l5.3,1.6l4.9,2.6l4.3,3.5l3.5,4.3l2.6,4.9l1.6,5.4l0.6,5.5 M2142.2,2142.7v-581.1
		 M2142.2,2142.7l-0.6,5.5l-1.6,5.3l-2.6,4.9l-3.5,4.3l-4.3,3.6l-4.9,2.6l-5.3,1.6l-5.6,0.5 M1532.7,2171h581.1 M1532.7,2171
		l-5.5-0.5l-5.3-1.6l-4.9-2.6l-4.3-3.6l-3.5-4.3l-2.6-4.9l-1.7-5.3l-0.5-5.5 M1504.4,1561.6v581.1 M1504.4,1561.6l0.5-5.5l1.7-5.4
		l2.6-4.9l3.5-4.3l4.3-3.5l4.9-2.6l5.3-1.6l5.5-0.6 M1738.3,2291.5l-6.7,0.5l-6.5,1.6l-6.1,2.5l-5.7,3.5l-5.1,4.4l-4.3,5l-3.5,5.7
		l-2.6,6.2l-1.5,6.5l-0.6,6.6l0.6,6.7l1.5,6.5l2.6,6.1l3.5,5.7l4.3,5.1l5.1,4.3l5.7,3.5l6.1,2.6l6.5,1.5l6.7,0.6 M1908.3,2291.5
		h-170 M1908.3,2376.6l6.7-0.6l6.5-1.5l6.1-2.6l5.7-3.5l5.1-4.3l4.3-5.1l3.5-5.7l2.6-6.1l1.5-6.5l0.6-6.7l-0.6-6.6l-1.5-6.5
		l-2.6-6.2l-3.5-5.7l-4.3-5l-5.1-4.4l-5.7-3.5l-6.1-2.5l-6.5-1.6l-6.7-0.5 M1738.3,2376.6h170"/>
	<path class="st2" d="M1783.7,3089h-391.8 M1259.2,4031.5v15.3 M1259.2,3266.2v15.3 M2421.5,3308.7v-15.3 M2421.5,4074.1v-15.3
		 M1861.6,3089h-15.3 M1391.9,3089l-2.2,0.2l-2.1,0.7l-2,1l-1.7,1.4l-1.4,1.8l-1.1,1.9l-0.6,2.1l-0.2,2.3 M1380.6,3100.4v5.6
		 M1369.2,3117.4l2.2-0.3l2.2-0.6l1.9-1l1.7-1.5l1.5-1.7l1-1.9l0.7-2.2l0.2-2.2 M1363.6,3117.4h5.6 M1352.2,3106l0.2,2.2l0.7,2.2
		l1,1.9l1.4,1.7l1.8,1.5l1.9,1l2.1,0.6l2.3,0.3 M1352.2,3100.4v5.6 M1352.2,3100.4l-0.2-2.3l-0.6-2.1l-1.1-1.9l-1.4-1.8l-1.7-1.4
		l-2-1l-2.1-0.7l-2.2-0.2 M1340.9,3089h-81.7 M1259.2,3089v141.8 M1259.2,3230.8h-11.3 M1247.9,3230.8l-1.1,0.1l-1.1,0.3l-0.9,0.5
		l-0.9,0.7l-0.7,0.9l-0.5,1l-0.4,1l-0.1,1.1 M1242.2,3260.5v-24.1 M1242.2,3260.5l0.1,1.1l0.4,1.1l0.5,1l0.7,0.8l0.9,0.7l0.9,0.6
		l1.1,0.3l1.1,0.1 M1259.2,3266.2h-11.3 M1259.2,3281.5h31.2 M1290.4,3281.5v-4.3 M1290.4,3277.2h8.5 M1298.9,3281.5v-4.3
		 M1298.9,3281.5h2.9 M1301.8,3281.5v11.9 M1298.9,3293.4h2.9 M1298.9,3297.6v-4.2 M1290.4,3297.6h8.5 M1290.4,3297.6v-4.2
		 M1259.2,3293.4h31.2 M1259.2,3293.4v15.3 M1259.2,3308.7h-11.3 M1247.9,3308.7l-1.1,0.1l-1.1,0.3l-0.9,0.6l-0.9,0.7l-0.7,0.8
		l-0.5,1l-0.4,1.1l-0.1,1.1 M1242.2,3338.5v-24.1 M1242.2,3338.5l0.1,1.1l0.4,1l0.5,1l0.7,0.9l0.9,0.7l0.9,0.5l1.1,0.3l1.1,0.1
		 M1259.2,3344.1h-11.3 M1259.2,3344.1v652 M1259.2,3996.1h-11.3 M1247.9,3996.1l-1.1,0.1l-1.1,0.3l-0.9,0.6l-0.9,0.7l-0.7,0.8
		l-0.5,1l-0.4,1.1l-0.1,1.1 M1242.2,4001.8v24.1 M1242.2,4025.9l0.1,1.1l0.4,1l0.5,1l0.7,0.9l0.9,0.7l0.9,0.5l1.1,0.3l1.1,0.1
		 M1259.2,4031.5h-11.3 M1259.2,4046.8h31.2 M1290.4,4042.6v4.2 M1290.4,4042.6h8.5 M1298.9,4042.6v4.2 M1298.9,4046.8h2.9
		 M1301.8,4058.8v-12 M1298.9,4058.8h2.9 M1298.9,4058.8v4.2 M1290.4,4063h8.5 M1290.4,4058.8v4.2 M1259.2,4058.8h31.2
		 M1259.2,4058.8v15.3 M1259.2,4074.1h-11.3 M1247.9,4074.1l-1.1,0.1l-1.1,0.3l-0.9,0.5l-0.9,0.7l-0.7,0.9l-0.5,1l-0.4,1l-0.1,1.1
		 M1242.2,4079.7v24.1 M1242.2,4103.8l0.1,1.1l0.4,1.1l0.5,1l0.7,0.8l0.9,0.7l0.9,0.6l1.1,0.3l1.1,0.1 M1259.2,4109.5h-11.3
		 M1259.2,4109.5v158.7 M2421.5,4268.2H1259.2 M2421.5,4268.2v-158.7 M2421.5,4109.5h11.3 M2432.8,4109.5l1.1-0.1l1.1-0.3l0.9-0.6
		l0.9-0.7l0.7-0.8l0.5-1l0.3-1.1l0.2-1.1 M2438.5,4079.7v24.1 M2438.5,4079.7l-0.2-1.1l-0.3-1l-0.5-1l-0.7-0.9l-0.9-0.7l-0.9-0.5
		l-1.1-0.3l-1.1-0.1 M2421.5,4074.1h11.3 M2421.5,4058.8h-31.2 M2390.3,4058.8v4.2 M2390.3,4063h-8.5 M2381.8,4058.8v4.2
		 M2381.8,4058.8h-2.9 M2378.9,4058.8v-12 M2381.8,4046.8h-2.9 M2381.8,4042.6v4.2 M2390.3,4042.6h-8.5 M2390.3,4042.6v4.2
		 M2421.5,4046.8h-31.2 M2421.5,4046.8v-15.3 M2421.5,4031.5h11.3 M2432.8,4031.5l1.1-0.1l1.1-0.3l0.9-0.5l0.9-0.7l0.7-0.9l0.5-1
		l0.3-1l0.2-1.1 M2438.5,4001.8v24.1 M2438.5,4001.8l-0.2-1.1l-0.3-1.1l-0.5-1l-0.7-0.8l-0.9-0.7l-0.9-0.6l-1.1-0.3l-1.1-0.1
		 M2421.5,3996.1h11.3 M2421.5,3996.1v-652 M2421.5,3344.1h11.3 M2432.8,3344.1l1.1-0.1l1.1-0.3l0.9-0.5l0.9-0.7l0.7-0.9l0.5-1
		l0.3-1l0.2-1.1 M2438.5,3338.5v-24.1 M2438.5,3314.4l-0.2-1.1l-0.3-1.1l-0.5-1l-0.7-0.8l-0.9-0.7l-0.9-0.6l-1.1-0.3l-1.1-0.1
		 M2421.5,3308.7h11.3 M2421.5,3293.4h-31.2 M2390.3,3297.6v-4.2 M2390.3,3297.6h-8.5 M2381.8,3297.6v-4.2 M2381.8,3293.4h-2.9
		 M2378.9,3281.5v11.9 M2381.8,3281.5h-2.9 M2381.8,3281.5v-4.3 M2390.3,3277.2h-8.5 M2390.3,3281.5v-4.3 M2421.5,3281.5h-31.2
		 M2421.5,3281.5v-15.3 M2421.5,3266.2h11.3 M2432.8,3266.2l1.1-0.1l1.1-0.3l0.9-0.6l0.9-0.7l0.7-0.8l0.5-1l0.3-1.1l0.2-1.1
		 M2438.5,3260.5v-24.1 M2438.5,3236.4l-0.2-1.1l-0.3-1l-0.5-1l-0.7-0.9l-0.9-0.7l-0.9-0.5l-1.1-0.3l-1.1-0.1 M2421.5,3230.8h11.3
		 M2421.5,3230.8V3089 M2421.5,3089H1897 M1897,3089v-11.3 M1897,3077.7l-0.1-1.1l-0.3-1.1l-0.5-1l-0.7-0.8l-0.9-0.7l-1-0.6l-1-0.3
		l-1.1-0.1 M1867.3,3072h24.1 M1867.3,3072l-1.1,0.1l-1.1,0.3l-1,0.6l-0.8,0.7l-0.7,0.8l-0.6,1l-0.3,1.1l-0.1,1.1 M1861.6,3077.7
		v11.3 M1846.3,3089v31.2 M1846.3,3120.2h4.3 M1850.6,3120.2v8.5 M1846.3,3128.7h4.3 M1846.3,3128.7v2.8 M1846.3,3131.5h-11.9
		 M1834.4,3128.7v2.8 M1830.1,3128.7h4.3 M1830.1,3120.2v8.5 M1830.1,3120.2h4.3 M1834.4,3089v31.2 M1834.4,3089h-15.3 M1819.1,3089
		v-11.3 M1819.1,3077.7l-0.1-1.1l-0.3-1.1l-0.6-1l-0.7-0.8l-0.8-0.7l-1-0.6l-1.1-0.3l-1.1-0.1 M1789.3,3072h24.1 M1789.3,3072
		l-1.1,0.1l-1,0.3l-1,0.6l-0.9,0.7l-0.7,0.8l-0.5,1l-0.3,1.1l-0.1,1.1 M1783.7,3089v-11.3 M2220.2,4021.6v-703 M2220.2,4021.6
		l-0.6,5.5l-1.6,5.4l-2.6,4.9l-3.5,4.3l-4.3,3.5l-4.9,2.6l-5.3,1.6l-5.6,0.6 M1488.9,4050h702.9 M1488.9,4050l-5.6-0.6l-5.3-1.6
		l-4.9-2.6l-4.3-3.5l-3.5-4.3l-2.6-4.9l-1.6-5.4l-0.6-5.5 M1460.5,3318.6v703 M1460.5,3318.6l0.6-5.5l1.6-5.3l2.6-4.9l3.5-4.3
		l4.3-3.5l4.9-2.7l5.3-1.6l5.6-0.5 M2191.8,3290.3h-702.9 M2191.8,3290.3l5.6,0.5l5.3,1.6l4.9,2.7l4.3,3.5l3.5,4.3l2.6,4.9l1.6,5.3
		l0.6,5.5"/>
	<path class="st3" d="M635.2,3608.6v-8.5 M591,3615.7l0.9-0.1l0.8-0.1l0.9-0.3l0.8-0.4l0.7-0.5l0.7-0.5l0.6-0.7l0.6-0.7l0.4-0.8
		l0.3-0.8l0.2-0.9l0.2-0.8v-0.9l-0.2-0.9l-0.2-0.9l-0.3-0.8l-0.4-0.8l-0.6-0.7l-0.6-0.7l-0.7-0.5l-0.7-0.5l-0.8-0.4l-0.9-0.3
		l-0.8-0.1l-0.9-0.1l-0.9,0.1l-0.9,0.1l-0.8,0.3l-0.8,0.4l-0.8,0.5l-0.7,0.5l-0.6,0.7l-0.5,0.7l-0.4,0.8l-0.4,0.8l-0.2,0.9l-0.1,0.9
		v0.9l0.1,0.8l0.2,0.9l0.4,0.8l0.4,0.8l0.5,0.7l0.6,0.7l0.7,0.5l0.8,0.5l0.8,0.4l0.8,0.3l0.9,0.1L591,3615.7 M656.2,3601.5l-0.9,0.1
		l-0.9,0.1l-0.8,0.3l-0.8,0.4l-0.8,0.5l-0.7,0.5l-0.6,0.7l-0.5,0.7l-0.4,0.8l-0.4,0.8l-0.2,0.9l-0.1,0.9v0.9l0.1,0.8l0.2,0.9
		l0.4,0.8l0.4,0.8l0.5,0.7l0.6,0.7l0.7,0.5l0.8,0.5l0.8,0.4l0.8,0.3l0.9,0.1l0.9,0.1l0.9-0.1l0.8-0.1l0.9-0.3l0.8-0.4l0.7-0.5
		l0.7-0.5l0.6-0.7l0.6-0.7l0.4-0.8l0.3-0.8l0.2-0.9l0.1-0.8v-0.9l-0.1-0.9l-0.2-0.9l-0.3-0.8l-0.4-0.8l-0.6-0.7l-0.6-0.7l-0.7-0.5
		l-0.7-0.5l-0.8-0.4l-0.9-0.3l-0.8-0.1L656.2,3601.5 M596.6,3554.8h53.9 M596.6,3554.8h-0.8l-0.8,0.2l-0.7,0.3l-0.7,0.4l-0.7,0.4
		l-0.5,0.6l-0.5,0.7l-0.4,0.7l-0.3,0.7l-0.2,0.8v0.8 M591,3591.6v-31.2 M572.6,3591.6H591 M572.6,3591.6l-0.9,0.1l-0.7,0.1l-0.8,0.3
		l-0.7,0.4l-0.7,0.5l-0.5,0.6l-0.5,0.6l-0.4,0.7l-0.3,0.8l-0.2,0.8v0.8 M566.9,3597.3v36.8 M566.9,3634.1v0.8l0.2,0.8l0.3,0.8
		l0.4,0.7l0.5,0.6l0.5,0.6l0.7,0.5l0.7,0.4l0.8,0.3l0.7,0.1l0.9,0.1 M572.6,3639.8h4.2 M576.8,3662.5v-22.7 M576.8,3662.5l0.1,0.8
		l0.1,0.8l0.3,0.7l0.4,0.7l0.5,0.7l0.6,0.6l0.6,0.4l0.7,0.4l0.8,0.3l0.8,0.2h0.8 M582.5,3668.1h17 M599.5,3668.1h0.8l0.8-0.2
		l0.7-0.3l0.7-0.4l0.7-0.4l0.6-0.6l0.5-0.7l0.3-0.7l0.3-0.7l0.2-0.8l0.1-0.8 M605.2,3662.5v-22.7 M605.2,3639.8h12.4 M617.6,3639.8
		v-31.2 M617.6,3608.6H612 M612,3608.6v-8.5 M617.6,3600.1H612 M617.6,3597.3v2.8 M629.5,3597.3h-11.9 M629.5,3600.1v-2.8
		 M635.2,3600.1h-5.7 M635.2,3608.6h-5.7 M629.5,3639.8v-31.2 M629.5,3639.8H642 M642,3662.5v-22.7 M642,3662.5l0.1,0.8l0.1,0.8
		l0.3,0.7l0.4,0.7l0.5,0.7l0.6,0.6l0.6,0.4l0.7,0.4l0.8,0.3l0.8,0.2h0.8 M647.7,3668.1h17 M664.7,3668.1h0.8l0.8-0.2l0.7-0.3
		l0.7-0.4l0.7-0.4l0.6-0.6l0.4-0.7l0.4-0.7l0.3-0.7l0.2-0.8v-0.8 M670.3,3662.5v-22.7 M670.3,3639.8h4.3 M674.6,3639.8l0.8-0.1
		l0.8-0.1l0.8-0.3l0.7-0.4l0.6-0.5l0.6-0.6l0.5-0.6l0.4-0.7l0.2-0.8l0.2-0.8l0.1-0.8 M680.3,3588.8v45.3 M680.3,3588.8l-0.1-0.8
		l-0.2-0.8l-0.2-0.8l-0.4-0.7l-0.5-0.6l-0.6-0.6l-0.6-0.5l-0.7-0.4l-0.8-0.3l-0.8-0.1l-0.8-0.1 M656.2,3583.1h18.4 M656.2,3560.4
		v22.7 M656.2,3560.4l-0.1-0.8l-0.2-0.8l-0.2-0.7l-0.4-0.7l-0.5-0.7l-0.6-0.6l-0.6-0.4l-0.7-0.4l-0.8-0.3l-0.8-0.2h-0.8"/>
	<path class="st3" d="M943.9,3196.1h150.2 M1204.7,4096.1v-15.3 M42.5,4053.6v15.3 M42.5,3111v907.1 M31.1,4018.1h11.4 M31.1,4018.1
		l-1.1,0.1l-1,0.4l-1,0.5l-0.9,0.7l-0.7,0.9l-0.5,0.9l-0.3,1.1l-0.1,1.1 M25.5,4047.9v-24.1 M25.5,4047.9l0.1,1.1l0.3,1.1l0.5,0.9
		l0.7,0.9l0.9,0.7l1,0.5l1,0.4l1.1,0.1 M31.1,4053.6h11.4 M42.5,4068.9h31.2 M73.7,4068.9v-4.3 M73.7,4064.6h8.5 M82.2,4068.9v-4.3
		 M82.2,4068.9H85 M85,4080.8v-11.9 M82.2,4080.8H85 M82.2,4085v-4.2 M73.7,4085h8.5 M73.7,4085v-4.2 M42.5,4080.8h31.2
		 M42.5,4080.8v15.3 M31.1,4096.1h11.4 M31.1,4096.1l-1.1,0.1l-1,0.3l-1,0.5l-0.9,0.7l-0.7,0.9l-0.5,1l-0.3,1l-0.1,1.2 M25.5,4125.9
		v-24.1 M25.5,4125.9l0.1,1.1l0.3,1l0.5,1l0.7,0.9l0.9,0.7l1,0.5l1,0.3l1.1,0.1 M31.1,4131.5h11.4 M42.5,4131.5v141.8 M42.5,4273.3
		h1162.2 M1204.7,4273.3v-141.8 M1216,4131.5h-11.3 M1216,4131.5l1.1-0.1l1.1-0.3l1-0.5l0.8-0.7l0.7-0.9l0.6-1l0.3-1l0.1-1.1
		 M1221.7,4125.9v-24.1 M1221.7,4101.8l-0.1-1.2l-0.3-1l-0.6-1l-0.7-0.9l-0.8-0.7l-1-0.5l-1.1-0.3l-1.1-0.1 M1216,4096.1h-11.3
		 M1204.7,4080.8h-31.2 M1173.5,4085v-4.2 M1173.5,4085h-8.5 M1165,4085v-4.2 M1165,4080.8h-2.8 M1162.2,4080.8v-11.9 M1165,4068.9
		h-2.8 M1165,4068.9v-4.3 M1173.5,4064.6h-8.5 M1173.5,4068.9v-4.3 M1204.7,4068.9h-31.2 M1204.7,4068.9v-15.3 M1216,4053.6h-11.3
		 M1216,4053.6l1.1-0.1l1.1-0.4l1-0.5l0.8-0.7l0.7-0.9l0.6-0.9l0.3-1.1l0.1-1.1 M1221.7,4047.9v-24.1 M1221.7,4023.8l-0.1-1.1
		l-0.3-1.1l-0.6-0.9l-0.7-0.9l-0.8-0.7l-1-0.5l-1.1-0.4l-1.1-0.1 M1216,4018.1h-11.3 M1204.7,4018.1V3111 M1204.7,3111h-104.9
		 M1099.8,3190.4V3111 M1099.8,3190.4l-0.1,1.1l-0.3,1.1l-0.5,1l-0.8,0.8l-0.8,0.7l-1,0.6l-1.1,0.3l-1.1,0.1 M943.9,3196.1l-1.1-0.1
		l-1.1-0.3l-0.9-0.6l-0.9-0.7l-0.7-0.8l-0.5-1l-0.4-1.1l-0.1-1.1 M938.2,3190.4V3111 M938.2,3111H680.3 M680.3,3111v-11.3
		 M680.3,3099.7l-0.1-1.1l-0.4-1.1l-0.5-0.9l-0.7-0.9l-0.8-0.7l-1-0.5l-1.1-0.4l-1.1-0.1 M674.6,3094h-102 M572.6,3094l-1.1,0.1
		l-1.1,0.4l-1,0.5l-0.8,0.7l-0.8,0.9l-0.5,0.9l-0.3,1.1l-0.1,1.1 M566.9,3099.7v11.3 M566.9,3111H42.5 M1074.3,4242.4l2.3-0.5
		l1.9-1.3l1.3-1.9l0.4-2.3l-0.4-2.3l-1.3-1.9l-1.9-1.3l-2.3-0.5l-2.3,0.5l-1.9,1.3l-1.3,1.9l-0.5,2.3l0.5,2.3l1.3,1.9l1.9,1.3
		L1074.3,4242.4 M391.1,3145.3l2.3-0.4l2-1.3l1.2-1.9l0.5-2.3l-0.5-2.3l-1.2-1.9l-2-1.3l-2.3-0.5l-2.2,0.5l-2,1.3l-1.3,1.9l-0.4,2.3
		l0.4,2.3l1.3,1.9l2,1.3L391.1,3145.3 M391.1,3457.2l2.3-0.5l2-1.3l1.2-1.9l0.5-2.3l-0.5-2.3l-1.2-1.9l-2-1.3l-2.3-0.4l-2.2,0.4
		l-2,1.3l-1.3,1.9l-0.4,2.3l0.4,2.3l1.3,1.9l2,1.3L391.1,3457.2 M909.9,4244.9v-34 M892.9,4244.9h17 M892.9,4210.9v34 M909.9,4210.9
		h-17 M161.5,4157h-34 M161.5,4174v-17 M127.5,4174h34 M127.5,4157v17 M182.8,4159.6l-2.3,0.4l-1.9,1.3l-1.3,2l-0.5,2.2l0.5,2.3
		l1.3,1.9l1.9,1.3l2.3,0.5l2.3-0.5l1.9-1.3l1.3-1.9l0.5-2.3l-0.5-2.2l-1.3-2l-1.9-1.3L182.8,4159.6 M238.1,4174v-17 M204.1,4174h34
		 M204.1,4157v17 M238.1,4157h-34 M909.9,4134.4h-17 M909.9,4168.4v-34 M892.9,4168.4h17 M892.9,4134.4v34 M901.4,4195.6l2.3-0.5
		l1.9-1.3l1.3-1.9l0.4-2.3l-0.4-2.2l-1.3-2l-1.9-1.3l-2.3-0.4l-2.3,0.4l-1.9,1.3l-1.3,2l-0.5,2.2l0.5,2.3l1.3,1.9l1.9,1.3
		L901.4,4195.6 M909.9,3139.4h-17 M909.9,3173.4v-34 M892.9,3173.4h17 M892.9,3139.4v34 M901.4,3188.7l-2.3,0.5l-1.9,1.3l-1.3,1.9
		l-0.5,2.3l0.5,2.2l1.3,2l1.9,1.3l2.3,0.4l2.3-0.4l1.9-1.3l1.3-2l0.4-2.2l-0.4-2.3l-1.3-1.9l-1.9-1.3L901.4,3188.7 M752.6,3961.2
		l-2.3,0.4l-1.9,1.3l-1.3,1.9l-0.5,2.3l0.5,2.3l1.3,1.9l1.9,1.3l2.3,0.5l2.2-0.5l2-1.3l1.3-1.9l0.4-2.3l-0.4-2.3l-1.3-1.9l-2-1.3
		L752.6,3961.2 M697.3,3975.6h34 M697.3,3958.6v17 M731.3,3958.6h-34 M731.3,3975.6v-17 M773.8,3975.6h34 M773.8,3958.6v17
		 M807.8,3958.6h-34 M807.8,3975.6v-17 M204.1,3975.6h34 M204.1,3958.6v17 M238.1,3958.6h-34 M238.1,3975.6v-17 M731.3,4157h-34
		 M731.3,4174v-17 M697.3,4174h34 M697.3,4157v17 M752.6,4171.5l2.2-0.5l2-1.3l1.3-1.9l0.4-2.3l-0.4-2.2l-1.3-2l-2-1.3l-2.2-0.4
		l-2.3,0.4l-1.9,1.3l-1.3,2l-0.5,2.2l0.5,2.3l1.3,1.9l1.9,1.3L752.6,4171.5 M807.8,4157h-34 M807.8,4174v-17 M773.8,4174h34
		 M773.8,4157v17 M182.8,3973.1l2.3-0.5l1.9-1.3l1.3-1.9l0.5-2.3l-0.5-2.3l-1.3-1.9l-1.9-1.3l-2.3-0.4l-2.3,0.4l-1.9,1.3l-1.3,1.9
		l-0.5,2.3l0.5,2.3l1.3,1.9l1.9,1.3L182.8,3973.1 M892.9,3249.9h17 M892.9,3215.9v34 M909.9,3215.9h-17 M909.9,3249.9v-34
		 M161.5,3975.6v-17 M127.5,3975.6h34 M127.5,3958.6v17 M161.5,3958.6h-34 M316,4023.2l7.4,0.5l7.2,1.5l6.9,2.5l6.5,3.4l6,4.2l5.4,5
		l4.6,5.7l3.8,6.3l3,6.8l2,7l1,7.3v7.4l-1,7.3l-2,7l-3,6.8l-3.8,6.3l-4.6,5.7l-5.4,5l-6,4.2l-6.5,3.4l-6.9,2.5l-7.2,1.5l-7.4,0.5
		l-7.3-0.5l-7.2-1.5l-6.9-2.5l-6.6-3.4l-6-4.2l-5.3-5l-4.7-5.7l-3.8-6.3l-2.9-6.8l-2-7l-1-7.3v-7.4l1-7.3l2-7l2.9-6.8l3.8-6.3
		l4.7-5.7l5.3-5l6-4.2l6.6-3.4l6.9-2.5l7.2-1.5L316,4023.2 M1031.8,4244.9v-17 M975.1,4244.9h56.7 M975.1,4227.9v17 M1031.8,4227.9
		h-56.7 M1173.5,4227.9h-56.7 M1173.5,4244.9v-17 M1116.8,4244.9h56.7 M1116.8,4227.9v17 M542.8,4066.6l2.3-0.4l1.9-1.3l1.3-2
		l0.5-2.2l-0.5-2.3l-1.3-2l-1.9-1.2l-2.3-0.5l-2.3,0.5l-1.9,1.2l-1.3,2l-0.5,2.3l0.5,2.2l1.3,2l1.9,1.3L542.8,4066.6 M928.9,3725.3
		l1.2-0.2l1-0.7l0.7-1l0.2-1.2l-0.2-1.2l-0.7-1l-1-0.7l-1.2-0.2l-1.2,0.2l-1,0.7l-0.7,1l-0.2,1.2l0.2,1.2l0.7,1l1,0.7L928.9,3725.3
		 M892.9,3719.1l-1.2,0.2l-1,0.7l-0.7,1l-0.2,1.2l0.2,1.2l0.7,1l1,0.7l1.2,0.2l1.2-0.2l1-0.7l0.7-1l0.2-1.2l-0.2-1.2l-0.7-1l-1-0.7
		L892.9,3719.1 M892.9,3665.2l1.2-0.2l1-0.7l0.7-1l0.2-1.2l-0.2-1.2l-0.7-1l-1-0.7l-1.2-0.2l-1.2,0.2l-1,0.7l-0.7,1l-0.2,1.2
		l0.2,1.2l0.7,1l1,0.7L892.9,3665.2 M943.9,3709.2v-34.1 M895.7,3709.2h48.2 M895.7,3675.1v34.1 M943.9,3675.1h-48.2 M452.1,3376.1
		l-1.6,0.3l-1.4,0.9l-0.9,1.4l-0.4,1.6l0.4,1.7l0.9,1.3l1.4,1l1.6,0.3 M466.3,3376.1h-14.2 M466.3,3384.6l1.6-0.3l1.4-1l0.9-1.3
		l0.3-1.7l-0.3-1.6l-0.9-1.4l-1.4-0.9l-1.6-0.3 M452.1,3384.6h14.2 M1002,3532l-1.6,0.3l-1.4,0.9l-0.9,1.4l-0.3,1.6l0.3,1.7l0.9,1.4
		l1.4,0.9l1.6,0.3 M1016.2,3532H1002 M1016.2,3540.5l1.6-0.3l1.4-0.9l0.9-1.4l0.3-1.7l-0.3-1.6l-0.9-1.4l-1.4-0.9l-1.6-0.3
		 M1002,3540.5h14.2 M749.7,3390.3l-1.6,0.3l-1.4,0.9l-0.9,1.4l-0.3,1.6l0.3,1.6l0.9,1.4l1.4,0.9l1.6,0.4 M763.9,3390.3h-14.2
		 M763.9,3398.8l1.6-0.4l1.4-0.9l0.9-1.4l0.4-1.6l-0.4-1.6l-0.9-1.4l-1.4-0.9l-1.6-0.3 M749.7,3398.8h14.2 M749.7,3418.6l-1.6,0.3
		l-1.4,1l-0.9,1.3l-0.3,1.7l0.3,1.6l0.9,1.4l1.4,0.9l1.6,0.3 M763.9,3418.6h-14.2 M763.9,3427.1l1.6-0.3l1.4-0.9l0.9-1.4l0.4-1.6
		l-0.4-1.7l-0.9-1.3l-1.4-1l-1.6-0.3 M749.7,3427.1h14.2 M452.1,3347.7l-1.6,0.4l-1.4,0.9l-0.9,1.4l-0.4,1.6l0.4,1.6l0.9,1.4
		l1.4,0.9l1.6,0.3 M466.3,3347.7h-14.2 M466.3,3356.2l1.6-0.3l1.4-0.9l0.9-1.4l0.3-1.6l-0.3-1.6l-0.9-1.4l-1.4-0.9l-1.6-0.4
		 M452.1,3356.2h14.2 M715.7,3196.1l-1.6,0.3l-1.4,0.9l-0.9,1.4l-0.3,1.6l0.3,1.7l0.9,1.3l1.4,1l1.6,0.3 M729.9,3196.1h-14.2
		 M729.9,3204.6l1.6-0.3l1.4-1l0.9-1.3l0.3-1.7l-0.3-1.6l-0.9-1.4l-1.4-0.9l-1.6-0.3 M715.7,3204.6h14.2 M474.8,3196.1l-1.7,0.3
		l-1.3,0.9l-1,1.4l-0.3,1.6l0.3,1.7l1,1.3l1.3,1l1.7,0.3 M488.9,3196.1h-14.1 M488.9,3204.6l1.7-0.3l1.3-1l1-1.3l0.3-1.7l-0.3-1.6
		l-1-1.4l-1.3-0.9l-1.7-0.3 M474.8,3204.6h14.1 M793.7,3279.7l-0.4-1.6l-0.9-1.4l-1.4-0.9l-1.6-0.3l-1.6,0.3l-1.4,0.9l-0.9,1.4
		l-0.3,1.6 M793.7,3293.9v-14.2 M785.2,3293.9l0.3,1.6l0.9,1.4l1.4,0.9l1.6,0.3l1.6-0.3l1.4-0.9l0.9-1.4l0.4-1.6 M785.2,3279.7v14.2
		 M1002,3560.3l-1.6,0.4l-1.4,0.9l-0.9,1.4l-0.3,1.6l0.3,1.6l0.9,1.4l1.4,0.9l1.6,0.3 M1016.2,3560.3H1002 M1016.2,3568.8l1.6-0.3
		l1.4-0.9l0.9-1.4l0.3-1.6l-0.3-1.6l-0.9-1.4l-1.4-0.9l-1.6-0.4 M1002,3568.8h14.2 M715.7,3159.2l-1.6,0.4l-1.4,0.9l-0.9,1.4
		l-0.3,1.6l0.3,1.6l0.9,1.4l1.4,0.9l1.6,0.3 M729.9,3159.2h-14.2 M729.9,3167.7l1.6-0.3l1.4-0.9l0.9-1.4l0.3-1.6l-0.3-1.6l-0.9-1.4
		l-1.4-0.9l-1.6-0.4 M715.7,3167.7h14.2 M474.8,3159.2l-1.7,0.4l-1.3,0.9l-1,1.4l-0.3,1.6l0.3,1.6l1,1.4l1.3,0.9l1.7,0.3
		 M488.9,3159.2h-14.1 M488.9,3167.7l1.7-0.3l1.3-0.9l1-1.4l0.3-1.6l-0.3-1.6l-1-1.4l-1.3-0.9l-1.7-0.4 M474.8,3167.7h14.1
		 M830.5,3279.7l-0.3-1.6l-0.9-1.4l-1.4-0.9l-1.6-0.3l-1.7,0.3l-1.3,0.9l-1,1.4l-0.3,1.6 M830.5,3293.9v-14.2 M822,3293.9l0.3,1.6
		l1,1.4l1.3,0.9l1.7,0.3l1.6-0.3l1.4-0.9l0.9-1.4l0.3-1.6 M822,3279.7v14.2 M1097,3607.1l0.3,1.6l0.9,1.4l1.4,0.9l1.6,0.4l1.7-0.4
		l1.3-0.9l1-1.4l0.3-1.6 M1097,3592.9v14.2 M1105.5,3592.9l-0.3-1.6l-1-1.4l-1.3-0.9l-1.7-0.3l-1.6,0.3l-1.4,0.9l-0.9,1.4l-0.3,1.6
		 M1105.5,3607.1v-14.2 M1026.1,3848.1l0.3,1.6l1,1.4l1.3,0.9l1.7,0.3l1.6-0.3l1.4-0.9l0.9-1.4l0.3-1.6 M1026.1,3833.9v14.2
		 M1034.6,3833.9l-0.3-1.6l-0.9-1.4l-1.4-0.9l-1.6-0.4l-1.7,0.4l-1.3,0.9l-1,1.4l-0.3,1.6 M1034.6,3848.1v-14.2 M997.8,3848.1
		l0.3,1.6l0.9,1.4l1.4,0.9l1.6,0.3l1.6-0.3l1.4-0.9l0.9-1.4l0.4-1.6 M997.8,3833.9v14.2 M1006.3,3833.9l-0.4-1.6l-0.9-1.4l-1.4-0.9
		l-1.6-0.4l-1.6,0.4l-1.4,0.9l-0.9,1.4l-0.3,1.6 M1006.3,3848.1v-14.2 M691.6,4094.7l-1.6,0.3l-1.4,0.9l-0.9,1.4l-0.3,1.6l0.3,1.6
		l0.9,1.4l1.4,0.9l1.6,0.4 M705.8,4094.7h-14.2 M705.8,4103.2l1.6-0.4l1.4-0.9l0.9-1.4l0.3-1.6l-0.3-1.6l-0.9-1.4l-1.4-0.9l-1.6-0.3
		 M691.6,4103.2h14.2 M928.9,3659l-1.2,0.2l-1,0.7l-0.7,1l-0.2,1.2l0.2,1.2l0.7,1l1,0.7l1.2,0.2l1.2-0.2l1-0.7l0.7-1l0.2-1.2
		l-0.2-1.2l-0.7-1l-1-0.7L928.9,3659 M524.4,4069.2v-17.1 M496,4069.2h28.4 M496,4052.1v17.1 M524.4,4052.1H496 M561.2,4069.2h28.4
		 M561.2,4052.1v17.1 M589.6,4052.1h-28.4 M589.6,4069.2v-17.1 M691.6,4123l-1.6,0.3l-1.4,1l-0.9,1.3l-0.3,1.7l0.3,1.6l0.9,1.4
		l1.4,0.9l1.6,0.3 M705.8,4123h-14.2 M705.8,4131.5l1.6-0.3l1.4-0.9l0.9-1.4l0.3-1.6l-0.3-1.7l-0.9-1.3l-1.4-1l-1.6-0.3
		 M691.6,4131.5h14.2 M1125.3,3607.1l0.3,1.6l1,1.4l1.3,0.9l1.7,0.4l1.6-0.4l1.4-0.9l0.9-1.4l0.3-1.6 M1125.3,3592.9v14.2
		 M1133.8,3592.9l-0.3-1.6l-0.9-1.4l-1.4-0.9l-1.6-0.3l-1.7,0.3l-1.3,0.9l-1,1.4l-0.3,1.6 M1133.8,3607.1v-14.2 M613.7,3394.5
		l-4,0.6l-3.7,1.7l-3,2.6l-2.2,3.4l-1.2,3.9v4l1.2,3.9l2.2,3.4l3,2.6l3.7,1.7l4,0.6 M633.5,3394.5h-19.8 M633.5,3422.9l4-0.6
		l3.7-1.7l3-2.6l2.2-3.4l1.1-3.9v-4l-1.1-3.9l-2.2-3.4l-3-2.6l-3.7-1.7l-4-0.6 M613.7,3422.9h19.8 M1125.2,3676.8l1.7-0.3l1.5-1
		l1-1.5l0.3-1.7l-0.3-1.7l-1-1.5l-1.5-1l-1.7-0.3l-1.8,0.3l-1.4,1l-1,1.5l-0.4,1.7l0.4,1.7l1,1.5l1.4,1L1125.2,3676.8 M926.9,3229
		l1.7-0.4l1.5-1l1-1.4l0.3-1.8l-0.3-1.7l-1-1.5l-1.5-1l-1.7-0.3l-1.7,0.3l-1.5,1l-1,1.5l-0.3,1.7l0.3,1.8l1,1.4l1.5,1L926.9,3229
		 M926.9,3464.2l1.7-0.3l1.5-1l1-1.5l0.3-1.7l-0.3-1.7l-1-1.5l-1.5-1l-1.7-0.3l-1.7,0.3l-1.5,1l-1,1.5l-0.3,1.7l0.3,1.7l1,1.5l1.5,1
		L926.9,3464.2 M1091.3,3464.2l1.7-0.3l1.5-1l1-1.5l0.3-1.7l-0.3-1.7l-1-1.5l-1.5-1l-1.7-0.3l-1.7,0.3l-1.5,1l-1,1.5l-0.3,1.7
		l0.3,1.7l1,1.5l1.5,1L1091.3,3464.2 M1190.5,3676.8l1.8-0.3l1.4-1l1-1.5l0.4-1.7l-0.4-1.7l-1-1.5l-1.4-1l-1.8-0.3l-1.7,0.3l-1.5,1
		l-1,1.5l-0.3,1.7l0.3,1.7l1,1.5l1.5,1L1190.5,3676.8 M1190.5,3841.4l1.8-0.4l1.4-0.9l1-1.5l0.4-1.7l-0.4-1.8l-1-1.4l-1.4-1
		l-1.8-0.4l-1.7,0.4l-1.5,1l-1,1.4l-0.3,1.8l0.3,1.7l1,1.5l1.5,0.9L1190.5,3841.4 M1125.2,3841.4l1.7-0.4l1.5-0.9l1-1.5l0.3-1.7
		l-0.3-1.8l-1-1.4l-1.5-1l-1.7-0.4l-1.8,0.4l-1.4,1l-1,1.4l-0.4,1.8l0.4,1.7l1,1.5l1.4,0.9L1125.2,3841.4 M1091.3,3229l1.7-0.4
		l1.5-1l1-1.4l0.3-1.8l-0.3-1.7l-1-1.5l-1.5-1l-1.7-0.3l-1.7,0.3l-1.5,1l-1,1.5l-0.3,1.7l0.3,1.8l1,1.4l1.5,1L1091.3,3229
		 M875.9,4093.7l1.8-0.4l1.5-1l1-1.5l0.3-1.8l-0.3-1.8l-1-1.5l-1.5-1l-1.8-0.4l-1.8,0.4l-1.5,1l-1.1,1.5l-0.3,1.8l0.3,1.8l1.1,1.5
		l1.5,1L875.9,4093.7 M598.1,3254.6l-1.8-0.3l-1.5-1l-1-1.6l-0.4-1.8l0.4-1.7l1-1.6l1.5-1l1.8-0.3l1.8,0.3l1.5,1l1,1.6l0.4,1.7
		l-0.4,1.8l-1,1.6l-1.5,1L598.1,3254.6 M875.9,4003l-1.8-0.4l-1.5-1l-1.1-1.5l-0.3-1.8l0.3-1.8l1.1-1.5l1.5-1l1.8-0.4l1.8,0.4l1.5,1
		l1,1.5l0.3,1.8l-0.3,1.8l-1,1.5l-1.5,1L875.9,4003 M785.2,4003l1.8-0.4l1.5-1l1-1.5l0.3-1.8l-0.3-1.8l-1-1.5l-1.5-1l-1.8-0.4
		l-1.8,0.4l-1.5,1l-1.1,1.5l-0.3,1.8l0.3,1.8l1.1,1.5l1.5,1L785.2,4003 M739.8,3245.3l1.8,0.3l1.5,1l1,1.6l0.4,1.7l-0.4,1.8l-1,1.6
		l-1.5,1l-1.8,0.3l-1.8-0.3l-1.5-1l-1-1.6l-0.4-1.8l0.4-1.7l1-1.6l1.5-1L739.8,3245.3 M649.1,3254.6l1.8-0.3l1.5-1l1-1.6l0.4-1.8
		l-0.4-1.7l-1-1.6l-1.5-1l-1.8-0.3l-1.8,0.3l-1.5,1l-1,1.6l-0.4,1.7l0.4,1.8l1,1.6l1.5,1L649.1,3254.6 M507.4,3254.6l1.8-0.3l1.5-1
		l1-1.6l0.3-1.8l-0.3-1.7l-1-1.6l-1.5-1l-1.8-0.3l-1.8,0.3l-1.5,1l-1.1,1.6l-0.3,1.7l0.3,1.8l1.1,1.6l1.5,1L507.4,3254.6
		 M694.5,3349.2l7.3-0.5l7.2-1.5l6.9-2.5l6.5-3.4l6-4.2l5.4-5l4.7-5.7l3.8-6.3l2.9-6.8l2-7l1-7.3v-7.4l-1-7.3l-2-7l-2.9-6.8
		l-3.8-6.3l-4.7-5.7l-5.4-5l-6-4.2l-6.5-3.4l-6.9-2.5l-7.2-1.5l-7.3-0.5l-7.4,0.5l-7.2,1.5l-6.9,2.5l-6.5,3.4l-6,4.2l-5.4,5
		l-4.6,5.7l-3.9,6.3l-2.9,6.8l-2,7l-1,7.3v7.4l1,7.3l2,7l2.9,6.8l3.9,6.3l4.6,5.7l5.4,5l6,4.2l6.5,3.4l6.9,2.5l7.2,1.5L694.5,3349.2
		 M623.6,3848.1l12.5-0.6l12.5-1.5l12.3-2.5l12.1-3.5l11.7-4.4l11.3-5.4l10.9-6.3l10.3-7.1l9.8-8l9-8.7l8.4-9.3l7.5-10.1l6.7-10.6
		l5.8-11.1l5-11.6l3.9-11.9l3-12.2l2.1-12.4l1-12.5v-12.5l-1-12.5l-2.1-12.4l-3-12.2l-3.9-11.9l-5-11.6l-5.8-11.1l-6.7-10.6
		l-7.5-10.1l-8.4-9.4l-9-8.6l-9.8-8l-10.3-7.1l-10.9-6.3l-11.3-5.4l-11.7-4.4l-12.1-3.5l-12.3-2.5l-12.5-1.6l-12.5-0.5l-12.6,0.5
		l-12.4,1.6l-12.3,2.5l-12.1,3.5l-11.7,4.4l-11.4,5.4l-10.8,6.3l-10.4,7.1l-9.7,8l-9.1,8.6l-8.3,9.4l-7.5,10.1l-6.7,10.6l-5.9,11.1
		l-4.9,11.6l-4,11.9l-3,12.2l-2,12.4l-1,12.5v12.5l1,12.5l2,12.4l3,12.2l4,11.9l4.9,11.6l5.9,11.1l6.7,10.6l7.5,10.1l8.3,9.3
		l9.1,8.7l9.7,8l10.4,7.1l10.8,6.3l11.4,5.4l11.7,4.4l12.1,3.5l12.3,2.5l12.4,1.5L623.6,3848.1 M849.4,3695.4l1.2-0.2l1.1-0.7
		l0.7-1.1l0.2-1.2l-0.2-1.3l-0.7-1.1l-1.1-0.7l-1.2-0.2l-1.3,0.2l-1,0.7l-0.7,1.1l-0.3,1.3l0.3,1.2l0.7,1.1l1,0.7L849.4,3695.4
		 M794.1,3695.4l1.2-0.2l1.1-0.7l0.7-1.1l0.3-1.2l-0.3-1.3l-0.7-1.1l-1.1-0.7l-1.2-0.2l-1.3,0.2l-1,0.7l-0.7,1.1l-0.3,1.3l0.3,1.2
		l0.7,1.1l1,0.7L794.1,3695.4 M453.1,3695.4l1.2-0.2l1.1-0.7l0.7-1.1l0.2-1.3l-0.2-1.2l-0.7-1.1l-1.1-0.7l-1.2-0.2l-1.3,0.2l-1,0.7
		l-0.7,1.1l-0.3,1.2l0.3,1.3l0.7,1.1l1,0.7L453.1,3695.4 M397.8,3695.4l1.3-0.2l1-0.7l0.7-1.1l0.3-1.3l-0.3-1.2l-0.7-1.1l-1-0.7
		l-1.3-0.2l-1.2,0.2l-1.1,0.7l-0.7,1.1l-0.3,1.2l0.3,1.3l0.7,1.1l1.1,0.7L397.8,3695.4 M830.5,4097.5l7.4-0.5l7.1-1.5l7-2.5l6.5-3.3
		l6-4.3l5.4-5l4.6-5.7l3.8-6.3l3-6.7l1.9-7.1l1-7.3v-7.3l-1-7.3l-1.9-7.1l-3-6.7l-3.8-6.3l-4.6-5.7l-5.4-5l-6-4.3l-6.5-3.4l-7-2.4
		l-7.1-1.5l-7.4-0.5l-7.3,0.5l-7.2,1.5l-6.9,2.4l-6.6,3.4l-6,4.3l-5.3,5l-4.7,5.7l-3.8,6.3l-2.9,6.7l-2,7.1l-1,7.3v7.3l1,7.3l2,7.1
		l2.9,6.7l3.8,6.3l4.7,5.7l5.3,5l6,4.3l6.6,3.3l6.9,2.5l7.2,1.5L830.5,4097.5 M739.8,3345.3l1.8-0.3l1.5-1l1-1.6l0.4-1.7l-0.4-1.8
		l-1-1.6l-1.5-1l-1.8-0.3l-1.8,0.3l-1.5,1l-1,1.6l-0.4,1.8l0.4,1.7l1,1.6l1.5,1L739.8,3345.3 M649.1,3345.3l-1.8-0.3l-1.5-1l-1-1.6
		l-0.4-1.7l0.4-1.8l1-1.6l1.5-1l1.8-0.3l1.8,0.3l1.5,1l1,1.6l0.4,1.8l-0.4,1.7l-1,1.6l-1.5,1L649.1,3345.3 M785.2,4093.7l-1.8-0.4
		l-1.5-1l-1.1-1.5l-0.3-1.8l0.3-1.8l1.1-1.5l1.5-1l1.8-0.4l1.8,0.4l1.5,1l1,1.5l0.3,1.8l-0.3,1.8l-1,1.5l-1.5,1L785.2,4093.7
		 M552.7,3349.2l-7.3-0.5l-7.2-1.5l-6.9-2.5l-6.6-3.4l-6-4.2l-5.3-5l-4.7-5.7l-3.8-6.3l-2.9-6.8l-2-7l-1-7.3v-7.4l1-7.3l2-7l2.9-6.8
		l3.8-6.3l4.7-5.7l5.3-5l6-4.2l6.6-3.4l6.9-2.5l7.2-1.5l7.3-0.5l7.4,0.5l7.2,1.5l6.9,2.5l6.5,3.4l6,4.2l5.4,5l4.6,5.7l3.8,6.3l3,6.8
		l2,7l1,7.3v7.4l-1,7.3l-2,7l-3,6.8l-3.8,6.3l-4.6,5.7l-5.4,5l-6,4.2l-6.5,3.4l-6.9,2.5l-7.2,1.5L552.7,3349.2 M598.1,3345.3
		l1.8-0.3l1.5-1l1-1.6l0.4-1.7l-0.4-1.8l-1-1.6l-1.5-1l-1.8-0.3l-1.8,0.3l-1.5,1l-1,1.6l-0.4,1.8l0.4,1.7l1,1.6l1.5,1L598.1,3345.3
		 M507.4,3345.3l-1.8-0.3l-1.5-1l-1.1-1.6l-0.3-1.7l0.3-1.8l1.1-1.6l1.5-1l1.8-0.3l1.8,0.3l1.5,1l1,1.6l0.3,1.8l-0.3,1.7l-1,1.6
		l-1.5,1L507.4,3345.3"/>
	<path class="st3" d="M2642,3399.1V4086 M2627.9,4081.7v4.3 M2627.9,4086h14.2 M2642,3399.1l-0.1-1.1l-0.3-1l-0.6-1l-0.7-0.9
		l-0.8-0.7l-1-0.5l-1.1-0.3l-1.1-0.1 M2636.4,3393.5H2608 M2608,3376.5v17 M2636.4,3376.5H2608 M2636.4,3376.5l1.1-0.1l1.1-0.4
		l1-0.5l0.8-0.7l0.7-0.8l0.6-1l0.3-1.1l0.1-1.1 M2642,3200.7v170.1 M2642,3200.7l-0.1-1.1l-0.3-1l-0.6-1l-0.7-0.9l-0.8-0.7l-1-0.5
		l-1.1-0.3l-1.1-0.1 M2636.4,3195.1H2608 M2608,3178v17.1 M2636.4,3178H2608 M2636.4,3178l1.1-0.1l1.1-0.3l1-0.5l0.8-0.7l0.7-0.9
		l0.6-1l0.3-1l0.1-1.1 M2642,3078.8v93.6 M2508.9,3078.8H2642 M2508.9,3107.2v-28.4 M2508.9,3107.2h-22.7 M2486.1,3107.2l-1.1,0.1
		l-1.1,0.3l-1,0.5l-0.8,0.7l-0.7,0.9l-0.6,1l-0.3,1l-0.1,1.1 M2480.4,3112.8v22.7 M2480.4,3135.5l0.1,1.1l0.3,1.1l0.6,1l0.7,0.8
		l0.8,0.7l1,0.6l1.1,0.3l1.1,0.1 M2486.1,3141.2h22.7 M2508.9,3156.5v-15.3 M2508.9,3156.5h31.1 M2539.9,3152.3v4.2 M2539.9,3152.3
		h8.5 M2548.4,3152.3v4.2 M2548.4,3156.5h2.9 M2551.4,3156.5v11.9 M2548.4,3168.4h2.9 M2548.4,3168.4v4.3 M2539.9,3172.7h8.5
		 M2539.9,3168.4v4.3 M2508.9,3168.4h31.1 M2508.9,3183.7v-15.3 M2486.1,3183.7h22.7 M2486.1,3183.7l-1.1,0.1l-1.1,0.3l-1,0.6
		l-0.8,0.7l-0.7,0.8l-0.6,1l-0.3,1.1l-0.1,1.1 M2480.4,3212.1v-22.7 M2480.4,3212.1l0.1,1.1l0.3,1l0.6,1l0.7,0.9l0.8,0.7l1,0.5
		l1.1,0.3l1.1,0.1 M2531.4,3217.7h-45.3 M2537.1,3223.4l-0.1-1.1l-0.3-1.1l-0.5-0.9l-0.8-0.9l-0.8-0.7l-1-0.5l-1.1-0.4l-1.1-0.1
		 M2537.1,3240.4v-17 M2531.4,3246.1l1.1-0.1l1.1-0.4l1-0.5l0.8-0.7l0.8-0.8l0.5-1l0.3-1.1l0.1-1.1 M2508.9,3246.1h22.6
		 M2508.9,3342.5v-96.4 M2531.4,3342.5h-22.6 M2531.4,3342.5l1.1,0.1l1.1,0.3l1,0.5l0.8,0.7l0.8,0.9l0.5,1l0.3,1l0.1,1.1
		 M2537.1,3370.8v-22.7 M2537.1,3370.8l-0.1,1.1l-0.3,1.1l-0.5,1l-0.8,0.8l-0.8,0.7l-1,0.5l-1.1,0.4l-1.1,0.1 M2531.4,3376.5h-22.6
		 M2508.9,3617.4v-240.9 M2508.9,3617.4h17 M2525.9,3617.4l1.1,0.1l1,0.3l1,0.6l0.9,0.7l0.7,0.8l0.5,1l0.3,1.1l0.1,1.1
		 M2531.4,3623.1v73.7 M2531.4,3696.8l-0.1,1.1l-0.3,1.1l-0.5,0.9l-0.7,0.9l-0.9,0.7l-1,0.5l-1,0.3l-1.1,0.2 M2525.9,3702.5h-17
		 M2508.9,3815.8v-113.3 M2508.9,3815.8h22.6 M2531.4,3815.8l1.1,0.1l1.1,0.4l1,0.5l0.8,0.7l0.8,0.9l0.5,0.9l0.3,1.1l0.1,1.1
		 M2537.1,3821.5v31.2 M2537.1,3852.7l-0.1,1.1l-0.3,1.1l-0.5,0.9l-0.8,0.9l-0.8,0.7l-1,0.5l-1.1,0.4l-1.1,0.1 M2531.4,3858.4h-22.6
		 M2508.9,3886.7v-28.3 M2508.9,3886.7h65.2 M2574,3886.7l1.1,0.1l1,0.3l1,0.6l0.9,0.7l0.7,0.8l0.5,1l0.3,1.1l0.1,1.1
		 M2579.6,3892.4v87.9 M2579.6,3980.3l-0.1,1.1l-0.3,1l-0.5,1l-0.7,0.9l-0.9,0.7l-1,0.5l-1,0.3l-1.1,0.1 M2574,3985.9h-65.2
		 M2508.9,4102.1v-116.2 M2508.9,4102.1h-22.7 M2486.1,4102.1l-1.1,0.1l-1.1,0.4l-1,0.5l-0.8,0.7l-0.7,0.9l-0.6,0.9l-0.3,1.1
		l-0.1,1.1 M2480.4,4107.8v22.7 M2480.4,4130.5l0.1,1.1l0.3,1.1l0.6,0.9l0.7,0.9l0.8,0.7l1,0.5l1.1,0.3l1.1,0.2 M2486.1,4136.2h22.7
		 M2508.9,4151.5v-15.3 M2508.9,4151.5h31.1 M2539.9,4151.5v-4.3 M2539.9,4147.2h8.5 M2548.4,4151.5v-4.3 M2548.4,4151.5h2.9
		 M2551.4,4163.4v-11.9 M2548.4,4163.4h2.9 M2548.4,4167.6v-4.2 M2539.9,4167.6h8.5 M2539.9,4167.6v-4.2 M2508.9,4163.4h31.1
		 M2508.9,4178.7v-15.3 M2486.1,4178.7h22.7 M2486.1,4178.7l-1.1,0.1l-1.1,0.3l-1,0.5l-0.8,0.7l-0.7,0.9l-0.6,1l-0.3,1l-0.1,1.1
		 M2480.4,4207v-22.7 M2480.4,4207l0.1,1.1l0.3,1.1l0.6,1l0.7,0.8l0.8,0.7l1,0.6l1.1,0.3l1.1,0.1 M2508.9,4212.7h-22.7 M2508.9,4241
		v-28.3 M2642,4241h-133.2 M2642,4174.4v66.6 M2642,4174.4h11.3 M2653.4,4174.4l1.1-0.1l1.1-0.3l1-0.5l0.8-0.7l0.7-0.9l0.6-1l0.3-1
		l0.1-1.1 M2659,4146.1v22.7 M2659,4146.1l-0.1-1.1l-0.3-1.1l-0.6-1l-0.7-0.8l-0.8-0.7l-1-0.6l-1.1-0.3l-1.1-0.1 M2642,4140.4h11.3
		 M2642,4097.9v42.5 M2627.9,4097.9h14.2 M2627.9,4097.9v4.2 M2619.4,4102.1h8.5 M2619.4,4097.9v4.2 M2599.5,4097.9h19.8
		 M2599.5,4086v11.9 M2599.5,4086h19.8 M2619.4,4081.7v4.3 M2619.4,4081.7h8.5"/>
	<path class="st3" d="M2439,1769.9v689.6 M2374.5,2459.5h-58.8 M1635.5,2459.5h-46.9 M1653.1,2675h58.8 M2392.1,2675h46.9
		 M2447.5,1767h-5.7 M2441.8,1767l-0.5,0.1l-0.6,0.1l-0.5,0.3l-0.4,0.4l-0.3,0.4l-0.3,0.5l-0.2,0.5v0.6 M2439,2459.5h-46.9
		 M2392.1,2459.5l-0.6,0.1l-0.5,0.2l-0.5,0.2l-0.4,0.4l-0.4,0.4l-0.3,0.5l-0.1,0.5l-0.1,0.6 M2389.2,2468v-5.6 M2377.3,2468l0.5,2.3
		l1.3,2l1.9,1.2l2.3,0.5l2.3-0.5l1.9-1.2l1.3-2l0.4-2.3 M2377.3,2468v-5.6 M2377.3,2462.4v-0.6l-0.2-0.5l-0.3-0.5l-0.3-0.4l-0.4-0.4
		l-0.5-0.2l-0.6-0.2l-0.5-0.1 M2315.7,2476.5v-17 M2315.7,2476.5h-34 M2281.7,2476.5v-17 M2281.7,2459.5h-535.8 M1745.9,2476.5v-17
		 M1711.9,2476.5h34 M1711.9,2476.5v-17 M1711.9,2459.5h-58.8 M1653.1,2459.5l-0.6,0.1l-0.5,0.2l-0.5,0.2l-0.4,0.4l-0.4,0.4
		l-0.3,0.5l-0.1,0.5l-0.1,0.6 M1650.2,2468v-5.6 M1638.3,2468l0.5,2.3l1.3,2l1.9,1.2l2.3,0.5l2.3-0.5l1.9-1.2l1.3-2l0.4-2.3
		 M1638.3,2468v-5.6 M1638.3,2462.4v-0.6l-0.2-0.5l-0.2-0.5l-0.4-0.4l-0.4-0.4l-0.5-0.2l-0.6-0.2l-0.5-0.1 M1588.6,2459.5V2675
		 M1588.6,2675h46.9 M1635.5,2675l0.5-0.1l0.6-0.1l0.5-0.3l0.4-0.4l0.4-0.4l0.2-0.5l0.2-0.5v-0.6 M1638.3,2666.5v5.6 M1650.2,2666.5
		l-0.4-2.3l-1.3-1.9l-1.9-1.3l-2.3-0.5l-2.3,0.5l-1.9,1.3l-1.3,1.9l-0.5,2.3 M1650.2,2666.5v5.6 M1650.2,2672.1l0.1,0.6l0.1,0.5
		l0.3,0.5l0.4,0.4l0.4,0.4l0.5,0.3l0.5,0.1l0.6,0.1 M1711.9,2675v-17 M1711.9,2658h34 M1745.9,2675v-17 M1745.9,2675h535.8
		 M2281.7,2675v-17 M2315.7,2658h-34 M2315.7,2675v-17 M2315.7,2675h58.8 M2374.5,2675l0.5-0.1l0.6-0.1l0.5-0.3l0.4-0.4l0.3-0.4
		l0.3-0.5l0.2-0.5v-0.6 M2377.3,2666.5v5.6 M2389.2,2666.5l-0.4-2.3l-1.3-1.9l-1.9-1.3l-2.3-0.5l-2.3,0.5l-1.9,1.3l-1.3,1.9
		l-0.5,2.3 M2389.2,2666.5v5.6 M2389.2,2672.1l0.1,0.6l0.1,0.5l0.3,0.5l0.4,0.4l0.4,0.4l0.5,0.3l0.5,0.1l0.6,0.1 M2439,2675v93.5
		 M2439,2768.5h311.8 M2750.8,2768.5V1600.6 M2750.8,1600.6l-0.1-1.1l-0.3-1l-0.6-1l-0.7-0.9l-0.8-0.7l-1-0.5l-1.1-0.3l-1.1-0.1
		 M2745.1,1595h-45.3 M2699.8,1595l-1.1,0.1l-1.1,0.3l-1,0.5l-0.8,0.7l-0.8,0.9l-0.5,1l-0.3,1l-0.1,1.1 M2694.1,1600.6v11.4
		 M2694.1,1612H2439 M2439,1612v66.6 M2456,1678.6h-17 M2456,1712.6v-34 M2456,1712.6h-17 M2439,1712.6v39.7 M2439,1752.3v0.5
		l0.2,0.6l0.3,0.5l0.3,0.4l0.4,0.4l0.5,0.2l0.6,0.2h0.5 M2447.5,1755.1h-5.7 M2447.5,1767l2.3-0.4l1.9-1.3l1.3-1.9l0.4-2.3l-0.4-2.3
		l-1.3-1.9l-1.9-1.3l-2.3-0.5"/>
</g>
<g id="graveren">
	<circle class="st4" cx="1870.1" cy="626.7" r="116.7"/>
	<path class="st4" d="M1808,597.2c0.3,6.4,1.3,12.7,3,18.8h45.7l-18.8-18.8L1808,597.2z"/>
	<path class="st4" d="M1807.9,593.4h26.2l-23-23C1809,578,1807.9,585.8,1807.9,593.4z"/>
	<polygon class="st4" points="1895.9,639.7 1928.4,621.5 1895.9,589.1 	"/>
	<path class="st4" d="M1892.1,585.5c-8.5-7.5-18.4-13.1-28.9-16.7v48.3l24,24c1.3,1.3,3.3,1.6,4.8,0.7l0,0L1892.1,585.5z"/>
	<path class="st4" d="M1859.4,567.7c-14.7-4.1-30.5-4.2-45.6,0.1l45.6,45.6L1859.4,567.7z"/>
	<path class="st4" d="M1915.7,665.8c1.8,1.8,1.8,4.7,0,6.5c-1.8,1.8-4.7,1.8-6.5,0c-1.8-1.8-1.8-4.7,0-6.5S1913.9,664,1915.7,665.8z
		"/>
	<circle class="st4" cx="1925.4" cy="682" r="3.3"/>
	<path class="st4" d="M1928.2,666.8c1.8,1.8,1.8,4.7,0,6.5c-1.8,1.8-4.7,1.8-6.5,0c-1.8-1.8-1.8-4.7,0-6.5
		C1923.5,665.1,1926.4,665.1,1928.2,666.8z"/>
	<path class="st4" d="M1916.7,678.6c1.8,1.8,1.8,4.7,0,6.5c-1.8,1.8-4.7,1.8-6.5,0c-1.8-1.8-1.8-4.7,0-6.5S1915,676.8,1916.7,678.6z
		"/>
	<path class="st4" d="M1904.5,661.2c4.7-4.7,11.3-6.2,17.3-4.6c-0.8-3.1-2.5-6.1-5.1-8.5c-6.7-6.3-17.3-6.4-24.1-0.4
		c-7.8,6.9-8.1,18.9-0.8,26.2c2.3,2.3,5.1,3.9,8,4.6C1898.3,672.5,1899.8,665.8,1904.5,661.2z"/>
	<g>
		<path class="st4" d="M1885.4,648.5c0.7-1.5,0.4-3.4-0.8-4.6l-24-24l-48.3,0c3.5,10.4,9,20.2,16.5,28.7H1885.4z"/>
		<path class="st4" d="M1832.2,652.3c0.1,0.1,0.1,0.1,0.2,0.2l32.5,32.5v0l18.3-32.7L1832.2,652.3z"/>
	</g>
	<g>
		<path class="st4" d="M2028.2,702.6l-28.6,6.7c-0.4,0.1-0.6,0.3-0.6,0.7v0.6c0,0.4,0.2,0.6,0.6,0.7l28.6,6.6
			c0.5,0.1,0.8-0.1,0.8-0.6v-0.3c0-0.4-0.2-0.6-0.6-0.7l-26.3-6l26.3-6c0.4-0.1,0.6-0.3,0.6-0.7v-0.4
			C2029,702.7,2028.7,702.5,2028.2,702.6z"/>
		<path class="st4" d="M2009.3,685.5v0.3c0,0.4-0.3,0.7-0.7,0.7h-3.1c-3.6,0-5.2,1.2-5.2,4.8c0,3.6,1.6,4.8,5.2,4.8h2.1
			c2.4,0,3-0.9,4.3-3.3l2.6-4.8c1-1.9,2.8-3.3,4.8-3.3h3.8c4.2,0,6.3,2,6.3,6.6v0.1c0,4.5-2,6.6-6.3,6.6h-4.1
			c-0.4,0-0.7-0.3-0.7-0.7v-0.3c0-0.4,0.3-0.7,0.7-0.7h3.4c3.6,0,5.3-1.2,5.3-4.9s-1.8-4.9-5.3-4.9h-2.4c-2.4,0-3.2,1-4.5,3.5
			l-2.6,4.7c-1.3,2.4-2.4,3.3-4.7,3.3h-3.4c-4,0-6.2-2.4-6.2-6.5v-0.1c0-4.1,2.1-6.5,6.2-6.5h3.8
			C2009.1,684.8,2009.3,685.1,2009.3,685.5z"/>
		<path class="st4" d="M1999.7,667.3h0.3c0.4,0,0.7,0.3,0.7,0.7v5.1h27.7c0.4,0,0.7,0.3,0.7,0.7v0.3c0,0.4-0.3,0.7-0.7,0.7h-27.7
			v5.1c0,0.4-0.3,0.7-0.7,0.7h-0.3c-0.4,0-0.7-0.3-0.7-0.7V668C1999,667.6,1999.3,667.3,1999.7,667.3z"/>
		<path class="st4" d="M2029,648.5v0.5c0,0.4-0.2,0.6-0.6,0.8l-12.6,5v0.6v5.2h12.5c0.4,0,0.7,0.3,0.7,0.7v0.3
			c0,0.4-0.3,0.7-0.7,0.7h-28.6c-0.4,0-0.7-0.3-0.7-0.7v-6.2c0-4.5,2.2-6.7,6.3-6.7h4.2c3.3,0,5.4,1.4,6.1,4.3l12.6-5
			C2028.7,647.8,2029,648,2029,648.5z M2008.8,650.4h-2.6c-3.9,0-5.5,1.4-5.5,5.1v5h13.6v-5C2014.2,651.8,2012.6,650.4,2008.8,650.4
			z"/>
		<path class="st4" d="M1998.7,636.1v-0.3c0-4.5,2.2-6.7,6.3-6.7h18c4.1,0,6.3,2.1,6.3,6.7v0.3c0,4.5-2.2,6.7-6.3,6.7h-18
			C2000.9,642.8,1998.7,640.7,1998.7,636.1z M2027.7,636c0-3.8-1.6-5.1-5.5-5.1h-16.5c-3.9,0-5.5,1.4-5.5,5.1c0,3.8,1.6,5.1,5.5,5.1
			h16.5C2026.1,641.1,2027.7,639.7,2027.7,636z"/>
		<path class="st4" d="M2005.4,609.5h4.5c4.1,0,6.3,2.1,6.3,6.7v5.2h12.1c0.4,0,0.7,0.3,0.7,0.7v0.3c0,0.4-0.3,0.7-0.7,0.7h-28.6
			c-0.4,0-0.7-0.3-0.7-0.7v-6.2C1999,611.6,2001.3,609.5,2005.4,609.5z M2006.1,611.2c-3.9,0-5.5,1.4-5.5,5.1v5h13.9v-5
			c0-3.8-1.6-5.1-5.5-5.1H2006.1z"/>
		<path class="st4" d="M2028.1,592.9h0.3c0.4,0,0.7,0.3,0.7,0.7v9.6c0,0.4-0.3,0.7-0.7,0.7h-28.6c-0.4,0-0.7-0.3-0.7-0.7v-0.3
			c0-0.4,0.3-0.7,0.7-0.7h27.7v-8.5C2027.4,593.2,2027.6,592.9,2028.1,592.9z"/>
		<path class="st4" d="M2028.2,573.1l-28.6,6.7c-0.4,0.1-0.6,0.3-0.6,0.7v0.6c0,0.4,0.2,0.6,0.6,0.7l28.6,6.6
			c0.5,0.1,0.8-0.1,0.8-0.6v-0.3c0-0.4-0.2-0.6-0.6-0.7l-26.3-6l26.3-6c0.4-0.1,0.6-0.3,0.6-0.7v-0.4
			C2029,573.2,2028.7,573,2028.2,573.1z"/>
		<path class="st4" d="M2029,566.7v0.3c0,0.4-0.3,0.7-0.7,0.7h-28.6c-0.4,0-0.7-0.3-0.7-0.7v-0.6c0-0.4,0.2-0.6,0.5-0.8l25.3-10.4
			h-25.2c-0.4,0-0.7-0.3-0.7-0.7v-0.3c0-0.4,0.3-0.7,0.7-0.7h28.6c0.4,0,0.7,0.3,0.7,0.7v0.5c0,0.4-0.2,0.6-0.5,0.8l-25.3,10.5h25.2
			C2028.8,566,2029,566.3,2029,566.7z"/>
		<path class="st4" d="M1999.7,535.3h0.3c0.4,0,0.7,0.3,0.7,0.7v5.1h27.7c0.4,0,0.7,0.3,0.7,0.7v0.3c0,0.4-0.3,0.7-0.7,0.7h-27.7
			v5.1c0,0.4-0.3,0.7-0.7,0.7h-0.3c-0.4,0-0.7-0.3-0.7-0.7V536C1999,535.6,1999.3,535.3,1999.7,535.3z"/>
	</g>
</g>
</svg>
