0
SECTION
2
ENTITIES
0
LINE
8
0
10
3683.480997527046
20
-421.479970875607
30
6.000023452406
11
3683.271206639792
21
-420.97349087032
31
6.000023473384
0
LINE
8
0
10
3683.271206639792
20
-420.97349087032
30
6.000023473384
11
3682.937477532341
21
-420.538566629825
31
6.00002349416
0
LINE
8
0
10
3682.937477532341
20
-420.538566629825
30
6.00002349416
11
3682.502553291853
21
-420.204837522365
31
6.000023513317
0
LINE
8
0
10
3682.502553291853
20
-420.204837522365
30
6.000023513317
11
3681.996073286571
21
-419.9950466351
31
6.00002352955
0
LINE
8
0
10
3681.996073286571
20
-419.9950466351
30
6.00002352955
11
3681.452553291856
21
-419.923490870302
31
6.000023541754
0
LINE
8
0
10
3681.452553291856
20
-419.923490870302
30
6.000023541754
11
3680.90903329714
21
-419.995046635089
31
6.000023549095
0
LINE
8
0
10
3680.90903329714
20
-419.995046635089
30
6.000023549095
11
3680.402553291853
21
-420.204837522344
31
6.000023551074
0
LINE
8
0
10
3680.402553291853
20
-420.204837522344
30
6.000023551074
11
3679.967629051358
21
-420.538566629795
31
6.000023547557
0
LINE
8
0
10
3679.967629051358
20
-420.538566629795
30
6.000023547557
11
3679.633899943898
21
-420.973490870283
31
6.000023538782
0
LINE
8
0
10
3679.633899943898
20
-420.973490870283
30
6.000023538782
11
3679.424109056633
21
-421.479970875566
31
6.000023525347
0
LINE
8
0
10
3679.424109056633
20
-421.479970875566
30
6.000023525347
11
3679.352553291834
21
-422.02349087028
31
6.000023508169
0
LINE
8
0
10
3679.352553291834
20
-422.02349087028
30
6.000023508169
11
3679.424109056622
21
-422.567010864996
31
6.000023488418
0
LINE
8
0
10
3679.424109056622
20
-422.567010864996
30
6.000023488418
11
3679.633899943877
21
-423.073490870282
31
6.00002346744
0
LINE
8
0
10
3679.633899943877
20
-423.073490870282
30
6.00002346744
11
3679.967629051327
21
-423.508415110777
31
6.000023446664
0
LINE
8
0
10
3679.967629051327
20
-423.508415110777
30
6.000023446664
11
3680.402553291815
21
-423.842144218238
31
6.000023427507
0
LINE
8
0
10
3680.402553291815
20
-423.842144218238
30
6.000023427507
11
3680.909033297098
21
-424.051935105502
31
6.000023411274
0
LINE
8
0
10
3680.909033297098
20
-424.051935105502
30
6.000023411274
11
3681.452553291812
21
-424.123490870301
31
6.000023399071
0
LINE
8
0
10
3681.452553291812
20
-424.123490870301
30
6.000023399071
11
3681.996073286529
21
-424.051935105513
31
6.000023391729
0
LINE
8
0
10
3681.996073286529
20
-424.051935105513
30
6.000023391729
11
3682.502553291815
21
-423.842144218259
31
6.00002338975
0
LINE
8
0
10
3682.502553291815
20
-423.842144218259
30
6.00002338975
11
3682.93747753231
21
-423.508415110808
31
6.000023393268
0
LINE
8
0
10
3682.93747753231
20
-423.508415110808
30
6.000023393268
11
3683.27120663977
21
-423.073490870319
31
6.000023402043
0
LINE
8
0
10
3683.27120663977
20
-423.073490870319
30
6.000023402043
11
3683.480997527035
21
-422.567010865037
31
6.000023415477
0
LINE
8
0
10
3683.480997527035
20
-422.567010865037
30
6.000023415477
11
3683.552553291834
21
-422.023490870323
31
6.000023432655
0
LINE
8
0
10
3683.552553291834
20
-422.023490870323
30
6.000023432655
11
3683.480997527046
21
-421.479970875607
31
6.000023452406
0
LINE
8
0
10
3934.402529375836
20
-423.842144220851
30
6.000018860689
11
3934.909009381116
21
-424.051935108115
31
6.000018844456
0
LINE
8
0
10
3934.909009381116
20
-424.051935108115
30
6.000018844456
11
3935.452529375828
21
-424.123490872913
31
6.000018832253
0
LINE
8
0
10
3935.452529375828
20
-424.123490872913
30
6.000018832253
11
3935.996049370541
21
-424.051935108126
31
6.000018824911
0
LINE
8
0
10
3935.996049370541
20
-424.051935108126
30
6.000018824911
11
3936.502529375826
21
-423.842144220872
31
6.000018822932
0
LINE
8
0
10
3936.502529375826
20
-423.842144220872
30
6.000018822932
11
3936.937453616319
21
-423.508415113423
31
6.00001882645
0
LINE
8
0
10
3936.937453616319
20
-423.508415113423
30
6.00001882645
11
3937.271182723778
21
-423.073490872937
31
6.000018835225
0
LINE
8
0
10
3937.271182723778
20
-423.073490872937
30
6.000018835225
11
3937.480973611041
21
-422.567010867657
31
6.000018848659
0
LINE
8
0
10
3937.480973611041
20
-422.567010867657
30
6.000018848659
11
3937.552529375839
21
-422.023490872945
31
6.000018865837
0
LINE
8
0
10
3937.552529375839
20
-422.023490872945
30
6.000018865837
11
3937.480973611052
21
-421.479970878232
31
6.000018885588
0
LINE
8
0
10
3937.480973611052
20
-421.479970878232
30
6.000018885588
11
3937.271182723799
21
-420.973490872947
31
6.000018906566
0
LINE
8
0
10
3937.271182723799
20
-420.973490872947
30
6.000018906566
11
3936.937453616349
21
-420.538566632455
31
6.000018927342
0
LINE
8
0
10
3936.937453616349
20
-420.538566632455
30
6.000018927342
11
3936.502529375864
21
-420.204837524996
31
6.000018946499
0
LINE
8
0
10
3936.502529375864
20
-420.204837524996
30
6.000018946499
11
3935.996049370583
21
-419.995046637732
31
6.000018962733
0
LINE
8
0
10
3935.996049370583
20
-419.995046637732
30
6.000018962733
11
3935.452529375871
21
-419.923490872934
31
6.000018974936
0
LINE
8
0
10
3935.452529375871
20
-419.923490872934
30
6.000018974936
11
3934.909009381159
21
-419.995046637721
31
6.000018982277
0
LINE
8
0
10
3934.909009381159
20
-419.995046637721
30
6.000018982277
11
3934.402529375874
21
-420.204837524974
31
6.000018984256
0
LINE
8
0
10
3934.402529375874
20
-420.204837524974
30
6.000018984256
11
3933.967605135381
21
-420.538566632424
31
6.000018980739
0
LINE
8
0
10
3933.967605135381
20
-420.538566632424
30
6.000018980739
11
3933.633876027923
21
-420.97349087291
31
6.000018971964
0
LINE
8
0
10
3933.633876027923
20
-420.97349087291
30
6.000018971964
11
3933.424085140658
21
-421.47997087819
31
6.00001895853
0
LINE
8
0
10
3933.424085140658
20
-421.47997087819
30
6.00001895853
11
3933.35252937586
21
-422.023490872902
31
6.000018941352
0
LINE
8
0
10
3933.35252937586
20
-422.023490872902
30
6.000018941352
11
3933.424085140648
21
-422.567010867615
31
6.0000189216
0
LINE
8
0
10
3933.424085140648
20
-422.567010867615
30
6.0000189216
11
3933.633876027901
21
-423.073490872899
31
6.000018900622
0
LINE
8
0
10
3933.633876027901
20
-423.073490872899
30
6.000018900622
11
3933.96760513535
21
-423.508415113392
31
6.000018879847
0
LINE
8
0
10
3933.96760513535
20
-423.508415113392
30
6.000018879847
11
3934.402529375836
21
-423.842144220851
31
6.000018860689
0
LINE
8
0
10
3966.967596692728
20
-893.224660412658
30
6.000002329256
11
3967.402520933216
21
-893.558389520119
31
6.000002310098
0
LINE
8
0
10
3967.402520933216
20
-893.558389520119
30
6.000002310098
11
3967.909000938498
21
-893.768180407384
31
6.000002293865
0
LINE
8
0
10
3967.909000938498
20
-893.768180407384
30
6.000002293865
11
3968.452520933212
21
-893.839736172182
31
6.000002281662
0
LINE
8
0
10
3968.452520933212
20
-893.839736172182
30
6.000002281662
11
3968.996040927927
21
-893.768180407394
31
6.000002274321
0
LINE
8
0
10
3968.996040927927
20
-893.768180407394
30
6.000002274321
11
3969.502520933215
21
-893.55838952014
31
6.000002272341
0
LINE
8
0
10
3969.502520933215
20
-893.55838952014
30
6.000002272341
11
3969.937445173711
21
-893.224660412689
31
6.000002275859
0
LINE
8
0
10
3969.937445173711
20
-893.224660412689
30
6.000002275859
11
3970.27117428117
21
-892.7897361722
31
6.000002284634
0
LINE
8
0
10
3970.27117428117
20
-892.7897361722
30
6.000002284634
11
3970.480965168439
21
-892.283256166919
31
6.000002298068
0
LINE
8
0
10
3970.480965168439
20
-892.283256166919
30
6.000002298068
11
3970.552520933234
21
-891.739736172204
31
6.000002315246
0
LINE
8
0
10
3970.552520933234
20
-891.739736172204
30
6.000002315246
11
3970.480965168447
21
-891.196216177488
31
6.000002334997
0
LINE
8
0
10
3970.480965168447
20
-891.196216177488
30
6.000002334997
11
3970.271174281191
21
-890.6897361722
31
6.000002355975
0
LINE
8
0
10
3970.271174281191
20
-890.6897361722
30
6.000002355975
11
3969.937445173744
21
-890.254811931707
31
6.000002376751
0
LINE
8
0
10
3969.937445173744
20
-890.254811931707
30
6.000002376751
11
3969.502520933253
21
-889.921082824246
31
6.000002395908
0
LINE
8
0
10
3969.502520933253
20
-889.921082824246
30
6.000002395908
11
3968.996040927969
21
-889.71129193698
31
6.000002412142
0
LINE
8
0
10
3968.996040927969
20
-889.71129193698
30
6.000002412142
11
3968.452520933256
21
-889.639736172182
31
6.000002424345
0
LINE
8
0
10
3968.452520933256
20
-889.639736172182
30
6.000002424345
11
3967.90900093854
21
-889.71129193697
31
6.000002431686
0
LINE
8
0
10
3967.90900093854
20
-889.71129193697
30
6.000002431686
11
3967.402520933253
21
-889.921082824224
31
6.000002433665
0
LINE
8
0
10
3967.402520933253
20
-889.921082824224
30
6.000002433665
11
3966.967596692759
21
-890.254811931674
31
6.000002430148
0
LINE
8
0
10
3966.967596692759
20
-890.254811931674
30
6.000002430148
11
3966.633867585296
21
-890.689736172164
31
6.000002421373
0
LINE
8
0
10
3966.633867585296
20
-890.689736172164
30
6.000002421373
11
3966.424076698033
21
-891.196216177445
31
6.000002407939
0
LINE
8
0
10
3966.424076698033
20
-891.196216177445
30
6.000002407939
11
3966.352520933233
21
-891.73973617216
31
6.000002390761
0
LINE
8
0
10
3966.352520933233
20
-891.73973617216
30
6.000002390761
11
3966.424076698024
21
-892.283256166876
31
6.000002371009
0
LINE
8
0
10
3966.424076698024
20
-892.283256166876
30
6.000002371009
11
3966.633867585276
21
-892.789736172164
31
6.000002350031
0
LINE
8
0
10
3966.633867585276
20
-892.789736172164
30
6.000002350031
11
3966.967596692728
21
-893.224660412658
31
6.000002329256
0
LINE
8
0
10
3698.996040958151
20
-893.768184419893
30
6.000007128812
11
3699.50252096031
21
-893.558393525092
31
6.000007126833
0
LINE
8
0
10
3699.50252096031
20
-893.558393525092
30
6.000007126833
11
3699.93744519583
21
-893.224664411161
31
6.000007130351
0
LINE
8
0
10
3699.93744519583
20
-893.224664411161
30
6.000007130351
11
3700.271174296807
21
-892.789740165702
31
6.000007139126
0
LINE
8
0
10
3700.271174296807
20
-892.789740165702
30
6.000007139126
11
3700.480965176524
21
-892.283260157295
31
6.00000715256
0
LINE
8
0
10
3700.480965176524
20
-892.283260157295
30
6.00000715256
11
3700.552520933222
21
-891.739740161518
31
6.000007169738
0
LINE
8
0
10
3700.552520933222
20
-891.739740161518
30
6.000007169738
11
3700.480965160336
21
-891.196220167871
31
6.000007189489
0
LINE
8
0
10
3700.480965160336
20
-891.196220167871
30
6.000007189489
11
3700.271174265535
21
-890.689740165712
31
6.000007210467
0
LINE
8
0
10
3700.271174265535
20
-890.689740165712
30
6.000007210467
11
3699.937445151605
21
-890.254815930191
31
6.000007231243
0
LINE
8
0
10
3699.937445151605
20
-890.254815930191
30
6.000007231243
11
3699.502520906146
21
-889.921086829214
31
6.0000072504
0
LINE
8
0
10
3699.502520906146
20
-889.921086829214
30
6.0000072504
11
3698.996040897739
21
-889.711295949497
31
6.000007266633
0
LINE
8
0
10
3698.996040897739
20
-889.711295949497
30
6.000007266633
11
3698.45252090196
21
-889.639740192799
31
6.000007278837
0
LINE
8
0
10
3698.45252090196
20
-889.639740192799
30
6.000007278837
11
3697.909000908313
21
-889.711295965684
31
6.000007286178
0
LINE
8
0
10
3697.909000908313
20
-889.711295965684
30
6.000007286178
11
3697.402520906155
21
-889.921086860486
31
6.000007288157
0
LINE
8
0
10
3697.402520906155
20
-889.921086860486
30
6.000007288157
11
3696.967596670635
21
-890.254815974415
31
6.000007284639
0
LINE
8
0
10
3696.967596670635
20
-890.254815974415
30
6.000007284639
11
3696.633867569657
21
-890.689740219874
31
6.000007275864
0
LINE
8
0
10
3696.633867569657
20
-890.689740219874
30
6.000007275864
11
3696.42407668994
21
-891.196220228282
31
6.00000726243
0
LINE
8
0
10
3696.42407668994
20
-891.196220228282
30
6.00000726243
11
3696.352520933242
21
-891.739740224061
31
6.000007245252
0
LINE
8
0
10
3696.352520933242
20
-891.739740224061
30
6.000007245252
11
3696.424076706127
21
-892.283260217707
31
6.000007225501
0
LINE
8
0
10
3696.424076706127
20
-892.283260217707
30
6.000007225501
11
3696.633867600929
21
-892.789740219865
31
6.000007204523
0
LINE
8
0
10
3696.633867600929
20
-892.789740219865
30
6.000007204523
11
3696.967596714859
21
-893.224664455385
31
6.000007183747
0
LINE
8
0
10
3696.967596714859
20
-893.224664455385
30
6.000007183747
11
3697.402520960319
21
-893.558393556364
31
6.00000716459
0
LINE
8
0
10
3697.402520960319
20
-893.558393556364
30
6.00000716459
11
3697.909000968725
21
-893.768184436079
31
6.000007148357
0
LINE
8
0
10
3697.909000968725
20
-893.768184436079
30
6.000007148357
11
3698.452520964503
21
-893.839740192779
31
6.000007136154
0
LINE
8
0
10
3698.452520964503
20
-893.839740192779
30
6.000007136154
11
3698.996040958151
21
-893.768184419893
31
6.000007128812
0
LINE
8
0
10
3613.187151692253
20
-393.176558571249
30
6.000021781851
11
3613.434880465527
21
-393.092465980006
31
6.000021778688
0
LINE
8
0
10
3612.952518558706
20
-393.292266832195
30
6.000021784626
11
3613.187151692253
21
-393.176558571249
31
6.000021781851
0
LINE
8
0
10
3612.73499570285
20
-393.437610962419
30
6.000021786969
11
3612.952518558706
21
-393.292266832195
31
6.000021784626
0
LINE
8
0
10
3612.538305001062
20
-393.610104083557
30
6.000021788835
11
3612.73499570285
21
-393.437610962419
31
6.000021786969
0
LINE
8
0
10
3612.36581188578
20
-393.806794790479
30
6.000021790193
11
3612.538305001062
21
-393.610104083557
31
6.000021788835
0
LINE
8
0
10
3612.220467762031
20
-394.02431765066
30
6.000021791023
11
3612.36581188578
21
-393.806794790479
31
6.000021790193
0
LINE
8
0
10
3612.104759508068
20
-394.258950787652
30
6.000021791309
11
3612.220467762031
21
-394.02431765066
31
6.000021791023
0
LINE
8
0
10
3612.0206669242
20
-394.506679563429
30
6.000021791043
11
3612.104759508068
21
-394.258950787652
31
6.000021791309
0
LINE
8
0
10
3611.969628857848
20
-394.763265269953
30
6.000021790237
11
3612.0206669242
21
-394.506679563429
31
6.000021791043
0
LINE
8
0
10
3611.969628857848
20
-394.763265269953
30
6.000021790237
11
3611.95251858448
21
-395.024317654648
31
6.000021788896
0
LINE
8
0
10
3611.95251858448
20
-395.024317654648
30
6.000021788896
11
3611.952519417706
21
-448.02431764996
31
6.000021501539
0
LINE
8
0
10
3611.952519417706
20
-448.02431764996
30
6.000021501539
11
3611.969629698843
21
-448.285370034145
31
6.000021499693
0
LINE
8
0
10
3611.969629698843
20
-448.285370034145
30
6.000021499693
11
3612.020667772831
21
-448.54195573915
31
6.000021497369
0
LINE
8
0
10
3612.020667772831
20
-448.54195573915
30
6.000021497369
11
3612.104760364072
21
-448.789684512424
31
6.00002149461
0
LINE
8
0
10
3612.104760364072
20
-448.789684512424
30
6.00002149461
11
3612.220468625019
21
-449.024317645972
31
6.000021491461
0
LINE
8
0
10
3612.220468625019
20
-449.024317645972
30
6.000021491461
11
3612.365812755241
21
-449.241840501825
31
6.000021487977
0
LINE
8
0
10
3612.365812755241
20
-449.241840501825
30
6.000021487977
11
3612.538305876378
21
-449.438531203615
31
6.000021484217
0
LINE
8
0
10
3612.538305876378
20
-449.438531203615
30
6.000021484217
11
3612.734996583301
21
-449.611024318896
31
6.000021480245
0
LINE
8
0
10
3613.187152580473
20
-449.872076696606
30
6.000021471942
11
3613.434881356248
21
-449.956169280474
31
6.000021467752
0
LINE
8
0
10
3628.45251848841
20
-382.023465139774
30
6.000040639527
11
3628.452518674625
21
-408.024317565449
31
6.000021394013
0
LINE
8
0
10
3836.452520900571
20
-925.341938408572
30
6.000003702065
11
3986.22016006047
21
-950.341938410118
31
6.000000946114
0
LINE
8
0
10
3612.952519443481
20
-449.756368442645
30
6.000021476129
11
3613.187152580473
21
-449.872076696606
31
6.000021471942
0
LINE
8
0
10
3661.05149703559
20
-947.898659140403
30
6.000005840902
11
3669.410589747969
21
-950.199951559924
31
6.000005668053
0
LINE
8
0
10
4038.452520934275
20
-791.02431145753
30
6.000003543406
11
4044.452520934276
21
-791.024311457593
31
6.000003454035
0
LINE
8
0
10
4044.452517673165
20
-422.023465468153
30
6.000011563922
11
4044.452517099352
21
-382.023465144068
31
6.000033154007
0
LINE
8
0
10
3612.734996583301
20
-449.611024318896
30
6.000021480245
11
3612.952519443481
21
-449.756368442645
31
6.000021476129
0
LINE
8
0
10
3635.082918220358
20
-925.905580908324
30
6.000006689677
11
3640.033147388222
21
-933.023558050709
31
6.000006466429
0
LINE
8
0
10
3705.952520943925
20
-894.739740058711
30
6.000006970732
11
3718.452520943915
21
-894.73974005884
31
6.000006745987
0
LINE
8
0
10
3932.452532437897
20
-402.023455355106
30
6.000019636977
11
3938.452532077473
21
-402.023455355168
31
6.000019529099
0
LINE
8
0
10
3932.452532437768
20
-414.52348931604
30
6.000019212324
11
3932.452532437897
21
-402.023455355106
31
6.000019636977
0
LINE
8
0
10
3705.952520943987
20
-888.739739872442
30
6.000007174564
11
3705.952520943925
21
-894.739740058711
31
6.000006970732
0
LINE
8
0
10
3975.952520943926
20
-894.739736038105
30
6.00000211624
11
3988.452520943916
21
-894.739736038234
31
6.000001891495
0
LINE
8
0
10
3698.996039003081
20
-558.05275383684
30
6.000018533783
11
3699.502523988435
21
-557.842976004814
31
6.000018531803
0
LINE
8
0
10
3938.452532077473
20
-402.023455355168
30
6.000019529099
11
3938.452532077344
21
-414.523489316102
31
6.000019104447
0
LINE
8
0
10
3912.45254109599
20
-921.406403627868
30
6.000002352021
11
3912.452541096129
21
-908.073070205126
31
6.000002804982
0
LINE
8
0
10
3938.452570155658
20
-442.023437383162
30
6.000018170214
11
3932.452571108122
21
-442.023437383099
31
6.000018278091
0
LINE
8
0
10
3628.452518674625
20
-408.024317565449
30
6.000021394013
11
3621.752521057941
21
-408.02431763722
31
6.000021495558
0
LINE
8
0
10
3621.752520954319
20
-395.02431763722
30
6.000021623323
11
3621.752521057941
21
-408.02431763722
31
6.000021495558
0
LINE
8
0
10
3621.735410674987
20
-394.76326525278
30
6.000021626171
11
3621.752520954319
21
-395.02431763722
31
6.000021623323
0
LINE
8
0
10
3621.684372602772
20
-394.506679547012
30
6.000021629532
11
3621.735410674987
21
-394.76326525278
31
6.000021626171
0
LINE
8
0
10
3621.600280013242
20
-394.25895077248
30
6.000021633354
11
3621.684372602772
21
-394.506679547012
31
6.000021629532
0
LINE
8
0
10
3621.484571753918
20
-394.024317637203
30
6.000021637564
11
3621.600280013242
21
-394.25895077248
31
6.000021633354
0
LINE
8
0
10
3621.339227625198
20
-393.806794779176
30
6.000021642095
11
3621.484571753918
21
-394.024317637203
31
6.000021637564
0
LINE
8
0
10
3621.166734505421
20
-393.610104074809
30
6.000021646869
11
3621.339227625198
21
-393.806794779176
31
6.000021642095
0
LINE
8
0
10
3620.97004379969
20
-393.437610956586
30
6.000021651804
11
3621.166734505421
21
-393.610104074809
31
6.000021646869
0
LINE
8
0
10
3620.752520940514
20
-393.292266829586
30
6.000021656813
11
3620.97004379969
21
-393.437610956586
31
6.000021651804
0
LINE
8
0
10
3620.517887804323
20
-393.176558572117
30
6.000021661814
11
3620.752520940514
21
-393.292266829586
31
6.000021656813
0
LINE
8
0
10
3620.270159029127
20
-393.092465984545
30
6.000021666719
11
3620.517887804323
21
-393.176558572117
31
6.000021661814
0
LINE
8
0
10
3620.013573322955
20
-393.041427914359
30
6.000021671447
11
3620.270159029127
21
-393.092465984545
31
6.000021666719
0
LINE
8
0
10
3620.013573322955
20
-393.041427914359
30
6.000021671447
11
3619.752520938378
21
-393.024317637089
31
6.000021675914
0
LINE
8
0
10
3619.752520938378
20
-393.024317637089
30
6.000021675914
11
3613.952518554718
21
-393.024317624882
31
6.000021771423
0
LINE
8
0
10
3613.952518554718
20
-393.024317624882
30
6.000021771423
11
3613.691466170533
21
-393.041427906018
31
6.000021775192
0
LINE
8
0
10
3613.434880465527
20
-393.092465980006
30
6.000021778688
11
3613.691466170533
21
-393.041427906018
31
6.000021775192
0
LINE
8
0
10
3613.434881356248
20
-449.956169280474
30
6.000021467752
11
3613.691467062774
21
-450.007207346825
31
6.000021463633
0
LINE
8
0
10
3628.452519447814
20
-450.02431756076
30
6.000021229667
11
3613.691467062774
21
-450.007207346825
31
6.000021463633
0
LINE
8
0
10
3628.452519447814
20
-450.02431756076
30
6.000021229667
11
3628.452520900821
21
-901.024311453298
31
6.000007311074
0
LINE
8
0
10
3628.452520900821
20
-901.024311453298
30
6.000007311074
11
3629.204224401478
21
-909.661747366392
31
6.000007118446
0
LINE
8
0
10
3629.204224401478
20
-909.661747366392
30
6.000007118446
11
3631.436732583918
21
-918.039471060263
31
6.000006909218
0
LINE
8
0
10
3631.436732583918
20
-918.039471060263
30
6.000006909218
11
3635.082918220358
21
-925.905580908324
31
6.000006689677
0
LINE
8
0
10
3640.033147388222
20
-933.023558050709
30
6.000006466429
11
3646.138575130163
21
-939.179375082633
31
6.000006246184
0
LINE
8
0
10
3646.138575130163
20
-939.179375082633
30
6.000006246184
11
3653.215624385482
21
-944.187942892763
31
6.000006035563
0
LINE
8
0
10
3653.215624385482
20
-944.187942892763
30
6.000006035563
11
3661.05149703559
21
-947.898659140403
31
6.000005840902
0
LINE
8
0
10
3669.410589747969
20
-950.199951559924
30
6.000005668053
11
3678.041555934485
21
-951.022621542922
31
6.000005522213
0
LINE
8
0
10
3678.041555934485
20
-951.022621542922
30
6.000005522213
11
3686.684877925458
21
-950.341938407025
31
6.000005407766
0
LINE
8
0
10
3686.684877925458
20
-950.341938407025
30
6.000005407766
11
3836.452520900571
21
-925.341938408572
31
6.000003702065
0
LINE
8
0
10
3986.22016006047
20
-950.341938410118
30
6.000000946114
11
3994.863501124917
21
-951.022621546194
31
6.000000803071
0
LINE
8
0
10
3994.863501124917
20
-951.022621546194
30
6.000000803071
11
4003.494452052658
21
-950.199951563373
31
6.000000691791
0
LINE
8
0
10
4003.494452052658
20
-950.199951563373
30
6.000000691791
11
4011.853552394483
21
-947.898659144024
31
6.000000615619
0
LINE
8
0
10
4011.853552394483
20
-947.898659144024
30
6.000000615619
11
4019.689428859361
21
-944.187942896548
31
6.000000576846
0
LINE
8
0
10
4019.689428859361
20
-944.187942896548
30
6.000000576846
11
4026.7664552266
21
-939.179375086561
31
6.000000576637
0
LINE
8
0
10
4026.7664552266
20
-939.179375086561
30
6.000000576637
11
4032.871893459086
21
-933.023558054763
31
6.000000614999
0
LINE
8
0
10
4032.871893459086
20
-933.023558054763
30
6.000000614999
11
4037.822119289237
21
-925.905580912481
31
6.000000690778
0
LINE
8
0
10
4037.822119289237
20
-925.905580912481
30
6.000000690778
11
4041.468298488539
21
-918.039471064496
31
6.000000801696
0
LINE
8
0
10
4041.468298488539
20
-918.039471064496
30
6.000000801696
11
4043.700811916358
21
-909.66174737067
31
6.000000944417
0
LINE
8
0
10
4043.700811916358
20
-909.66174737067
30
6.000000944417
11
4044.452520900822
21
-901.024311457592
31
6.000001114651
0
LINE
8
0
10
4044.452520900822
20
-901.024311457592
30
6.000001114651
11
4044.452520933859
21
-831.024311457593
31
6.000002613832
0
LINE
8
0
10
4044.452520933859
20
-831.024311457593
30
6.000002613832
11
4038.452520933859
21
-831.024311457532
31
6.000002703203
0
LINE
8
0
10
4038.452520933859
20
-831.024311457532
30
6.000002703203
11
4038.452520934275
21
-791.02431145753
31
6.000003543406
0
LINE
8
0
10
4044.452520934276
20
-791.024311457593
30
6.000003454035
11
4044.452517672753
21
-462.023465468154
31
6.000010723719
0
LINE
8
0
10
4044.452517672753
20
-462.023465468154
30
6.000010723719
11
4038.452517672753
21
-462.023465468093
31
6.000010813091
0
LINE
8
0
10
4038.452517672753
20
-462.023465468093
30
6.000010813091
11
4038.452517673165
21
-422.023465468092
31
6.000011653294
0
LINE
8
0
10
4038.452517673165
20
-422.023465468092
30
6.000011653294
11
4044.452517673165
21
-422.023465468153
31
6.000011563922
0
LINE
8
0
10
3628.45251848841
20
-382.023465139774
30
6.000040639527
11
4044.452517099352
21
-382.023465144068
31
6.000033154007
0
LINE
8
0
10
3988.452520936666
20
-559.024311457016
30
6.000013296465
11
3975.952520936666
21
-559.024311456887
31
6.00001352121
0
LINE
8
0
10
3975.952520936666
20
-559.024311456887
30
6.00001352121
11
3975.952520936728
21
-553.024311456886
31
6.000013725043
0
LINE
8
0
10
3975.952520936728
20
-553.024311456886
30
6.000013725043
11
3988.452520936728
21
-553.024311457015
31
6.000013500298
0
LINE
8
0
10
3988.452520936728
20
-553.024311457015
30
6.000013500298
11
3988.452520936666
21
-559.024311457016
31
6.000013296465
0
LINE
8
0
10
3698.452520936674
20
-558.124317557538
30
6.000018541124
11
3698.996039003081
21
-558.05275383684
31
6.000018533783
0
LINE
8
0
10
3697.909002870269
20
-558.052753836829
30
6.000018553327
11
3698.452520936674
21
-558.124317557538
31
6.000018541124
0
LINE
8
0
10
3697.40251788492
20
-557.842976004792
30
6.00001856956
11
3697.909002870269
21
-558.052753836829
31
6.000018553327
0
LINE
8
0
10
3696.967596620274
20
-557.509235770413
30
6.000018588718
11
3697.40251788492
21
-557.842976004792
31
6.00001856956
0
LINE
8
0
10
3696.633864015299
20
-557.074299246972
30
6.000018609494
11
3696.967596620274
21
-557.509235770413
31
6.000018588718
0
LINE
8
0
10
3696.424078553877
20
-556.567829520407
30
6.000018630471
11
3696.633864015299
21
-557.074299246972
31
6.000018609494
0
LINE
8
0
10
3696.352522462575
20
-556.024311454
30
6.000018650223
11
3696.424078553877
21
-556.567829520407
31
6.000018630471
0
LINE
8
0
10
3696.424078553889
20
-555.480793387595
30
6.0000186674
11
3696.352522462575
21
-556.024311454
31
6.000018650223
0
LINE
8
0
10
3696.63386401532
20
-554.974323661035
30
6.000018680834
11
3696.424078553889
21
-555.480793387595
31
6.0000186674
0
LINE
8
0
10
3696.967596620304
20
-554.539387137601
30
6.00001868961
11
3696.63386401532
21
-554.974323661035
31
6.000018680834
0
LINE
8
0
10
3697.402517884957
20
-554.20564690323
30
6.000018693128
11
3696.967596620304
21
-554.539387137601
31
6.00001868961
0
LINE
8
0
10
3697.90900287031
20
-553.995869071204
30
6.000018691148
11
3697.402517884957
21
-554.20564690323
31
6.000018693128
0
LINE
8
0
10
3698.452520936718
20
-553.924305350506
30
6.000018683807
11
3697.90900287031
21
-553.995869071204
31
6.000018691148
0
LINE
8
0
10
3698.996039003123
20
-553.995869071215
30
6.000018671604
11
3698.452520936718
21
-553.924305350506
31
6.000018683807
0
LINE
8
0
10
3699.502523988472
20
-554.205646903251
30
6.000018655371
11
3698.996039003123
21
-553.995869071215
31
6.000018671604
0
LINE
8
0
10
3699.937445253117
20
-554.539387137631
30
6.000018636213
11
3699.502523988472
21
-554.205646903251
31
6.000018655371
0
LINE
8
0
10
3700.271177858094
20
-554.974323661072
30
6.000018615437
11
3699.937445253117
21
-554.539387137631
31
6.000018636213
0
LINE
8
0
10
3700.480963319514
20
-555.480793387637
30
6.000018594459
11
3700.271177858094
21
-554.974323661072
31
6.000018615437
0
LINE
8
0
10
3700.552519410817
20
-556.024311454044
30
6.000018574708
11
3700.480963319514
21
-555.480793387637
31
6.000018594459
0
LINE
8
0
10
3700.480963319503
20
-556.567829520449
30
6.00001855753
11
3700.552519410817
21
-556.024311454044
31
6.000018574708
0
LINE
8
0
10
3700.271177858072
20
-557.07429924701
30
6.000018544096
11
3700.480963319503
21
-556.567829520449
31
6.00001855753
0
LINE
8
0
10
3699.937445253086
20
-557.509235770444
30
6.000018535321
11
3700.271177858072
21
-557.07429924701
31
6.000018544096
0
LINE
8
0
10
3699.502523988435
20
-557.842976004814
30
6.000018531803
11
3699.937445253086
21
-557.509235770444
31
6.000018535321
0
LINE
8
0
10
3690.952520936664
20
-559.024311453945
30
6.000018645396
11
3678.452520936665
21
-559.024311453815
31
6.000018870141
0
LINE
8
0
10
3678.452520936665
20
-559.024311453815
30
6.000018870141
11
3678.452520936727
21
-553.024311453814
31
6.000019073974
0
LINE
8
0
10
3678.452520936727
20
-553.024311453814
30
6.000019073974
11
3690.952520936727
21
-553.024311453945
31
6.000018849229
0
LINE
8
0
10
3690.952520936727
20
-553.024311453945
30
6.000018849229
11
3690.952520936664
21
-559.024311453945
31
6.000018645396
0
LINE
8
0
10
3968.452520936676
20
-558.124317560325
30
6.000013686632
11
3968.996039003082
21
-558.052753839627
31
6.000013679291
0
LINE
8
0
10
3967.90900287027
20
-558.052753839616
30
6.000013698835
11
3968.452520936676
21
-558.124317560325
31
6.000013686632
0
LINE
8
0
10
3967.40253314371
20
-557.842976007578
30
6.000013715068
11
3967.90900287027
21
-558.052753839616
31
6.000013698835
0
LINE
8
0
10
3966.967596620275
20
-557.509235773199
30
6.000013734226
11
3967.40253314371
21
-557.842976007578
31
6.000013715068
0
LINE
8
0
10
3966.633856385906
20
-557.074299249759
30
6.000013755002
11
3966.967596620275
21
-557.509235773199
31
6.000013734226
0
LINE
8
0
10
3966.42407855388
20
-556.567829523193
30
6.00001377598
11
3966.633856385906
21
-557.074299249759
31
6.000013755002
0
LINE
8
0
10
3966.352514833181
20
-556.024311456787
30
6.000013795731
11
3966.42407855388
21
-556.567829523193
31
6.00001377598
0
LINE
8
0
10
3966.42407855389
20
-555.480793390381
30
6.000013812909
11
3966.352514833181
21
-556.024311456787
31
6.000013795731
0
LINE
8
0
10
3966.633856385928
20
-554.974323663821
30
6.000013826343
11
3966.42407855389
21
-555.480793390381
31
6.000013812909
0
LINE
8
0
10
3966.967596620306
20
-554.539387140386
30
6.000013835118
11
3966.633856385928
21
-554.974323663821
31
6.000013826343
0
LINE
8
0
10
3967.402533143748
20
-554.205646906016
30
6.000013838636
11
3966.967596620306
21
-554.539387140386
31
6.000013835118
0
LINE
8
0
10
3967.909002870312
20
-553.995869073991
30
6.000013836656
11
3967.402533143748
21
-554.205646906016
31
6.000013838636
0
LINE
8
0
10
3968.452520936723
20
-553.924305353294
30
6.000013829315
11
3967.909002870312
21
-553.995869073991
31
6.000013836656
0
LINE
8
0
10
3968.996039003124
20
-553.995869074002
30
6.000013817112
11
3968.452520936723
21
-553.924305353294
31
6.000013829315
0
LINE
8
0
10
3969.502508729685
20
-554.205646906039
30
6.000013800879
11
3968.996039003124
21
-553.995869074002
31
6.000013817112
0
LINE
8
0
10
3969.937445253118
20
-554.539387140418
30
6.000013781721
11
3969.502508729685
21
-554.205646906039
31
6.000013800879
0
LINE
8
0
10
3970.27118548749
20
-554.974323663859
30
6.000013760945
11
3969.937445253118
21
-554.539387140418
31
6.000013781721
0
LINE
8
0
10
3970.480963319515
20
-555.480793390424
30
6.000013739967
11
3970.27118548749
21
-554.974323663859
31
6.000013760945
0
LINE
8
0
10
3970.552527040213
20
-556.024311456831
30
6.000013720216
11
3970.480963319515
21
-555.480793390424
31
6.000013739967
0
LINE
8
0
10
3970.480963319504
20
-556.567829523237
30
6.000013703039
11
3970.552527040213
21
-556.024311456831
31
6.000013720216
0
LINE
8
0
10
3970.271185487468
20
-557.074299249797
30
6.000013689604
11
3970.480963319504
21
-556.567829523237
31
6.000013703039
0
LINE
8
0
10
3969.937445253088
20
-557.509235773231
30
6.000013680829
11
3970.271185487468
21
-557.074299249797
31
6.000013689604
0
LINE
8
0
10
3969.502508729648
20
-557.842976007602
30
6.000013677311
11
3969.937445253088
21
-557.509235773231
31
6.000013680829
0
LINE
8
0
10
3968.996039003082
20
-558.052753839627
30
6.000013679291
11
3969.502508729648
21
-557.842976007602
31
6.000013677311
0
LINE
8
0
10
3948.452520936667
20
-559.024311456603
30
6.000014015649
11
3948.452520936727
21
-553.024311456603
31
6.000014219482
0
LINE
8
0
10
3948.452520936727
20
-553.024311456603
30
6.000014219482
11
3960.952520936727
21
-553.024311456732
31
6.000013994737
0
LINE
8
0
10
3960.952520936727
20
-553.024311456732
30
6.000013994737
11
3960.952520936667
21
-559.024311456732
31
6.000013790904
0
LINE
8
0
10
3960.952520936667
20
-559.024311456732
30
6.000013790904
11
3948.452520936667
21
-559.024311456603
31
6.000014015649
0
LINE
8
0
10
3705.952520936728
20
-553.024311454099
30
6.000018579535
11
3718.452520936727
21
-553.024311454229
31
6.00001835479
0
LINE
8
0
10
3718.452520936727
20
-553.024311454229
30
6.00001835479
11
3718.452520936665
21
-559.024311454229
31
6.000018150957
0
LINE
8
0
10
3718.452520936665
20
-559.024311454229
30
6.000018150957
11
3705.952520936665
21
-559.024311454099
31
6.000018375702
0
LINE
8
0
10
3705.952520936665
20
-559.024311454099
30
6.000018375702
11
3705.952520936728
21
-553.024311454099
31
6.000018579535
0
LINE
8
0
10
3678.452520943925
20
-894.739740468215
30
6.000007465171
11
3690.952520943925
21
-894.739740468344
31
6.000007240426
0
LINE
8
0
10
3678.452520943988
20
-888.739740281947
30
6.000007669003
11
3678.452520943925
21
-894.739740468215
31
6.000007465171
0
LINE
8
0
10
3690.952520943988
20
-888.739740282076
30
6.000007444258
11
3678.452520943988
21
-888.739740281947
31
6.000007669003
0
LINE
8
0
10
3690.952520943925
20
-894.739740468344
30
6.000007240426
11
3690.952520943988
21
-888.739740282076
31
6.000007444258
0
LINE
8
0
10
3718.452520943977
20
-888.739739872571
30
6.000006949819
11
3705.952520943987
21
-888.739739872442
31
6.000007174564
0
LINE
8
0
10
3718.452520943915
20
-894.73974005884
30
6.000006745987
11
3718.452520943977
21
-888.739739872571
31
6.000006949819
0
LINE
8
0
10
3960.952520943926
20
-894.739736447739
30
6.000002385934
11
3960.952520943988
21
-888.739736261471
31
6.000002589767
0
LINE
8
0
10
3948.452520943926
20
-894.73973644761
30
6.000002610679
11
3960.952520943926
21
-894.739736447739
31
6.000002385934
0
LINE
8
0
10
3948.452520943988
20
-888.739736261342
30
6.000002814512
11
3948.452520943926
21
-894.73973644761
31
6.000002610679
0
LINE
8
0
10
3960.952520943988
20
-888.739736261471
30
6.000002589767
11
3948.452520943988
21
-888.739736261342
31
6.000002814512
0
LINE
8
0
10
3975.952520943988
20
-888.739735851837
30
6.000002320073
11
3975.952520943926
21
-894.739736038105
31
6.00000211624
0
LINE
8
0
10
3988.452520943978
20
-888.739735851966
30
6.000002095328
11
3975.952520943988
21
-888.739735851837
31
6.000002320073
0
LINE
8
0
10
3988.452520943916
20
-894.739736038234
30
6.000001891495
11
3988.452520943978
21
-888.739735851966
31
6.000002095328
0
LINE
8
0
10
3912.452541096129
20
-908.073070205126
30
6.000002804982
11
3918.452540897355
21
-908.073070205188
31
6.000002697105
0
LINE
8
0
10
3918.452540897355
20
-908.073070205188
30
6.000002697105
11
3918.452540897218
21
-921.40640362793
31
6.000002244143
0
LINE
8
0
10
3918.452540897218
20
-921.40640362793
30
6.000002244143
11
3912.45254109599
21
-921.406403627868
31
6.000002352021
0
LINE
8
0
10
3754.452521397829
20
-908.073072647485
30
6.000005645759
11
3754.452521397691
21
-921.406406070227
31
6.000005192797
0
LINE
8
0
10
3754.452521397691
20
-921.406406070227
30
6.000005192797
11
3748.452521596465
21
-921.406406070165
31
6.000005300675
0
LINE
8
0
10
3748.452521596465
20
-921.406406070165
30
6.000005300675
11
3748.452521596603
21
-908.073072647423
31
6.000005753637
0
LINE
8
0
10
3748.452521596603
20
-908.073072647423
30
6.000005753637
11
3754.452521397829
21
-908.073072647485
31
6.000005645759
0
LINE
8
0
10
3684.452510606459
20
-414.523490928511
30
6.000023671265
11
3678.452594969976
21
-414.523490928449
31
6.000023779141
0
LINE
8
0
10
3678.452594969976
20
-414.523490928449
30
6.000023779141
11
3678.452594970106
21
-402.023456967516
31
6.000024203794
0
LINE
8
0
10
3678.452594970106
20
-402.023456967516
30
6.000024203794
11
3684.452510606588
21
-402.023456967578
31
6.000024095918
0
LINE
8
0
10
3684.452510606588
20
-402.023456967578
30
6.000024095918
11
3684.452510606459
21
-414.523490928511
31
6.000023671265
0
LINE
8
0
10
3678.452594291958
20
-442.023417669811
30
6.00002284491
11
3678.452594292086
21
-429.52345166151
31
6.000023269561
0
LINE
8
0
10
3678.452594292086
20
-429.52345166151
30
6.000023269561
11
3684.452677534753
21
-429.523451661572
31
6.000023161681
0
LINE
8
0
10
3684.452677534753
20
-429.523451661572
30
6.000023161681
11
3684.452677534624
21
-442.023417669876
31
6.000022737031
0
LINE
8
0
10
3684.452677534624
20
-442.023417669876
30
6.000022737031
11
3678.452594291958
21
-442.023417669811
31
6.00002284491
0
LINE
8
0
10
3938.452532077344
20
-414.523489316102
30
6.000019104447
11
3932.452532437768
21
-414.52348931604
31
6.000019212324
0
LINE
8
0
10
3932.452571108122
20
-442.023437383099
30
6.000018278091
11
3932.452571108251
21
-429.523471374794
31
6.000018702742
0
LINE
8
0
10
3932.452571108251
20
-429.523471374794
30
6.000018702742
11
3938.452570155786
21
-429.523471374856
31
6.000018594864
0
LINE
8
0
10
3938.452570155786
20
-429.523471374856
30
6.000018594864
11
3938.452570155658
21
-442.023437383162
31
6.000018170214
0
ENDSEC
0
EOF
