0
SECTION
2
ENTITIES
0
LINE
8
0
10
1812.630604634797
20
-1594.901415759365
30
5.999998622549
11
1812.231002944778
21
-1593.936691939775
31
5.999998651008
0
LINE
8
0
10
1812.231002944778
20
-1593.936691939775
30
5.999998651008
11
1812.094706249934
21
-1592.901415759365
31
5.99999867826
0
LINE
8
0
10
1812.094706249934
20
-1592.901415759365
30
5.99999867826
11
1812.231002944778
21
-1591.866139578955
31
5.999998702451
0
LINE
8
0
10
1812.231002944778
20
-1591.866139578955
30
5.999998702451
11
1812.630604634797
21
-1590.901415759365
31
5.999998721929
0
LINE
8
0
10
1812.630604634797
20
-1590.901415759365
30
5.999998721929
11
1813.266279125188
21
-1590.072988634618
31
5.999998735369
0
LINE
8
0
10
1813.266279125188
20
-1590.072988634618
30
5.999998735369
11
1814.094706249934
21
-1589.437314144227
31
5.999998741855
0
LINE
8
0
10
1814.094706249934
20
-1589.437314144227
30
5.999998741855
11
1815.059430069525
21
-1589.037712454208
31
5.999998740944
0
LINE
8
0
10
1815.059430069525
20
-1589.037712454208
30
5.999998740944
11
1816.094706249935
21
-1588.901415759365
31
5.999998732698
0
LINE
8
0
10
1816.094706249935
20
-1588.901415759365
30
5.999998732698
11
1817.129982430344
21
-1589.037712454208
31
5.99999871768
0
LINE
8
0
10
1817.129982430344
20
-1589.037712454208
30
5.99999871768
11
1818.094706249934
21
-1589.437314144227
31
5.999998696913
0
LINE
8
0
10
1818.094706249934
20
-1589.437314144227
30
5.999998696913
11
1818.92313337468
21
-1590.072988634618
31
5.999998671812
0
LINE
8
0
10
1818.92313337468
20
-1590.072988634618
30
5.999998671812
11
1819.558807865072
21
-1590.901415759365
31
5.999998644087
0
LINE
8
0
10
1819.558807865072
20
-1590.901415759365
30
5.999998644087
11
1819.95840955509
21
-1591.866139578955
31
5.999998615629
0
LINE
8
0
10
1819.95840955509
20
-1591.866139578955
30
5.999998615629
11
1820.094706249935
21
-1592.901415759365
31
5.999998588376
0
LINE
8
0
10
1820.094706249935
20
-1592.901415759365
30
5.999998588376
11
1819.958409555091
21
-1593.936691939775
31
5.999998564186
0
LINE
8
0
10
1819.958409555091
20
-1593.936691939775
30
5.999998564186
11
1819.558807865072
21
-1594.901415759365
31
5.999998544707
0
LINE
8
0
10
1819.558807865072
20
-1594.901415759365
30
5.999998544707
11
1818.92313337468
21
-1595.729842884111
31
5.999998531267
0
LINE
8
0
10
1818.92313337468
20
-1595.729842884111
30
5.999998531267
11
1818.094706249934
21
-1596.365517374502
31
5.999998524782
0
LINE
8
0
10
1818.094706249934
20
-1596.365517374502
30
5.999998524782
11
1817.129982430344
21
-1596.765119064521
31
5.999998525693
0
LINE
8
0
10
1817.129982430344
20
-1596.765119064521
30
5.999998525693
11
1816.094706249935
21
-1596.901415759365
31
5.999998533938
0
LINE
8
0
10
1816.094706249935
20
-1596.901415759365
30
5.999998533938
11
1815.059430069525
21
-1596.765119064521
31
5.999998548956
0
LINE
8
0
10
1815.059430069525
20
-1596.765119064521
30
5.999998548956
11
1814.094706249934
21
-1596.365517374502
31
5.999998569724
0
LINE
8
0
10
1814.094706249934
20
-1596.365517374502
30
5.999998569724
11
1813.266279125188
21
-1595.729842884111
31
5.999998594825
0
LINE
8
0
10
1813.266279125188
20
-1595.729842884111
30
5.999998594825
11
1812.630604634797
21
-1594.901415759365
31
5.999998622549
0
LINE
8
0
10
1814.143561541312
20
-1231.551499164827
30
6.000590082233
11
1814.477290573183
21
-1231.986423286796
31
6.000590066674
0
LINE
8
0
10
1814.477290573183
20
-1231.986423286796
30
6.000590066674
11
1814.912214709991
21
-1232.32015229933
31
6.000590054261
0
LINE
8
0
10
1814.912214709991
20
-1232.32015229933
30
6.000590054261
11
1815.418694590559
21
-1232.529943121738
31
6.00059004584
0
LINE
8
0
10
1815.418694590559
20
-1232.529943121738
30
6.00059004584
11
1815.962214448018
21
-1232.601498856168
31
6.000590041984
0
LINE
8
0
10
1815.962214448018
20
-1232.601498856168
30
6.000590041984
11
1816.5057343023
21
-1232.52994309757
31
6.000590042956
0
LINE
8
0
10
1816.5057343023
20
-1232.52994309757
30
6.000590042956
11
1817.012214173537
21
-1232.320152252642
31
6.00059004869
0
LINE
8
0
10
1817.012214173537
20
-1232.320152252642
30
6.00059004869
11
1817.447138295505
21
-1231.98642322077
31
6.000590058795
0
LINE
8
0
10
1817.447138295505
20
-1231.98642322077
30
6.000590058795
11
1817.780867308041
21
-1231.551499083962
31
6.000590072583
0
LINE
8
0
10
1817.780867308041
20
-1231.551499083962
30
6.000590072583
11
1817.990658130447
21
-1231.045019203395
31
6.000590089113
0
LINE
8
0
10
1817.990658130447
20
-1231.045019203395
30
6.000590089113
11
1818.062213864877
21
-1230.501499345934
31
6.00059010726
0
LINE
8
0
10
1818.062213864877
20
-1230.501499345934
30
6.00059010726
11
1817.990658106281
21
-1229.957979491653
31
6.000590125787
0
LINE
8
0
10
1817.990658106281
20
-1229.957979491653
30
6.000590125787
11
1817.780867261352
21
-1229.451499620415
31
6.000590143431
0
LINE
8
0
10
1817.780867261352
20
-1229.451499620415
30
6.000590143431
11
1817.447138229481
21
-1229.016575498446
31
6.000590158989
0
LINE
8
0
10
1817.447138229481
20
-1229.016575498446
30
6.000590158989
11
1817.012214092672
21
-1228.682846485913
31
6.000590171402
0
LINE
8
0
10
1817.012214092672
20
-1228.682846485913
30
6.000590171402
11
1816.505734212104
21
-1228.473055663505
31
6.000590179824
0
LINE
8
0
10
1816.505734212104
20
-1228.473055663505
30
6.000590179824
11
1815.962214354643
21
-1228.401499929075
31
6.00059018368
0
LINE
8
0
10
1815.962214354643
20
-1228.401499929075
30
6.00059018368
11
1815.418694500363
21
-1228.473055687673
31
6.000590182708
0
LINE
8
0
10
1815.418694500363
20
-1228.473055687673
30
6.000590182708
11
1814.912214629127
21
-1228.682846532601
31
6.000590176974
0
LINE
8
0
10
1814.912214629127
20
-1228.682846532601
30
6.000590176974
11
1814.477290507157
21
-1229.016575564473
31
6.000590166869
0
LINE
8
0
10
1814.477290507157
20
-1229.016575564473
30
6.000590166869
11
1814.143561494622
21
-1229.451499701281
31
6.000590153081
0
LINE
8
0
10
1814.143561494622
20
-1229.451499701281
30
6.000590153081
11
1813.933770672217
21
-1229.957979581848
31
6.00059013655
0
LINE
8
0
10
1813.933770672217
20
-1229.957979581848
30
6.00059013655
11
1813.862214937785
21
-1230.501499439309
31
6.000590118403
0
LINE
8
0
10
1813.862214937785
20
-1230.501499439309
30
6.000590118403
11
1813.933770696382
21
-1231.045019293589
31
6.000590099877
0
LINE
8
0
10
1813.933770696382
20
-1231.045019293589
30
6.000590099877
11
1814.143561541312
21
-1231.551499164827
31
6.000590082233
0
LINE
8
0
10
2113.109812197484
20
-1142.415648030764
30
5.999997529303
11
2112.776083075622
21
-1142.850572260191
31
5.999997521045
0
LINE
8
0
10
2112.776083075622
20
-1142.850572260191
30
5.999997521045
11
2112.566292171582
21
-1143.357052258516
31
5.99999750942
0
LINE
8
0
10
2112.566292171582
20
-1143.357052258516
30
5.99999750942
11
2112.494736388779
21
-1143.900572250852
31
5.999997495218
0
LINE
8
0
10
2112.494736388779
20
-1143.900572250852
30
5.999997495218
11
2112.56629213556
21
-1144.44409224793
31
5.999997479409
0
LINE
8
0
10
2112.56629213556
20
-1144.44409224793
30
5.999997479409
11
2112.776083006035
21
-1144.950572260159
31
5.999997463069
0
LINE
8
0
10
2112.776083006035
20
-1144.950572260159
30
5.999997463069
11
2113.109812099071
21
-1145.385496511703
31
5.999997447312
0
LINE
8
0
10
2113.109812099071
20
-1145.385496511703
30
5.999997447312
11
2113.544736328498
21
-1145.719225633565
31
5.999997433212
0
LINE
8
0
10
2113.544736328498
20
-1145.719225633565
30
5.999997433212
11
2114.051216326824
21
-1145.929016537605
31
5.99999742173
0
LINE
8
0
10
2114.051216326824
20
-1145.929016537605
30
5.99999742173
11
2114.594736319159
21
-1146.000572320408
31
5.999997413648
0
LINE
8
0
10
2114.594736319159
20
-1146.000572320408
30
5.999997413648
11
2115.138256316238
21
-1145.929016573627
31
5.999997409516
0
LINE
8
0
10
2115.138256316238
20
-1145.929016573627
30
5.999997409516
11
2115.644736328466
21
-1145.719225703153
31
5.999997409618
0
LINE
8
0
10
2115.644736328466
20
-1145.719225703153
30
5.999997409618
11
2116.079660580009
21
-1145.385496610115
31
5.999997413945
0
LINE
8
0
10
2116.079660580009
20
-1145.385496610115
30
5.999997413945
11
2116.413389701874
21
-1144.950572380688
31
5.999997422202
0
LINE
8
0
10
2116.413389701874
20
-1144.950572380688
30
5.999997422202
11
2116.623180605912
21
-1144.444092382363
31
5.999997433828
0
LINE
8
0
10
2116.623180605912
20
-1144.444092382363
30
5.999997433828
11
2116.694736388714
21
-1143.900572390027
31
5.999997448029
0
LINE
8
0
10
2116.694736388714
20
-1143.900572390027
30
5.999997448029
11
2116.623180641933
21
-1143.357052392949
31
5.999997463838
0
LINE
8
0
10
2116.623180641933
20
-1143.357052392949
30
5.999997463838
11
2116.413389771461
21
-1142.85057238072
31
5.999997480178
0
LINE
8
0
10
2116.413389771461
20
-1142.85057238072
30
5.999997480178
11
2116.079660678422
21
-1142.415648129177
31
5.999997495935
0
LINE
8
0
10
2116.079660678422
20
-1142.415648129177
30
5.999997495935
11
2115.644736448996
21
-1142.081919007314
31
5.999997510035
0
LINE
8
0
10
2115.644736448996
20
-1142.081919007314
30
5.999997510035
11
2115.13825645067
21
-1141.872128103274
31
5.999997521518
0
LINE
8
0
10
2115.13825645067
20
-1141.872128103274
30
5.999997521518
11
2114.594736458335
21
-1141.800572320471
31
5.9999975296
0
LINE
8
0
10
2114.594736458335
20
-1141.800572320471
30
5.9999975296
11
2114.051216461256
21
-1141.872128067253
31
5.999997533731
0
LINE
8
0
10
2114.051216461256
20
-1141.872128067253
30
5.999997533731
11
2113.544736449029
21
-1142.081918937726
31
5.99999753363
0
LINE
8
0
10
2113.544736449029
20
-1142.081918937726
30
5.99999753363
11
2113.109812197484
21
-1142.415648030764
31
5.999997529303
0
LINE
8
0
10
1814.74223940548
20
-1523.786301840074
30
6.00176124322
11
1815.177163542287
21
-1524.120030852607
31
6.001761230807
0
LINE
8
0
10
1815.177163542287
20
-1524.120030852607
30
6.001761230807
11
1815.683643422855
21
-1524.329821675015
31
6.001761222386
0
LINE
8
0
10
1815.683643422855
20
-1524.329821675015
30
6.001761222386
11
1816.227163280316
21
-1524.401377409445
31
6.00176121853
0
LINE
8
0
10
1816.227163280316
20
-1524.401377409445
30
6.00176121853
11
1816.770683134596
21
-1524.329821650847
31
6.001761219502
0
LINE
8
0
10
1816.770683134596
20
-1524.329821650847
30
6.001761219502
11
1817.277163005833
21
-1524.12003080592
31
6.001761225236
0
LINE
8
0
10
1817.277163005833
20
-1524.12003080592
30
6.001761225236
11
1817.712087127802
21
-1523.786301774047
31
6.001761235341
0
LINE
8
0
10
1817.712087127802
20
-1523.786301774047
30
6.001761235341
11
1818.045816140338
21
-1523.351377637239
31
6.001761249129
0
LINE
8
0
10
1818.045816140338
20
-1523.351377637239
30
6.001761249129
11
1818.255606962743
21
-1522.844897756672
31
6.001761265659
0
LINE
8
0
10
1818.255606962743
20
-1522.844897756672
30
6.001761265659
11
1818.327162697173
21
-1522.301377899211
31
6.001761283806
0
LINE
8
0
10
1818.327162697173
20
-1522.301377899211
30
6.001761283806
11
1818.255606938578
21
-1521.757858044931
31
6.001761302333
0
LINE
8
0
10
1818.255606938578
20
-1521.757858044931
30
6.001761302333
11
1818.045816093648
21
-1521.251378173693
31
6.001761319977
0
LINE
8
0
10
1818.045816093648
20
-1521.251378173693
30
6.001761319977
11
1817.712087061775
21
-1520.816454051724
31
6.001761335535
0
LINE
8
0
10
1817.712087061775
20
-1520.816454051724
30
6.001761335535
11
1817.277162924969
21
-1520.48272503919
31
6.001761347948
0
LINE
8
0
10
1817.277162924969
20
-1520.48272503919
30
6.001761347948
11
1816.770683044401
21
-1520.272934216783
31
6.00176135637
0
LINE
8
0
10
1816.770683044401
20
-1520.272934216783
30
6.00176135637
11
1816.227163186939
21
-1520.201378482353
31
6.001761360226
0
LINE
8
0
10
1816.227163186939
20
-1520.201378482353
30
6.001761360226
11
1815.68364333266
21
-1520.27293424095
31
6.001761359254
0
LINE
8
0
10
1815.68364333266
20
-1520.27293424095
30
6.001761359254
11
1815.177163461423
21
-1520.482725085878
31
6.00176135352
0
LINE
8
0
10
1815.177163461423
20
-1520.482725085878
30
6.00176135352
11
1814.742239339452
21
-1520.816454117751
31
6.001761343415
0
LINE
8
0
10
1814.742239339452
20
-1520.816454117751
30
6.001761343415
11
1814.408510326918
21
-1521.251378254559
31
6.001761329627
0
LINE
8
0
10
1814.408510326918
20
-1521.251378254559
30
6.001761329627
11
1814.198719504513
21
-1521.757858135126
31
6.001761313096
0
LINE
8
0
10
1814.198719504513
20
-1521.757858135126
30
6.001761313096
11
1814.127163770081
21
-1522.301377992587
31
6.001761294949
0
LINE
8
0
10
1814.127163770081
20
-1522.301377992587
30
6.001761294949
11
1814.198719528678
21
-1522.844897846867
31
6.001761276423
0
LINE
8
0
10
1814.198719528678
20
-1522.844897846867
30
6.001761276423
11
1814.408510373608
21
-1523.351377718105
31
6.001761258779
0
LINE
8
0
10
1814.408510373608
20
-1523.351377718105
30
6.001761258779
11
1814.74223940548
21
-1523.786301840074
31
6.00176124322
0
LINE
8
0
10
1912.413392891925
20
-1144.950565620015
30
6.000008221606
11
1912.623183795965
21
-1144.444085621689
31
6.000008233232
0
LINE
8
0
10
1912.623183795965
20
-1144.444085621689
30
6.000008233232
11
1912.694739578769
21
-1143.900565629351
31
6.000008247433
0
LINE
8
0
10
1912.694739578769
20
-1143.900565629351
30
6.000008247433
11
1912.623183831987
21
-1143.357045632271
31
6.000008263243
0
LINE
8
0
10
1912.623183831987
20
-1143.357045632271
30
6.000008263243
11
1912.413392961513
21
-1142.850565620041
31
6.000008279583
0
LINE
8
0
10
1912.413392961513
20
-1142.850565620041
30
6.000008279583
11
1912.079663868474
21
-1142.415641368495
31
6.00000829534
0
LINE
8
0
10
1912.079663868474
20
-1142.415641368495
30
6.00000829534
11
1911.644739639047
21
-1142.081912246632
31
6.00000830944
0
LINE
8
0
10
1911.644739639047
20
-1142.081912246632
30
6.00000830944
11
1911.13825964072
21
-1141.872121342591
31
6.000008320922
0
LINE
8
0
10
1911.13825964072
20
-1141.872121342591
30
6.000008320922
11
1910.594739648383
21
-1141.800565559788
31
6.000008329004
0
LINE
8
0
10
1910.594739648383
20
-1141.800565559788
30
6.000008329004
11
1910.051219651303
21
-1141.872121306569
31
6.000008333135
0
LINE
8
0
10
1910.051219651303
20
-1141.872121306569
30
6.000008333135
11
1909.544739639072
21
-1142.081912177043
31
6.000008333034
0
LINE
8
0
10
1909.544739639072
20
-1142.081912177043
30
6.000008333034
11
1909.109815387527
21
-1142.415641270082
31
6.000008328707
0
LINE
8
0
10
1909.109815387527
20
-1142.415641270082
30
6.000008328707
11
1908.776086265663
21
-1142.85056549951
31
6.00000832045
0
LINE
8
0
10
1908.776086265663
20
-1142.85056549951
30
6.00000832045
11
1908.566295361622
21
-1143.357045497836
31
6.000008308824
0
LINE
8
0
10
1908.566295361622
20
-1143.357045497836
30
6.000008308824
11
1908.49473957882
21
-1143.900565490174
31
6.000008294623
0
LINE
8
0
10
1908.49473957882
20
-1143.900565490174
30
6.000008294623
11
1908.5662953256
21
-1144.444085487254
31
6.000008278813
0
LINE
8
0
10
1908.5662953256
20
-1144.444085487254
30
6.000008278813
11
1908.776086196074
21
-1144.950565499484
31
6.000008262473
0
LINE
8
0
10
1908.776086196074
20
-1144.950565499484
30
6.000008262473
11
1909.109815289114
21
-1145.385489751029
31
6.000008246716
0
LINE
8
0
10
1909.109815289114
20
-1145.385489751029
30
6.000008246716
11
1909.544739518542
21
-1145.719218872893
31
6.000008232616
0
LINE
8
0
10
1909.544739518542
20
-1145.719218872893
30
6.000008232616
11
1910.051219516868
21
-1145.929009776934
31
6.000008221134
0
LINE
8
0
10
1910.051219516868
20
-1145.929009776934
30
6.000008221134
11
1910.594739509206
21
-1146.000565559737
31
6.000008213052
0
LINE
8
0
10
1910.594739509206
20
-1146.000565559737
30
6.000008213052
11
1911.138259506285
21
-1145.929009812956
31
6.000008208921
0
LINE
8
0
10
1911.138259506285
20
-1145.929009812956
30
6.000008208921
11
1911.644739518516
21
-1145.719218942482
31
6.000008209022
0
LINE
8
0
10
1911.644739518516
20
-1145.719218942482
30
6.000008209022
11
1912.079663770061
21
-1145.385489849443
31
6.000008213349
0
LINE
8
0
10
1912.079663770061
20
-1145.385489849443
30
6.000008213349
11
1912.413392891925
21
-1144.950565620015
31
6.000008221606
0
LINE
8
0
10
2014.413355540747
20
-1276.851427965711
30
5.999995550956
11
2014.079630565162
21
-1276.416491442274
31
5.999995555929
0
LINE
8
0
10
2033.594706249581
20
-1525.901415758616
30
5.99999526541
11
1991.59470624958
21
-1525.901415758755
31
5.999995891281
0
LINE
8
0
10
1807.594700909383
20
-1103.900563300436
30
6.000006044356
11
1807.594700360992
21
-1143.900569769927
31
6.000008008601
0
LINE
8
0
10
1807.594700360992
20
-1143.900569769927
30
6.000008008601
11
1801.594700360992
21
-1143.900569769947
31
6.000008098011
0
LINE
8
0
10
1812.962193192521
20
-1249.50149885858
30
5.999414569377
11
1812.962192942505
21
-1238.00149885858
31
5.999413377854
0
LINE
8
0
10
1807.594706249537
20
-1512.901415759365
30
5.99999863318
11
1801.594706249537
21
-1512.901415759384
31
5.99999872259
0
LINE
8
0
10
1807.594700909383
20
-1103.900563300436
30
6.000006044356
11
2217.594701350415
21
-1103.900570049562
31
6.000002385342
0
LINE
8
0
10
1807.594706249537
20
-1512.901415759365
30
5.99999863318
11
1807.594700361125
21
-1183.900569769927
31
6.000008008648
0
LINE
8
0
10
2217.594700281985
20
-1183.900569680545
30
6.000005086728
11
2223.594700281986
21
-1183.900569680525
31
6.000004997318
0
LINE
8
0
10
2012.594706249865
20
-1611.516838960934
30
5.999994148961
11
2012.051188183458
21
-1611.588395052245
31
5.999994157062
0
LINE
8
0
10
2217.594700281985
20
-1183.900569680545
30
6.000005086728
11
2217.594706249538
21
-1512.901415758005
31
5.999992523482
0
LINE
8
0
10
2223.594706249671
20
-1552.901415757986
30
5.999992434119
11
2223.594706249538
21
-1512.901415757986
31
5.999992434072
0
LINE
8
0
10
2217.594701350415
20
-1103.900570049562
30
6.000002385342
11
2217.594700281853
21
-1143.900569680545
31
6.000005086682
0
LINE
8
0
10
1801.594700360992
20
-1143.900569769947
30
6.000008098011
11
1801.594700361125
21
-1183.900569769947
31
6.000008098058
0
LINE
8
0
10
1801.594700361125
20
-1183.900569769947
30
6.000008098058
11
1807.594700361125
21
-1183.900569769927
31
6.000008008648
0
LINE
8
0
10
1801.594706249537
20
-1512.901415759384
30
5.99999872259
11
1801.594706249669
21
-1552.901415759385
31
5.999998722636
0
LINE
8
0
10
1801.594706249669
20
-1552.901415759385
30
5.999998722636
11
1807.59470624967
21
-1552.901415759365
31
5.999998633227
0
LINE
8
0
10
1807.594706249934
20
-1632.901415759365
30
5.999998633318
11
1807.59470624967
21
-1552.901415759365
31
5.999998633227
0
LINE
8
0
10
1807.594706249934
20
-1632.901415759365
30
5.999998633318
11
2217.594706249937
21
-1632.901415758006
31
5.999992523619
0
LINE
8
0
10
2217.594706249937
20
-1632.901415758006
30
5.999992523619
11
2217.594706249671
21
-1552.901415758006
31
5.999992523528
0
LINE
8
0
10
2217.594706249671
20
-1552.901415758006
30
5.999992523528
11
2223.594706249671
21
-1552.901415757986
31
5.999992434119
0
LINE
8
0
10
2223.594706249538
20
-1512.901415757986
30
5.999992434072
11
2217.594706249538
21
-1512.901415758005
31
5.999992523482
0
LINE
8
0
10
2223.594700281986
20
-1183.900569680525
30
6.000004997318
11
2223.594700281853
21
-1143.900569680525
31
6.000004997272
0
LINE
8
0
10
2223.594700281853
20
-1143.900569680525
30
6.000004997272
11
2217.594700281853
21
-1143.900569680545
31
6.000005086682
0
LINE
8
0
10
1992.594706248748
20
-1274.901415758752
30
5.99999587609
11
2005.094706248748
21
-1274.90141575871
31
5.999995689819
0
LINE
8
0
10
2005.094706248748
20
-1274.90141575871
30
5.999995689819
11
2005.094706248768
21
-1280.90141575871
31
5.999995689825
0
LINE
8
0
10
2005.094706248768
20
-1280.90141575871
30
5.999995689825
11
1992.594706248768
21
-1280.901415758751
31
5.999995876097
0
LINE
8
0
10
1992.594706248768
20
-1280.901415758751
30
5.999995876097
11
1992.594706248748
21
-1274.901415758752
31
5.99999587609
0
LINE
8
0
10
2020.094706248769
20
-1280.90141575866
30
5.9999954663
11
2020.094706248748
21
-1274.90141575866
31
5.999995466294
0
LINE
8
0
10
2020.094706248748
20
-1274.90141575866
30
5.999995466294
11
2032.594706248748
21
-1274.901415758619
31
5.999995280022
0
LINE
8
0
10
2032.594706248748
20
-1274.901415758619
30
5.999995280022
11
2032.594706248769
21
-1280.901415758618
31
5.999995280028
0
LINE
8
0
10
2032.594706248769
20
-1280.901415758618
30
5.999995280028
11
2020.094706248769
21
-1280.90141575866
31
5.9999954663
0
LINE
8
0
10
2032.094706249861
20
-1616.616839342378
30
5.999993951513
11
2019.594706249861
21
-1616.61683934236
31
5.999993951513
0
LINE
8
0
10
2019.594706249861
20
-1610.61683934236
30
5.999993951513
11
2019.594706249861
21
-1616.61683934236
31
5.999993951513
0
LINE
8
0
10
2019.594706249861
20
-1610.61683934236
30
5.999993951513
11
2032.094706249861
21
-1610.61683934236
31
5.999993951513
0
LINE
8
0
10
2032.094706249861
20
-1610.61683934236
30
5.999993951513
11
2032.094706249861
21
-1616.616839342378
31
5.999993951513
0
LINE
8
0
10
2010.494700145243
20
-1277.901415758692
30
5.999995609353
11
2010.566263865948
21
-1278.444933825098
31
5.999995608287
0
LINE
8
0
10
2010.566263865947
20
-1277.357897692285
30
5.999995608286
11
2010.494700145243
21
-1277.901415758692
31
5.999995609353
0
LINE
8
0
10
2010.776056956763
20
-1276.851427965723
30
5.999995605157
11
2010.566263865947
21
-1277.357897692285
31
5.999995608286
0
LINE
8
0
10
2011.10978193235
20
-1276.416491442284
30
5.999995600186
11
2010.776056956763
21
-1276.851427965723
31
5.999995605157
0
LINE
8
0
10
2011.544703196995
20
-1276.082751207908
30
5.999995593704
11
2011.10978193235
21
-1276.416491442284
31
5.999995600186
0
LINE
8
0
10
2012.051188182346
20
-1275.872973375875
30
5.999995586156
11
2011.544703196995
21
-1276.082751207908
31
5.999995593704
0
LINE
8
0
10
2012.594706248751
20
-1275.80140965517
30
5.999995578057
11
2012.051188182346
21
-1275.872973375875
31
5.999995586156
0
LINE
8
0
10
2013.138224315158
20
-1275.872973375871
30
5.999995569958
11
2012.594706248751
21
-1275.80140965517
31
5.999995578057
0
LINE
8
0
10
2013.644709300511
20
-1276.082751207901
30
5.999995562409
11
2013.138224315158
21
-1275.872973375871
31
5.999995569958
0
LINE
8
0
10
2014.079630565162
20
-1276.416491442274
30
5.999995555929
11
2013.644709300511
21
-1276.082751207901
31
5.999995562409
0
LINE
8
0
10
2014.623148631572
20
-1277.357897692272
30
5.999995547831
11
2014.413355540747
21
-1276.851427965711
31
5.999995550956
0
LINE
8
0
10
2014.694712352275
20
-1277.901415758678
30
5.999995546766
11
2014.623148631572
21
-1277.357897692272
31
5.999995547831
0
LINE
8
0
10
2014.623148631573
20
-1278.444933825084
30
5.999995547833
11
2014.694712352275
21
-1277.901415758678
31
5.999995546766
0
LINE
8
0
10
2014.413355540755
20
-1278.951403551648
30
5.99999555096
11
2014.623148631573
21
-1278.444933825084
31
5.999995547833
0
LINE
8
0
10
2014.07963056517
20
-1279.386340075086
30
5.999995555933
11
2014.413355540755
21
-1278.951403551648
31
5.99999555096
0
LINE
8
0
10
2013.644709300523
20
-1279.720080309463
30
5.999995562415
11
2014.07963056517
21
-1279.386340075086
31
5.999995555933
0
LINE
8
0
10
2013.138224315172
20
-1279.929858141496
30
5.999995569963
11
2013.644709300523
21
-1279.720080309463
31
5.999995562415
0
LINE
8
0
10
2012.594706248765
20
-1280.0014218622
30
5.999995578062
11
2013.138224315172
21
-1279.929858141496
31
5.999995569963
0
LINE
8
0
10
2012.05118818236
20
-1279.929858141499
30
5.999995586161
11
2012.594706248765
21
-1280.0014218622
31
5.999995578062
0
LINE
8
0
10
2011.544703197007
20
-1279.72008030947
30
5.99999559371
11
2012.05118818236
21
-1279.929858141499
31
5.999995586161
0
LINE
8
0
10
2011.109781932357
20
-1279.386340075096
30
5.999995600189
11
2011.544703197007
21
-1279.72008030947
31
5.99999559371
0
LINE
8
0
10
2010.776056956771
20
-1278.95140355166
30
5.999995605161
11
2011.109781932357
21
-1279.386340075096
31
5.999995600189
0
LINE
8
0
10
2010.566263865948
20
-1278.444933825098
30
5.999995608287
11
2010.776056956771
21
-1278.95140355166
31
5.999995605161
0
LINE
8
0
10
1991.594706249553
20
-1517.901415758755
30
5.999995891274
11
2033.594706249555
21
-1517.901415758616
31
5.999995265402
0
LINE
8
0
10
2033.594706249555
20
-1517.901415758616
30
5.999995265402
11
2033.594706249581
21
-1525.901415758616
31
5.99999526541
0
LINE
8
0
10
1991.59470624958
20
-1525.901415758755
30
5.999995891281
11
1991.594706249553
21
-1517.901415758755
31
5.999995891274
0
LINE
8
0
10
2005.594706249862
20
-1616.616839342448
30
5.999994346408
11
1993.094706249862
21
-1616.616839342467
31
5.999994346408
0
LINE
8
0
10
1993.094706249862
20
-1610.616839342447
30
5.999994346408
11
1993.094706249862
21
-1616.616839342467
31
5.999994346408
0
LINE
8
0
10
1993.094706249862
20
-1610.616839342447
30
5.999994346408
11
2005.594706249862
21
-1610.616839342447
31
5.999994346408
0
LINE
8
0
10
2005.594706249862
20
-1610.616839342447
30
5.999994346408
11
2005.594706249862
21
-1616.616839342448
31
5.999994346408
0
LINE
8
0
10
2014.079630566282
20
-1615.101763658805
30
5.999994126839
11
2014.413355541869
21
-1614.666839533132
31
5.999994121864
0
LINE
8
0
10
2013.644709301635
20
-1615.435492925927
30
5.999994133318
11
2014.079630566282
21
-1615.101763658805
31
5.999994126839
0
LINE
8
0
10
2013.138224316286
20
-1615.645283632563
30
5.999994140868
11
2013.644709301635
21
-1615.435492925927
31
5.999994133318
0
LINE
8
0
10
2012.594706249879
20
-1615.716839247036
30
5.999994148967
11
2013.138224316286
21
-1615.645283632563
31
5.999994140868
0
LINE
8
0
10
2012.051188183474
20
-1615.645283632567
30
5.999994157066
11
2012.594706249879
21
-1615.716839247036
31
5.999994148967
0
LINE
8
0
10
2011.54470319812
20
-1615.435492925933
30
5.999994164613
11
2012.051188183474
21
-1615.645283632567
31
5.999994157066
0
LINE
8
0
10
2011.109781933469
20
-1615.101763658814
30
5.999994171095
11
2011.54470319812
21
-1615.435492925933
31
5.999994164613
0
LINE
8
0
10
2010.776056957884
20
-1614.666839533144
30
5.999994176065
11
2011.109781933469
21
-1615.101763658814
31
5.999994171095
0
LINE
8
0
10
2010.56626386706
20
-1614.160359316165
30
5.999994179192
11
2010.776056957884
21
-1614.666839533144
31
5.999994176065
0
LINE
8
0
10
2010.494700146355
20
-1613.61683934241
30
5.999994180258
11
2010.56626386706
21
-1614.160359316165
31
5.999994179192
0
LINE
8
0
10
2010.566263867057
20
-1613.073319368655
30
5.999994179191
11
2010.494700146355
21
-1613.61683934241
31
5.999994180258
0
LINE
8
0
10
2010.776056957876
20
-1612.566839151675
30
5.999994176063
11
2010.566263867057
21
-1613.073319368655
31
5.999994179191
0
LINE
8
0
10
2011.10978193346
20
-1612.131915026002
30
5.999994171091
11
2010.776056957876
21
-1612.566839151675
31
5.999994176063
0
LINE
8
0
10
2011.544703198109
20
-1611.798186235717
30
5.999994164608
11
2011.10978193346
21
-1612.131915026002
31
5.999994171091
0
LINE
8
0
10
2012.051188183458
20
-1611.588395052245
30
5.999994157062
11
2011.544703198109
21
-1611.798186235717
31
5.999994164608
0
LINE
8
0
10
2013.13822431627
20
-1611.58839505224
30
5.999994140864
11
2012.594706249865
21
-1611.516838960934
31
5.999994148961
0
LINE
8
0
10
2013.644709301625
20
-1611.798186235711
30
5.999994133315
11
2013.13822431627
21
-1611.58839505224
31
5.999994140864
0
LINE
8
0
10
2014.079630566273
20
-1612.131915025992
30
5.999994126835
11
2013.644709301625
21
-1611.798186235711
31
5.999994133315
0
LINE
8
0
10
2014.413355541861
20
-1612.566839151663
30
5.999994121861
11
2014.079630566273
21
-1612.131915025992
31
5.999994126835
0
LINE
8
0
10
2014.623148632682
20
-1613.073319368642
30
5.999994118736
11
2014.413355541861
21
-1612.566839151663
31
5.999994121861
0
LINE
8
0
10
2014.694712353387
20
-1613.616839342397
30
5.99999411767
11
2014.623148632682
21
-1613.073319368642
31
5.999994118736
0
LINE
8
0
10
2014.623148632686
20
-1614.160359316152
30
5.999994118737
11
2014.694712353387
21
-1613.616839342397
31
5.99999411767
0
LINE
8
0
10
2014.413355541869
20
-1614.666839533132
30
5.999994121864
11
2014.623148632686
21
-1614.160359316152
31
5.999994118737
0
LINE
8
0
10
1907.594705294133
20
-1151.400572965113
30
5.999977323265
11
1913.594704805352
21
-1151.400572965093
31
5.999977255852
0
LINE
8
0
10
1913.594704805352
20
-1151.400572965093
30
5.999977255852
11
1913.594704805391
21
-1163.900563539258
31
5.999977255866
0
LINE
8
0
10
1913.594704805391
20
-1163.900563539258
30
5.999977255866
11
1907.594705294173
21
-1163.900563539278
31
5.999946191816
0
LINE
8
0
10
1907.594705294173
20
-1163.900563539278
30
5.999946191816
11
1907.594705294133
21
-1151.400572965113
31
5.999977323265
0
LINE
8
0
10
1913.594738070993
20
-1136.40057537938
30
5.99994618781
11
1907.594737439148
21
-1136.4005753794
31
5.999978991267
0
LINE
8
0
10
1907.594737439148
20
-1136.4005753794
30
5.999978991267
11
1907.594737439108
21
-1123.900547748706
31
5.999946255209
0
LINE
8
0
10
1907.594737439108
20
-1123.900547748706
30
5.999946255209
11
1913.594738070954
21
-1123.900547748686
31
5.999946187796
0
LINE
8
0
10
1913.594738070954
20
-1123.900547748686
30
5.999946187796
11
1913.594738070993
21
-1136.40057537938
31
5.99994618781
0
LINE
8
0
10
2117.594717958246
20
-1123.900566601484
30
6.000007866886
11
2117.594717958289
21
-1136.400590413801
31
6.0000078669
0
LINE
8
0
10
2117.594717958289
20
-1136.400590413801
30
6.0000078669
11
2111.594717618167
21
-1136.40059041382
31
6.000006196352
0
LINE
8
0
10
2111.594717618167
20
-1136.40059041382
30
6.000006196352
11
2111.594717618126
21
-1123.900566601504
31
6.000007934299
0
LINE
8
0
10
2111.594717618126
20
-1123.900566601504
30
6.000007934299
11
2117.594717958246
21
-1123.900566601484
31
6.000007866886
0
LINE
8
0
10
2111.594702100519
20
-1151.400579872955
30
5.999977936437
11
2117.594701856912
21
-1151.400579872935
31
5.999977869024
0
LINE
8
0
10
2117.594701856912
20
-1151.400579872935
30
5.999977869024
11
2117.594701856952
21
-1163.900563686424
31
5.999977869038
0
LINE
8
0
10
2117.594701856952
20
-1163.900563686424
30
5.999977869038
11
2111.594702100561
21
-1163.900563686443
31
5.999946191815
0
LINE
8
0
10
2111.594702100561
20
-1163.900563686443
30
5.999946191815
11
2111.594702100519
21
-1151.400579872955
31
5.999977936437
0
LINE
8
0
10
1813.227141774802
20
-1529.801377411858
30
6.000584554399
11
1819.227188933514
21
-1529.801377281413
31
6.000584538481
0
LINE
8
0
10
1819.227188933514
20
-1529.801377281413
30
6.000584538481
11
1819.22718918353
21
-1541.301377281414
31
6.00058377665
0
LINE
8
0
10
1819.22718918353
20
-1541.301377281414
30
6.00058377665
11
1813.227142024818
21
-1541.301377411858
31
6.000585745923
0
LINE
8
0
10
1813.227142024818
20
-1541.301377411858
30
6.000585745923
11
1813.227141774802
21
-1529.801377411858
31
6.000584554399
0
LINE
8
0
10
1818.96222325117
20
-1211.501483722159
30
5.999418007433
11
1818.962223501185
21
-1223.001483722159
31
5.999417245602
0
LINE
8
0
10
1818.962223501185
20
-1223.001483722159
30
5.999417245602
11
1812.962270790264
21
-1223.001483852604
31
5.999483096276
0
LINE
8
0
10
1812.962270790264
20
-1223.001483852604
30
5.999483096276
11
1812.962270540249
21
-1211.501483898388
31
5.999420682321
0
LINE
8
0
10
1818.96222325117
20
-1211.501483722159
30
5.999418007433
11
1812.962270540249
21
-1211.501483898388
31
5.999420682321
0
LINE
8
0
10
1812.962192942505
20
-1238.00149885858
30
5.999413377854
11
1818.962240101217
21
-1238.001498728136
31
5.999413361935
0
LINE
8
0
10
1818.962240101217
20
-1238.001498728136
30
5.999413361935
11
1818.962240351233
21
-1249.501498728136
31
5.999412600104
0
LINE
8
0
10
1818.962240351233
20
-1249.501498728136
30
5.999412600104
11
1812.962193192521
21
-1249.50149885858
31
5.999414569377
0
LINE
8
0
10
1819.227172083466
20
-1503.301362275437
30
6.000589183979
11
1813.227219372546
21
-1503.301362451666
31
6.000591858867
0
LINE
8
0
10
1819.227172083466
20
-1503.301362275437
30
6.000589183979
11
1819.227172333482
21
-1514.801362275437
31
6.000588422148
0
LINE
8
0
10
1819.227172333482
20
-1514.801362275437
30
6.000588422148
11
1813.227219622561
21
-1514.801362405882
31
6.000654272822
0
LINE
8
0
10
1813.227219622561
20
-1514.801362405882
30
6.000654272822
11
1813.227219372546
21
-1503.301362451666
31
6.000591858867
0
ENDSEC
0
EOF
