0
SECTION
2
ENTITIES
0
LINE
8
0
10
2725.393602457877
20
-871.185410870394
30
5.999994330505
11
2726.893602457876
21
-871.185410870397
31
5.999994330505
0
LINE
8
0
10
2730.793602553211
20
-886.185410870406
30
5.999994330505
11
2730.86175068935
21
-886.703048123213
31
5.999994330505
0
LINE
8
0
10
2731.061551657519
20
-887.185410870406
30
5.999994330505
11
2731.379389372667
21
-887.599624050949
31
5.999994330505
0
LINE
8
0
10
2731.379389372667
20
-887.599624050949
30
5.999994330505
11
2731.793602553208
21
-887.917460812424
31
5.999994330505
0
LINE
8
0
10
2731.793602553208
20
-887.917460812424
30
5.999994330505
11
2732.275964346725
21
-888.117263211107
31
5.999994330505
0
LINE
8
0
10
2741.293602553208
20
-887.917460812444
30
5.999994330505
11
2741.70781573375
21
-887.599624050971
31
5.999994330505
0
LINE
8
0
10
2741.70781573375
20
-887.599624050971
30
5.999994330505
11
2742.025652495226
21
-887.18541087043
31
5.999994330505
0
LINE
8
0
10
2742.29360255322
20
-882.185410870373
30
5.999994330505
11
2742.293602553212
21
-886.18541087043
31
5.999994330505
0
LINE
8
0
10
2996.093602553303
20
-886.185410870349
30
5.999994330505
11
2996.093602553303
21
-882.185410870374
31
5.999994330505
0
LINE
8
0
10
2996.093602553303
20
-886.185410870349
30
5.999994330505
11
2996.161750212603
21
-886.703048123157
31
5.999994330505
0
LINE
8
0
10
2996.161750212603
20
-886.703048123157
30
5.999994330505
11
2996.361552611284
21
-887.18541087035
31
5.999994330505
0
LINE
8
0
10
2996.679389372758
20
-887.599624050892
30
5.999994330505
11
2997.093602553299
21
-887.917460812368
31
5.999994330505
0
LINE
8
0
10
2997.093602553299
20
-887.917460812368
30
5.999994330505
11
2997.575965300491
21
-888.11726321105
31
5.999994330505
0
LINE
8
0
10
2997.575965300491
20
-888.11726321105
30
5.999994330505
11
2998.093602553299
21
-888.185410870353
31
5.999994330505
0
LINE
8
0
10
3005.593602553298
20
-888.185410870369
30
5.999994330505
11
3006.111240759781
21
-888.117263211069
31
5.999994330505
0
LINE
8
0
10
3006.111240759781
20
-888.117263211069
30
5.999994330505
11
3006.593602553299
21
-887.917460812388
31
5.999994330505
0
LINE
8
0
10
3006.593602553299
20
-887.917460812388
30
5.999994330505
11
3007.007815733842
21
-887.599624050914
31
5.999994330505
0
LINE
8
0
10
3007.007815733842
20
-887.599624050914
30
5.999994330505
11
3007.325653448991
21
-887.185410870373
31
5.999994330505
0
LINE
8
0
10
3007.325653448991
20
-887.185410870373
30
5.999994330505
11
3007.525454417163
21
-886.703048123181
31
5.999994330505
0
LINE
8
0
10
3007.525454417163
20
-886.703048123181
30
5.999994330505
11
3007.593602553303
21
-886.185410870374
31
5.999994330505
0
LINE
8
0
10
3012.993602648678
20
-882.185410870385
30
5.999994330505
11
3007.593602553311
21
-882.185410870374
31
5.999994330505
0
LINE
8
0
10
3012.993602648703
20
-871.185410870385
30
5.999994330505
11
3012.993602648678
21
-882.185410870385
31
5.999994330505
0
LINE
8
0
10
3011.493602648708
20
-868.185410870382
30
5.999994330505
11
3011.493602648702
21
-871.185410870382
31
5.999994330505
0
LINE
8
0
10
3012.993602648711
20
-867.185410870385
30
5.999994330505
11
3012.993602648709
21
-868.185410870385
31
5.999994330505
0
LINE
8
0
10
3017.193602457974
20
-868.185410870394
30
5.999994330505
11
3017.193602457976
21
-867.185410870394
31
5.999994330505
0
LINE
8
0
10
3018.693602457968
20
-871.185410870397
30
5.999994330505
11
3018.693602457974
21
-868.185410870397
31
5.999994330505
0
LINE
8
0
10
3017.193602457967
20
-871.185410870394
30
5.999994330505
11
3018.693602457968
21
-871.185410870397
31
5.999994330505
0
LINE
8
0
10
3022.593602553311
20
-882.185410870406
30
5.999994330505
11
3017.193602457944
21
-882.185410870394
31
5.999994330505
0
LINE
8
0
10
3022.66175068944
20
-886.703048123214
30
5.999994330505
11
3022.86155165761
21
-887.185410870406
31
5.999994330505
0
LINE
8
0
10
3023.179389372758
20
-887.599624050949
30
5.999994330505
11
3023.593602553299
21
-887.917460812424
31
5.999994330505
0
LINE
8
0
10
3032.093602553298
20
-888.185410870426
30
5.999994330505
11
3024.593602553298
21
-888.18541087041
31
5.999994330505
0
LINE
8
0
10
3032.611239806106
20
-888.117263211125
30
5.999994330505
11
3033.093602553299
21
-887.917460812445
31
5.999994330505
0
LINE
8
0
10
3033.093602553299
20
-887.917460812445
30
5.999994330505
11
3033.507815733842
21
-887.599624050971
31
5.999994330505
0
LINE
8
0
10
2740.811239806015
20
-888.117263211125
30
5.999994330505
11
2741.293602553208
21
-887.917460812444
31
5.999994330505
0
LINE
8
0
10
2742.025652495226
20
-887.18541087043
30
5.999994330505
11
2742.225454893909
21
-886.703048123238
31
5.999994330505
0
LINE
8
0
10
3034.025454894
20
-886.703048123238
30
5.999994330505
11
3034.093602553303
21
-886.18541087043
31
5.999994330505
0
LINE
8
0
10
2742.29360255322
20
-882.185410870373
30
5.999994330505
11
2996.093602553303
21
-882.185410870374
31
5.999994330505
0
LINE
8
0
10
3024.075964346817
20
-888.117263211107
30
5.999994330505
11
3024.593602553298
21
-888.18541087041
31
5.999994330505
0
LINE
8
0
10
3022.86155165761
20
-887.185410870406
30
5.999994330505
11
3023.179389372758
21
-887.599624050949
31
5.999994330505
0
LINE
8
0
10
3018.693602457974
20
-868.185410870397
30
5.999994330505
11
3017.193602457974
21
-868.185410870394
31
5.999994330505
0
LINE
8
0
10
3017.193602457944
20
-882.185410870394
30
5.999994330505
11
3017.193602457967
21
-871.185410870394
31
5.999994330505
0
LINE
8
0
10
2740.293602553207
20
-888.185410870426
30
5.999994330505
11
2740.811239806015
21
-888.117263211125
31
5.999994330505
0
LINE
8
0
10
2704.361750212512
20
-886.703048123156
30
5.999994330505
11
2704.561552611193
21
-887.185410870349
31
5.999994330505
0
LINE
8
0
10
2713.793602553207
20
-888.185410870369
30
5.999994330505
11
2714.311240759689
21
-888.117263211068
31
5.999994330505
0
LINE
8
0
10
2715.725454417071
20
-886.703048123181
30
5.999994330505
11
2715.793602553211
21
-886.185410870374
31
5.999994330505
0
LINE
8
0
10
3022.593602553302
20
-886.185410870406
30
5.999994330505
11
3022.593602553311
21
-882.185410870406
31
5.999994330505
0
LINE
8
0
10
2704.293602553212
20
-886.185410870348
30
5.999994330505
11
2704.29276585291
21
-864.180157456682
31
5.999994330505
0
LINE
8
0
10
2742.225454893909
20
-886.703048123238
30
5.999994330505
11
2742.293602553212
21
-886.18541087043
31
5.999994330505
0
LINE
8
0
10
2714.793602553208
20
-887.917460812388
30
5.999994330505
11
2715.207815733751
21
-887.599624050914
31
5.999994330505
0
LINE
8
0
10
2732.275964346725
20
-888.117263211107
30
5.999994330505
11
2732.793602553208
21
-888.18541087041
31
5.999994330505
0
LINE
8
0
10
3022.593602553302
20
-886.185410870406
30
5.999994330505
11
3022.66175068944
21
-886.703048123214
31
5.999994330505
0
LINE
8
0
10
2714.311240759689
20
-888.117263211068
30
5.999994330505
11
2714.793602553208
21
-887.917460812388
31
5.999994330505
0
LINE
8
0
10
2704.293602553212
20
-886.185410870348
30
5.999994330505
11
2704.361750212512
21
-886.703048123156
31
5.999994330505
0
LINE
8
0
10
2705.293602553208
20
-887.917460812367
30
5.999994330505
11
2705.7759653004
21
-888.11726321105
31
5.999994330505
0
LINE
8
0
10
3032.093602553298
20
-888.185410870426
30
5.999994330505
11
3032.611239806106
21
-888.117263211125
31
5.999994330505
0
LINE
8
0
10
3005.593602553298
20
-888.185410870369
30
5.999994330505
11
2998.093602553299
21
-888.185410870353
31
5.999994330505
0
LINE
8
0
10
2704.879389372666
20
-887.599624050892
30
5.999994330505
11
2705.293602553208
21
-887.917460812367
31
5.999994330505
0
LINE
8
0
10
2730.79360255322
20
-882.185410870405
30
5.999994330505
11
2725.393602457852
21
-882.185410870394
31
5.999994330505
0
LINE
8
0
10
2746.944719395455
20
-870.104324593564
30
5.999994330505
11
2746.893602457879
21
-869.716095222685
31
5.999994330505
0
LINE
8
0
10
2747.094560698659
20
-870.466095225679
30
5.999994330505
11
2746.944719395455
21
-870.104324593564
31
5.999994330505
0
LINE
8
0
10
2747.332948755555
20
-870.776756545148
30
5.999994330505
11
2747.094560698659
21
-870.466095225679
31
5.999994330505
0
LINE
8
0
10
2747.643602438527
20
-871.015133167208
30
5.999994330505
11
2747.332948755555
21
-870.776756545148
31
5.999994330505
0
LINE
8
0
10
2748.005373066177
20
-871.164982110586
30
5.999994330505
11
2747.643602438527
21
-871.015133167208
31
5.999994330505
0
LINE
8
0
10
2748.393602435533
20
-871.216095245032
30
5.999994330505
11
2748.005373066177
21
-871.164982110586
31
5.999994330505
0
LINE
8
0
10
2753.393602435533
20
-871.216095319519
30
5.999994330505
11
2748.393602435533
21
-871.216095245032
31
5.999994330505
0
LINE
8
0
10
2753.781831806412
20
-871.164982196641
30
5.999994330505
11
2753.393602435533
21
-871.216095319519
31
5.999994330505
0
LINE
8
0
10
2754.143602438527
20
-871.015133264042
30
5.999994330505
11
2753.781831806412
21
-871.164982196641
31
5.999994330505
0
LINE
8
0
10
2754.454256128601
20
-870.776756651238
30
5.999994330505
11
2754.143602438527
21
-871.015133264042
31
5.999994330505
0
LINE
8
0
10
2754.692644194753
20
-870.466095338872
30
5.999994330505
11
2754.454256128601
21
-870.776756651238
31
5.999994330505
0
LINE
8
0
10
2754.842485508736
20
-870.104324711221
30
5.999994330505
11
2754.692644194753
21
-870.466095338872
31
5.999994330505
0
LINE
8
0
10
2754.893602457879
20
-869.716095341866
30
5.999994330505
11
2754.842485508736
21
-870.104324711221
31
5.999994330505
0
LINE
8
0
10
2754.842485520303
20
-869.327865970987
30
5.999994330505
11
2754.893602457879
21
-869.716095341866
31
5.999994330505
0
LINE
8
0
10
2754.692644217099
20
-868.966095338872
30
5.999994330505
11
2754.842485520303
21
-869.327865970987
31
5.999994330505
0
LINE
8
0
10
2754.454256160204
20
-868.655434019402
30
5.999994330505
11
2754.692644217099
21
-868.966095338872
31
5.999994330505
0
LINE
8
0
10
2754.143602477232
20
-868.417057397343
30
5.999994330505
11
2754.454256160204
21
-868.655434019402
31
5.999994330505
0
LINE
8
0
10
2753.781831849582
20
-868.267208453965
30
5.999994330505
11
2754.143602477232
21
-868.417057397343
31
5.999994330505
0
LINE
8
0
10
2753.393602480226
20
-868.216095319519
30
5.999994330505
11
2753.781831849582
21
-868.267208453965
31
5.999994330505
0
LINE
8
0
10
2748.393602480225
20
-868.216095245032
30
5.999994330505
11
2753.393602480226
21
-868.216095319519
31
5.999994330505
0
LINE
8
0
10
2748.005373109347
20
-868.26720836791
30
5.999994330505
11
2748.393602480225
21
-868.216095245032
31
5.999994330505
0
LINE
8
0
10
2747.643602477232
20
-868.417057300509
30
5.999994330505
11
2748.005373109347
21
-868.26720836791
31
5.999994330505
0
LINE
8
0
10
2747.332948787157
20
-868.655433913312
30
5.999994330505
11
2747.643602477232
21
-868.417057300509
31
5.999994330505
0
LINE
8
0
10
2747.094560721006
20
-868.966095225679
30
5.999994330505
11
2747.332948787157
21
-868.655433913312
31
5.999994330505
0
LINE
8
0
10
2746.944719407022
20
-869.327865853329
30
5.999994330505
11
2747.094560721006
21
-868.966095225679
31
5.999994330505
0
LINE
8
0
10
2990.381831997238
20
-871.164982196641
30
5.999994330504
11
2989.993602626359
21
-871.216095319519
31
5.999994330504
0
LINE
8
0
10
2990.743602629353
20
-871.015133264042
30
5.999994330504
11
2990.381831997238
21
-871.164982196641
31
5.999994330504
0
LINE
8
0
10
2990.743602668058
20
-868.417057397343
30
5.999994330504
11
2991.05425635103
21
-868.655434019402
31
5.999994330505
0
LINE
8
0
10
2991.054256319428
20
-870.776756651239
30
5.999994330505
11
2990.743602629353
21
-871.015133264042
31
5.999994330504
0
LINE
8
0
10
2865.632948850968
20
-870.776756545149
30
5.999994330504
11
2865.394560794073
21
-870.466095225679
31
5.999994330504
0
LINE
8
0
10
2984.993602626359
20
-871.216095245032
30
5.999994330505
11
2984.605373257003
21
-871.164982110586
31
5.999994330504
0
LINE
8
0
10
2865.394560794073
20
-870.466095225679
30
5.999994330504
11
2865.244719490868
21
-870.104324593564
31
5.999994330504
0
LINE
8
0
10
2983.694560889486
20
-870.466095225679
30
5.999994330504
11
2983.544719586281
21
-870.104324593564
31
5.999994330504
0
LINE
8
0
10
2983.932948946381
20
-870.776756545149
30
5.999994330504
11
2983.694560889486
21
-870.466095225679
31
5.999994330504
0
LINE
8
0
10
2983.694560911832
20
-868.966095225679
30
5.999994330504
11
2983.932948977983
21
-868.655433913313
31
5.999994330504
0
LINE
8
0
10
2991.05425635103
20
-868.655434019402
30
5.999994330505
11
2991.292644407925
21
-868.966095338872
31
5.999994330505
0
LINE
8
0
10
2991.493602648705
20
-869.716095341866
30
5.999994330505
11
2991.442485699562
21
-870.104324711221
31
5.999994330505
0
LINE
8
0
10
2983.544719597848
20
-869.327865853329
30
5.999994330504
11
2983.694560911832
21
-868.966095225679
31
5.999994330504
0
LINE
8
0
10
2989.993602626359
20
-871.216095319519
30
5.999994330504
11
2984.993602626359
21
-871.216095245032
31
5.999994330505
0
LINE
8
0
10
2983.493602648705
20
-869.716095222685
30
5.999994330504
11
2983.544719597848
21
-869.327865853329
31
5.999994330504
0
LINE
8
0
10
2990.381832040408
20
-868.267208453965
30
5.999994330504
11
2990.743602668058
21
-868.417057397343
31
5.999994330504
0
LINE
8
0
10
2865.193602553292
20
-869.716095222685
30
5.999994330504
11
2865.244719502435
21
-869.327865853329
31
5.999994330504
0
LINE
8
0
10
2865.94360253394
20
-871.015133167208
30
5.999994330505
11
2865.632948850968
21
-870.776756545149
31
5.999994330504
0
LINE
8
0
10
2866.30537316159
20
-871.164982110586
30
5.999994330504
11
2865.94360253394
21
-871.015133167208
31
5.999994330505
0
LINE
8
0
10
2865.244719490868
20
-870.104324593564
30
5.999994330504
11
2865.193602553292
21
-869.716095222685
31
5.999994330504
0
LINE
8
0
10
2991.442485711129
20
-869.327865970987
30
5.999994330505
11
2991.493602648705
21
-869.716095341866
31
5.999994330505
0
LINE
8
0
10
2983.932948977983
20
-868.655433913313
30
5.999994330504
11
2984.243602668058
21
-868.417057300509
31
5.999994330505
0
LINE
8
0
10
2989.993602671052
20
-868.216095319519
30
5.999994330504
11
2990.381832040408
21
-868.267208453965
31
5.999994330504
0
LINE
8
0
10
2746.893602457879
20
-869.716095222685
30
5.999994330505
11
2746.944719407022
21
-869.327865853329
31
5.999994330505
0
LINE
8
0
10
3012.993602648711
20
-867.185410870385
30
5.999994330505
11
3017.193602457976
21
-867.185410870394
31
5.999994330505
0
LINE
8
0
10
3023.593602553299
20
-887.917460812424
30
5.999994330505
11
3024.075964346817
21
-888.117263211107
31
5.999994330505
0
LINE
8
0
10
3033.507815733842
20
-887.599624050971
30
5.999994330505
11
3033.825652495318
21
-887.18541087043
31
5.999994330505
0
LINE
8
0
10
3033.825652495318
20
-887.18541087043
30
5.999994330505
11
3034.025454894
21
-886.703048123238
31
5.999994330505
0
LINE
8
0
10
2705.7759653004
20
-888.11726321105
30
5.999994330505
11
2706.293602553207
21
-888.185410870353
31
5.999994330505
0
LINE
8
0
10
2715.79360255322
20
-882.185410870373
30
5.999994330505
11
2715.793602553211
21
-886.185410870374
31
5.999994330505
0
LINE
8
0
10
2725.393602457852
20
-882.185410870394
30
5.999994330505
11
2725.393602457877
21
-871.185410870394
31
5.999994330505
0
LINE
8
0
10
2730.793602553211
20
-886.185410870406
30
5.999994330505
11
2730.79360255322
21
-882.185410870405
31
5.999994330505
0
LINE
8
0
10
2740.293602553207
20
-888.185410870426
30
5.999994330505
11
2732.793602553208
21
-888.18541087041
31
5.999994330505
0
LINE
8
0
10
2996.361552611284
20
-887.18541087035
30
5.999994330505
11
2996.679389372758
21
-887.599624050892
31
5.999994330505
0
LINE
8
0
10
3011.493602648702
20
-871.185410870382
30
5.999994330505
11
3012.993602648703
21
-871.185410870385
31
5.999994330505
0
LINE
8
0
10
2984.243602668058
20
-868.417057300509
30
5.999994330505
11
2984.605373300173
21
-868.26720836791
31
5.999994330504
0
LINE
8
0
10
2984.605373300173
20
-868.26720836791
30
5.999994330504
11
2984.993602671051
21
-868.216095245032
31
5.999994330505
0
LINE
8
0
10
2984.993602671051
20
-868.216095245032
30
5.999994330505
11
2989.993602671052
21
-868.216095319519
31
5.999994330504
0
LINE
8
0
10
2991.292644407925
20
-868.966095338872
30
5.999994330505
11
2991.442485711129
21
-869.327865970987
31
5.999994330505
0
LINE
8
0
10
2991.442485699562
20
-870.104324711221
30
5.999994330505
11
2991.292644385579
21
-870.466095338872
31
5.999994330505
0
LINE
8
0
10
2991.292644385579
20
-870.466095338872
30
5.999994330505
11
2991.054256319428
21
-870.776756651239
31
5.999994330505
0
LINE
8
0
10
2984.605373257003
20
-871.164982110586
30
5.999994330504
11
2984.243602629353
21
-871.015133167208
31
5.999994330505
0
LINE
8
0
10
2984.243602629353
20
-871.015133167208
30
5.999994330505
11
2983.932948946381
21
-870.776756545149
31
5.999994330504
0
LINE
8
0
10
2983.544719586281
20
-870.104324593564
30
5.999994330504
11
2983.493602648705
21
-869.716095222685
31
5.999994330504
0
LINE
8
0
10
2873.142485615716
20
-869.327865970987
30
5.999994330505
11
2873.193602553292
21
-869.716095341866
31
5.999994330505
0
LINE
8
0
10
2873.193602553292
20
-869.716095341866
30
5.999994330505
11
2873.142485604149
21
-870.104324711221
31
5.999994330505
0
LINE
8
0
10
2873.142485604149
20
-870.104324711221
30
5.999994330505
11
2872.992644290166
21
-870.466095338872
31
5.999994330505
0
LINE
8
0
10
2872.992644290166
20
-870.466095338872
30
5.999994330505
11
2872.754256224015
21
-870.776756651239
31
5.999994330505
0
LINE
8
0
10
2872.754256224015
20
-870.776756651239
30
5.999994330505
11
2872.44360253394
21
-871.015133264042
31
5.999994330504
0
LINE
8
0
10
2872.44360253394
20
-871.015133264042
30
5.999994330504
11
2872.081831901825
21
-871.164982196641
31
5.999994330504
0
LINE
8
0
10
2872.081831901825
20
-871.164982196641
30
5.999994330504
11
2871.693602530946
21
-871.216095319519
31
5.999994330504
0
LINE
8
0
10
2871.693602530946
20
-871.216095319519
30
5.999994330504
11
2866.693602530946
21
-871.216095245032
31
5.999994330505
0
LINE
8
0
10
3012.993602648709
20
-868.185410870385
30
5.999994330505
11
3011.493602648708
21
-868.185410870382
31
5.999994330505
0
LINE
8
0
10
2726.893602457882
20
-868.185410870397
30
5.999994330505
11
2725.393602457883
21
-868.185410870394
31
5.999994330505
0
LINE
8
0
10
2730.86175068935
20
-886.703048123213
30
5.999994330505
11
2731.061551657519
21
-887.185410870406
31
5.999994330505
0
LINE
8
0
10
2725.393602457884
20
-867.185410870394
30
5.999994330505
11
2721.193602648619
21
-867.185410870385
31
5.999994330505
0
LINE
8
0
10
2725.393602457883
20
-868.185410870394
30
5.999994330505
11
2725.393602457884
21
-867.185410870394
31
5.999994330505
0
LINE
8
0
10
3033.825652495388
20
-863.186109534171
30
5.999994330505
11
3033.507815733914
21
-862.771896353628
31
5.999994330505
0
LINE
8
0
10
3033.507815733914
20
-862.771896353628
30
5.999994330505
11
3033.093602553372
21
-862.454059592153
31
5.999994330505
0
LINE
8
0
10
3034.093602553369
20
-864.186109534171
30
5.999994330505
11
3034.093602553303
21
-886.18541087043
31
5.999994330505
0
LINE
8
0
10
3034.093602553369
20
-864.186109534171
30
5.999994330505
11
3034.025454894069
21
-863.668472281363
31
5.999994330505
0
LINE
8
0
10
3007.593602553311
20
-882.185410870374
30
5.999994330505
11
3007.593602553303
21
-886.185410870374
31
5.999994330505
0
LINE
8
0
10
2866.693602530946
20
-871.216095245032
30
5.999994330505
11
2866.30537316159
21
-871.164982110586
31
5.999994330504
0
LINE
8
0
10
2865.244719502435
20
-869.327865853329
30
5.999994330504
11
2865.394560816419
21
-868.966095225679
31
5.999994330504
0
LINE
8
0
10
2865.394560816419
20
-868.966095225679
30
5.999994330504
11
2865.63294888257
21
-868.655433913313
31
5.999994330504
0
LINE
8
0
10
2865.63294888257
20
-868.655433913313
30
5.999994330504
11
2865.943602572645
21
-868.417057300509
31
5.999994330505
0
LINE
8
0
10
2865.943602572645
20
-868.417057300509
30
5.999994330505
11
2866.30537320476
21
-868.26720836791
31
5.999994330504
0
LINE
8
0
10
2866.30537320476
20
-868.26720836791
30
5.999994330504
11
2866.693602575638
21
-868.216095245032
31
5.999994330505
0
LINE
8
0
10
2866.693602575638
20
-868.216095245032
30
5.999994330505
11
2871.693602575639
21
-868.216095319519
31
5.999994330504
0
LINE
8
0
10
2871.693602575639
20
-868.216095319519
30
5.999994330504
11
2872.081831944995
21
-868.267208453965
31
5.999994330504
0
LINE
8
0
10
2872.081831944995
20
-868.267208453965
30
5.999994330504
11
2872.443602572645
21
-868.417057397343
31
5.999994330504
0
LINE
8
0
10
2872.443602572645
20
-868.417057397343
30
5.999994330504
11
2872.754256255617
21
-868.655434019402
31
5.999994330505
0
LINE
8
0
10
2872.754256255617
20
-868.655434019402
30
5.999994330505
11
2872.992644312512
21
-868.966095338872
31
5.999994330505
0
LINE
8
0
10
2872.992644312512
20
-868.966095338872
30
5.999994330505
11
2873.142485615716
21
-869.327865970987
31
5.999994330505
0
LINE
8
0
10
2704.560715910896
20
-863.180157456683
30
5.999994330505
11
2704.360913512213
21
-863.662520203874
31
5.999994330505
0
LINE
8
0
10
2713.793602553207
20
-888.185410870369
30
5.999994330505
11
2706.293602553207
21
-888.185410870353
31
5.999994330505
0
LINE
8
0
10
2704.561552611193
20
-887.185410870349
30
5.999994330505
11
2704.879389372666
21
-887.599624050892
31
5.999994330505
0
LINE
8
0
10
2705.775128600106
20
-862.248305115986
30
5.999994330505
11
2705.292765852914
21
-862.448107514667
31
5.999994330505
0
LINE
8
0
10
2705.292765852914
20
-862.448107514667
30
5.999994330505
11
2704.878552672371
21
-862.765944276141
31
5.999994330505
0
LINE
8
0
10
2704.878552672371
20
-862.765944276141
30
5.999994330505
11
2704.560715910896
21
-863.180157456683
31
5.999994330505
0
LINE
8
0
10
2704.360913512213
20
-863.662520203874
30
5.999994330505
11
2704.29276585291
21
-864.180157456682
31
5.999994330505
0
LINE
8
0
10
2721.193602648611
20
-871.185410870385
30
5.999994330505
11
2721.193602648587
21
-882.185410870385
31
5.999994330505
0
LINE
8
0
10
3034.025454894069
20
-863.668472281363
30
5.999994330505
11
3033.825652495388
21
-863.186109534171
31
5.999994330505
0
LINE
8
0
10
2721.193602648617
20
-868.185410870385
30
5.999994330505
11
2719.693602648617
21
-868.185410870382
31
5.999994330505
0
LINE
8
0
10
2706.292765852914
20
-862.180157456686
30
5.999994330505
11
2705.775128600106
21
-862.248305115986
31
5.999994330505
0
LINE
8
0
10
3032.61123980618
20
-862.25425719347
30
5.999994330505
11
3032.093602553374
21
-862.186109534167
31
5.999994330505
0
LINE
8
0
10
2715.207815733751
20
-887.599624050914
30
5.999994330505
11
2715.5256534489
21
-887.185410870373
31
5.999994330505
0
LINE
8
0
10
2706.292765852914
20
-862.180157456686
30
5.999994330505
11
3032.093602553374
21
-862.186109534167
31
5.999994330505
0
LINE
8
0
10
2721.193602648587
20
-882.185410870385
30
5.999994330505
11
2715.79360255322
21
-882.185410870373
31
5.999994330505
0
LINE
8
0
10
3033.093602553372
20
-862.454059592153
30
5.999994330505
11
3032.61123980618
21
-862.25425719347
31
5.999994330505
0
LINE
8
0
10
2715.5256534489
20
-887.185410870373
30
5.999994330505
11
2715.725454417071
21
-886.703048123181
31
5.999994330505
0
LINE
8
0
10
2719.693602648611
20
-871.185410870382
30
5.999994330505
11
2721.193602648611
21
-871.185410870385
31
5.999994330505
0
LINE
8
0
10
2719.693602648617
20
-868.185410870382
30
5.999994330505
11
2719.693602648611
21
-871.185410870382
31
5.999994330505
0
LINE
8
0
10
2721.193602648619
20
-867.185410870385
30
5.999994330505
11
2721.193602648617
21
-868.185410870385
31
5.999994330505
0
LINE
8
0
10
2726.893602457876
20
-871.185410870397
30
5.999994330505
11
2726.893602457882
21
-868.185410870397
31
5.999994330505
0
LINE
8
1
10
2865.874618174338
20
-836.597495914414
30
5.999994330505
11
2865.563964491365
21
-836.359119292355
31
5.999994330504
0
LINE
8
1
10
2866.236388801988
20
-836.747344857792
30
5.999994330504
11
2865.874618174338
21
-836.597495914414
31
5.999994330505
0
LINE
8
1
10
2865.175735131266
20
-835.68668734077
30
5.999994330504
11
2865.12461819369
21
-835.298457969891
31
5.999994330504
0
LINE
8
1
10
2991.373501351527
20
-834.910228718193
30
5.999994330505
11
2991.424618289103
21
-835.298458089072
31
5.999994330505
0
LINE
8
1
10
2983.863964618381
20
-834.237796660518
30
5.999994330504
11
2984.174618308456
21
-833.999420047715
31
5.999994330505
0
LINE
8
1
10
2989.924618311449
20
-833.798458066725
30
5.999994330504
11
2990.312847680805
21
-833.849571201171
31
5.999994330504
0
LINE
8
1
10
2746.824618098277
20
-835.298457969891
30
5.999994330505
11
2746.87573504742
21
-834.910228600535
31
5.999994330505
0
LINE
8
1
10
3012.924618289109
20
-832.767773617591
30
5.999994330505
11
3017.124618098374
21
-832.7677736176
31
5.999994330505
0
LINE
8
1
10
3018.624618098365
20
-836.767773617603
30
5.999994330505
11
3018.624618098371
21
-833.767773617603
31
5.999994330505
0
LINE
8
1
10
3017.124618098365
20
-836.7677736176
30
5.999994330505
11
3018.624618098365
21
-836.767773617603
31
5.999994330505
0
LINE
8
1
10
3017.124618098341
20
-847.7677736176
30
5.999994330505
11
3017.124618098365
21
-836.7677736176
31
5.999994330505
0
LINE
8
1
10
3022.524618193709
20
-847.767773617612
30
5.999994330505
11
3017.124618098341
21
-847.7677736176
31
5.999994330505
0
LINE
8
1
10
3022.5246181937
20
-851.767773617612
30
5.999994330505
11
3022.524618193709
21
-847.767773617612
31
5.999994330505
0
LINE
8
1
10
3022.5246181937
20
-851.767773617612
30
5.999994330505
11
3022.592766329838
21
-852.285410870419
31
5.999994330505
0
LINE
8
1
10
3022.592766329838
20
-852.285410870419
30
5.999994330505
11
3022.792567298007
21
-852.767773617612
31
5.999994330505
0
LINE
8
1
10
3022.792567298007
20
-852.767773617612
30
5.999994330505
11
3023.110405013155
21
-853.181986798155
31
5.999994330505
0
LINE
8
1
10
3023.110405013155
20
-853.181986798155
30
5.999994330505
11
3023.524618193697
21
-853.49982355963
31
5.999994330505
0
LINE
8
1
10
3023.524618193697
20
-853.49982355963
30
5.999994330505
11
3024.006979987214
21
-853.699625958313
31
5.999994330505
0
LINE
8
1
10
3024.006979987214
20
-853.699625958313
30
5.999994330505
11
3024.524618193696
21
-853.767773617616
31
5.999994330505
0
LINE
8
1
10
3032.024618193696
20
-853.767773617632
30
5.999994330505
11
3024.524618193696
21
-853.767773617616
31
5.999994330505
0
LINE
8
1
10
3032.024618193696
20
-853.767773617632
30
5.999994330505
11
3032.542255446504
21
-853.699625958331
31
5.999994330505
0
LINE
8
1
10
3032.542255446504
20
-853.699625958331
30
5.999994330505
11
3033.024618193697
21
-853.499823559651
31
5.999994330505
0
LINE
8
1
10
3033.956470534466
20
-829.250835028569
30
5.999994330505
11
3033.756668135785
21
-828.768472281377
31
5.999994330505
0
LINE
8
1
10
3033.756668135785
20
-828.768472281377
30
5.999994330505
11
3033.438831374312
21
-828.354259100834
31
5.999994330505
0
LINE
8
1
10
3033.438831374312
20
-828.354259100834
30
5.999994330505
11
3033.02461819377
21
-828.036422339359
31
5.999994330505
0
LINE
8
1
10
3033.02461819377
20
-828.036422339359
30
5.999994330505
11
3032.542255446578
21
-827.836619940676
31
5.999994330505
0
LINE
8
1
10
3032.542255446578
20
-827.836619940676
30
5.999994330505
11
3032.024618193771
21
-827.768472281373
31
5.999994330505
0
LINE
8
1
10
2706.223781493312
20
-827.762520203892
30
5.999994330505
11
3032.024618193771
21
-827.768472281373
31
5.999994330505
0
LINE
8
1
10
2706.223781493312
20
-827.762520203892
30
5.999994330505
11
2705.706144240503
21
-827.830667863192
31
5.999994330505
0
LINE
8
1
10
3033.024618193697
20
-853.499823559651
30
5.999994330505
11
3033.43883137424
21
-853.181986798177
31
5.999994330505
0
LINE
8
1
10
3033.43883137424
20
-853.181986798177
30
5.999994330505
11
3033.756668135715
21
-852.767773617636
31
5.999994330505
0
LINE
8
1
10
3033.756668135715
20
-852.767773617636
30
5.999994330505
11
3033.956470534398
21
-852.285410870444
31
5.999994330505
0
LINE
8
1
10
3033.956470534398
20
-852.285410870444
30
5.999994330505
11
3034.0246181937
21
-851.767773617636
31
5.999994330505
0
LINE
8
1
10
3034.024618193767
20
-829.768472281377
30
5.999994330505
11
3034.0246181937
21
-851.767773617636
31
5.999994330505
0
LINE
8
1
10
3034.024618193767
20
-829.768472281377
30
5.999994330505
11
3033.956470534466
21
-829.250835028569
31
5.999994330505
0
LINE
8
1
10
2705.706144240503
20
-827.830667863192
30
5.999994330505
11
2705.223781493311
21
-828.030470261873
31
5.999994330505
0
LINE
8
1
10
2705.223781493311
20
-828.030470261873
30
5.999994330505
11
2704.809568312769
21
-828.348307023347
31
5.999994330505
0
LINE
8
1
10
2704.809568312769
20
-828.348307023347
30
5.999994330505
11
2704.491731551293
21
-828.762520203889
31
5.999994330505
0
LINE
8
1
10
2704.491731551293
20
-828.762520203889
30
5.999994330505
11
2704.29192915261
21
-829.24488295108
31
5.999994330505
0
LINE
8
1
10
2704.29192915261
20
-829.24488295108
30
5.999994330505
11
2704.223781493307
21
-829.762520203888
31
5.999994330505
0
LINE
8
1
10
2704.224618193609
20
-851.767773617554
30
5.999994330505
11
2704.223781493307
21
-829.762520203888
31
5.999994330505
0
LINE
8
1
10
2704.224618193609
20
-851.767773617554
30
5.999994330505
11
2704.29276585291
21
-852.285410870362
31
5.999994330505
0
LINE
8
1
10
2704.29276585291
20
-852.285410870362
30
5.999994330505
11
2704.49256825159
21
-852.767773617555
31
5.999994330505
0
LINE
8
1
10
2704.49256825159
20
-852.767773617555
30
5.999994330505
11
2704.810405013064
21
-853.181986798098
31
5.999994330505
0
LINE
8
1
10
2704.810405013064
20
-853.181986798098
30
5.999994330505
11
2705.224618193606
21
-853.499823559573
31
5.999994330505
0
LINE
8
1
10
2705.224618193606
20
-853.499823559573
30
5.999994330505
11
2705.706980940798
21
-853.699625958256
31
5.999994330505
0
LINE
8
1
10
2705.706980940798
20
-853.699625958256
30
5.999994330505
11
2706.224618193605
21
-853.767773617559
31
5.999994330505
0
LINE
8
1
10
2713.724618193605
20
-853.767773617575
30
5.999994330505
11
2706.224618193605
21
-853.767773617559
31
5.999994330505
0
LINE
8
1
10
2713.724618193605
20
-853.767773617575
30
5.999994330505
11
2714.242256400087
21
-853.699625958274
31
5.999994330505
0
LINE
8
1
10
2714.242256400087
20
-853.699625958274
30
5.999994330505
11
2714.724618193606
21
-853.499823559594
31
5.999994330505
0
LINE
8
1
10
2714.724618193606
20
-853.499823559594
30
5.999994330505
11
2715.138831374148
21
-853.18198679812
31
5.999994330505
0
LINE
8
1
10
2715.138831374148
20
-853.18198679812
30
5.999994330505
11
2715.456669089298
21
-852.767773617579
31
5.999994330505
0
LINE
8
1
10
2715.456669089298
20
-852.767773617579
30
5.999994330505
11
2715.656470057469
21
-852.285410870387
31
5.999994330505
0
LINE
8
1
10
2715.656470057469
20
-852.285410870387
30
5.999994330505
11
2715.724618193609
21
-851.767773617579
31
5.999994330505
0
LINE
8
1
10
2715.724618193618
20
-847.767773617579
30
5.999994330505
11
2715.724618193609
21
-851.767773617579
31
5.999994330505
0
LINE
8
1
10
2721.124618288985
20
-847.767773617591
30
5.999994330505
11
2715.724618193618
21
-847.767773617579
31
5.999994330505
0
LINE
8
1
10
2721.124618289008
20
-836.767773617591
30
5.999994330505
11
2721.124618288985
21
-847.767773617591
31
5.999994330505
0
LINE
8
1
10
2719.624618289009
20
-836.767773617588
30
5.999994330505
11
2721.124618289008
21
-836.767773617591
31
5.999994330505
0
LINE
8
1
10
2719.624618289015
20
-833.767773617588
30
5.999994330505
11
2719.624618289009
21
-836.767773617588
31
5.999994330505
0
LINE
8
1
10
2721.124618289015
20
-833.767773617591
30
5.999994330505
11
2719.624618289015
21
-833.767773617588
31
5.999994330505
0
LINE
8
1
10
2721.124618289017
20
-832.767773617591
30
5.999994330505
11
2721.124618289015
21
-833.767773617591
31
5.999994330505
0
LINE
8
1
10
2725.324618098282
20
-832.7677736176
30
5.999994330505
11
2721.124618289017
21
-832.767773617591
31
5.999994330505
0
LINE
8
1
10
2725.324618098281
20
-833.7677736176
30
5.999994330505
11
2725.324618098282
21
-832.7677736176
31
5.999994330505
0
LINE
8
1
10
2726.82461809828
20
-833.767773617603
30
5.999994330505
11
2725.324618098281
21
-833.7677736176
31
5.999994330505
0
LINE
8
1
10
2726.824618098274
20
-836.767773617603
30
5.999994330505
11
2726.82461809828
21
-833.767773617603
31
5.999994330505
0
LINE
8
1
10
2725.324618098274
20
-836.7677736176
30
5.999994330505
11
2726.824618098274
21
-836.767773617603
31
5.999994330505
0
LINE
8
1
10
2725.32461809825
20
-847.7677736176
30
5.999994330505
11
2725.324618098274
21
-836.7677736176
31
5.999994330505
0
LINE
8
1
10
2730.724618193618
20
-847.767773617612
30
5.999994330505
11
2725.32461809825
21
-847.7677736176
31
5.999994330505
0
LINE
8
1
10
2730.724618193609
20
-851.767773617612
30
5.999994330505
11
2730.724618193618
21
-847.767773617612
31
5.999994330505
0
LINE
8
1
10
2730.724618193609
20
-851.767773617612
30
5.999994330505
11
2730.792766329747
21
-852.285410870419
31
5.999994330505
0
LINE
8
1
10
2730.792766329747
20
-852.285410870419
30
5.999994330505
11
2730.992567297916
21
-852.767773617612
31
5.999994330505
0
LINE
8
1
10
2730.992567297916
20
-852.767773617612
30
5.999994330505
11
2731.310405013064
21
-853.181986798155
31
5.999994330505
0
LINE
8
1
10
2731.310405013064
20
-853.181986798155
30
5.999994330505
11
2731.724618193605
21
-853.49982355963
31
5.999994330505
0
LINE
8
1
10
2731.724618193605
20
-853.49982355963
30
5.999994330505
11
2732.206979987123
21
-853.699625958313
31
5.999994330505
0
LINE
8
1
10
2732.206979987123
20
-853.699625958313
30
5.999994330505
11
2732.724618193605
21
-853.767773617616
31
5.999994330505
0
LINE
8
1
10
2740.224618193605
20
-853.767773617632
30
5.999994330505
11
2732.724618193605
21
-853.767773617616
31
5.999994330505
0
LINE
8
1
10
2740.224618193605
20
-853.767773617632
30
5.999994330505
11
2740.742255446412
21
-853.699625958331
31
5.999994330505
0
LINE
8
1
10
2740.742255446412
20
-853.699625958331
30
5.999994330505
11
2741.224618193605
21
-853.499823559651
31
5.999994330505
0
LINE
8
1
10
2741.224618193605
20
-853.499823559651
30
5.999994330505
11
2741.638831374148
21
-853.181986798177
31
5.999994330505
0
LINE
8
1
10
2741.638831374148
20
-853.181986798177
30
5.999994330505
11
2741.956668135623
21
-852.767773617636
31
5.999994330505
0
LINE
8
1
10
2741.956668135623
20
-852.767773617636
30
5.999994330505
11
2742.156470534306
21
-852.285410870443
31
5.999994330505
0
LINE
8
1
10
2742.156470534306
20
-852.285410870443
30
5.999994330505
11
2742.224618193609
21
-851.767773617636
31
5.999994330505
0
LINE
8
1
10
2742.224618193618
20
-847.767773617579
30
5.999994330505
11
2742.224618193609
21
-851.767773617636
31
5.999994330505
0
LINE
8
1
10
2742.224618193618
20
-847.767773617579
30
5.999994330505
11
2996.024618193701
21
-847.76777361758
31
5.999994330505
0
LINE
8
1
10
2996.0246181937
20
-851.767773617555
30
5.999994330505
11
2996.024618193701
21
-847.76777361758
31
5.999994330505
0
LINE
8
1
10
2996.0246181937
20
-851.767773617555
30
5.999994330505
11
2996.092765853001
21
-852.285410870363
31
5.999994330505
0
LINE
8
1
10
2996.092765853001
20
-852.285410870363
30
5.999994330505
11
2996.292568251682
21
-852.767773617556
31
5.999994330505
0
LINE
8
1
10
2996.292568251682
20
-852.767773617556
30
5.999994330505
11
2996.610405013155
21
-853.181986798098
31
5.999994330505
0
LINE
8
1
10
2996.610405013155
20
-853.181986798098
30
5.999994330505
11
2997.024618193696
21
-853.499823559574
31
5.999994330505
0
LINE
8
1
10
2997.024618193696
20
-853.499823559574
30
5.999994330505
11
2997.506980940889
21
-853.699625958256
31
5.999994330505
0
LINE
8
1
10
2997.506980940889
20
-853.699625958256
30
5.999994330505
11
2998.024618193696
21
-853.767773617559
31
5.999994330505
0
LINE
8
1
10
3005.524618193696
20
-853.767773617575
30
5.999994330505
11
2998.024618193696
21
-853.767773617559
31
5.999994330505
0
LINE
8
1
10
3005.524618193696
20
-853.767773617575
30
5.999994330505
11
3006.042256400178
21
-853.699625958275
31
5.999994330505
0
LINE
8
1
10
3006.042256400178
20
-853.699625958275
30
5.999994330505
11
3006.524618193696
21
-853.499823559594
31
5.999994330505
0
LINE
8
1
10
3006.524618193696
20
-853.499823559594
30
5.999994330505
11
3006.938831374239
21
-853.18198679812
31
5.999994330505
0
LINE
8
1
10
3006.938831374239
20
-853.18198679812
30
5.999994330505
11
3007.256669089389
21
-852.767773617579
31
5.999994330505
0
LINE
8
1
10
3007.256669089389
20
-852.767773617579
30
5.999994330505
11
3007.456470057561
21
-852.285410870387
31
5.999994330505
0
LINE
8
1
10
3007.456470057561
20
-852.285410870387
30
5.999994330505
11
3007.5246181937
21
-851.76777361758
31
5.999994330505
0
LINE
8
1
10
3007.524618193709
20
-847.76777361758
30
5.999994330505
11
3007.5246181937
21
-851.76777361758
31
5.999994330505
0
LINE
8
1
10
3012.924618289076
20
-847.767773617591
30
5.999994330505
11
3007.524618193709
21
-847.76777361758
31
5.999994330505
0
LINE
8
1
10
3012.9246182891
20
-836.767773617591
30
5.999994330505
11
3012.924618289076
21
-847.767773617591
31
5.999994330505
0
LINE
8
1
10
3011.4246182891
20
-836.767773617588
30
5.999994330505
11
3012.9246182891
21
-836.767773617591
31
5.999994330505
0
LINE
8
1
10
3011.424618289106
20
-833.767773617588
30
5.999994330505
11
3011.4246182891
21
-836.767773617588
31
5.999994330505
0
LINE
8
1
10
3012.924618289107
20
-833.767773617591
30
5.999994330505
11
3011.424618289106
21
-833.767773617588
31
5.999994330505
0
LINE
8
1
10
3012.924618289109
20
-832.767773617591
30
5.999994330505
11
3012.924618289107
21
-833.767773617591
31
5.999994330505
0
LINE
8
1
10
3017.124618098372
20
-833.7677736176
30
5.999994330505
11
3017.124618098374
21
-832.7677736176
31
5.999994330505
0
LINE
8
1
10
3018.624618098371
20
-833.767773617603
30
5.999994330505
11
3017.124618098372
21
-833.7677736176
31
5.999994330505
0
LINE
8
1
10
2983.424618289103
20
-835.298457969891
30
5.999994330504
11
2983.475735238246
21
-834.910228600535
31
5.999994330504
0
LINE
8
1
10
2983.475735238246
20
-834.910228600535
30
5.999994330504
11
2983.625576552229
21
-834.548457972885
31
5.999994330504
0
LINE
8
1
10
2983.625576552229
20
-834.548457972885
30
5.999994330504
11
2983.863964618381
21
-834.237796660518
31
5.999994330504
0
LINE
8
1
10
2984.174618308456
20
-833.999420047715
30
5.999994330505
11
2984.53638894057
21
-833.849571115116
31
5.999994330504
0
LINE
8
1
10
2984.53638894057
20
-833.849571115116
30
5.999994330504
11
2984.924618311449
21
-833.798457992238
31
5.999994330505
0
LINE
8
1
10
2984.924618311449
20
-833.798457992238
30
5.999994330505
11
2989.924618311449
21
-833.798458066725
31
5.999994330504
0
LINE
8
1
10
2990.312847680805
20
-833.849571201171
30
5.999994330504
11
2990.674618308456
21
-833.999420144549
31
5.999994330504
0
LINE
8
1
10
2990.674618308456
20
-833.999420144549
30
5.999994330504
11
2990.985271991427
21
-834.237796766608
31
5.999994330505
0
LINE
8
1
10
2990.985271991427
20
-834.237796766608
30
5.999994330505
11
2991.223660048322
21
-834.548458086078
31
5.999994330505
0
LINE
8
1
10
2991.223660048322
20
-834.548458086078
30
5.999994330505
11
2991.373501351527
21
-834.910228718193
31
5.999994330505
0
LINE
8
1
10
2991.424618289103
20
-835.298458089072
30
5.999994330505
11
2991.37350133996
21
-835.686687458427
31
5.999994330505
0
LINE
8
1
10
2991.37350133996
20
-835.686687458427
30
5.999994330505
11
2991.223660025977
21
-836.048458086079
31
5.999994330505
0
LINE
8
1
10
2991.223660025977
20
-836.048458086079
30
5.999994330505
11
2990.985271959825
21
-836.359119398445
31
5.999994330505
0
LINE
8
1
10
2990.985271959825
20
-836.359119398445
30
5.999994330505
11
2990.674618269751
21
-836.597496011248
31
5.999994330504
0
LINE
8
1
10
2990.674618269751
20
-836.597496011248
30
5.999994330504
11
2990.312847637636
21
-836.747344943847
31
5.999994330504
0
LINE
8
1
10
2990.312847637636
20
-836.747344943847
30
5.999994330504
11
2989.924618266757
21
-836.798458066725
31
5.999994330504
0
LINE
8
1
10
2989.924618266757
20
-836.798458066725
30
5.999994330504
11
2984.924618266757
21
-836.798457992238
31
5.999994330505
0
LINE
8
1
10
2984.924618266757
20
-836.798457992238
30
5.999994330505
11
2984.536388897401
21
-836.747344857792
31
5.999994330504
0
LINE
8
1
10
2984.536388897401
20
-836.747344857792
30
5.999994330504
11
2984.174618269751
21
-836.597495914414
31
5.999994330505
0
LINE
8
1
10
2984.174618269751
20
-836.597495914414
30
5.999994330505
11
2983.863964586778
21
-836.359119292355
31
5.999994330504
0
LINE
8
1
10
2983.863964586778
20
-836.359119292355
30
5.999994330504
11
2983.625576529883
21
-836.048457972885
31
5.999994330504
0
LINE
8
1
10
2983.625576529883
20
-836.048457972885
30
5.999994330504
11
2983.475735226679
21
-835.68668734077
31
5.999994330504
0
LINE
8
1
10
2983.475735226679
20
-835.68668734077
30
5.999994330504
11
2983.424618289103
21
-835.298457969891
31
5.999994330504
0
LINE
8
1
10
2873.073501256114
20
-834.910228718193
30
5.999994330505
11
2873.12461819369
21
-835.298458089072
31
5.999994330505
0
LINE
8
1
10
2873.12461819369
20
-835.298458089072
30
5.999994330505
11
2873.073501244547
21
-835.686687458427
31
5.999994330505
0
LINE
8
1
10
2873.073501244547
20
-835.686687458427
30
5.999994330505
11
2872.923659930564
21
-836.048458086079
31
5.999994330505
0
LINE
8
1
10
2872.923659930564
20
-836.048458086079
30
5.999994330505
11
2872.685271864412
21
-836.359119398445
31
5.999994330505
0
LINE
8
1
10
2872.685271864412
20
-836.359119398445
30
5.999994330505
11
2872.374618174338
21
-836.597496011248
31
5.999994330504
0
LINE
8
1
10
2872.374618174338
20
-836.597496011248
30
5.999994330504
11
2872.012847542223
21
-836.747344943847
31
5.999994330504
0
LINE
8
1
10
2872.012847542223
20
-836.747344943847
30
5.999994330504
11
2871.624618171344
21
-836.798458066725
31
5.999994330504
0
LINE
8
1
10
2871.624618171344
20
-836.798458066725
30
5.999994330504
11
2866.624618171344
21
-836.798457992238
31
5.999994330505
0
LINE
8
1
10
2866.624618171344
20
-836.798457992238
30
5.999994330505
11
2866.236388801988
21
-836.747344857792
31
5.999994330504
0
LINE
8
1
10
2865.563964491365
20
-836.359119292355
30
5.999994330504
11
2865.32557643447
21
-836.048457972885
31
5.999994330504
0
LINE
8
1
10
2865.32557643447
20
-836.048457972885
30
5.999994330504
11
2865.175735131266
21
-835.68668734077
31
5.999994330504
0
LINE
8
1
10
2865.12461819369
20
-835.298457969891
30
5.999994330504
11
2865.175735142833
21
-834.910228600535
31
5.999994330504
0
LINE
8
1
10
2865.175735142833
20
-834.910228600535
30
5.999994330504
11
2865.325576456816
21
-834.548457972885
31
5.999994330504
0
LINE
8
1
10
2865.325576456816
20
-834.548457972885
30
5.999994330504
11
2865.563964522968
21
-834.237796660518
31
5.999994330504
0
LINE
8
1
10
2865.563964522968
20
-834.237796660518
30
5.999994330504
11
2865.874618213043
21
-833.999420047715
31
5.999994330505
0
LINE
8
1
10
2865.874618213043
20
-833.999420047715
30
5.999994330505
11
2866.236388845157
21
-833.849571115116
31
5.999994330504
0
LINE
8
1
10
2866.236388845157
20
-833.849571115116
30
5.999994330504
11
2866.624618216036
21
-833.798457992238
31
5.999994330505
0
LINE
8
1
10
2866.624618216036
20
-833.798457992238
30
5.999994330505
11
2871.624618216036
21
-833.798458066725
31
5.999994330504
0
LINE
8
1
10
2871.624618216036
20
-833.798458066725
30
5.999994330504
11
2872.012847585392
21
-833.849571201171
31
5.999994330504
0
LINE
8
1
10
2872.012847585392
20
-833.849571201171
30
5.999994330504
11
2872.374618213043
21
-833.999420144549
31
5.999994330504
0
LINE
8
1
10
2872.374618213043
20
-833.999420144549
30
5.999994330504
11
2872.685271896014
21
-834.237796766608
31
5.999994330505
0
LINE
8
1
10
2872.685271896014
20
-834.237796766608
30
5.999994330505
11
2872.923659952909
21
-834.548458086078
31
5.999994330505
0
LINE
8
1
10
2872.923659952909
20
-834.548458086078
30
5.999994330505
11
2873.073501256114
21
-834.910228718193
31
5.999994330505
0
LINE
8
1
10
2754.773501160701
20
-834.910228718193
30
5.999994330505
11
2754.824618098276
21
-835.298458089072
31
5.999994330505
0
LINE
8
1
10
2754.824618098276
20
-835.298458089072
30
5.999994330505
11
2754.773501149134
21
-835.686687458427
31
5.999994330505
0
LINE
8
1
10
2754.773501149134
20
-835.686687458427
30
5.999994330505
11
2754.623659835151
21
-836.048458086078
31
5.999994330505
0
LINE
8
1
10
2754.623659835151
20
-836.048458086078
30
5.999994330505
11
2754.385271768999
21
-836.359119398444
31
5.999994330505
0
LINE
8
1
10
2754.385271768999
20
-836.359119398444
30
5.999994330505
11
2754.074618078925
21
-836.597496011248
31
5.999994330505
0
LINE
8
1
10
2754.074618078925
20
-836.597496011248
30
5.999994330505
11
2753.71284744681
21
-836.747344943847
31
5.999994330505
0
LINE
8
1
10
2753.71284744681
20
-836.747344943847
30
5.999994330505
11
2753.324618075931
21
-836.798458066725
31
5.999994330505
0
LINE
8
1
10
2753.324618075931
20
-836.798458066725
30
5.999994330505
11
2748.324618075931
21
-836.798457992238
31
5.999994330505
0
LINE
8
1
10
2748.324618075931
20
-836.798457992238
30
5.999994330505
11
2747.936388706575
21
-836.747344857792
31
5.999994330505
0
LINE
8
1
10
2747.936388706575
20
-836.747344857792
30
5.999994330505
11
2747.574618078925
21
-836.597495914414
31
5.999994330505
0
LINE
8
1
10
2747.574618078925
20
-836.597495914414
30
5.999994330505
11
2747.263964395952
21
-836.359119292354
31
5.999994330505
0
LINE
8
1
10
2747.263964395952
20
-836.359119292354
30
5.999994330505
11
2747.025576339057
21
-836.048457972885
31
5.999994330505
0
LINE
8
1
10
2747.025576339057
20
-836.048457972885
30
5.999994330505
11
2746.875735035853
21
-835.68668734077
31
5.999994330505
0
LINE
8
1
10
2746.875735035853
20
-835.68668734077
30
5.999994330505
11
2746.824618098277
21
-835.298457969891
31
5.999994330505
0
LINE
8
1
10
2746.87573504742
20
-834.910228600535
30
5.999994330505
11
2747.025576361403
21
-834.548457972885
31
5.999994330505
0
LINE
8
1
10
2747.025576361403
20
-834.548457972885
30
5.999994330505
11
2747.263964427555
21
-834.237796660518
31
5.999994330505
0
LINE
8
1
10
2747.263964427555
20
-834.237796660518
30
5.999994330505
11
2747.57461811763
21
-833.999420047715
31
5.999994330505
0
LINE
8
1
10
2747.57461811763
20
-833.999420047715
30
5.999994330505
11
2747.936388749744
21
-833.849571115116
31
5.999994330505
0
LINE
8
1
10
2747.936388749744
20
-833.849571115116
30
5.999994330505
11
2748.324618120623
21
-833.798457992238
31
5.999994330505
0
LINE
8
1
10
2748.324618120623
20
-833.798457992238
30
5.999994330505
11
2753.324618120623
21
-833.798458066725
31
5.999994330505
0
LINE
8
1
10
2753.324618120623
20
-833.798458066725
30
5.999994330505
11
2753.712847489979
21
-833.849571201171
31
5.999994330505
0
LINE
8
1
10
2753.712847489979
20
-833.849571201171
30
5.999994330505
11
2754.07461811763
21
-833.999420144549
31
5.999994330505
0
LINE
8
1
10
2754.07461811763
20
-833.999420144549
30
5.999994330505
11
2754.385271800601
21
-834.237796766608
31
5.999994330505
0
LINE
8
1
10
2754.385271800601
20
-834.237796766608
30
5.999994330505
11
2754.623659857496
21
-834.548458086078
31
5.999994330505
0
LINE
8
1
10
2754.623659857496
20
-834.548458086078
30
5.999994330505
11
2754.773501160701
21
-834.910228718193
31
5.999994330505
0
LINE
8
2
10
3120.491731551405
20
-403.699979786425
30
6.00000069208
11
3120.491731551389
21
-411.199979786425
31
6.00000069208
0
LINE
8
2
10
3120.22378721547
20
-402.699979786425
30
6.00000069208
11
3119.905946639299
21
-402.285766605882
31
6.00000069208
0
LINE
8
2
10
3119.905946639299
20
-402.285766605882
30
6.00000069208
11
3119.491731551409
21
-401.967929844407
31
6.00000069208
0
LINE
8
2
10
3119.009370711565
20
-401.768127445724
30
6.00000069208
11
3118.491731551409
21
-401.699979786421
31
6.00000069208
0
LINE
8
2
10
3023.726371152254
20
-421.547745704638
30
6.00000069208
11
3023.491738016985
21
-421.432037447184
31
6.00000069208
0
LINE
8
2
10
3024.230685632544
20
-421.682876362364
30
6.00000069208
11
3023.974099926779
21
-421.631838292194
31
6.00000069208
0
LINE
8
2
10
3023.491738016985
20
-421.432037447184
30
6.00000069208
11
3023.274215158968
21
-421.286693320197
31
6.00000069208
0
LINE
8
2
10
3119.009370711509
20
-428.268127922561
30
6.00000069208
11
3118.491731551352
21
-428.199979786421
31
6.00000069208
0
LINE
8
2
10
3066.709260577094
20
-421.28669332029
30
6.00000069208
11
3066.491737719076
21
-421.432037447276
31
6.00000069208
0
LINE
8
2
10
3067.491737719119
20
-401.699979786312
30
6.00000069208
11
3118.491731551409
21
-401.699979786421
31
6.00000069208
0
LINE
8
2
10
3066.009375809281
20
-421.631838292284
30
6.00000069208
11
3065.752790103516
21
-421.682876362453
31
6.00000069208
0
LINE
8
2
10
3022.905031336403
20
-420.917509497631
30
6.00000069208
11
3022.759687209417
21
-420.699986639614
31
6.00000069208
0
LINE
8
2
10
2704.491731551364
20
-422.799979690168
30
6.00000069208
11
2715.491731551364
21
-422.799979690191
31
6.00000069208
0
LINE
8
2
10
2715.491731551364
20
-422.799979690191
30
6.00000069208
11
2715.491731551361
21
-424.299979690191
31
6.00000069208
0
LINE
8
2
10
2901.991731551409
20
-401.699979785958
30
6.00000069208
11
2907.391731646777
21
-401.699979785969
31
6.00000069208
0
LINE
8
2
10
2704.491731551353
20
-428.199979785535
30
6.00000069208
11
2704.491731551364
21
-422.799979690168
31
6.00000069208
0
LINE
8
2
10
2718.491731551361
20
-424.299979690197
30
6.00000069208
11
2718.491731551364
21
-422.799979690197
31
6.00000069208
0
LINE
8
2
10
3065.752790103516
20
-421.682876362453
30
6.00000069208
11
3065.491737719076
21
-421.699986639705
31
6.00000069208
0
LINE
8
2
10
2907.391731646777
20
-401.699979785969
30
6.00000069208
11
2907.391731646753
21
-412.699979785969
31
6.00000069208
0
LINE
8
2
10
3066.491737719076
20
-421.432037447276
30
6.00000069208
11
3066.257104583806
21
-421.54774570473
31
6.00000069208
0
LINE
8
2
10
2700.491731551409
20
-401.699979785526
30
6.00000069208
11
2890.491731551409
21
-401.699979785933
31
6.00000069208
0
LINE
8
2
10
2700.491731551353
20
-428.199979785526
30
6.00000069208
11
2704.491731551353
21
-428.199979785535
31
6.00000069208
0
LINE
8
2
10
2718.491731551376
20
-417.099979880932
30
6.00000069208
11
2715.491731551376
21
-417.099979880926
31
6.00000069208
0
LINE
8
2
10
2905.891731646747
20
-415.699979785966
30
6.00000069208
11
2907.391731646747
21
-415.699979785969
31
6.00000069208
0
LINE
8
2
10
2698.491731551332
20
-437.699979785522
30
6.00000069208
11
2698.491731551348
21
-430.199979785522
31
6.00000069208
0
LINE
8
2
10
3024.491738016985
20
-421.699986639617
30
6.00000069208
11
3024.230685632544
21
-421.682876362364
31
6.00000069208
0
LINE
8
2
10
2907.391731646753
20
-412.699979785969
30
6.00000069208
11
2905.891731646753
21
-412.699979785966
31
6.00000069208
0
LINE
8
2
10
2715.491731551361
20
-424.299979690191
30
6.00000069208
11
2718.491731551361
21
-424.299979690197
31
6.00000069208
0
LINE
8
2
10
3119.491731551409
20
-401.967929844407
30
6.00000069208
11
3119.009370711565
21
-401.768127445724
31
6.00000069208
0
LINE
8
2
10
3067.491737719119
20
-401.699979786312
30
6.00000069208
11
3067.49173771908
21
-419.699986639709
31
6.00000069208
0
LINE
8
2
10
2718.491731551373
20
-418.599979880932
30
6.00000069208
11
2718.491731551376
21
-417.099979880932
31
6.00000069208
0
LINE
8
2
10
2907.391731646747
20
-415.699979785969
30
6.00000069208
11
2907.391731646745
21
-416.699979785969
31
6.00000069208
0
LINE
8
2
10
2907.391731646745
20
-416.699979785969
30
6.00000069208
11
2911.59173145601
21
-416.699979785978
31
6.00000069208
0
LINE
8
2
10
2715.491731551373
20
-418.599979880926
30
6.00000069208
11
2704.491731551374
21
-418.599979880902
31
6.00000069208
0
LINE
8
2
10
3067.474627441827
20
-419.961039024149
30
6.00000069208
11
3067.423589371657
21
-420.217624729914
31
6.00000069208
0
LINE
8
2
10
3067.423589371657
20
-420.217624729914
30
6.00000069208
11
3067.339496784101
21
-420.465353504439
31
6.00000069208
0
LINE
8
2
10
3067.07844439966
20
-420.917509497726
30
6.00000069208
11
3066.90595128145
21
-421.114200202081
31
6.00000069208
0
LINE
8
2
10
3066.90595128145
20
-421.114200202081
30
6.00000069208
11
3066.709260577094
21
-421.28669332029
31
6.00000069208
0
LINE
8
2
10
3023.974099926779
20
-421.631838292194
30
6.00000069208
11
3023.726371152254
21
-421.547745704638
31
6.00000069208
0
LINE
8
2
10
3022.508848294241
20
-419.961039024053
30
6.00000069208
11
3022.491738016989
21
-419.699986639613
31
6.00000069208
0
LINE
8
2
10
2928.491731551409
20
-401.699979786014
30
6.00000069208
11
3022.491738017027
21
-401.699979786216
31
6.00000069208
0
LINE
8
2
10
2928.491731551418
20
-397.699979786014
30
6.00000069208
11
2928.491731551409
21
-401.699979786014
31
6.00000069208
0
LINE
8
2
10
2927.491731551422
20
-395.967929843996
30
6.00000069208
11
2927.009368804229
21
-395.768127445313
31
6.00000069208
0
LINE
8
2
10
2918.991731551422
20
-395.699979785994
30
6.00000069208
11
2926.491731551422
21
-395.69997978601
31
6.00000069208
0
LINE
8
2
10
2918.991731551422
20
-395.699979785994
30
6.00000069208
11
2918.47409334494
21
-395.768127445295
31
6.00000069208
0
LINE
8
2
10
2918.47409334494
20
-395.768127445295
30
6.00000069208
11
2917.991731551422
21
-395.967929843975
31
6.00000069208
0
LINE
8
2
10
2917.991731551422
20
-395.967929843975
30
6.00000069208
11
2917.577518370879
21
-396.285766605449
31
6.00000069208
0
LINE
8
2
10
2911.591731456018
20
-412.699979785978
30
6.00000069208
11
2911.591731456042
21
-401.699979785978
31
6.00000069208
0
LINE
8
2
10
2913.091731456018
20
-412.699979785981
30
6.00000069208
11
2911.591731456018
21
-412.699979785978
31
6.00000069208
0
LINE
8
2
10
2913.091731456012
20
-415.699979785982
30
6.00000069208
11
2913.091731456018
21
-412.699979785981
31
6.00000069208
0
LINE
8
2
10
2911.591731456012
20
-415.699979785978
30
6.00000069208
11
2913.091731456012
21
-415.699979785982
31
6.00000069208
0
LINE
8
2
10
2905.891731646753
20
-412.699979785966
30
6.00000069208
11
2905.891731646747
21
-415.699979785966
31
6.00000069208
0
LINE
8
2
10
2901.991731551418
20
-397.699979785958
30
6.00000069208
11
2901.991731551409
21
-401.699979785958
31
6.00000069208
0
LINE
8
2
10
2901.723782447111
20
-396.699979785957
30
6.00000069208
11
2901.405944731963
21
-396.285766605414
31
6.00000069208
0
LINE
8
2
10
2892.491731551422
20
-395.699979785937
30
6.00000069208
11
2899.991731551422
21
-395.699979785953
31
6.00000069208
0
LINE
8
2
10
2892.491731551422
20
-395.699979785937
30
6.00000069208
11
2891.974094298615
21
-395.768127445238
31
6.00000069208
0
LINE
8
2
10
2890.491731551409
20
-401.699979785933
30
6.00000069208
11
2890.491731551418
21
-397.699979785933
31
6.00000069208
0
LINE
8
2
10
2700.491731551409
20
-401.699979785526
30
6.00000069208
11
2699.974092391253
21
-401.768127444827
31
6.00000069208
0
LINE
8
2
10
2699.974092391253
20
-401.768127444827
30
6.00000069208
11
2699.491731551409
21
-401.967929843508
31
6.00000069208
0
LINE
8
2
10
2699.491731551409
20
-401.967929843508
30
6.00000069208
11
2699.077516463517
21
-402.285766604981
31
6.00000069208
0
LINE
8
2
10
2698.491731551389
20
-411.199979785522
30
6.00000069208
11
2698.491731551405
21
-403.699979785522
31
6.00000069208
0
LINE
8
2
10
2698.759675887325
20
-412.199979785523
30
6.00000069208
11
2699.077516463496
21
-412.614192966065
31
6.00000069208
0
LINE
8
2
10
2699.491731551385
20
-412.932030681215
30
6.00000069208
11
2699.974092391229
21
-413.131831649386
31
6.00000069208
0
LINE
8
2
10
2704.491731551385
20
-413.199979785535
30
6.00000069208
11
2700.491731551385
21
-413.199979785526
31
6.00000069208
0
LINE
8
2
10
2704.491731551374
20
-418.599979880902
30
6.00000069208
11
2704.491731551385
21
-413.199979785535
31
6.00000069208
0
LINE
8
2
10
2715.491731551376
20
-417.099979880926
30
6.00000069208
11
2715.491731551373
21
-418.599979880926
31
6.00000069208
0
LINE
8
2
10
2719.491731551374
20
-418.599979880934
30
6.00000069208
11
2718.491731551373
21
-418.599979880932
31
6.00000069208
0
LINE
8
2
10
2719.491731551364
20
-422.7999796902
30
6.00000069208
11
2719.491731551374
21
-418.599979880934
31
6.00000069208
0
LINE
8
2
10
2718.491731551364
20
-422.799979690197
30
6.00000069208
11
2719.491731551364
21
-422.7999796902
31
6.00000069208
0
LINE
8
2
10
2698.491731551332
20
-437.699979785522
30
6.00000069208
11
2698.559877303284
21
-438.21761703833
31
6.00000069208
0
LINE
8
2
10
2698.759675887268
20
-438.699979785522
30
6.00000069208
11
2699.077516463439
21
-439.114192966065
31
6.00000069208
0
LINE
8
2
10
2704.491731551328
20
-439.699979785535
30
6.00000069208
11
2700.491731551328
21
-439.699979785526
31
6.00000069208
0
LINE
8
2
10
2704.491731551315
20
-445.699979785535
30
6.00000069208
11
2704.491731551328
21
-439.699979785535
31
6.00000069208
0
LINE
8
2
10
3114.491731551315
20
-445.699979786413
30
6.00000069208
11
2704.491731551315
21
-445.699979785535
31
6.00000069208
0
LINE
8
2
10
3114.491731551328
20
-439.699979786413
30
6.00000069208
11
3114.491731551315
21
-445.699979786413
31
6.00000069208
0
LINE
8
2
10
3118.491731551328
20
-439.699979786421
30
6.00000069208
11
3114.491731551328
21
-439.699979786413
31
6.00000069208
0
LINE
8
2
10
3119.009370711484
20
-439.631832127121
30
6.00000069208
11
3119.491731551328
21
-439.43202972844
31
6.00000069208
0
LINE
8
2
10
3120.491731551348
20
-430.199979786425
30
6.00000069208
11
3120.491731551332
21
-437.699979786425
31
6.00000069208
0
LINE
8
2
10
3120.491731551348
20
-430.199979786425
30
6.00000069208
11
3120.423585799396
21
-429.682341579943
31
6.00000069208
0
LINE
8
2
10
3120.223787215413
20
-429.199979786425
30
6.00000069208
11
3119.905946639242
21
-428.785766605882
31
6.00000069208
0
LINE
8
2
10
3114.491731551353
20
-428.199979786413
30
6.00000069208
11
3118.491731551352
21
-428.199979786421
31
6.00000069208
0
LINE
8
2
10
3114.491731551364
20
-422.799979691045
30
6.00000069208
11
3114.491731551353
21
-428.199979786413
31
6.00000069208
0
LINE
8
2
10
3103.491731551364
20
-422.799979691022
30
6.00000069208
11
3114.491731551364
21
-422.799979691045
31
6.00000069208
0
LINE
8
2
10
3103.491731551361
20
-424.299979691022
30
6.00000069208
11
3103.491731551364
21
-422.799979691022
31
6.00000069208
0
LINE
8
2
10
3100.491731551361
20
-424.299979691015
30
6.00000069208
11
3103.491731551361
21
-424.299979691022
31
6.00000069208
0
LINE
8
2
10
3100.491731551364
20
-422.799979691015
30
6.00000069208
11
3100.491731551361
21
-424.299979691015
31
6.00000069208
0
LINE
8
2
10
3099.491731551364
20
-422.799979691013
30
6.00000069208
11
3100.491731551364
21
-422.799979691015
31
6.00000069208
0
LINE
8
2
10
3099.491731551373
20
-418.599979881748
30
6.00000069208
11
3099.491731551364
21
-422.799979691013
31
6.00000069208
0
LINE
8
2
10
3100.491731551373
20
-418.59997988175
30
6.00000069208
11
3099.491731551373
21
-418.599979881748
31
6.00000069208
0
LINE
8
2
10
3100.491731551377
20
-417.09997988175
30
6.00000069208
11
3100.491731551373
21
-418.59997988175
31
6.00000069208
0
LINE
8
2
10
3103.491731551377
20
-417.099979881756
30
6.00000069208
11
3100.491731551377
21
-417.09997988175
31
6.00000069208
0
LINE
8
2
10
3103.491731551374
20
-418.599979881756
30
6.00000069208
11
3103.491731551377
21
-417.099979881756
31
6.00000069208
0
LINE
8
2
10
3114.491731551385
20
-413.199979786413
30
6.00000069208
11
3114.491731551374
21
-418.59997988178
31
6.00000069208
0
LINE
8
2
10
3118.491731551385
20
-413.199979786421
30
6.00000069208
11
3114.491731551385
21
-413.199979786413
31
6.00000069208
0
LINE
8
2
10
3119.905946639276
20
-412.614192966966
30
6.00000069208
11
3120.223787215449
21
-412.199979786425
31
6.00000069208
0
LINE
8
2
10
3120.423585799435
20
-411.717617992907
30
6.00000069208
11
3120.491731551389
21
-411.199979786425
31
6.00000069208
0
LINE
8
2
10
3120.491731551405
20
-403.699979786425
30
6.00000069208
11
3120.423585799453
21
-403.182342533617
31
6.00000069208
0
LINE
8
2
10
2917.059879687558
20
-397.182342533182
30
6.00000069208
11
2916.991731551418
21
-397.69997978599
31
6.00000069208
0
LINE
8
2
10
3119.491731551328
20
-439.43202972844
30
6.00000069208
11
3119.90594663922
21
-439.114192966966
31
6.00000069208
0
LINE
8
2
10
3114.491731551374
20
-418.59997988178
30
6.00000069208
11
3103.491731551374
21
-418.599979881756
31
6.00000069208
0
LINE
8
2
10
3120.223787215393
20
-438.699979786425
30
6.00000069208
11
3120.423585799378
21
-438.217617039233
31
6.00000069208
0
LINE
8
2
10
3120.423585799378
20
-438.217617039233
30
6.00000069208
11
3120.491731551332
21
-437.699979786425
31
6.00000069208
0
LINE
8
2
10
2699.974092391172
20
-439.631832126223
30
6.00000069208
11
2700.491731551328
21
-439.699979785526
31
6.00000069208
0
LINE
8
2
10
2698.759675887345
20
-402.699979785523
30
6.00000069208
11
2698.559877303359
21
-403.182342532714
31
6.00000069208
0
LINE
8
2
10
2928.423583892117
20
-397.182342533207
30
6.00000069208
11
2928.223781493436
21
-396.699979786014
31
6.00000069208
0
LINE
8
2
10
2699.077516463439
20
-439.114192966065
30
6.00000069208
11
2699.491731551328
21
-439.432029727541
31
6.00000069208
0
LINE
8
2
10
2900.509369757904
20
-395.768127445256
30
6.00000069208
11
2899.991731551422
21
-395.699979785953
31
6.00000069208
0
LINE
8
2
10
2916.991731551409
20
-401.69997978599
30
6.00000069208
11
2916.991731551418
21
-397.69997978599
31
6.00000069208
0
LINE
8
2
10
3023.274215158968
20
-421.286693320197
30
6.00000069208
11
3023.077524454612
21
-421.114200201988
31
6.00000069208
0
LINE
8
2
10
2699.491731551328
20
-439.432029727541
30
6.00000069208
11
2699.974092391172
21
-439.631832126223
31
6.00000069208
0
LINE
8
2
10
3066.257104583806
20
-421.54774570473
30
6.00000069208
11
3066.009375809281
21
-421.631838292284
31
6.00000069208
0
LINE
8
2
10
2891.491731551422
20
-395.967929843918
30
6.00000069208
11
2891.077518370879
21
-396.285766605392
31
6.00000069208
0
LINE
8
2
10
2698.559877303341
20
-411.717617992004
30
6.00000069208
11
2698.759675887325
21
-412.199979785523
31
6.00000069208
0
LINE
8
2
10
2699.974092391229
20
-413.131831649386
30
6.00000069208
11
2700.491731551385
21
-413.199979785526
31
6.00000069208
0
LINE
8
2
10
2698.559877303359
20
-403.182342532714
30
6.00000069208
11
2698.491731551405
21
-403.699979785522
31
6.00000069208
0
LINE
8
2
10
2901.405944731963
20
-396.285766605414
30
6.00000069208
11
2900.991731551422
21
-395.967929843939
31
6.00000069208
0
LINE
8
2
10
2699.974092391196
20
-428.268127921664
30
6.00000069208
11
2699.491731551352
21
-428.467928889833
31
6.00000069208
0
LINE
8
2
10
2911.591731456042
20
-401.699979785978
30
6.00000069208
11
2916.991731551409
21
-401.69997978599
31
6.00000069208
0
LINE
8
2
10
2699.077516463517
20
-402.285766604981
30
6.00000069208
11
2698.759675887345
21
-402.699979785523
31
6.00000069208
0
LINE
8
2
10
2698.759675887288
20
-429.199979785522
30
6.00000069208
11
2698.559877303303
21
-429.68234157904
31
6.00000069208
0
LINE
8
2
10
2890.759681609403
20
-396.699979785934
30
6.00000069208
11
2890.559879210721
21
-397.182342533125
31
6.00000069208
0
LINE
8
2
10
2928.223781493436
20
-396.699979786014
30
6.00000069208
11
2927.905944731963
21
-396.285766605471
31
6.00000069208
0
LINE
8
2
10
2698.559877303303
20
-429.68234157904
30
6.00000069208
11
2698.491731551348
21
-430.199979785522
31
6.00000069208
0
LINE
8
2
10
2698.559877303284
20
-438.21761703833
30
6.00000069208
11
2698.759675887268
21
-438.699979785522
31
6.00000069208
0
LINE
8
2
10
2917.577518370879
20
-396.285766605449
30
6.00000069208
11
2917.259680655729
21
-396.69997978599
31
6.00000069208
0
LINE
8
2
10
2890.559879210721
20
-397.182342533125
30
6.00000069208
11
2890.491731551418
21
-397.699979785933
31
6.00000069208
0
LINE
8
2
10
2917.259680655729
20
-396.69997978599
30
6.00000069208
11
2917.059879687558
21
-397.182342533182
31
6.00000069208
0
LINE
8
2
10
3118.491731551328
20
-439.699979786421
30
6.00000069208
11
3119.009370711484
21
-439.631832127121
31
6.00000069208
0
LINE
8
2
10
2901.923583415281
20
-397.18234253315
30
6.00000069208
11
2901.723782447111
21
-396.699979785957
31
6.00000069208
0
LINE
8
2
10
2928.491731551418
20
-397.699979786014
30
6.00000069208
11
2928.423583892117
21
-397.182342533207
31
6.00000069208
0
LINE
8
2
10
2698.491731551389
20
-411.199979785522
30
6.00000069208
11
2698.559877303341
21
-411.717617992004
31
6.00000069208
0
LINE
8
2
10
2911.59173145601
20
-416.699979785978
30
6.00000069208
11
2911.591731456012
21
-415.699979785978
31
6.00000069208
0
LINE
8
2
10
2927.905944731963
20
-396.285766605471
30
6.00000069208
11
2927.491731551422
21
-395.967929843996
31
6.00000069208
0
LINE
8
2
10
2699.077516463461
20
-428.785766604981
30
6.00000069208
11
2698.759675887288
21
-429.199979785522
31
6.00000069208
0
LINE
8
2
10
2891.974094298615
20
-395.768127445238
30
6.00000069208
11
2891.491731551422
21
-395.967929843918
31
6.00000069208
0
LINE
8
2
10
2891.077518370879
20
-396.285766605392
30
6.00000069208
11
2890.759681609403
21
-396.699979785934
31
6.00000069208
0
LINE
8
2
10
3022.491738016989
20
-419.699986639613
30
6.00000069208
11
3022.491738017027
21
-401.699979786216
31
6.00000069208
0
LINE
8
2
10
2927.009368804229
20
-395.768127445313
30
6.00000069208
11
2926.491731551422
21
-395.69997978601
31
6.00000069208
0
LINE
8
2
10
2699.491731551352
20
-428.467928889833
30
6.00000069208
11
2699.077516463461
21
-428.785766604981
31
6.00000069208
0
LINE
8
2
10
2699.077516463496
20
-412.614192966065
30
6.00000069208
11
2699.491731551385
21
-412.932030681215
31
6.00000069208
0
LINE
8
2
10
2901.991731551418
20
-397.699979785958
30
6.00000069208
11
2901.923583415281
21
-397.18234253315
31
6.00000069208
0
LINE
8
2
10
2900.991731551422
20
-395.967929843939
30
6.00000069208
11
2900.509369757904
21
-395.768127445256
31
6.00000069208
0
LINE
8
2
10
2700.491731551353
20
-428.199979785526
30
6.00000069208
11
2699.974092391196
21
-428.268127921664
31
6.00000069208
0
LINE
8
2
10
3119.90594663922
20
-439.114192966966
30
6.00000069208
11
3120.223787215393
21
-438.699979786425
31
6.00000069208
0
LINE
8
2
10
3067.339496784101
20
-420.465353504439
30
6.00000069208
11
3067.223788526647
21
-420.699986639709
31
6.00000069208
0
LINE
8
2
10
3120.223787215449
20
-412.199979786425
30
6.00000069208
11
3120.423585799435
21
-411.717617992907
31
6.00000069208
0
LINE
8
2
10
3022.759687209417
20
-420.699986639614
30
6.00000069208
11
3022.643978951965
21
-420.465353504343
31
6.00000069208
0
LINE
8
2
10
3119.009370711541
20
-413.131831650283
30
6.00000069208
11
3119.491731551385
21
-412.932030682114
31
6.00000069208
0
LINE
8
2
10
3023.077524454612
20
-421.114200201988
30
6.00000069208
11
3022.905031336403
21
-420.917509497631
31
6.00000069208
0
LINE
8
2
10
3067.49173771908
20
-419.699986639709
30
6.00000069208
11
3067.474627441827
21
-419.961039024149
31
6.00000069208
0
LINE
8
2
10
3067.223788526647
20
-420.699986639709
30
6.00000069208
11
3067.07844439966
21
-420.917509497726
31
6.00000069208
0
LINE
8
2
10
3065.491737719076
20
-421.699986639705
30
6.00000069208
11
3024.491738016985
21
-421.699986639617
31
6.00000069208
0
LINE
8
2
10
3119.905946639242
20
-428.785766605882
30
6.00000069208
11
3119.491731551352
21
-428.467928890732
31
6.00000069208
0
LINE
8
2
10
3118.491731551385
20
-413.199979786421
30
6.00000069208
11
3119.009370711541
21
-413.131831650283
31
6.00000069208
0
LINE
8
2
10
3022.55988636441
20
-420.217624729818
30
6.00000069208
11
3022.508848294241
21
-419.961039024053
31
6.00000069208
0
LINE
8
2
10
3119.491731551385
20
-412.932030682114
30
6.00000069208
11
3119.905946639276
21
-412.614192966966
31
6.00000069208
0
LINE
8
2
10
3120.423585799453
20
-403.182342533617
30
6.00000069208
11
3120.22378721547
21
-402.699979786425
31
6.00000069208
0
LINE
8
2
10
3022.643978951965
20
-420.465353504343
30
6.00000069208
11
3022.55988636441
21
-420.217624729818
31
6.00000069208
0
LINE
8
2
10
3120.423585799396
20
-429.682341579943
30
6.00000069208
11
3120.223787215413
21
-429.199979786425
31
6.00000069208
0
LINE
8
2
10
3119.491731551352
20
-428.467928890732
30
6.00000069208
11
3119.009370711509
21
-428.268127922561
31
6.00000069208
0
LINE
8
3
10
2698.559875331429
20
-499.21761202915
30
5.99999887669
11
2698.508837260929
21
-498.96102632345
31
5.999998886073
0
LINE
8
3
10
3119.257095070503
20
-488.352228255452
30
5.999999279978
11
3119.00936629843
21
-488.268135668004
31
5.999999278724
0
LINE
8
3
10
3119.90594142518
20
-500.114199614559
30
5.999999455248
11
3120.078434549124
21
-499.917508915233
31
5.999999452317
0
LINE
8
3
10
3114.491727871626
20
-500.699985894312
30
5.999999463977
11
3114.491728255434
21
-503.199987144984
31
5.999997957169
0
LINE
8
3
10
2698.508837249308
20
-489.938934760439
30
5.999999215986
11
2698.491726972392
21
-490.199987144887
31
5.99999920644
0
LINE
8
3
10
3120.423579819566
20
-489.682349229764
30
5.999999299798
11
3120.339487239234
21
-489.434620455275
31
5.999999296107
0
LINE
8
3
10
2699.491726970161
20
-488.467936336884
30
5.999999269777
11
2699.726360105282
21
-488.352228079329
31
5.999999274008
0
LINE
8
3
10
3119.009365937918
20
-500.631837678621
30
5.999999462961
11
3119.257094714895
21
-500.547745098289
31
5.999999461708
0
LINE
8
3
10
3119.709250715794
20
-500.286692727033
30
5.999999457818
11
3119.90594142518
21
-500.114199614559
31
5.999999455248
0
LINE
8
3
10
2698.905020290241
20
-488.98246428669
30
5.999999250962
11
2699.077513408197
21
-488.78577358226
31
5.999999258154
0
LINE
8
3
10
2699.726360105282
20
-488.352228079329
30
5.999999274008
11
2699.974088879699
21
-488.268135491666
31
5.999999277083
0
LINE
8
3
10
3120.491727904043
20
-498.699986069267
30
5.999999434174
11
3120.474617619179
21
-498.961038453208
31
5.999999438064
0
LINE
8
3
10
2915.223778395004
20
-483.199987234315
30
5.99999972028
11
2915.078434267905
21
-482.982464376316
31
5.999999739496
0
LINE
8
3
10
2914.70925044515
20
-482.613280553798
30
5.999999772108
11
2914.491727587058
21
-482.46793642684
31
5.999999784948
0
LINE
8
3
10
2904.077514024848
20
-482.785773668696
30
5.999999756919
11
2904.274204729115
21
-482.613280550462
31
5.999999772155
0
LINE
8
3
10
2903.90502090674
20
-482.982464373074
30
5.999999739545
11
2904.077514024848
21
-482.785773668696
31
5.999999756919
0
LINE
8
3
10
2903.759676779866
20
-483.19998723111
30
5.999999720332
11
2903.90502090674
21
-482.982464373074
31
5.999999739545
0
LINE
8
3
10
2903.559875935106
20
-483.68234914093
30
5.999999677724
11
2903.643968522534
21
-483.434620366394
31
5.999999699606
0
LINE
8
3
10
2903.508837865069
20
-483.938934846701
30
5.999999655059
11
2903.559875935106
21
-483.68234914093
31
5.999999677724
0
LINE
8
3
10
2915.474617310564
20
-483.938934849843
30
5.999999655006
11
2915.423579240262
21
-483.682349144085
31
5.999999677671
0
LINE
8
3
10
2915.423579240262
20
-483.682349144085
30
5.999999677671
11
2915.339486652579
21
-483.43462036957
31
5.999999699554
0
LINE
8
3
10
2915.339486652579
20
-483.43462036957
30
5.999999699554
11
2915.223778395004
21
-483.199987234315
31
5.99999972028
0
LINE
8
3
10
2915.078434267905
20
-482.982464376316
30
5.999999739496
11
2914.905941149595
21
-482.785773671983
31
5.999999756871
0
LINE
8
3
10
2914.905941149595
20
-482.785773671983
30
5.999999756871
11
2914.70925044515
21
-482.613280553798
31
5.999999772108
0
LINE
8
3
10
2914.491727587058
20
-482.46793642684
30
5.999999784948
11
2914.257094451728
21
-482.352228169416
31
5.99999979517
0
LINE
8
3
10
2914.257094451728
20
-482.352228169416
30
5.99999979517
11
2914.00936567716
21
-482.268135581892
31
5.999999802599
0
LINE
8
3
10
2914.00936567716
20
-482.268135581892
30
5.999999802599
11
2913.752779971368
21
-482.217097511755
31
5.999999807109
0
LINE
8
3
10
2913.752779971368
20
-482.217097511755
30
5.999999807109
11
2913.491727586919
21
-482.199987234536
31
5.999999808621
0
LINE
8
3
10
3118.491727845726
20
-500.699986010949
30
5.999999463977
11
3118.752780230664
21
-500.682875741308
31
5.999999463722
0
LINE
8
3
10
2699.274204112331
20
-488.613280463965
30
5.999999264462
11
2699.491726970161
21
-488.467936336884
31
5.999999269777
0
LINE
8
3
10
2915.491727590014
20
-488.199987234281
30
5.999999278615
11
2915.491727587951
21
-484.199987234281
31
5.999999631946
0
LINE
8
3
10
3120.223778988622
20
-489.199987320056
30
5.99999929261
11
3120.078434867979
21
-488.982464462101
31
5.999999289369
0
LINE
8
3
10
2700.491726985917
20
-500.699973936456
30
5.999998822484
11
2704.491726985917
21
-500.699973931304
31
5.999998822484
0
LINE
8
3
10
2699.274204127367
20
-500.286680618607
30
5.999998837597
11
2699.077513422789
21
-500.114187500651
31
5.999998843905
0
LINE
8
3
10
2904.491727587058
20
-482.467936423448
30
5.999999784992
11
2904.726360722268
21
-482.352228165964
31
5.999999795212
0
LINE
8
3
10
2903.491727587951
20
-484.199987231144
30
5.999999632
11
2903.508837865069
21
-483.938934846701
31
5.999999655059
0
LINE
8
3
10
3114.491728255434
20
-503.199987144984
30
5.999997957169
11
2704.491726989137
21
-503.199987137158
31
5.999997959034
0
LINE
8
3
10
3119.491727853539
20
-500.432036847677
30
5.999999459984
11
3119.709250715794
21
-500.286692727033
31
5.999999457818
0
LINE
8
3
10
2903.491727590014
20
-488.199987231144
30
5.999999278669
11
2903.491727587951
21
-484.199987231144
31
5.999999632
0
LINE
8
3
10
3120.491728151894
20
-490.19998731994
30
5.999999307512
11
3120.491727904043
21
-498.699986069267
31
5.999999434174
0
LINE
8
3
10
2699.491726985572
20
-500.432024745313
30
5.999998832282
11
2699.274204127367
21
-500.286680618607
31
5.999998837597
0
LINE
8
3
10
2699.077513422789
20
-500.114187500651
30
5.999998843905
11
2698.905020304327
21
-499.917496796517
31
5.999998851097
0
LINE
8
3
10
2904.97408949675
20
-482.268135578377
30
5.999999802639
11
2905.230675202488
21
-482.217097508175
31
5.999999807146
0
LINE
8
3
10
3119.00936629843
20
-488.268135668004
30
5.999999278724
11
3118.752780594154
21
-488.217097597946
31
5.999999277964
0
LINE
8
3
10
2903.491727590014
20
-488.199987231144
30
5.999999278669
11
2700.491726969816
21
-488.199987144019
31
5.999999279575
0
LINE
8
3
10
2699.077513408197
20
-488.78577358226
30
5.999999258154
11
2699.274204112331
21
-488.613280463965
31
5.999999264462
0
LINE
8
3
10
3114.491727871626
20
-500.699985894312
30
5.999999463977
11
3118.491727845726
21
-500.699986010949
31
5.999999463977
0
LINE
8
3
10
2700.491726969816
20
-488.199987144019
30
5.999999279575
11
2700.230674585398
21
-488.217097421385
31
5.999999278949
0
LINE
8
3
10
3118.491728210212
20
-488.199987320807
30
5.999999277709
11
2915.491727590014
21
-488.199987234281
31
5.999999278615
0
LINE
8
3
10
2700.230674601455
20
-500.68286365954
30
5.99999882311
11
2699.974088895624
21
-500.631825589701
31
5.999998824976
0
LINE
8
3
10
2698.491726983341
20
-498.699973939032
30
5.999998895619
11
2698.508837260929
21
-498.96102632345
31
5.999998886073
0
LINE
8
3
10
2698.559875319147
20
-489.682349054652
30
5.999999225369
11
2698.643967906383
21
-489.434620280091
31
5.999999234428
0
LINE
8
3
10
2699.974088879699
20
-488.268135491666
30
5.999999277083
11
2700.230674585398
21
-488.217097421385
31
5.999999278949
0
LINE
8
3
10
3118.752780230664
20
-500.682875741308
30
5.999999463722
11
3119.009365937918
21
-500.631837678621
31
5.999999462961
0
LINE
8
3
10
2698.75967617706
20
-499.699973938687
30
5.999998859052
11
2698.643967919304
21
-499.465340803566
31
5.999998867631
0
LINE
8
3
10
3120.474617882254
20
-489.938934935507
30
5.999999303622
11
3120.491728151894
21
-490.19998731994
31
5.999999307512
0
LINE
8
3
10
2704.491726985917
20
-500.699973931304
30
5.999998822484
11
2704.491726989137
21
-503.199987137158
31
5.999997959034
0
LINE
8
3
10
2698.759676163535
20
-489.199987144771
30
5.999999243008
11
2698.905020290241
21
-488.98246428669
31
5.999999250962
0
LINE
8
3
10
2699.974088895624
20
-500.631825589701
30
5.999998824976
11
2699.726360120991
21
-500.547733002465
31
5.999998828051
0
LINE
8
3
10
2904.274204729115
20
-482.613280550462
30
5.999999772155
11
2904.491727587058
21
-482.467936423448
31
5.999999784992
0
LINE
8
3
10
2699.726360120991
20
-500.547733002465
30
5.999998828051
11
2699.491726985572
21
-500.432024745313
31
5.999998832282
0
LINE
8
3
10
2700.230674601455
20
-500.68286365954
30
5.99999882311
11
2700.491726985917
21
-500.699973936456
31
5.999998822484
0
LINE
8
3
10
3120.474617882254
20
-489.938934935507
30
5.999999303622
11
3120.423579819566
21
-489.682349229764
31
5.999999299798
0
LINE
8
3
10
2904.726360722268
20
-482.352228165964
30
5.999999795212
11
2904.97408949675
21
-482.268135578377
31
5.999999802639
0
LINE
8
3
10
2903.643968522534
20
-483.434620366394
30
5.999999699606
11
2903.759676779866
21
-483.19998723111
31
5.999999720332
0
LINE
8
3
10
2913.491727586919
20
-482.199987234536
30
5.999999808621
11
2905.491727586919
21
-482.199987230889
31
5.999999808657
0
LINE
8
3
10
3119.709251056179
20
-488.613280639696
30
5.999999283868
11
3119.491728202399
21
-488.467936512804
31
5.999999281702
0
LINE
8
3
10
2698.643967906383
20
-489.434620280091
30
5.999999234428
11
2698.759676163535
21
-489.199987144771
31
5.999999243008
0
LINE
8
3
10
3120.223778682453
20
-499.699986061454
30
5.999999449075
11
3120.339486946749
21
-499.465352929558
31
5.999999445579
0
LINE
8
3
10
3120.339486946749
20
-499.465352929558
30
5.999999445579
11
3120.423579541527
21
-499.217624157485
31
5.999999441888
0
LINE
8
3
10
3120.078434549124
20
-499.917508915233
30
5.999999452317
11
3120.223778682453
21
-499.699986061454
31
5.999999449075
0
LINE
8
3
10
2698.491726972392
20
-490.199987144887
30
5.99999920644
11
2698.491726983341
21
-498.699973939032
31
5.999998895619
0
LINE
8
3
10
2698.905020304327
20
-499.917496796517
30
5.999998851097
11
2698.75967617706
21
-499.699973938687
31
5.999998859052
0
LINE
8
3
10
2905.491727586919
20
-482.199987230889
30
5.999999808657
11
2905.230675202488
21
-482.217097508175
31
5.999999807146
0
LINE
8
3
10
3119.257094714895
20
-500.547745098289
30
5.999999461708
11
3119.491727853539
21
-500.432036847677
31
5.999999459984
0
LINE
8
3
10
3119.905941755505
20
-488.78577375782
30
5.999999286438
11
3119.709251056179
21
-488.613280639696
31
5.999999283868
0
LINE
8
3
10
3118.752780594154
20
-488.217097597946
30
5.999999277964
11
3118.491728210212
21
-488.199987320807
31
5.999999277709
0
LINE
8
3
10
2698.643967919304
20
-499.465340803566
30
5.999998867631
11
2698.559875331429
21
-499.21761202915
31
5.99999887669
0
LINE
8
3
10
3120.423579541527
20
-499.217624157485
30
5.999999441888
11
3120.474617619179
21
-498.961038453208
31
5.999999438064
0
LINE
8
3
10
3119.491728202399
20
-488.467936512804
30
5.999999281702
11
3119.257095070503
21
-488.352228255452
31
5.999999279978
0
LINE
8
3
10
3120.339487239234
20
-489.434620455275
30
5.999999296107
11
3120.223778988622
21
-489.199987320056
31
5.99999929261
0
LINE
8
3
10
2915.491727587951
20
-484.199987234281
30
5.999999631946
11
2915.474617310564
21
-483.938934849843
31
5.999999655006
0
LINE
8
3
10
2698.508837249308
20
-489.938934760439
30
5.999999215986
11
2698.559875319147
21
-489.682349054652
31
5.999999225369
0
LINE
8
3
10
3120.078434867979
20
-488.982464462101
30
5.999999289369
11
3119.905941755505
21
-488.78577375782
31
5.999999286438
0
LINE
8
4
10
2699.974102991527
20
-599.309762301819
30
5.999994380155
11
2700.230688697292
21
-599.360800371988
31
5.999994380156
0
LINE
8
4
10
3131.009395860027
20
-599.309762368611
30
5.99999438019
11
3130.75281015357
21
-599.360800445748
31
5.999994380188
0
LINE
8
4
10
3131.491757772535
20
-599.109961510503
30
5.999994380192
11
3131.257124635694
21
-599.225669774328
31
5.999994380191
0
LINE
8
4
10
2700.491741081732
20
-599.37791064924
30
5.999994380157
11
2704.491741231056
21
-599.377910649235
31
5.999994380176
0
LINE
8
4
10
3131.709280632525
20
-598.96461737761
30
5.999994380193
11
3131.491757772535
21
-599.109961510503
31
5.999994380192
0
LINE
8
4
10
3130.491757768898
20
-599.377910730089
30
5.999994380187
11
3126.491758212303
21
-599.377910838705
31
5.999994380168
0
LINE
8
4
10
3126.491758212303
20
-599.377910838705
30
5.999994380168
11
3126.491758574354
21
-612.711246167842
31
5.999994384141
0
LINE
8
4
10
3130.75281015357
20
-599.360800445748
30
5.999994380188
11
3130.491757768898
21
-599.377910730089
31
5.999994380187
0
LINE
8
4
10
3132.423609441598
20
-597.895548767836
30
5.999994380196
11
3132.33951685068
21
-598.143277544645
31
5.999994380196
0
LINE
8
4
10
2700.230688697292
20
-599.360800371988
30
5.999994380156
11
2700.491741081732
21
-599.37791064924
31
5.999994380157
0
LINE
8
4
10
2699.491741081714
20
-586.312524485384
30
5.999994380152
11
2699.726374216983
21
-586.19681622793
31
5.999994380153
0
LINE
8
4
10
2698.508851358982
20
-597.638963033683
30
5.999994380148
11
2698.559889429152
21
-597.895548739448
31
5.999994380148
0
LINE
8
4
10
2704.491741231074
20
-612.711246005524
30
5.999994380176
11
2704.491741231056
21
-599.377910649235
31
5.999994380176
0
LINE
8
4
10
2699.274218223714
20
-598.964617329824
30
5.999994380151
11
2699.491741081732
21
-599.109961456811
31
5.999994380152
0
LINE
8
4
10
2698.491741081716
20
-588.044575292954
30
5.999994380148
11
2698.508851358968
21
-587.783522908514
31
5.999994380148
0
LINE
8
4
10
2698.508851358982
20
-597.638963033683
30
5.999994380148
11
2698.491741081729
21
-597.377910649243
31
5.999994380148
0
LINE
8
4
10
2698.643982016707
20
-598.143277513973
30
5.999994380148
11
2698.759690274162
21
-598.377910649243
31
5.999994380149
0
LINE
8
4
10
2698.759690274162
20
-598.377910649243
30
5.999994380149
11
2698.905034401149
21
-598.59543350726
31
5.999994380149
0
LINE
8
4
10
2698.491741081729
20
-597.377910649243
30
5.999994380148
11
2698.491741081716
21
-588.044575292954
31
5.999994380148
0
LINE
8
4
10
2704.491741231017
20
-572.711239936656
30
5.999994380176
11
3126.491758218168
21
-572.7112398546
31
5.999994380168
0
LINE
8
4
10
3126.491758574354
20
-612.711246167842
30
5.999994384141
11
2704.491741231074
21
-612.711246005524
31
5.999994380176
0
LINE
8
4
10
3131.905971339222
20
-598.79212425406
30
5.999994380194
11
3131.709280632525
21
-598.96461737761
31
5.999994380193
0
LINE
8
4
10
3132.339516998157
20
-587.279208439118
30
5.999994380196
11
3132.223808743888
21
-587.044575302278
31
5.999994380195
0
LINE
8
4
10
2699.726374217002
20
-599.225669714264
30
5.999994380153
11
2699.974102991527
21
-599.309762301819
31
5.999994380155
0
LINE
8
4
10
2698.559889429137
20
-587.526937202749
30
5.999994380148
11
2698.643982016692
21
-587.279208428224
31
5.999994380148
0
LINE
8
4
10
2700.230688697273
20
-586.061685570204
30
5.999994380156
11
2700.491741081713
21
-586.044575292951
31
5.999994380157
0
LINE
8
4
10
2699.726374216983
20
-586.19681622793
30
5.999994380153
11
2699.974102991509
21
-586.112723640374
31
5.999994380155
0
LINE
8
4
10
3131.257124635694
20
-599.225669774328
30
5.999994380191
11
3131.009395860027
21
-599.309762368611
31
5.99999438019
0
LINE
8
4
10
3131.009396039174
20
-586.112723633214
30
5.99999438019
11
3130.752810334102
21
-586.061685559561
31
5.999994380188
0
LINE
8
4
10
3130.752810334102
20
-586.061685559561
30
5.999994380188
11
3130.491757949894
21
-586.044575278765
31
5.999994380187
0
LINE
8
4
10
3132.474647649036
20
-587.783522921243
30
5.999994380197
11
3132.42360958235
21
-587.526937214785
31
5.999994380196
0
LINE
8
4
10
2698.759690274146
20
-587.044575292954
30
5.999994380149
11
2698.905034401132
21
-586.827052434936
31
5.999994380149
0
LINE
8
4
10
3132.491757796047
20
-597.377910675781
30
5.999994380197
11
3132.474647515251
21
-597.638963060686
31
5.999994380197
0
LINE
8
4
10
3132.42360958235
20
-587.526937214785
30
5.999994380196
11
3132.339516998157
21
-587.279208439118
31
5.999994380196
0
LINE
8
4
10
3132.223808743888
20
-587.044575302278
30
5.999994380195
11
3132.078464619854
21
-586.827052442287
31
5.999994380195
0
LINE
8
4
10
3132.474647649036
20
-587.783522921243
30
5.999994380197
11
3132.491757922744
21
-588.044575305915
31
5.999994380197
0
LINE
8
4
10
3132.474647515251
20
-597.638963060686
30
5.999994380197
11
3132.423609441598
21
-597.895548767836
31
5.999994380196
0
LINE
8
4
10
3132.33951685068
20
-598.143277544645
30
5.999994380196
11
3132.223808590041
21
-598.377910683057
31
5.999994380195
0
LINE
8
4
10
3132.491757922744
20
-588.044575305915
30
5.999994380197
11
3132.491757796047
21
-597.377910675781
31
5.999994380197
0
LINE
8
4
10
3131.709280802301
20
-586.45786861471
30
5.999994380193
11
3131.491757946257
21
-586.312524484771
31
5.999994380192
0
LINE
8
4
10
3131.491757946257
20
-586.312524484771
30
5.999994380192
11
3131.257124812558
21
-586.196816224132
31
5.999994380191
0
LINE
8
4
10
3132.223808590041
20
-598.377910683057
30
5.999994380195
11
3132.078464460101
21
-598.595433545021
31
5.999994380195
0
LINE
8
4
10
3132.078464460101
20
-598.595433545021
30
5.999994380195
11
3131.905971339222
21
-598.79212425406
31
5.999994380194
0
LINE
8
4
10
2699.974102991509
20
-586.112723640374
30
5.999994380155
11
2700.230688697273
21
-586.061685570204
31
5.999994380156
0
LINE
8
4
10
3132.078464619854
20
-586.827052442287
30
5.999994380195
11
3131.905971504315
21
-586.63036173559
31
5.999994380194
0
LINE
8
4
10
3131.905971504315
20
-586.63036173559
30
5.999994380194
11
3131.709280802301
21
-586.45786861471
31
5.999994380193
0
LINE
8
4
10
3131.257124812558
20
-586.196816224132
30
5.999994380191
11
3131.009396039174
21
-586.112723633214
31
5.99999438019
0
LINE
8
4
10
3130.491757949894
20
-586.044575278765
30
5.999994380187
11
3126.49175803717
21
-586.044575224466
31
5.999994380168
0
LINE
8
4
10
3126.491758218168
20
-572.7112398546
30
5.999994380168
11
3126.49175803717
21
-586.044575224466
31
5.999994380168
0
LINE
8
4
10
2704.491741231036
20
-586.044575292945
30
5.999994380176
11
2704.491741231017
21
-572.711239936656
31
5.999994380176
0
LINE
8
4
10
2700.491741081713
20
-586.044575292951
30
5.999994380157
11
2704.491741231036
21
-586.044575292945
31
5.999994380176
0
LINE
8
4
10
2699.274218223696
20
-586.45786861237
30
5.999994380151
11
2699.491741081714
21
-586.312524485384
31
5.999994380152
0
LINE
8
4
10
2699.077527519341
20
-586.63036173058
30
5.99999438015
11
2699.274218223696
21
-586.45786861237
31
5.999994380151
0
LINE
8
4
10
2698.905034401132
20
-586.827052434936
30
5.999994380149
11
2699.077527519341
21
-586.63036173058
31
5.99999438015
0
LINE
8
4
10
2698.643982016692
20
-587.279208428224
30
5.999994380148
11
2698.759690274146
21
-587.044575292954
31
5.999994380149
0
LINE
8
4
10
2698.508851358968
20
-587.783522908514
30
5.999994380148
11
2698.559889429137
21
-587.526937202749
31
5.999994380148
0
LINE
8
4
10
2698.559889429152
20
-597.895548739448
30
5.999994380148
11
2698.643982016707
21
-598.143277513973
31
5.999994380148
0
LINE
8
4
10
2698.905034401149
20
-598.59543350726
30
5.999994380149
11
2699.077527519358
21
-598.792124211616
31
5.99999438015
0
LINE
8
4
10
2699.077527519358
20
-598.792124211616
30
5.99999438015
11
2699.274218223714
21
-598.964617329824
31
5.999994380151
0
LINE
8
4
10
2699.491741081732
20
-599.109961456811
30
5.999994380152
11
2699.726374217002
21
-599.225669714264
31
5.999994380153
0
LINE
8
5
10
3119.709254409328
20
-794.712864573167
30
5.999994329849
11
3119.491731551311
21
-794.56752044618
31
5.999994329845
0
LINE
8
5
10
3120.474621274052
20
-805.893956971523
30
5.999994330128
11
3120.423583203882
21
-806.150542677288
31
5.999994330134
0
LINE
8
5
10
3119.491731551303
20
-807.364955394651
30
5.999994330165
11
3119.257098416033
21
-807.480663652105
31
5.999994330168
0
LINE
8
5
10
3118.491731551311
20
-794.299571253749
30
5.999994329838
11
3118.752783935751
21
-794.316681531001
31
5.999994329839
0
LINE
8
5
10
3119.009369641508
20
-807.56475623966
30
5.99999433017
11
3118.752783935743
21
-807.61579430983
31
5.999994330171
0
LINE
8
5
10
3119.70925440932
20
-807.219611267665
30
5.999994330161
11
3119.491731551303
21
-807.364955394651
31
5.999994330165
0
LINE
8
5
10
3119.257098416033
20
-807.480663652105
30
5.999994330168
11
3119.009369641508
21
-807.56475623966
31
5.99999433017
0
LINE
8
5
10
2698.491731551312
20
-805.632904586982
30
5.999994329505
11
2698.508841828564
21
-805.893956971422
31
5.999994329505
0
LINE
8
5
10
3119.257098416041
20
-794.451812188726
30
5.999994329842
11
3119.009369641516
21
-794.367719601171
31
5.99999432984
0
LINE
8
5
10
3120.474621274057
20
-796.03851886931
30
5.999994329882
11
3120.491731551309
21
-796.29957125375
31
5.999994329888
0
LINE
8
5
10
3120.339490616326
20
-806.398271451813
30
5.999994330141
11
3120.223782358872
21
-806.632904587083
31
5.999994330146
0
LINE
8
5
10
3120.474621274057
20
-796.03851886931
30
5.999994329882
11
3120.423583203888
21
-795.781933163545
31
5.999994329875
0
LINE
8
5
10
2699.974093461106
20
-807.564756239561
30
5.999994329505
11
2699.726364686581
21
-807.480663652005
31
5.999994329505
0
LINE
8
5
10
2698.508841828566
20
-796.038518869209
30
5.999994329505
11
2698.491731551314
21
-796.299571253649
31
5.999994329505
0
LINE
8
5
10
2699.491731551311
20
-807.364955394551
30
5.999994329505
11
2699.274208693294
21
-807.219611267565
31
5.999994329505
0
LINE
8
5
10
3120.491731551304
20
-805.632904587083
30
5.999994330121
11
3120.474621274052
21
-805.893956971523
31
5.999994330128
0
LINE
8
5
10
3120.078438231893
20
-795.082048395732
30
5.999994329858
11
3119.905945113684
21
-794.885357691376
31
5.999994329853
0
LINE
8
5
10
3118.491731551303
20
-807.632904587082
30
5.999994330171
11
3118.752783935743
21
-807.61579430983
31
5.999994330171
0
LINE
8
5
10
3119.905945113676
20
-807.047118149456
30
5.999994330157
11
3119.70925440932
21
-807.219611267665
31
5.999994330161
0
LINE
8
5
10
3120.078438231886
20
-806.8504274451
30
5.999994330152
11
3119.905945113676
21
-807.047118149456
31
5.999994330157
0
LINE
8
5
10
3120.223782358872
20
-806.632904587083
30
5.999994330146
11
3120.078438231886
21
-806.8504274451
31
5.999994330152
0
LINE
8
5
10
3120.423583203882
20
-806.150542677288
30
5.999994330134
11
3120.339490616326
21
-806.398271451813
31
5.999994330141
0
LINE
8
5
10
3120.491731551309
20
-796.29957125375
30
5.999994329888
11
3120.491731551304
21
-805.632904587083
31
5.999994330121
0
LINE
8
5
10
3120.423583203888
20
-795.781933163545
30
5.999994329875
11
3120.339490616333
21
-795.534204389019
31
5.999994329869
0
LINE
8
5
10
3120.339490616333
20
-795.534204389019
30
5.999994329869
11
3120.223782358879
21
-795.29957125375
31
5.999994329863
0
LINE
8
5
10
3120.223782358879
20
-795.29957125375
30
5.999994329863
11
3120.078438231893
21
-795.082048395732
31
5.999994329858
0
LINE
8
5
10
3119.905945113684
20
-794.885357691376
30
5.999994329853
11
3119.709254409328
21
-794.712864573167
31
5.999994329849
0
LINE
8
5
10
3119.491731551311
20
-794.56752044618
30
5.999994329845
11
3119.257098416041
21
-794.451812188726
31
5.999994329842
0
LINE
8
5
10
3119.009369641516
20
-794.367719601171
30
5.99999432984
11
3118.752783935751
21
-794.316681531001
31
5.999994329839
0
LINE
8
5
10
3114.491731551311
20
-794.299571253746
30
5.999994329838
11
3118.491731551311
21
-794.299571253749
31
5.999994329838
0
LINE
8
5
10
3114.491731551319
20
-780.966237920413
30
5.999994329505
11
3114.491731551311
21
-794.299571253746
31
5.999994329838
0
LINE
8
5
10
3114.491731551319
20
-780.966237920413
30
5.999994329505
11
2704.491731551318
21
-780.966237920317
31
5.999994329505
0
LINE
8
5
10
2704.491731551318
20
-780.966237920317
30
5.999994329505
11
2704.491731551314
21
-794.29957125365
31
5.999994329505
0
LINE
8
5
10
2704.491731551314
20
-794.29957125365
30
5.999994329505
11
2700.491731551314
21
-794.299571253649
31
5.999994329505
0
LINE
8
5
10
2700.491731551314
20
-794.299571253649
30
5.999994329505
11
2700.230679166874
21
-794.316681530902
31
5.999994329505
0
LINE
8
5
10
2700.230679166874
20
-794.316681530902
30
5.999994329505
11
2699.97409346111
21
-794.367719601071
31
5.999994329505
0
LINE
8
5
10
2699.97409346111
20
-794.367719601071
30
5.999994329505
11
2699.726364686584
21
-794.451812188626
31
5.999994329505
0
LINE
8
5
10
2699.726364686584
20
-794.451812188626
30
5.999994329505
11
2699.491731551315
21
-794.56752044608
31
5.999994329505
0
LINE
8
5
10
2699.491731551315
20
-794.56752044608
30
5.999994329505
11
2699.274208693297
21
-794.712864573066
31
5.999994329505
0
LINE
8
5
10
2699.274208693297
20
-794.712864573066
30
5.999994329505
11
2699.077517988941
21
-794.885357691276
31
5.999994329505
0
LINE
8
5
10
2699.077517988941
20
-794.885357691276
30
5.999994329505
11
2698.905024870732
21
-795.082048395631
31
5.999994329505
0
LINE
8
5
10
2698.905024870732
20
-795.082048395631
30
5.999994329505
11
2698.759680743745
21
-795.299571253649
31
5.999994329505
0
LINE
8
5
10
2698.759680743745
20
-795.299571253649
30
5.999994329505
11
2698.643972486292
21
-795.534204388919
31
5.999994329505
0
LINE
8
5
10
2698.643972486292
20
-795.534204388919
30
5.999994329505
11
2698.559879898736
21
-795.781933163444
31
5.999994329505
0
LINE
8
5
10
2698.559879898736
20
-795.781933163444
30
5.999994329505
11
2698.508841828566
21
-796.038518869209
31
5.999994329505
0
LINE
8
5
10
2698.491731551314
20
-796.299571253649
30
5.999994329505
11
2698.491731551312
21
-805.632904586982
31
5.999994329505
0
LINE
8
5
10
2698.559879898733
20
-806.150542677187
30
5.999994329505
11
2698.508841828564
21
-805.893956971422
31
5.999994329505
0
LINE
8
5
10
2698.643972486289
20
-806.398271451712
30
5.999994329505
11
2698.559879898733
21
-806.150542677187
31
5.999994329505
0
LINE
8
5
10
2698.759680743743
20
-806.632904586982
30
5.999994329505
11
2698.643972486289
21
-806.398271451712
31
5.999994329505
0
LINE
8
5
10
2698.905024870729
20
-806.850427445
30
5.999994329505
11
2698.759680743743
21
-806.632904586982
31
5.999994329505
0
LINE
8
5
10
2699.077517988938
20
-807.047118149355
30
5.999994329505
11
2698.905024870729
21
-806.850427445
31
5.999994329505
0
LINE
8
5
10
2699.274208693294
20
-807.219611267565
30
5.999994329505
11
2699.077517988938
21
-807.047118149355
31
5.999994329505
0
LINE
8
5
10
2699.726364686581
20
-807.480663652005
30
5.999994329505
11
2699.491731551311
21
-807.364955394551
31
5.999994329505
0
LINE
8
5
10
2700.230679166872
20
-807.61579430973
30
5.999994329505
11
2699.974093461106
21
-807.564756239561
31
5.999994329505
0
LINE
8
5
10
2700.491731551312
20
-807.632904586982
30
5.999994329505
11
2700.230679166872
21
-807.61579430973
31
5.999994329505
0
LINE
8
5
10
2704.491731551311
20
-807.632904586983
30
5.999994329505
11
2700.491731551312
21
-807.632904586982
31
5.999994329505
0
LINE
8
5
10
2704.491731551311
20
-807.632904586983
30
5.999994329505
11
2704.491731551293
21
-820.966237920317
31
5.999994330505
0
LINE
8
5
10
3114.491731551295
20
-820.966237920413
30
5.999994330505
11
2704.491731551293
21
-820.966237920317
31
5.999994330505
0
LINE
8
5
10
3114.491731551303
20
-807.63290458708
30
5.999994330171
11
3114.491731551295
21
-820.966237920413
31
5.999994330505
0
LINE
8
5
10
3114.491731551303
20
-807.63290458708
30
5.999994330171
11
3118.491731551303
21
-807.632904587082
31
5.999994330171
0
LINE
8
6
10
2692.759805742176
20
-635.74458136113
30
5.999994391597
11
2692.644097484722
21
-635.50994822586
31
5.999994391679
0
LINE
8
6
10
2692.905149869162
20
-635.962104219147
30
5.999994391497
11
2692.759805742176
21
-635.74458136113
31
5.999994391597
0
LINE
8
6
10
2693.077642987371
20
-636.158794923503
30
5.999994391378
11
2692.905149869162
21
-635.962104219147
31
5.999994391497
0
LINE
8
6
10
2693.274333691726
20
-636.331288041712
30
5.999994391244
11
2693.077642987371
21
-636.158794923503
31
5.999994391378
0
LINE
8
6
10
2693.491856549744
20
-636.476632168699
30
5.999994391097
11
2693.274333691726
21
-636.331288041712
31
5.999994391244
0
LINE
8
6
10
2693.726489685014
20
-636.592340426153
30
5.99999439094
11
2693.491856549744
21
-636.476632168699
31
5.999994391097
0
LINE
8
6
10
2693.974218459539
20
-636.676433013708
30
5.999994390774
11
2693.726489685014
21
-636.592340426153
31
5.99999439094
0
LINE
8
6
10
2694.230804165304
20
-636.727471083878
30
5.999994390603
11
2693.974218459539
21
-636.676433013708
31
5.999994390774
0
LINE
8
6
10
2694.230804165304
20
-636.727471083878
30
5.999994390603
11
2694.491856549744
21
-636.74458136113
31
5.999994390429
0
LINE
8
6
10
2694.491856549744
20
-636.74458136113
30
5.999994390429
11
2698.491856548813
21
-636.744581361131
31
5.99999438778
0
LINE
8
6
10
2698.49185654881
20
-650.077916717421
30
5.999994387501
11
2698.491856548813
21
-636.744581361131
31
5.99999438778
0
LINE
8
6
10
2694.491856549741
20
-650.07791671742
30
5.999994390151
11
2698.49185654881
21
-650.077916717421
31
5.999994387501
0
LINE
8
6
10
2694.2308041653
20
-650.095026994672
30
5.99999439102
11
2694.491856549741
21
-650.07791671742
31
5.999994390151
0
LINE
8
6
10
2694.2308041653
20
-650.095026994672
30
5.99999439102
11
2693.974218459536
21
-650.146065064841
31
5.999994393268
0
LINE
8
6
10
2693.974218459536
20
-650.146065064841
30
5.999994393268
11
2693.726489685011
21
-650.230157652397
31
5.999994396855
0
LINE
8
6
10
2693.726489685011
20
-650.230157652397
30
5.999994396855
11
2693.491856549741
21
-650.345865909851
31
5.999994401721
0
LINE
8
6
10
2693.491856549741
20
-650.345865909851
30
5.999994401721
11
2693.274333691723
21
-650.491210036837
31
5.999994407781
0
LINE
8
6
10
2693.274333691723
20
-650.491210036837
30
5.999994407781
11
2693.077642987368
21
-650.663703155046
31
5.999994414933
0
LINE
8
6
10
2693.077642987368
20
-650.663703155046
30
5.999994414933
11
2692.905149869158
21
-650.860393859402
31
5.999994423054
0
LINE
8
6
10
2692.905149869158
20
-650.860393859402
30
5.999994423054
11
2692.759805742171
21
-651.077916717419
31
5.999994432006
0
LINE
8
6
10
2692.759805742171
20
-651.077916717419
30
5.999994432006
11
2692.644097484718
21
-651.312549852689
31
5.999994441634
0
LINE
8
6
10
2692.644097484718
20
-651.312549852689
30
5.999994441634
11
2692.560004897162
21
-651.560278627214
31
5.999994451774
0
LINE
8
6
10
2692.560004897162
20
-651.560278627214
30
5.999994451774
11
2692.508966826993
21
-651.816864332979
31
5.999994462253
0
LINE
8
6
10
2692.491856549741
20
-652.077916717419
30
5.999994472891
11
2692.508966826993
21
-651.816864332979
31
5.999994462253
0
LINE
8
6
10
2692.491856549737
20
-663.411252114438
30
5.999994934246
11
2692.491856549741
21
-652.077916717419
31
5.999994472891
0
LINE
8
6
10
3114.491740293723
20
-663.411252114541
30
5.999994383249
11
2692.491856549737
21
-663.411252114438
31
5.999994934246
0
LINE
8
6
10
3114.491740293733
20
-623.411246004943
30
5.999994384086
11
3114.491740293723
21
-663.411252114541
31
5.999994383249
0
LINE
8
6
10
2692.491856549747
20
-623.41124600484
30
5.999994392033
11
3114.491740293733
21
-623.411246004943
31
5.999994384086
0
LINE
8
6
10
2692.491856549744
20
-634.74458136113
30
5.999994391796
11
2692.491856549747
21
-623.41124600484
31
5.999994392033
0
LINE
8
6
10
2692.508966826997
20
-635.00563374557
30
5.999994391779
11
2692.491856549744
21
-634.74458136113
31
5.999994391796
0
LINE
8
6
10
2692.560004897166
20
-635.262219451335
30
5.99999439174
11
2692.508966826997
21
-635.00563374557
31
5.999994391779
0
LINE
8
6
10
2692.644097484722
20
-635.50994822586
30
5.999994391679
11
2692.560004897166
21
-635.262219451335
31
5.99999439174
0
LINE
8
7
10
3118.491731551317
20
-755.932904587079
30
5.999994329173
11
3118.752783935757
21
-755.915794309827
31
5.999994329172
0
LINE
8
7
10
3114.491731551317
20
-755.93290458708
30
5.999994329173
11
3118.491731551317
21
-755.932904587079
31
5.999994329173
0
LINE
8
7
10
3114.491731551319
20
-769.266237920413
30
5.999994329505
11
3114.491731551317
21
-755.93290458708
31
5.999994329173
0
LINE
8
7
10
2704.491731551318
20
-769.266237920617
30
5.999994329505
11
3114.491731551319
21
-769.266237920413
31
5.999994329505
0
LINE
8
7
10
2704.491731551318
20
-769.266237920617
30
5.999994329505
11
2704.491731551321
21
-755.932904587283
31
5.999994329506
0
LINE
8
7
10
2704.491731551321
20
-755.932904587283
30
5.999994329506
11
2700.491731551321
21
-755.932904587282
31
5.999994329506
0
LINE
8
7
10
2700.491731551321
20
-755.932904587282
30
5.999994329506
11
2700.230679166881
21
-755.91579431003
31
5.999994329506
0
LINE
8
7
10
2699.974093461116
20
-755.86475623986
30
5.999994329506
11
2700.230679166881
21
-755.91579431003
31
5.999994329506
0
LINE
8
7
10
2699.72636468659
20
-755.780663652305
30
5.999994329506
11
2699.974093461116
21
-755.86475623986
31
5.999994329506
0
LINE
8
7
10
2699.491731551321
20
-755.664955394851
30
5.999994329506
11
2699.72636468659
21
-755.780663652305
31
5.999994329506
0
LINE
8
7
10
2699.274208693304
20
-755.519611267865
30
5.999994329506
11
2699.491731551321
21
-755.664955394851
31
5.999994329506
0
LINE
8
7
10
2699.077517988948
20
-755.347118149655
30
5.999994329506
11
2699.274208693304
21
-755.519611267865
31
5.999994329506
0
LINE
8
7
10
2698.905024870739
20
-755.150427445299
30
5.999994329506
11
2699.077517988948
21
-755.347118149655
31
5.999994329506
0
LINE
8
7
10
2698.559879898743
20
-754.450542677487
30
5.999994329506
11
2698.643972486298
21
-754.698271452012
31
5.999994329506
0
LINE
8
7
10
2698.508841828574
20
-754.193956971722
30
5.999994329506
11
2698.559879898743
21
-754.450542677487
31
5.999994329506
0
LINE
8
7
10
2698.508841828574
20
-754.193956971722
30
5.999994329506
11
2698.491731551321
21
-753.932904587282
31
5.999994329506
0
LINE
8
7
10
2698.491731551321
20
-753.932904587282
30
5.999994329506
11
2698.491731551323
21
-744.599571253949
31
5.999994329506
0
LINE
8
7
10
3119.257098416047
20
-755.780663652102
30
5.999994329169
11
3119.491731551317
21
-755.664955394648
31
5.999994329166
0
LINE
8
7
10
3120.339490616338
20
-743.834204389015
30
5.999994328871
11
3120.423583203893
21
-744.08193316354
31
5.999994328877
0
LINE
8
7
10
2698.643972486301
20
-743.834204389218
30
5.999994329506
11
2698.759680743755
21
-743.599571253949
31
5.999994329506
0
LINE
8
7
10
3118.491731551315
20
-742.599571253746
30
5.99999432884
11
3118.752783935755
21
-742.616681530998
31
5.999994328841
0
LINE
8
7
10
2699.974093461119
20
-742.667719601371
30
5.999994329506
11
2700.230679166884
21
-742.616681531201
31
5.999994329506
0
LINE
8
7
10
2699.491731551324
20
-742.86752044638
30
5.999994329506
11
2699.726364686594
21
-742.751812188926
31
5.999994329506
0
LINE
8
7
10
2700.491731551324
20
-742.599571253949
30
5.999994329506
11
2700.230679166884
21
-742.616681531201
31
5.999994329506
0
LINE
8
7
10
2699.726364686594
20
-742.751812188926
30
5.999994329506
11
2699.974093461119
21
-742.667719601371
31
5.999994329506
0
LINE
8
7
10
2699.274208693306
20
-743.012864573366
30
5.999994329506
11
2699.491731551324
21
-742.86752044638
31
5.999994329506
0
LINE
8
7
10
2699.077517988951
20
-743.185357691576
30
5.999994329506
11
2699.274208693306
21
-743.012864573366
31
5.999994329506
0
LINE
8
7
10
2698.905024870741
20
-743.382048395931
30
5.999994329506
11
2699.077517988951
21
-743.185357691576
31
5.999994329506
0
LINE
8
7
10
2698.759680743755
20
-743.599571253949
30
5.999994329506
11
2698.905024870741
21
-743.382048395931
31
5.999994329506
0
LINE
8
7
10
2698.559879898746
20
-744.081933163744
30
5.999994329506
11
2698.643972486301
21
-743.834204389218
31
5.999994329506
0
LINE
8
7
10
2698.508841828576
20
-744.338518869508
30
5.999994329506
11
2698.559879898746
21
-744.081933163744
31
5.999994329506
0
LINE
8
7
10
2698.491731551323
20
-744.599571253949
30
5.999994329506
11
2698.508841828576
21
-744.338518869508
31
5.999994329506
0
LINE
8
7
10
2698.643972486298
20
-754.698271452012
30
5.999994329506
11
2698.759680743752
21
-754.932904587282
31
5.999994329506
0
LINE
8
7
10
2698.759680743752
20
-754.932904587282
30
5.999994329506
11
2698.905024870739
21
-755.150427445299
31
5.999994329506
0
LINE
8
7
10
3118.752783935757
20
-755.915794309827
30
5.999994329172
11
3119.009369641522
21
-755.864756239657
31
5.999994329171
0
LINE
8
7
10
3119.009369641522
20
-755.864756239657
30
5.999994329171
11
3119.257098416047
21
-755.780663652102
31
5.999994329169
0
LINE
8
7
10
3119.709254409334
20
-755.519611267661
30
5.999994329162
11
3119.90594511369
21
-755.347118149452
31
5.999994329158
0
LINE
8
7
10
3120.423583203895
20
-754.450542677284
30
5.999994329136
11
3120.474621274065
21
-754.193956971519
31
5.999994329129
0
LINE
8
7
10
3120.474621274065
20
-754.193956971519
30
5.999994329129
11
3120.491731551317
21
-753.932904587079
31
5.999994329123
0
LINE
8
7
10
3120.491731551317
20
-753.932904587079
30
5.999994329123
11
3120.491731551316
21
-744.599571253745
31
5.99999432889
0
LINE
8
7
10
3120.491731551316
20
-744.599571253745
30
5.99999432889
11
3120.474621274063
21
-744.338518869305
31
5.999994328884
0
LINE
8
7
10
3120.423583203893
20
-744.08193316354
30
5.999994328877
11
3120.474621274063
21
-744.338518869305
31
5.999994328884
0
LINE
8
7
10
3120.223782358884
20
-743.599571253746
30
5.999994328865
11
3120.339490616338
21
-743.834204389015
31
5.999994328871
0
LINE
8
7
10
3120.078438231898
20
-743.382048395728
30
5.99999432886
11
3120.223782358884
21
-743.599571253746
31
5.999994328865
0
LINE
8
7
10
3119.905945113689
20
-743.185357691372
30
5.999994328855
11
3120.078438231898
21
-743.382048395728
31
5.99999432886
0
LINE
8
7
10
3119.709254409333
20
-743.012864573163
30
5.99999432885
11
3119.905945113689
21
-743.185357691372
31
5.999994328855
0
LINE
8
7
10
3119.491731551315
20
-742.867520446177
30
5.999994328847
11
3119.709254409333
21
-743.012864573163
31
5.99999432885
0
LINE
8
7
10
3119.257098416046
20
-742.751812188723
30
5.999994328844
11
3119.491731551315
21
-742.867520446177
31
5.999994328847
0
LINE
8
7
10
3119.009369641521
20
-742.667719601168
30
5.999994328842
11
3119.257098416046
21
-742.751812188723
31
5.999994328844
0
LINE
8
7
10
3118.752783935755
20
-742.616681530998
30
5.999994328841
11
3119.009369641521
21
-742.667719601168
31
5.999994328842
0
LINE
8
7
10
3114.491731551315
20
-742.599571253746
30
5.99999432884
11
3118.491731551315
21
-742.599571253746
31
5.99999432884
0
LINE
8
7
10
3114.491731551315
20
-742.599571253746
30
5.99999432884
11
3114.491731551313
21
-729.266237920413
31
5.999994328508
0
LINE
8
7
10
2704.491731551313
20
-729.266237920617
30
5.999994328508
11
3114.491731551313
21
-729.266237920413
31
5.999994328508
0
LINE
8
7
10
2704.491731551323
20
-742.59957125395
30
5.999994329506
11
2704.491731551313
21
-729.266237920617
31
5.999994328508
0
LINE
8
7
10
2704.491731551323
20
-742.59957125395
30
5.999994329506
11
2700.491731551324
21
-742.599571253949
31
5.999994329506
0
LINE
8
7
10
3120.339490616339
20
-754.698271451809
30
5.999994329142
11
3120.423583203895
21
-754.450542677284
31
5.999994329136
0
LINE
8
7
10
3120.223782358886
20
-754.932904587079
30
5.999994329148
11
3120.339490616339
21
-754.698271451809
31
5.999994329142
0
LINE
8
7
10
3120.078438231899
20
-755.150427445096
30
5.999994329153
11
3120.223782358886
21
-754.932904587079
31
5.999994329148
0
LINE
8
7
10
3119.90594511369
20
-755.347118149452
30
5.999994329158
11
3120.078438231899
21
-755.150427445096
31
5.999994329153
0
LINE
8
7
10
3119.491731551317
20
-755.664955394648
30
5.999994329166
11
3119.709254409334
21
-755.519611267661
31
5.999994329162
0
LINE
8
8
10
2901.723782447111
20
-512.999982147823
30
6.00000069209
11
2901.405944731963
21
-512.58576896728
31
6.00000069209
0
LINE
8
8
10
3114.491731551374
20
-534.899982243646
30
6.00000069209
11
3103.491731551374
21
-534.899982243622
31
6.00000069209
0
LINE
8
8
10
3103.491731551374
20
-534.899982243622
30
6.00000069209
11
3103.491731551377
21
-533.399982243622
31
6.00000069209
0
LINE
8
8
10
2901.405944731963
20
-512.58576896728
30
6.00000069209
11
2900.991731551422
21
-512.267932205805
31
6.00000069209
0
LINE
8
8
10
3103.491731551377
20
-533.399982243622
30
6.00000069209
11
3100.491731551377
21
-533.399982243616
31
6.00000069209
0
LINE
8
8
10
3100.491731551377
20
-533.399982243616
30
6.00000069209
11
3100.491731551373
21
-534.899982243616
31
6.00000069209
0
LINE
8
8
10
2900.991731551422
20
-512.267932205805
30
6.00000069209
11
2900.509369757904
21
-512.068129807122
31
6.00000069209
0
LINE
8
8
10
2928.491731551418
20
-513.99998214788
30
6.00000069209
11
2928.423583892117
21
-513.482344895072
31
6.00000069209
0
LINE
8
8
10
3100.491731551373
20
-534.899982243616
30
6.00000069209
11
3099.491731551373
21
-534.899982243614
31
6.00000069209
0
LINE
8
8
10
3099.491731551373
20
-534.899982243614
30
6.00000069209
11
3099.491731551364
21
-539.099982052879
31
6.00000069209
0
LINE
8
8
10
2891.077518370879
20
-512.585768967258
30
6.00000069209
11
2890.759681609403
21
-512.999982147799
31
6.00000069209
0
LINE
8
8
10
2699.974092391172
20
-555.931834488089
30
6.00000069209
11
2700.491731551328
21
-555.999982147392
31
6.00000069209
0
LINE
8
8
10
2900.509369757904
20
-512.068129807122
30
6.00000069209
11
2899.991731551422
21
-511.999982147819
31
6.00000069209
0
LINE
8
8
10
2901.991731551418
20
-513.999982147823
30
6.00000069209
11
2901.991731551409
21
-517.999982147823
31
6.00000069209
0
LINE
8
8
10
2928.491731551409
20
-517.99998214788
30
6.00000069209
11
3118.491731551409
21
-517.999982148287
31
6.00000069209
0
LINE
8
8
10
3119.009370711565
20
-518.06812980759
30
6.00000069209
11
3118.491731551409
21
-517.999982148287
31
6.00000069209
0
LINE
8
8
10
3119.491731551409
20
-518.267932206272
30
6.00000069209
11
3119.009370711565
21
-518.06812980759
31
6.00000069209
0
LINE
8
8
10
3119.905946639299
20
-518.585768967748
30
6.00000069209
11
3119.491731551409
21
-518.267932206272
31
6.00000069209
0
LINE
8
8
10
2892.491731551422
20
-511.999982147803
30
6.00000069209
11
2899.991731551422
21
-511.999982147819
31
6.00000069209
0
LINE
8
8
10
2892.491731551422
20
-511.999982147803
30
6.00000069209
11
2891.974094298615
21
-512.068129807104
31
6.00000069209
0
LINE
8
8
10
2890.759681609403
20
-512.999982147799
30
6.00000069209
11
2890.559879210721
21
-513.482344894991
31
6.00000069209
0
LINE
8
8
10
2890.491731551409
20
-517.999982147799
30
6.00000069209
11
2890.491731551418
21
-513.999982147799
31
6.00000069209
0
LINE
8
8
10
2700.491731551409
20
-517.999982147392
30
6.00000069209
11
2890.491731551409
21
-517.999982147799
31
6.00000069209
0
LINE
8
8
10
2700.491731551409
20
-517.999982147392
30
6.00000069209
11
2699.974092391253
21
-518.068129806693
31
6.00000069209
0
LINE
8
8
10
2699.974092391253
20
-518.068129806693
30
6.00000069209
11
2699.491731551409
21
-518.267932205373
31
6.00000069209
0
LINE
8
8
10
2699.491731551409
20
-518.267932205373
30
6.00000069209
11
2699.077516463517
21
-518.585768966847
31
6.00000069209
0
LINE
8
8
10
2699.077516463517
20
-518.585768966847
30
6.00000069209
11
2698.759675887345
21
-518.999982147388
31
6.00000069209
0
LINE
8
8
10
2698.759675887345
20
-518.999982147388
30
6.00000069209
11
2698.559877303359
21
-519.48234489458
31
6.00000069209
0
LINE
8
8
10
2698.559877303359
20
-519.48234489458
30
6.00000069209
11
2698.491731551405
21
-519.999982147388
31
6.00000069209
0
LINE
8
8
10
2698.491731551389
20
-527.499982147388
30
6.00000069209
11
2698.491731551405
21
-519.999982147388
31
6.00000069209
0
LINE
8
8
10
2698.491731551389
20
-527.499982147388
30
6.00000069209
11
2698.559877303341
21
-528.01762035387
31
6.00000069209
0
LINE
8
8
10
2698.559877303341
20
-528.01762035387
30
6.00000069209
11
2698.759675887325
21
-528.499982147388
31
6.00000069209
0
LINE
8
8
10
2698.759675887325
20
-528.499982147388
30
6.00000069209
11
2699.077516463496
21
-528.914195327931
31
6.00000069209
0
LINE
8
8
10
2699.974092391196
20
-544.56813028353
30
6.00000069209
11
2699.491731551352
21
-544.767931251699
31
6.00000069209
0
LINE
8
8
10
2699.077516463461
20
-545.085768966847
30
6.00000069209
11
2698.759675887288
21
-545.499982147388
31
6.00000069209
0
LINE
8
8
10
3119.491731551328
20
-555.732032090306
30
6.00000069209
11
3119.90594663922
21
-555.414195328832
31
6.00000069209
0
LINE
8
8
10
3120.491731551348
20
-546.499982148291
30
6.00000069209
11
3120.491731551332
21
-553.999982148291
31
6.00000069209
0
LINE
8
8
10
3118.491731551328
20
-555.999982148287
30
6.00000069209
11
3119.009370711484
21
-555.931834488986
31
6.00000069209
0
LINE
8
8
10
3114.491731551353
20
-544.499982148278
30
6.00000069209
11
3118.491731551353
21
-544.499982148287
31
6.00000069209
0
LINE
8
8
10
3119.009370711484
20
-555.931834488986
30
6.00000069209
11
3119.491731551328
21
-555.732032090306
31
6.00000069209
0
LINE
8
8
10
3119.905946639242
20
-545.085768967748
30
6.00000069209
11
3119.491731551352
21
-544.767931252598
31
6.00000069209
0
LINE
8
8
10
3119.90594663922
20
-555.414195328832
30
6.00000069209
11
3120.223787215393
21
-554.999982148291
31
6.00000069209
0
LINE
8
8
10
3120.491731551348
20
-546.499982148291
30
6.00000069209
11
3120.423585799396
21
-545.982343941809
31
6.00000069209
0
LINE
8
8
10
3120.223787215393
20
-554.999982148291
30
6.00000069209
11
3120.423585799378
21
-554.517619401099
31
6.00000069209
0
LINE
8
8
10
3114.491731551364
20
-539.099982052911
30
6.00000069209
11
3114.491731551353
21
-544.499982148278
31
6.00000069209
0
LINE
8
8
10
3103.491731551364
20
-539.099982052887
30
6.00000069209
11
3114.491731551364
21
-539.099982052911
31
6.00000069209
0
LINE
8
8
10
3103.491731551361
20
-540.599982052887
30
6.00000069209
11
3103.491731551364
21
-539.099982052887
31
6.00000069209
0
LINE
8
8
10
3120.423585799378
20
-554.517619401099
30
6.00000069209
11
3120.491731551332
21
-553.999982148291
31
6.00000069209
0
LINE
8
8
10
3119.009370711509
20
-544.568130284427
30
6.00000069209
11
3118.491731551353
21
-544.499982148287
31
6.00000069209
0
LINE
8
8
10
3100.491731551361
20
-540.599982052881
30
6.00000069209
11
3103.491731551361
21
-540.599982052887
31
6.00000069209
0
LINE
8
8
10
3100.491731551364
20
-539.099982052881
30
6.00000069209
11
3100.491731551361
21
-540.599982052881
31
6.00000069209
0
LINE
8
8
10
2699.077516463496
20
-528.914195327931
30
6.00000069209
11
2699.491731551385
21
-529.232033043081
31
6.00000069209
0
LINE
8
8
10
2699.491731551385
20
-529.232033043081
30
6.00000069209
11
2699.974092391229
21
-529.431834011252
31
6.00000069209
0
LINE
8
8
10
2699.974092391229
20
-529.431834011252
30
6.00000069209
11
2700.491731551385
21
-529.499982147392
31
6.00000069209
0
LINE
8
8
10
2704.491731551384
20
-529.4999821474
30
6.00000069209
11
2700.491731551385
21
-529.499982147392
31
6.00000069209
0
LINE
8
8
10
2704.491731551373
20
-534.899982242768
30
6.00000069209
11
2704.491731551384
21
-529.4999821474
31
6.00000069209
0
LINE
8
8
10
2715.491731551373
20
-534.899982242791
30
6.00000069209
11
2704.491731551373
21
-534.899982242768
31
6.00000069209
0
LINE
8
8
10
2715.491731551376
20
-533.399982242791
30
6.00000069209
11
2715.491731551373
21
-534.899982242791
31
6.00000069209
0
LINE
8
8
10
2718.491731551376
20
-533.399982242798
30
6.00000069209
11
2715.491731551376
21
-533.399982242791
31
6.00000069209
0
LINE
8
8
10
2718.491731551373
20
-534.899982242798
30
6.00000069209
11
2718.491731551376
21
-533.399982242798
31
6.00000069209
0
LINE
8
8
10
2719.491731551374
20
-534.8999822428
30
6.00000069209
11
2718.491731551373
21
-534.899982242798
31
6.00000069209
0
LINE
8
8
10
2719.491731551364
20
-539.099982052065
30
6.00000069209
11
2719.491731551374
21
-534.8999822428
31
6.00000069209
0
LINE
8
8
10
2718.491731551364
20
-539.099982052063
30
6.00000069209
11
2719.491731551364
21
-539.099982052065
31
6.00000069209
0
LINE
8
8
10
2718.491731551361
20
-540.599982052063
30
6.00000069209
11
2718.491731551364
21
-539.099982052063
31
6.00000069209
0
LINE
8
8
10
2715.491731551361
20
-540.599982052057
30
6.00000069209
11
2718.491731551361
21
-540.599982052063
31
6.00000069209
0
LINE
8
8
10
2715.491731551364
20
-539.099982052057
30
6.00000069209
11
2715.491731551361
21
-540.599982052057
31
6.00000069209
0
LINE
8
8
10
2704.491731551364
20
-539.099982052033
30
6.00000069209
11
2715.491731551364
21
-539.099982052057
31
6.00000069209
0
LINE
8
8
10
2704.491731551353
20
-544.4999821474
30
6.00000069209
11
2704.491731551364
21
-539.099982052033
31
6.00000069209
0
LINE
8
8
10
2700.491731551353
20
-544.499982147392
30
6.00000069209
11
2704.491731551353
21
-544.4999821474
31
6.00000069209
0
LINE
8
8
10
2700.491731551353
20
-544.499982147392
30
6.00000069209
11
2699.974092391196
21
-544.56813028353
31
6.00000069209
0
LINE
8
8
10
2699.491731551352
20
-544.767931251699
30
6.00000069209
11
2699.077516463461
21
-545.085768966847
31
6.00000069209
0
LINE
8
8
10
2698.759675887288
20
-545.499982147388
30
6.00000069209
11
2698.559877303303
21
-545.982343940906
31
6.00000069209
0
LINE
8
8
10
2698.559877303303
20
-545.982343940906
30
6.00000069209
11
2698.491731551348
21
-546.499982147388
31
6.00000069209
0
LINE
8
8
10
2698.491731551332
20
-553.999982147388
30
6.00000069209
11
2698.491731551348
21
-546.499982147388
31
6.00000069209
0
LINE
8
8
10
2698.491731551332
20
-553.999982147388
30
6.00000069209
11
2698.559877303284
21
-554.517619400195
31
6.00000069209
0
LINE
8
8
10
2698.559877303284
20
-554.517619400195
30
6.00000069209
11
2698.759675887268
21
-554.999982147388
31
6.00000069209
0
LINE
8
8
10
2698.759675887268
20
-554.999982147388
30
6.00000069209
11
2699.077516463439
21
-555.414195327931
31
6.00000069209
0
LINE
8
8
10
2699.077516463439
20
-555.414195327931
30
6.00000069209
11
2699.491731551329
21
-555.732032089406
31
6.00000069209
0
LINE
8
8
10
2699.491731551329
20
-555.732032089406
30
6.00000069209
11
2699.974092391172
21
-555.931834488089
31
6.00000069209
0
LINE
8
8
10
2704.491731551328
20
-555.9999821474
30
6.00000069209
11
2700.491731551328
21
-555.999982147392
31
6.00000069209
0
LINE
8
8
10
2704.491731551315
20
-561.9999821474
30
6.00000069209
11
2704.491731551328
21
-555.9999821474
31
6.00000069209
0
LINE
8
8
10
3114.491731551315
20
-561.999982148278
30
6.00000069209
11
2704.491731551315
21
-561.9999821474
31
6.00000069209
0
LINE
8
8
10
3114.491731551328
20
-555.999982148278
30
6.00000069209
11
3114.491731551315
21
-561.999982148278
31
6.00000069209
0
LINE
8
8
10
3118.491731551328
20
-555.999982148287
30
6.00000069209
11
3114.491731551328
21
-555.999982148278
31
6.00000069209
0
LINE
8
8
10
2890.559879210721
20
-513.482344894991
30
6.00000069209
11
2890.491731551418
21
-513.999982147799
31
6.00000069209
0
LINE
8
8
10
2891.491731551422
20
-512.267932205784
30
6.00000069209
11
2891.077518370879
21
-512.585768967258
31
6.00000069209
0
LINE
8
8
10
2913.091731456012
20
-531.999982147847
30
6.00000069209
11
2913.091731456018
21
-528.999982147847
31
6.00000069209
0
LINE
8
8
10
2918.47409334494
20
-512.06812980716
30
6.00000069209
11
2917.991731551422
21
-512.267932205841
31
6.00000069209
0
LINE
8
8
10
2911.591731456012
20
-531.999982147844
30
6.00000069209
11
2913.091731456012
21
-531.999982147847
31
6.00000069209
0
LINE
8
8
10
2911.59173145601
20
-532.999982147844
30
6.00000069209
11
2911.591731456012
21
-531.999982147844
31
6.00000069209
0
LINE
8
8
10
2907.391731646745
20
-532.999982147835
30
6.00000069209
11
2911.59173145601
21
-532.999982147844
31
6.00000069209
0
LINE
8
8
10
3099.491731551364
20
-539.099982052879
30
6.00000069209
11
3100.491731551364
21
-539.099982052881
31
6.00000069209
0
LINE
8
8
10
2916.991731551409
20
-517.999982147855
30
6.00000069209
11
2916.991731551418
21
-513.999982147855
31
6.00000069209
0
LINE
8
8
10
2901.991731551409
20
-517.999982147823
30
6.00000069209
11
2907.391731646777
21
-517.999982147835
31
6.00000069209
0
LINE
8
8
10
2918.991731551422
20
-511.99998214786
30
6.00000069209
11
2926.491731551422
21
-511.999982147876
31
6.00000069209
0
LINE
8
8
10
2907.391731646747
20
-531.999982147835
30
6.00000069209
11
2907.391731646745
21
-532.999982147835
31
6.00000069209
0
LINE
8
8
10
2928.423583892117
20
-513.482344895072
30
6.00000069209
11
2928.223781493436
21
-512.999982147879
31
6.00000069209
0
LINE
8
8
10
2927.009368804229
20
-512.068129807179
30
6.00000069209
11
2926.491731551422
21
-511.999982147876
31
6.00000069209
0
LINE
8
8
10
2927.491731551422
20
-512.267932205861
30
6.00000069209
11
2927.009368804229
21
-512.068129807179
31
6.00000069209
0
LINE
8
8
10
2927.905944731963
20
-512.585768967337
30
6.00000069209
11
2927.491731551422
21
-512.267932205861
31
6.00000069209
0
LINE
8
8
10
2928.223781493436
20
-512.999982147879
30
6.00000069209
11
2927.905944731963
21
-512.585768967337
31
6.00000069209
0
LINE
8
8
10
2917.577518370879
20
-512.585768967315
30
6.00000069209
11
2917.259680655729
21
-512.999982147856
31
6.00000069209
0
LINE
8
8
10
2928.491731551418
20
-513.99998214788
30
6.00000069209
11
2928.491731551409
21
-517.99998214788
31
6.00000069209
0
LINE
8
8
10
2917.991731551422
20
-512.267932205841
30
6.00000069209
11
2917.577518370879
21
-512.585768967315
31
6.00000069209
0
LINE
8
8
10
2891.974094298615
20
-512.068129807104
30
6.00000069209
11
2891.491731551422
21
-512.267932205784
31
6.00000069209
0
LINE
8
8
10
2913.091731456018
20
-528.999982147847
30
6.00000069209
11
2911.591731456018
21
-528.999982147844
31
6.00000069209
0
LINE
8
8
10
2917.259680655729
20
-512.999982147856
30
6.00000069209
11
2917.059879687558
21
-513.482344895048
31
6.00000069209
0
LINE
8
8
10
2911.591731456018
20
-528.999982147844
30
6.00000069209
11
2911.591731456042
21
-517.999982147844
31
6.00000069209
0
LINE
8
8
10
2911.591731456042
20
-517.999982147844
30
6.00000069209
11
2916.991731551409
21
-517.999982147855
31
6.00000069209
0
LINE
8
8
10
2917.059879687558
20
-513.482344895048
30
6.00000069209
11
2916.991731551418
21
-513.999982147855
31
6.00000069209
0
LINE
8
8
10
2918.991731551422
20
-511.99998214786
30
6.00000069209
11
2918.47409334494
21
-512.06812980716
31
6.00000069209
0
LINE
8
8
10
2905.891731646747
20
-531.999982147832
30
6.00000069209
11
2907.391731646747
21
-531.999982147835
31
6.00000069209
0
LINE
8
8
10
3120.22378721547
20
-518.999982148291
30
6.00000069209
11
3119.905946639299
21
-518.585768967748
31
6.00000069209
0
LINE
8
8
10
3120.423585799453
20
-519.482344895483
30
6.00000069209
11
3120.22378721547
21
-518.999982148291
31
6.00000069209
0
LINE
8
8
10
2905.891731646753
20
-528.999982147832
30
6.00000069209
11
2905.891731646747
21
-531.999982147832
31
6.00000069209
0
LINE
8
8
10
3120.491731551405
20
-519.999982148291
30
6.00000069209
11
3120.423585799453
21
-519.482344895483
31
6.00000069209
0
LINE
8
8
10
3120.491731551405
20
-519.999982148291
30
6.00000069209
11
3120.491731551389
21
-527.499982148291
31
6.00000069209
0
LINE
8
8
10
2907.391731646753
20
-528.999982147835
30
6.00000069209
11
2905.891731646753
21
-528.999982147832
31
6.00000069209
0
LINE
8
8
10
3120.423585799435
20
-528.017620354773
30
6.00000069209
11
3120.491731551389
21
-527.499982148291
31
6.00000069209
0
LINE
8
8
10
3120.223787215449
20
-528.499982148291
30
6.00000069209
11
3120.423585799435
21
-528.017620354773
31
6.00000069209
0
LINE
8
8
10
2907.391731646777
20
-517.999982147835
30
6.00000069209
11
2907.391731646753
21
-528.999982147835
31
6.00000069209
0
LINE
8
8
10
3119.905946639276
20
-528.914195328832
30
6.00000069209
11
3120.223787215449
21
-528.499982148291
31
6.00000069209
0
LINE
8
8
10
3119.491731551385
20
-529.23203304398
30
6.00000069209
11
3119.905946639276
21
-528.914195328832
31
6.00000069209
0
LINE
8
8
10
2901.991731551418
20
-513.999982147823
30
6.00000069209
11
2901.92358341528
21
-513.482344895016
31
6.00000069209
0
LINE
8
8
10
3119.009370711541
20
-529.431834012149
30
6.00000069209
11
3119.491731551385
21
-529.23203304398
31
6.00000069209
0
LINE
8
8
10
3118.491731551385
20
-529.499982148287
30
6.00000069209
11
3119.009370711541
21
-529.431834012149
31
6.00000069209
0
LINE
8
8
10
2901.92358341528
20
-513.482344895016
30
6.00000069209
11
2901.723782447111
21
-512.999982147823
31
6.00000069209
0
LINE
8
8
10
3118.491731551385
20
-529.499982148287
30
6.00000069209
11
3114.491731551385
21
-529.499982148278
31
6.00000069209
0
LINE
8
8
10
3114.491731551385
20
-529.499982148278
30
6.00000069209
11
3114.491731551374
21
-534.899982243646
31
6.00000069209
0
LINE
8
8
10
3119.491731551352
20
-544.767931252598
30
6.00000069209
11
3119.009370711509
21
-544.568130284427
31
6.00000069209
0
LINE
8
8
10
3120.223787215413
20
-545.499982148291
30
6.00000069209
11
3119.905946639242
21
-545.085768967748
31
6.00000069209
0
LINE
8
8
10
3120.423585799396
20
-545.982343941809
30
6.00000069209
11
3120.223787215413
21
-545.499982148291
31
6.00000069209
0
LINE
8
9
10
2692.491856549732
20
-684.644587422174
30
5.99998101513
11
2692.491856549735
21
-673.311252065884
31
5.999981015367
0
LINE
8
9
10
2692.491856549735
20
-673.311252065884
30
5.999981015367
11
3114.49174029372
21
-673.311252065987
31
5.99998100742
0
LINE
8
9
10
3114.49174029372
20
-673.311252065987
30
5.99998100742
11
3114.49174029371
21
-713.311258175585
31
5.999981006583
0
LINE
8
9
10
3114.49174029371
20
-713.311258175585
30
5.999981006583
11
2692.491856549725
21
-713.311258175482
31
5.99998155758
0
LINE
8
9
10
2692.491856549725
20
-713.311258175482
30
5.99998155758
11
2692.491856549728
21
-701.977922778463
31
5.999981096225
0
LINE
8
9
10
2692.491856549728
20
-701.977922778463
30
5.999981096225
11
2692.50896682698
21
-701.716870394023
31
5.999981085587
0
LINE
8
9
10
2692.560004897149
20
-701.460284688258
30
5.999981075108
11
2692.50896682698
21
-701.716870394023
31
5.999981085587
0
LINE
8
9
10
2692.644097484705
20
-701.212555913733
30
5.999981064968
11
2692.560004897149
21
-701.460284688258
31
5.999981075108
0
LINE
8
9
10
2692.759805742159
20
-700.977922778463
30
5.99998105534
11
2692.644097484705
21
-701.212555913733
31
5.999981064968
0
LINE
8
9
10
2692.905149869146
20
-700.760399920446
30
5.999981046388
11
2692.759805742159
21
-700.977922778463
31
5.99998105534
0
LINE
8
9
10
2692.64409748471
20
-685.409954286904
30
5.999981015013
11
2692.560004897153
21
-685.162225512379
31
5.999981015074
0
LINE
8
9
10
2692.759805742163
20
-685.644587422174
30
5.999981014932
11
2692.64409748471
21
-685.409954286904
31
5.999981015013
0
LINE
8
9
10
2693.274333691714
20
-686.231294102756
30
5.999981014579
11
2693.077642987359
21
-686.058800984547
31
5.999981014712
0
LINE
8
9
10
2693.077642987359
20
-686.058800984547
30
5.999981014712
11
2692.905149869149
21
-685.862110280191
31
5.999981014831
0
LINE
8
9
10
2692.508966826984
20
-684.905639806614
30
5.999981015113
11
2692.491856549732
21
-684.644587422174
31
5.99998101513
0
LINE
8
9
10
2692.560004897153
20
-685.162225512379
30
5.999981015074
11
2692.508966826984
21
-684.905639806614
31
5.999981015113
0
LINE
8
9
10
2694.491856549728
20
-699.977922778464
30
5.999981013485
11
2698.491856548797
21
-699.977922778465
31
5.999981010835
0
LINE
8
9
10
2693.726489685001
20
-686.492346487197
30
5.999981014274
11
2693.491856549731
21
-686.376638229743
31
5.999981014431
0
LINE
8
9
10
2692.905149869149
20
-685.862110280191
30
5.999981014831
11
2692.759805742163
21
-685.644587422174
31
5.999981014932
0
LINE
8
9
10
2693.491856549731
20
-686.376638229743
30
5.999981014431
11
2693.274333691714
21
-686.231294102756
31
5.999981014579
0
LINE
8
9
10
2693.974218459526
20
-686.576439074752
30
5.999981014108
11
2693.726489685001
21
-686.492346487197
31
5.999981014274
0
LINE
8
9
10
2694.230804165291
20
-686.627477144922
30
5.999981013937
11
2693.974218459526
21
-686.576439074752
31
5.999981014108
0
LINE
8
9
10
2694.230804165291
20
-686.627477144922
30
5.999981013937
11
2694.491856549731
21
-686.644587422174
31
5.999981013764
0
LINE
8
9
10
2694.491856549731
20
-686.644587422174
30
5.999981013764
11
2698.4918565488
21
-686.644587422175
31
5.999981011114
0
LINE
8
9
10
2698.491856548797
20
-699.977922778465
30
5.999981010835
11
2698.4918565488
21
-686.644587422175
31
5.999981011114
0
LINE
8
9
10
2694.230804165288
20
-699.995033055716
30
5.999981014354
11
2694.491856549728
21
-699.977922778464
31
5.999981013485
0
LINE
8
9
10
2694.230804165288
20
-699.995033055716
30
5.999981014354
11
2693.974218459523
21
-700.046071125885
31
5.999981016602
0
LINE
8
9
10
2693.974218459523
20
-700.046071125885
30
5.999981016602
11
2693.726489684998
21
-700.130163713441
31
5.999981020189
0
LINE
8
9
10
2693.726489684998
20
-700.130163713441
30
5.999981020189
11
2693.491856549728
21
-700.245871970895
31
5.999981025055
0
LINE
8
9
10
2693.491856549728
20
-700.245871970895
30
5.999981025055
11
2693.274333691711
21
-700.391216097881
31
5.999981031115
0
LINE
8
9
10
2693.274333691711
20
-700.391216097881
30
5.999981031115
11
2693.077642987355
21
-700.56370921609
31
5.999981038267
0
LINE
8
9
10
2693.077642987355
20
-700.56370921609
30
5.999981038267
11
2692.905149869146
21
-700.760399920446
31
5.999981046388
0
LINE
8
10
10
3120.078438228827
20
-469.217502807334
30
6.00000068042
11
3120.223782362156
21
-468.999979953555
31
6.000000677179
0
LINE
8
10
10
3119.905945104882
20
-469.41419350666
30
6.000000683351
11
3120.078438228827
21
-469.217502807334
31
6.00000068042
0
LINE
8
10
10
3118.752783910367
20
-469.98286963341
30
6.000000691825
11
3119.00936961762
21
-469.931831570722
31
6.000000691065
0
LINE
8
10
10
3118.491731525428
20
-469.99997990305
30
6.00000069208
11
3118.752783910367
21
-469.98286963341
31
6.000000691825
0
LINE
8
10
10
3114.491731551328
20
-469.999979786413
30
6.00000069208
11
3118.491731525428
21
-469.99997990305
31
6.00000069208
0
LINE
8
10
10
3119.709254395496
20
-469.586686619134
30
6.000000685921
11
3119.905945104882
21
-469.41419350666
31
6.000000683351
0
LINE
8
10
10
3119.491731533241
20
-469.732030739778
30
6.000000688087
11
3119.709254395496
21
-469.586686619134
31
6.000000685921
0
LINE
8
10
10
3119.257098394598
20
-469.84773899039
30
6.000000689812
11
3119.491731533241
21
-469.732030739778
31
6.000000688087
0
LINE
8
10
10
3119.00936961762
20
-469.931831570722
30
6.000000691065
11
3119.257098394598
21
-469.84773899039
31
6.000000689812
0
LINE
8
10
10
2699.726363800693
20
-469.847726894566
30
6.000000056154
11
2699.491730665274
21
-469.732018637414
31
6.000000060386
0
LINE
8
10
10
3120.423583499269
20
-458.982343121865
30
6.000000527901
11
3120.339490918936
21
-458.734614347376
31
6.00000052421
0
LINE
8
10
10
3120.223782668324
20
-458.499981212157
30
6.000000520714
11
3120.078438547681
21
-458.282458354202
31
6.000000517472
0
LINE
8
10
10
3119.709254735881
20
-457.913274531797
30
6.000000511971
11
3119.491731882101
21
-457.767930404905
31
6.000000509805
0
LINE
8
10
10
2700.230678281157
20
-469.982857551641
30
6.000000051213
11
2700.491730665619
21
-469.999967828557
31
6.000000050587
0
LINE
8
10
10
2699.974092575327
20
-469.931819481802
30
6.00000005308
11
2699.726363800693
21
-469.847726894566
31
6.000000056154
0
LINE
8
10
10
3119.905945435207
20
-458.085767649922
30
6.000000514541
11
3119.709254735881
21
-457.913274531797
31
6.000000511971
0
LINE
8
10
10
2913.491731266622
20
-451.499981126637
30
6.000001036724
11
2905.491731266622
21
-451.49998112299
31
6.00000103676
0
LINE
8
10
10
2915.223782074706
20
-452.499981126416
30
6.000000948384
11
2915.078437947608
21
-452.282458268418
31
6.000000967599
0
LINE
8
10
10
2698.905023984029
20
-469.217490688619
30
6.0000000792
11
2698.759679856762
21
-468.999967830788
31
6.000000087155
0
LINE
8
10
10
2698.559879011132
20
-468.517605921251
30
6.000000104793
11
2698.508840940632
21
-468.261020215551
31
6.000000114176
0
LINE
8
10
10
2904.49173126676
20
-451.767930315549
30
6.000001013096
11
2904.72636440197
21
-451.652222058065
31
6.000001023315
0
LINE
8
10
10
2914.009369356862
20
-451.568129473993
30
6.000001030702
11
2913.752783651071
21
-451.517091403856
31
6.000001035212
0
LINE
8
10
10
2698.50884092901
20
-459.23892865254
30
6.000000444089
11
2698.491730652094
21
-459.499981036988
31
6.000000434543
0
LINE
8
10
10
2915.474620990266
20
-453.238928741945
30
6.000000883109
11
2915.423582919965
21
-452.982343036186
31
6.000000905774
0
LINE
8
10
10
2903.491731269716
20
-457.499981123245
30
6.000000506772
11
2903.491731267653
21
-453.499981123245
31
6.000000860103
0
LINE
8
10
10
2699.077517102492
20
-469.414181392752
30
6.000000072008
11
2698.905023984029
21
-469.217490688619
31
6.0000000792
0
LINE
8
10
10
2903.491731267653
20
-453.499981123245
30
6.000000860103
11
2903.508841544771
21
-453.238928738802
31
6.000000883163
0
LINE
8
10
10
3120.474621561956
20
-459.238928827608
30
6.000000531725
11
3120.423583499269
21
-458.982343121865
31
6.000000527901
0
LINE
8
10
10
3119.009369978133
20
-457.568129560105
30
6.000000506828
11
3118.752784273856
21
-457.517091490047
31
6.000000506067
0
LINE
8
10
10
2699.491730665274
20
-469.732018637414
30
6.000000060386
11
2699.274207807069
21
-469.586674510708
31
6.0000000657
0
LINE
8
10
10
2905.491731266622
20
-451.49998112299
30
6.00000103676
11
2905.230678882191
21
-451.517091400276
31
6.00000103525
0
LINE
8
10
10
2904.274208408818
20
-451.913274442563
30
6.000001000258
11
2904.49173126676
21
-451.767930315549
31
6.000001013096
0
LINE
8
10
10
2698.759679856762
20
-468.999967830788
30
6.000000087155
11
2698.643971599006
21
-468.765334695667
31
6.000000095735
0
LINE
8
10
10
2915.339490332281
20
-452.734614261672
30
6.000000927657
11
2915.223782074706
21
-452.499981126416
31
6.000000948384
0
LINE
8
10
10
2914.709254124852
20
-451.913274445899
30
6.000001000211
11
2914.49173126676
21
-451.767930318941
31
6.000001013051
0
LINE
8
10
10
3120.078438547681
20
-458.282458354202
30
6.000000517472
11
3119.905945435207
21
-458.085767649922
31
6.000000514541
0
LINE
8
10
10
2904.72636440197
20
-451.652222058065
30
6.000001023315
11
2904.974093176452
21
-451.568129470478
31
6.000001030742
0
LINE
8
10
10
2914.257098131431
20
-451.652222061517
30
6.000001023273
11
2914.009369356862
21
-451.568129473993
31
6.000001030702
0
LINE
8
10
10
2903.643972202236
20
-452.734614258495
30
6.00000092771
11
2903.759680459569
21
-452.499981123211
31
6.000000948435
0
LINE
8
10
10
2914.49173126676
20
-451.767930318941
30
6.000001013051
11
2914.257098131431
21
-451.652222061517
31
6.000001023273
0
LINE
8
10
10
2913.752783651071
20
-451.517091403856
30
6.000001035212
11
2913.491731266622
21
-451.499981126637
31
6.000001036724
0
LINE
8
10
10
2914.905944829297
20
-452.085767564084
30
6.000000984974
11
2914.709254124852
21
-451.913274445899
31
6.000001000211
0
LINE
8
10
10
2904.974093176452
20
-451.568129470478
30
6.000001030742
11
2905.230678882191
21
-451.517091400276
31
6.00000103525
0
LINE
8
10
10
2904.077517704551
20
-452.085767560797
30
6.000000985022
11
2904.274208408818
21
-451.913274442563
31
6.000001000258
0
LINE
8
10
10
2903.905024586443
20
-452.282458265175
30
6.000000967649
11
2904.077517704551
21
-452.085767560797
31
6.000000985022
0
LINE
8
10
10
2903.759680459569
20
-452.499981123211
30
6.000000948435
11
2903.905024586443
21
-452.282458265175
31
6.000000967649
0
LINE
8
10
10
2903.559879614808
20
-452.982343033031
30
6.000000905827
11
2903.643972202236
21
-452.734614258495
31
6.00000092771
0
LINE
8
10
10
2903.508841544771
20
-453.238928738802
30
6.000000883163
11
2903.559879614808
21
-452.982343033031
31
6.000000905827
0
LINE
8
10
10
2903.491731269716
20
-457.499981123245
30
6.000000506772
11
2700.491730649518
21
-457.499981036121
31
6.000000507678
0
LINE
8
10
10
2700.491730649518
20
-457.499981036121
30
6.000000507678
11
2700.2306782651
21
-457.517091313486
31
6.000000507052
0
LINE
8
10
10
2699.974092559401
20
-457.568129383767
30
6.000000505186
11
2700.2306782651
21
-457.517091313486
31
6.000000507052
0
LINE
8
10
10
2699.726363784984
20
-457.65222197143
30
6.000000502111
11
2699.974092559401
21
-457.568129383767
31
6.000000505186
0
LINE
8
10
10
2699.491730649863
20
-457.767930228985
30
6.00000049788
11
2699.726363784984
21
-457.65222197143
31
6.000000502111
0
LINE
8
10
10
2699.274207792033
20
-457.913274356066
30
6.000000492565
11
2699.491730649863
21
-457.767930228985
31
6.00000049788
0
LINE
8
10
10
2699.0775170879
20
-458.085767474361
30
6.000000486257
11
2699.274207792033
21
-457.913274356066
31
6.000000492565
0
LINE
8
10
10
2698.905023969944
20
-458.282458178791
30
6.000000479065
11
2699.0775170879
21
-458.085767474361
31
6.000000486257
0
LINE
8
10
10
2698.759679843237
20
-458.499981036872
30
6.000000471111
11
2698.905023969944
21
-458.282458178791
31
6.000000479065
0
LINE
8
10
10
2698.643971586086
20
-458.734614172192
30
6.000000462531
11
2698.759679843237
21
-458.499981036872
31
6.000000471111
0
LINE
8
10
10
2698.559878998849
20
-458.982342946753
30
6.000000453472
11
2698.643971586086
21
-458.734614172192
31
6.000000462531
0
LINE
8
10
10
2698.50884092901
20
-459.23892865254
30
6.000000444089
11
2698.559878998849
21
-458.982342946753
31
6.000000453472
0
LINE
8
10
10
2698.491730652094
20
-459.499981036988
30
6.000000434543
11
2698.491730663043
21
-467.999967831133
31
6.000000123722
0
LINE
8
10
10
2698.491730663043
20
-467.999967831133
30
6.000000123722
11
2698.508840940632
21
-468.261020215551
31
6.000000114176
0
LINE
8
10
10
2698.643971599006
20
-468.765334695667
30
6.000000095735
11
2698.559879011132
21
-468.517605921251
31
6.000000104793
0
LINE
8
10
10
2699.274207807069
20
-469.586674510708
30
6.0000000657
11
2699.077517102492
21
-469.414181392752
31
6.000000072008
0
LINE
8
10
10
2700.230678281157
20
-469.982857551641
30
6.000000051213
11
2699.974092575327
21
-469.931819481802
31
6.00000005308
0
LINE
8
10
10
2700.491730665619
20
-469.999967828557
30
6.000000050587
11
2704.491730665619
21
-469.999967823405
31
6.000000050587
0
LINE
8
10
10
2704.491730665619
20
-469.999967823405
30
6.000000050587
11
2704.491730668839
21
-472.499981029259
31
5.999999187138
0
LINE
8
10
10
3114.491731935136
20
-472.499981037085
30
5.999999185272
11
2704.491730668839
21
-472.499981029259
31
5.999999187138
0
LINE
8
10
10
3114.491731551328
20
-469.999979786413
30
6.00000069208
11
3114.491731935136
21
-472.499981037085
31
5.999999185272
0
LINE
8
10
10
3120.223782362156
20
-468.999979953555
30
6.000000677179
11
3120.339490626451
21
-468.765346821659
31
6.000000673682
0
LINE
8
10
10
3120.339490626451
20
-468.765346821659
30
6.000000673682
11
3120.42358322123
21
-468.517618049586
31
6.000000669991
0
LINE
8
10
10
3120.42358322123
20
-468.517618049586
30
6.000000669991
11
3120.474621298881
21
-468.261032345309
31
6.000000666167
0
LINE
8
10
10
3120.491731583746
20
-467.999979961368
30
6.000000662277
11
3120.474621298881
21
-468.261032345309
31
6.000000666167
0
LINE
8
10
10
3120.491731831597
20
-459.499981212041
30
6.000000535615
11
3120.491731583746
21
-467.999979961368
31
6.000000662277
0
LINE
8
10
10
3120.474621561956
20
-459.238928827608
30
6.000000531725
11
3120.491731831597
21
-459.499981212041
31
6.000000535615
0
LINE
8
10
10
3120.339490918936
20
-458.734614347376
30
6.00000052421
11
3120.223782668324
21
-458.499981212157
31
6.000000520714
0
LINE
8
10
10
3119.491731882101
20
-457.767930404905
30
6.000000509805
11
3119.257098750205
21
-457.652222147553
31
6.000000508081
0
LINE
8
10
10
3119.257098750205
20
-457.652222147553
30
6.000000508081
11
3119.009369978133
21
-457.568129560105
31
6.000000506828
0
LINE
8
10
10
3118.752784273856
20
-457.517091490047
30
6.000000506067
11
3118.491731889915
21
-457.499981212908
31
6.000000505812
0
LINE
8
10
10
3118.491731889915
20
-457.499981212908
30
6.000000505812
11
2915.491731269717
21
-457.499981126382
31
6.000000506718
0
LINE
8
10
10
2915.491731269717
20
-457.499981126382
30
6.000000506718
11
2915.491731267653
21
-453.499981126382
31
6.00000086005
0
LINE
8
10
10
2915.491731267653
20
-453.499981126382
30
6.00000086005
11
2915.474620990266
21
-453.238928741945
31
6.000000883109
0
LINE
8
10
10
2915.423582919965
20
-452.982343036186
30
6.000000905774
11
2915.339490332281
21
-452.734614261672
31
6.000000927657
0
LINE
8
10
10
2915.078437947608
20
-452.282458268418
30
6.000000967599
11
2914.905944829297
21
-452.085767564084
31
6.000000984974
0
ENDSEC
0
EOF
