0
SECTION
2
ENTITIES
0
LINE
8
0
10
3055.169245082315
20
-1631.918674507273
30
6.000003713241
11
3054.959454201435
21
-1632.425154515201
31
6.000003730027
0
LINE
8
0
10
3054.959454201435
20
-1632.425154515201
30
6.000003730027
11
3054.887898443488
21
-1632.968674510817
31
6.000003745747
0
LINE
8
0
10
3054.887898443488
20
-1632.968674510817
30
6.000003745747
11
3054.959454215128
21
-1633.512194504631
31
6.000003759329
0
LINE
8
0
10
3054.959454215128
20
-1633.512194504631
30
6.000003759329
11
3055.169245108767
21
-1634.018674507273
31
6.000003769848
0
LINE
8
0
10
3055.169245108767
20
-1634.018674507273
30
6.000003769848
11
3055.502974221701
21
-1634.453598743561
31
6.000003776586
0
LINE
8
0
10
3055.502974221701
20
-1634.453598743561
30
6.000003776586
11
3055.937898466395
21
-1634.787327845539
31
6.000003779084
0
LINE
8
0
10
3055.937898466395
20
-1634.787327845539
30
6.000003779084
11
3056.444378474323
21
-1634.997118726419
31
6.000003777173
0
LINE
8
0
10
3056.444378474323
20
-1634.997118726419
30
6.000003777173
11
3056.987898469939
21
-1635.068674484366
31
6.000003770982
0
LINE
8
0
10
3056.987898469939
20
-1635.068674484366
30
6.000003770982
11
3057.531418463754
21
-1634.997118712727
31
6.000003760934
0
LINE
8
0
10
3057.531418463754
20
-1634.997118712727
30
6.000003760934
11
3058.037898466396
21
-1634.787327819088
31
6.000003747713
0
LINE
8
0
10
3058.037898466396
20
-1634.787327819088
30
6.000003747713
11
3058.472822702684
21
-1634.453598706154
31
6.00000373222
0
LINE
8
0
10
3058.472822702684
20
-1634.453598706154
30
6.00000373222
11
3058.806551804661
21
-1634.018674461458
31
6.00000371551
0
LINE
8
0
10
3058.806551804661
20
-1634.018674461458
30
6.00000371551
11
3059.016342685542
21
-1633.512194453531
31
6.000003698724
0
LINE
8
0
10
3059.016342685542
20
-1633.512194453531
30
6.000003698724
11
3059.087898443488
21
-1632.968674457915
31
6.000003683004
0
LINE
8
0
10
3059.087898443488
20
-1632.968674457915
30
6.000003683004
11
3059.016342671849
21
-1632.4251544641
31
6.000003669422
0
LINE
8
0
10
3059.016342671849
20
-1632.4251544641
30
6.000003669422
11
3058.80655177821
21
-1631.918674461459
31
6.000003658904
0
LINE
8
0
10
3058.80655177821
20
-1631.918674461459
30
6.000003658904
11
3058.472822665276
21
-1631.48375022517
31
6.000003652165
0
LINE
8
0
10
3058.472822665276
20
-1631.48375022517
30
6.000003652165
11
3058.03789842058
21
-1631.150021123193
31
6.000003649667
0
LINE
8
0
10
3058.03789842058
20
-1631.150021123193
30
6.000003649667
11
3057.531418412653
21
-1630.940230242313
31
6.000003651578
0
LINE
8
0
10
3057.531418412653
20
-1630.940230242313
30
6.000003651578
11
3056.987898417037
21
-1630.868674484366
31
6.000003657769
0
LINE
8
0
10
3056.987898417037
20
-1630.868674484366
30
6.000003657769
11
3056.444378423223
21
-1630.940230256005
31
6.000003667817
0
LINE
8
0
10
3056.444378423223
20
-1630.940230256005
30
6.000003667817
11
3055.937898420581
21
-1631.150021149644
31
6.000003681038
0
LINE
8
0
10
3055.937898420581
20
-1631.150021149644
30
6.000003681038
11
3055.502974184293
21
-1631.483750262578
31
6.000003696532
0
LINE
8
0
10
3055.502974184293
20
-1631.483750262578
30
6.000003696532
11
3055.169245082315
21
-1631.918674507273
31
6.000003713241
0
LINE
8
0
10
2801.169231565397
20
-1631.91867450827
30
6.000007507709
11
2800.959440684517
21
-1632.425154516197
31
6.000007524496
0
LINE
8
0
10
2800.959440684517
20
-1632.425154516197
30
6.000007524496
11
2800.88788492657
21
-1632.968674511814
31
6.000007540216
0
LINE
8
0
10
2800.88788492657
20
-1632.968674511814
30
6.000007540216
11
2800.959440698209
21
-1633.512194505628
31
6.000007553798
0
LINE
8
0
10
2800.959440698209
20
-1633.512194505628
30
6.000007553798
11
2801.169231591848
21
-1634.01867450827
31
6.000007564316
0
LINE
8
0
10
2801.169231591848
20
-1634.01867450827
30
6.000007564316
11
2801.502960704782
21
-1634.453598744558
31
6.000007571054
0
LINE
8
0
10
2801.502960704782
20
-1634.453598744558
30
6.000007571054
11
2801.937884949477
21
-1634.787327846535
31
6.000007573553
0
LINE
8
0
10
2801.937884949477
20
-1634.787327846535
30
6.000007573553
11
2802.444364957404
21
-1634.997118727415
31
6.000007571642
0
LINE
8
0
10
2802.444364957404
20
-1634.997118727415
30
6.000007571642
11
2802.987884953021
21
-1635.068674485362
31
6.000007565451
0
LINE
8
0
10
2802.987884953021
20
-1635.068674485362
30
6.000007565451
11
2803.531404946835
21
-1634.997118713723
31
6.000007555403
0
LINE
8
0
10
2803.531404946835
20
-1634.997118713723
30
6.000007555403
11
2804.037884949477
21
-1634.787327820084
31
6.000007542181
0
LINE
8
0
10
2804.037884949477
20
-1634.787327820084
30
6.000007542181
11
2804.472809185765
21
-1634.45359870715
31
6.000007526688
0
LINE
8
0
10
2804.472809185765
20
-1634.45359870715
30
6.000007526688
11
2804.806538287742
21
-1634.018674462455
31
6.000007509979
0
LINE
8
0
10
2804.806538287742
20
-1634.018674462455
30
6.000007509979
11
2805.016329168622
21
-1633.512194454528
31
6.000007493192
0
LINE
8
0
10
2805.016329168622
20
-1633.512194454528
30
6.000007493192
11
2805.087884926569
21
-1632.968674458911
31
6.000007477473
0
LINE
8
0
10
2805.087884926569
20
-1632.968674458911
30
6.000007477473
11
2805.016329154931
21
-1632.425154465097
31
6.000007463891
0
LINE
8
0
10
2805.016329154931
20
-1632.425154465097
30
6.000007463891
11
2804.806538261291
21
-1631.918674462455
31
6.000007453372
0
LINE
8
0
10
2804.806538261291
20
-1631.918674462455
30
6.000007453372
11
2804.472809148358
21
-1631.483750226167
31
6.000007446634
0
LINE
8
0
10
2804.472809148358
20
-1631.483750226167
30
6.000007446634
11
2804.037884903662
21
-1631.15002112419
31
6.000007444135
0
LINE
8
0
10
2804.037884903662
20
-1631.15002112419
30
6.000007444135
11
2803.531404895735
21
-1630.94023024331
31
6.000007446047
0
LINE
8
0
10
2803.531404895735
20
-1630.94023024331
30
6.000007446047
11
2802.987884900118
21
-1630.868674485363
31
6.000007452237
0
LINE
8
0
10
2802.987884900118
20
-1630.868674485363
30
6.000007452237
11
2802.444364906304
21
-1630.940230257002
31
6.000007462286
0
LINE
8
0
10
2802.444364906304
20
-1630.940230257002
30
6.000007462286
11
2801.937884903663
21
-1631.150021150641
31
6.000007475507
0
LINE
8
0
10
2801.937884903663
20
-1631.150021150641
30
6.000007475507
11
2801.502960667374
21
-1631.483750263575
31
6.000007491
0
LINE
8
0
10
2801.502960667374
20
-1631.483750263575
30
6.000007491
11
2801.169231565397
21
-1631.91867450827
31
6.000007507709
0
LINE
8
0
10
2743.270783922643
20
-1450.708474351168
30
6.000000579352
11
2743.287894201007
21
-1450.969526735533
31
6.000000586845
0
LINE
8
0
10
2743.21974585138
20
-1450.451888645621
30
6.000000572557
11
2743.270783922643
21
-1450.708474351168
31
6.000000579352
0
LINE
8
0
10
2743.135653262768
20
-1450.204159871452
30
6.000000566581
11
2743.21974585138
21
-1450.451888645621
31
6.000000572557
0
LINE
8
0
10
2743.019945004315
20
-1449.969526736677
30
6.000000561522
11
2743.135653262768
21
-1450.204159871452
31
6.000000566581
0
LINE
8
0
10
2742.874600876401
20
-1449.752003879279
30
6.000000557469
11
2743.019945004315
21
-1449.969526736677
31
6.000000561522
0
LINE
8
0
10
2742.702107757354
20
-1449.555313175656
30
6.000000554492
11
2742.874600876401
21
-1449.752003879279
31
6.000000557469
0
LINE
8
0
10
2742.505417052264
20
-1449.382820058285
30
6.00000055264
11
2742.702107757354
21
-1449.555313175656
31
6.000000554492
0
LINE
8
0
10
2742.287894193627
20
-1449.237475932227
30
6.000000551944
11
2742.505417052264
21
-1449.382820058285
31
6.00000055264
0
LINE
8
0
10
2742.053261057864
20
-1449.121767675772
30
6.000000552419
11
2742.287894193627
21
-1449.237475932227
31
6.000000551944
0
LINE
8
0
10
2741.805532282981
20
-1449.037675089274
30
6.000000554054
11
2742.053261057864
21
-1449.121767675772
31
6.000000552419
0
LINE
8
0
10
2741.548946576998
20
-1448.986637020197
30
6.000000556824
11
2741.805532282981
21
-1449.037675089274
31
6.000000554054
0
LINE
8
0
10
2741.548946576998
20
-1448.986637020197
30
6.000000556824
11
2741.287894192486
21
-1448.969526744055
31
6.00000056068
0
LINE
8
0
10
2741.287894192486
20
-1448.969526744055
30
6.00000056068
11
2735.487888296456
21
-1448.96952676877
31
6.000000657658
0
LINE
8
0
10
2735.487888296456
20
-1448.96952676877
30
6.000000657658
11
2735.226835912271
21
-1448.986637049912
31
6.000000662057
0
LINE
8
0
10
2734.970250207267
20
-1449.037675123908
30
6.000000667398
11
2735.226835912271
21
-1448.986637049912
31
6.000000662057
0
LINE
8
0
10
2734.722521433996
20
-1449.121767715153
30
6.000000673594
11
2734.970250207267
21
-1449.037675123908
31
6.000000667398
0
LINE
8
0
10
2734.48788830045
20
-1449.237475976106
30
6.000000680537
11
2734.722521433996
21
-1449.121767715153
31
6.000000673594
0
LINE
8
0
10
2734.270365444599
20
-1449.382820106332
30
6.000000688109
11
2734.48788830045
21
-1449.237475976106
31
6.000000680537
0
LINE
8
0
10
2734.073674742814
20
-1449.555313227473
30
6.00000069618
11
2734.270365444599
21
-1449.382820106332
31
6.000000688109
0
LINE
8
0
10
2733.901181627535
20
-1449.752003934401
30
6.000000704609
11
2734.073674742814
21
-1449.555313227473
31
6.00000069618
0
LINE
8
0
10
2733.755837503791
20
-1449.969526794585
30
6.000000713258
11
2733.901181627535
21
-1449.752003934401
31
6.000000704609
0
LINE
8
0
10
2733.640129249834
20
-1450.204159931577
30
6.000000721975
11
2733.755837503791
21
-1449.969526794585
31
6.000000713258
0
LINE
8
0
10
2733.556036665971
20
-1450.451888707357
30
6.000000730609
11
2733.640129249834
21
-1450.204159931577
31
6.000000721975
0
LINE
8
0
10
3138.887888078322
20
-1525.969520593131
30
5.999999606657
11
3138.959451799027
21
-1526.513038659538
31
5.999999620239
0
LINE
8
0
10
3142.806558732623
20
-1527.019508386086
30
5.99999957642
11
3143.016336564652
21
-1526.513038659522
31
5.999999559634
0
LINE
8
0
10
3143.087900284197
20
-1231.169532800144
30
5.999991597404
11
3143.016336563492
21
-1230.626014733736
31
5.999991583822
0
LINE
8
0
10
3139.50296986427
20
-1229.68460848375
30
5.999991610932
11
3139.169229629896
21
-1230.119545007195
31
5.999991627641
0
LINE
8
0
10
3141.531412247084
20
-1229.141090417338
30
5.999991565978
11
3140.987894180674
21
-1229.069496179063
31
5.999991572168
0
LINE
8
0
10
3141.531412248252
20
-1527.997962975933
30
5.999999621844
11
3142.037881974814
21
-1527.788185143899
31
5.999999608623
0
LINE
8
0
10
3143.016336563497
20
-1231.713050866549
30
5.999991613124
11
3143.087900284197
21
-1231.169532800144
31
5.999991597404
0
LINE
8
0
10
3142.037881973643
20
-1229.350868249372
30
5.999991564067
11
3141.531412247084
21
-1229.141090417338
31
5.999991565978
0
LINE
8
0
10
3143.016336564652
20
-1526.513038659522
30
5.999999559634
11
3143.087900285353
21
-1525.969520593112
31
5.999999543914
0
LINE
8
0
10
2839.98789418059
20
-1207.969520594299
30
5.9999955
11
2827.487894180589
21
-1207.96952059435
31
5.999995686735
0
LINE
8
0
10
3138.959451797866
20
-1230.626014733754
30
5.999991644427
11
3138.887888077166
21
-1231.169532800161
31
5.999991660147
0
LINE
8
0
10
3140.444376114271
20
-1229.141090417342
30
5.999991582217
11
3139.937906387706
21
-1229.35086824938
31
5.999991595438
0
LINE
8
0
10
3140.987894180694
20
-1233.269508386095
30
5.999991685382
11
3141.531412247096
21
-1233.197975182963
31
5.999991675334
0
LINE
8
0
10
2839.987894180565
20
-1201.969520594299
30
5.999995338266
11
2839.98789418059
21
-1207.969520594299
31
5.9999955
0
LINE
8
0
10
3138.959451799023
20
-1525.426002526725
30
5.999999590937
11
3138.887888078322
21
-1525.969520593131
31
5.999999606657
0
LINE
8
0
10
3139.50296986544
20
-1527.454444909535
30
5.999999637496
11
3139.937906388877
21
-1527.788185143907
31
5.999999639995
0
LINE
8
0
10
3142.472818497082
20
-1229.684608483741
30
5.999991566565
11
3142.037881973643
21
-1229.350868249372
31
5.999991564067
0
LINE
8
0
10
3138.959451799027
20
-1526.513038659538
30
5.999999620239
11
3139.16922963106
21
-1527.019508386099
31
5.999999630758
0
LINE
8
0
10
3165.987889287605
20
-1592.968674426172
30
5.999996784706
11
3165.987894181038
21
-1321.969520593028
31
5.999992306168
0
LINE
8
0
10
3139.169229629908
20
-1232.219520593133
30
5.999991684247
11
3139.502969864281
21
-1232.654457116562
31
5.999991690986
0
LINE
8
0
10
3142.806558731459
20
-1230.11954500718
30
5.999991573304
11
3142.472818497082
21
-1229.684608483741
31
5.999991566565
0
LINE
8
0
10
3142.472818498238
20
-1524.484596276711
30
5.999999513076
11
3142.037881974799
21
-1524.150856042336
31
5.999999510577
0
LINE
8
0
10
3159.987894180881
20
-1281.969520593052
30
5.999991799494
11
3165.98789418088
21
-1281.969520593028
31
5.999991710122
0
LINE
8
0
10
3142.037881973661
20
-1232.988197350934
30
5.999991662113
11
3142.472818497094
21
-1232.654457116553
31
5.999991646619
0
LINE
8
0
10
3139.169229629896
20
-1230.119545007195
30
5.999991627641
11
3138.959451797866
21
-1230.626014733754
31
5.999991644427
0
LINE
8
0
10
3140.444376115439
20
-1527.997962975936
30
5.999999638083
11
3140.987894181846
21
-1528.069496179059
31
5.999999631892
0
LINE
8
0
10
3138.887888077166
20
-1231.169532800161
30
5.999991660147
11
3138.959451797872
21
-1231.713050866566
31
5.999991673729
0
LINE
8
0
10
3142.472818497094
20
-1232.654457116553
30
5.999991646619
11
3142.806558731471
21
-1232.219520593118
31
5.99999162991
0
LINE
8
0
10
3140.444376114284
20
-1233.197975182967
30
5.999991691573
11
3140.987894180694
21
-1233.269508386095
31
5.999991685382
0
LINE
8
0
10
2821.037897232342
20
-1206.788185145157
30
5.999995751247
11
2821.472818496989
21
-1206.45444491078
31
5.999995735754
0
LINE
8
0
10
2819.987894180585
20
-1207.069496180319
30
5.999995774516
11
2820.531412246992
21
-1206.997962977188
31
5.999995764468
0
LINE
8
0
10
2818.169237259195
20
-1206.019508387354
30
5.999995773382
11
2818.502969864177
21
-1206.45444491079
31
5.99999578012
0
LINE
8
0
10
2819.444376114179
20
-1206.997962977192
30
5.999995780707
11
2819.987894180585
21
-1207.069496180319
31
5.999995774516
0
LINE
8
0
10
3159.987894181038
20
-1321.969520593052
30
5.99999239554
11
3159.987894180881
21
-1281.969520593052
31
5.999991799494
0
LINE
8
0
10
2821.472818496978
20
-1203.484596277968
30
5.9999956557
11
2821.037897232328
21
-1203.150856043594
31
5.999995653201
0
LINE
8
0
10
2817.959451797763
20
-1204.426002527981
30
5.999995733562
11
2817.887895706456
21
-1204.969520594388
31
5.999995749282
0
LINE
8
0
10
2820.531412246976
20
-1202.941078211563
30
5.999995655113
11
2819.98789418057
21
-1202.869545008444
31
5.999995661304
0
LINE
8
0
10
3121.98789418185
20
-1528.969520593195
30
5.999999939991
11
3121.987894181826
21
-1522.969520593195
31
5.999999778257
0
LINE
8
0
10
3162.972513320937
20
-1136.868568444601
30
5.999989627317
11
3159.289163711531
21
-1128.969520593052
31
5.999989564476
0
LINE
8
0
10
3148.127267959526
20
-1115.667274499342
30
5.999989532517
11
3140.987894180213
21
-1110.668251061874
31
5.999989564368
0
LINE
8
0
10
3159.987894180697
20
-1234.169532800083
30
5.999991425804
11
3148.487894180697
21
-1234.169532800127
31
5.999991597601
0
LINE
8
0
10
3148.487894181826
20
-1522.969520593095
30
5.999999382378
11
3159.987894181827
21
-1522.969520593048
31
5.999999210581
0
LINE
8
0
10
3139.937906388862
20
-1524.150856042344
30
5.999999541948
11
3139.502969865426
21
-1524.484596276723
31
5.999999557442
0
LINE
8
0
10
3148.487894180671
20
-1228.169532800127
30
5.999991435867
11
3159.98789418067
21
-1228.169532800082
31
5.999991264071
0
LINE
8
0
10
2791.305486801034
20
-1104.729164149183
30
5.999994684475
11
2782.886888625993
21
-1106.9849014539
31
5.999994843485
0
LINE
8
0
10
2817.959451797767
20
-1205.513038660794
30
5.999995762863
11
2818.169237259195
21
-1206.019508387354
31
5.999995773382
0
LINE
8
0
10
3165.228281143234
20
-1145.287147546151
30
5.999989719163
11
3162.972513320937
21
-1136.868568444601
31
5.999989627317
0
LINE
8
0
10
2827.487894180565
20
-1201.96952059435
30
5.999995525002
11
2839.987894180565
21
-1201.969520594299
31
5.999995338266
0
LINE
8
0
10
3133.487894181849
20
-1528.969520593153
30
5.999999768194
11
3121.98789418185
21
-1528.969520593195
31
5.999999939991
0
LINE
8
0
10
2767.848512771535
20
-1115.667274500832
30
5.999995196862
11
2761.685671928359
21
-1121.830116297736
31
5.999995380493
0
LINE
8
0
10
3121.987894181826
20
-1522.969520593195
30
5.999999778257
11
3133.487894181826
21
-1522.969520593152
31
5.99999960646
0
LINE
8
0
10
2822.016336563392
20
-1205.513038660776
30
5.999995702258
11
2822.087892654699
21
-1204.969520594375
31
5.999995686538
0
LINE
8
0
10
3165.987894180378
20
-1153.969520593026
30
5.999989837226
11
3165.228281143234
21
-1145.287147546151
31
5.999989719163
0
LINE
8
0
10
2782.886888625993
20
-1106.9849014539
30
5.999994843485
11
2774.987894180207
21
-1110.668251063304
31
5.999995016029
0
LINE
8
0
10
3133.487894181826
20
-1522.969520593152
30
5.99999960646
11
3133.487894181849
21
-1528.969520593153
31
5.999999768194
0
LINE
8
0
10
3121.987894180697
20
-1234.169532800231
30
5.99999199348
11
3121.987894180671
21
-1228.169532800231
31
5.999991831747
0
LINE
8
0
10
3165.98789418088
20
-1281.969520593028
30
5.999991710122
11
3165.987894180378
21
-1153.969520593026
31
5.999989837226
0
LINE
8
0
10
3115.987894180187
20
-1103.969520593222
30
5.999989836931
11
2799.987894180181
21
-1103.969520594456
31
5.999994543828
0
LINE
8
0
10
2818.937891128813
20
-1203.1508560436
30
5.999995684573
11
2818.502969864165
21
-1203.484596277977
31
5.999995700066
0
LINE
8
0
10
2753.003263118752
20
-1136.868568446203
30
5.999995733909
11
2750.747506502197
21
-1145.287147547779
31
5.999995892956
0
LINE
8
0
10
3121.987894180671
20
-1228.169532800231
30
5.999991831747
11
3133.487894180671
21
-1228.169532800187
31
5.99999165995
0
LINE
8
0
10
3069.987894180567
20
-1201.969520593397
30
5.99999190233
11
3109.987894180567
21
-1201.969520593247
31
5.999991304776
0
LINE
8
0
10
3159.987894181849
20
-1528.969520593048
30
5.999999372314
11
3148.487894181849
21
-1528.969520593095
31
5.999999544111
0
LINE
8
0
10
3165.987894181038
20
-1321.969520593028
30
5.999992306168
11
3159.987894181038
21
-1321.969520593052
31
5.99999239554
0
LINE
8
0
10
2756.686624172192
20
-1128.969520594628
30
5.999995561341
11
2753.003263118752
21
-1136.868568446203
31
5.999995733909
0
LINE
8
0
10
2818.169237259187
20
-1203.919532801416
30
5.999995716776
11
2817.959451797763
21
-1204.426002527981
31
5.999995733562
0
LINE
8
0
10
3069.98789418059
20
-1207.969520593397
30
5.999992064064
11
3069.987894180567
21
-1201.969520593397
31
5.99999190233
0
LINE
8
0
10
2827.487894180589
20
-1207.96952059435
30
5.999995686735
11
2827.487894180565
21
-1201.96952059435
31
5.999995525002
0
LINE
8
0
10
3159.98789418067
20
-1228.169532800082
30
5.999991264071
11
3159.987894180697
21
-1234.169532800083
31
5.999991425804
0
LINE
8
0
10
3133.088907363793
20
-1106.984901452531
30
5.999989627139
11
3124.670297744638
21
-1104.729164147873
31
5.999989718923
0
LINE
8
0
10
2812.487894180565
20
-1201.969520594413
30
5.999995749085
11
2812.487894180589
21
-1207.969520594414
31
5.999995910818
0
LINE
8
0
10
2799.987894180589
20
-1207.969520594458
30
5.999996097554
11
2799.987894180565
21
-1201.969520594458
31
5.99999593582
0
LINE
8
0
10
2822.016336563388
20
-1204.426002527963
30
5.999995672957
11
2821.80655110196
21
-1203.919532801402
31
5.999995662438
0
LINE
8
0
10
2818.502969864177
20
-1206.45444491079
30
5.99999578012
11
2818.937891128826
21
-1206.788185145163
31
5.999995782619
0
LINE
8
0
10
3143.016336564648
20
-1525.426002526709
30
5.999999530332
11
3142.806558732615
21
-1524.919532800149
31
5.999999519814
0
LINE
8
0
10
2821.472818496989
20
-1206.45444491078
30
5.999995735754
11
2821.806551101968
21
-1206.019508387339
31
5.999995719044
0
LINE
8
0
10
2821.037897232328
20
-1203.150856043594
30
5.999995653201
11
2820.531412246976
21
-1202.941078211563
31
5.999995655113
0
LINE
8
0
10
2821.80655110196
20
-1203.919532801402
30
5.999995662438
11
2821.472818496978
21
-1203.484596277968
31
5.9999956557
0
LINE
8
0
10
2819.98789418057
20
-1202.869545008444
30
5.999995661304
11
2819.444376114163
21
-1202.941078211567
31
5.999995671352
0
LINE
8
0
10
2818.937891128826
20
-1206.788185145163
30
5.999995782619
11
2819.444376114179
21
-1206.997962977192
31
5.999995780707
0
LINE
8
0
10
3159.987894181827
20
-1522.969520593048
30
5.999999210581
11
3159.987894181849
21
-1528.969520593048
31
5.999999372314
0
LINE
8
0
10
2819.444376114163
20
-1202.941078211567
30
5.999995671352
11
2818.937891128813
21
-1203.1508560436
31
5.999995684573
0
LINE
8
0
10
2774.987894180207
20
-1110.668251063304
30
5.999995016029
11
2767.848512771535
21
-1115.667274500832
31
5.999995196862
0
LINE
8
0
10
2799.987894180565
20
-1201.969520594458
30
5.99999593582
11
2812.487894180565
21
-1201.969520594413
31
5.999995749085
0
LINE
8
0
10
2818.502969864165
20
-1203.484596277977
30
5.999995700066
11
2818.169237259187
21
-1203.919532801416
31
5.999995716776
0
LINE
8
0
10
2820.531412246992
20
-1206.997962977188
30
5.999995764468
11
2821.037897232342
21
-1206.788185145157
31
5.999995751247
0
LINE
8
0
10
2821.806551101968
20
-1206.019508387339
30
5.999995719044
11
2822.016336563392
21
-1205.513038660776
31
5.999995702258
0
LINE
8
0
10
2822.087892654699
20
-1204.969520594375
30
5.999995686538
11
2822.016336563388
21
-1204.426002527963
31
5.999995672957
0
LINE
8
0
10
2812.487894180589
20
-1207.969520594414
30
5.999995910818
11
2799.987894180589
21
-1207.969520594458
31
5.999996097554
0
LINE
8
0
10
3109.987894180591
20
-1207.969520593247
30
5.99999146651
11
3069.98789418059
21
-1207.969520593397
31
5.999992064064
0
LINE
8
0
10
3159.289163711531
20
-1128.969520593052
30
5.999989564476
11
3154.290109756425
21
-1121.830116296192
31
5.999989532553
0
LINE
8
0
10
3133.487894180671
20
-1228.169532800187
30
5.99999165995
11
3133.487894180697
21
-1234.169532800187
31
5.999991821684
0
LINE
8
0
10
3142.806558732615
20
-1524.919532800149
30
5.999999519814
11
3142.472818498238
21
-1524.484596276711
31
5.999999513076
0
LINE
8
0
10
3154.290109756425
20
-1121.830116296192
30
5.999989532553
11
3148.127267959526
21
-1115.667274499342
31
5.999989532517
0
LINE
8
0
10
3109.987894180567
20
-1201.969520593247
30
5.999991304776
11
3109.987894180591
21
-1207.969520593247
31
5.99999146651
0
LINE
8
0
10
2761.685671928359
20
-1121.830116297736
30
5.999995380493
11
2756.686624172192
21
-1128.969520594628
31
5.999995561341
0
LINE
8
0
10
3148.487894181849
20
-1528.969520593095
30
5.999999544111
11
3148.487894181826
21
-1522.969520593095
31
5.999999382378
0
LINE
8
0
10
3140.987894180213
20
-1110.668251061874
30
5.999989564368
11
3133.088907363793
21
-1106.984901452531
31
5.999989627139
0
LINE
8
0
10
2750.747506502197
20
-1145.287147547779
30
5.999995892956
11
2749.987894180377
21
-1153.969520594654
31
5.999996033648
0
LINE
8
0
10
2799.987894180181
20
-1103.969520594456
30
5.999994543828
11
2791.305486801034
21
-1104.729164149183
31
5.999994684475
0
LINE
8
0
10
3124.670297744638
20
-1104.729164147873
30
5.999989718923
11
3115.987894180187
21
-1103.969520593222
31
5.999989836931
0
LINE
8
0
10
3148.487894180697
20
-1234.169532800127
30
5.999991597601
11
3148.487894180671
21
-1228.169532800127
31
5.999991435867
0
LINE
8
0
10
3133.487894180697
20
-1234.169532800187
30
5.999991821684
11
3121.987894180697
21
-1234.169532800231
31
5.99999199348
0
LINE
8
0
10
2885.63326466393
20
-1193.263587976933
30
5.999994421703
11
2885.462900284042
21
-1191.969520594125
31
5.999994389366
0
LINE
8
0
10
3007.987894178133
20
-1142.969520584834
30
5.999991238159
11
3007.936563346379
21
-1143.752677738155
31
5.999991260036
0
LINE
8
0
10
3007.936563346379
20
-1143.752677738155
30
5.999991260036
11
3007.783449135873
21
-1144.522434855451
31
5.999991283073
0
LINE
8
0
10
3007.783449135873
20
-1144.522434855451
30
5.999991283073
11
3007.531171373209
21
-1145.265621179027
31
5.999991306874
0
LINE
8
0
10
3007.531171373209
20
-1145.265621179027
30
5.999991306874
11
3007.184046600851
21
-1145.969520584837
31
5.999991331034
0
LINE
8
0
10
3007.184046600851
20
-1145.969520584837
30
5.999991331034
11
3006.748014219895
21
-1146.62208915889
31
5.999991355138
0
LINE
8
0
10
3006.748014219895
20
-1146.62208915889
30
5.999991355138
11
3006.230534865269
21
-1147.212161271961
31
5.999991378774
0
LINE
8
0
10
3006.230534865269
20
-1147.212161271961
30
5.999991378774
11
3005.640462752205
21
-1147.729640626589
31
5.999991401538
0
LINE
8
0
10
3005.640462752205
20
-1147.729640626589
30
5.999991401538
11
3004.987894178154
21
-1148.165673007553
31
5.999991423041
0
LINE
8
0
10
3004.987894178154
20
-1148.165673007553
30
5.999991423041
11
3004.283994772345
21
-1148.512797779915
31
5.999991442913
0
LINE
8
0
10
3004.283994772345
20
-1148.512797779915
30
5.999991442913
11
3003.540808448771
21
-1148.765075542586
31
5.999991460816
0
LINE
8
0
10
3003.540808448771
20
-1148.765075542586
30
5.999991460816
11
3002.771051331476
21
-1148.918189753098
31
5.999991476442
0
LINE
8
0
10
3002.771051331476
20
-1148.918189753098
30
5.999991476442
11
3001.987894178157
21
-1148.969520584858
31
5.999991489525
0
LINE
8
0
10
2908.444616983005
20
-1127.673419991034
30
5.999992312905
11
2908.791741755363
21
-1126.969520585223
31
5.999992288746
0
LINE
8
0
10
3007.78344913581
20
-1128.41660631422
30
5.99999084893
11
3007.53117137314
21
-1127.673419990645
31
5.999990832666
0
LINE
8
0
10
2909.22777413632
20
-1126.316952011169
30
5.999992264641
11
2909.745253490946
21
-1125.726879898098
31
5.999992241005
0
LINE
8
0
10
3004.283994772251
20
-1124.426243389779
30
5.999990793646
11
3003.540808448674
21
-1124.173965627117
31
5.999990797948
0
LINE
8
0
10
3140.987894180674
20
-1229.069496179063
30
5.999991572168
11
3140.444376114271
21
-1229.141090417342
31
5.999991582217
0
LINE
8
0
10
2817.887895706456
20
-1204.969520594388
30
5.999995749282
11
2817.959451797767
21
-1205.513038660794
31
5.999995762863
0
LINE
8
0
10
3139.937906387724
20
-1232.988197350943
30
5.999991693484
11
3140.444376114284
21
-1233.197975182967
31
5.999991691573
0
LINE
8
0
10
3142.037881974799
20
-1524.150856042336
30
5.999999510577
11
3141.53141224824
21
-1523.941078210307
31
5.999999512488
0
LINE
8
0
10
3143.016336563492
20
-1230.626014733736
30
5.999991583822
11
3142.806558731459
21
-1230.11954500718
31
5.999991573304
0
LINE
8
0
10
3139.502969864281
20
-1232.654457116562
30
5.999991690986
11
3139.937906387724
21
-1232.988197350943
31
5.999991693484
0
LINE
8
0
10
3140.444376115427
20
-1523.941078210311
30
5.999999528727
11
3139.937906388862
21
-1524.150856042344
31
5.999999541948
0
LINE
8
0
10
3141.53141224824
20
-1523.941078210307
30
5.999999512488
11
3140.987894181829
21
-1523.869545007184
31
5.99999951868
0
LINE
8
0
10
3138.959451797872
20
-1231.713050866566
30
5.999991673729
11
3139.169229629908
21
-1232.219520593133
31
5.999991684247
0
LINE
8
0
10
3142.037881974814
20
-1527.788185143899
30
5.999999608623
11
3142.472818498253
21
-1527.454444909524
31
5.99999959313
0
LINE
8
0
10
3139.502969865426
20
-1524.484596276723
30
5.999999557442
11
3139.169229631053
21
-1524.919532800161
31
5.999999574151
0
LINE
8
0
10
3142.472818498253
20
-1527.454444909524
30
5.99999959313
11
3142.806558732623
21
-1527.019508386086
31
5.99999957642
0
LINE
8
0
10
3139.169229631053
20
-1524.919532800161
30
5.999999574151
11
3138.959451799023
21
-1525.426002526725
31
5.999999590937
0
LINE
8
0
10
3140.987894181829
20
-1523.869545007184
30
5.99999951868
11
3140.444376115427
21
-1523.941078210311
31
5.999999528727
0
LINE
8
0
10
3142.806558731471
20
-1232.219520593118
30
5.99999162991
11
3143.016336563497
21
-1231.713050866549
31
5.999991613124
0
LINE
8
0
10
3139.937906388877
20
-1527.788185143907
30
5.999999639995
11
3140.444376115439
21
-1527.997962975936
31
5.999999638083
0
LINE
8
0
10
3140.987894181846
20
-1528.069496179059
30
5.999999631892
11
3141.531412248252
21
-1527.997962975933
31
5.999999621844
0
LINE
8
0
10
3143.087900285353
20
-1525.969520593112
30
5.999999543914
11
3143.016336564648
21
-1525.426002526709
31
5.999999530332
0
LINE
8
0
10
3139.16922963106
20
-1527.019508386099
30
5.999999630758
11
3139.50296986544
21
-1527.454444909535
31
5.999999637496
0
LINE
8
0
10
3139.937906387706
20
-1229.35086824938
30
5.999991595438
11
3139.50296986427
21
-1229.68460848375
31
5.999991610932
0
LINE
8
0
10
3141.531412247096
20
-1233.197975182963
30
5.999991675334
11
3142.037881973661
21
-1232.988197350934
31
5.999991662113
0
LINE
8
0
10
3007.184046600777
20
-1126.969520584837
30
5.999990818878
11
3006.748014219814
21
-1126.316952010785
31
5.999990807801
0
LINE
8
0
10
2887.962900284059
20
-1196.299659754267
30
5.99999446874
11
2886.92736256433
21
-1195.50504305506
31
5.99999446279
0
LINE
8
0
10
2913.204737024739
20
-1124.020851416961
30
5.999992143337
11
2913.987894178058
21
-1123.969520585202
31
5.999992130254
0
LINE
8
0
10
2885.462900284015
20
-1184.869545008187
30
5.999994197982
11
2885.633264663892
21
-1183.575416590214
31
5.999994160553
0
LINE
8
0
10
2749.987888360717
20
-1463.969526709117
30
6.000000870626
11
2743.2878942564
21
-1463.969526735533
31
6.000000974293
0
LINE
8
0
10
2743.287894201007
20
-1450.969526735533
30
6.000000586845
11
2743.2878942564
21
-1463.969526735533
31
6.000000974293
0
LINE
8
0
10
2733.504998599626
20
-1450.708474413883
30
6.000000739018
11
2733.556036665971
21
-1450.451888707357
31
6.000000730609
0
LINE
8
0
10
2733.504998599626
20
-1450.708474413883
30
6.000000739018
11
2733.487888326263
21
-1450.969526798576
31
6.000000747052
0
LINE
8
0
10
2733.487888326263
20
-1450.969526798576
30
6.000000747052
11
2733.487889160851
21
-1503.969526798576
31
6.000002362727
0
LINE
8
0
10
2733.487889160851
20
-1503.969526798576
30
6.000002362727
11
2733.504999441995
21
-1504.230579182763
31
6.000002370253
0
LINE
8
0
10
2733.504999441995
20
-1504.230579182763
30
6.000002370253
11
2733.556037515988
21
-1504.487164887767
31
6.000002377139
0
LINE
8
0
10
2733.556037515988
20
-1504.487164887767
30
6.000002377139
11
2733.640130107235
21
-1504.734893661037
31
6.000002383271
0
LINE
8
0
10
2733.640130107235
20
-1504.734893661037
30
6.000002383271
11
2733.755838368187
21
-1504.969526794584
31
6.00000238854
0
LINE
8
0
10
2733.755838368187
20
-1504.969526794584
30
6.00000238854
11
2733.901182498415
21
-1505.187049650436
31
6.000002392858
0
LINE
8
0
10
2733.901182498415
20
-1505.187049650436
30
6.000002392858
11
2734.073675619555
21
-1505.383740352219
31
6.000002396152
0
LINE
8
0
10
2734.073675619555
20
-1505.383740352219
30
6.000002396152
11
2734.270366326482
21
-1505.556233467496
31
6.000002398363
0
LINE
8
0
10
2734.270366326482
20
-1505.556233467496
30
6.000002398363
11
2734.487889186666
21
-1505.701577591243
31
6.000002399455
0
LINE
8
0
10
2734.487889186666
20
-1505.701577591243
30
6.000002399455
11
2734.72252232366
21
-1505.817285845198
31
6.000002399409
0
LINE
8
0
10
2734.72252232366
20
-1505.817285845198
30
6.000002399409
11
2734.970251099438
21
-1505.901378429063
31
6.000002398226
0
LINE
8
0
10
2734.970251099438
20
-1505.901378429063
30
6.000002398226
11
2735.226836805964
21
-1505.952416495409
31
6.000002395926
0
LINE
8
0
10
2749.987889191005
20
-1505.969526709115
30
6.000002158461
11
2735.226836805964
21
-1505.952416495409
31
6.000002395926
0
LINE
8
0
10
2749.987889191005
20
-1505.969526709115
30
6.000002158461
11
2749.987891312332
21
-1672.96867428113
31
6.000026076852
0
LINE
8
0
10
3165.987889724917
20
-1672.968674279499
30
6.000018699323
11
2749.987891312332
21
-1672.96867428113
31
6.000026076852
0
LINE
8
0
10
3165.987889724917
20
-1672.968674279499
30
6.000018699323
11
3165.987886435869
21
-1632.968674426171
31
5.999997358603
0
LINE
8
0
10
3165.987886435869
20
-1632.968674426171
30
5.999997358603
11
3159.987891628526
21
-1632.968674135146
31
5.99999554237
0
LINE
8
0
10
3159.987891628526
20
-1632.968674135146
30
5.99999554237
11
3159.987894480263
21
-1592.968674135145
31
5.999994968473
0
LINE
8
0
10
3165.987889287605
20
-1592.968674426172
30
5.999996784706
11
3159.987894480263
21
-1592.968674135145
31
5.999994968473
0
LINE
8
0
10
2749.987894180377
20
-1153.969520594654
30
5.999996033648
11
2749.987884913786
21
-1228.969526704424
31
5.999993810878
0
LINE
8
0
10
2749.987884913786
20
-1228.969526704424
30
5.999993810878
11
2743.287894300413
21
-1228.969526776296
31
5.999993913479
0
LINE
8
0
10
2743.287894196586
20
-1215.969526776296
30
5.999993574463
11
2743.287894300413
21
-1228.969526776296
31
5.999993913479
0
LINE
8
0
10
2743.270783917249
20
-1215.708474391855
30
5.999993567942
11
2743.287894196586
21
-1215.969526776296
31
5.999993574463
0
LINE
8
0
10
2743.21974584503
20
-1215.451888686087
30
5.999993562099
11
2743.270783917249
21
-1215.708474391855
31
5.999993567942
0
LINE
8
0
10
2743.135653255496
20
-1215.204159911558
30
5.99999355704
11
2743.21974584503
21
-1215.451888686087
31
5.999993562099
0
LINE
8
0
10
2743.019944996168
20
-1214.969526776283
30
5.999993552846
11
2743.135653255496
21
-1215.204159911558
31
5.99999355704
0
LINE
8
0
10
2742.874600867445
20
-1214.752003918256
30
5.999993549594
11
2743.019944996168
21
-1214.969526776283
31
5.999993552846
0
LINE
8
0
10
2742.702107747664
20
-1214.555313213892
30
5.999993547337
11
2742.874600867445
21
-1214.752003918256
31
5.999993549594
0
LINE
8
0
10
2742.505417041932
20
-1214.382820095674
30
5.999993546113
11
2742.702107747664
21
-1214.555313213892
31
5.999993547337
0
LINE
8
0
10
2742.287894182753
20
-1214.237475968677
30
5.999993545942
11
2742.505417041932
21
-1214.382820095674
31
5.999993546113
0
LINE
8
0
10
2742.053261046559
20
-1214.121767711211
30
5.999993546831
11
2742.287894182753
21
-1214.237475968677
31
5.999993545942
0
LINE
8
0
10
2741.805532271362
20
-1214.037675123644
30
5.999993548762
11
2742.053261046559
21
-1214.121767711211
31
5.999993546831
0
LINE
8
0
10
2741.54894656519
20
-1213.98663705346
30
5.999993551703
11
2741.805532271362
21
-1214.037675123644
31
5.999993548762
0
LINE
8
0
10
2741.54894656519
20
-1213.98663705346
30
5.999993551703
11
2741.287894180613
21
-1213.969526776195
31
5.999993555603
0
LINE
8
0
10
2741.287894180613
20
-1213.969526776195
30
5.999993555603
11
2735.487884793641
21
-1213.969526764079
31
5.999993652159
0
LINE
8
0
10
2735.487884793641
20
-1213.969526764079
30
5.999993652159
11
2735.226832409455
21
-1213.986637045219
31
5.999993656557
0
LINE
8
0
10
2734.970246704451
20
-1214.037675119215
30
5.999993661899
11
2735.226832409455
21
-1213.986637045219
31
5.999993656557
0
LINE
8
0
10
2734.722517931179
20
-1214.121767710463
30
5.999993668095
11
2734.970246704451
21
-1214.037675119215
31
5.999993661899
0
LINE
8
0
10
2734.487884797633
20
-1214.237475971413
30
5.999993675037
11
2734.722517931179
21
-1214.121767710463
31
5.999993668095
0
LINE
8
0
10
2734.270361941782
20
-1214.382820101642
30
5.99999368261
11
2734.487884797633
21
-1214.237475971413
31
5.999993675037
0
LINE
8
0
10
2734.073671239998
20
-1214.555313222783
30
5.99999369068
11
2734.270361941782
21
-1214.382820101642
31
5.99999368261
0
LINE
8
0
10
2733.90117812472
20
-1214.752003929709
30
5.99999369911
11
2734.073671239998
21
-1214.555313222783
31
5.99999369068
0
LINE
8
0
10
2733.755834000975
20
-1214.969526789892
30
5.999993707758
11
2733.90117812472
21
-1214.752003929709
31
5.99999369911
0
LINE
8
0
10
2733.640125747018
20
-1215.204159926884
30
5.999993716475
11
2733.755834000975
21
-1214.969526789892
31
5.999993707758
0
LINE
8
0
10
2733.556033163154
20
-1215.451888702664
30
5.99999372511
11
2733.640125747018
21
-1215.204159926884
31
5.999993716475
0
LINE
8
0
10
2733.504995096809
20
-1215.70847440919
30
5.999993733518
11
2733.556033163154
21
-1215.451888702664
31
5.99999372511
0
LINE
8
0
10
2733.504995096809
20
-1215.70847440919
30
5.999993733518
11
2733.487884823447
21
-1215.969526793883
31
5.999993741553
0
LINE
8
0
10
2733.487884823447
20
-1215.969526793883
30
5.999993741553
11
2733.487885658035
21
-1268.969526793883
31
5.999995357228
0
LINE
8
0
10
2733.487885658035
20
-1268.969526793883
30
5.999995357228
11
2733.504995939179
21
-1269.23057917807
31
5.999995364754
0
LINE
8
0
10
2733.504995939179
20
-1269.23057917807
30
5.999995364754
11
2733.556034013172
21
-1269.487164883074
31
5.99999537164
0
LINE
8
0
10
2733.556034013172
20
-1269.487164883074
30
5.99999537164
11
2733.640126604419
21
-1269.734893656344
31
5.999995377772
0
LINE
8
0
10
2733.640126604419
20
-1269.734893656344
30
5.999995377772
11
2733.75583486537
21
-1269.969526789892
31
5.999995383041
0
LINE
8
0
10
2733.75583486537
20
-1269.969526789892
30
5.999995383041
11
2733.901178995598
21
-1270.187049645744
31
5.999995387359
0
LINE
8
0
10
2733.901178995598
20
-1270.187049645744
30
5.999995387359
11
2734.073672116739
21
-1270.383740347529
31
5.999995390653
0
LINE
8
0
10
2734.073672116739
20
-1270.383740347529
30
5.999995390653
11
2734.270362823665
21
-1270.556233462807
31
5.999995392864
0
LINE
8
0
10
2734.270362823665
20
-1270.556233462807
30
5.999995392864
11
2734.487885683849
21
-1270.70157758655
31
5.999995393955
0
LINE
8
0
10
2734.487885683849
20
-1270.70157758655
30
5.999995393955
11
2734.722518820843
21
-1270.817285840508
31
5.999995393909
0
LINE
8
0
10
2734.722518820843
20
-1270.817285840508
30
5.999995393909
11
2734.970247596622
21
-1270.901378424371
31
5.999995392727
0
LINE
8
0
10
2734.970247596622
20
-1270.901378424371
30
5.999995392727
11
2735.226833303147
21
-1270.952416490719
31
5.999995390427
0
LINE
8
0
10
2749.987885688187
20
-1270.969526704423
30
5.999995154596
11
2735.226833303147
21
-1270.952416490719
31
5.999995390427
0
LINE
8
0
10
2749.987885688187
20
-1270.969526704423
30
5.999995154596
11
2749.987888360717
21
-1463.969526709117
31
6.000000870626
0
LINE
8
0
10
2913.987894178156
20
-1148.969520585203
30
5.999992804144
11
3001.987894178157
21
-1148.969520584858
31
5.999991489525
0
LINE
8
0
10
2913.987894178156
20
-1148.969520585203
30
5.999992804144
11
2913.204737024836
21
-1148.918189753447
31
5.99999281446
0
LINE
8
0
10
2913.204737024836
20
-1148.918189753447
30
5.99999281446
11
2912.43497990754
21
-1148.765075542944
31
5.999992821832
0
LINE
8
0
10
2912.43497990754
20
-1148.765075542944
30
5.999992821832
11
2911.691793583964
21
-1148.512797780278
31
5.999992826134
0
LINE
8
0
10
2911.691793583964
20
-1148.512797780278
30
5.999992826134
11
2910.987894178153
21
-1148.165673007921
31
5.999992827293
0
LINE
8
0
10
2910.987894178153
20
-1148.165673007921
30
5.999992827293
11
2910.3353256041
21
-1147.729640626963
31
5.999992825288
0
LINE
8
0
10
2910.3353256041
20
-1147.729640626963
30
5.999992825288
11
2909.74525349103
21
-1147.212161272337
31
5.999992820154
0
LINE
8
0
10
2909.74525349103
20
-1147.212161272337
30
5.999992820154
11
2909.2277741364
21
-1146.622089159275
31
5.999992811979
0
LINE
8
0
10
2909.2277741364
20
-1146.622089159275
30
5.999992811979
11
2908.791741755438
21
-1145.969520585223
31
5.999992800902
0
LINE
8
0
10
2908.791741755438
20
-1145.969520585223
30
5.999992800902
11
2908.444616983074
21
-1145.265621179415
31
5.999992787114
0
LINE
8
0
10
2908.444616983074
20
-1145.265621179415
30
5.999992787114
11
2908.192339220404
21
-1144.522434855839
31
5.999992770849
0
LINE
8
0
10
2908.192339220404
20
-1144.522434855839
30
5.999992770849
11
2908.039225009893
21
-1143.752677738547
31
5.999992752387
0
LINE
8
0
10
2908.039225009893
20
-1143.752677738547
30
5.999992752387
11
2907.987894178133
21
-1142.969520585227
31
5.999992732044
0
LINE
8
0
10
2907.987894178082
20
-1129.969520585226
30
5.999992381621
11
2907.987894178133
21
-1142.969520585227
31
5.999992732044
0
LINE
8
0
10
2907.987894178082
20
-1129.969520585226
30
5.999992381621
11
2908.039225009835
21
-1129.186363431904
31
5.999992359744
0
LINE
8
0
10
2908.039225009835
20
-1129.186363431904
30
5.999992359744
11
2908.192339220341
21
-1128.416606314609
31
5.999992336707
0
LINE
8
0
10
2908.192339220341
20
-1128.416606314609
30
5.999992336707
11
2908.444616983005
21
-1127.673419991034
31
5.999992312905
0
LINE
8
0
10
2908.791741755363
20
-1126.969520585223
30
5.999992288746
11
2909.22777413632
21
-1126.316952011169
31
5.999992264641
0
LINE
8
0
10
2909.745253490946
20
-1125.726879898098
30
5.999992241005
11
2910.33532560401
21
-1125.209400543468
31
5.999992218241
0
LINE
8
0
10
2910.33532560401
20
-1125.209400543468
30
5.999992218241
11
2910.987894178061
21
-1124.773368162508
31
5.999992196739
0
LINE
8
0
10
2910.987894178061
20
-1124.773368162508
30
5.999992196739
11
2911.691793583869
21
-1124.426243390142
31
5.999992176867
0
LINE
8
0
10
2911.691793583869
20
-1124.426243390142
30
5.999992176867
11
2912.434979907444
21
-1124.173965627474
31
5.999992158964
0
LINE
8
0
10
2912.434979907444
20
-1124.173965627474
30
5.999992158964
11
2913.204737024739
21
-1124.020851416961
31
5.999992143337
0
LINE
8
0
10
3001.987894178058
20
-1123.969520584858
30
5.999990815635
11
2913.987894178058
21
-1123.969520585202
31
5.999992130254
0
LINE
8
0
10
3002.771051331379
20
-1124.020851416612
30
5.99999080532
11
3001.987894178058
21
-1123.969520584858
31
5.999990815635
0
LINE
8
0
10
3003.540808448674
20
-1124.173965627117
30
5.999990797948
11
3002.771051331379
21
-1124.020851416612
31
5.99999080532
0
LINE
8
0
10
3004.987894178062
20
-1124.773368162139
30
5.999990792487
11
3004.283994772251
21
-1124.426243389779
31
5.999990793646
0
LINE
8
0
10
3005.640462752116
20
-1125.209400543094
30
5.999990794492
11
3004.987894178062
21
-1124.773368162139
31
5.999990792487
0
LINE
8
0
10
3006.230534865184
20
-1125.726879897722
30
5.999990799626
11
3005.640462752116
21
-1125.209400543094
31
5.999990794492
0
LINE
8
0
10
3006.748014219814
20
-1126.316952010785
30
5.999990807801
11
3006.230534865184
21
-1125.726879897722
31
5.999990799626
0
LINE
8
0
10
3007.53117137314
20
-1127.673419990645
30
5.999990832666
11
3007.184046600777
21
-1126.969520584837
31
5.999990818878
0
LINE
8
0
10
3007.936563346321
20
-1129.186363431514
30
5.999990867392
11
3007.78344913581
21
-1128.41660631422
31
5.99999084893
0
LINE
8
0
10
3007.987894178082
20
-1129.969520584834
30
5.999990887736
11
3007.936563346321
21
-1129.186363431514
31
5.999990867392
0
LINE
8
0
10
3007.987894178133
20
-1142.969520584834
30
5.999991238159
11
3007.987894178082
21
-1129.969520584834
31
5.999990887736
0
LINE
8
0
10
2946.756982925667
20
-1196.79917147279
30
5.999993603889
11
2945.462900284062
21
-1196.969520593892
31
5.999993627813
0
LINE
8
0
10
2945.462900284062
20
-1196.969520593892
30
5.999993627813
11
2890.462900284062
21
-1196.969520594101
31
5.999994449449
0
LINE
8
0
10
2890.462900284062
20
-1196.969520594101
30
5.999994449449
11
2889.16880238367
21
-1196.799171473016
31
5.99999446419
0
LINE
8
0
10
2889.16880238367
20
-1196.799171473016
30
5.99999446419
11
2887.962900284059
21
-1196.299659754267
31
5.99999446874
0
LINE
8
0
10
2886.92736256433
20
-1195.50504305506
30
5.99999446279
11
2886.132761123896
21
-1194.469520594121
31
5.999994446748
0
LINE
8
0
10
2886.132761123896
20
-1194.469520594121
30
5.999994446748
11
2885.63326466393
21
-1193.263587976933
31
5.999994421703
0
LINE
8
0
10
2885.462900284042
20
-1191.969520594125
30
5.999994389366
11
2885.462900284015
21
-1184.869545008187
31
5.999994197982
0
LINE
8
0
10
2885.633264663892
20
-1183.575416590214
30
5.999994160553
11
2886.132761123849
21
-1182.369545008183
31
5.999994120586
0
LINE
8
0
10
2886.132761123849
20
-1182.369545008183
30
5.999994120586
11
2886.927362564274
21
-1181.333961512091
31
5.9999940808
0
LINE
8
0
10
2886.927362564274
20
-1181.333961512091
30
5.9999940808
11
2887.962900283997
21
-1180.539405848018
31
5.999994043913
0
LINE
8
0
10
2887.962900283997
20
-1180.539405848018
30
5.999994043913
11
2889.168802383605
21
-1180.039894129265
31
5.999994012434
0
LINE
8
0
10
2889.168802383605
20
-1180.039894129265
30
5.999994012434
11
2890.462900283995
21
-1179.869545008164
31
5.999993988509
0
LINE
8
0
10
2890.462900283995
20
-1179.869545008164
30
5.999993988509
11
2945.462900283995
21
-1179.869545007953
31
5.999993166873
0
LINE
8
0
10
2945.462900283995
20
-1179.869545007953
30
5.999993166873
11
2946.756982925598
21
-1180.039894129039
31
5.999993152132
0
LINE
8
0
10
2946.756982925598
20
-1180.039894129039
30
5.999993152132
11
2947.962900283997
21
-1180.539405847782
31
5.999993147582
0
LINE
8
0
10
2947.962900283997
20
-1180.539405847782
30
5.999993147582
11
2948.998422744938
21
-1181.333961511843
31
5.99999315353
0
LINE
8
0
10
2948.998422744938
20
-1181.333961511843
30
5.99999315353
11
2949.793024185372
21
-1182.369545007937
31
5.999993169574
0
LINE
8
0
10
2949.793024185372
20
-1182.369545007937
30
5.999993169574
11
2950.292520645338
21
-1183.575416589961
31
5.999993194618
0
LINE
8
0
10
2950.292520645338
20
-1183.575416589961
30
5.999993194618
11
2950.462900284015
21
-1184.86954500793
31
5.999993226956
0
LINE
8
0
10
2950.462900284015
20
-1184.86954500793
30
5.999993226956
11
2950.462900284042
21
-1191.969520593868
31
5.99999341834
0
LINE
8
0
10
2950.462900284042
20
-1191.969520593868
30
5.99999341834
11
2950.292520645376
21
-1193.263587976679
31
5.999993455768
0
LINE
8
0
10
2950.292520645376
20
-1193.263587976679
30
5.999993455768
11
2949.79302418542
21
-1194.469520593875
31
5.999993495737
0
LINE
8
0
10
2949.79302418542
20
-1194.469520593875
30
5.999993495737
11
2948.998422744994
21
-1195.505043054811
31
5.99999353552
0
LINE
8
0
10
2948.998422744994
20
-1195.505043054811
30
5.99999353552
11
2947.962900284063
21
-1196.299659754032
31
5.999993572409
0
LINE
8
0
10
2947.962900284063
20
-1196.299659754032
30
5.999993572409
11
2946.756982925667
21
-1196.79917147279
31
5.999993603889
0
LINE
8
0
10
2878.9878957247
20
-1220.469519432848
30
5.999995254329
11
2878.987895724651
21
-1207.969520594148
31
5.999994917384
0
LINE
8
0
10
2872.987894180638
20
-1220.469519432871
30
5.999995343963
11
2878.9878957247
21
-1220.469519432848
31
5.999995254329
0
LINE
8
0
10
2872.98789418059
20
-1207.969520594172
30
5.999995007018
11
2872.987894180638
21
-1220.469519432871
31
5.999995343963
0
LINE
8
0
10
2878.987895724651
20
-1207.969520594148
30
5.999994917384
11
2872.98789418059
21
-1207.969520594172
31
5.999995007018
0
LINE
8
0
10
3040.987900288539
20
-1220.469515700664
30
5.999992834235
11
3046.987901832601
21
-1220.46951570064
31
5.999992744602
0
LINE
8
0
10
3040.98790028849
20
-1207.969516861964
30
5.99999249729
11
3040.987900288539
21
-1220.469515700664
31
5.999992834235
0
LINE
8
0
10
3046.987901832552
20
-1207.969516861939
30
5.999992407657
11
3040.98790028849
21
-1207.969516861964
31
5.99999249729
0
LINE
8
0
10
3046.987901832601
20
-1220.46951570064
30
5.999992744602
11
3046.987901832552
21
-1207.969516861939
31
5.999992407657
0
LINE
8
0
10
2805.987884719705
20
-1612.968674495348
30
6.000006924916
11
2805.987884719754
21
-1625.468674495348
31
6.000007261861
0
LINE
8
0
10
2805.987884719754
20
-1625.468674495348
30
6.000007261861
11
2799.987884877153
21
-1625.468674495371
31
6.000007351494
0
LINE
8
0
10
2799.987884877153
20
-1625.468674495371
30
6.000007351494
11
2799.987884877105
21
-1612.968674495372
31
6.000007014549
0
LINE
8
0
10
2799.987884877105
20
-1612.968674495372
30
6.000007014549
11
2805.987884719705
21
-1612.968674495348
31
6.000006924916
0
LINE
8
0
10
2799.987885255432
20
-1652.968674480063
30
6.000008092773
11
2799.987885255383
21
-1640.468674480063
31
6.000007755828
0
LINE
8
0
10
2799.987885255383
20
-1640.468674480063
30
6.000007755828
11
2805.987885097984
21
-1640.46867448004
31
6.000007666195
0
LINE
8
0
10
2805.987885097984
20
-1640.46867448004
30
6.000007666195
11
2805.987885098033
21
-1652.968674480039
31
6.00000800314
0
LINE
8
0
10
2805.987885098033
20
-1652.968674480039
30
6.00000800314
11
2799.987885255432
21
-1652.968674480063
31
6.000008092773
0
LINE
8
0
10
3053.987900206137
20
-1612.968673718895
30
6.00000322008
11
3059.987899852206
21
-1612.968673718871
31
6.000003130447
0
LINE
8
0
10
3059.987899852206
20
-1612.968673718871
30
6.000003130447
11
3059.987899852255
21
-1625.468673718871
31
6.000003467392
0
LINE
8
0
10
3059.987899852255
20
-1625.468673718871
30
6.000003467392
11
3053.987900206185
21
-1625.468673718895
31
6.000003557025
0
LINE
8
0
10
3053.987900206185
20
-1625.468673718895
30
6.000003557025
11
3053.987900206137
21
-1612.968673718895
31
6.00000322008
0
LINE
8
0
10
3053.987901432473
20
-1652.968673296544
30
6.000004298304
11
3053.987901432424
21
-1640.468656334033
31
6.000003961359
0
LINE
8
0
10
3053.987901432424
20
-1640.468656334033
30
6.000003961359
11
3059.987901103514
21
-1640.46865633401
31
6.000003871725
0
LINE
8
0
10
3059.987901103514
20
-1640.46865633401
30
6.000003871725
11
3059.987901103563
21
-1652.96867329652
31
6.000004208671
0
LINE
8
0
10
3059.987901103563
20
-1652.96867329652
30
6.000004208671
11
3053.987901432473
21
-1652.968673296544
31
6.000004298304
0
ENDSEC
0
EOF
