0
SECTION
2
ENTITIES
0
LINE
8
0
10
3684.606515263766
20
-1714.860674727982
30
5.999981340522
11
3685.889443790319
21
-1715.115865078233
31
5.999981348846
0
LINE
8
0
10
3678.534451674963
20
-1240.201416470269
30
5.999974275658
11
3677.955910387697
21
-1239.028250794189
31
5.999974258144
0
LINE
8
0
10
3680.123637900938
20
-1242.272484281393
30
5.999974306616
11
3679.261172309893
21
-1241.289030760017
31
5.999974291908
0
LINE
8
0
10
3677.955910386269
20
-1366.374582156259
30
5.999976155458
11
3677.535447448258
21
-1367.61322602908
31
5.999976173872
0
LINE
8
0
10
3677.194705800789
20
-1705.201416468534
30
5.999981172169
11
3677.28025717543
21
-1706.506678390695
31
5.999981191653
0
LINE
8
0
10
3679.261172343677
20
-1711.289030757661
30
5.999981268984
11
3680.123637925968
21
-1712.272484279039
31
5.99998128651
0
LINE
8
0
10
3685.889443790596
20
-1245.115865080579
30
5.999974349367
11
3684.606515261773
21
-1244.86067473033
31
5.999974345478
0
LINE
8
0
10
3677.955910387939
20
-1131.374582142561
30
5.999972654611
11
3678.534451675209
21
-1130.201416466213
31
5.999972637141
0
LINE
8
0
10
4119.109154209389
20
-1706.506678391689
30
5.999981218462
11
4119.194705578221
21
-1705.201416469529
31
5.999981198899
0
LINE
8
0
10
3677.955910441604
20
-1709.028250791831
30
5.999981231112
11
3678.534451718428
21
-1710.201416467911
31
5.999981250413
0
LINE
8
0
10
3693.194705713187
20
-1070.201416439857
30
5.99997174312
11
4103.194705713185
21
-1070.201416484169
31
5.999971745792
0
LINE
8
0
10
4117.128239116055
20
-1129.113802179449
30
5.999972623534
11
4116.265773524989
21
-1128.130348656693
31
5.999972608876
0
LINE
8
0
10
3687.194705766391
20
-1360.201416475604
30
5.999976063522
11
3685.889443790326
21
-1360.286967862474
31
5.999976064823
0
LINE
8
0
10
4109.194705711755
20
-1715.201416464838
30
5.999981379983
11
4110.499967632809
21
-1715.115865079189
31
5.999981374361
0
LINE
8
0
10
3679.261172309893
20
-1241.289030760017
30
5.999974291908
11
3678.534451674963
21
-1240.201416470269
31
5.999974275658
0
LINE
8
0
10
3682.194705712291
20
-1361.54116244009
30
5.999976083543
11
3681.107091422066
21
-1362.267883075529
31
5.999976094366
0
LINE
8
0
10
3678.534451675209
20
-1130.201416466213
30
5.999972637141
11
3679.261172310143
21
-1129.113802176128
31
5.999972620946
0
LINE
8
0
10
3684.606515261453
20
-1360.542158213919
30
5.999976068644
11
3683.367871388748
21
-1360.962621152275
31
5.99997607492
0
LINE
8
0
10
4113.021540036434
20
-1244.440211794087
30
5.999974341947
11
4114.194705712771
21
-1243.86167050737
31
5.999974333272
0
LINE
8
0
10
3683.367871389411
20
-1125.962621141112
30
5.999972574039
11
3684.606515262038
21
-1125.542158203337
31
5.999972567786
0
LINE
8
0
10
4117.854959682832
20
-1710.201416468901
30
5.999981277218
11
4118.433500954435
21
-1709.028250792823
31
5.99998125796
0
LINE
8
0
10
3678.534451718428
20
-1710.201416467911
30
5.999981250413
11
3679.261172343677
21
-1711.289030757661
31
5.999981268984
0
LINE
8
0
10
3677.280257100173
20
-1471.5066783931
30
5.999977717629
11
3677.194705714156
21
-1470.201416470899
31
5.999977698179
0
LINE
8
0
10
3682.194705713061
20
-1126.541162428377
30
5.999972582648
11
3683.367871389411
21
-1125.962621141112
31
5.999972574039
0
LINE
8
0
10
4116.265773484508
20
-1712.272484280021
30
5.999981313113
11
4117.128239062423
21
-1711.289030758647
31
5.999981295708
0
LINE
8
0
10
4115.282319974246
20
-1713.134949870606
30
5.999981329134
11
4116.265773484508
21
-1712.272484280021
31
5.999981313113
0
LINE
8
0
10
4109.194705712798
20
-1245.201416467173
30
5.999974353468
11
4110.499967634996
21
-1245.115865081525
31
5.999974352132
0
LINE
8
0
10
4118.433500954435
20
-1709.028250792823
30
5.99998125796
11
4118.853963875673
21
-1707.789606920394
31
5.999981238261
0
LINE
8
0
10
4119.194705713265
20
-1135.20141647188
30
5.999972714245
11
4119.109154326977
21
-1133.896154549583
31
5.999972694798
0
LINE
8
0
10
3680.123637901192
20
-1128.130348654351
30
5.999972606304
11
3681.107091422972
21
-1127.267883063307
31
5.999972593465
0
LINE
8
0
10
3677.535447450158
20
-1132.613226015186
30
5.999972673057
11
3677.955910387939
21
-1131.374582142561
31
5.999972654611
0
LINE
8
0
10
3677.28025709717
20
-1368.896154558024
30
5.99997619294
11
3677.194705710663
21
-1370.201416480264
31
5.999976212336
0
LINE
8
0
10
3681.107091422972
20
-1127.267883063307
30
5.999972593465
11
3682.194705713061
21
-1126.541162428377
31
5.999972582648
0
LINE
8
0
10
3677.280257099308
20
-1133.89615454401
30
5.999972692164
11
3677.535447450158
21
-1132.613226015186
31
5.999972673057
0
LINE
8
0
10
3685.889443790326
20
-1360.286967862474
30
5.999976064823
11
3684.606515261453
21
-1360.542158213919
31
5.999976068644
0
LINE
8
0
10
4118.853963875673
20
-1707.789606920394
30
5.999981238261
11
4119.109154209389
21
-1706.506678391689
31
5.999981218462
0
LINE
8
0
10
3681.107091422066
20
-1362.267883075529
30
5.999976094366
11
3680.123637900127
21
-1363.130348667034
31
5.999976107204
0
LINE
8
0
10
3679.261172308895
20
-1364.113802189214
30
5.999976121836
11
3678.534451673758
21
-1365.20141647964
31
5.999976138013
0
LINE
8
0
10
3683.367871388748
20
-1360.962621152275
30
5.99997607492
11
3682.194705712291
21
-1361.54116244009
31
5.999976083543
0
LINE
8
0
10
3677.535447448258
20
-1367.61322602908
30
5.999976173872
11
3677.28025709717
21
-1368.896154558024
31
5.99997619294
0
LINE
8
0
10
3683.367871394883
20
-1714.440211790779
30
5.999981329927
11
3684.606515263766
21
-1714.860674727982
31
5.999981340522
0
LINE
8
0
10
4115.282320003193
20
-1127.267883064531
30
5.999972596018
11
4114.194705713091
21
-1126.541162428366
31
5.999972585181
0
LINE
8
0
10
4119.109154326977
20
-1133.896154549583
30
5.999972694798
11
4118.853963976104
21
-1132.613226020468
31
5.999972675683
0
LINE
8
0
10
4118.433501038301
20
-1131.374582147366
30
5.999972657227
11
4117.854959751009
21
-1130.201416470361
31
5.999972639744
0
LINE
8
0
10
4114.194705713091
20
-1126.541162428366
30
5.999972585181
11
4113.021540036731
21
-1125.962621139767
31
5.999972576552
0
LINE
8
0
10
3680.123637900961
20
-1477.272484282771
30
5.999977805155
11
3679.261172310099
21
-1476.289030760991
31
5.99997778998
0
LINE
8
0
10
4116.265773524989
20
-1128.130348656693
30
5.999972608876
11
4115.282320003193
21
-1127.267883064531
31
5.999972596018
0
LINE
8
0
10
4110.499967635266
20
-1125.286967848283
30
5.999972566464
11
4109.194705713065
21
-1125.201416471858
31
5.999972565177
0
LINE
8
0
10
4113.021540036731
20
-1125.962621139767
30
5.999972576552
11
4111.782896164097
21
-1125.542158200584
31
5.999972570277
0
LINE
8
0
10
4117.854959751009
20
-1130.201416470361
30
5.999972639744
11
4117.128239116055
21
-1129.113802179449
31
5.999972623534
0
LINE
8
0
10
4111.782896164097
20
-1125.542158200584
30
5.999972570277
11
4110.499967635266
21
-1125.286967848283
31
5.999972566464
0
LINE
8
0
10
4118.853963976104
20
-1132.613226020468
30
5.999972675683
11
4118.433501038301
21
-1131.374582147366
31
5.999972657227
0
LINE
8
0
10
4106.847274260734
20
-1071.441296429219
30
5.999971764286
11
4107.437346362738
21
-1071.958775781714
31
5.999971771999
0
LINE
8
0
10
3687.399150755442
20
-1074.64850219019
30
5.999971809356
11
3687.246036544932
21
-1075.418259308038
31
5.999971820827
0
LINE
8
0
10
4106.194705696003
20
-1071.005264050618
30
5.999971757786
11
4106.847274260734
21
-1071.441296429219
31
5.999971764286
0
LINE
8
0
10
3687.246036544932
20
-1075.418259308038
30
5.999971820827
11
3687.194705713174
21
-1076.201416461544
31
5.999971832497
0
LINE
8
0
10
3688.952065026063
20
-1071.958775768073
30
5.999971769282
11
3688.434585671434
21
-1072.54884788301
31
5.999971778072
0
LINE
8
0
10
4104.74761997943
20
-1070.405861520821
30
5.999971748847
11
4105.490806297613
21
-1070.658139280802
31
5.99997175261
0
LINE
8
0
10
4109.14337476991
20
-1075.418259309349
30
5.999971823547
11
4109.194705584926
21
-1076.201416462484
31
5.999971835214
0
LINE
8
0
10
3689.542137139132
20
-1071.441296411312
30
5.999971761574
11
3688.952065026063
21
-1071.958775768073
31
5.999971769282
0
LINE
8
0
10
3693.194705713187
20
-1070.201416439857
30
5.99997174312
11
3692.411548559867
21
-1070.252747274445
31
5.99997174388
0
LINE
8
0
10
4107.437346362738
20
-1071.958775781714
30
5.999971771999
11
4107.954825704754
21
-1072.548847892911
31
5.999971780792
0
LINE
8
0
10
3688.434585671434
20
-1072.54884788301
30
5.999971778072
11
3687.998553290473
21
-1073.201416458638
31
5.999971787794
0
LINE
8
0
10
4107.954825704754
20
-1072.548847892911
30
5.999971780792
11
4108.390858071763
21
-1073.201416465388
31
5.999971790517
0
LINE
8
0
10
4103.977862865408
20
-1070.252747313095
30
5.999971746561
11
4104.74761997943
21
-1070.405861520821
31
5.999971748847
0
LINE
8
0
10
4105.490806297613
20
-1070.658139280802
30
5.99997175261
11
4106.194705696003
21
-1071.005264050618
31
5.999971757786
0
LINE
8
0
10
4103.194705713185
20
-1070.201416484169
30
5.999971745792
11
4103.977862865408
21
-1070.252747313095
31
5.999971746561
0
LINE
8
0
10
4108.390858071763
20
-1073.201416465388
30
5.999971790517
11
4108.737982829077
21
-1073.905315869943
31
5.999971801005
0
LINE
8
0
10
4108.990260575857
20
-1074.648502192606
30
5.999971812078
11
4109.14337476991
21
-1075.418259309349
31
5.999971823547
0
LINE
8
0
10
3692.411548559867
20
-1070.252747274445
30
5.99997174388
11
3691.641791442572
21
-1070.405861487736
31
5.999971746157
0
LINE
8
0
10
3691.641791442572
20
-1070.405861487736
30
5.999971746157
11
3690.898605118995
21
-1070.658139253089
31
5.999971749912
0
LINE
8
0
10
3690.898605118995
20
-1070.658139253089
30
5.999971749912
11
3690.194705713185
21
-1071.005264027994
31
5.99997175508
0
LINE
8
0
10
3690.194705713185
20
-1071.005264027994
30
5.99997175508
11
3689.542137139132
21
-1071.441296411312
31
5.999971761574
0
LINE
8
0
10
3687.998553290473
20
-1073.201416458638
30
5.999971787794
11
3687.651428518111
21
-1073.905315865703
31
5.999971798282
0
LINE
8
0
10
3687.651428518111
20
-1073.905315865703
30
5.999971798282
11
3687.399150755442
21
-1074.64850219019
31
5.999971809356
0
LINE
8
0
10
3687.194705713064
20
-1125.201416466233
30
5.999972562729
11
3687.194705713174
21
-1076.201416461544
31
5.999971832497
0
LINE
8
0
10
3685.889443790863
20
-1125.286967852492
30
5.999972563994
11
3687.194705713064
21
-1125.201416466233
31
5.999972562729
0
LINE
8
0
10
3684.606515262038
20
-1125.542158203337
30
5.999972567786
11
3685.889443790863
21
-1125.286967852492
31
5.999972563994
0
LINE
8
0
10
3677.194705713043
20
-1135.20141646621
30
5.999972711606
11
3677.280257099308
21
-1133.89615454401
31
5.999972692164
0
LINE
8
0
10
3677.194705712818
20
-1235.201416470893
30
5.999974201091
11
3677.194705713043
21
-1135.20141646621
31
5.999972711606
0
LINE
8
0
10
3677.280257099077
20
-1236.506678393054
30
5.999974220538
11
3677.194705712818
21
-1235.201416470893
31
5.999974201091
0
LINE
8
0
10
3677.535447449922
20
-1237.78960692176
30
5.999974239665
11
3677.280257099077
21
-1236.506678393054
31
5.999974220538
0
LINE
8
0
10
3677.955910387697
20
-1239.028250794189
30
5.999974258144
11
3677.535447449922
21
-1237.78960692176
31
5.999974239665
0
LINE
8
0
10
3681.107091422714
20
-1243.134949871982
30
5.999974319531
11
3680.123637900938
21
-1242.272484281393
31
5.999974306616
0
LINE
8
0
10
3682.1947057128
20
-1243.861670506407
30
5.99997433043
11
3681.107091422714
21
-1243.134949871982
31
5.999974319531
0
LINE
8
0
10
3683.367871389149
20
-1244.440211793129
30
5.999974339129
11
3682.1947057128
21
-1243.861670506407
31
5.99997433043
0
LINE
8
0
10
3687.194705712799
20
-1245.201416466233
30
5.999974350732
11
3685.889443790596
21
-1245.115865080579
31
5.999974349367
0
LINE
8
0
10
3687.194705712799
20
-1245.201416466233
30
5.999974350732
11
3687.194705766391
21
-1360.201416475604
31
5.999976063522
0
LINE
8
0
10
3680.123637900127
20
-1363.130348667034
30
5.999976107204
11
3679.261172308895
21
-1364.113802189214
31
5.999976121836
0
LINE
8
0
10
3678.534451673758
20
-1365.20141647964
30
5.999976138013
11
3677.955910386269
21
-1366.374582156259
31
5.999976155458
0
LINE
8
0
10
3677.194705714156
20
-1470.201416470899
30
5.999977698179
11
3677.194705710663
21
-1370.201416480264
31
5.999976212336
0
LINE
8
0
10
3677.535447450779
20
-1472.789606921925
30
5.999977736858
11
3677.280257100173
21
-1471.5066783931
31
5.999977717629
0
LINE
8
0
10
3677.955910388324
20
-1474.028250794551
30
5.999977755536
11
3677.535447450779
21
-1472.789606921925
31
5.999977736858
0
LINE
8
0
10
3678.534451675372
20
-1475.201416470902
30
5.999977773345
11
3677.955910388324
21
-1474.028250794551
31
5.999977755536
0
LINE
8
0
10
3679.261172310099
20
-1476.289030760991
30
5.99997778998
11
3678.534451675372
21
-1475.201416470902
31
5.999977773345
0
LINE
8
0
10
3681.107091422577
20
-1478.13494987382
30
5.999977818611
11
3680.123637900961
21
-1477.272484282771
31
5.999977805155
0
LINE
8
0
10
3682.194705712528
20
-1478.861670508755
30
5.999977830119
11
3681.107091422577
21
-1478.13494987382
31
5.999977818611
0
LINE
8
0
10
3683.367871388769
20
-1479.440211796026
30
5.99997783948
11
3682.194705712528
21
-1478.861670508755
31
5.999977830119
0
LINE
8
0
10
3684.606515261315
20
-1479.860674733806
30
5.999977846536
11
3683.367871388769
21
-1479.440211796026
31
5.99997783948
0
LINE
8
0
10
3685.889443790091
20
-1480.115865084656
30
5.999977851164
11
3684.606515261315
21
-1479.860674733806
31
5.999977846536
0
LINE
8
0
10
3687.194705712277
20
-1480.201416470921
30
5.999977853287
11
3685.889443790091
21
-1480.115865084656
31
5.999977851164
0
LINE
8
0
10
3687.194705712277
20
-1480.201416470921
30
5.999977853287
11
3687.19470571202
21
-1595.201416468577
31
5.999979252651
0
LINE
8
0
10
3687.19470571202
20
-1595.201416468577
30
5.999979252651
11
3685.889443789059
21
-1595.286967854836
31
5.99997929349
0
LINE
8
0
10
3685.889443789059
20
-1595.286967854836
30
5.99997929349
11
3684.606515257963
21
-1595.54215820568
31
5.999979336144
0
LINE
8
0
10
3684.606515257963
20
-1595.54215820568
30
5.999979336144
11
3683.367871381593
21
-1595.962621143456
31
5.999979379883
0
LINE
8
0
10
3683.367871381593
20
-1595.962621143456
30
5.999979379883
11
3682.194705700093
21
-1596.541162430721
31
5.99997942396
0
LINE
8
0
10
3682.194705700093
20
-1596.541162430721
30
5.99997942396
11
3681.107091403535
21
-1597.267883065651
31
5.999979467619
0
LINE
8
0
10
3681.107091403535
20
-1597.267883065651
30
5.999979467619
11
3680.123637874079
21
-1598.130348656696
31
5.999979510115
0
LINE
8
0
10
3680.123637874079
20
-1598.130348656696
30
5.999979510115
11
3679.261172274276
21
-1599.113802178472
31
5.999979550719
0
LINE
8
0
10
3679.261172274276
20
-1599.113802178472
30
5.999979550719
11
3678.53445162966
21
-1600.201416468557
31
5.999979588737
0
LINE
8
0
10
3678.53445162966
20
-1600.201416468557
30
5.999979588737
11
3677.955910331946
21
-1601.374582144905
31
5.999979623519
0
LINE
8
0
10
3677.955910331946
20
-1601.374582144905
30
5.999979623519
11
3677.53544738314
21
-1602.61322601753
31
5.999979654469
0
LINE
8
0
10
3677.53544738314
20
-1602.61322601753
30
5.999979654469
11
3677.280257020871
21
-1603.896154546354
31
5.999979681058
0
LINE
8
0
10
3677.280257020871
20
-1603.896154546354
30
5.999979681058
11
3677.194705622988
21
-1605.201416468555
31
5.999979702831
0
LINE
8
0
10
3677.194705800789
20
-1705.201416468534
30
5.999981172169
11
3677.194705622988
21
-1605.201416468555
31
5.999979702831
0
LINE
8
0
10
3677.28025717543
20
-1706.506678390695
30
5.999981191653
11
3677.535447514855
21
-1707.789606919401
31
5.999981211413
0
LINE
8
0
10
3677.535447514855
20
-1707.789606919401
30
5.999981211413
11
3677.955910441604
21
-1709.028250791831
31
5.999981231112
0
LINE
8
0
10
3680.123637925968
20
-1712.272484279039
30
5.99998128651
11
3681.107091440068
21
-1713.134949869629
31
5.999981302689
0
LINE
8
0
10
3681.107091440068
20
-1713.134949869629
30
5.999981302689
11
3682.194705723684
21
-1713.861670504055
31
5.999981317244
0
LINE
8
0
10
3682.194705723684
20
-1713.861670504055
30
5.999981317244
11
3683.367871394883
21
-1714.440211790779
31
5.999981329927
0
LINE
8
0
10
3685.889443790319
20
-1715.115865078233
30
5.999981348846
11
3687.194705711755
21
-1715.201416463888
31
5.999981354757
0
LINE
8
0
10
3687.194705711755
20
-1715.201416463888
30
5.999981354757
11
3687.194698807202
21
-1770.20141646155
31
5.999967600629
0
LINE
8
0
10
4109.194705456868
20
-1770.201423298908
30
5.999960769894
11
3687.194698807202
21
-1770.20141646155
31
5.999967600629
0
LINE
8
0
10
4109.194705711755
20
-1715.201416464838
30
5.999981379983
11
4109.194705456868
21
-1770.201423298908
31
5.999960769894
0
LINE
8
0
10
4110.499967632809
20
-1715.115865079189
30
5.999981374361
11
4111.782896158226
21
-1714.860674728943
31
5.999981366308
0
LINE
8
0
10
4111.782896158226
20
-1714.860674728943
30
5.999981366308
11
4113.021540025238
21
-1714.440211791746
31
5.999981355962
0
LINE
8
0
10
4113.021540025238
20
-1714.440211791746
30
5.999981355962
11
4114.194705693862
21
-1713.861670505028
31
5.999981343499
0
LINE
8
0
10
4114.194705693862
20
-1713.861670505028
30
5.999981343499
11
4115.282319974246
21
-1713.134949870606
31
5.999981329134
0
LINE
8
0
10
4117.128239062423
20
-1711.289030758647
30
5.999981295708
11
4117.854959682832
21
-1710.201416468901
31
5.999981277218
0
LINE
8
0
10
4119.194705845555
20
-1605.20141646954
30
5.999979721996
11
4119.194705578221
21
-1705.201416469529
31
5.999981198899
0
LINE
8
0
10
4119.109154441864
20
-1603.896154547339
30
5.999979702675
11
4119.194705845555
21
-1605.20141646954
31
5.999979721996
0
LINE
8
0
10
4118.853964073885
20
-1602.613226018514
30
5.999979683596
11
4119.109154441864
21
-1603.896154547339
31
5.999979702675
0
LINE
8
0
10
4118.433501119567
20
-1601.374582145887
30
5.999979665087
11
4118.853964073885
21
-1602.613226018514
31
5.999979683596
0
LINE
8
0
10
4117.854959816633
20
-1600.201416469537
30
5.999979647463
11
4118.433501119567
21
-1601.374582145887
31
5.999979665087
0
LINE
8
0
10
4117.128239167178
20
-1599.113802179448
30
5.999979631027
11
4117.854959816633
21
-1600.201416469537
31
5.999979647463
0
LINE
8
0
10
4116.265773562998
20
-1598.130348657668
30
5.999979616059
11
4117.128239167178
21
-1599.113802179448
31
5.999979631027
0
LINE
8
0
10
4115.282320029703
20
-1597.267883066619
30
5.999979602815
11
4116.265773562998
21
-1598.130348657668
31
5.999979616059
0
LINE
8
0
10
4114.194705729911
20
-1596.541162431684
30
5.999979591524
11
4115.282320029703
21
-1597.267883066619
31
5.999979602815
0
LINE
8
0
10
4113.021540045836
20
-1595.962621144413
30
5.999979582376
11
4114.194705729911
21
-1596.541162431684
31
5.999979591524
0
LINE
8
0
10
4111.782896167597
20
-1595.542158206633
30
5.99997957553
11
4113.021540045836
21
-1595.962621144413
31
5.999979582376
0
LINE
8
0
10
4110.499967635365
20
-1595.286967855782
30
5.999979571102
11
4111.782896167597
21
-1595.542158206633
31
5.99997957553
0
LINE
8
0
10
4109.194705712021
20
-1595.201416469517
30
5.999979569167
11
4110.499967635365
21
-1595.286967855782
31
5.999979571102
0
LINE
8
0
10
4109.194705712276
20
-1480.201416476544
30
5.999977855401
11
4109.194705712021
21
-1595.201416469517
31
5.999979569167
0
LINE
8
0
10
4109.194705712276
20
-1480.201416476544
30
5.999977855401
11
4110.499967634477
21
-1480.115865089674
31
5.999977854202
0
LINE
8
0
10
4110.499967634477
20
-1480.115865089674
30
5.999977854202
11
4111.782896163301
21
-1479.860674738229
31
5.999977850472
0
LINE
8
0
10
4111.782896163301
20
-1479.860674738229
30
5.999977850472
11
4113.021540035927
21
-1479.440211799874
31
5.999977844275
0
LINE
8
0
10
4113.021540035927
20
-1479.440211799874
30
5.999977844275
11
4114.194705712274
21
-1478.861670512058
31
5.999977835717
0
LINE
8
0
10
4114.194705712274
20
-1478.861670512058
30
5.999977835717
11
4115.28232000236
21
-1478.13494987662
31
5.999977824944
0
LINE
8
0
10
4115.28232000236
20
-1478.13494987662
30
5.999977824944
11
4116.265773524138
21
-1477.272484285114
31
5.999977812143
0
LINE
8
0
10
4116.265773524138
20
-1477.272484285114
30
5.999977812143
11
4117.128239115183
21
-1476.289030762934
31
5.999977797529
0
LINE
8
0
10
4117.128239115183
20
-1476.289030762934
30
5.999977797529
11
4117.854959750114
21
-1475.201416472509
31
5.999977781355
0
LINE
8
0
10
4117.854959750114
20
-1475.201416472509
30
5.999977781355
11
4118.433501037381
21
-1474.02825079589
31
5.999977763897
0
LINE
8
0
10
4118.433501037381
20
-1474.02825079589
30
5.999977763897
11
4118.853963975156
21
-1472.789606923068
31
5.999977745453
0
LINE
8
0
10
4118.853963975156
20
-1472.789606923068
30
5.999977745453
11
4119.109154326003
21
-1471.506678394124
31
5.999977726339
0
LINE
8
0
10
4119.109154326003
20
-1471.506678394124
30
5.999977726339
11
4119.194705712262
21
-1470.201416471884
31
5.999977706883
0
LINE
8
0
10
4119.194705712557
20
-1370.201416476567
30
5.999976215878
11
4119.194705712262
21
-1470.201416471884
31
5.999977706883
0
LINE
8
0
10
4119.109154326294
20
-1368.896154554366
30
5.999976196414
11
4119.194705712557
21
-1370.201416476567
31
5.999976215878
0
LINE
8
0
10
4118.853963975444
20
-1367.61322602554
30
5.999976177276
11
4119.109154326294
21
-1368.896154554366
31
5.999976196414
0
LINE
8
0
10
4118.433501037664
20
-1366.374582152914
30
5.999976158793
11
4118.853963975444
21
-1367.61322602554
31
5.999976177276
0
LINE
8
0
10
4117.854959750394
20
-1365.201416476564
30
5.99997614128
11
4118.433501037664
21
-1366.374582152914
31
5.999976158793
0
LINE
8
0
10
4117.128239115461
20
-1364.113802186475
30
5.999976125038
11
4117.854959750394
21
-1365.201416476564
31
5.99997614128
0
LINE
8
0
10
4116.265773524413
20
-1363.130348664695
30
5.999976110343
11
4117.128239115461
21
-1364.113802186475
31
5.999976125038
0
LINE
8
0
10
4115.282320002633
20
-1362.267883073646
30
5.999976097448
11
4116.265773524413
21
-1363.130348664695
31
5.999976110343
0
LINE
8
0
10
4114.194705712545
20
-1361.541162438711
30
5.999976086573
11
4115.282320002633
21
-1362.267883073646
31
5.999976097448
0
LINE
8
0
10
4113.021540036195
20
-1360.96262115144
30
5.999976077905
11
4114.194705712545
21
-1361.541162438711
31
5.999976086573
0
LINE
8
0
10
4111.782896163569
20
-1360.542158213659
30
5.999976071591
11
4113.021540036195
21
-1360.96262115144
31
5.999976077905
0
LINE
8
0
10
4110.499967634744
20
-1360.286967862809
30
5.99997606774
11
4111.782896163569
21
-1360.542158213659
31
5.999976071591
0
LINE
8
0
10
4109.194705712543
20
-1360.201416476544
30
5.999976066417
11
4110.499967634744
21
-1360.286967862809
31
5.99997606774
0
LINE
8
0
10
4109.194705712798
20
-1245.201416467173
30
5.999974353468
11
4109.194705712543
21
-1360.201416476544
31
5.999976066417
0
LINE
8
0
10
4110.499967634996
20
-1245.115865081525
30
5.999974352132
11
4111.782896163817
21
-1244.860674731282
31
5.99997434827
0
LINE
8
0
10
4111.782896163817
20
-1244.860674731282
30
5.99997434827
11
4113.021540036434
21
-1244.440211794087
31
5.999974341947
0
LINE
8
0
10
4114.194705712771
20
-1243.86167050737
30
5.999974333272
11
4115.282320002844
21
-1243.13494987295
31
5.999974322394
0
LINE
8
0
10
4115.282320002844
20
-1243.13494987295
30
5.999974322394
11
4116.265773524605
21
-1242.272484282366
31
5.999974309499
0
LINE
8
0
10
4116.265773524605
20
-1242.272484282366
30
5.999974309499
11
4117.128239115632
21
-1241.289030760993
31
5.999974294807
0
LINE
8
0
10
4117.128239115632
20
-1241.289030760993
30
5.999974294807
11
4117.854959750543
21
-1240.201416471248
31
5.99997427857
0
LINE
8
0
10
4117.854959750543
20
-1240.201416471248
30
5.99997427857
11
4118.433501037787
21
-1239.028250795171
31
5.999974261065
0
LINE
8
0
10
4118.433501037787
20
-1239.028250795171
30
5.999974261065
11
4118.85396397554
21
-1237.789606922743
31
5.999974242592
0
LINE
8
0
10
4118.85396397554
20
-1237.789606922743
30
5.999974242592
11
4119.109154326363
21
-1236.506678394038
31
5.999974223467
0
LINE
8
0
10
4119.109154326363
20
-1236.506678394038
30
5.999974223467
11
4119.194705712598
21
-1235.201416471878
31
5.999974204018
0
LINE
8
0
10
4119.194705713265
20
-1135.20141647188
30
5.999972714245
11
4119.194705712598
21
-1235.201416471878
31
5.999974204018
0
LINE
8
0
10
4109.194705713065
20
-1125.201416471858
30
5.999972565177
11
4109.194705584926
21
-1076.201416462484
31
5.999971835214
0
LINE
8
0
10
4108.737982829077
20
-1073.905315869943
30
5.999971801005
11
4108.990260575857
21
-1074.648502192606
31
5.999971812078
0
LINE
8
0
10
3686.694705712477
20
-1390.201416470921
30
5.999977104791
11
3686.694705712343
21
-1450.201416470921
31
5.999977104791
0
LINE
8
0
10
3693.694705712476
20
-1390.201416470935
30
5.999977104791
11
3686.694705712477
21
-1390.201416470921
31
5.999977104791
0
LINE
8
0
10
3693.694705712343
20
-1450.201416470935
30
5.999977104791
11
3693.694705712476
21
-1390.201416470935
31
5.999977104791
0
LINE
8
0
10
3686.694705712343
20
-1450.201416470921
30
5.999977104791
11
3693.694705712343
21
-1450.201416470935
31
5.999977104791
0
LINE
8
0
10
4102.694705712343
20
-1450.201416471844
30
5.999969482331
11
4109.694705712343
21
-1450.201416471858
31
5.999969482331
0
LINE
8
0
10
4102.694705712476
20
-1390.201416471844
30
5.999969482331
11
4102.694705712343
21
-1450.201416471844
31
5.999969482331
0
LINE
8
0
10
4109.694705712476
20
-1390.201416471858
30
5.999969482331
11
4102.694705712476
21
-1390.201416471844
31
5.999969482331
0
LINE
8
0
10
4109.694705712343
20
-1450.201416471858
30
5.999969482331
11
4109.694705712476
21
-1390.201416471858
31
5.999969482331
0
LINE
8
0
10
3686.694705711821
20
-1685.201416463889
30
5.99997265791
11
3693.694705711821
21
-1685.201416463902
31
5.99997265791
0
LINE
8
0
10
3686.694705711954
20
-1625.201416463889
30
5.99997265791
11
3686.694705711821
21
-1685.201416463889
31
5.99997265791
0
LINE
8
0
10
3693.694705711955
20
-1625.201416463902
30
5.99997265791
11
3686.694705711954
21
-1625.201416463889
31
5.99997265791
0
LINE
8
0
10
3693.694705711821
20
-1685.201416463902
30
5.99997265791
11
3693.694705711955
21
-1625.201416463902
31
5.99997265791
0
LINE
8
0
10
4102.694705711954
20
-1625.201416464811
30
5.999972611738
11
4102.694705711821
21
-1685.201416464811
31
5.999972611738
0
LINE
8
0
10
4109.694705711955
20
-1625.201416464825
30
5.999972611738
11
4102.694705711954
21
-1625.201416464811
31
5.999972611738
0
LINE
8
0
10
4109.694705711821
20
-1685.201416464825
30
5.999972611738
11
4109.694705711955
21
-1625.201416464825
31
5.999972611738
0
LINE
8
0
10
4102.694705711821
20
-1685.201416464811
30
5.999972611738
11
4109.694705711821
21
-1685.201416464825
31
5.999972611738
0
LINE
8
0
10
4109.694705712998
20
-1155.201416467169
30
5.999966352924
11
4102.694705712998
21
-1155.201416467155
31
5.999966352924
0
LINE
8
0
10
4109.694705712865
20
-1215.201416467169
30
5.999966352924
11
4109.694705712998
21
-1155.201416467169
31
5.999966352924
0
LINE
8
0
10
4102.694705712865
20
-1215.201416467156
30
5.999966352924
11
4109.694705712865
21
-1215.201416467169
31
5.999966352924
0
LINE
8
0
10
4102.694705712998
20
-1155.201416467155
30
5.999966352924
11
4102.694705712865
21
-1215.201416467156
31
5.999966352924
0
LINE
8
0
10
3686.694705712865
20
-1215.201416466232
30
5.999973975772
11
3693.694705712865
21
-1215.201416466246
31
5.999973974995
0
LINE
8
0
10
3686.694705712998
20
-1155.201416466232
30
5.999973176775
11
3686.694705712865
21
-1215.201416466232
31
5.999973975772
0
LINE
8
0
10
3693.694705712998
20
-1155.201416466246
30
5.999973175998
11
3686.694705712998
21
-1155.201416466232
31
5.999973176775
0
LINE
8
0
10
3693.694705712865
20
-1215.201416466246
30
5.999973974995
11
3693.694705712998
21
-1155.201416466246
31
5.999973175998
0
LINE
8
0
10
4081.694705713086
20
-1115.601440876482
30
5.999972605596
11
4014.694705713086
21
-1115.601440876334
31
5.999972613032
0
LINE
8
0
10
4014.694705713086
20
-1115.601440876334
30
5.999972613032
11
4013.400607812696
21
-1115.431030720081
31
5.999972610906
0
LINE
8
0
10
4013.400607812696
20
-1115.431030720081
30
5.999972610906
11
4012.194705713087
21
-1114.931519001328
31
5.999972604388
0
LINE
8
0
10
4012.194705713087
20
-1114.931519001328
30
5.999972604388
11
4011.159167993362
21
-1114.136963337263
31
5.999972593923
0
LINE
8
0
10
4011.159167993362
20
-1114.136963337263
30
5.999972593923
11
4010.364581811724
21
-1113.101440876324
31
5.999972580221
0
LINE
8
0
10
4010.364581811724
20
-1113.101440876324
30
5.999972580221
11
4009.865077722371
21
-1111.895508259135
31
5.999972564218
0
LINE
8
0
10
4009.865077722371
20
-1111.895508259135
30
5.999972564218
11
4009.694705713096
21
-1110.601440876322
31
5.999972547004
0
LINE
8
0
10
4009.694705713096
20
-1110.601440876322
30
5.999972547004
11
4009.694705713138
21
-1091.801392048197
31
5.999972296651
0
LINE
8
0
10
4009.694705713138
20
-1091.801392048197
30
5.999972296651
11
4009.865077722419
21
-1090.507324665385
31
5.999972279399
0
LINE
8
0
10
4009.865077722419
20
-1090.507324665385
30
5.999972279399
11
4010.364581811777
21
-1089.301392048198
31
5.999972263285
0
LINE
8
0
10
4010.364581811777
20
-1089.301392048198
30
5.999972263285
11
4011.15916799342
21
-1088.265869587263
31
5.999972249407
0
LINE
8
0
10
4011.15916799342
20
-1088.265869587263
30
5.999972249407
11
4012.194705713148
21
-1087.471313923203
31
5.999972238711
0
LINE
8
0
10
4012.194705713148
20
-1087.471313923203
30
5.999972238711
11
4013.400607812759
21
-1086.971802204455
31
5.999972231925
0
LINE
8
0
10
4013.400607812759
20
-1086.971802204455
30
5.999972231925
11
4014.69470571315
21
-1086.801392048208
31
5.999972229513
0
LINE
8
0
10
4014.69470571315
20
-1086.801392048208
30
5.999972229513
11
4081.69470571315
21
-1086.801392048357
31
5.999972222076
0
LINE
8
0
10
4081.69470571315
20
-1086.801392048357
30
5.999972222076
11
4082.988801706191
21
-1086.97180220461
31
5.999972224202
0
LINE
8
0
10
4082.988801706191
20
-1086.97180220461
30
5.999972224202
11
4084.194705713148
21
-1087.471313923363
31
5.99997223072
0
LINE
8
0
10
4084.194705713148
20
-1087.471313923363
30
5.99997223072
11
4085.230239618175
21
-1088.265869587427
31
5.999972241186
0
LINE
8
0
10
4085.230239618175
20
-1088.265869587427
30
5.999972241186
11
4086.024833429208
21
-1089.301392048367
31
5.999972254887
0
LINE
8
0
10
4086.024833429208
20
-1089.301392048367
30
5.999972254887
11
4086.524335611213
21
-1090.507324665555
31
5.999972270891
0
LINE
8
0
10
4086.524335611213
20
-1090.507324665555
30
5.999972270891
11
4086.694705713138
21
-1091.801392048368
31
5.999972288104
0
LINE
8
0
10
4086.694705713138
20
-1091.801392048368
30
5.999972288104
11
4086.694705713096
21
-1110.601440876493
31
5.999972538458
0
LINE
8
0
10
4086.694705713096
20
-1110.601440876493
30
5.999972538458
11
4086.524335611165
21
-1111.895508259305
31
5.999972555709
0
LINE
8
0
10
4086.524335611165
20
-1111.895508259305
30
5.999972555709
11
4086.024833429156
21
-1113.101440876491
31
5.999972571824
0
LINE
8
0
10
4086.024833429156
20
-1113.101440876491
30
5.999972571824
11
4085.230239618118
21
-1114.136963337427
31
5.999972585701
0
LINE
8
0
10
4085.230239618118
20
-1114.136963337427
30
5.999972585701
11
4084.194705713087
21
-1114.931519001487
31
5.999972596397
0
LINE
8
0
10
4084.194705713087
20
-1114.931519001487
30
5.999972596397
11
4082.988801706128
21
-1115.431030720235
31
5.999972603183
0
LINE
8
0
10
4082.988801706128
20
-1115.431030720235
30
5.999972603183
11
4081.694705713086
21
-1115.601440876482
31
5.999972605596
0
LINE
8
0
10
3947.057483423089
20
-1096.495850055871
30
5.999972366117
11
3945.096927392824
21
-1092.760254352741
31
5.999972316589
0
LINE
8
0
10
3948.067111718979
20
-1100.592041462123
30
5.999972420552
11
3947.057483423089
21
-1096.495850055871
31
5.999972366117
0
LINE
8
0
10
3948.067111718969
20
-1104.810791462123
30
5.999972476732
11
3948.067111718979
21
-1100.592041462123
31
5.999972420552
0
LINE
8
0
10
3947.057483423061
20
-1108.906982868371
30
5.999972531392
11
3948.067111718969
21
-1104.810791462123
31
5.999972476732
0
LINE
8
0
10
3945.09692739278
20
-1112.642578571491
30
5.999972581355
11
3947.057483423061
21
-1108.906982868371
31
5.999972531392
0
LINE
8
0
10
3942.299350488476
20
-1115.800354450392
30
5.999972623716
11
3945.09692739278
21
-1112.642578571491
31
5.999972581355
0
LINE
8
0
10
3938.827365625189
20
-1118.19689986054
30
5.999972656015
11
3942.299350488476
21
-1115.800354450392
31
5.999972623716
0
LINE
8
0
10
3934.882724511905
20
-1119.692871540219
30
5.999972676374
11
3938.827365625189
21
-1118.19689986054
31
5.999972656015
0
LINE
8
0
10
3930.694705713076
20
-1120.201416462084
30
5.999972683611
11
3934.882724511905
21
-1119.692871540219
31
5.999972676374
0
LINE
8
0
10
3930.694705713076
20
-1120.201416462084
30
5.999972683611
11
3865.694705713076
21
-1120.20141646194
31
5.999972690826
0
LINE
8
0
10
3865.694705713076
20
-1120.20141646194
30
5.999972690826
11
3861.506686914248
21
-1119.692871540056
31
5.999972684518
0
LINE
8
0
10
3861.506686914248
20
-1119.692871540056
30
5.999972684518
11
3857.562045800971
21
-1118.19689986036
31
5.999972665035
0
LINE
8
0
10
3857.562045800971
20
-1118.19689986036
30
5.999972665035
11
3854.090060937694
21
-1115.800354450196
31
5.999972633506
0
LINE
8
0
10
3854.090060937694
20
-1115.800354450196
30
5.999972633506
11
3851.292484033405
21
-1112.642578571283
31
5.999972591766
0
LINE
8
0
10
3851.292484033405
20
-1112.642578571283
30
5.999972591766
11
3849.331912744351
21
-1108.906982868154
31
5.999972542238
0
LINE
8
0
10
3849.331912744351
20
-1108.906982868154
30
5.999972542238
11
3848.32229970725
21
-1104.810791461902
31
5.999972487803
0
LINE
8
0
10
3848.32229970725
20
-1104.810791461902
30
5.999972487803
11
3848.32229970726
21
-1100.592041461902
31
5.999972431623
0
LINE
8
0
10
3848.32229970726
20
-1100.592041461902
30
5.999972431623
11
3849.331912744378
21
-1096.495850055654
31
5.999972376964
0
LINE
8
0
10
3849.331912744378
20
-1096.495850055654
30
5.999972376964
11
3851.292484033449
21
-1092.760254352533
31
5.999972327
0
LINE
8
0
10
3851.292484033449
20
-1092.760254352533
30
5.999972327
11
3854.090060937752
21
-1089.602478473633
31
5.999972284639
0
LINE
8
0
10
3854.090060937752
20
-1089.602478473633
30
5.999972284639
11
3857.562045801039
21
-1087.205933063485
31
5.99997225234
0
LINE
8
0
10
3857.562045801039
20
-1087.205933063485
30
5.99997225234
11
3861.506686914323
21
-1085.709961383806
31
5.999972231981
0
LINE
8
0
10
3861.506686914323
20
-1085.709961383806
30
5.999972231981
11
3865.694705713153
21
-1085.20141646194
31
5.999972224744
0
LINE
8
0
10
3865.694705713153
20
-1085.20141646194
30
5.999972224744
11
3930.694705713153
21
-1085.201416462084
31
5.999972217529
0
LINE
8
0
10
3934.88272451198
20
-1085.709961383969
30
5.999972223837
11
3930.694705713153
21
-1085.201416462084
31
5.999972217529
0
LINE
8
0
10
3938.827365625258
20
-1087.205933063665
30
5.99997224332
11
3934.88272451198
21
-1085.709961383969
31
5.999972223837
0
LINE
8
0
10
3942.299350488534
20
-1089.602478473829
30
5.999972274849
11
3938.827365625258
21
-1087.205933063665
31
5.99997224332
0
LINE
8
0
10
3945.096927392824
20
-1092.760254352741
30
5.999972316589
11
3942.299350488534
21
-1089.602478473829
31
5.999972274849
0
LINE
8
0
10
3684.606515261773
20
-1244.86067473033
30
5.999974345478
11
3683.367871389149
21
-1244.440211793129
31
5.999974339129
0
LINE
8
0
10
3679.261172310143
20
-1129.113802176128
30
5.999972620946
11
3680.123637901192
21
-1128.130348654351
31
5.999972606304
0
ENDSEC
0
EOF
