0
SECTION
2
ENTITIES
0
LINE
8
0
10
2191.517652485773
20
-1197.368131804056
30
6.000000691787
11
2191.000013325617
21
-1197.299982237405
31
6.000000691788
0
LINE
8
0
10
2192.931867573651
20
-1226.28234307725
30
6.000000691787
11
2192.732068989666
21
-1225.799982237406
31
6.000000691787
0
LINE
8
0
10
2187.000013325495
20
-1467.299982237403
30
6.00000069179
11
2187.000013325599
21
-1237.299982237403
31
6.00000069179
0
LINE
8
0
10
2000.51765057845
20
-1141.368130373458
30
6.000000691927
11
2000.000013325642
21
-1141.299982237319
31
6.000000691927
0
LINE
8
0
10
1777.000013325607
20
-1219.39998071134
30
6.00000069209
11
1777.000013325604
21
-1224.799982237219
31
6.00000069209
0
LINE
8
0
10
1777.000013325639
20
-1147.299982237219
30
6.00000069209
11
1777.000013325617
21
-1197.299982237219
31
6.00000069209
0
LINE
8
0
10
1974.500013325641
20
-1143.299982237307
30
6.000000691946
11
1974.431865189502
21
-1142.782344030826
31
6.000000691946
0
LINE
8
0
10
2176.000013325609
20
-1213.699983763277
30
6.000000691799
11
2176.000013325609
21
-1215.199983763277
31
6.000000691799
0
LINE
8
0
10
1984.100013230272
20
-1147.299982237313
30
6.000000691939
11
1984.100013230267
21
-1158.299982237312
31
6.000000691939
0
LINE
8
0
10
1771.068159077565
20
-1208.317621397372
30
6.000000692095
11
1771.267957661549
21
-1208.799982237216
31
6.000000692094
0
LINE
8
0
10
1979.900013421002
20
-1158.29998223731
30
6.000000691942
11
1979.900013421007
21
-1147.29998223731
31
6.000000691942
0
LINE
8
0
10
1973.500013325642
20
-1141.567931341616
30
6.000000691947
11
1973.017651532124
21
-1141.368130373446
31
6.000000691947
0
LINE
8
0
10
1962.000013325641
20
-1143.299982237302
30
6.000000691955
11
1962.000013325639
21
-1147.299982237302
31
6.000000691955
0
LINE
8
0
10
1771.267957661549
20
-1208.799982237216
30
6.000000692094
11
1771.585798237721
21
-1209.214197325107
31
6.000000692095
0
LINE
8
0
10
2193.000013325604
20
-1226.799982237406
30
6.000000691786
11
2192.931867573651
21
-1226.28234307725
31
6.000000691787
0
LINE
8
0
10
1777.000013325609
20
-1215.199983763098
30
6.00000069209
11
1788.000013325609
21
-1215.199983763103
31
6.000000692083
0
LINE
8
0
10
1791.000013325609
20
-1213.699983763104
30
6.00000069208
11
1791.000013325609
21
-1215.199983763104
31
6.00000069208
0
LINE
8
0
10
1979.900013421
20
-1161.29998223731
30
6.000000691942
11
1978.400013421
21
-1161.299982237309
31
6.000000691943
0
LINE
8
0
10
1962.068160984943
20
-1142.78234403082
30
6.000000691955
11
1962.000013325641
21
-1143.299982237302
31
6.000000691955
0
LINE
8
0
10
1773.000013325611
20
-1209.799982237217
30
6.000000692093
11
1777.000013325611
21
-1209.799982237219
31
6.00000069209
0
LINE
8
0
10
1989.767962429951
20
-1142.299982237314
30
6.000000691935
11
1989.56816146178
21
-1142.782344030833
31
6.000000691935
0
LINE
8
0
10
1772.000013325616
20
-1197.567930387851
30
6.000000692094
11
1771.585798237726
21
-1197.885767149326
31
6.000000692095
0
LINE
8
0
10
1990.0858001451
20
-1141.885768579935
30
6.000000691934
11
1989.767962429951
21
-1142.299982237314
31
6.000000691935
0
LINE
8
0
10
1792.000013325609
20
-1215.199983763104
30
6.000000692079
11
1792.000013325607
21
-1219.399980711346
31
6.000000692079
0
LINE
8
0
10
2192.931867573659
20
-1208.317621397562
30
6.000000691787
11
2193.000013325612
21
-1207.799982237406
31
6.000000691786
0
LINE
8
0
10
2002.000013325639
20
-1147.29998223732
30
6.000000691926
11
2002.000013325641
21
-1143.29998223732
31
6.000000691926
0
LINE
8
0
10
1984.100013230267
20
-1158.299982237312
30
6.000000691939
11
1985.600013230267
21
-1158.299982237313
31
6.000000691938
0
LINE
8
0
10
1962.000013325639
20
-1147.299982237302
30
6.000000691955
11
1777.000013325639
21
-1147.299982237219
31
6.00000069209
0
LINE
8
0
10
1972.500013325642
20
-1141.299982237306
30
6.000000691947
11
1964.000013325642
21
-1141.299982237304
31
6.000000691954
0
LINE
8
0
10
1788.000013325607
20
-1219.399980711345
30
6.000000692083
11
1777.000013325607
21
-1219.39998071134
31
6.00000069209
0
LINE
8
0
10
1773.000013325617
20
-1197.299982237217
30
6.000000692093
11
1772.48237416546
21
-1197.368131803867
31
6.000000692094
0
LINE
8
0
10
1771.000013325616
20
-1199.299982237216
30
6.000000692095
11
1771.000013325612
21
-1207.799982237216
31
6.000000692095
0
LINE
8
0
10
1772.482374165455
20
-1209.731832670566
30
6.000000692094
11
1773.000013325611
21
-1209.799982237217
31
6.000000692093
0
LINE
8
0
10
1771.068159077569
20
-1198.78234307706
30
6.000000692095
11
1771.000013325616
21
-1199.299982237216
31
6.000000692095
0
LINE
8
0
10
1788.000013325485
20
-1490.899988340739
30
6.000000692083
11
1788.000013325485
21
-1489.399988340739
31
6.000000692083
0
LINE
8
0
10
1771.585798237721
20
-1209.214197325107
30
6.000000692095
11
1772.000013325611
21
-1209.532034086582
31
6.000000692094
0
LINE
8
0
10
1791.000013325485
20
-1490.899988340741
30
6.00000069208
11
1788.000013325485
21
-1490.899988340739
31
6.000000692083
0
LINE
8
0
10
1777.00001332549
20
-1479.799982237219
30
6.00000069209
11
1777.000013325487
21
-1485.199976133703
31
6.00000069209
0
LINE
8
0
10
1771.000013325491
20
-1477.799982237216
30
6.000000692095
11
1771.068159077443
21
-1478.317621397372
31
6.000000692095
0
LINE
8
0
10
1978.400013421
20
-1161.299982237309
30
6.000000691943
11
1978.400013421002
21
-1158.299982237309
31
6.000000691943
0
LINE
8
0
10
1777.000013325483
20
-1494.799982237219
30
6.00000069209
11
1773.000013325483
21
-1494.799982237217
31
6.000000692093
0
LINE
8
0
10
1771.000013325482
20
-1496.799982237216
30
6.000000692095
11
1771.000013325478
21
-1505.299982237216
31
6.000000692095
0
LINE
8
0
10
1979.900013421
20
-1162.29998223731
30
6.000000691942
11
1979.900013421
21
-1161.29998223731
31
6.000000691942
0
LINE
8
0
10
1777.000013325478
20
-1507.299982237219
30
6.00000069209
11
1777.000013325455
21
-1557.300001736743
31
6.00000069209
0
LINE
8
0
10
1773.000013325604
20
-1224.799982237217
30
6.000000692093
11
1772.482374165448
21
-1224.86812798917
31
6.000000692094
0
LINE
8
0
10
1791.000013325485
20
-1489.399988340741
30
6.00000069208
11
1791.000013325485
21
-1490.899988340741
31
6.00000069208
0
LINE
8
0
10
1791.000013325609
20
-1215.199983763104
30
6.00000069208
11
1792.000013325609
21
-1215.199983763104
31
6.000000692079
0
LINE
8
0
10
1772.482374165334
20
-1479.731836485264
30
6.000000692094
11
1773.00001332549
21
-1479.799982237217
31
6.000000692093
0
LINE
8
0
10
1777.000013325455
20
-1557.300001736743
30
6.00000069209
11
2187.000013325455
21
-1557.300001736927
31
6.00000069179
0
LINE
8
0
10
2187.000013325455
20
-1557.300001736927
30
6.00000069179
11
2187.000013325478
21
-1507.299982237403
31
6.00000069179
0
LINE
8
0
10
2001.414226506183
20
-1141.885768579941
30
6.000000691927
11
2001.000013325642
21
-1141.567931341628
31
6.000000691926
0
LINE
8
0
10
2001.000013325642
20
-1141.567931341628
30
6.000000691926
11
2000.51765057845
21
-1141.368130373458
31
6.000000691927
0
LINE
8
0
10
1990.500013325642
20
-1141.567931341624
30
6.000000691934
11
1990.0858001451
21
-1141.885768579935
31
6.000000691934
0
LINE
8
0
10
1978.400013421002
20
-1158.299982237309
30
6.000000691943
11
1979.900013421002
21
-1158.29998223731
31
6.000000691942
0
LINE
8
0
10
1973.914226506184
20
-1141.885768579928
30
6.000000691947
11
1973.500013325642
21
-1141.567931341616
31
6.000000691947
0
LINE
8
0
10
1963.482376072834
20
-1141.368130373442
30
6.000000691954
11
1963.000013325642
21
-1141.567931341611
31
6.000000691955
0
LINE
8
0
10
1963.000013325642
20
-1141.567931341611
30
6.000000691955
11
1962.5858001451
21
-1141.885768579923
31
6.000000691955
0
LINE
8
0
10
1962.5858001451
20
-1141.885768579923
30
6.000000691955
11
1962.267963383625
21
-1142.299982237302
31
6.000000691955
0
LINE
8
0
10
1772.48237416546
20
-1197.368131803867
30
6.000000692094
11
1772.000013325616
21
-1197.567930387851
31
6.000000692094
0
LINE
8
0
10
1771.585798237726
20
-1197.885767149326
30
6.000000692095
11
1771.267957661554
21
-1198.299982237216
31
6.000000692094
0
LINE
8
0
10
1788.000013325609
20
-1215.199983763103
30
6.000000692083
11
1788.000013325609
21
-1213.699983763103
31
6.000000692083
0
LINE
8
0
10
1791.000013325606
20
-1220.899980711346
30
6.00000069208
11
1788.000013325606
21
-1220.899980711345
31
6.000000692083
0
LINE
8
0
10
1777.000013325604
20
-1224.799982237219
30
6.00000069209
11
1773.000013325604
21
-1224.799982237217
31
6.000000692093
0
LINE
8
0
10
1772.482374165448
20
-1224.86812798917
30
6.000000692094
11
1772.000013325604
21
-1225.067934202548
31
6.000000692094
0
LINE
8
0
10
1772.000013325604
20
-1225.067934202548
30
6.000000692094
11
1771.585798237714
21
-1225.385767149326
31
6.000000692095
0
LINE
8
0
10
1771.585798237714
20
-1225.385767149326
30
6.000000692095
11
1771.267957661541
21
-1225.799982237216
31
6.000000692094
0
LINE
8
0
10
1771.267957661541
20
-1225.799982237216
30
6.000000692094
11
1771.068159077557
21
-1226.28234307706
31
6.000000692095
0
LINE
8
0
10
1771.068159077557
20
-1226.28234307706
30
6.000000692095
11
1771.000013325604
21
-1226.799982237216
31
6.000000692095
0
LINE
8
0
10
1771.000013325604
20
-1226.799982237216
30
6.000000692095
11
1771.0000133256
21
-1235.299982237216
31
6.000000692095
0
LINE
8
0
10
1771.0000133256
20
-1235.299982237216
30
6.000000692095
11
1771.068159077553
21
-1235.817621397372
31
6.000000692095
0
LINE
8
0
10
1771.068159077553
20
-1235.817621397372
30
6.000000692095
11
1771.267957661537
21
-1236.299982237216
31
6.000000692094
0
LINE
8
0
10
1771.267957661537
20
-1236.299982237216
30
6.000000692094
11
1771.585798237709
21
-1236.714197325107
31
6.000000692095
0
LINE
8
0
10
1771.585798237709
20
-1236.714197325107
30
6.000000692095
11
1772.000013325599
21
-1237.032030271884
31
6.000000692094
0
LINE
8
0
10
1772.000013325599
20
-1237.032030271884
30
6.000000692094
11
1772.482374165442
21
-1237.231836485264
31
6.000000692094
0
LINE
8
0
10
1772.482374165442
20
-1237.231836485264
30
6.000000692094
11
1773.000013325599
21
-1237.299982237217
31
6.000000692093
0
LINE
8
0
10
1773.000013325599
20
-1237.299982237217
30
6.000000692093
11
1777.000013325599
21
-1237.299982237219
31
6.00000069209
0
LINE
8
0
10
1777.000013325599
20
-1237.299982237219
30
6.00000069209
11
1777.000013325495
21
-1467.299982237219
31
6.00000069209
0
LINE
8
0
10
1777.000013325495
20
-1467.299982237219
30
6.00000069209
11
1773.000013325495
21
-1467.299982237217
31
6.000000692093
0
LINE
8
0
10
1773.000013325495
20
-1467.299982237217
30
6.000000692093
11
1772.482374165339
21
-1467.36812798917
31
6.000000692094
0
LINE
8
0
10
1772.482374165339
20
-1467.36812798917
30
6.000000692094
11
1772.000013325495
21
-1467.567926573154
31
6.000000692094
0
LINE
8
0
10
1772.000013325495
20
-1467.567926573154
30
6.000000692094
11
1771.585798237605
21
-1467.885767149326
31
6.000000692095
0
LINE
8
0
10
1771.585798237605
20
-1467.885767149326
30
6.000000692095
11
1771.267957661433
21
-1468.299982237216
31
6.000000692094
0
LINE
8
0
10
1771.267957661433
20
-1468.299982237216
30
6.000000692094
11
1771.068159077448
21
-1468.78234307706
31
6.000000692095
0
LINE
8
0
10
1771.068159077448
20
-1468.78234307706
30
6.000000692095
11
1771.000013325494
21
-1469.299982237216
31
6.000000692095
0
LINE
8
0
10
1771.000013325494
20
-1469.299982237216
30
6.000000692095
11
1771.000013325491
21
-1477.799982237216
31
6.000000692095
0
LINE
8
0
10
1771.068159077443
20
-1478.317621397372
30
6.000000692095
11
1771.267957661428
21
-1478.799982237216
31
6.000000692094
0
LINE
8
0
10
1771.267957661428
20
-1478.799982237216
30
6.000000692094
11
1771.5857982376
21
-1479.214197325107
31
6.000000692095
0
LINE
8
0
10
1771.5857982376
20
-1479.214197325107
30
6.000000692095
11
1772.00001332549
21
-1479.532037901279
31
6.000000692094
0
LINE
8
0
10
1772.00001332549
20
-1479.532037901279
30
6.000000692094
11
1772.482374165334
21
-1479.731836485264
31
6.000000692094
0
LINE
8
0
10
1773.00001332549
20
-1479.799982237217
30
6.000000692093
11
1777.00001332549
21
-1479.799982237219
31
6.00000069209
0
LINE
8
0
10
1777.000013325487
20
-1485.199976133703
30
6.00000069209
11
1788.000013325487
21
-1485.199976133708
31
6.000000692083
0
LINE
8
0
10
1788.000013325487
20
-1485.199976133708
30
6.000000692083
11
1788.000013325488
21
-1483.699976133708
31
6.000000692083
0
LINE
8
0
10
1788.000013325488
20
-1483.699976133708
30
6.000000692083
11
1791.000013325488
21
-1483.69997613371
31
6.00000069208
0
LINE
8
0
10
1791.000013325488
20
-1483.69997613371
30
6.00000069208
11
1791.000013325487
21
-1485.19997613371
31
6.00000069208
0
LINE
8
0
10
1791.000013325487
20
-1485.19997613371
30
6.00000069208
11
1792.000013325488
21
-1485.19997613371
31
6.000000692079
0
LINE
8
0
10
1792.000013325488
20
-1485.19997613371
30
6.000000692079
11
1792.000013325486
21
-1489.399988340741
31
6.000000692079
0
LINE
8
0
10
1792.000013325486
20
-1489.399988340741
30
6.000000692079
11
1791.000013325485
21
-1489.399988340741
31
6.00000069208
0
LINE
8
0
10
1788.000013325485
20
-1489.399988340739
30
6.000000692083
11
1777.000013325485
21
-1489.399988340734
31
6.00000069209
0
LINE
8
0
10
1777.000013325485
20
-1489.399988340734
30
6.00000069209
11
1777.000013325483
21
-1494.799982237219
31
6.00000069209
0
LINE
8
0
10
1773.000013325483
20
-1494.799982237217
30
6.000000692093
11
1772.482374165327
21
-1494.86812798917
31
6.000000692094
0
LINE
8
0
10
1772.482374165327
20
-1494.86812798917
30
6.000000692094
11
1772.000013325483
21
-1495.067926573154
31
6.000000692094
0
LINE
8
0
10
1772.000013325483
20
-1495.067926573154
30
6.000000692094
11
1771.585798237592
21
-1495.385767149326
31
6.000000692095
0
LINE
8
0
10
1771.585798237592
20
-1495.385767149326
30
6.000000692095
11
1771.26795766142
21
-1495.799982237216
31
6.000000692094
0
LINE
8
0
10
1771.26795766142
20
-1495.799982237216
30
6.000000692094
11
1771.068159077435
21
-1496.28234307706
31
6.000000692095
0
LINE
8
0
10
1771.068159077435
20
-1496.28234307706
30
6.000000692095
11
1771.000013325482
21
-1496.799982237216
31
6.000000692095
0
LINE
8
0
10
1771.000013325478
20
-1505.299982237216
30
6.000000692095
11
1771.068159077431
21
-1505.817621397372
31
6.000000692095
0
LINE
8
0
10
1771.068159077431
20
-1505.817621397372
30
6.000000692095
11
1771.267957661415
21
-1506.299982237216
31
6.000000692094
0
LINE
8
0
10
1771.585798237587
20
-1506.714197325107
30
6.000000692095
11
1772.000013325478
21
-1507.032037901279
31
6.000000692094
0
LINE
8
0
10
1772.000013325478
20
-1507.032037901279
30
6.000000692094
11
1772.482374165321
21
-1507.231836485264
31
6.000000692094
0
LINE
8
0
10
1772.482374165321
20
-1507.231836485264
30
6.000000692094
11
1773.000013325477
21
-1507.299982237217
31
6.000000692093
0
LINE
8
0
10
1773.000013325477
20
-1507.299982237217
30
6.000000692093
11
1777.000013325478
21
-1507.299982237219
31
6.00000069209
0
LINE
8
0
10
2193.000013325494
20
-1469.299982237406
30
6.000000691786
11
2192.931867573542
21
-1468.782343077249
31
6.000000691787
0
LINE
8
0
10
2173.000013325485
20
-1490.899988340912
30
6.000000691801
11
2173.000013325485
21
-1489.399988340912
31
6.000000691801
0
LINE
8
0
10
2192.732068989545
20
-1495.799982237405
30
6.000000691787
11
2192.414228413373
21
-1495.385767149515
31
6.000000691787
0
LINE
8
0
10
2191.000013325478
20
-1507.299982237405
30
6.000000691788
11
2191.517652485634
21
-1507.231836485452
31
6.000000691787
0
LINE
8
0
10
2173.000013325485
20
-1489.399988340912
30
6.000000691801
11
2172.000013325485
21
-1489.399988340912
31
6.000000691802
0
LINE
8
0
10
2193.000013325491
20
-1477.799982237406
30
6.000000691786
11
2193.000013325494
21
-1469.299982237406
31
6.000000691786
0
LINE
8
0
10
2191.000013325495
20
-1467.299982237405
30
6.000000691788
11
2187.000013325495
21
-1467.299982237403
31
6.00000069179
0
LINE
8
0
10
2191.517652485646
20
-1479.731836485452
30
6.000000691787
11
2192.00001332549
21
-1479.532037901468
31
6.000000691787
0
LINE
8
0
10
2176.000013325485
20
-1489.399988340914
30
6.000000691799
11
2176.000013325485
21
-1490.899988340914
31
6.000000691799
0
LINE
8
0
10
2192.73206898954
20
-1506.299982237406
30
6.000000691787
11
2192.931867573525
21
-1505.817621397562
31
6.000000691787
0
LINE
8
0
10
2191.517652485639
20
-1494.868127989358
30
6.000000691787
11
2191.000013325483
21
-1494.799982237405
31
6.000000691788
0
LINE
8
0
10
2191.00001332549
20
-1479.799982237405
30
6.000000691788
11
2191.517652485646
21
-1479.731836485452
31
6.000000691787
0
LINE
8
0
10
2192.00001332549
20
-1479.532037901468
30
6.000000691787
11
2192.41422841338
21
-1479.214197325296
31
6.000000691787
0
LINE
8
0
10
2192.41422841338
20
-1479.214197325296
30
6.000000691787
11
2192.732068989553
21
-1478.799982237405
31
6.000000691787
0
LINE
8
0
10
2192.414228413368
20
-1506.714197325296
30
6.000000691787
11
2192.73206898954
21
-1506.299982237406
31
6.000000691787
0
LINE
8
0
10
2192.414228413373
20
-1495.385767149515
30
6.000000691787
11
2192.000013325483
21
-1495.067926573343
31
6.000000691787
0
LINE
8
0
10
2192.931867573542
20
-1468.782343077249
30
6.000000691787
11
2192.732068989557
21
-1468.299982237406
31
6.000000691787
0
LINE
8
0
10
2192.931867573529
20
-1496.282343077249
30
6.000000691787
11
2192.732068989545
21
-1495.799982237405
31
6.000000691787
0
LINE
8
0
10
2176.000013325488
20
-1483.699976133883
30
6.000000691799
11
2176.000013325488
21
-1485.199976133882
31
6.000000691799
0
LINE
8
0
10
2172.000013325607
20
-1219.399980711517
30
6.000000691802
11
2172.000013325609
21
-1215.199983763275
31
6.000000691802
0
LINE
8
0
10
2187.00001332549
20
-1479.799982237403
30
6.00000069179
11
2191.00001332549
21
-1479.799982237405
31
6.000000691788
0
LINE
8
0
10
2176.000013325485
20
-1490.899988340914
30
6.000000691799
11
2173.000013325485
21
-1490.899988340912
31
6.000000691801
0
LINE
8
0
10
2187.000013325617
20
-1197.299982237403
30
6.00000069179
11
2187.000013325639
21
-1147.299982237403
31
6.00000069179
0
LINE
8
0
10
2187.000013325483
20
-1494.799982237403
30
6.00000069179
11
2187.000013325485
21
-1489.399988340919
31
6.00000069179
0
LINE
8
0
10
2176.000013325488
20
-1485.199976133882
30
6.000000691799
11
2187.000013325487
21
-1485.199976133887
31
6.00000069179
0
LINE
8
0
10
1989.500013325641
20
-1143.299982237314
30
6.000000691935
11
1989.500013325639
21
-1147.299982237314
31
6.000000691935
0
LINE
8
0
10
2002.000013325641
20
-1143.29998223732
30
6.000000691926
11
2001.931865666339
21
-1142.782344030838
31
6.000000691926
0
LINE
8
0
10
2176.000013325607
20
-1219.399980711519
30
6.000000691799
11
2176.000013325606
21
-1220.899980711519
31
6.000000691799
0
LINE
8
0
10
2193.000013325482
20
-1496.799982237406
30
6.000000691786
11
2192.931867573529
21
-1496.282343077249
31
6.000000691787
0
LINE
8
0
10
2192.732068989662
20
-1236.299982237406
30
6.000000691787
11
2192.931867573646
21
-1235.817621397562
31
6.000000691787
0
LINE
8
0
10
2192.414228413495
20
-1225.385767149516
30
6.000000691787
11
2192.000013325604
21
-1225.067934202737
31
6.000000691787
0
LINE
8
0
10
2193.0000133256
20
-1235.299982237406
30
6.000000691786
11
2193.000013325604
21
-1226.799982237406
31
6.000000691786
0
LINE
8
0
10
2192.000013325478
20
-1507.032037901468
30
6.000000691787
11
2192.414228413368
21
-1506.714197325296
31
6.000000691787
0
LINE
8
0
10
2193.000013325478
20
-1505.299982237406
30
6.000000691786
11
2193.000013325482
21
-1496.799982237406
31
6.000000691786
0
LINE
8
0
10
2192.000013325495
20
-1467.567926573343
30
6.000000691787
11
2191.517652485652
21
-1467.368127989359
31
6.000000691787
0
LINE
8
0
10
2192.732068989674
20
-1208.799982237406
30
6.000000691787
11
2192.931867573659
21
-1208.317621397562
31
6.000000691787
0
LINE
8
0
10
2187.000013325604
20
-1224.799982237403
30
6.00000069179
11
2187.000013325607
21
-1219.399980711524
31
6.00000069179
0
LINE
8
0
10
2192.000013325483
20
-1495.067926573343
30
6.000000691787
11
2191.517652485639
21
-1494.868127989358
31
6.000000691787
0
LINE
8
0
10
2192.414228413502
20
-1209.214197325297
30
6.000000691787
11
2192.732068989674
21
-1208.799982237406
31
6.000000691787
0
LINE
8
0
10
2191.517652485652
20
-1467.368127989359
30
6.000000691787
11
2191.000013325495
21
-1467.299982237405
31
6.000000691788
0
LINE
8
0
10
2001.931865666339
20
-1142.782344030838
30
6.000000691926
11
2001.732063267658
21
-1142.29998223732
31
6.000000691926
0
LINE
8
0
10
2187.000013325485
20
-1489.399988340919
30
6.00000069179
11
2176.000013325485
21
-1489.399988340914
31
6.000000691799
0
LINE
8
0
10
2192.931867573663
20
-1198.782343077249
30
6.000000691787
11
2192.732068989679
21
-1198.299982237406
31
6.000000691787
0
LINE
8
0
10
2172.000013325485
20
-1489.399988340912
30
6.000000691802
11
2172.000013325487
21
-1485.199976133881
31
6.000000691802
0
LINE
8
0
10
2192.732068989666
20
-1225.799982237406
30
6.000000691787
11
2192.414228413495
21
-1225.385767149516
31
6.000000691787
0
LINE
8
0
10
1990.98237511916
20
-1141.368130373454
30
6.000000691934
11
1990.500013325642
21
-1141.567931341624
31
6.000000691934
0
LINE
8
0
10
2001.732063267658
20
-1142.29998223732
30
6.000000691926
11
2001.414226506183
21
-1141.885768579941
31
6.000000691927
0
LINE
8
0
10
2192.41422841349
20
-1236.714197325297
30
6.000000691787
11
2192.732068989662
21
-1236.299982237406
31
6.000000691787
0
LINE
8
0
10
2187.000013325487
20
-1485.199976133887
30
6.00000069179
11
2187.00001332549
21
-1479.799982237403
31
6.00000069179
0
LINE
8
0
10
2000.000013325642
20
-1141.299982237319
30
6.000000691927
11
1991.500013325642
21
-1141.299982237315
31
6.000000691933
0
LINE
8
0
10
2191.000013325604
20
-1224.799982237405
30
6.000000691788
11
2187.000013325604
21
-1224.799982237403
31
6.00000069179
0
LINE
8
0
10
2191.000013325617
20
-1197.299982237405
30
6.000000691788
11
2187.000013325617
21
-1197.299982237403
31
6.00000069179
0
LINE
8
0
10
2192.000013325604
20
-1225.067934202737
30
6.000000691787
11
2191.517652485761
21
-1224.868127989359
31
6.000000691787
0
LINE
8
0
10
2191.000013325611
20
-1209.799982237405
30
6.000000691788
11
2191.517652485767
21
-1209.731832670756
31
6.000000691787
0
LINE
8
0
10
2191.517652485761
20
-1224.868127989359
30
6.000000691787
11
2191.000013325604
21
-1224.799982237405
31
6.000000691788
0
LINE
8
0
10
1989.56816146178
20
-1142.782344030833
30
6.000000691935
11
1989.500013325641
21
-1143.299982237314
31
6.000000691935
0
LINE
8
0
10
1991.500013325642
20
-1141.299982237315
30
6.000000691933
11
1990.98237511916
21
-1141.368130373454
31
6.000000691934
0
LINE
8
0
10
2193.000013325612
20
-1207.799982237406
30
6.000000691786
11
2193.000013325616
21
-1199.299982237406
31
6.000000691786
0
LINE
8
0
10
2187.000013325478
20
-1507.299982237403
30
6.00000069179
11
2191.000013325478
21
-1507.299982237405
31
6.000000691788
0
LINE
8
0
10
2173.000013325488
20
-1483.699976133881
30
6.000000691801
11
2176.000013325488
21
-1483.699976133883
31
6.000000691799
0
LINE
8
0
10
2192.414228413507
20
-1197.885767149516
30
6.000000691787
11
2192.000013325617
21
-1197.56793038804
31
6.000000691787
0
LINE
8
0
10
2192.732068989679
20
-1198.299982237406
30
6.000000691787
11
2192.414228413507
21
-1197.885767149516
31
6.000000691787
0
LINE
8
0
10
2191.000013325599
20
-1237.299982237405
30
6.000000691788
11
2191.517652485755
21
-1237.231836485453
31
6.000000691787
0
LINE
8
0
10
2192.931867573538
20
-1478.317621397562
30
6.000000691787
11
2193.000013325491
21
-1477.799982237406
31
6.000000691786
0
LINE
8
0
10
2173.000013325488
20
-1485.199976133881
30
6.000000691801
11
2173.000013325488
21
-1483.699976133881
31
6.000000691801
0
LINE
8
0
10
2172.000013325609
20
-1215.199983763275
30
6.000000691802
11
2173.000013325609
21
-1215.199983763276
31
6.000000691801
0
LINE
8
0
10
2173.000013325606
20
-1220.899980711518
30
6.000000691801
11
2173.000013325607
21
-1219.399980711518
31
6.000000691801
0
LINE
8
0
10
2192.931867573525
20
-1505.817621397562
30
6.000000691787
11
2193.000013325478
21
-1505.299982237406
31
6.000000691786
0
LINE
8
0
10
1985.600013230267
20
-1158.299982237313
30
6.000000691938
11
1985.600013230266
21
-1161.299982237313
31
6.000000691938
0
LINE
8
0
10
2187.000013325611
20
-1209.799982237403
30
6.00000069179
11
2191.000013325611
21
-1209.799982237405
31
6.000000691788
0
LINE
8
0
10
2191.000013325483
20
-1494.799982237405
30
6.000000691788
11
2187.000013325483
21
-1494.799982237403
31
6.00000069179
0
LINE
8
0
10
2187.000013325639
20
-1147.299982237403
30
6.00000069179
11
2002.000013325639
21
-1147.29998223732
31
6.000000691926
0
LINE
8
0
10
2193.000013325616
20
-1199.299982237406
30
6.000000691786
11
2192.931867573663
21
-1198.782343077249
31
6.000000691787
0
LINE
8
0
10
2176.000013325606
20
-1220.899980711519
30
6.000000691799
11
2173.000013325606
21
-1220.899980711518
31
6.000000691801
0
LINE
8
0
10
2192.732068989557
20
-1468.299982237406
30
6.000000691787
11
2192.414228413385
21
-1467.885767149515
31
6.000000691787
0
LINE
8
0
10
2191.517652485755
20
-1237.231836485453
30
6.000000691787
11
2192.000013325599
21
-1237.032030272073
31
6.000000691787
0
LINE
8
0
10
2191.517652485634
20
-1507.231836485452
30
6.000000691787
11
2192.000013325478
21
-1507.032037901468
31
6.000000691787
0
LINE
8
0
10
2172.000013325487
20
-1485.199976133881
30
6.000000691802
11
2173.000013325488
21
-1485.199976133881
31
6.000000691801
0
LINE
8
0
10
2192.000013325599
20
-1237.032030272073
30
6.000000691787
11
2192.41422841349
21
-1236.714197325297
31
6.000000691787
0
LINE
8
0
10
2192.414228413385
20
-1467.885767149515
30
6.000000691787
11
2192.000013325495
21
-1467.567926573343
31
6.000000691787
0
LINE
8
0
10
2173.000013325609
20
-1215.199983763276
30
6.000000691801
11
2173.000013325609
21
-1213.699983763276
31
6.000000691801
0
LINE
8
0
10
2187.000013325607
20
-1219.399980711524
30
6.00000069179
11
2176.000013325607
21
-1219.399980711519
31
6.000000691799
0
LINE
8
0
10
2191.517652485767
20
-1209.731832670756
30
6.000000691787
11
2192.000013325611
21
-1209.532034086771
31
6.000000691787
0
LINE
8
0
10
1777.000013325617
20
-1197.299982237219
30
6.00000069209
11
1773.000013325617
21
-1197.299982237217
31
6.000000692093
0
LINE
8
0
10
1989.500013325639
20
-1147.299982237314
30
6.000000691935
11
1984.100013230272
21
-1147.299982237313
31
6.000000691939
0
LINE
8
0
10
1788.000013325606
20
-1220.899980711345
30
6.000000692083
11
1788.000013325607
21
-1219.399980711345
31
6.000000692083
0
LINE
8
0
10
2192.931867573646
20
-1235.817621397562
30
6.000000691787
11
2193.0000133256
21
-1235.299982237406
31
6.000000691786
0
LINE
8
0
10
1788.000013325609
20
-1213.699983763103
30
6.000000692083
11
1791.000013325609
21
-1213.699983763104
31
6.00000069208
0
LINE
8
0
10
1792.000013325607
20
-1219.399980711346
30
6.000000692079
11
1791.000013325607
21
-1219.399980711346
31
6.00000069208
0
LINE
8
0
10
1791.000013325607
20
-1219.399980711346
30
6.00000069208
11
1791.000013325606
21
-1220.899980711346
31
6.00000069208
0
LINE
8
0
10
2176.000013325609
20
-1215.199983763277
30
6.000000691799
11
2187.000013325609
21
-1215.199983763282
31
6.00000069179
0
LINE
8
0
10
1771.267957661415
20
-1506.299982237216
30
6.000000692094
11
1771.585798237587
21
-1506.714197325107
31
6.000000692095
0
LINE
8
0
10
1974.431865189502
20
-1142.782344030826
30
6.000000691946
11
1974.232064221332
21
-1142.299982237307
31
6.000000691947
0
LINE
8
0
10
1974.500013325639
20
-1147.299982237307
30
6.000000691946
11
1974.500013325641
21
-1143.299982237307
31
6.000000691946
0
LINE
8
0
10
2192.000013325617
20
-1197.56793038804
30
6.000000691787
11
2191.517652485773
21
-1197.368131804056
31
6.000000691787
0
LINE
8
0
10
2187.000013325599
20
-1237.299982237403
30
6.00000069179
11
2191.000013325599
21
-1237.299982237405
31
6.000000691788
0
LINE
8
0
10
1964.000013325642
20
-1141.299982237304
30
6.000000691954
11
1963.482376072834
21
-1141.368130373442
31
6.000000691954
0
LINE
8
0
10
1984.100013230265
20
-1161.299982237312
30
6.000000691939
11
1984.100013230265
21
-1162.299982237312
31
6.000000691939
0
LINE
8
0
10
1962.267963383625
20
-1142.299982237302
30
6.000000691955
11
1962.068160984943
21
-1142.78234403082
31
6.000000691955
0
LINE
8
0
10
1974.232064221332
20
-1142.299982237307
30
6.000000691947
11
1973.914226506184
21
-1141.885768579928
31
6.000000691947
0
LINE
8
0
10
1984.100013230265
20
-1162.299982237312
30
6.000000691939
11
1979.900013421
21
-1162.29998223731
31
6.000000691942
0
LINE
8
0
10
1973.017651532124
20
-1141.368130373446
30
6.000000691947
11
1972.500013325642
21
-1141.299982237306
31
6.000000691947
0
LINE
8
0
10
1777.000013325611
20
-1209.799982237219
30
6.00000069209
11
1777.000013325609
21
-1215.199983763098
31
6.00000069209
0
LINE
8
0
10
1771.000013325612
20
-1207.799982237216
30
6.000000692095
11
1771.068159077565
21
-1208.317621397372
31
6.000000692095
0
LINE
8
0
10
1771.267957661554
20
-1198.299982237216
30
6.000000692094
11
1771.068159077569
21
-1198.78234307706
31
6.000000692095
0
LINE
8
0
10
1772.000013325611
20
-1209.532034086582
30
6.000000692094
11
1772.482374165455
21
-1209.731832670566
31
6.000000692094
0
LINE
8
0
10
1979.900013421007
20
-1147.29998223731
30
6.000000691942
11
1974.500013325639
21
-1147.299982237307
31
6.000000691946
0
LINE
8
0
10
1985.600013230266
20
-1161.299982237313
30
6.000000691938
11
1984.100013230265
21
-1161.299982237312
31
6.000000691939
0
LINE
8
0
10
2173.000013325609
20
-1213.699983763276
30
6.000000691801
11
2176.000013325609
21
-1213.699983763277
31
6.000000691799
0
LINE
8
0
10
2187.000013325609
20
-1215.199983763282
30
6.00000069179
11
2187.000013325611
21
-1209.799982237403
31
6.00000069179
0
LINE
8
0
10
2173.000013325607
20
-1219.399980711518
30
6.000000691801
11
2172.000013325607
21
-1219.399980711517
31
6.000000691802
0
LINE
8
0
10
2192.732068989553
20
-1478.799982237405
30
6.000000691787
11
2192.931867573538
21
-1478.317621397562
31
6.000000691787
0
LINE
8
0
10
2192.000013325611
20
-1209.532034086771
30
6.000000691787
11
2192.414228413502
21
-1209.214197325297
31
6.000000691787
0
ENDSEC
0
EOF
