0
SECTION
2
ENTITIES
0
LINE
8
0
10
3326.890457560678
20
-1667.068241679823
30
6.000018456181
11
3327.396937562836
21
-1666.858450785023
31
6.000018442384
0
LINE
8
0
10
3327.396937562836
20
-1666.858450785023
30
6.000018442384
11
3327.831861798357
21
-1666.524721671093
31
6.000018425961
0
LINE
8
0
10
3327.831861798357
20
-1666.524721671093
30
6.000018425961
11
3328.165590899335
21
-1666.089797425634
31
6.000018408026
0
LINE
8
0
10
3328.165590899335
20
-1666.089797425634
30
6.000018408026
11
3328.375381779052
21
-1665.583317417228
31
6.000018389807
0
LINE
8
0
10
3328.375381779052
20
-1665.583317417228
30
6.000018389807
11
3328.446937535753
21
-1665.03979742145
31
6.000018372544
0
LINE
8
0
10
3328.446937535753
20
-1665.03979742145
30
6.000018372544
11
3328.375381762867
21
-1664.496277427804
31
6.000018357413
0
LINE
8
0
10
3328.375381762867
20
-1664.496277427804
30
6.000018357413
11
3328.165590868067
21
-1663.989797425644
31
6.000018345443
0
LINE
8
0
10
3328.165590868067
20
-1663.989797425644
30
6.000018345443
11
3327.831861754137
21
-1663.554873190123
31
6.00001833745
0
LINE
8
0
10
3327.831861754137
20
-1663.554873190123
30
6.00001833745
11
3327.396937508678
21
-1663.221144089145
31
6.000018333984
0
LINE
8
0
10
3327.396937508678
20
-1663.221144089145
30
6.000018333984
11
3326.890457500273
21
-1663.011353209428
31
6.000018335275
0
LINE
8
0
10
3326.890457500273
20
-1663.011353209428
30
6.000018335275
11
3326.346937504494
21
-1662.939797452728
31
6.00001834124
0
LINE
8
0
10
3326.346937504494
20
-1662.939797452728
30
6.00001834124
11
3325.803417510846
21
-1663.011353225613
31
6.000018351466
0
LINE
8
0
10
3325.803417510846
20
-1663.011353225613
30
6.000018351466
11
3325.296937508687
21
-1663.221144120414
31
6.000018365264
0
LINE
8
0
10
3325.296937508687
20
-1663.221144120414
30
6.000018365264
11
3324.862013273167
21
-1663.554873234342
31
6.000018381686
0
LINE
8
0
10
3324.862013273167
20
-1663.554873234342
30
6.000018381686
11
3324.528284172189
21
-1663.989797479801
31
6.000018399622
0
LINE
8
0
10
3324.528284172189
20
-1663.989797479801
30
6.000018399622
11
3324.318493292471
21
-1664.496277488208
31
6.000018417841
0
LINE
8
0
10
3324.318493292471
20
-1664.496277488208
30
6.000018417841
11
3324.246937535771
21
-1665.039797483987
31
6.000018435103
0
LINE
8
0
10
3324.246937535771
20
-1665.039797483987
30
6.000018435103
11
3324.318493308657
21
-1665.583317477633
31
6.000018450234
0
LINE
8
0
10
3324.318493308657
20
-1665.583317477633
30
6.000018450234
11
3324.528284203457
21
-1666.089797479792
31
6.000018462204
0
LINE
8
0
10
3324.528284203457
20
-1666.089797479792
30
6.000018462204
11
3324.862013317386
21
-1666.524721715312
31
6.000018470197
0
LINE
8
0
10
3324.862013317386
20
-1666.524721715312
30
6.000018470197
11
3325.296937562845
21
-1666.858450816292
31
6.000018473664
0
LINE
8
0
10
3325.296937562845
20
-1666.858450816292
30
6.000018473664
11
3325.803417571251
21
-1667.068241696008
31
6.000018472373
0
LINE
8
0
10
3325.803417571251
20
-1667.068241696008
30
6.000018472373
11
3326.34693756703
21
-1667.139797452709
31
6.000018466408
0
LINE
8
0
10
3326.34693756703
20
-1667.139797452709
30
6.000018466408
11
3326.890457560678
21
-1667.068241679823
31
6.000018456181
0
LINE
8
0
10
3595.296937535786
20
-1663.221140084588
30
6.000014343577
11
3594.862013295292
21
-1663.554869192038
31
6.000014360001
0
LINE
8
0
10
3594.862013295292
20
-1663.554869192038
30
6.000014360001
11
3594.528284187828
21
-1663.989793432527
31
6.000014377934
0
LINE
8
0
10
3594.528284187828
20
-1663.989793432527
30
6.000014377934
11
3594.318493300564
21
-1664.496273437808
31
6.000014396153
0
LINE
8
0
10
3594.318493300564
20
-1664.496273437808
30
6.000014396153
11
3594.246937535764
21
-1665.039793432523
31
6.000014413416
0
LINE
8
0
10
3594.246937535764
20
-1665.039793432523
30
6.000014413416
11
3594.318493300554
21
-1665.583313427238
31
6.000014428548
0
LINE
8
0
10
3594.318493300554
20
-1665.583313427238
30
6.000014428548
11
3594.528284187804
21
-1666.089793432527
31
6.000014440519
0
LINE
8
0
10
3594.528284187804
20
-1666.089793432527
30
6.000014440519
11
3594.862013295255
21
-1666.524717673021
31
6.00001444851
0
LINE
8
0
10
3594.862013295255
20
-1666.524717673021
30
6.00001444851
11
3595.296937535742
21
-1666.858446780482
31
6.000014451977
0
LINE
8
0
10
3595.296937535742
20
-1666.858446780482
30
6.000014451977
11
3595.803417541024
21
-1667.068237667748
31
6.000014450685
0
LINE
8
0
10
3595.803417541024
20
-1667.068237667748
30
6.000014450685
11
3596.346937535739
21
-1667.139793432548
31
6.000014444722
0
LINE
8
0
10
3596.346937535739
20
-1667.139793432548
30
6.000014444722
11
3596.890457530455
21
-1667.06823766776
31
6.000014434494
0
LINE
8
0
10
3596.890457530455
20
-1667.06823766776
30
6.000014434494
11
3597.396937535743
21
-1666.858446780507
31
6.000014420697
0
LINE
8
0
10
3597.396937535743
20
-1666.858446780507
30
6.000014420697
11
3597.831861776238
21
-1666.524717673057
31
6.000014404273
0
LINE
8
0
10
3597.831861776238
20
-1666.524717673057
30
6.000014404273
11
3598.165590883698
21
-1666.089793432569
31
6.000014386339
0
LINE
8
0
10
3598.165590883698
20
-1666.089793432569
30
6.000014386339
11
3598.375381770968
21
-1665.583313427288
31
6.000014368121
0
LINE
8
0
10
3598.375381770968
20
-1665.583313427288
30
6.000014368121
11
3598.446937535763
21
-1665.039793432573
31
6.000014350856
0
LINE
8
0
10
3598.446937535763
20
-1665.039793432573
30
6.000014350856
11
3598.375381770978
21
-1664.496273437857
31
6.000014335725
0
LINE
8
0
10
3598.375381770978
20
-1664.496273437857
30
6.000014335725
11
3598.165590883724
21
-1663.989793432569
31
6.000014323755
0
LINE
8
0
10
3598.165590883724
20
-1663.989793432569
30
6.000014323755
11
3597.831861776277
21
-1663.554869192075
31
6.000014315764
0
LINE
8
0
10
3597.831861776277
20
-1663.554869192075
30
6.000014315764
11
3597.396937535785
21
-1663.221140084613
31
6.000014312297
0
LINE
8
0
10
3597.396937535785
20
-1663.221140084613
30
6.000014312297
11
3596.890457530503
21
-1663.011349197346
31
6.000014313588
0
LINE
8
0
10
3596.890457530503
20
-1663.011349197346
30
6.000014313588
11
3596.346937535789
21
-1662.939793432548
31
6.000014319553
0
LINE
8
0
10
3596.346937535789
20
-1662.939793432548
30
6.000014319553
11
3595.803417541073
21
-1663.011349197334
31
6.00001432978
0
LINE
8
0
10
3595.803417541073
20
-1663.011349197334
30
6.00001432978
11
3595.296937535786
21
-1663.221140084588
31
6.000014343577
0
LINE
8
0
10
3307.862045654644
20
-1193.838623889699
30
5.999740916523
11
3307.528316547183
21
-1194.273548130186
31
5.999740933588
0
LINE
8
0
10
3307.528316547183
20
-1194.273548130186
30
5.999740933588
11
3307.318525659918
21
-1194.780028135468
31
5.999740950201
0
LINE
8
0
10
3307.318525659918
20
-1194.780028135468
30
5.999740950201
11
3307.246969895119
21
-1195.323548130183
31
5.999740965229
0
LINE
8
0
10
3307.246969895119
20
-1195.323548130183
30
5.999740965229
11
3307.318525659905
21
-1195.867068124899
31
5.999740977648
0
LINE
8
0
10
3307.318525659905
20
-1195.867068124899
30
5.999740977648
11
3307.528316547158
21
-1196.373548130186
31
5.99974098661
0
LINE
8
0
10
3307.528316547158
20
-1196.373548130186
30
5.99974098661
11
3307.862045654609
21
-1196.808472370681
31
5.999740991507
0
LINE
8
0
10
3307.862045654609
20
-1196.808472370681
30
5.999740991507
11
3308.296969895096
21
-1197.142201478142
31
5.999740992005
0
LINE
8
0
10
3308.296969895096
20
-1197.142201478142
30
5.999740992005
11
3308.803449900378
21
-1197.351992365407
31
5.999740988067
0
LINE
8
0
10
3308.803449900378
20
-1197.351992365407
30
5.999740988067
11
3309.346969895093
21
-1197.423548130207
31
5.999740979965
0
LINE
8
0
10
3309.346969895093
20
-1197.423548130207
30
5.999740979965
11
3309.890489889809
21
-1197.35199236542
31
5.999740968248
0
LINE
8
0
10
3309.890489889809
20
-1197.35199236542
30
5.999740968248
11
3310.396969895096
21
-1197.142201478167
31
5.999740953718
0
LINE
8
0
10
3310.396969895096
20
-1197.142201478167
30
5.999740953718
11
3310.831894135591
21
-1196.808472370716
31
5.999740937362
0
LINE
8
0
10
3310.831894135591
20
-1196.808472370716
30
5.999740937362
11
3311.165623243052
21
-1196.373548130229
31
5.999740920296
0
LINE
8
0
10
3311.165623243052
20
-1196.373548130229
30
5.999740920296
11
3311.375414130318
21
-1195.867068124947
31
5.999740903683
0
LINE
8
0
10
3311.375414130318
20
-1195.867068124947
30
5.999740903683
11
3311.446969895117
21
-1195.323548130232
31
5.999740888656
0
LINE
8
0
10
3311.446969895117
20
-1195.323548130232
30
5.999740888656
11
3311.37541413033
21
-1194.780028135516
31
5.999740876237
0
LINE
8
0
10
3311.37541413033
20
-1194.780028135516
30
5.999740876237
11
3311.165623243077
21
-1194.273548130229
31
5.999740867274
0
LINE
8
0
10
3311.165623243077
20
-1194.273548130229
30
5.999740867274
11
3310.831894135627
21
-1193.838623889734
31
5.999740862378
0
LINE
8
0
10
3310.831894135627
20
-1193.838623889734
30
5.999740862378
11
3310.396969895139
21
-1193.504894782273
31
5.99974086188
0
LINE
8
0
10
3310.396969895139
20
-1193.504894782273
30
5.99974086188
11
3309.890489889857
21
-1193.295103895007
31
5.999740865817
0
LINE
8
0
10
3309.890489889857
20
-1193.295103895007
30
5.999740865817
11
3309.346969895143
21
-1193.223548130208
31
5.99974087392
0
LINE
8
0
10
3309.346969895143
20
-1193.223548130208
30
5.99974087392
11
3308.803449900427
21
-1193.295103894994
31
5.999740885636
0
LINE
8
0
10
3308.803449900427
20
-1193.295103894994
30
5.999740885636
11
3308.296969895139
21
-1193.504894782248
31
5.999740900167
0
LINE
8
0
10
3308.296969895139
20
-1193.504894782248
30
5.999740900167
11
3307.862045654644
21
-1193.838623889699
31
5.999740916523
0
LINE
8
0
10
3561.528292631182
20
-1196.373548133213
30
5.999743291332
11
3561.862021738631
21
-1196.808472373707
31
5.999743296229
0
LINE
8
0
10
3561.862021738631
20
-1196.808472373707
30
5.999743296229
11
3562.296945979117
21
-1197.142201481165
31
5.999743296725
0
LINE
8
0
10
3562.296945979117
20
-1197.142201481165
30
5.999743296725
11
3562.803425984396
21
-1197.35199236843
31
5.999743292788
0
LINE
8
0
10
3562.803425984396
20
-1197.35199236843
30
5.999743292788
11
3563.346945979108
21
-1197.423548133229
31
5.999743284686
0
LINE
8
0
10
3563.346945979108
20
-1197.423548133229
30
5.999743284686
11
3563.890465973821
21
-1197.351992368443
31
5.99974327297
0
LINE
8
0
10
3563.890465973821
20
-1197.351992368443
30
5.99974327297
11
3564.396945979106
21
-1197.14220148119
31
5.999743258439
0
LINE
8
0
10
3564.396945979106
20
-1197.14220148119
30
5.999743258439
11
3564.8318702196
21
-1196.808472373742
31
5.999743242084
0
LINE
8
0
10
3564.8318702196
20
-1196.808472373742
30
5.999743242084
11
3565.165599327058
21
-1196.373548133256
31
5.999743225018
0
LINE
8
0
10
3565.165599327058
20
-1196.373548133256
30
5.999743225018
11
3565.375390214323
21
-1195.867068127977
31
5.999743208405
0
LINE
8
0
10
3565.375390214323
20
-1195.867068127977
30
5.999743208405
11
3565.446945979122
21
-1195.323548133265
31
5.999743193377
0
LINE
8
0
10
3565.446945979122
20
-1195.323548133265
30
5.999743193377
11
3565.375390214336
21
-1194.780028138551
31
5.999743180959
0
LINE
8
0
10
3565.375390214336
20
-1194.780028138551
30
5.999743180959
11
3565.165599327083
21
-1194.273548133267
31
5.999743171995
0
LINE
8
0
10
3565.165599327083
20
-1194.273548133267
30
5.999743171995
11
3564.831870219635
21
-1193.838623892774
31
5.999743167099
0
LINE
8
0
10
3564.831870219635
20
-1193.838623892774
30
5.999743167099
11
3564.396945979149
21
-1193.504894785314
31
5.999743166602
0
LINE
8
0
10
3564.396945979149
20
-1193.504894785314
30
5.999743166602
11
3563.89046597387
21
-1193.29510389805
31
5.999743170539
0
LINE
8
0
10
3563.89046597387
20
-1193.29510389805
30
5.999743170539
11
3563.346945979158
21
-1193.22354813325
31
5.999743178642
0
LINE
8
0
10
3563.346945979158
20
-1193.22354813325
30
5.999743178642
11
3562.803425984445
21
-1193.295103898037
31
5.999743190358
0
LINE
8
0
10
3562.803425984445
20
-1193.295103898037
30
5.999743190358
11
3562.29694597916
21
-1193.504894785289
31
5.999743204889
0
LINE
8
0
10
3562.29694597916
20
-1193.504894785289
30
5.999743204889
11
3561.862021738666
21
-1193.838623892738
31
5.999743221244
0
LINE
8
0
10
3561.862021738666
20
-1193.838623892738
30
5.999743221244
11
3561.528292631207
21
-1194.273548133224
31
5.99974323831
0
LINE
8
0
10
3561.528292631207
20
-1194.273548133224
30
5.99974323831
11
3561.318501743942
21
-1194.780028138503
31
5.999743254923
0
LINE
8
0
10
3561.318501743942
20
-1194.780028138503
30
5.999743254923
11
3561.246945979144
21
-1195.323548133215
31
5.99974326995
0
LINE
8
0
10
3561.246945979144
20
-1195.323548133215
30
5.99974326995
11
3561.31850174393
21
-1195.867068127928
31
5.999743282369
0
LINE
8
0
10
3561.31850174393
20
-1195.867068127928
30
5.999743282369
11
3561.528292631182
21
-1196.373548133213
31
5.999743291332
0
LINE
8
0
10
3594.528272988975
20
-1330.374356510122
30
6.000003966502
11
3594.862013223345
21
-1330.809293033562
31
6.000003974494
0
LINE
8
0
10
3594.31849515695
20
-1329.867886783555
30
6.000003954533
11
3594.528272988975
21
-1330.374356510122
31
6.000003966502
0
LINE
8
0
10
3594.246931436254
20
-1329.324368717149
30
6.0000039394
11
3594.31849515695
21
-1329.867886783555
31
6.000003954533
0
LINE
8
0
10
3594.318495156962
20
-1328.780850650743
30
6.000003922136
11
3594.246931436254
21
-1329.324368717149
31
6.0000039394
0
LINE
8
0
10
3594.528272989
20
-1328.274380924184
30
6.000003903918
11
3594.318495156962
21
-1328.780850650743
31
6.000003922136
0
LINE
8
0
10
3594.86201322338
20
-1327.839444400749
30
6.000003885985
11
3594.528272989
21
-1328.274380924184
31
6.000003903918
0
LINE
8
0
10
3595.296949746823
20
-1327.50570416638
30
6.000003869561
11
3594.86201322338
21
-1327.839444400749
31
6.000003885985
0
LINE
8
0
10
3595.803419473387
20
-1327.295926334356
30
6.000003855763
11
3595.296949746823
21
-1327.50570416638
31
6.000003869561
0
LINE
8
0
10
3596.346937539798
20
-1327.22436261366
30
6.000003845535
11
3595.803419473387
21
-1327.295926334356
31
6.000003855763
0
LINE
8
0
10
3596.890455606199
20
-1327.295926334368
30
6.000003839572
11
3596.346937539798
21
-1327.22436261366
31
6.000003845535
0
LINE
8
0
10
3597.39692533276
20
-1327.505704166407
30
6.000003838281
11
3596.890455606199
21
-1327.295926334368
31
6.000003839572
0
LINE
8
0
10
3597.831861856193
20
-1327.839444400786
30
6.000003841748
11
3597.39692533276
21
-1327.505704166407
31
6.000003838281
0
LINE
8
0
10
3598.165602090563
20
-1328.274380924228
30
6.00000384974
11
3597.831861856193
21
-1327.839444400786
31
6.000003841748
0
LINE
8
0
10
3598.375379922588
20
-1328.780850650793
30
6.000003861709
11
3598.165602090563
21
-1328.274380924228
31
6.00000384974
0
LINE
8
0
10
3598.446943643285
20
-1329.3243687172
30
6.00000387684
11
3598.375379922588
21
-1328.780850650793
31
6.000003861709
0
LINE
8
0
10
3598.375379922575
20
-1329.867886783606
30
6.000003894105
11
3598.446943643285
21
-1329.3243687172
31
6.00000387684
0
LINE
8
0
10
3598.165602090538
20
-1330.374356510165
30
6.000003912323
11
3598.375379922575
21
-1329.867886783606
31
6.000003894105
0
LINE
8
0
10
3597.831861856158
20
-1330.809293033599
30
6.000003930257
11
3598.165602090538
21
-1330.374356510165
31
6.000003912323
0
LINE
8
0
10
3597.396925332716
20
-1331.143033267969
30
6.000003946682
11
3597.831861856158
21
-1330.809293033599
31
6.000003930257
0
LINE
8
0
10
3596.890455606151
20
-1331.352811099993
30
6.000003960477
11
3597.396925332716
21
-1331.143033267969
31
6.000003946682
0
LINE
8
0
10
3576.346937539733
20
-1332.324368716936
30
6.000004295432
11
3576.346937539804
21
-1326.324368716936
31
6.000004116618
0
LINE
8
0
10
3576.346937539804
20
-1326.324368716936
30
6.000004116618
11
3588.846937539804
21
-1326.324368717085
31
6.000003930427
0
LINE
8
0
10
3588.846937539804
20
-1326.324368717085
30
6.000003930427
11
3588.846937539733
21
-1332.324368717085
31
6.000004109242
0
LINE
8
0
10
3588.846937539733
20
-1332.324368717085
30
6.000004109242
11
3576.346937539733
21
-1332.324368716936
31
6.000004295432
0
LINE
8
0
10
3333.846937539804
20
-1326.32436871404
30
6.000007728716
11
3346.346937539804
21
-1326.324368714191
31
6.000007542525
0
LINE
8
0
10
3346.346937539804
20
-1326.324368714191
30
6.000007542525
11
3346.346937539732
21
-1332.324368714191
31
6.000007721341
0
LINE
8
0
10
3346.346937539732
20
-1332.324368714191
30
6.000007721341
11
3333.846937539732
21
-1332.32436871404
31
6.000007907532
0
LINE
8
0
10
3333.846937539732
20
-1332.32436871404
30
6.000007907532
11
3333.846937539804
21
-1326.32436871404
31
6.000007728716
0
LINE
8
0
10
3306.346937546451
20
-1668.039797728112
30
6.000027684486
11
3318.846937546451
21
-1668.039797728262
31
6.00002745361
0
LINE
8
0
10
3306.346937546523
20
-1662.039797541844
30
6.000027460988
11
3306.346937546451
21
-1668.039797728112
31
6.000027684486
0
LINE
8
0
10
3318.846937546523
20
-1662.039797541993
30
6.000027274798
11
3306.346937546523
21
-1662.039797541844
31
6.000027460988
0
LINE
8
0
10
3318.846937546451
20
-1668.039797728262
30
6.00002745361
11
3318.846937546523
21
-1662.039797541993
31
6.000027274798
0
LINE
8
0
10
3333.846937546522
20
-1662.039797132384
30
6.000027051372
11
3333.84693754645
21
-1668.039797318652
31
6.000027274866
0
LINE
8
0
10
3346.346937546512
20
-1662.039797132533
30
6.000026865182
11
3333.846937546522
21
-1662.039797132384
31
6.000027051372
0
LINE
8
0
10
3346.34693754644
20
-1668.039797318801
30
6.000027043993
11
3346.346937546512
21
-1662.039797132533
31
6.000026865182
0
LINE
8
0
10
3333.84693754645
20
-1668.039797318652
30
6.000027274866
11
3346.34693754644
21
-1668.039797318801
31
6.000027043993
0
LINE
8
0
10
3588.846937546451
20
-1668.039793708093
30
6.000023431923
11
3588.846937546523
21
-1662.039793521825
31
6.00002325311
0
LINE
8
0
10
3576.346937546451
20
-1668.039793707944
30
6.000023662796
11
3588.846937546451
21
-1668.039793708093
31
6.000023431923
0
LINE
8
0
10
3576.346937546522
20
-1662.039793521675
30
6.000023439301
11
3576.346937546451
21
-1668.039793707944
31
6.000023662796
0
LINE
8
0
10
3588.846937546523
20
-1662.039793521825
30
6.00002325311
11
3576.346937546522
21
-1662.039793521675
31
6.000023439301
0
LINE
8
0
10
3603.846937546451
20
-1668.039793298483
30
6.00002325318
11
3616.346937546441
21
-1668.039793298632
31
6.000023022307
0
LINE
8
0
10
3603.846937546523
20
-1662.039793112214
30
6.000023029684
11
3603.846937546451
21
-1668.039793298483
31
6.00002325318
0
LINE
8
0
10
3616.346937546513
20
-1662.039793112364
30
6.000022843494
11
3603.846937546523
21
-1662.039793112214
31
6.000023029684
0
LINE
8
0
10
3616.346937546441
20
-1668.039793298632
30
6.000023022307
11
3616.346937546513
21
-1662.039793112364
31
6.000022843494
0
LINE
8
0
10
3540.346957698633
20
-1681.373127465401
30
6.000034157266
11
3546.346957499858
21
-1681.373127465473
31
6.000034067895
0
LINE
8
0
10
3546.346957499858
20
-1681.373127465473
30
6.000034067895
11
3546.3469574997
21
-1694.706460888214
31
6.000034465259
0
LINE
8
0
10
3546.3469574997
20
-1694.706460888214
30
6.000034465259
11
3540.346957698473
21
-1694.706460888143
31
6.000034753233
0
LINE
8
0
10
3540.346957698473
20
-1694.706460888143
30
6.000034753233
11
3540.346957698633
21
-1681.373127465401
31
6.000034157266
0
LINE
8
0
10
3382.346938000332
20
-1681.373129907505
30
6.000017461237
11
3382.346938000172
21
-1694.706463330247
31
6.000017858601
0
LINE
8
0
10
3382.346938000172
20
-1694.706463330247
30
6.000017858601
11
3376.346938198947
21
-1694.706463330175
31
6.000018146575
0
LINE
8
0
10
3376.346938198947
20
-1694.706463330175
30
6.000018146575
11
3376.346938199106
21
-1681.373129907433
31
6.000017550608
0
LINE
8
0
10
3376.346938199106
20
-1681.373129907433
30
6.000017550608
11
3382.346938000332
21
-1681.373129907505
31
6.000017461237
0
LINE
8
0
10
3312.34692720976
20
-1187.823548188417
30
6.000027420914
11
3306.347011573277
21
-1187.823548188345
31
6.00002717405
0
LINE
8
0
10
3306.347011573277
20
-1187.823548188345
30
6.00002717405
11
3306.347011573426
21
-1175.323514227412
31
6.000027157773
0
LINE
8
0
10
3306.347011573426
20
-1175.323514227412
30
6.000027157773
11
3312.346927209909
21
-1175.323514227484
31
6.000027048384
0
LINE
8
0
10
3312.346927209909
20
-1175.323514227484
30
6.000027048384
11
3312.34692720976
21
-1187.823548188417
31
6.000027420914
0
LINE
8
0
10
3306.347010895208
20
-1215.323474929713
30
5.999740069111
11
3306.347010895354
21
-1202.823508921414
31
5.999575031412
0
LINE
8
0
10
3306.347010895354
20
-1202.823508921414
30
5.999575031412
11
3312.347094138021
21
-1202.823508921486
31
5.99957492202
0
LINE
8
0
10
3312.347094138021
20
-1202.823508921486
30
5.99957492202
11
3312.347094137872
21
-1215.32347492979
31
5.999575294547
0
LINE
8
0
10
3312.347094137872
20
-1215.32347492979
30
5.999575294547
11
3306.347010895208
21
-1215.323474929713
31
5.999740069111
0
LINE
8
0
10
3566.346948680789
20
-1175.32351261549
30
5.999735591762
11
3566.346948680639
21
-1187.823546576423
31
5.999735964291
0
LINE
8
0
10
3566.346986759063
20
-1202.823528635173
30
5.999988733744
11
3566.346986758914
21
-1215.323494643479
31
5.999989106271
0
LINE
8
0
10
3560.346987711527
20
-1202.823528635102
30
5.999988843134
11
3566.346986759063
21
-1202.823528635173
31
5.999988733744
0
LINE
8
0
10
3566.346986758914
20
-1215.323494643479
30
5.999989106271
11
3560.34698771138
21
-1215.323494643405
31
6.000071743855
0
LINE
8
0
10
3560.34698771138
20
-1215.323494643405
30
6.000071743855
11
3560.346987711527
21
-1202.823528635102
31
5.999988843134
0
LINE
8
0
10
3560.346949041213
20
-1175.323512615418
30
5.999735701151
11
3566.346948680789
21
-1175.32351261549
31
5.999735591762
0
LINE
8
0
10
3566.346948680639
20
-1187.823546576423
30
5.999735964291
11
3560.346949041063
21
-1187.823546576352
31
5.999742447049
0
LINE
8
0
10
3560.346949041063
20
-1187.823546576352
30
5.999742447049
11
3560.346949041213
21
-1175.323512615418
31
5.999735701151
0
LINE
8
0
10
3672.346934276454
20
-1195.323522728642
30
5.999999141534
11
3672.346933702705
21
-1155.323522404555
31
6.000018699322
0
LINE
8
0
10
3256.346935091762
20
-1155.323522399589
30
6.000026184842
11
3672.346933702705
21
-1155.323522404555
31
6.000018699322
0
LINE
8
0
10
3256.346935091762
20
-1155.323522399589
30
6.000026184842
11
3256.346935277937
21
-1181.324374825266
31
6.000008260364
0
LINE
8
0
10
3256.346935277937
20
-1181.324374825266
30
6.000008260364
11
3250.146937661252
21
-1181.324374897026
31
6.000008361909
0
LINE
8
0
10
3250.146937557651
20
-1168.324374897027
30
6.000007829178
11
3250.146937661252
21
-1181.324374897026
31
6.000008361909
0
LINE
8
0
10
3250.129827278319
20
-1168.063322512586
30
6.000007818762
11
3250.146937557651
21
-1168.324374897027
31
6.000007829178
0
LINE
8
0
10
3250.078789206105
20
-1167.806736806819
30
6.000007809087
11
3250.129827278319
21
-1168.063322512586
31
6.000007818762
0
LINE
8
0
10
3249.994696616575
20
-1167.559008032286
30
6.000007800322
11
3250.078789206105
21
-1167.806736806819
31
6.000007809087
0
LINE
8
0
10
3249.878988357252
20
-1167.324374897009
30
6.000007792611
11
3249.994696616575
21
-1167.559008032286
31
6.000007800322
0
LINE
8
0
10
3249.733644228531
20
-1167.106852038982
30
6.000007786091
11
3249.878988357252
21
-1167.324374897009
31
6.000007792611
0
LINE
8
0
10
3249.561151108755
20
-1166.910161334614
30
6.000007780871
11
3249.733644228531
21
-1167.106852038982
31
6.000007786091
0
LINE
8
0
10
3249.364460403024
20
-1166.737668216392
30
6.000007777042
11
3249.561151108755
21
-1166.910161334614
31
6.000007780871
0
LINE
8
0
10
3249.146937543849
20
-1166.592324089391
30
6.000007774667
11
3249.364460403024
21
-1166.737668216392
31
6.000007777042
0
LINE
8
0
10
3248.912304407657
20
-1166.476615831921
30
6.000007773789
11
3249.146937543849
21
-1166.592324089391
31
6.000007774667
0
LINE
8
0
10
3248.664575632461
20
-1166.392523244349
30
6.000007774421
11
3248.912304407657
21
-1166.476615831921
31
6.000007773789
0
LINE
8
0
10
3248.40798992629
20
-1166.341485174163
30
6.000007776556
11
3248.664575632461
21
-1166.392523244349
31
6.000007774421
0
LINE
8
0
10
3248.40798992629
20
-1166.341485174163
30
6.000007776556
11
3248.146937541713
21
-1166.324374896892
31
6.000007780154
0
LINE
8
0
10
3248.146937541713
20
-1166.324374896892
30
6.000007780154
11
3242.346935158053
21
-1166.324374884675
31
6.000007875663
0
LINE
8
0
10
3242.346935158053
20
-1166.324374884675
30
6.000007875663
11
3242.085882773868
21
-1166.341485165811
31
6.000007880301
0
LINE
8
0
10
3241.829297068862
20
-1166.392523239799
30
6.00000788639
11
3242.085882773868
21
-1166.341485165811
31
6.000007880301
0
LINE
8
0
10
3241.581568295588
20
-1166.476615831042
30
6.000007893826
11
3241.829297068862
21
-1166.392523239799
31
6.00000788639
0
LINE
8
0
10
3241.34693516204
20
-1166.592324091987
30
6.00000790248
11
3241.581568295588
21
-1166.476615831042
31
6.000007893826
0
LINE
8
0
10
3241.129412306185
20
-1166.737668222211
30
6.000007912207
11
3241.34693516204
21
-1166.592324091987
31
6.00000790248
0
LINE
8
0
10
3240.932721604396
20
-1166.910161343348
30
6.000007922837
11
3241.129412306185
21
-1166.737668222211
31
6.000007912207
0
LINE
8
0
10
3240.760228489114
20
-1167.10685205027
30
6.000007934188
11
3240.932721604396
21
-1166.910161343348
31
6.000007922837
0
LINE
8
0
10
3240.614884365364
20
-1167.324374910451
30
6.00000794607
11
3240.760228489114
21
-1167.10685205027
31
6.000007934188
0
LINE
8
0
10
3240.499176111401
20
-1167.559008047443
30
6.000007958278
11
3240.614884365364
21
-1167.324374910451
31
6.00000794607
0
LINE
8
0
10
3240.415083527532
20
-1167.806736823219
30
6.000007970598
11
3240.499176111401
21
-1167.559008047443
31
6.000007958278
0
LINE
8
0
10
3240.36404546118
20
-1168.063322529744
30
6.000007982828
11
3240.415083527532
21
-1167.806736823219
31
6.000007970598
0
LINE
8
0
10
3240.36404546118
20
-1168.063322529744
30
6.000007982828
11
3240.346935187812
21
-1168.324374914439
31
6.000007994751
0
LINE
8
0
10
3240.346935187812
20
-1168.324374914439
30
6.000007994751
11
3240.346936020952
21
-1221.32437490975
31
6.000010400187
0
LINE
8
0
10
3240.346936020952
20
-1221.32437490975
30
6.000010400187
11
3240.364046302089
21
-1221.585427293935
31
6.000010411604
0
LINE
8
0
10
3240.364046302089
20
-1221.585427293935
30
6.000010411604
11
3240.415084376076
21
-1221.842012998941
31
6.000010422316
0
LINE
8
0
10
3240.415084376076
20
-1221.842012998941
30
6.000010422316
11
3240.499176967317
21
-1222.089741772215
31
6.000010432143
0
LINE
8
0
10
3240.499176967317
20
-1222.089741772215
30
6.000010432143
11
3240.614885228263
21
-1222.324374905762
31
6.000010440915
0
LINE
8
0
10
3240.614885228263
20
-1222.324374905762
30
6.000010440915
11
3240.760229358485
21
-1222.541897761616
31
6.000010448483
0
LINE
8
0
10
3240.760229358485
20
-1222.541897761616
30
6.000010448483
11
3240.932722479622
21
-1222.738588463406
31
6.000010454717
0
LINE
8
0
10
3240.932722479622
20
-1222.738588463406
30
6.000010454717
11
3241.129413186544
21
-1222.911081578688
31
6.000010459509
0
LINE
8
0
10
3241.129413186544
20
-1222.911081578688
30
6.000010459509
11
3241.346936046725
21
-1223.056425702437
31
6.000010462777
0
LINE
8
0
10
3241.346936046725
20
-1223.056425702437
30
6.000010462777
11
3241.581569183716
21
-1223.172133956399
31
6.000010464469
0
LINE
8
0
10
3241.581569183716
20
-1223.172133956399
30
6.000010464469
11
3241.829297959492
21
-1223.256226540267
31
6.000010464552
0
LINE
8
0
10
3241.829297959492
20
-1223.256226540267
30
6.000010464552
11
3242.085883666017
21
-1223.307264606618
31
6.000010463026
0
LINE
8
0
10
3242.346936050712
20
-1223.324374879987
30
6.000010459916
11
3242.085883666017
21
-1223.307264606618
31
6.000010463026
0
LINE
8
0
10
3256.346936051057
20
-1223.324374820576
30
6.000010229929
11
3242.346936050712
21
-1223.324374879987
31
6.000010459916
0
LINE
8
0
10
3256.346936051057
20
-1223.324374820576
30
6.000010229929
11
3256.346937503336
21
-1674.324368713115
31
6.000019225475
0
LINE
8
0
10
3256.346937503336
20
-1674.324368713115
30
6.000019225475
11
3257.09864100398
21
-1682.961804626209
31
6.000019471692
0
LINE
8
0
10
3257.09864100398
20
-1682.961804626209
30
6.000019471692
11
3259.331149186406
21
-1691.339528320084
31
6.000019688115
0
LINE
8
0
10
3259.331149186406
20
-1691.339528320084
30
6.000019688115
11
3262.977334822832
21
-1699.205638168151
31
6.000019868231
0
LINE
8
0
10
3262.977334822832
20
-1699.205638168151
30
6.000019868231
11
3267.927563990685
21
-1706.323615310544
31
6.000020006629
0
LINE
8
0
10
3267.927563990685
20
-1706.323615310544
30
6.000020006629
11
3274.032991732616
21
-1712.479432342478
31
6.000020099145
0
LINE
8
0
10
3274.032991732616
20
-1712.479432342478
30
6.000020099145
11
3281.110040987928
21
-1717.48800015262
31
6.000020142996
0
LINE
8
0
10
3281.110040987928
20
-1717.48800015262
30
6.000020142996
11
3288.94591363803
21
-1721.198716400272
31
6.000020136866
0
LINE
8
0
10
3288.94591363803
20
-1721.198716400272
30
6.000020136866
11
3297.305006350405
21
-1723.500008819806
31
6.000020080941
0
LINE
8
0
10
3297.305006350405
20
-1723.500008819806
30
6.000020080941
11
3305.935972536918
21
-1724.322678802818
31
6.000019976898
0
LINE
8
0
10
3305.935972536918
20
-1724.322678802818
30
6.000019976898
11
3314.579294527893
21
-1723.641995666936
31
6.000019827867
0
LINE
8
0
10
3314.579294527893
20
-1723.641995666936
30
6.000019827867
11
3464.346937503046
21
-1698.641995668725
31
6.000016851982
0
LINE
8
0
10
3464.346937503046
20
-1698.641995668725
30
6.000016851982
11
3614.114576662905
21
-1723.641995670512
31
6.000015366216
0
LINE
8
0
10
3614.114576662905
20
-1723.641995670512
30
6.000015366216
11
3622.757917727351
21
-1724.322678806602
31
6.000015257756
0
LINE
8
0
10
3622.757917727351
20
-1724.322678806602
30
6.000015257756
11
3631.388868655094
21
-1723.500008823795
31
6.000015104678
0
LINE
8
0
10
3631.388868655094
20
-1723.500008823795
30
6.000015104678
11
3639.747968996922
21
-1721.198716404459
31
6.000014911584
0
LINE
8
0
10
3639.747968996922
20
-1721.198716404459
30
6.000014911584
11
3647.583845461807
21
-1717.488000156996
31
6.000014684279
0
LINE
8
0
10
3647.583845461807
20
-1717.488000156996
30
6.000014684279
11
3654.660871829053
21
-1712.479432347021
31
6.000014429597
0
LINE
8
0
10
3654.660871829053
20
-1712.479432347021
30
6.000014429597
11
3660.76631006155
21
-1706.323615315232
31
6.000014155199
0
LINE
8
0
10
3660.76631006155
20
-1706.323615315232
30
6.000014155199
11
3665.716535891712
21
-1699.205638172959
31
6.000013869332
0
LINE
8
0
10
3665.716535891712
20
-1699.205638172959
30
6.000013869332
11
3669.362715091026
21
-1691.33952832498
31
6.000013580593
0
LINE
8
0
10
3669.362715091026
20
-1691.33952832498
30
6.000013580593
11
3671.595228518859
21
-1682.961804631157
31
6.000013297664
0
LINE
8
0
10
3671.595228518859
20
-1682.961804631157
30
6.000013297664
11
3672.346937503337
21
-1674.32436871808
31
6.000013029051
0
LINE
8
0
10
3672.346937503337
20
-1674.32436871808
30
6.000013029051
11
3672.346937536488
21
-1604.324368718081
31
6.000010971714
0
LINE
8
0
10
3672.346937536488
20
-1604.324368718081
30
6.000010971714
11
3666.346937536488
21
-1604.32436871801
31
6.000011061086
0
LINE
8
0
10
3666.346937536488
20
-1604.32436871801
30
6.000011061086
11
3666.346937536968
21
-1564.324368718009
31
6.000009868993
0
LINE
8
0
10
3666.346937536968
20
-1564.324368718009
30
6.000009868993
11
3672.346937536967
21
-1564.324368718081
31
6.000009779621
0
LINE
8
0
10
3672.346937536967
20
-1564.324368718081
30
6.000009779621
11
3672.346934275976
21
-1235.323522728642
31
6.000000333627
0
LINE
8
0
10
3672.346934275976
20
-1235.323522728642
30
6.000000333627
11
3666.346934275977
21
-1235.323522728572
31
6.000000422998
0
LINE
8
0
10
3666.346934275977
20
-1235.323522728572
30
6.000000422998
11
3666.346934276453
21
-1195.323522728571
31
5.999999230905
0
LINE
8
0
10
3666.346934276453
20
-1195.323522728571
30
5.999999230905
11
3672.346934276454
21
-1195.323522728642
31
5.999999141534
0
LINE
8
0
10
3616.346937539734
20
-1332.324368717413
30
6.000003699623
11
3603.846937539734
21
-1332.324368717264
31
6.000003885813
0
LINE
8
0
10
3603.846937539734
20
-1332.324368717264
30
6.000003885813
11
3603.846937539805
21
-1326.324368717264
31
6.000003706999
0
LINE
8
0
10
3603.846937539805
20
-1326.324368717264
30
6.000003706999
11
3616.346937539805
21
-1326.324368717413
31
6.000003520808
0
LINE
8
0
10
3616.346937539805
20
-1326.324368717413
30
6.000003520808
11
3616.346937539734
21
-1332.324368717413
31
6.000003699623
0
LINE
8
0
10
3326.346937539742
20
-1331.424374817467
30
6.000007992422
11
3326.890455606149
21
-1331.35281109677
31
6.000007982194
0
LINE
8
0
10
3325.803419473337
20
-1331.352811096757
30
6.000007998386
11
3326.346937539742
21
-1331.424374817467
31
6.000007992422
0
LINE
8
0
10
3325.296934487988
20
-1331.14303326472
30
6.000007999678
11
3325.803419473337
21
-1331.352811096757
31
6.000007998386
0
LINE
8
0
10
3324.862013223344
20
-1330.80929303034
30
6.00000799621
11
3325.296934487988
21
-1331.14303326472
31
6.000007999678
0
LINE
8
0
10
3324.528280618369
20
-1330.374356506898
30
6.000007988219
11
3324.862013223344
21
-1330.80929303034
31
6.00000799621
0
LINE
8
0
10
3324.318495156949
20
-1329.867886780334
30
6.000007976251
11
3324.528280618369
21
-1330.374356506898
31
6.000007988219
0
LINE
8
0
10
3324.246939065647
20
-1329.324368713925
30
6.000007961119
11
3324.318495156949
21
-1329.867886780334
31
6.000007976251
0
LINE
8
0
10
3324.318495156962
20
-1328.780850647521
30
6.000007943854
11
3324.246939065647
21
-1329.324368713925
31
6.000007961119
0
LINE
8
0
10
3324.528280618394
20
-1328.274380920961
30
6.000007925635
11
3324.318495156962
21
-1328.780850647521
31
6.000007943854
0
LINE
8
0
10
3324.862013223379
20
-1327.839444397528
30
6.000007907703
11
3324.528280618394
21
-1328.274380920961
31
6.000007925635
0
LINE
8
0
10
3325.296934488032
20
-1327.505704163158
30
6.000007891278
11
3324.862013223379
21
-1327.839444397528
31
6.000007907703
0
LINE
8
0
10
3325.803419473385
20
-1327.295926331132
30
6.000007877482
11
3325.296934488032
21
-1327.505704163158
31
6.000007891278
0
LINE
8
0
10
3326.346937539793
20
-1327.224362610436
30
6.000007867254
11
3325.803419473385
21
-1327.295926331132
31
6.000007877482
0
LINE
8
0
10
3326.890455606198
20
-1327.295926331145
30
6.00000786129
11
3326.346937539793
21
-1327.224362610436
31
6.000007867254
0
LINE
8
0
10
3327.396940591547
20
-1327.505704163182
30
6.000007859997
11
3326.890455606198
21
-1327.295926331145
31
6.00000786129
0
LINE
8
0
10
3327.831861856191
20
-1327.839444397562
30
6.000007863467
11
3327.396940591547
21
-1327.505704163182
31
6.000007859997
0
LINE
8
0
10
3328.165594461167
20
-1328.274380921004
30
6.000007871457
11
3327.831861856191
21
-1327.839444397562
31
6.000007863467
0
LINE
8
0
10
3328.375379922587
20
-1328.780850647569
30
6.000007883425
11
3328.165594461167
21
-1328.274380921004
31
6.000007871457
0
LINE
8
0
10
3328.446936013889
20
-1329.324368713977
30
6.000007898558
11
3328.375379922587
21
-1328.780850647569
31
6.000007883425
0
LINE
8
0
10
3328.375379922573
20
-1329.867886780382
30
6.000007915822
11
3328.446936013889
21
-1329.324368713977
31
6.000007898558
0
LINE
8
0
10
3328.165594461142
20
-1330.374356506942
30
6.000007934041
11
3328.375379922573
21
-1329.867886780382
31
6.000007915822
0
LINE
8
0
10
3327.831861856156
20
-1330.809293030375
30
6.000007951974
11
3328.165594461142
21
-1330.374356506942
31
6.000007934041
0
LINE
8
0
10
3327.396940591504
20
-1331.143033264745
30
6.000007968398
11
3327.831861856156
21
-1330.809293030375
31
6.000007951974
0
LINE
8
0
10
3326.890455606149
20
-1331.35281109677
30
6.000007982194
11
3327.396940591504
21
-1331.143033264745
31
6.000007968398
0
LINE
8
0
10
3318.846937539732
20
-1332.324368713862
30
6.00000813096
11
3306.346937539732
21
-1332.324368713712
31
6.000008317151
0
LINE
8
0
10
3306.346937539732
20
-1332.324368713712
30
6.000008317151
11
3306.346937539804
21
-1326.324368713711
31
6.000008138335
0
LINE
8
0
10
3306.346937539804
20
-1326.324368713711
30
6.000008138335
11
3318.846937539804
21
-1326.324368713863
31
6.000007952145
0
LINE
8
0
10
3318.846937539804
20
-1326.324368713863
30
6.000007952145
11
3318.846937539732
21
-1332.324368713862
31
6.00000813096
0
LINE
8
0
10
3596.346937539744
20
-1331.424374820691
30
6.000003970705
11
3596.890455606151
21
-1331.352811099993
31
6.000003960477
0
LINE
8
0
10
3595.803419473339
20
-1331.352811099981
30
6.000003976668
11
3596.346937539744
21
-1331.424374820691
31
6.000003970705
0
LINE
8
0
10
3595.296949746779
20
-1331.143033267942
30
6.000003977962
11
3595.803419473339
21
-1331.352811099981
31
6.000003976668
0
LINE
8
0
10
3594.862013223345
20
-1330.809293033562
30
6.000003974494
11
3595.296949746779
21
-1331.143033267942
31
6.000003977962
0
ENDSEC
0
EOF
