0
SECTION
2
ENTITIES
0
LINE
8
0
10
1831.01765248602
20
-437.131832670802
30
6.00000991395
11
1830.500013325864
21
-437.199982237452
31
6.00000991395
0
LINE
8
0
10
2146.48237416572
20
-378.268130612085
30
6.000009913838
11
2147.000013325877
21
-378.199982237527
31
6.000009913837
0
LINE
8
0
10
2155.000013325877
20
-378.199982237528
30
6.000009913837
11
2147.000013325877
21
-378.199982237527
31
6.000009913837
0
LINE
8
0
10
1832.500013325865
20
-435.199982237452
30
6.000009913946
11
1832.500013325865
21
-431.199982237452
31
6.000009913935
0
LINE
8
0
10
1832.500013325865
20
-435.199982237452
30
6.000009913946
11
1832.431867573909
21
-435.717621397608
31
6.000009913946
0
LINE
8
0
10
1832.431867573909
20
-435.717621397608
30
6.000009913946
11
1832.232068989926
21
-436.199982237452
31
6.000009913946
0
LINE
8
0
10
1832.232068989926
20
-436.199982237452
30
6.000009913946
11
1831.914228413754
21
-436.614197325343
31
6.00000991395
0
LINE
8
0
10
1819.000013325876
20
-384.19998223745
30
6.000009913814
11
1819.000013325876
21
-382.199982237449
31
6.000009913808
0
LINE
8
0
10
1824.40000722236
20
-384.19998223745
30
6.000009913814
11
1819.000013325876
21
-384.19998223745
31
6.000009913814
0
LINE
8
0
10
2146.000013325877
20
-378.467931341836
30
6.000009913837
11
2146.48237416572
21
-378.268130612085
31
6.000009913838
0
LINE
8
0
10
1995.000013325874
20
-392.199982237491
30
6.000009913854
11
1969.000013325875
21
-392.199982237486
31
6.000009913852
0
LINE
8
0
10
1995.000013325874
20
-392.199982237491
30
6.000009913854
11
1995.517651532357
21
-392.131833624515
31
6.000009913855
0
LINE
8
0
10
1821.085798237972
20
-436.614197325342
30
6.000009913948
11
1820.767957661801
21
-436.199982237449
31
6.000009913945
0
LINE
8
0
10
1820.767957661801
20
-436.199982237449
30
6.000009913945
11
1820.568159077816
21
-435.717621397606
31
6.000009913944
0
LINE
8
0
10
1830.100019429389
20
-395.199982237452
30
6.000009913843
11
1830.100019429388
21
-398.199982237452
31
6.00000991385
0
LINE
8
0
10
1830.100019429388
20
-398.199982237452
30
6.00000991385
11
1828.600019429388
21
-398.199982237451
31
6.000009913851
0
LINE
8
0
10
2157.414228413755
20
-430.614197325419
30
6.000009913971
11
2157.000013325865
21
-430.932034086895
31
6.000009913972
0
LINE
8
0
10
2157.732068989927
20
-430.199982237528
30
6.000009913971
11
2157.414228413755
21
-430.614197325419
31
6.000009913971
0
LINE
8
0
10
2157.931867573912
20
-429.717621397686
30
6.000009913969
11
2157.732068989927
21
-430.199982237528
31
6.000009913971
0
LINE
8
0
10
1867.000013325869
20
-407.199982237461
30
6.000009913878
11
1867.068159077822
21
-407.717619490268
31
6.000009913879
0
LINE
8
0
10
1808.000013325877
20
-378.467931341756
30
6.000009913798
11
1808.482374165721
21
-378.268130612005
31
6.000009913798
0
LINE
8
0
10
1807.585798237987
20
-378.785768580068
30
6.000009913799
11
1808.000013325877
21
-378.467931341756
31
6.000009913798
0
LINE
8
0
10
1807.267957661815
20
-379.199982237448
30
6.000009913801
11
1807.585798237987
21
-378.785768580068
31
6.000009913799
0
LINE
8
0
10
1835.000013325877
20
-378.467931341763
30
6.000009913801
11
1835.482374165721
21
-378.268130612011
31
6.000009913801
0
LINE
8
0
10
2164.585798237973
20
-430.614197325421
30
6.000009913971
11
2164.267957661803
21
-430.199982237529
31
6.000009913971
0
LINE
8
0
10
2165.000013325865
20
-430.932034086897
30
6.000009913974
11
2164.585798237973
21
-430.614197325421
31
6.000009913971
0
LINE
8
0
10
2165.482374165709
20
-431.131832670879
30
6.000009913973
11
2165.000013325865
21
-430.932034086897
31
6.000009913974
0
LINE
8
0
10
1900.000013325871
20
-409.199982237468
30
6.000009913887
11
1900.517652486026
21
-409.131834578168
31
6.000009913885
0
LINE
8
0
10
1912.267965291206
20
-393.199982237471
30
6.000009913848
11
1912.585798237983
21
-393.614195418012
31
6.000009913848
0
LINE
8
0
10
1844.517652486034
20
-378.268130612014
30
6.000009913803
11
1845.000013325877
21
-378.467931341765
31
6.000009913802
0
LINE
8
0
10
2039.000013325909
20
-384.199982237598
30
6.000009913828
11
1997.000013325875
21
-384.199982237492
31
6.000009913834
0
LINE
8
0
10
1968.482375119392
20
-392.13183362451
30
6.000009913852
11
1969.000013325875
21
-392.199982237486
31
6.000009913852
0
LINE
8
0
10
1968.000013325874
20
-391.932033133176
30
6.000009913851
11
1968.482375119392
21
-392.13183362451
31
6.000009913852
0
LINE
8
0
10
1967.585800145331
20
-391.614195418027
30
6.000009913851
11
1968.000013325874
21
-391.932033133176
31
6.000009913851
0
LINE
8
0
10
1967.267962430182
20
-391.199982237485
30
6.000009913848
11
1967.585800145331
21
-391.614195418027
31
6.000009913851
0
LINE
8
0
10
1967.06816193885
20
-390.717620443967
30
6.000009913847
11
1967.267962430182
21
-391.199982237485
31
6.000009913848
0
LINE
8
0
10
1967.000013325874
20
-390.199982237485
30
6.000009913846
11
1967.06816193885
21
-390.717620443967
31
6.000009913847
0
LINE
8
0
10
1967.000013325874
20
-390.199982237485
30
6.000009913846
11
1967.000013325875
21
-384.199982237485
31
6.00000991383
0
LINE
8
0
10
1967.000013325875
20
-384.199982237485
30
6.00000991383
11
1927.000013325875
21
-384.199982237475
31
6.000009913826
0
LINE
8
0
10
1927.000013325875
20
-384.199982237475
30
6.000009913826
11
1927.000013325875
21
-392.199982237475
31
6.000009913847
0
LINE
8
0
10
1926.931863759224
20
-392.717620443956
30
6.000009913848
11
1927.000013325875
21
-392.199982237475
31
6.000009913847
0
LINE
8
0
10
1926.73206517524
20
-393.199982237474
30
6.00000991385
11
1926.931863759224
21
-392.717620443956
31
6.000009913848
0
LINE
8
0
10
1926.414228413764
20
-393.614195418017
30
6.00000991385
11
1926.73206517524
21
-393.199982237474
31
6.00000991385
0
LINE
8
0
10
1926.000013325874
20
-393.932033133166
30
6.000009913852
11
1926.414228413764
21
-393.614195418017
31
6.00000991385
0
LINE
8
0
10
1925.51765248603
20
-394.131833624498
30
6.000009913851
11
1926.000013325874
21
-393.932033133166
31
6.000009913852
0
LINE
8
0
10
1925.000013325873
20
-394.199982237474
30
6.000009913851
11
1925.51765248603
21
-394.131833624498
31
6.000009913851
0
LINE
8
0
10
1925.000013325873
20
-394.199982237474
30
6.000009913851
11
1914.000013325874
21
-394.199982237471
31
6.00000991385
0
LINE
8
0
10
1913.482374165717
20
-394.131833624497
30
6.000009913849
11
1914.000013325874
21
-394.199982237471
31
6.00000991385
0
LINE
8
0
10
1912.585798237983
20
-393.614195418012
30
6.000009913848
11
1913.000013325874
21
-393.932033133162
31
6.000009913847
0
LINE
8
0
10
1912.000013325874
20
-392.199982237473
30
6.000009913846
11
1912.068159077827
21
-392.717620443953
31
6.000009913846
0
LINE
8
0
10
1902.000013325875
20
-384.199982237469
30
6.000009913824
11
1902.00001332587
21
-407.199982237469
31
6.000009913883
0
LINE
8
0
10
1901.931867573918
20
-407.717619490277
30
6.000009913884
11
1902.00001332587
21
-407.199982237469
31
6.000009913883
0
LINE
8
0
10
1901.414228413761
20
-408.61419541801
30
6.000009913886
11
1901.732061360538
21
-408.199982237469
31
6.000009913885
0
LINE
8
0
10
1900.000013325871
20
-409.199982237468
30
6.000009913887
11
1869.00001332587
21
-409.199982237461
31
6.000009913883
0
LINE
8
0
10
1868.000013325869
20
-408.932032179479
30
6.000009913881
11
1868.482374165712
21
-409.13183457816
31
6.000009913882
0
LINE
8
0
10
1867.58579823798
20
-408.614195418004
30
6.000009913882
11
1868.000013325869
21
-408.932032179479
31
6.000009913881
0
LINE
8
0
10
1867.068159077822
20
-407.717619490268
30
6.000009913879
11
1867.267965291201
21
-408.199982237462
31
6.00000991388
0
LINE
8
0
10
1867.000013325869
20
-407.199982237461
30
6.000009913878
11
1867.000013325876
21
-384.199982237461
31
6.00000991382
0
LINE
8
0
10
1846.000013325876
20
-384.199982237456
30
6.000009913817
11
1846.000013325876
21
-382.199982237456
31
6.000009913813
0
LINE
8
0
10
1845.732068989939
20
-379.199982237455
30
6.000009913803
11
1845.931867573925
21
-379.682344030974
31
6.000009913805
0
LINE
8
0
10
1845.414228413769
20
-378.785768580078
30
6.000009913804
11
1845.732068989939
21
-379.199982237455
31
6.000009913803
0
LINE
8
0
10
1834.585798237988
20
-378.785768580074
30
6.000009913802
11
1835.000013325877
21
-378.467931341763
31
6.000009913801
0
LINE
8
0
10
1834.267957661814
20
-379.199982237453
30
6.000009913803
11
1834.585798237988
21
-378.785768580074
31
6.000009913802
0
LINE
8
0
10
1834.068159077831
20
-379.682344030971
30
6.000009913803
11
1834.267957661814
21
-379.199982237453
31
6.000009913803
0
LINE
8
0
10
1834.000013325876
20
-380.199982237453
30
6.000009913804
11
1834.068159077831
21
-379.682344030971
31
6.000009913803
0
LINE
8
0
10
1834.000013325876
20
-380.199982237453
30
6.000009913804
11
1834.000013325875
21
-382.199982237453
31
6.00000991381
0
LINE
8
0
10
1834.000013325875
20
-382.199982237453
30
6.00000991381
11
1834.000013325875
21
-384.199982237453
31
6.000009913816
0
LINE
8
0
10
1834.000013325875
20
-384.199982237453
30
6.000009913816
11
1828.600019429392
21
-384.199982237452
31
6.000009913816
0
LINE
8
0
10
1828.600019429392
20
-384.199982237452
30
6.000009913816
11
1828.600019429388
21
-395.199982237453
31
6.000009913845
0
LINE
8
0
10
1828.600019429388
20
-395.199982237453
30
6.000009913845
11
1830.100019429389
21
-395.199982237452
31
6.000009913843
0
LINE
8
0
10
1828.600019429388
20
-398.199982237451
30
6.000009913851
11
1828.600019429387
21
-399.199982237452
31
6.000009913853
0
LINE
8
0
10
1828.600019429387
20
-399.199982237452
30
6.000009913853
11
1824.400007222356
21
-399.199982237451
31
6.000009913852
0
LINE
8
0
10
1824.400007222356
20
-399.199982237451
30
6.000009913852
11
1824.400007222356
21
-398.199982237451
31
6.00000991385
0
LINE
8
0
10
1824.400007222356
20
-398.199982237451
30
6.00000991385
11
1822.900007222357
21
-398.199982237452
31
6.00000991385
0
LINE
8
0
10
1822.900007222357
20
-398.199982237452
30
6.00000991385
11
1822.900007222357
21
-395.199982237452
31
6.000009913843
0
LINE
8
0
10
1822.900007222357
20
-395.199982237452
30
6.000009913843
11
1824.400007222357
21
-395.199982237451
31
6.000009913844
0
LINE
8
0
10
1824.400007222357
20
-395.199982237451
30
6.000009913844
11
1824.40000722236
21
-384.19998223745
31
6.000009913814
0
LINE
8
0
10
1819.000013325876
20
-382.199982237449
30
6.000009913808
11
1819.000013325877
21
-380.199982237449
31
6.000009913802
0
LINE
8
0
10
1818.931867573924
20
-379.682344030967
30
6.000009913801
11
1819.000013325877
21
-380.199982237449
31
6.000009913802
0
LINE
8
0
10
1818.73206898994
20
-379.199982237448
30
6.000009913801
11
1818.931867573924
21
-379.682344030967
31
6.000009913801
0
LINE
8
0
10
1817.000013325878
20
-378.19998223745
30
6.000009913799
11
1817.517652486034
21
-378.268130612007
31
6.000009913799
0
LINE
8
0
10
1817.000013325878
20
-378.19998223745
30
6.000009913799
11
1809.000013325878
21
-378.199982237445
31
6.000009913797
0
LINE
8
0
10
1808.482374165721
20
-378.268130612005
30
6.000009913798
11
1809.000013325878
21
-378.199982237445
31
6.000009913797
0
LINE
8
0
10
1807.06815907783
20
-379.682344030964
30
6.000009913799
11
1807.267957661815
21
-379.199982237448
31
6.000009913801
0
LINE
8
0
10
1807.000013325877
20
-380.199982237447
30
6.000009913802
11
1807.06815907783
21
-379.682344030964
31
6.000009913799
0
LINE
8
0
10
1807.000013325877
20
-380.199982237447
30
6.000009913802
11
1807.000013325875
21
-382.199982237447
31
6.000009913807
0
LINE
8
0
10
1807.000013325875
20
-382.199982237447
30
6.000009913807
11
1807.000013325875
21
-384.199982237447
31
6.000009913812
0
LINE
8
0
10
1777.000013325865
20
-431.19998223744
30
6.000009913928
11
1820.500013325865
21
-431.19998223745
31
6.000009913934
0
LINE
8
0
10
1820.500013325865
20
-431.19998223745
30
6.000009913934
11
1820.500013325864
21
-435.199982237449
31
6.000009913944
0
LINE
8
0
10
1820.568159077816
20
-435.717621397606
30
6.000009913944
11
1820.500013325864
21
-435.199982237449
31
6.000009913944
0
LINE
8
0
10
1821.500013325863
20
-436.932034086815
30
6.000009913948
11
1821.085798237972
21
-436.614197325342
31
6.000009913948
0
LINE
8
0
10
1821.982374165706
20
-437.131832670801
30
6.000009913949
11
1821.500013325863
21
-436.932034086815
31
6.000009913948
0
LINE
8
0
10
1807.000013325875
20
-384.199982237447
30
6.000009913812
11
1777.000013325876
21
-384.19998223744
31
6.000009913808
0
LINE
8
0
10
2079.732061360533
20
-430.199982237512
30
6.000009913963
11
2079.414228413756
21
-430.614197325403
31
6.000009913963
0
LINE
8
0
10
2156.000013325877
20
-378.467931341837
30
6.000009913838
11
2156.414228413768
21
-378.785768580149
31
6.00000991384
0
LINE
8
0
10
2187.000013325867
20
-431.199982237536
30
6.000009913977
11
2187.000013325875
21
-384.199982237536
31
6.000009913858
0
LINE
8
0
10
1817.517652486034
20
-378.268130612007
30
6.000009913799
11
1818.000013325877
21
-378.467931341759
31
6.000009913798
0
LINE
8
0
10
1818.000013325877
20
-378.467931341759
30
6.000009913798
11
1818.414228413768
21
-378.785768580072
31
6.000009913801
0
LINE
8
0
10
1818.414228413768
20
-378.785768580072
30
6.000009913801
11
1818.73206898994
21
-379.199982237448
31
6.000009913801
0
LINE
8
0
10
1996.414226506415
20
-391.614195418032
30
6.000009913852
11
1996.732064221565
21
-391.199982237492
31
6.000009913851
0
LINE
8
0
10
2079.414228413756
20
-430.614197325403
30
6.000009913963
11
2079.000013325865
21
-430.932034086877
31
6.000009913963
0
LINE
8
0
10
1995.517651532357
20
-392.131833624515
30
6.000009913855
11
1996.000013325874
21
-391.932033133181
31
6.000009913854
0
LINE
8
0
10
1901.000013325869
20
-408.932032179486
30
6.000009913885
11
1901.414228413761
21
-408.61419541801
31
6.000009913886
0
LINE
8
0
10
1844.000013325877
20
-378.199982237456
30
6.000009913802
11
1836.000013325877
21
-378.199982237454
31
6.000009913802
0
LINE
8
0
10
1900.517652486026
20
-409.131834578168
30
6.000009913885
11
1901.000013325869
21
-408.932032179486
31
6.000009913885
0
LINE
8
0
10
1912.000013325875
20
-384.199982237472
30
6.000009913824
11
1902.000013325875
21
-384.199982237469
31
6.000009913824
0
LINE
8
0
10
2079.931867573913
20
-429.717621397668
30
6.000009913959
11
2079.732061360533
21
-430.199982237512
31
6.000009913963
0
LINE
8
0
10
1913.000013325874
20
-393.932033133162
30
6.000009913847
11
1913.482374165717
21
-394.131833624497
31
6.000009913849
0
LINE
8
0
10
2187.000013325875
20
-384.199982237536
30
6.000009913858
11
2157.000013325876
21
-384.199982237529
31
6.000009913853
0
LINE
8
0
10
2080.000013325865
20
-429.199982237512
30
6.000009913958
11
2079.931867573913
21
-429.717621397668
31
6.000009913959
0
LINE
8
0
10
1912.000013325874
20
-392.199982237473
30
6.000009913846
11
1912.000013325875
21
-384.199982237472
31
6.000009913824
0
LINE
8
0
10
1845.000013325877
20
-378.467931341765
30
6.000009913802
11
1845.414228413769
21
-378.785768580078
31
6.000009913804
0
LINE
8
0
10
1901.732061360538
20
-408.199982237469
30
6.000009913885
11
1901.931867573918
21
-407.717619490277
31
6.000009913884
0
LINE
8
0
10
1868.482374165712
20
-409.13183457816
30
6.000009913882
11
1869.00001332587
21
-409.199982237461
31
6.000009913883
0
LINE
8
0
10
1867.267965291201
20
-408.199982237462
30
6.00000991388
11
1867.58579823798
21
-408.614195418004
31
6.000009913882
0
LINE
8
0
10
1845.931867573925
20
-379.682344030974
30
6.000009913805
11
1846.000013325877
21
-380.199982237456
31
6.000009913807
0
LINE
8
0
10
1846.000013325876
20
-382.199982237456
30
6.000009913813
11
1846.000013325877
21
-380.199982237456
31
6.000009913807
0
LINE
8
0
10
2166.000013325865
20
-431.199982237529
30
6.000009913973
11
2187.000013325867
21
-431.199982237536
31
6.000009913977
0
LINE
8
0
10
1777.000013325876
20
-384.19998223744
30
6.000009913808
11
1777.000013325865
21
-431.19998223744
31
6.000009913928
0
LINE
8
0
10
1996.000013325874
20
-391.932033133181
30
6.000009913854
11
1996.414226506415
21
-391.614195418032
31
6.000009913852
0
LINE
8
0
10
1996.732064221565
20
-391.199982237492
30
6.000009913851
11
1996.931864712898
21
-390.717620443974
31
6.000009913852
0
LINE
8
0
10
1912.068159077827
20
-392.717620443953
30
6.000009913846
11
1912.267965291206
21
-393.199982237471
31
6.000009913848
0
LINE
8
0
10
1844.000013325877
20
-378.199982237456
30
6.000009913802
11
1844.517652486034
21
-378.268130612014
31
6.000009913803
0
LINE
8
0
10
2155.517652486033
20
-378.268130612086
30
6.000009913838
11
2156.000013325877
21
-378.467931341837
31
6.000009913838
0
LINE
8
0
10
1867.000013325876
20
-384.199982237461
30
6.00000991382
11
1846.000013325876
21
-384.199982237456
31
6.000009913817
0
LINE
8
0
10
2156.414228413768
20
-378.785768580149
30
6.00000991384
11
2156.732068989938
21
-379.199982237529
31
6.000009913839
0
LINE
8
0
10
1835.482374165721
20
-378.268130612011
30
6.000009913801
11
1836.000013325877
21
-378.199982237454
31
6.000009913802
0
LINE
8
0
10
2118.000013325876
20
-380.19998223752
30
6.000009913837
11
2118.068159077829
21
-379.682344031037
31
6.000009913836
0
LINE
8
0
10
2118.000013325876
20
-380.19998223752
30
6.000009913837
11
2118.000013325875
21
-382.19998223752
31
6.000009913842
0
LINE
8
0
10
2118.000013325875
20
-382.19998223752
30
6.000009913842
11
2118.000013325875
21
-384.19998223752
31
6.000009913849
0
LINE
8
0
10
2118.000013325875
20
-384.19998223752
30
6.000009913849
11
2096.000013325875
21
-384.199982237515
31
6.000009913845
0
LINE
8
0
10
2096.000013325875
20
-384.199982237515
30
6.000009913845
11
2096.000013325875
21
-389.199982237514
31
6.000009913859
0
LINE
8
0
10
2095.931867573923
20
-389.717620443997
30
6.000009913861
11
2096.000013325875
21
-389.199982237514
31
6.000009913859
0
LINE
8
0
10
2095.732061360543
20
-390.199982237515
30
6.000009913862
11
2095.931867573923
21
-389.717620443997
31
6.000009913861
0
LINE
8
0
10
2095.414228413766
20
-390.614195418056
30
6.000009913862
11
2095.732061360543
21
-390.199982237515
31
6.000009913862
0
LINE
8
0
10
2095.000013325873
20
-390.932033133205
30
6.00000991386
11
2095.414228413766
21
-390.614195418056
31
6.000009913862
0
LINE
8
0
10
2094.517652486031
20
-391.131833624538
30
6.000009913864
11
2095.000013325873
21
-390.932033133205
31
6.00000991386
0
LINE
8
0
10
2094.000013325875
20
-391.199982237513
30
6.000009913863
11
2094.517652486031
21
-391.131833624538
31
6.000009913864
0
LINE
8
0
10
2094.000013325875
20
-391.199982237513
30
6.000009913863
11
2088.000013325874
21
-391.199982237513
31
6.000009913864
0
LINE
8
0
10
2087.482374165718
20
-391.131833624538
30
6.000009913862
11
2088.000013325874
21
-391.199982237513
31
6.000009913864
0
LINE
8
0
10
2087.000013325874
20
-390.932033133203
30
6.000009913862
11
2087.482374165718
21
-391.131833624538
31
6.000009913862
0
LINE
8
0
10
2086.585798237984
20
-390.614195418054
30
6.000009913862
11
2087.000013325874
21
-390.932033133203
31
6.000009913862
0
LINE
8
0
10
2086.267965291207
20
-390.199982237513
30
6.00000991386
11
2086.585798237984
21
-390.614195418054
31
6.000009913862
0
LINE
8
0
10
2086.000013325875
20
-384.199982237512
30
6.000009913843
11
2044.000013325875
21
-384.199982237609
31
6.000009913828
0
LINE
8
0
10
2044.000013325892
20
-391.199982237609
30
6.000009913848
11
2039.000013325893
21
-391.199982237621
31
6.000009913846
0
LINE
8
0
10
2086.000013325876
20
-389.199982237512
30
6.000009913858
11
2086.068159077828
21
-389.717620443995
31
6.000009913859
0
LINE
8
0
10
2086.068159077828
20
-389.717620443995
30
6.000009913859
11
2086.267965291207
21
-390.199982237513
31
6.00000991386
0
LINE
8
0
10
2086.068159077819
20
-429.717621397669
30
6.00000991396
11
2086.000013325867
21
-429.199982237512
31
6.000009913958
0
LINE
8
0
10
2133.900007222358
20
-395.199982237524
30
6.000009913879
11
2135.400007222358
21
-395.199982237523
31
6.000009913879
0
LINE
8
0
10
2133.900007222357
20
-398.199982237523
30
6.000009913885
11
2133.900007222358
21
-395.199982237524
31
6.000009913879
0
LINE
8
0
10
2135.400007222357
20
-398.199982237523
30
6.000009913886
11
2133.900007222357
21
-398.199982237523
31
6.000009913885
0
LINE
8
0
10
2135.400007222357
20
-399.199982237523
30
6.000009913888
11
2135.400007222357
21
-398.199982237523
31
6.000009913886
0
LINE
8
0
10
2139.600019429387
20
-399.199982237526
30
6.000009913888
11
2135.400007222357
21
-399.199982237523
31
6.000009913888
0
LINE
8
0
10
2139.600019429388
20
-398.199982237525
30
6.000009913886
11
2139.600019429387
21
-399.199982237526
31
6.000009913888
0
LINE
8
0
10
2141.100019429388
20
-398.199982237526
30
6.000009913887
11
2139.600019429388
21
-398.199982237525
31
6.000009913886
0
LINE
8
0
10
2141.100019429389
20
-395.199982237526
30
6.000009913881
11
2141.100019429388
21
-398.199982237526
31
6.000009913887
0
LINE
8
0
10
2139.600019429388
20
-395.199982237525
30
6.000009913879
11
2141.100019429389
21
-395.199982237526
31
6.000009913881
0
LINE
8
0
10
2139.600019429389
20
-384.199982237526
30
6.00000991385
11
2139.600019429388
21
-395.199982237525
31
6.000009913879
0
LINE
8
0
10
2145.000013325875
20
-384.199982237527
30
6.000009913852
11
2139.600019429389
21
-384.199982237526
31
6.00000991385
0
LINE
8
0
10
2145.000013325876
20
-382.199982237526
30
6.000009913848
11
2145.000013325875
21
-384.199982237527
31
6.000009913852
0
LINE
8
0
10
2145.000013325876
20
-380.199982237526
30
6.000009913842
11
2145.000013325876
21
-382.199982237526
31
6.000009913848
0
LINE
8
0
10
2145.000013325876
20
-380.199982237526
30
6.000009913842
11
2145.068159077829
21
-379.682344031045
31
6.000009913841
0
LINE
8
0
10
2145.068159077829
20
-379.682344031045
30
6.000009913841
11
2145.267957661812
21
-379.199982237526
31
6.00000991384
0
LINE
8
0
10
2145.267957661812
20
-379.199982237526
30
6.00000991384
11
2145.585798237986
21
-378.785768580148
31
6.000009913839
0
LINE
8
0
10
1996.931864712898
20
-390.717620443974
30
6.000009913852
11
1997.000013325874
21
-390.199982237492
31
6.00000991385
0
LINE
8
0
10
1997.000013325875
20
-384.199982237492
30
6.000009913834
11
1997.000013325874
21
-390.199982237492
31
6.00000991385
0
LINE
8
0
10
2086.000013325876
20
-389.199982237512
30
6.000009913858
11
2086.000013325875
21
-384.199982237512
31
6.000009913843
0
LINE
8
0
10
1831.500013325863
20
-436.932034086817
30
6.00000991395
11
1831.01765248602
21
-437.131832670802
31
6.00000991395
0
LINE
8
0
10
1822.500013325863
20
-437.199982237452
30
6.000009913949
11
1821.982374165706
21
-437.131832670801
31
6.000009913949
0
LINE
8
0
10
1822.500013325863
20
-437.199982237452
30
6.000009913949
11
1830.500013325864
21
-437.199982237452
31
6.00000991395
0
LINE
8
0
10
1831.914228413754
20
-436.614197325343
30
6.00000991395
11
1831.500013325863
21
-436.932034086817
31
6.00000991395
0
LINE
8
0
10
1832.500013325865
20
-431.199982237452
30
6.000009913935
11
2078.000013325864
21
-431.199982237511
31
6.000009913963
0
LINE
8
0
10
2078.517652486021
20
-431.13183267086
30
6.000009913964
11
2078.000013325864
21
-431.199982237511
31
6.000009913963
0
LINE
8
0
10
2079.000013325865
20
-430.932034086877
30
6.000009913963
11
2078.517652486021
21
-431.13183267086
31
6.000009913964
0
LINE
8
0
10
2080.000013325865
20
-429.199982237512
30
6.000009913958
11
2080.000013325869
21
-419.199982237512
31
6.000009913934
0
LINE
8
0
10
2080.000013325869
20
-419.199982237512
30
6.000009913934
11
2086.00001332587
21
-419.199982237512
31
6.000009913934
0
LINE
8
0
10
2086.00001332587
20
-419.199982237512
30
6.000009913934
11
2086.000013325867
21
-429.199982237512
31
6.000009913958
0
LINE
8
0
10
2086.267965291198
20
-430.199982237513
30
6.000009913963
11
2086.068159077819
21
-429.717621397669
31
6.00000991396
0
LINE
8
0
10
2086.585798237975
20
-430.614197325404
30
6.000009913964
11
2086.267965291198
21
-430.199982237513
31
6.000009913963
0
LINE
8
0
10
2087.000013325866
20
-430.932034086878
30
6.000009913965
11
2086.585798237975
21
-430.614197325404
31
6.000009913964
0
LINE
8
0
10
2087.482374165709
20
-431.131832670862
30
6.000009913964
11
2087.000013325866
21
-430.932034086878
31
6.000009913965
0
LINE
8
0
10
2088.000013325865
20
-431.199982237512
30
6.000009913964
11
2087.482374165709
21
-431.131832670862
31
6.000009913964
0
LINE
8
0
10
2088.000013325865
20
-431.199982237512
30
6.000009913964
11
2156.000013325864
21
-431.199982237529
31
6.000009913973
0
LINE
8
0
10
2156.517652486021
20
-431.131832670878
30
6.000009913972
11
2156.000013325864
21
-431.199982237529
31
6.000009913973
0
LINE
8
0
10
2157.000013325865
20
-430.932034086895
30
6.000009913972
11
2156.517652486021
21
-431.131832670878
31
6.000009913972
0
LINE
8
0
10
2158.000013325865
20
-429.199982237529
30
6.000009913967
11
2157.931867573912
21
-429.717621397686
31
6.000009913969
0
LINE
8
0
10
2158.000013325865
20
-429.199982237529
30
6.000009913967
11
2158.000013325868
21
-419.199982237529
31
6.000009913943
0
LINE
8
0
10
2158.000013325868
20
-419.199982237529
30
6.000009913943
11
2164.000013325869
21
-419.19998223753
31
6.000009913942
0
LINE
8
0
10
2164.000013325869
20
-419.19998223753
30
6.000009913942
11
2164.000013325865
21
-429.19998223753
31
6.000009913966
0
LINE
8
0
10
2164.068159077819
20
-429.717621397686
30
6.000009913969
11
2164.000013325865
21
-429.19998223753
31
6.000009913966
0
LINE
8
0
10
2164.267957661803
20
-430.199982237529
30
6.000009913971
11
2164.068159077819
21
-429.717621397686
31
6.000009913969
0
LINE
8
0
10
2166.000013325865
20
-431.199982237529
30
6.000009913973
11
2165.482374165709
21
-431.131832670879
31
6.000009913973
0
LINE
8
0
10
2157.000013325876
20
-384.199982237529
30
6.000009913853
11
2157.000013325876
21
-382.199982237529
31
6.000009913849
0
LINE
8
0
10
2157.000013325876
20
-382.199982237529
30
6.000009913849
11
2157.000013325877
21
-380.19998223753
31
6.000009913843
0
LINE
8
0
10
2156.931867573924
20
-379.682344031047
30
6.000009913841
11
2157.000013325877
21
-380.19998223753
31
6.000009913843
0
LINE
8
0
10
2156.732068989938
20
-379.199982237529
30
6.000009913839
11
2156.931867573924
21
-379.682344031047
31
6.000009913841
0
LINE
8
0
10
2155.000013325877
20
-378.199982237528
30
6.000009913837
11
2155.517652486033
21
-378.268130612086
31
6.000009913838
0
LINE
8
0
10
2145.585798237986
20
-378.785768580148
30
6.000009913839
11
2146.000013325877
21
-378.467931341836
31
6.000009913837
0
LINE
8
0
10
2135.400007222358
20
-395.199982237523
30
6.000009913879
11
2135.400007222358
21
-384.199982237523
31
6.000009913851
0
LINE
8
0
10
2135.400007222358
20
-384.199982237523
30
6.000009913851
11
2130.000013325875
21
-384.199982237523
31
6.00000991385
0
LINE
8
0
10
2130.000013325875
20
-384.199982237523
30
6.00000991385
11
2130.000013325875
21
-382.199982237524
31
6.000009913847
0
LINE
8
0
10
2130.000013325875
20
-382.199982237524
30
6.000009913847
11
2130.000013325877
21
-380.199982237524
31
6.000009913839
0
LINE
8
0
10
2129.931867573924
20
-379.682344031041
30
6.000009913838
11
2130.000013325877
21
-380.199982237524
31
6.000009913839
0
LINE
8
0
10
2129.732068989939
20
-379.199982237523
30
6.000009913838
11
2129.931867573924
21
-379.682344031041
31
6.000009913838
0
LINE
8
0
10
2129.414228413767
20
-378.785768580143
30
6.000009913836
11
2129.732068989939
21
-379.199982237523
31
6.000009913838
0
LINE
8
0
10
2129.000013325876
20
-378.467931341832
30
6.000009913835
11
2129.414228413767
21
-378.785768580143
31
6.000009913836
0
LINE
8
0
10
2128.517652486033
20
-378.268130612079
30
6.000009913835
11
2129.000013325876
21
-378.467931341832
31
6.000009913835
0
LINE
8
0
10
2128.000013325877
20
-378.199982237523
30
6.000009913834
11
2128.517652486033
21
-378.268130612079
31
6.000009913835
0
LINE
8
0
10
2128.000013325877
20
-378.199982237523
30
6.000009913834
11
2120.000013325877
21
-378.199982237521
31
6.000009913835
0
LINE
8
0
10
2119.482374165721
20
-378.268130612077
30
6.000009913834
11
2120.000013325877
21
-378.199982237521
31
6.000009913835
0
LINE
8
0
10
2119.000013325876
20
-378.467931341829
30
6.000009913834
11
2119.482374165721
21
-378.268130612077
31
6.000009913834
0
LINE
8
0
10
2118.585798237988
20
-378.78576858014
30
6.000009913836
11
2119.000013325876
21
-378.467931341829
31
6.000009913834
0
LINE
8
0
10
2118.267957661814
20
-379.199982237519
30
6.000009913835
11
2118.585798237988
21
-378.78576858014
31
6.000009913836
0
LINE
8
0
10
2118.068159077829
20
-379.682344031037
30
6.000009913836
11
2118.267957661814
21
-379.199982237519
31
6.000009913835
0
LINE
8
0
10
2044.000013325875
20
-384.199982237609
30
6.000009913828
11
2044.000013325892
21
-391.199982237609
31
6.000009913848
0
LINE
8
0
10
2039.000013325893
20
-391.199982237621
30
6.000009913846
11
2039.000013325909
21
-384.199982237598
31
6.000009913828
0
LINE
8
1
10
2192.732068989737
20
-777.199982237406
30
6.000000691786
11
2192.931867573721
21
-776.717621397563
31
6.000000691786
0
LINE
8
1
10
2192.931867573721
20
-776.717621397563
30
6.000000691786
11
2193.000013325675
21
-776.199982237407
31
6.000000691786
0
LINE
8
1
10
2193.000013325675
20
-776.199982237407
30
6.000000691786
11
2193.000013325679
21
-767.699982237406
31
6.000000691786
0
LINE
8
1
10
2193.000013325679
20
-767.699982237406
30
6.000000691786
11
2192.931867573726
21
-767.18234307725
31
6.000000691786
0
LINE
8
1
10
2192.931867573726
20
-767.18234307725
30
6.000000691786
11
2192.732068989741
21
-766.699982237406
31
6.000000691786
0
LINE
8
1
10
2192.732068989741
20
-766.699982237406
30
6.000000691786
11
2192.41422841357
21
-766.285767149516
31
6.000000691787
0
LINE
8
1
10
2192.41422841357
20
-766.285767149516
30
6.000000691787
11
2192.000013325679
21
-765.967926573344
31
6.000000691787
0
LINE
8
1
10
2192.000013325679
20
-765.967926573344
30
6.000000691787
11
2191.517652485836
21
-765.768127989359
31
6.000000691787
0
LINE
8
1
10
2191.517652485836
20
-765.768127989359
30
6.000000691787
11
2191.000013325679
21
-765.699982237405
31
6.000000691788
0
LINE
8
1
10
2191.000013325679
20
-765.699982237405
30
6.000000691788
11
2187.000013325679
21
-765.699982237404
31
6.00000069179
0
LINE
8
1
10
2187.000013325679
20
-765.699982237404
30
6.00000069179
11
2187.000013325783
21
-535.699982237404
31
6.00000069179
0
LINE
8
1
10
2187.000013325783
20
-535.699982237404
30
6.00000069179
11
2191.000013325783
21
-535.699982237405
31
6.000000691788
0
LINE
8
1
10
2191.000013325783
20
-535.699982237405
30
6.000000691788
11
2191.517652485939
21
-535.631836485453
31
6.000000691787
0
LINE
8
1
10
2191.517652485939
20
-535.631836485453
30
6.000000691787
11
2192.000013325783
21
-535.432030272074
31
6.000000691787
0
LINE
8
1
10
2192.000013325783
20
-535.432030272074
30
6.000000691787
11
2192.414228413674
21
-535.114197325297
31
6.000000691787
0
LINE
8
1
10
2192.414228413674
20
-535.114197325297
30
6.000000691787
11
2192.732068989846
21
-534.699982237406
31
6.000000691786
0
LINE
8
1
10
2192.732068989846
20
-534.699982237406
30
6.000000691786
11
2192.93186757383
21
-534.217621397563
31
6.000000691786
0
LINE
8
1
10
2192.93186757383
20
-534.217621397563
30
6.000000691786
11
2193.000013325784
21
-533.699982237406
31
6.000000691786
0
LINE
8
1
10
2193.000013325784
20
-533.699982237406
30
6.000000691786
11
2193.000013325788
21
-525.199982237406
31
6.000000691786
0
LINE
8
1
10
2193.000013325788
20
-525.199982237406
30
6.000000691786
11
2192.931867573835
21
-524.68234307725
31
6.000000691786
0
LINE
8
1
10
2192.931867573835
20
-524.68234307725
30
6.000000691786
11
2192.732068989851
21
-524.199982237406
31
6.000000691786
0
LINE
8
1
10
2192.732068989851
20
-524.199982237406
30
6.000000691786
11
2192.414228413679
21
-523.785767149516
31
6.000000691787
0
LINE
8
1
10
2192.414228413679
20
-523.785767149516
30
6.000000691787
11
2192.000013325789
21
-523.467934202738
31
6.000000691787
0
LINE
8
1
10
2192.000013325789
20
-523.467934202738
30
6.000000691787
11
2191.517652485945
21
-523.268127989359
31
6.000000691787
0
LINE
8
1
10
2191.517652485945
20
-523.268127989359
30
6.000000691787
11
2191.000013325788
21
-523.199982237406
31
6.000000691788
0
LINE
8
1
10
2191.000013325788
20
-523.199982237406
30
6.000000691788
11
2187.000013325789
21
-523.199982237404
31
6.00000069179
0
LINE
8
1
10
2187.000013325789
20
-523.199982237404
30
6.00000069179
11
2187.000013325791
21
-517.799980711525
31
6.00000069179
0
LINE
8
1
10
2187.000013325791
20
-517.799980711525
30
6.00000069179
11
2176.000013325791
21
-517.79998071152
31
6.000000691799
0
LINE
8
1
10
2176.000013325791
20
-517.79998071152
30
6.000000691799
11
2176.00001332579
21
-519.29998071152
31
6.000000691799
0
LINE
8
1
10
2176.00001332579
20
-519.29998071152
30
6.000000691799
11
2173.00001332579
21
-519.299980711519
31
6.000000691801
0
LINE
8
1
10
2173.00001332579
20
-519.299980711519
30
6.000000691801
11
2173.000013325791
21
-517.799980711519
31
6.000000691801
0
LINE
8
1
10
2173.000013325791
20
-517.799980711519
30
6.000000691801
11
2172.000013325791
21
-517.799980711518
31
6.000000691801
0
LINE
8
1
10
2172.000013325791
20
-517.799980711518
30
6.000000691801
11
2172.000013325793
21
-513.599983763276
31
6.000000691801
0
LINE
8
1
10
2172.000013325793
20
-513.599983763276
30
6.000000691801
11
2173.000013325793
21
-513.599983763276
31
6.000000691801
0
LINE
8
1
10
2173.000013325793
20
-513.599983763276
30
6.000000691801
11
2173.000013325794
21
-512.099983763276
31
6.000000691801
0
LINE
8
1
10
2173.000013325794
20
-512.099983763276
30
6.000000691801
11
2176.000013325794
21
-512.099983763278
31
6.000000691799
0
LINE
8
1
10
2176.000013325794
20
-512.099983763278
30
6.000000691799
11
2176.000013325793
21
-513.599983763278
31
6.000000691799
0
LINE
8
1
10
2176.000013325793
20
-513.599983763278
30
6.000000691799
11
2187.000013325793
21
-513.599983763283
31
6.00000069179
0
LINE
8
1
10
2187.000013325793
20
-513.599983763283
30
6.00000069179
11
2187.000013325795
21
-508.199982237404
31
6.00000069179
0
LINE
8
1
10
2187.000013325795
20
-508.199982237404
30
6.00000069179
11
2191.000013325795
21
-508.199982237406
31
6.000000691788
0
LINE
8
1
10
2191.517652485951
20
-508.131832670756
30
6.000000691787
11
2192.000013325795
21
-507.932034086771
31
6.000000691787
0
LINE
8
1
10
2192.000013325795
20
-507.932034086771
30
6.000000691787
11
2192.414228413686
21
-507.614197325297
31
6.000000691787
0
LINE
8
1
10
2193.000013325796
20
-506.199982237407
30
6.000000691786
11
2193.0000133258
21
-497.699982237407
31
6.000000691786
0
LINE
8
1
10
2192.931867573847
20
-497.18234307725
30
6.000000691786
11
2192.732068989863
21
-496.699982237406
31
6.000000691786
0
LINE
8
1
10
2192.414228413691
20
-496.285767149516
30
6.000000691787
11
2192.000013325801
21
-495.967930388041
31
6.000000691787
0
LINE
8
1
10
2187.000013325801
20
-495.699982237404
30
6.00000069179
11
2187.000013325823
21
-445.699982237404
31
6.00000069179
0
LINE
8
1
10
2187.000013325823
20
-445.699982237404
30
6.00000069179
11
2002.000013325823
21
-445.699982237321
31
6.000000691926
0
LINE
8
1
10
2002.000013325825
20
-441.699982237321
30
6.000000691926
11
2001.931865666523
21
-441.182344030838
31
6.000000691926
0
LINE
8
1
10
2001.732063267842
20
-440.699982237321
30
6.000000691926
11
2001.414226506368
21
-440.285768579941
31
6.000000691926
0
LINE
8
1
10
1990.085800145284
20
-440.285768579936
30
6.000000691934
11
1989.767962430135
21
-440.699982237315
31
6.000000691935
0
LINE
8
1
10
1989.568161461964
20
-441.182344030833
30
6.000000691935
11
1989.500013325825
21
-441.699982237315
31
6.000000691935
0
LINE
8
1
10
1989.500013325823
20
-445.699982237315
30
6.000000691935
11
1984.100013230456
21
-445.699982237313
31
6.000000691939
0
LINE
8
1
10
1985.600013230451
20
-456.699982237313
30
6.000000691938
11
1985.60001323045
21
-459.699982237313
31
6.000000691938
0
LINE
8
1
10
1985.60001323045
20
-459.699982237313
30
6.000000691938
11
1984.10001323045
21
-459.699982237313
31
6.000000691939
0
LINE
8
1
10
1984.10001323045
20
-459.699982237313
30
6.000000691939
11
1984.100013230449
21
-460.699982237313
31
6.000000691939
0
LINE
8
1
10
1984.100013230449
20
-460.699982237313
30
6.000000691939
11
1979.900013421184
21
-460.699982237311
31
6.000000691942
0
LINE
8
1
10
1979.900013421184
20
-460.699982237311
30
6.000000691942
11
1979.900013421184
21
-459.699982237311
31
6.000000691942
0
LINE
8
1
10
1979.900013421191
20
-445.699982237311
30
6.000000691942
11
1974.500013325823
21
-445.699982237308
31
6.000000691946
0
LINE
8
1
10
1974.500013325825
20
-441.699982237308
30
6.000000691946
11
1974.431865189686
21
-441.182344030826
31
6.000000691946
0
LINE
8
1
10
1973.914226506368
20
-440.285768579929
30
6.000000691946
11
1973.500013325826
21
-439.967931341617
31
6.000000691947
0
LINE
8
1
10
1973.500013325826
20
-439.967931341617
30
6.000000691947
11
1973.017651532308
21
-439.768130373447
31
6.000000691947
0
LINE
8
1
10
1962.000013325825
20
-441.699982237303
30
6.000000691955
11
1962.000013325823
21
-445.699982237303
31
6.000000691955
0
LINE
8
1
10
1777.000013325823
20
-445.699982237219
30
6.00000069209
11
1777.000013325801
21
-495.69998223722
31
6.00000069209
0
LINE
8
1
10
1777.000013325801
20
-495.69998223722
30
6.00000069209
11
1773.000013325801
21
-495.699982237218
31
6.000000692093
0
LINE
8
1
10
1773.000013325801
20
-495.699982237218
30
6.000000692093
11
1772.482374165645
21
-495.768131803868
31
6.000000692094
0
LINE
8
1
10
1772.482374165645
20
-495.768131803868
30
6.000000692094
11
1772.000013325801
21
-495.967930387852
31
6.000000692094
0
LINE
8
1
10
1771.58579823791
20
-496.285767149327
30
6.000000692094
11
1771.267957661738
21
-496.699982237217
31
6.000000692094
0
LINE
8
1
10
1771.267957661738
20
-496.699982237217
30
6.000000692094
11
1771.068159077753
21
-497.182343077061
31
6.000000692095
0
LINE
8
1
10
1771.068159077753
20
-497.182343077061
30
6.000000692095
11
1771.0000133258
21
-497.699982237217
31
6.000000692095
0
LINE
8
1
10
1771.0000133258
20
-497.699982237217
30
6.000000692095
11
1771.000013325796
21
-506.199982237217
31
6.000000692095
0
LINE
8
1
10
1771.267957661733
20
-507.199982237217
30
6.000000692094
11
1771.585798237905
21
-507.614197325108
31
6.000000692094
0
LINE
8
1
10
1772.482374165639
20
-508.131832670567
30
6.000000692094
11
1773.000013325795
21
-508.199982237218
31
6.000000692093
0
LINE
8
1
10
1773.000013325795
20
-508.199982237218
30
6.000000692093
11
1777.000013325795
21
-508.19998223722
31
6.00000069209
0
LINE
8
1
10
1777.000013325795
20
-508.19998223722
30
6.00000069209
11
1777.000013325793
21
-513.599983763098
31
6.00000069209
0
LINE
8
1
10
1788.000013325793
20
-513.599983763103
30
6.000000692082
11
1788.000013325793
21
-512.099983763103
31
6.000000692082
0
LINE
8
1
10
1788.000013325793
20
-512.099983763103
30
6.000000692082
11
1791.000013325793
21
-512.099983763105
31
6.00000069208
0
LINE
8
1
10
1791.000013325793
20
-512.099983763105
30
6.00000069208
11
1791.000013325793
21
-513.599983763105
31
6.00000069208
0
LINE
8
1
10
1791.000013325793
20
-513.599983763105
30
6.00000069208
11
1792.000013325793
21
-513.599983763105
31
6.000000692079
0
LINE
8
1
10
1792.000013325793
20
-513.599983763105
30
6.000000692079
11
1792.000013325791
21
-517.799980711347
31
6.000000692079
0
LINE
8
1
10
1791.000013325791
20
-517.799980711347
30
6.00000069208
11
1791.00001332579
21
-519.299980711347
31
6.00000069208
0
LINE
8
1
10
1788.00001332579
20
-519.299980711346
30
6.000000692082
11
1788.000013325791
21
-517.799980711346
31
6.000000692082
0
LINE
8
1
10
1777.000013325791
20
-517.799980711341
30
6.00000069209
11
1777.000013325788
21
-523.19998223722
31
6.00000069209
0
LINE
8
1
10
1777.000013325788
20
-523.19998223722
30
6.00000069209
11
1773.000013325789
21
-523.199982237218
31
6.000000692093
0
LINE
8
1
10
1773.000013325789
20
-523.199982237218
30
6.000000692093
11
1772.482374165632
21
-523.268127989171
31
6.000000692094
0
LINE
8
1
10
1772.482374165632
20
-523.268127989171
30
6.000000692094
11
1772.000013325788
21
-523.467934202549
31
6.000000692094
0
LINE
8
1
10
1772.000013325788
20
-523.467934202549
30
6.000000692094
11
1771.585798237898
21
-523.785767149326
31
6.000000692094
0
LINE
8
1
10
1771.585798237898
20
-523.785767149326
30
6.000000692094
11
1771.267957661726
21
-524.199982237217
31
6.000000692094
0
LINE
8
1
10
1771.267957661726
20
-524.199982237217
30
6.000000692094
11
1771.068159077741
21
-524.682343077061
31
6.000000692095
0
LINE
8
1
10
1771.068159077741
20
-524.682343077061
30
6.000000692095
11
1771.000013325787
21
-525.199982237217
31
6.000000692095
0
LINE
8
1
10
1771.000013325787
20
-525.199982237217
30
6.000000692095
11
1771.000013325784
21
-533.699982237217
31
6.000000692095
0
LINE
8
1
10
1771.000013325784
20
-533.699982237217
30
6.000000692095
11
1771.068159077736
21
-534.217621397373
31
6.000000692095
0
LINE
8
1
10
1771.068159077736
20
-534.217621397373
30
6.000000692095
11
1771.267957661721
21
-534.699982237217
31
6.000000692094
0
LINE
8
1
10
1771.267957661721
20
-534.699982237217
30
6.000000692094
11
1771.585798237893
21
-535.114197325108
31
6.000000692094
0
LINE
8
1
10
1771.585798237893
20
-535.114197325108
30
6.000000692094
11
1772.000013325783
21
-535.432030271885
31
6.000000692094
0
LINE
8
1
10
1772.000013325783
20
-535.432030271885
30
6.000000692094
11
1772.482374165627
21
-535.631836485264
31
6.000000692094
0
LINE
8
1
10
1772.482374165627
20
-535.631836485264
30
6.000000692094
11
1773.000013325783
21
-535.699982237218
31
6.000000692093
0
LINE
8
1
10
1773.000013325783
20
-535.699982237218
30
6.000000692093
11
1777.000013325783
21
-535.69998223722
31
6.00000069209
0
LINE
8
1
10
1777.000013325679
20
-765.69998223722
30
6.00000069209
11
1773.000013325679
21
-765.699982237218
31
6.000000692093
0
LINE
8
1
10
1772.482374165523
20
-765.768127989171
30
6.000000692094
11
1772.000013325679
21
-765.967926573155
31
6.000000692094
0
LINE
8
1
10
1772.000013325679
20
-765.967926573155
30
6.000000692094
11
1771.585798237789
21
-766.285767149326
31
6.000000692094
0
LINE
8
1
10
1771.585798237789
20
-766.285767149326
30
6.000000692094
11
1771.267957661616
21
-766.699982237217
31
6.000000692094
0
LINE
8
1
10
1771.267957661616
20
-766.699982237217
30
6.000000692094
11
1771.068159077632
21
-767.182343077061
31
6.000000692095
0
LINE
8
1
10
1771.068159077632
20
-767.182343077061
30
6.000000692095
11
1771.000013325679
21
-767.699982237217
31
6.000000692095
0
LINE
8
1
10
1771.000013325679
20
-767.699982237217
30
6.000000692095
11
1771.000013325675
21
-776.199982237217
31
6.000000692095
0
LINE
8
1
10
1771.000013325675
20
-776.199982237217
30
6.000000692095
11
1771.068159077628
21
-776.717621397373
31
6.000000692095
0
LINE
8
1
10
1771.068159077628
20
-776.717621397373
30
6.000000692095
11
1771.267957661612
21
-777.199982237217
31
6.000000692094
0
LINE
8
1
10
1771.267957661612
20
-777.199982237217
30
6.000000692094
11
1771.585798237784
21
-777.614197325108
31
6.000000692094
0
LINE
8
1
10
1772.000013325674
20
-777.93203790128
30
6.000000692094
11
1772.482374165518
21
-778.131836485264
31
6.000000692094
0
LINE
8
1
10
1772.482374165518
20
-778.131836485264
30
6.000000692094
11
1773.000013325674
21
-778.199982237218
31
6.000000692093
0
LINE
8
1
10
1773.000013325674
20
-778.199982237218
30
6.000000692093
11
1777.000013325674
21
-778.199982237219
31
6.00000069209
0
LINE
8
1
10
1777.000013325674
20
-778.199982237219
30
6.00000069209
11
1777.000013325671
21
-783.599976133704
31
6.00000069209
0
LINE
8
1
10
1777.000013325671
20
-783.599976133704
30
6.00000069209
11
1788.000013325671
21
-783.599976133709
31
6.000000692082
0
LINE
8
1
10
1788.000013325671
20
-783.599976133709
30
6.000000692082
11
1788.000013325672
21
-782.099976133709
31
6.000000692082
0
LINE
8
1
10
1788.000013325672
20
-782.099976133709
30
6.000000692082
11
1791.000013325672
21
-782.09997613371
31
6.00000069208
0
LINE
8
1
10
1791.000013325672
20
-782.09997613371
30
6.00000069208
11
1791.000013325671
21
-783.59997613371
31
6.00000069208
0
LINE
8
1
10
1792.000013325671
20
-783.599976133711
30
6.000000692079
11
1792.00001332567
21
-787.799988340742
31
6.000000692079
0
LINE
8
1
10
1792.00001332567
20
-787.799988340742
30
6.000000692079
11
1791.00001332567
21
-787.799988340742
31
6.00000069208
0
LINE
8
1
10
1791.00001332567
20
-787.799988340742
30
6.00000069208
11
1791.000013325669
21
-789.299988340742
31
6.00000069208
0
LINE
8
1
10
1791.000013325669
20
-789.299988340742
30
6.00000069208
11
1788.000013325669
21
-789.29998834074
31
6.000000692082
0
LINE
8
1
10
1788.000013325669
20
-789.29998834074
30
6.000000692082
11
1788.00001332567
21
-787.79998834074
31
6.000000692082
0
LINE
8
1
10
1788.00001332567
20
-787.79998834074
30
6.000000692082
11
1777.000013325669
21
-787.799988340735
31
6.00000069209
0
LINE
8
1
10
1777.000013325669
20
-787.799988340735
30
6.00000069209
11
1777.000013325667
21
-793.19998223722
31
6.00000069209
0
LINE
8
1
10
1777.000013325667
20
-793.19998223722
30
6.00000069209
11
1773.000013325667
21
-793.199982237218
31
6.000000692093
0
LINE
8
1
10
1773.000013325667
20
-793.199982237218
30
6.000000692093
11
1772.482374165511
21
-793.268127989171
31
6.000000692094
0
LINE
8
1
10
1772.482374165511
20
-793.268127989171
30
6.000000692094
11
1772.000013325667
21
-793.467926573155
31
6.000000692094
0
LINE
8
1
10
1772.000013325667
20
-793.467926573155
30
6.000000692094
11
1771.585798237776
21
-793.785767149326
31
6.000000692094
0
LINE
8
1
10
1771.585798237776
20
-793.785767149326
30
6.000000692094
11
1771.267957661604
21
-794.199982237217
31
6.000000692094
0
LINE
8
1
10
1771.267957661604
20
-794.199982237217
30
6.000000692094
11
1771.06815907762
21
-794.682343077061
31
6.000000692095
0
LINE
8
1
10
1771.06815907762
20
-794.682343077061
30
6.000000692095
11
1771.000013325666
21
-795.199982237217
31
6.000000692095
0
LINE
8
1
10
1771.000013325666
20
-795.199982237217
30
6.000000692095
11
1771.000013325663
21
-803.699982237217
31
6.000000692095
0
LINE
8
1
10
1771.000013325663
20
-803.699982237217
30
6.000000692095
11
1771.068159077615
21
-804.217621397373
31
6.000000692095
0
LINE
8
1
10
1771.068159077615
20
-804.217621397373
30
6.000000692095
11
1771.2679576616
21
-804.699982237217
31
6.000000692094
0
LINE
8
1
10
1771.2679576616
20
-804.699982237217
30
6.000000692094
11
1771.585798237771
21
-805.114197325108
31
6.000000692094
0
LINE
8
1
10
1771.585798237771
20
-805.114197325108
30
6.000000692094
11
1772.000013325662
21
-805.43203790128
31
6.000000692094
0
LINE
8
1
10
1772.000013325662
20
-805.43203790128
30
6.000000692094
11
1772.482374165505
21
-805.631836485265
31
6.000000692094
0
LINE
8
1
10
1855.411825154285
20
-784.359253477489
30
6.000000692033
11
1853.000013325672
21
-783.360230039988
31
6.000000692035
0
LINE
8
1
10
1853.000013325672
20
-783.360230039988
30
6.000000692035
11
1850.928937886219
21
-781.771057676706
31
6.000000692036
0
LINE
8
1
10
1850.928937886219
20
-781.771057676706
30
6.000000692036
11
1849.339765522939
21
-779.699982237252
31
6.000000692037
0
LINE
8
1
10
1849.339765522939
20
-779.699982237252
30
6.000000692037
11
1848.340757344229
21
-777.288178038033
31
6.000000692038
0
LINE
8
1
10
1848.340757344229
20
-777.288178038033
30
6.000000692038
11
1848.000013325675
21
-774.699982237251
31
6.000000692038
0
LINE
8
1
10
1848.000013325675
20
-774.699982237251
30
6.000000692038
11
1848.000013325787
21
-526.699982237252
31
6.000000692038
0
LINE
8
1
10
1848.340757344343
20
-524.111794065865
30
6.000000692038
11
1849.339765523055
21
-521.699982237252
31
6.000000692037
0
LINE
8
1
10
2106.000013325791
20
-516.699982237367
30
6.00000069185
11
2108.588201497178
21
-517.040726255923
31
6.000000691848
0
LINE
8
1
10
2108.588201497178
20
-517.040726255923
30
6.000000691848
11
2111.000013325791
21
-518.039726805241
31
6.000000691846
0
LINE
8
1
10
2111.000013325791
20
-518.039726805241
30
6.000000691846
11
2113.071088765243
21
-519.628914427312
31
6.000000691845
0
LINE
8
1
10
2113.071088765243
20
-519.628914427312
30
6.000000691845
11
2114.660261128523
21
-521.699982237371
31
6.000000691843
0
LINE
8
1
10
2114.660261128523
20
-521.699982237371
30
6.000000691843
11
2115.659269307233
21
-524.111794065985
31
6.000000691843
0
LINE
8
1
10
2115.659269307233
20
-524.111794065985
30
6.000000691843
11
2116.000013325787
21
-526.699982237372
31
6.000000691842
0
LINE
8
1
10
2116.000013325787
20
-526.699982237372
30
6.000000691842
11
2116.000013325675
21
-774.699982237372
31
6.000000691842
0
LINE
8
1
10
2116.000013325675
20
-774.699982237372
30
6.000000691842
11
2115.65926930712
21
-777.288178038153
31
6.000000691843
0
LINE
8
1
10
2115.65926930712
20
-777.288178038153
30
6.000000691843
11
2114.660261128408
21
-779.699982237371
31
6.000000691843
0
LINE
8
1
10
2114.660261128408
20
-779.699982237371
30
6.000000691843
11
2113.071088765125
21
-781.771057676823
31
6.000000691845
0
LINE
8
1
10
2113.071088765125
20
-781.771057676823
30
6.000000691845
11
2111.000013325672
21
-783.360230040104
31
6.000000691846
0
LINE
8
1
10
2111.000013325672
20
-783.360230040104
30
6.000000691846
11
2108.588201497058
21
-784.359253477603
31
6.000000691848
0
LINE
8
1
10
2108.588201497058
20
-784.359253477603
30
6.000000691848
11
2106.000013325671
21
-784.699982237367
31
6.00000069185
0
LINE
8
1
10
2106.000013325671
20
-784.699982237367
30
6.00000069185
11
1858.000013325671
21
-784.699982237256
31
6.000000692031
0
LINE
8
1
10
1858.000013325671
20
-784.699982237256
30
6.000000692031
11
1855.411825154285
21
-784.359253477489
31
6.000000692033
0
LINE
8
1
10
1990.982375119344
20
-439.768130373454
30
6.000000691934
11
1990.500013325826
21
-439.967931341625
31
6.000000691934
0
LINE
8
1
10
2192.732068989858
20
-507.199982237406
30
6.000000691786
11
2192.931867573843
21
-506.717621397563
31
6.000000691786
0
LINE
8
1
10
2001.000013325826
20
-439.967931341629
30
6.000000691926
11
2000.517650578634
21
-439.768130373459
31
6.000000691927
0
LINE
8
1
10
1991.500013325826
20
-439.699982237316
30
6.000000691933
11
1990.982375119344
21
-439.768130373454
31
6.000000691934
0
LINE
8
1
10
1855.411825154405
20
-517.04072625581
30
6.000000692033
11
1858.000013325792
21
-516.699982237256
31
6.000000692031
0
LINE
8
1
10
1962.585800145284
20
-440.285768579924
30
6.000000691955
11
1962.267963383809
21
-440.699982237303
31
6.000000691955
0
LINE
8
1
10
1979.900013421186
20
-456.699982237311
30
6.000000691942
11
1979.900013421191
21
-445.699982237311
31
6.000000691942
0
LINE
8
1
10
2192.414228413686
20
-507.614197325297
30
6.000000691787
11
2192.732068989858
21
-507.199982237406
31
6.000000691786
0
LINE
8
1
10
2155.358777974081
20
-847.494293760827
30
6.000000691814
11
2156.047590229939
21
-847.88031060653
31
6.000000691813
0
LINE
8
1
10
2157.287656758258
20
-850.646027159265
30
6.000000691812
11
2157.117658589313
21
-851.41711480575
31
6.000000691812
0
LINE
8
1
10
2157.117658589313
20
-851.41711480575
30
6.000000691812
11
2157.05259511275
21
-851.637360167078
31
6.000000691812
0
LINE
8
1
10
2157.05259511275
20
-851.637360167078
30
6.000000691812
11
2157.013196919391
21
-851.863648008875
31
6.000000691812
0
LINE
8
1
10
2157.00001332564
20
-852.092926573328
30
6.000000691812
11
2157.000013325637
21
-859.69998223739
31
6.000000691812
0
LINE
8
1
10
1974.232064221517
20
-440.699982237308
30
6.000000691946
11
1973.914226506368
21
-440.285768579929
31
6.000000691946
0
LINE
8
1
10
1962.267963383809
20
-440.699982237303
30
6.000000691955
11
1962.068160985127
21
-441.182344030821
31
6.000000691955
0
LINE
8
1
10
2001.414226506368
20
-440.285768579941
30
6.000000691926
11
2001.000013325826
21
-439.967931341629
31
6.000000691926
0
LINE
8
1
10
1962.000013325823
20
-445.699982237303
30
6.000000691955
11
1777.000013325823
21
-445.699982237219
31
6.00000069209
0
LINE
8
1
10
1978.400013421186
20
-456.69998223731
30
6.000000691943
11
1979.900013421186
21
-456.699982237311
31
6.000000691942
0
LINE
8
1
10
2192.000013325801
20
-495.967930388041
30
6.000000691787
11
2191.517652485957
21
-495.768131804056
31
6.000000691787
0
LINE
8
1
10
1984.100013230451
20
-456.699982237313
30
6.000000691939
11
1985.600013230451
21
-456.699982237313
31
6.000000691938
0
LINE
8
1
10
2192.931867573843
20
-506.717621397563
30
6.000000691786
11
2193.000013325796
21
-506.199982237407
31
6.000000691786
0
LINE
8
1
10
1974.431865189686
20
-441.182344030826
30
6.000000691946
11
1974.232064221517
21
-440.699982237308
31
6.000000691946
0
LINE
8
1
10
1989.500013325825
20
-441.699982237315
30
6.000000691935
11
1989.500013325823
21
-445.699982237315
31
6.000000691935
0
LINE
8
1
10
1984.100013230456
20
-445.699982237313
30
6.000000691939
11
1984.100013230451
21
-456.699982237313
31
6.000000691939
0
LINE
8
1
10
1963.000013325826
20
-439.967931341612
30
6.000000691954
11
1962.585800145284
21
-440.285768579924
31
6.000000691955
0
LINE
8
1
10
1973.017651532308
20
-439.768130373447
30
6.000000691947
11
1972.500013325826
21
-439.699982237307
31
6.000000691947
0
LINE
8
1
10
1850.928937886337
20
-519.628914427194
30
6.000000692036
11
1853.000013325791
21
-518.039726805125
31
6.000000692035
0
LINE
8
1
10
2191.000013325795
20
-508.199982237406
30
6.000000691788
11
2191.517652485951
21
-508.131832670756
31
6.000000691787
0
LINE
8
1
10
1964.000013325826
20
-439.699982237304
30
6.000000691954
11
1963.482376073018
21
-439.768130373442
31
6.000000691954
0
LINE
8
1
10
2192.732068989863
20
-496.699982237406
30
6.000000691786
11
2192.414228413691
21
-496.285767149516
31
6.000000691787
0
LINE
8
1
10
1962.068160985127
20
-441.182344030821
30
6.000000691955
11
1962.000013325825
21
-441.699982237303
31
6.000000691955
0
LINE
8
1
10
2193.0000133258
20
-497.699982237407
30
6.000000691786
11
2192.931867573847
21
-497.18234307725
31
6.000000691786
0
LINE
8
1
10
1978.400013421184
20
-459.69998223731
30
6.000000691943
11
1978.400013421186
21
-456.69998223731
31
6.000000691943
0
LINE
8
1
10
1858.000013325792
20
-516.699982237256
30
6.000000692031
11
2106.000013325791
21
-516.699982237367
31
6.00000069185
0
LINE
8
1
10
1963.482376073018
20
-439.768130373442
30
6.000000691954
11
1963.000013325826
21
-439.967931341612
31
6.000000691954
0
LINE
8
1
10
1853.000013325791
20
-518.039726805125
30
6.000000692035
11
1855.411825154405
21
-517.04072625581
31
6.000000692033
0
LINE
8
1
10
2000.000013325826
20
-439.69998223732
30
6.000000691927
11
1991.500013325826
21
-439.699982237316
31
6.000000691933
0
LINE
8
1
10
2002.000013325823
20
-445.699982237321
30
6.000000691926
11
2002.000013325825
21
-441.699982237321
31
6.000000691926
0
LINE
8
1
10
1979.900013421184
20
-459.699982237311
30
6.000000691942
11
1978.400013421184
21
-459.69998223731
31
6.000000691943
0
LINE
8
1
10
2191.517652485957
20
-495.768131804056
30
6.000000691787
11
2191.000013325801
21
-495.699982237405
31
6.000000691788
0
LINE
8
1
10
2000.517650578634
20
-439.768130373459
30
6.000000691927
11
2000.000013325826
21
-439.69998223732
31
6.000000691927
0
LINE
8
1
10
1990.500013325826
20
-439.967931341625
30
6.000000691934
11
1990.085800145284
21
-440.285768579936
31
6.000000691934
0
LINE
8
1
10
2191.000013325801
20
-495.699982237405
30
6.000000691788
11
2187.000013325801
21
-495.699982237404
31
6.00000069179
0
LINE
8
1
10
1972.500013325826
20
-439.699982237307
30
6.000000691947
11
1964.000013325826
21
-439.699982237304
31
6.000000691954
0
LINE
8
1
10
2001.931865666523
20
-441.182344030838
30
6.000000691926
11
2001.732063267842
21
-440.699982237321
31
6.000000691926
0
LINE
8
1
10
1772.000013325795
20
-507.932034086583
30
6.000000692094
11
1772.482374165639
21
-508.131832670567
31
6.000000692094
0
LINE
8
1
10
1771.000013325796
20
-506.199982237217
30
6.000000692095
11
1771.068159077749
21
-506.717621397373
31
6.000000692095
0
LINE
8
1
10
1791.00001332579
20
-519.299980711347
30
6.00000069208
11
1788.00001332579
21
-519.299980711346
31
6.000000692082
0
LINE
8
1
10
1788.000013325791
20
-517.799980711346
30
6.000000692082
11
1777.000013325791
21
-517.799980711341
31
6.00000069209
0
LINE
8
1
10
1974.500013325823
20
-445.699982237308
30
6.000000691946
11
1974.500013325825
21
-441.699982237308
31
6.000000691946
0
LINE
8
1
10
1771.068159077749
20
-506.717621397373
30
6.000000692095
11
1771.267957661733
21
-507.199982237217
31
6.000000692094
0
LINE
8
1
10
1792.000013325791
20
-517.799980711347
30
6.000000692079
11
1791.000013325791
21
-517.799980711347
31
6.00000069208
0
LINE
8
1
10
1771.585798237784
20
-777.614197325108
30
6.000000692094
11
1772.000013325674
21
-777.93203790128
31
6.000000692094
0
LINE
8
1
10
1849.339765523055
20
-521.699982237252
30
6.000000692037
11
1850.928937886337
21
-519.628914427194
31
6.000000692036
0
LINE
8
1
10
1777.000013325783
20
-535.69998223722
30
6.00000069209
11
1777.000013325679
21
-765.69998223722
31
6.00000069209
0
LINE
8
1
10
1848.000013325787
20
-526.699982237252
30
6.000000692038
11
1848.340757344343
21
-524.111794065865
31
6.000000692038
0
LINE
8
1
10
1771.585798237905
20
-507.614197325108
30
6.000000692094
11
1772.000013325795
21
-507.932034086583
31
6.000000692094
0
LINE
8
1
10
1773.000013325679
20
-765.699982237218
30
6.000000692093
11
1772.482374165523
21
-765.768127989171
31
6.000000692094
0
LINE
8
1
10
1772.000013325801
20
-495.967930387852
30
6.000000692094
11
1771.58579823791
21
-496.285767149327
31
6.000000692094
0
LINE
8
1
10
1777.000013325793
20
-513.599983763098
30
6.00000069209
11
1788.000013325793
21
-513.599983763103
31
6.000000692082
0
LINE
8
1
10
1791.000013325671
20
-783.59997613371
30
6.00000069208
11
1792.000013325671
21
-783.599976133711
31
6.000000692079
0
LINE
8
1
10
1989.767962430135
20
-440.699982237315
30
6.000000691935
11
1989.568161461964
21
-441.182344030833
31
6.000000691935
0
LINE
8
1
10
2151.347440693805
20
-851.637360167075
30
6.000000691817
11
2151.282361958454
21
-851.417114805747
31
6.000000691817
0
LINE
8
1
10
2151.282361958454
20
-851.417114805747
30
6.000000691817
11
2151.112363789508
21
-850.646027159263
31
6.000000691817
0
LINE
8
1
10
1772.482374165505
20
-805.631836485265
30
6.000000692094
11
1773.000013325661
21
-805.699982237218
31
6.000000692093
0
LINE
8
1
10
1773.000013325661
20
-805.699982237218
30
6.000000692093
11
1777.000013325661
21
-805.69998223722
31
6.00000069209
0
LINE
8
1
10
1777.000013325661
20
-805.69998223722
30
6.00000069209
11
1777.000013325639
21
-855.699996811566
31
6.000000692112
0
LINE
8
1
10
1777.000013325639
20
-855.699996811566
30
6.000000692112
11
1770.999999603925
21
-855.699996811564
31
6.000000692117
0
LINE
8
1
10
1770.999999603925
20
-855.699996811564
30
6.000000692117
11
1770.999999603922
21
-861.699982237218
31
6.000000692095
0
LINE
8
1
10
1770.999999603922
20
-861.699982237218
30
6.000000692095
11
2149.400007222121
21
-861.699982237387
31
6.000000691818
0
LINE
8
1
10
2149.400007222121
20
-861.699982237387
30
6.000000691818
11
2149.917646382277
21
-861.631836485434
31
6.000000691818
0
LINE
8
1
10
2149.917646382277
20
-861.631836485434
30
6.000000691818
11
2150.400007222121
21
-861.43203790145
31
6.000000691817
0
LINE
8
1
10
2150.400007222121
20
-861.43203790145
30
6.000000691817
11
2150.814222310012
21
-861.114197325278
31
6.000000691817
0
LINE
8
1
10
2150.814222310012
20
-861.114197325278
30
6.000000691817
11
2151.132062886184
21
-860.699982237388
31
6.000000691817
0
LINE
8
1
10
2151.132062886184
20
-860.699982237388
30
6.000000691817
11
2151.331861470168
21
-860.217621397544
31
6.000000691817
0
LINE
8
1
10
2151.331861470168
20
-860.217621397544
30
6.000000691817
11
2151.400007222122
21
-859.699982237388
31
6.000000691817
0
LINE
8
1
10
2151.400007222122
20
-859.699982237388
30
6.000000691817
11
2151.400007222125
21
-852.092926573325
31
6.000000691817
0
LINE
8
1
10
2151.400007222125
20
-852.092926573325
30
6.000000691817
11
2151.386823628375
21
-851.863648008872
31
6.000000691817
0
LINE
8
1
10
2151.386823628375
20
-851.863648008872
30
6.000000691817
11
2151.347440693805
21
-851.637360167075
31
6.000000691817
0
LINE
8
1
10
2151.112363789508
20
-850.646027159263
30
6.000000691817
11
2151.142683003376
21
-849.857025694419
31
6.000000691817
0
LINE
8
1
10
2151.142683003376
20
-849.857025694419
30
6.000000691817
11
2151.371335957478
21
-849.101257872153
31
6.000000691817
0
LINE
8
1
10
2151.371335957478
20
-849.101257872153
30
6.000000691817
11
2151.783506367634
21
-848.427795958091
31
6.000000691816
0
LINE
8
1
10
2151.783506367634
20
-848.427795958091
30
6.000000691816
11
2152.352445576619
21
-847.880310606529
31
6.000000691816
0
LINE
8
1
10
2152.352445576619
20
-847.880310606529
30
6.000000691816
11
2153.041242573689
21
-847.494293760826
31
6.000000691815
0
LINE
8
1
10
2153.041242573689
20
-847.494293760826
30
6.000000691815
11
2153.805219624471
21
-847.294800352623
31
6.000000691815
0
LINE
8
1
10
2153.805219624471
20
-847.294800352623
30
6.000000691815
11
2154.594800923299
21
-847.294800352624
31
6.000000691814
0
LINE
8
1
10
2154.594800923299
20
-847.294800352624
30
6.000000691814
11
2155.358777974081
21
-847.494293760827
31
6.000000691814
0
LINE
8
1
10
2156.047590229939
20
-847.88031060653
30
6.000000691813
11
2156.616529438923
21
-848.427795958093
31
6.000000691813
0
LINE
8
1
10
2156.616529438923
20
-848.427795958093
30
6.000000691813
11
2157.028699849079
21
-849.101257872156
31
6.000000691812
0
LINE
8
1
10
2157.028699849079
20
-849.101257872156
30
6.000000691812
11
2157.257352803181
21
-849.857025694422
31
6.000000691812
0
LINE
8
1
10
2157.257352803181
20
-849.857025694422
30
6.000000691812
11
2157.287656758258
21
-850.646027159265
31
6.000000691812
0
LINE
8
1
10
2157.013196919391
20
-851.863648008875
30
6.000000691812
11
2157.00001332564
21
-852.092926573328
31
6.000000691812
0
LINE
8
1
10
2157.000013325637
20
-859.69998223739
30
6.000000691812
11
2157.06815907759
21
-860.217621397547
31
6.000000691812
0
LINE
8
1
10
2157.06815907759
20
-860.217621397547
30
6.000000691812
11
2157.267957661574
21
-860.69998223739
31
6.000000691812
0
LINE
8
1
10
2157.267957661574
20
-860.69998223739
30
6.000000691812
11
2157.585798237746
21
-861.114197325281
31
6.000000691812
0
LINE
8
1
10
2157.585798237746
20
-861.114197325281
30
6.000000691812
11
2158.000013325637
21
-861.432037901453
31
6.000000691812
0
LINE
8
1
10
2158.000013325637
20
-861.432037901453
30
6.000000691812
11
2158.48237416548
21
-861.631836485438
31
6.000000691811
0
LINE
8
1
10
2158.48237416548
20
-861.631836485438
30
6.000000691811
11
2159.000013325636
21
-861.699982237391
31
6.000000691811
0
LINE
8
1
10
2159.000013325636
20
-861.699982237391
30
6.000000691811
11
2193.000006253588
21
-861.69997540435
31
5.999993858744
0
LINE
8
1
10
2193.000006253588
20
-861.69997540435
30
5.999993858744
11
2193.000006253591
21
-855.699989979422
31
5.999993860407
0
LINE
8
1
10
2187.000013325639
20
-855.699996812475
30
6.000000693453
11
2193.000006253591
21
-855.699989979422
31
5.999993860407
0
LINE
8
1
10
2187.000013325639
20
-855.699996812475
30
6.000000693453
11
2187.000013325661
21
-805.699982237404
31
6.00000069179
0
LINE
8
1
10
2187.000013325661
20
-805.699982237404
30
6.00000069179
11
2191.000013325662
21
-805.699982237405
31
6.000000691788
0
LINE
8
1
10
2191.000013325662
20
-805.699982237405
30
6.000000691788
11
2191.517652485818
21
-805.631836485453
31
6.000000691787
0
LINE
8
1
10
2191.517652485818
20
-805.631836485453
30
6.000000691787
11
2192.000013325661
21
-805.432037901469
31
6.000000691787
0
LINE
8
1
10
2192.000013325661
20
-805.432037901469
30
6.000000691787
11
2192.414228413552
21
-805.114197325297
31
6.000000691787
0
LINE
8
1
10
2192.414228413552
20
-805.114197325297
30
6.000000691787
11
2192.732068989725
21
-804.699982237406
31
6.000000691786
0
LINE
8
1
10
2192.732068989725
20
-804.699982237406
30
6.000000691786
11
2192.931867573709
21
-804.217621397563
31
6.000000691786
0
LINE
8
1
10
2192.931867573709
20
-804.217621397563
30
6.000000691786
11
2193.000013325662
21
-803.699982237406
31
6.000000691786
0
LINE
8
1
10
2193.000013325662
20
-803.699982237406
30
6.000000691786
11
2193.000013325666
21
-795.199982237407
31
6.000000691786
0
LINE
8
1
10
2193.000013325666
20
-795.199982237407
30
6.000000691786
11
2192.931867573713
21
-794.68234307725
31
6.000000691786
0
LINE
8
1
10
2192.931867573713
20
-794.68234307725
30
6.000000691786
11
2192.732068989729
21
-794.199982237406
31
6.000000691786
0
LINE
8
1
10
2192.732068989729
20
-794.199982237406
30
6.000000691786
11
2192.414228413557
21
-793.785767149516
31
6.000000691787
0
LINE
8
1
10
2192.414228413557
20
-793.785767149516
30
6.000000691787
11
2192.000013325667
21
-793.467926573343
31
6.000000691787
0
LINE
8
1
10
2192.000013325667
20
-793.467926573343
30
6.000000691787
11
2191.517652485823
21
-793.268127989359
31
6.000000691787
0
LINE
8
1
10
2191.517652485823
20
-793.268127989359
30
6.000000691787
11
2191.000013325667
21
-793.199982237405
31
6.000000691788
0
LINE
8
1
10
2191.000013325667
20
-793.199982237405
30
6.000000691788
11
2187.000013325667
21
-793.199982237404
31
6.00000069179
0
LINE
8
1
10
2187.000013325667
20
-793.199982237404
30
6.00000069179
11
2187.000013325669
21
-787.799988340919
31
6.00000069179
0
LINE
8
1
10
2187.000013325669
20
-787.799988340919
30
6.00000069179
11
2176.000013325669
21
-787.799988340914
31
6.000000691799
0
LINE
8
1
10
2176.000013325669
20
-787.799988340914
30
6.000000691799
11
2176.000013325669
21
-789.299988340914
31
6.000000691799
0
LINE
8
1
10
2176.000013325669
20
-789.299988340914
30
6.000000691799
11
2173.000013325669
21
-789.299988340913
31
6.000000691801
0
LINE
8
1
10
2173.000013325669
20
-789.299988340913
30
6.000000691801
11
2173.00001332567
21
-787.799988340913
31
6.000000691801
0
LINE
8
1
10
2173.00001332567
20
-787.799988340913
30
6.000000691801
11
2172.000013325669
21
-787.799988340913
31
6.000000691801
0
LINE
8
1
10
2172.000013325669
20
-787.799988340913
30
6.000000691801
11
2172.000013325671
21
-783.599976133881
31
6.000000691801
0
LINE
8
1
10
2172.000013325671
20
-783.599976133881
30
6.000000691801
11
2173.000013325672
21
-783.599976133882
31
6.000000691801
0
LINE
8
1
10
2173.000013325672
20
-783.599976133882
30
6.000000691801
11
2173.000013325672
21
-782.099976133882
31
6.000000691801
0
LINE
8
1
10
2173.000013325672
20
-782.099976133882
30
6.000000691801
11
2176.000013325672
21
-782.099976133883
31
6.000000691799
0
LINE
8
1
10
2176.000013325672
20
-782.099976133883
30
6.000000691799
11
2176.000013325672
21
-783.599976133883
31
6.000000691799
0
LINE
8
1
10
2176.000013325672
20
-783.599976133883
30
6.000000691799
11
2187.000013325671
21
-783.599976133888
31
6.00000069179
0
LINE
8
1
10
2187.000013325671
20
-783.599976133888
30
6.00000069179
11
2187.000013325674
21
-778.199982237404
31
6.00000069179
0
LINE
8
1
10
2187.000013325674
20
-778.199982237404
30
6.00000069179
11
2191.000013325674
21
-778.199982237405
31
6.000000691788
0
LINE
8
1
10
2191.000013325674
20
-778.199982237405
30
6.000000691788
11
2191.51765248583
21
-778.131836485453
31
6.000000691787
0
LINE
8
1
10
2191.51765248583
20
-778.131836485453
30
6.000000691787
11
2192.000013325674
21
-777.932037901468
31
6.000000691787
0
LINE
8
1
10
2192.000013325674
20
-777.932037901468
30
6.000000691787
11
2192.414228413565
21
-777.614197325297
31
6.000000691787
0
LINE
8
1
10
2192.414228413565
20
-777.614197325297
30
6.000000691787
11
2192.732068989737
21
-777.199982237406
31
6.000000691786
0
LINE
8
2
10
1933.604446457764
20
-776.952553523733
30
6.000228929548
11
1933.856724180216
21
-777.695739853613
31
6.000229098614
0
LINE
8
2
10
1933.856724180216
20
-777.695739853613
30
6.000229098614
11
1934.20384891449
21
-778.399639268096
31
6.000229331243
0
LINE
8
2
10
1934.20384891449
20
-778.399639268096
30
6.000229331243
11
1934.639881260138
21
-779.052207853045
31
6.000229623454
0
LINE
8
2
10
1934.639881260138
20
-779.052207853045
30
6.000229623454
11
1935.157360582837
21
-779.642279979043
31
6.000229970247
0
LINE
8
2
10
1935.157360582837
20
-779.642279979043
30
6.000229970247
11
1935.747432667903
21
-780.159759348417
31
6.000230365689
0
LINE
8
2
10
1935.747432667903
20
-780.159759348417
30
6.000230365689
11
1936.400001218362
21
-780.595791745683
31
6.000230803014
0
LINE
8
2
10
1936.400001218362
20
-780.595791745683
30
6.000230803014
11
1937.103900605388
21
-780.942916535634
31
6.000231274739
0
LINE
8
2
10
1937.103900605388
20
-780.942916535634
30
6.000231274739
11
1937.847086915313
21
-781.195194316872
31
6.000231772792
0
LINE
8
2
10
1937.847086915313
20
-781.195194316872
30
6.000231772792
11
1938.616844024322
21
-781.348308546616
31
6.000232288652
0
LINE
8
2
10
1938.616844024322
20
-781.348308546616
30
6.000232288652
11
1939.400001174865
21
-781.399639397943
31
6.000232813492
0
LINE
8
2
10
1959.400004873185
20
-781.399639471289
30
6.000242195729
11
1939.400001174865
21
-781.399639397943
31
6.000232813492
0
LINE
8
2
10
1959.661057429369
20
-781.382529195405
30
6.000242370671
11
1959.400004873185
21
-781.399639471289
31
6.000242195729
0
LINE
8
2
10
1959.917643647415
20
-781.331491126582
30
6.000242542607
11
1959.661057429369
21
-781.382529195405
31
6.000242370671
0
LINE
8
2
10
1960.165373265994
20
-781.247398540329
30
6.000242708597
11
1959.917643647415
21
-781.331491126582
31
6.000242542607
0
LINE
8
2
10
1960.400007562648
20
-781.131690284109
30
6.0002428658
11
1960.165373265994
21
-781.247398540329
31
6.000242708597
0
LINE
8
2
10
1960.617531879508
20
-780.986346158269
30
6.000243011527
11
1960.400007562648
21
-781.131690284109
31
6.0002428658
0
LINE
8
2
10
1960.814224315204
20
-780.813853041098
30
6.000243143284
11
1960.617531879508
21
-780.986346158269
31
6.000243011527
0
LINE
8
2
10
1960.986719407628
20
-780.617162337655
30
6.000243258817
11
1960.814224315204
21
-780.813853041098
31
6.000243143284
0
LINE
8
2
10
1961.132065717924
20
-780.399639480409
30
6.000243356148
11
1960.986719407628
21
-780.617162337655
31
6.000243258817
0
LINE
8
2
10
1961.247776330423
20
-780.165006345756
30
6.000243433614
11
1961.132065717924
21
-780.399639480409
31
6.000243356148
0
LINE
8
2
10
1961.331871404466
20
-779.917277571682
30
6.000243489887
11
1961.247776330423
21
-780.165006345756
31
6.000243433614
0
LINE
8
2
10
1961.382912050022
20
-779.660691866196
30
6.000243524005
11
1961.331871404466
21
-779.917277571682
31
6.000243489887
0
LINE
8
2
10
1961.382912050022
20
-779.660691866196
30
6.000243524005
11
1961.400024947491
21
-779.399639481858
31
6.000243535385
0
LINE
8
2
10
1961.400024947491
20
-779.399639481858
30
6.000243535385
11
1961.400152403675
21
-770.899639481781
31
6.000243532426
0
LINE
8
2
10
1961.400152403675
20
-770.899639481781
30
6.000243532426
11
1961.383044746639
21
-770.638587194438
31
6.00024375939
0
LINE
8
2
10
1961.33200925185
20
-770.382001778309
30
6.000244436522
11
1961.383044746639
21
-770.638587194438
31
6.00024375939
0
LINE
8
2
10
1961.247919150775
20
-770.134273481003
30
6.000245552237
11
1961.33200925185
21
-770.382001778309
31
6.000244436522
0
LINE
8
2
10
1961.132213248358
20
-769.899641002369
30
6.000247087443
11
1961.247919150775
21
-770.134273481003
31
6.000245552237
0
LINE
8
2
10
1960.986871304668
20
-769.68211896917
30
6.000249015874
11
1961.132213248358
21
-769.899641002369
31
6.000247087443
0
LINE
8
2
10
1960.814380160657
20
-769.485429243702
30
6.000251304533
11
1960.986871304668
21
-769.68211896917
31
6.000249015874
0
LINE
8
2
10
1960.617691187625
20
-769.3129372417
30
6.00025391426
11
1960.814380160657
21
-769.485429243702
31
6.000251304533
0
LINE
8
2
10
1960.400169788431
20
-769.167594349143
30
6.000256800403
11
1960.617691187625
21
-769.3129372417
31
6.00025391426
0
LINE
8
2
10
1960.165537814525
20
-769.051887423218
30
6.00025991358
11
1960.400169788431
21
-769.167594349143
31
6.000256800403
0
LINE
8
2
10
1959.917809884033
20
-768.967796241509
30
6.000263200521
11
1960.165537814525
21
-769.051887423218
31
6.00025991358
0
LINE
8
2
10
1959.661224690526
20
-768.916759627449
30
6.000266604988
11
1959.917809884033
21
-768.967796241509
31
6.000263200521
0
LINE
8
2
10
1959.661224690526
20
-768.916759627449
30
6.000266604988
11
1959.400172477807
21
-768.899650831655
31
6.000270068728
0
LINE
8
2
10
1959.400172477807
20
-768.899650831655
30
6.000270068728
11
1955.400172478562
21
-768.899673531437
31
6.000323142279
0
LINE
8
2
10
1955.400172478562
20
-768.899673531437
30
6.000323142279
11
1955.400009362595
21
-763.499664573951
31
6.000055742893
0
LINE
8
2
10
1955.400009362595
20
-763.499664573951
30
6.000055742893
11
1944.399946372881
21
-763.4996669615
31
6.000045274208
0
LINE
8
2
10
1944.399946372881
20
-763.4996669615
30
6.000045274208
11
1944.399946372869
21
-764.999667793303
31
6.000052992063
0
LINE
8
2
10
1944.399946372869
20
-764.999667793303
30
6.000052992063
11
1941.39997527864
21
-764.999667793303
31
6.000090922358
0
LINE
8
2
10
1941.39997527864
20
-764.999667793303
30
6.000090922358
11
1941.399975278681
21
-763.499667612508
31
6.000057859359
0
LINE
8
2
10
1941.399975278681
20
-763.499667612508
30
6.000057859359
11
1940.400290433702
21
-763.499667829619
31
6.00003094367
0
LINE
8
2
10
1940.400290433702
20
-763.499667829619
30
6.00003094367
11
1940.40028952209
21
-759.299670540956
31
6.000049158185
0
LINE
8
2
10
1940.40028952209
20
-759.299670540956
30
6.000049158185
11
1941.399975278638
21
-759.299670323945
31
6.000055439321
0
LINE
8
2
10
1941.399975278638
20
-759.299670323945
30
6.000055439321
11
1941.399975278635
21
-757.799667684474
31
6.000053481878
0
LINE
8
2
10
1941.399975278635
20
-757.799667684474
30
6.000053481878
11
1944.399946372869
21
-757.799667684474
31
6.000052992068
0
LINE
8
2
10
1944.399946372869
20
-757.799667684474
30
6.000052992068
11
1944.399946372869
21
-759.299669672836
31
6.000051952258
0
LINE
8
2
10
1944.399946372869
20
-759.299669672836
30
6.000051952258
11
1955.400008450992
21
-759.299667285287
31
6.000055737114
0
LINE
8
2
10
1955.400008450992
20
-759.299667285287
30
6.000055737114
11
1955.400005485916
21
-753.899673105487
31
6.000323136929
0
LINE
8
2
10
1959.400005485281
20
-753.899650405704
30
6.000270063378
11
1955.400005485916
21
-753.899673105487
31
6.000323136929
0
LINE
8
2
10
1959.661057870308
20
-753.882538646993
30
6.000266599628
11
1959.400005485281
21
-753.899650405704
31
6.000270063378
0
LINE
8
2
10
1959.661057870308
20
-753.882538646993
30
6.000266599628
11
1959.917643577819
21
-753.831499120713
31
6.000263195131
0
LINE
8
2
10
1959.917643577819
20
-753.831499120713
30
6.000263195131
11
1960.16537235522
21
-753.747405127309
31
6.000259908141
0
LINE
8
2
10
1960.16537235522
20
-753.747405127309
30
6.000259908141
11
1960.400005494447
21
-753.631695538323
31
6.000256794898
0
LINE
8
2
10
1960.400005494447
20
-753.631695538323
30
6.000256794898
11
1960.617528357435
21
-753.486350176904
31
6.00025390867
0
LINE
8
2
10
1960.617528357435
20
-753.486350176904
30
6.00025390867
11
1960.814219067689
21
-753.313855942483
31
6.000251298843
0
LINE
8
2
10
1960.814219067689
20
-753.313855942483
30
6.000251298843
11
1960.986712192624
21
-753.117164259235
31
6.000249010069
0
LINE
8
2
10
1960.986712192624
20
-753.117164259235
30
6.000249010069
11
1961.132056327049
21
-752.899640576393
31
6.000247081513
0
LINE
8
2
10
1961.132056327049
20
-752.899640576393
30
6.000247081513
11
1961.247764592524
21
-752.665006784482
31
6.00024554617
0
LINE
8
2
10
1961.247764592524
20
-752.665006784482
30
6.00024554617
11
1961.33185718855
21
-752.417277532732
31
6.000244430311
0
LINE
8
2
10
1961.33185718855
20
-752.417277532732
30
6.000244430311
11
1961.382895267492
21
-752.160691537324
31
6.000243753031
0
LINE
8
2
10
1961.382895267492
20
-752.160691537324
30
6.000243753031
11
1961.40000555367
21
-751.89963905578
31
6.000243525915
0
LINE
8
2
10
1961.40000555367
20
-751.89963905578
30
6.000243525915
11
1961.400005530258
21
-743.399639055813
31
6.000243522995
0
LINE
8
2
10
1961.400005530258
20
-743.399639055813
30
6.000243522995
11
1961.382895261931
21
-743.138586671655
31
6.000243510379
0
LINE
8
2
10
1961.382895261931
20
-743.138586671655
30
6.000243510379
11
1961.331857200534
21
-742.882000966732
31
6.000243472924
0
LINE
8
2
10
1961.331857200534
20
-742.882000966732
30
6.000243472924
11
1961.247764621448
21
-742.634272193594
31
6.000243411273
0
LINE
8
2
10
1961.247764621448
20
-742.634272193594
30
6.000243411273
11
1961.132056372016
21
-742.399639060233
31
6.000243326479
0
LINE
8
2
10
1961.132056372016
20
-742.399639060233
30
6.000243326479
11
1960.986712252467
21
-742.182116204613
31
6.000243219993
0
LINE
8
2
10
1960.986712252467
20
-742.182116204613
30
6.000243219993
11
1960.814219140982
21
-741.985425503102
31
6.000243093639
0
LINE
8
2
10
1960.814219140982
20
-741.985425503102
30
6.000243093639
11
1960.617528442524
21
-741.812932388138
31
6.000242949577
0
LINE
8
2
10
1960.617528442524
20
-741.812932388138
30
6.000242949577
11
1960.400005589476
21
-741.667588264739
31
6.000242790272
0
LINE
8
2
10
1960.400005589476
20
-741.667588264739
30
6.000242790272
11
1960.165372458162
21
-741.551880011156
31
6.000242618451
0
LINE
8
2
10
1960.165372458162
20
-741.551880011156
30
6.000242618451
11
1959.917643686512
21
-741.467787427687
31
6.000242437053
0
LINE
8
2
10
1959.917643686512
20
-741.467787427687
30
6.000242437053
11
1959.661057982492
21
-741.41674936175
31
6.000242249182
0
LINE
8
2
10
1959.661057982492
20
-741.41674936175
30
6.000242249182
11
1959.400005598637
21
-741.399639088803
31
6.000242058053
0
LINE
8
2
10
1959.400005598637
20
-741.399639088803
30
6.000242058053
11
1949.400005097723
21
-741.399639451698
31
6.000234736775
0
LINE
8
2
10
1949.400005097723
20
-741.399639451698
30
6.000234736775
11
1949.400005097722
21
-701.399633301372
31
6.000234681735
0
LINE
8
2
10
1949.400005097722
20
-701.399633301372
30
6.000234681735
11
1959.400005598637
21
-701.399634443451
31
6.000239097446
0
LINE
8
2
10
1959.400005598637
20
-701.399634443451
30
6.000239097446
11
1959.661057971213
21
-701.382524179751
31
6.000239212725
0
LINE
8
2
10
1959.917643641586
20
-701.331486122902
30
6.000239326044
11
1959.661057971213
21
-701.382524179751
31
6.000239212725
0
LINE
8
2
10
1960.165372357799
20
-701.247393548206
30
6.000239435462
11
1959.917643641586
21
-701.331486122902
31
6.000239326044
0
LINE
8
2
10
1960.400005412832
20
-701.131685302933
30
6.000239539109
11
1960.165372357799
21
-701.247393548206
31
6.000239435462
0
LINE
8
2
10
1960.617528170063
20
-700.986341187239
30
6.000239635211
11
1960.400005412832
21
-701.131685302933
31
6.000239539109
0
LINE
8
2
10
1960.814218754806
20
-700.81384807924
30
6.000239722124
11
1960.617528170063
21
-700.986341187239
31
6.000239635211
0
LINE
8
2
10
1960.986711736623
20
-700.617157383839
30
6.00023979836
11
1960.814218754806
21
-700.81384807924
31
6.000239722124
0
LINE
8
2
10
1961.132055712771
20
-700.399634533367
30
6.000239862614
11
1960.986711736623
21
-700.617157383839
31
6.00023979836
0
LINE
8
2
10
1961.247763807522
20
-700.165001404104
30
6.000239913789
11
1961.132055712771
21
-700.399634533367
31
6.000239862614
0
LINE
8
2
10
1961.331856223294
20
-699.917272633944
30
6.000239951007
11
1961.247763807522
21
-700.165001404104
31
6.000239913789
0
LINE
8
2
10
1961.382894115538
20
-699.660686930828
30
6.000239973632
11
1961.331856223294
21
-699.917272633944
31
6.000239951007
0
LINE
8
2
10
1961.382894115538
20
-699.660686930828
30
6.000239973632
11
1961.400004211767
21
-699.399634547276
31
6.000239981277
0
LINE
8
2
10
1961.400004211767
20
-699.399634547276
30
6.000239981277
11
1961.400001332249
21
-690.899634551458
31
6.000239984208
0
LINE
8
2
10
1961.400001332249
20
-690.899634551458
30
6.000239984208
11
1961.382890873973
21
-690.638582194512
31
6.000240111662
0
LINE
8
2
10
1961.382890873973
20
-690.638582194512
30
6.000240111662
11
1961.331852625879
21
-690.38199657076
31
6.000240491659
0
LINE
8
2
10
1961.331852625879
20
-690.38199657076
30
6.000240491659
11
1961.24775986654
21
-690.134267931363
31
6.000241117701
0
LINE
8
2
10
1961.24775986654
20
-690.134267931363
30
6.000241117701
11
1961.132051446385
21
-689.899634982023
31
6.000241979073
0
LINE
8
2
10
1961.132051446385
20
-689.899634982023
30
6.000241979073
11
1960.986707168562
21
-689.682112357558
31
6.000243061039
0
LINE
8
2
10
1960.986707168562
20
-689.682112357558
30
6.000243061039
11
1960.814213913963
21
-689.48542193038
31
6.000244345085
0
LINE
8
2
10
1960.814213913963
20
-689.48542193038
30
6.000244345085
11
1960.617523089996
21
-689.312929128231
31
6.00024580924
0
LINE
8
2
10
1960.617523089996
20
-689.312929128231
30
6.00024580924
11
1960.400000131194
21
-689.16758535078
31
6.000247428453
0
LINE
8
2
10
1960.400000131194
20
-689.16758535078
30
6.000247428453
11
1960.165366915691
21
-689.051877470357
31
6.00024917502
0
LINE
8
2
10
1960.165366915691
20
-689.051877470357
30
6.00024917502
11
1959.917638082856
21
-688.967785280874
31
6.000251019054
0
LINE
8
2
10
1959.917638082856
20
-688.967785280874
30
6.000251019054
11
1959.661052341702
21
-688.91674762301
31
6.000252929006
0
LINE
8
2
10
1959.661052341702
20
-688.91674762301
30
6.000252929006
11
1959.399999945399
21
-688.89963776524
31
6.000254872193
0
LINE
8
2
10
1959.399999945399
20
-688.89963776524
30
6.000254872193
11
1955.399999945552
21
-688.899644192804
31
6.000284646782
0
LINE
8
2
10
1955.399999945552
20
-688.899644192804
30
6.000284646782
11
1955.399983780807
21
-683.499587297727
31
6.000017245403
0
LINE
8
2
10
1955.399983780807
20
-683.499587297727
30
6.000017245403
11
1944.399960897359
21
-683.499631459692
31
6.000058189944
0
LINE
8
2
10
1944.399960897359
20
-683.499631459692
30
6.000058189944
11
1944.399960897359
21
-684.999645911564
31
6.000058192145
0
LINE
8
2
10
1944.399960897359
20
-684.999645911564
30
6.000058192145
11
1941.399989803391
21
-684.999645911564
31
6.000069351272
0
LINE
8
2
10
1941.399989803391
20
-684.999645911564
30
6.000069351272
11
1941.399989803396
21
-683.499643503725
31
6.000068094933
0
LINE
8
2
10
1941.399989803396
20
-683.499643503725
30
6.000068094933
11
1940.399983781344
21
-683.499647518463
31
6.000073075749
0
LINE
8
2
10
1940.399983781344
20
-683.499647518463
30
6.000073075749
11
1940.399966919721
21
-679.299683635856
31
6.000008314363
0
LINE
8
2
10
1940.399966919721
20
-679.299683635856
30
6.000008314363
11
1941.399989803409
21
-679.299679621006
31
6.000034352058
0
LINE
8
2
10
1941.399989803409
20
-679.299679621006
30
6.000034352058
11
1941.399989803394
21
-677.799641090929
31
6.000057278761
0
LINE
8
2
10
1941.399989803394
20
-677.799641090929
30
6.000057278761
11
1944.399960897359
21
-677.799641090929
31
6.00005819215
0
LINE
8
2
10
1944.399960897359
20
-677.799641090929
30
6.00005819215
11
1944.399960897374
21
-679.299667577018
31
6.000034444875
0
LINE
8
2
10
1944.399960897374
20
-679.299667577018
30
6.000034444875
11
1955.399966919146
21
-679.299623415121
31
6.000017251517
0
LINE
8
2
10
1955.399966919146
20
-679.299623415121
30
6.000017251517
11
1955.40001195956
21
-673.899643981455
31
6.000284651955
0
LINE
8
2
10
1959.400011959384
20
-673.899637553891
30
6.000254877366
11
1955.40001195956
21
-673.899643981455
31
6.000284651955
0
LINE
8
2
10
1959.66106437308
20
-673.882526857156
30
6.00025293419
11
1959.400011959384
21
-673.899637553891
31
6.000254877366
0
LINE
8
2
10
1959.66106437308
20
-673.882526857156
30
6.00025293419
11
1959.917650166111
21
-673.831488374681
31
6.000251024273
0
LINE
8
2
10
1959.917650166111
20
-673.831488374681
30
6.000251024273
11
1960.165379084419
21
-673.747395389052
31
6.000249180295
0
LINE
8
2
10
1960.165379084419
20
-673.747395389052
30
6.000249180295
11
1960.400012417529
21
-673.631686754567
31
6.000247433805
0
LINE
8
2
10
1960.400012417529
20
-673.631686754567
30
6.000247433805
11
1960.617535524059
21
-673.486342278044
31
6.000245814689
0
LINE
8
2
10
1960.617535524059
20
-673.486342278044
30
6.000245814689
11
1960.814226523347
21
-673.313848843773
31
6.000244350649
0
LINE
8
2
10
1960.814226523347
20
-673.313848843773
30
6.000244350649
11
1960.986719977862
21
-673.117157862239
31
6.000243066734
0
LINE
8
2
10
1960.986719977862
20
-673.117157862239
30
6.000243066734
11
1961.132064476774
21
-672.899634770668
31
6.000241984915
0
LINE
8
2
10
1961.132064476774
20
-672.899634770668
30
6.000241984915
11
1961.247773135407
21
-672.665001449466
31
6.000241123699
0
LINE
8
2
10
1961.247773135407
20
-672.665001449466
30
6.000241123699
11
1961.331866146534
21
-672.417272539811
31
6.000240497823
0
LINE
8
2
10
1961.331866146534
20
-672.417272539811
30
6.000240497823
11
1961.382904655419
21
-672.160686752032
31
6.000240117997
0
LINE
8
2
10
1961.382904655419
20
-672.160686752032
30
6.000240117997
11
1961.400015379023
21
-671.899634340096
31
6.000239990718
0
LINE
8
2
10
1961.400015379023
20
-671.899634340096
30
6.000239990718
11
1961.400009717666
21
-663.399634340109
31
6.000239993693
0
LINE
8
2
10
1961.400009717666
20
-663.399634340109
30
6.000239993693
11
1961.382899886766
21
-663.138581954063
31
6.000239985071
0
LINE
8
2
10
1961.331862255311
20
-662.881996243508
30
6.000239959172
11
1961.382899886766
21
-663.138581954063
31
6.000239985071
0
LINE
8
2
10
1961.247770091326
20
-662.63426746109
30
6.000239916441
11
1961.331862255311
21
-662.881996243508
31
6.000239959172
0
LINE
8
2
10
1961.132062235052
20
-662.39963431496
30
6.000239857606
11
1961.247770091326
21
-662.63426746109
31
6.000239916441
0
LINE
8
2
10
1960.986718479989
20
-662.182111443301
30
6.000239783676
11
1961.132062235052
21
-662.39963431496
31
6.000239857606
0
LINE
8
2
10
1960.814225698084
20
-661.985420722755
30
6.000239695915
11
1960.986718479989
21
-662.182111443301
31
6.000239783676
0
LINE
8
2
10
1960.61753528866
20
-661.812927586085
30
6.000239595826
11
1960.814225698084
21
-661.985420722755
31
6.000239695915
0
LINE
8
2
10
1960.400012679153
20
-661.667583438682
30
6.000239485119
11
1960.61753528866
21
-661.812927586085
31
6.000239595826
0
LINE
8
2
10
1960.165379741722
20
-661.551875159206
30
6.000239365691
11
1960.400012679153
21
-661.667583438682
31
6.000239485119
0
LINE
8
2
10
1959.917651110979
20
-661.467782548399
30
6.000239239584
11
1960.165379741722
21
-661.551875159206
31
6.000239365691
0
LINE
8
2
10
1959.661065492479
20
-661.416744454147
30
6.000239108955
11
1959.917651110979
21
-661.467782548399
31
6.000239239584
0
LINE
8
2
10
1959.661065492479
20
-661.416744454147
30
6.000239108955
11
1959.400013137292
21
-661.399634152393
31
6.000238976041
0
LINE
8
2
10
1959.400013137292
20
-661.399634152393
30
6.000238976041
11
1939.400009438938
21
-661.399632838376
31
6.000231847643
0
LINE
8
2
10
1939.400009438938
20
-661.399632838376
30
6.000231847643
11
1938.61685228284
21
-661.450963621341
31
6.000231448882
0
LINE
8
2
10
1938.61685228284
20
-661.450963621341
30
6.000231448882
11
1937.847095157261
21
-661.604077783892
31
6.000231056943
0
LINE
8
2
10
1937.847095157261
20
-661.604077783892
30
6.000231056943
11
1937.103908820034
21
-661.856355500256
31
6.000230678534
0
LINE
8
2
10
1937.103908820034
20
-661.856355500256
30
6.000230678534
11
1936.400009395442
21
-662.203480228762
31
6.000230320129
0
LINE
8
2
10
1936.400009395442
20
-662.203480228762
30
6.000230320129
11
1935.747440797796
21
-662.639512569065
31
6.000229987859
0
LINE
8
2
10
1935.747440797796
20
-662.639512569065
30
6.000229987859
11
1935.157368656728
21
-663.15699188693
31
6.000229687411
0
LINE
8
2
10
1935.157368656728
20
-663.15699188693
30
6.000229687411
11
1934.639889270171
21
-663.747063967757
31
6.000229423925
0
LINE
8
2
10
1934.639889270171
20
-663.747063967757
30
6.000229423925
11
1934.203856853902
21
-664.399632514643
31
6.00022920191
0
LINE
8
2
10
1934.203856853902
20
-664.399632514643
30
6.00022920191
11
1933.856732043452
21
-665.103531898826
31
6.000229025163
0
LINE
8
2
10
1933.856732043452
20
-665.103531898826
30
6.000229025163
11
1933.604454240572
21
-665.846718206684
31
6.00022889671
0
LINE
8
2
10
1933.604454240572
20
-665.846718206684
30
6.00022889671
11
1933.451339988412
21
-666.616475314439
31
6.000228818748
0
LINE
8
2
10
1933.451339988412
20
-666.616475314439
30
6.000228818748
11
1933.400009114278
21
-667.399632464561
31
6.000228792612
0
LINE
8
2
10
1933.400001499526
20
-775.399639248009
30
6.000228792539
11
1933.400009114278
21
-667.399632464561
31
6.000228792612
0
LINE
8
2
10
1933.400001499526
20
-775.399639248009
30
6.000228792539
11
1933.451332288907
21
-776.182796402612
31
6.000228826938
0
LINE
8
2
10
1933.451332288907
20
-776.182796402612
30
6.000228826938
11
1933.604446457764
21
-776.952553523733
31
6.000228929548
0
LINE
8
3
10
1993.400005195519
20
-701.131803729957
30
6.000592327538
11
1993.165372140485
21
-701.24751197523
31
6.000592223891
0
LINE
8
3
10
1993.165372140485
20
-701.24751197523
30
6.000592223891
11
1992.917643424272
21
-701.331604549925
31
6.000592114472
0
LINE
8
3
10
1988.400009145282
20
-763.499783000975
30
6.000408531322
11
1977.399946155568
21
-763.499785388523
31
6.000398062636
0
LINE
8
3
10
1977.399946155568
20
-763.499785388523
30
6.000398062636
11
1977.399946155555
21
-764.999786220327
31
6.000405780491
0
LINE
8
3
10
1977.399946155555
20
-764.999786220327
30
6.000405780491
11
1974.399975061327
21
-764.999786220327
31
6.000443710786
0
LINE
8
3
10
1974.399975061327
20
-764.999786220327
30
6.000443710786
11
1974.399975061367
21
-763.499786039532
31
6.000410647788
0
LINE
8
3
10
1974.399975061367
20
-763.499786039532
30
6.000410647788
11
1973.400290216388
21
-763.499786256643
31
6.000383732098
0
LINE
8
3
10
1973.400290216388
20
-763.499786256643
30
6.000383732098
11
1973.400289304777
21
-759.29978896798
31
6.000401946614
0
LINE
8
3
10
1973.400289304777
20
-759.29978896798
30
6.000401946614
11
1974.399975061325
21
-759.299788750969
31
6.000408227749
0
LINE
8
3
10
1974.399975061325
20
-759.299788750969
30
6.000408227749
11
1974.399975061321
21
-757.799786111498
31
6.000406270306
0
LINE
8
3
10
1974.399975061321
20
-757.799786111498
30
6.000406270306
11
1977.399946155555
21
-757.799786111498
31
6.000405780496
0
LINE
8
3
10
1977.399946155555
20
-757.799786111498
30
6.000405780496
11
1977.399946155555
21
-759.29978809986
31
6.000404740686
0
LINE
8
3
10
1977.399946155555
20
-759.29978809986
30
6.000404740686
11
1988.400008233678
21
-759.299785712311
31
6.000408525542
0
LINE
8
3
10
1974.399989586077
20
-684.999764338588
30
6.000422139701
11
1974.399989586083
21
-683.499761930749
31
6.000420883362
0
LINE
8
3
10
1974.399989586083
20
-683.499761930749
30
6.000420883362
11
1973.39998356403
21
-683.499765945487
31
6.000425864177
0
LINE
8
3
10
1973.39998356403
20
-683.499765945487
30
6.000425864177
11
1973.399966702407
21
-679.29980206288
31
6.000361102791
0
LINE
8
3
10
1973.399966702407
20
-679.29980206288
30
6.000361102791
11
1974.399989586095
21
-679.29979804803
31
6.000387140487
0
LINE
8
3
10
1974.399989586095
20
-679.29979804803
30
6.000387140487
11
1974.39998958608
21
-677.799759517952
31
6.00041006719
0
LINE
8
3
10
1974.39998958608
20
-677.799759517952
30
6.00041006719
11
1977.399960680046
21
-677.799759517953
31
6.000410980579
0
LINE
8
3
10
1977.399960680046
20
-677.799759517953
30
6.000410980579
11
1977.39996068006
21
-679.299786004042
31
6.000387233303
0
LINE
8
3
10
1977.39996068006
20
-679.299786004042
30
6.000387233303
11
1988.399966701832
21
-679.299741842145
31
6.000370039945
0
LINE
8
3
10
1988.399983563493
20
-683.499705724751
30
6.000370033831
11
1977.399960680046
21
-683.499749886716
31
6.000410978372
0
LINE
8
3
10
1977.399960680046
20
-683.499749886716
30
6.000410978372
11
1977.399960680046
21
-684.999764338588
31
6.000410980574
0
LINE
8
3
10
1977.399960680046
20
-684.999764338588
30
6.000410980574
11
1974.399989586077
21
-684.999764338588
31
6.000422139701
0
LINE
8
3
10
1966.400001282213
20
-775.399757675033
30
6.000581580967
11
1966.400008896964
21
-667.399750891585
31
6.00058158104
0
LINE
8
3
10
1966.400001282213
20
-775.399757675033
30
6.000581580967
11
1966.451332071593
21
-776.182914829636
31
6.000581615366
0
LINE
8
3
10
1966.451332071593
20
-776.182914829636
30
6.000581615366
11
1966.60444624045
21
-776.952671950757
31
6.000581717977
0
LINE
8
3
10
1966.60444624045
20
-776.952671950757
30
6.000581717977
11
1966.856723962903
21
-777.695858280636
31
6.000581887043
0
LINE
8
3
10
1966.856723962903
20
-777.695858280636
30
6.000581887043
11
1967.203848697176
21
-778.39975769512
31
6.000582119671
0
LINE
8
3
10
1967.203848697176
20
-778.39975769512
30
6.000582119671
11
1967.639881042825
21
-779.052326280069
31
6.000582411882
0
LINE
8
3
10
1967.639881042825
20
-779.052326280069
30
6.000582411882
11
1968.157360365523
21
-779.642398406067
31
6.000582758675
0
LINE
8
3
10
1968.157360365523
20
-779.642398406067
30
6.000582758675
11
1968.74743245059
21
-780.15987777544
31
6.000583154118
0
LINE
8
3
10
1968.74743245059
20
-780.15987777544
30
6.000583154118
11
1969.400001001048
21
-780.595910172707
31
6.000583591442
0
LINE
8
3
10
1969.400001001048
20
-780.595910172707
30
6.000583591442
11
1970.103900388075
21
-780.943034962657
31
6.000584063167
0
LINE
8
3
10
1970.103900388075
20
-780.943034962657
30
6.000584063167
11
1970.847086697999
21
-781.195312743896
31
6.00058456122
0
LINE
8
3
10
1970.847086697999
20
-781.195312743896
30
6.00058456122
11
1971.616843807009
21
-781.34842697364
31
6.000585077081
0
LINE
8
3
10
1971.616843807009
20
-781.34842697364
30
6.000585077081
11
1972.400000957552
21
-781.399757824967
31
6.000585601921
0
LINE
8
3
10
1992.400004655871
20
-781.399757898313
30
6.000594984158
11
1972.400000957552
21
-781.399757824967
31
6.000585601921
0
LINE
8
3
10
1992.661057212055
20
-781.382647622429
30
6.000595159099
11
1992.400004655871
21
-781.399757898313
31
6.000594984158
0
LINE
8
3
10
1992.917643430101
20
-781.331609553606
30
6.000595331036
11
1992.661057212055
21
-781.382647622429
31
6.000595159099
0
LINE
8
3
10
1993.16537304868
20
-781.247516967352
30
6.000595497025
11
1992.917643430101
21
-781.331609553606
31
6.000595331036
0
LINE
8
3
10
1993.400007345335
20
-781.131808711133
30
6.000595654229
11
1993.16537304868
21
-781.247516967352
31
6.000595497025
0
LINE
8
3
10
1993.617531662195
20
-780.986464585293
30
6.000595799956
11
1993.400007345335
21
-781.131808711133
31
6.000595654229
0
LINE
8
3
10
1993.81422409789
20
-780.813971468122
30
6.000595931713
11
1993.617531662195
21
-780.986464585293
31
6.000595799956
0
LINE
8
3
10
1993.986719190314
20
-780.617280764679
30
6.000596047245
11
1993.81422409789
21
-780.813971468122
31
6.000595931713
0
LINE
8
3
10
1994.13206550061
20
-780.399757907433
30
6.000596144577
11
1993.986719190314
21
-780.617280764679
31
6.000596047245
0
LINE
8
3
10
1994.247776113109
20
-780.16512477278
30
6.000596222042
11
1994.13206550061
21
-780.399757907433
31
6.000596144577
0
LINE
8
3
10
1994.331871187153
20
-779.917395998706
30
6.000596278315
11
1994.247776113109
21
-780.16512477278
31
6.000596222042
0
LINE
8
3
10
1994.382911832708
20
-779.66081029322
30
6.000596312434
11
1994.331871187153
21
-779.917395998706
31
6.000596278315
0
LINE
8
3
10
1994.382911832708
20
-779.66081029322
30
6.000596312434
11
1994.400024730178
21
-779.399757908881
31
6.000596323814
0
LINE
8
3
10
1994.400024730178
20
-779.399757908881
30
6.000596323814
11
1994.400152186361
21
-770.899757908805
31
6.000596320855
0
LINE
8
3
10
1994.400152186361
20
-770.899757908805
30
6.000596320855
11
1994.383044529325
21
-770.638705621462
31
6.000596547819
0
LINE
8
3
10
1994.332009034536
20
-770.382120205333
30
6.000597224951
11
1994.383044529325
21
-770.638705621462
31
6.000596547819
0
LINE
8
3
10
1994.247918933462
20
-770.134391908027
30
6.000598340665
11
1994.332009034536
21
-770.382120205333
31
6.000597224951
0
LINE
8
3
10
1994.132213031044
20
-769.899759429393
30
6.000599875872
11
1994.247918933462
21
-770.134391908027
31
6.000598340665
0
LINE
8
3
10
1993.986871087354
20
-769.682237396194
30
6.000601804302
11
1994.132213031044
21
-769.899759429393
31
6.000599875872
0
LINE
8
3
10
1993.814379943344
20
-769.485547670725
30
6.000604092961
11
1993.986871087354
21
-769.682237396194
31
6.000601804302
0
LINE
8
3
10
1993.617690970311
20
-769.313055668724
30
6.000606702689
11
1993.814379943344
21
-769.485547670725
31
6.000604092961
0
LINE
8
3
10
1993.400169571117
20
-769.167712776166
30
6.000609588832
11
1993.617690970311
21
-769.313055668724
31
6.000606702689
0
LINE
8
3
10
1993.165537597212
20
-769.052005850242
30
6.000612702008
11
1993.400169571117
21
-769.167712776166
31
6.000609588832
0
LINE
8
3
10
1992.917809666719
20
-768.967914668533
30
6.00061598895
11
1993.165537597212
21
-769.052005850242
31
6.000612702008
0
LINE
8
3
10
1992.661224473213
20
-768.916878054473
30
6.000619393416
11
1992.917809666719
21
-768.967914668533
31
6.00061598895
0
LINE
8
3
10
1992.661224473213
20
-768.916878054473
30
6.000619393416
11
1992.400172260494
21
-768.899769258678
31
6.000622857156
0
LINE
8
3
10
1992.400172260494
20
-768.899769258678
30
6.000622857156
11
1988.400172261249
21
-768.899791958461
31
6.000675930708
0
LINE
8
3
10
1988.400172261249
20
-768.899791958461
30
6.000675930708
11
1988.400009145282
21
-763.499783000975
31
6.000408531322
0
LINE
8
3
10
1988.400008233678
20
-759.299785712311
30
6.000408525542
11
1988.400005268603
21
-753.899791532511
31
6.000675925357
0
LINE
8
3
10
1992.400005267967
20
-753.899768832728
30
6.000622851806
11
1988.400005268603
21
-753.899791532511
31
6.000675925357
0
LINE
8
3
10
1992.661057652994
20
-753.882657074017
30
6.000619388056
11
1992.400005267967
21
-753.899768832728
31
6.000622851806
0
LINE
8
3
10
1992.661057652994
20
-753.882657074017
30
6.000619388056
11
1992.917643360505
21
-753.831617547737
31
6.00061598356
0
LINE
8
3
10
1992.917643360505
20
-753.831617547737
30
6.00061598356
11
1993.165372137907
21
-753.747523554333
31
6.00061269657
0
LINE
8
3
10
1993.165372137907
20
-753.747523554333
30
6.00061269657
11
1993.400005277133
21
-753.631813965347
31
6.000609583326
0
LINE
8
3
10
1993.400005277133
20
-753.631813965347
30
6.000609583326
11
1993.617528140121
21
-753.486468603928
31
6.000606697099
0
LINE
8
3
10
1993.617528140121
20
-753.486468603928
30
6.000606697099
11
1993.814218850376
21
-753.313974369506
31
6.000604087271
0
LINE
8
3
10
1993.814218850376
20
-753.313974369506
30
6.000604087271
11
1993.986711975311
21
-753.117282686258
31
6.000601798498
0
LINE
8
3
10
1993.986711975311
20
-753.117282686258
30
6.000601798498
11
1994.132056109735
21
-752.899759003417
31
6.000599869941
0
LINE
8
3
10
1994.132056109735
20
-752.899759003417
30
6.000599869941
11
1994.247764375211
21
-752.665125211506
31
6.000598334598
0
LINE
8
3
10
1994.247764375211
20
-752.665125211506
30
6.000598334598
11
1994.331856971236
21
-752.417395959755
31
6.00059721874
0
LINE
8
3
10
1994.331856971236
20
-752.417395959755
30
6.00059721874
11
1994.382895050179
21
-752.160809964348
31
6.000596541459
0
LINE
8
3
10
1994.382895050179
20
-752.160809964348
30
6.000596541459
11
1994.400005336356
21
-751.899757482804
31
6.000596314343
0
LINE
8
3
10
1994.400005336356
20
-751.899757482804
30
6.000596314343
11
1994.400005312944
21
-743.399757482837
31
6.000596311424
0
LINE
8
3
10
1994.400005312944
20
-743.399757482837
30
6.000596311424
11
1994.382895044617
21
-743.138705098679
31
6.000596298807
0
LINE
8
3
10
1994.382895044617
20
-743.138705098679
30
6.000596298807
11
1994.33185698322
21
-742.882119393756
31
6.000596261352
0
LINE
8
3
10
1994.33185698322
20
-742.882119393756
30
6.000596261352
11
1994.247764404134
21
-742.634390620618
31
6.000596199701
0
LINE
8
3
10
1994.247764404134
20
-742.634390620618
30
6.000596199701
11
1994.132056154703
21
-742.399757487257
31
6.000596114907
0
LINE
8
3
10
1994.132056154703
20
-742.399757487257
30
6.000596114907
11
1993.986712035153
21
-742.182234631637
31
6.000596008422
0
LINE
8
3
10
1993.986712035153
20
-742.182234631637
30
6.000596008422
11
1993.814218923668
21
-741.985543930126
31
6.000595882068
0
LINE
8
3
10
1993.814218923668
20
-741.985543930126
30
6.000595882068
11
1993.61752822521
21
-741.813050815161
31
6.000595738006
0
LINE
8
3
10
1993.61752822521
20
-741.813050815161
30
6.000595738006
11
1993.400005372162
21
-741.667706691763
31
6.000595578701
0
LINE
8
3
10
1993.400005372162
20
-741.667706691763
30
6.000595578701
11
1993.165372240848
21
-741.55199843818
31
6.00059540688
0
LINE
8
3
10
1993.165372240848
20
-741.55199843818
30
6.00059540688
11
1992.917643469198
21
-741.467905854711
31
6.000595225482
0
LINE
8
3
10
1992.917643469198
20
-741.467905854711
30
6.000595225482
11
1992.661057765178
21
-741.416867788774
31
6.000595037611
0
LINE
8
3
10
1992.661057765178
20
-741.416867788774
30
6.000595037611
11
1992.400005381323
21
-741.399757515827
31
6.000594846481
0
LINE
8
3
10
1992.400005381323
20
-741.399757515827
30
6.000594846481
11
1982.400004880409
21
-741.399757878722
31
6.000587525203
0
LINE
8
3
10
1982.400004880409
20
-741.399757878722
30
6.000587525203
11
1982.400004880409
21
-701.399751728396
31
6.000587470163
0
LINE
8
3
10
1982.400004880409
20
-701.399751728396
30
6.000587470163
11
1992.400005381324
21
-701.399752870475
31
6.000591885874
0
LINE
8
3
10
1992.400005381324
20
-701.399752870475
30
6.000591885874
11
1992.661057753899
21
-701.382642606775
31
6.000592001154
0
LINE
8
3
10
1992.917643424272
20
-701.331604549925
30
6.000592114472
11
1992.661057753899
21
-701.382642606775
31
6.000592001154
0
LINE
8
3
10
1993.617527952749
20
-700.986459614262
30
6.00059242364
11
1993.400005195519
21
-701.131803729957
31
6.000592327538
0
LINE
8
3
10
1993.814218537492
20
-700.813966506264
30
6.000592510552
11
1993.617527952749
21
-700.986459614262
31
6.00059242364
0
LINE
8
3
10
1993.986711519309
20
-700.617275810863
30
6.000592586788
11
1993.814218537492
21
-700.813966506264
31
6.000592510552
0
LINE
8
3
10
1994.132055495458
20
-700.399752960391
30
6.000592651043
11
1993.986711519309
21
-700.617275810863
31
6.000592586788
0
LINE
8
3
10
1994.247763590209
20
-700.165119831127
30
6.000592702217
11
1994.132055495458
21
-700.399752960391
31
6.000592651043
0
LINE
8
3
10
1994.33185600598
20
-699.917391060967
30
6.000592739435
11
1994.247763590209
21
-700.165119831127
31
6.000592702217
0
LINE
8
3
10
1994.382893898224
20
-699.660805357852
30
6.000592762061
11
1994.33185600598
21
-699.917391060967
31
6.000592739435
0
LINE
8
3
10
1994.382893898224
20
-699.660805357852
30
6.000592762061
11
1994.400003994454
21
-699.3997529743
31
6.000592769706
0
LINE
8
3
10
1994.400003994454
20
-699.3997529743
30
6.000592769706
11
1994.400001114935
21
-690.899752978482
31
6.000592772637
0
LINE
8
3
10
1994.400001114935
20
-690.899752978482
30
6.000592772637
11
1994.38289065666
21
-690.638700621536
31
6.00059290009
0
LINE
8
3
10
1994.38289065666
20
-690.638700621536
30
6.00059290009
11
1994.331852408566
21
-690.382114997784
31
6.000593280088
0
LINE
8
3
10
1994.331852408566
20
-690.382114997784
30
6.000593280088
11
1994.247759649227
21
-690.134386358387
31
6.000593906129
0
LINE
8
3
10
1994.247759649227
20
-690.134386358387
30
6.000593906129
11
1994.132051229072
21
-689.899753409047
31
6.000594767502
0
LINE
8
3
10
1994.132051229072
20
-689.899753409047
30
6.000594767502
11
1993.986706951249
21
-689.682230784582
31
6.000595849467
0
LINE
8
3
10
1993.986706951249
20
-689.682230784582
30
6.000595849467
11
1993.814213696649
21
-689.485540357404
31
6.000597133513
0
LINE
8
3
10
1993.814213696649
20
-689.485540357404
30
6.000597133513
11
1993.617522872682
21
-689.313047555255
31
6.000598597669
0
LINE
8
3
10
1993.617522872682
20
-689.313047555255
30
6.000598597669
11
1993.399999913881
21
-689.167703777804
31
6.000600216882
0
LINE
8
3
10
1993.399999913881
20
-689.167703777804
30
6.000600216882
11
1993.165366698377
21
-689.05199589738
31
6.000601963448
0
LINE
8
3
10
1993.165366698377
20
-689.05199589738
30
6.000601963448
11
1992.917637865542
21
-688.967903707898
31
6.000603807483
0
LINE
8
3
10
1992.917637865542
20
-688.967903707898
30
6.000603807483
11
1992.661052124388
21
-688.916866050034
31
6.000605717434
0
LINE
8
3
10
1992.661052124388
20
-688.916866050034
30
6.000605717434
11
1992.399999728086
21
-688.899756192264
31
6.000607660622
0
LINE
8
3
10
1992.399999728086
20
-688.899756192264
30
6.000607660622
11
1988.399999728238
21
-688.899762619828
31
6.00063743521
0
LINE
8
3
10
1988.399999728238
20
-688.899762619828
30
6.00063743521
11
1988.399983563493
21
-683.499705724751
31
6.000370033831
0
LINE
8
3
10
1988.399966701832
20
-679.299741842145
30
6.000370039945
11
1988.400011742247
21
-673.899762408479
31
6.000637440383
0
LINE
8
3
10
1992.40001174207
20
-673.899755980915
30
6.000607665795
11
1988.400011742247
21
-673.899762408479
31
6.000637440383
0
LINE
8
3
10
1992.661064155766
20
-673.88264528418
30
6.000605722619
11
1992.40001174207
21
-673.899755980915
31
6.000607665795
0
LINE
8
3
10
1992.661064155766
20
-673.88264528418
30
6.000605722619
11
1992.917649948797
21
-673.831606801705
31
6.000603812702
0
LINE
8
3
10
1992.917649948797
20
-673.831606801705
30
6.000603812702
11
1993.165378867106
21
-673.747513816076
31
6.000601968723
0
LINE
8
3
10
1993.165378867106
20
-673.747513816076
30
6.000601968723
11
1993.400012200216
21
-673.631805181591
31
6.000600222234
0
LINE
8
3
10
1993.400012200216
20
-673.631805181591
30
6.000600222234
11
1993.617535306746
21
-673.486460705068
31
6.000598603118
0
LINE
8
3
10
1993.617535306746
20
-673.486460705068
30
6.000598603118
11
1993.814226306034
21
-673.313967270797
31
6.000597139077
0
LINE
8
3
10
1993.814226306034
20
-673.313967270797
30
6.000597139077
11
1993.986719760549
21
-673.117276289262
31
6.000595855163
0
LINE
8
3
10
1993.986719760549
20
-673.117276289262
30
6.000595855163
11
1994.13206425946
21
-672.899753197691
31
6.000594773343
0
LINE
8
3
10
1994.13206425946
20
-672.899753197691
30
6.000594773343
11
1994.247772918093
21
-672.665119876489
31
6.000593912127
0
LINE
8
3
10
1994.247772918093
20
-672.665119876489
30
6.000593912127
11
1994.331865929221
21
-672.417390966835
31
6.000593286252
0
LINE
8
3
10
1994.331865929221
20
-672.417390966835
30
6.000593286252
11
1994.382904438105
21
-672.160805179056
31
6.000592906425
0
LINE
8
3
10
1994.382904438105
20
-672.160805179056
30
6.000592906425
11
1994.40001516171
21
-671.899752767119
31
6.000592779147
0
LINE
8
3
10
1994.40001516171
20
-671.899752767119
30
6.000592779147
11
1994.400009500352
21
-663.399752767133
31
6.000592782121
0
LINE
8
3
10
1994.400009500352
20
-663.399752767133
30
6.000592782121
11
1994.382899669452
21
-663.138700381087
31
6.0005927735
0
LINE
8
3
10
1994.331862037997
20
-662.882114670532
30
6.000592747601
11
1994.382899669452
21
-663.138700381087
31
6.0005927735
0
LINE
8
3
10
1994.247769874013
20
-662.634385888114
30
6.000592704869
11
1994.331862037997
21
-662.882114670532
31
6.000592747601
0
LINE
8
3
10
1994.132062017738
20
-662.399752741984
30
6.000592646035
11
1994.247769874013
21
-662.634385888114
31
6.000592704869
0
LINE
8
3
10
1993.986718262675
20
-662.182229870325
30
6.000592572105
11
1994.132062017738
21
-662.399752741984
31
6.000592646035
0
LINE
8
3
10
1993.814225480771
20
-661.985539149779
30
6.000592484344
11
1993.986718262675
21
-662.182229870325
31
6.000592572105
0
LINE
8
3
10
1993.617535071346
20
-661.813046013109
30
6.000592384254
11
1993.814225480771
21
-661.985539149779
31
6.000592484344
0
LINE
8
3
10
1993.400012461839
20
-661.667701865706
30
6.000592273548
11
1993.617535071346
21
-661.813046013109
31
6.000592384254
0
LINE
8
3
10
1993.165379524408
20
-661.55199358623
30
6.000592154119
11
1993.400012461839
21
-661.667701865706
31
6.000592273548
0
LINE
8
3
10
1992.917650893665
20
-661.467900975423
30
6.000592028012
11
1993.165379524408
21
-661.55199358623
31
6.000592154119
0
LINE
8
3
10
1992.661065275165
20
-661.416862881171
30
6.000591897384
11
1992.917650893665
21
-661.467900975423
31
6.000592028012
0
LINE
8
3
10
1992.661065275165
20
-661.416862881171
30
6.000591897384
11
1992.400012919979
21
-661.399752579417
31
6.000591764469
0
LINE
8
3
10
1992.400012919979
20
-661.399752579417
30
6.000591764469
11
1972.400009221625
21
-661.3997512654
31
6.000584636071
0
LINE
8
3
10
1972.400009221625
20
-661.3997512654
30
6.000584636071
11
1971.616852065527
21
-661.451082048364
31
6.00058423731
0
LINE
8
3
10
1971.616852065527
20
-661.451082048364
30
6.00058423731
11
1970.847094939947
21
-661.604196210915
31
6.000583845372
0
LINE
8
3
10
1970.847094939947
20
-661.604196210915
30
6.000583845372
11
1970.103908602721
21
-661.85647392728
31
6.000583466963
0
LINE
8
3
10
1970.103908602721
20
-661.85647392728
30
6.000583466963
11
1969.400009178128
21
-662.203598655786
31
6.000583108557
0
LINE
8
3
10
1969.400009178128
20
-662.203598655786
30
6.000583108557
11
1968.747440580482
21
-662.639630996089
31
6.000582776288
0
LINE
8
3
10
1968.747440580482
20
-662.639630996089
30
6.000582776288
11
1968.157368439415
21
-663.157110313954
31
6.00058247584
0
LINE
8
3
10
1968.157368439415
20
-663.157110313954
30
6.00058247584
11
1967.639889052858
21
-663.747182394781
31
6.000582212354
0
LINE
8
3
10
1967.639889052858
20
-663.747182394781
30
6.000582212354
11
1967.203856636588
21
-664.399750941667
31
6.000581990338
0
LINE
8
3
10
1967.203856636588
20
-664.399750941667
30
6.000581990338
11
1966.856731826139
21
-665.10365032585
31
6.000581813592
0
LINE
8
3
10
1966.856731826139
20
-665.10365032585
30
6.000581813592
11
1966.604454023258
21
-665.846836633708
31
6.000581685139
0
LINE
8
3
10
1966.604454023258
20
-665.846836633708
30
6.000581685139
11
1966.451339771098
21
-666.616593741463
31
6.000581607177
0
LINE
8
3
10
1966.451339771098
20
-666.616593741463
30
6.000581607177
11
1966.400008896964
21
-667.399750891585
31
6.00058158104
0
LINE
8
4
10
2026.165372023534
20
-741.552116865204
30
6.000948195308
11
2025.917643251884
21
-741.468024281735
31
6.00094801391
0
LINE
8
4
10
2025.917643251884
20
-741.468024281735
30
6.00094801391
11
2025.661057547864
21
-741.416986215797
31
6.000947826039
0
LINE
8
4
10
2015.400004663095
20
-741.399876305746
30
6.000940313632
11
2015.400004663094
21
-701.39987015542
31
6.000940258592
0
LINE
8
4
10
2015.400004663094
20
-701.39987015542
30
6.000940258592
11
2025.400005164009
21
-701.399871297499
31
6.000944674303
0
LINE
8
4
10
2025.917643206958
20
-701.331722976949
30
6.000944902901
11
2025.661057536585
21
-701.382761033798
31
6.000944789582
0
LINE
8
4
10
2026.617527735435
20
-700.986578041286
30
6.000945212068
11
2026.400004978204
21
-701.131922156981
31
6.000945115966
0
LINE
8
4
10
2026.814218320178
20
-700.814084933288
30
6.000945298981
11
2026.617527735435
21
-700.986578041286
31
6.000945212068
0
LINE
8
4
10
2026.986711301995
20
-700.617394237887
30
6.000945375217
11
2026.814218320178
21
-700.814084933288
31
6.000945298981
0
LINE
8
4
10
2027.132055278143
20
-700.399871387414
30
6.000945439471
11
2026.986711301995
21
-700.617394237887
31
6.000945375217
0
LINE
8
4
10
2027.247763372894
20
-700.165238258151
30
6.000945490646
11
2027.132055278143
21
-700.399871387414
31
6.000945439471
0
LINE
8
4
10
2027.38289368091
20
-699.660923784876
30
6.000945550489
11
2027.400003777139
21
-699.399871401324
31
6.000945558134
0
LINE
8
4
10
2027.40000089762
20
-690.899871405506
30
6.000945561065
11
2027.382890439345
21
-690.63881904856
31
6.000945688519
0
LINE
8
4
10
2027.382890439345
20
-690.63881904856
30
6.000945688519
11
2027.331852191251
21
-690.382233424808
31
6.000946068516
0
LINE
8
4
10
2027.331852191251
20
-690.382233424808
30
6.000946068516
11
2027.247759431912
21
-690.13450478541
31
6.000946694558
0
LINE
8
4
10
2027.247759431912
20
-690.13450478541
30
6.000946694558
11
2027.132051011757
21
-689.899871836071
31
6.00094755593
0
LINE
8
4
10
2027.132051011757
20
-689.899871836071
30
6.00094755593
11
2026.986706733934
21
-689.682349211606
31
6.000948637896
0
LINE
8
4
10
2026.986706733934
20
-689.682349211606
30
6.000948637896
11
2026.814213479335
21
-689.485658784428
31
6.000949921942
0
LINE
8
4
10
2026.814213479335
20
-689.485658784428
30
6.000949921942
11
2026.617522655368
21
-689.313165982279
31
6.000951386097
0
LINE
8
4
10
2026.617522655368
20
-689.313165982279
30
6.000951386097
11
2026.399999696566
21
-689.167822204828
31
6.00095300531
0
LINE
8
4
10
2026.165366481063
20
-689.052114324404
30
6.000954751877
11
2025.917637648227
21
-688.968022134922
31
6.000956595912
0
LINE
8
4
10
2025.917637648227
20
-688.968022134922
30
6.000956595912
11
2025.661051907074
21
-688.916984477058
31
6.000958505863
0
LINE
8
4
10
2025.399999510771
20
-688.899874619288
30
6.00096044905
11
2021.399999510924
21
-688.899881046852
31
6.000990223639
0
LINE
8
4
10
2021.399999510924
20
-688.899881046852
30
6.000990223639
11
2021.399983346179
21
-683.499824151775
31
6.00072282226
0
LINE
8
4
10
2021.399966484518
20
-679.299860269168
30
6.000722828374
11
2021.400011524932
21
-673.899880835502
31
6.000990228812
0
LINE
8
4
10
2025.400011524756
20
-673.899874407939
30
6.000960454223
11
2021.400011524932
21
-673.899880835502
31
6.000990228812
0
LINE
8
4
10
2025.661063938452
20
-673.882763711203
30
6.000958511047
11
2025.917649731482
21
-673.831725228729
31
6.00095660113
0
LINE
8
4
10
2025.917649731482
20
-673.831725228729
30
6.00095660113
11
2026.165378649791
21
-673.747632243099
31
6.000954757152
0
LINE
8
4
10
2026.165378649791
20
-673.747632243099
30
6.000954757152
11
2026.400011982901
21
-673.631923608615
31
6.000953010662
0
LINE
8
4
10
2026.400011982901
20
-673.631923608615
30
6.000953010662
11
2026.617535089431
21
-673.486579132092
31
6.000951391546
0
LINE
8
4
10
2026.617535089431
20
-673.486579132092
30
6.000951391546
11
2026.814226088719
21
-673.314085697821
31
6.000949927506
0
LINE
8
4
10
2026.814226088719
20
-673.314085697821
30
6.000949927506
11
2026.986719543234
21
-673.117394716286
31
6.000948643591
0
LINE
8
4
10
2026.986719543234
20
-673.117394716286
30
6.000948643591
11
2027.132064042145
21
-672.899871624715
31
6.000947561772
0
LINE
8
4
10
2027.132064042145
20
-672.899871624715
30
6.000947561772
11
2027.247772700779
21
-672.665238303513
31
6.000946700556
0
LINE
8
4
10
2027.247772700779
20
-672.665238303513
30
6.000946700556
11
2027.331865711906
21
-672.417509393859
31
6.00094607468
0
LINE
8
4
10
2027.331865711906
20
-672.417509393859
30
6.00094607468
11
2027.382904220791
21
-672.160923606079
31
6.000945694854
0
LINE
8
4
10
2027.400014944395
20
-671.899871194143
30
6.000945567575
11
2027.400009283038
21
-663.399871194157
31
6.00094557055
0
LINE
8
4
10
2027.400009283038
20
-663.399871194157
30
6.00094557055
11
2027.382899452138
21
-663.138818808111
31
6.000945561928
0
LINE
8
4
10
2027.247769656698
20
-662.634504315138
30
6.000945493298
11
2027.331861820683
21
-662.882233097556
31
6.000945536029
0
LINE
8
4
10
2026.986718045361
20
-662.182348297348
30
6.000945360533
11
2027.132061800424
21
-662.399871169008
31
6.000945434463
0
LINE
8
4
10
2026.617534854031
20
-661.813164440133
30
6.000945172683
11
2026.814225263456
21
-661.985657576803
31
6.000945272773
0
LINE
8
4
10
2026.400012244525
20
-661.66782029273
30
6.000945061976
11
2026.617534854031
21
-661.813164440133
31
6.000945172683
0
LINE
8
4
10
2026.165379307094
20
-661.552112013254
30
6.000944942548
11
2026.400012244525
21
-661.66782029273
31
6.000945061976
0
LINE
8
4
10
2025.917650676351
20
-661.468019402447
30
6.000944816441
11
2026.165379307094
21
-661.552112013254
31
6.000944942548
0
LINE
8
4
10
2025.66106505785
20
-661.416981308195
30
6.000944685812
11
2025.917650676351
21
-661.468019402447
31
6.000944816441
0
LINE
8
4
10
2025.66106505785
20
-661.416981308195
30
6.000944685812
11
2025.400012702665
21
-661.399871006441
31
6.000944552898
0
LINE
8
4
10
2025.400012702665
20
-661.399871006441
30
6.000944552898
11
2005.40000900431
21
-661.399869692424
31
6.0009374245
0
LINE
8
4
10
2005.40000900431
20
-661.399869692424
30
6.0009374245
11
2004.616851848212
21
-661.451200475388
31
6.000937025739
0
LINE
8
4
10
2003.847094722633
20
-661.604314637939
30
6.000936633801
11
2003.103908385406
21
-661.856592354304
31
6.000936255391
0
LINE
8
4
10
2002.400008960814
20
-662.20371708281
30
6.000935896986
11
2001.747440363168
21
-662.639749423112
31
6.000935564716
0
LINE
8
4
10
2001.747440363168
20
-662.639749423112
30
6.000935564716
11
2001.1573682221
21
-663.157228740978
31
6.000935264268
0
LINE
8
4
10
2001.1573682221
20
-663.157228740978
30
6.000935264268
11
2000.639888835543
21
-663.747300821804
31
6.000935000782
0
LINE
8
4
10
2000.639888835543
20
-663.747300821804
30
6.000935000782
11
2000.203856419274
21
-664.399869368691
31
6.000934778767
0
LINE
8
4
10
2000.203856419274
20
-664.399869368691
30
6.000934778767
11
1999.856731608824
21
-665.103768752874
31
6.00093460202
0
LINE
8
4
10
1999.604453805944
20
-665.846955060731
30
6.000934473567
11
1999.451339553784
21
-666.616712168487
31
6.000934395605
0
LINE
8
4
10
1999.451339553784
20
-666.616712168487
30
6.000934395605
11
1999.40000867965
21
-667.399869318609
31
6.000934369469
0
LINE
8
4
10
2026.400004978204
20
-701.131922156981
30
6.000945115966
11
2026.165371923171
21
-701.247630402254
31
6.000945012319
0
LINE
8
4
10
2026.165371923171
20
-701.247630402254
30
6.000945012319
11
2025.917643206958
21
-701.331722976949
31
6.000944902901
0
LINE
8
4
10
2027.382904220791
20
-672.160923606079
30
6.000945694854
11
2027.400014944395
21
-671.899871194143
31
6.000945567575
0
LINE
8
4
10
2025.661063938452
20
-673.882763711203
30
6.000958511047
11
2025.400011524756
21
-673.899874407939
31
6.000960454223
0
LINE
8
4
10
2025.661051907074
20
-688.916984477058
30
6.000958505863
11
2025.399999510771
21
-688.899874619288
31
6.00096044905
0
LINE
8
4
10
2027.247918716147
20
-770.134510335051
30
6.000951129094
11
2027.332008817222
21
-770.382238632357
31
6.000950013379
0
LINE
8
4
10
2004.616851848212
20
-661.451200475388
30
6.000937025739
11
2003.847094722633
21
-661.604314637939
31
6.000936633801
0
LINE
8
4
10
1999.856731608824
20
-665.103768752874
30
6.00093460202
11
1999.604453805944
21
-665.846955060731
31
6.000934473567
0
LINE
8
4
10
2025.661057547864
20
-741.416986215797
30
6.000947826039
11
2025.400005164009
21
-741.399875942851
31
6.00094763491
0
LINE
8
4
10
2026.814218633061
20
-753.31409279653
30
6.0009568757
11
2026.986711757996
21
-753.117401113282
31
6.000954586926
0
LINE
8
4
10
2027.13205589242
20
-752.899877430441
30
6.00095265837
11
2027.247764157896
21
-752.66524363853
31
6.000951123027
0
LINE
8
4
10
2003.103908385406
20
-661.856592354304
30
6.000936255391
11
2002.400008960814
21
-662.20371708281
31
6.000935896986
0
LINE
8
4
10
2025.400005164009
20
-701.399871297499
30
6.000944674303
11
2025.661057536585
21
-701.382761033798
31
6.000944789582
0
LINE
8
4
10
2027.40000509563
20
-743.39987590986
30
6.000949099852
11
2027.382894827303
21
-743.138823525703
31
6.000949087236
0
LINE
8
4
10
2025.400005164009
20
-741.399875942851
30
6.00094763491
11
2015.400004663095
21
-741.399876305746
31
6.000940313632
0
LINE
8
4
10
2027.132061800424
20
-662.399871169008
30
6.000945434463
11
2027.247769656698
21
-662.634504315138
31
6.000945493298
0
LINE
8
4
10
2026.814225263456
20
-661.985657576803
30
6.000945272773
11
2026.986718045361
21
-662.182348297348
31
6.000945360533
0
LINE
8
4
10
2003.10390017076
20
-780.943153389681
30
6.000936851596
11
2003.847086480685
21
-781.19543117092
31
6.000937349649
0
LINE
8
4
10
2002.400000783734
20
-780.596028599731
30
6.000936379871
11
2003.10390017076
21
-780.943153389681
31
6.000936851596
0
LINE
8
4
10
2027.400024512863
20
-779.399876335905
30
6.000949112242
11
2027.400151969047
21
-770.899876335828
31
6.000949109283
0
LINE
8
4
10
2027.400003777139
20
-699.399871401324
30
6.000945558134
11
2027.40000089762
21
-690.899871405506
31
6.000945561065
0
LINE
8
4
10
2027.38289368091
20
-699.660923784876
30
6.000945550489
11
2027.331855788666
21
-699.917509487992
31
6.000945527864
0
LINE
8
4
10
2027.331855788666
20
-699.917509487992
30
6.000945527864
11
2027.247763372894
21
-700.165238258151
31
6.000945490646
0
LINE
8
4
10
2026.399999696566
20
-689.167822204828
30
6.00095300531
11
2026.165366481063
21
-689.052114324404
31
6.000954751877
0
LINE
8
4
10
2026.165372831366
20
-781.247635394376
30
6.000948285454
11
2025.917643212787
21
-781.33172798063
31
6.000948119464
0
LINE
8
4
10
2027.132065283295
20
-780.399876334456
30
6.000948933005
11
2026.986718973
21
-780.617399191702
31
6.000948835674
0
LINE
8
4
10
2027.382911615394
20
-779.660928720244
30
6.000949100862
11
2027.331870969839
21
-779.91751442573
31
6.000949066744
0
LINE
8
4
10
2026.814223880576
20
-780.814089895146
30
6.000948720141
11
2026.61753144488
21
-780.986583012317
31
6.000948588384
0
LINE
8
4
10
2026.986718973
20
-780.617399191702
30
6.000948835674
11
2026.814223880576
21
-780.814089895146
31
6.000948720141
0
LINE
8
4
10
2027.331861820683
20
-662.882233097556
30
6.000945536029
11
2027.382899452138
21
-663.138818808111
31
6.000945561928
0
LINE
8
4
10
2027.382894827303
20
-743.138823525703
30
6.000949087236
11
2027.331856765906
21
-742.88223782078
31
6.000949049781
0
LINE
8
4
10
2026.986711817839
20
-742.182353058661
30
6.00094879685
11
2026.814218706354
21
-741.98566235715
31
6.000948670496
0
LINE
8
4
10
2027.24776418682
20
-742.634509047642
30
6.00094898813
11
2027.132055937388
21
-742.39987591428
31
6.000948903336
0
LINE
8
4
10
2021.400008927967
20
-763.499901427999
30
6.00076131975
11
2010.399945938253
21
-763.499903815547
31
6.000750851065
0
LINE
8
4
10
2010.399945938253
20
-763.499903815547
30
6.000750851065
11
2010.399945938241
21
-764.999904647351
31
6.00075856892
0
LINE
8
4
10
2010.399945938241
20
-764.999904647351
30
6.00075856892
11
2007.399974844012
21
-764.999904647351
31
6.000796499215
0
LINE
8
4
10
2007.399974844012
20
-764.999904647351
30
6.000796499215
11
2007.399974844053
21
-763.499904466556
31
6.000763436216
0
LINE
8
4
10
2007.399974844053
20
-763.499904466556
30
6.000763436216
11
2006.400289999074
21
-763.499904683667
31
6.000736520527
0
LINE
8
4
10
2006.400289999074
20
-763.499904683667
30
6.000736520527
11
2006.400289087462
21
-759.299907395003
31
6.000754735042
0
LINE
8
4
10
2006.400289087462
20
-759.299907395003
30
6.000754735042
11
2007.39997484401
21
-759.299907177993
31
6.000761016178
0
LINE
8
4
10
2007.39997484401
20
-759.299907177993
30
6.000761016178
11
2007.399974844006
21
-757.799904538522
31
6.000759058735
0
LINE
8
4
10
2007.399974844006
20
-757.799904538522
30
6.000759058735
11
2010.399945938241
21
-757.799904538522
31
6.000758568925
0
LINE
8
4
10
2010.399945938241
20
-757.799904538522
30
6.000758568925
11
2010.399945938241
21
-759.299906526883
31
6.000757529115
0
LINE
8
4
10
2010.399945938241
20
-759.299906526883
30
6.000757529115
11
2021.400008016364
21
-759.299904139335
31
6.000761313971
0
LINE
8
4
10
2007.399989368763
20
-684.999882765612
30
6.000774928129
11
2007.399989368768
21
-683.499880357773
31
6.00077367179
0
LINE
8
4
10
2007.399989368768
20
-683.499880357773
30
6.00077367179
11
2006.399983346716
21
-683.499884372511
31
6.000778652606
0
LINE
8
4
10
2006.399983346716
20
-683.499884372511
30
6.000778652606
11
2006.399966485093
21
-679.299920489904
31
6.00071389122
0
LINE
8
4
10
2006.399966485093
20
-679.299920489904
30
6.00071389122
11
2007.399989368781
21
-679.299916475054
31
6.000739928915
0
LINE
8
4
10
2007.399989368781
20
-679.299916475054
30
6.000739928915
11
2007.399989368766
21
-677.799877944976
31
6.000762855618
0
LINE
8
4
10
2007.399989368766
20
-677.799877944976
30
6.000762855618
11
2010.399960462731
21
-677.799877944976
31
6.000763769007
0
LINE
8
4
10
2010.399960462731
20
-677.799877944976
30
6.000763769007
11
2010.399960462746
21
-679.299904431065
31
6.000740021732
0
LINE
8
4
10
2010.399960462746
20
-679.299904431065
30
6.000740021732
11
2021.399966484518
21
-679.299860269168
31
6.000722828374
0
LINE
8
4
10
2021.399983346179
20
-683.499824151775
30
6.00072282226
11
2010.399960462731
21
-683.49986831374
31
6.000763766801
0
LINE
8
4
10
2010.399960462731
20
-683.49986831374
30
6.000763766801
11
2010.399960462731
21
-684.999882765612
31
6.000763769002
0
LINE
8
4
10
2010.399960462731
20
-684.999882765612
30
6.000763769002
11
2007.399989368763
21
-684.999882765612
31
6.000774928129
0
LINE
8
4
10
1999.400001064898
20
-775.399876102057
30
6.000934369396
11
1999.40000867965
21
-667.399869318609
31
6.000934369469
0
LINE
8
4
10
1999.400001064898
20
-775.399876102057
30
6.000934369396
11
1999.451331854279
21
-776.18303325666
31
6.000934403795
0
LINE
8
4
10
1999.451331854279
20
-776.18303325666
30
6.000934403795
11
1999.604446023136
21
-776.952790377781
31
6.000934506405
0
LINE
8
4
10
1999.604446023136
20
-776.952790377781
30
6.000934506405
11
1999.856723745588
21
-777.69597670766
31
6.000934675471
0
LINE
8
4
10
1999.856723745588
20
-777.69597670766
30
6.000934675471
11
2000.203848479861
21
-778.399876122144
31
6.0009349081
0
LINE
8
4
10
2000.203848479861
20
-778.399876122144
30
6.0009349081
11
2000.63988082551
21
-779.052444707092
31
6.000935200311
0
LINE
8
4
10
2000.63988082551
20
-779.052444707092
30
6.000935200311
11
2001.157360148209
21
-779.642516833091
31
6.000935547104
0
LINE
8
4
10
2001.157360148209
20
-779.642516833091
30
6.000935547104
11
2001.747432233275
21
-780.159996202464
31
6.000935942546
0
LINE
8
4
10
2001.747432233275
20
-780.159996202464
30
6.000935942546
11
2002.400000783734
21
-780.596028599731
31
6.000936379871
0
LINE
8
4
10
2003.847086480685
20
-781.19543117092
30
6.000937349649
11
2004.616843589694
21
-781.348545400663
31
6.000937865509
0
LINE
8
4
10
2004.616843589694
20
-781.348545400663
30
6.000937865509
11
2005.400000740237
21
-781.399876251991
31
6.000938390349
0
LINE
8
4
10
2025.400004438557
20
-781.399876325337
30
6.000947772586
11
2005.400000740237
21
-781.399876251991
31
6.000938390349
0
LINE
8
4
10
2025.661056994741
20
-781.382766049453
30
6.000947947528
11
2025.400004438557
21
-781.399876325337
31
6.000947772586
0
LINE
8
4
10
2025.917643212787
20
-781.33172798063
30
6.000948119464
11
2025.661056994741
21
-781.382766049453
31
6.000947947528
0
LINE
8
4
10
2026.40000712802
20
-781.131927138157
30
6.000948442657
11
2026.165372831366
21
-781.247635394376
31
6.000948285454
0
LINE
8
4
10
2026.61753144488
20
-780.986583012317
30
6.000948588384
11
2026.40000712802
21
-781.131927138157
31
6.000948442657
0
LINE
8
4
10
2027.247775895795
20
-780.165243199803
30
6.000949010471
11
2027.132065283295
21
-780.399876334456
31
6.000948933005
0
LINE
8
4
10
2027.331870969839
20
-779.91751442573
30
6.000949066744
11
2027.247775895795
21
-780.165243199803
31
6.000949010471
0
LINE
8
4
10
2027.382911615394
20
-779.660928720244
30
6.000949100862
11
2027.400024512863
21
-779.399876335905
31
6.000949112242
0
LINE
8
4
10
2027.400151969047
20
-770.899876335828
30
6.000949109283
11
2027.383044312011
21
-770.638824048486
31
6.000949336247
0
LINE
8
4
10
2027.332008817222
20
-770.382238632357
30
6.000950013379
11
2027.383044312011
21
-770.638824048486
31
6.000949336247
0
LINE
8
4
10
2027.13221281373
20
-769.899877856417
30
6.0009526643
11
2027.247918716147
21
-770.134510335051
31
6.000951129094
0
LINE
8
4
10
2026.986870870039
20
-769.682355823217
30
6.000954592731
11
2027.13221281373
21
-769.899877856417
31
6.0009526643
0
LINE
8
4
10
2026.814379726029
20
-769.485666097749
30
6.00095688139
11
2026.986870870039
21
-769.682355823217
31
6.000954592731
0
LINE
8
4
10
2026.617690752997
20
-769.313174095747
30
6.000959491118
11
2026.814379726029
21
-769.485666097749
31
6.00095688139
0
LINE
8
4
10
2026.400169353803
20
-769.16783120319
30
6.00096237726
11
2026.617690752997
21
-769.313174095747
31
6.000959491118
0
LINE
8
4
10
2026.165537379897
20
-769.052124277266
30
6.000965490437
11
2026.400169353803
21
-769.16783120319
31
6.00096237726
0
LINE
8
4
10
2025.917809449404
20
-768.968033095557
30
6.000968777378
11
2026.165537379897
21
-769.052124277266
31
6.000965490437
0
LINE
8
4
10
2025.661224255898
20
-768.916996481497
30
6.000972181845
11
2025.917809449404
21
-768.968033095557
31
6.000968777378
0
LINE
8
4
10
2025.661224255898
20
-768.916996481497
30
6.000972181845
11
2025.400172043179
21
-768.899887685702
31
6.000975645585
0
LINE
8
4
10
2025.400172043179
20
-768.899887685702
30
6.000975645585
11
2021.400172043934
21
-768.899910385485
31
6.001028719136
0
LINE
8
4
10
2021.400172043934
20
-768.899910385485
30
6.001028719136
11
2021.400008927967
21
-763.499901427999
31
6.00076131975
0
LINE
8
4
10
2021.400008016364
20
-759.299904139335
30
6.000761313971
11
2021.400005051288
21
-753.899909959535
31
6.001028713786
0
LINE
8
4
10
2025.400005050653
20
-753.899887259752
30
6.000975640235
11
2021.400005051288
21
-753.899909959535
31
6.001028713786
0
LINE
8
4
10
2025.661057435679
20
-753.882775501041
30
6.000972176485
11
2025.400005050653
21
-753.899887259752
31
6.000975640235
0
LINE
8
4
10
2025.661057435679
20
-753.882775501041
30
6.000972176485
11
2025.91764314319
21
-753.831735974761
31
6.000968771988
0
LINE
8
4
10
2025.91764314319
20
-753.831735974761
30
6.000968771988
11
2026.165371920592
21
-753.747641981357
31
6.000965484998
0
LINE
8
4
10
2026.165371920592
20
-753.747641981357
30
6.000965484998
11
2026.400005059819
21
-753.631932392371
31
6.000962371755
0
LINE
8
4
10
2026.400005059819
20
-753.631932392371
30
6.000962371755
11
2026.617527922807
21
-753.486587030952
31
6.000959485527
0
LINE
8
4
10
2026.617527922807
20
-753.486587030952
30
6.000959485527
11
2026.814218633061
21
-753.31409279653
31
6.0009568757
0
LINE
8
4
10
2026.986711757996
20
-753.117401113282
30
6.000954586926
11
2027.13205589242
21
-752.899877430441
31
6.00095265837
0
LINE
8
4
10
2027.247764157896
20
-752.66524363853
30
6.000951123027
11
2027.331856753922
21
-752.417514386779
31
6.000950007168
0
LINE
8
4
10
2027.331856753922
20
-752.417514386779
30
6.000950007168
11
2027.382894832864
21
-752.160928391372
31
6.000949329888
0
LINE
8
4
10
2027.382894832864
20
-752.160928391372
30
6.000949329888
11
2027.400005119042
21
-751.899875909828
31
6.000949102772
0
LINE
8
4
10
2027.400005119042
20
-751.899875909828
30
6.000949102772
11
2027.40000509563
21
-743.39987590986
31
6.000949099852
0
LINE
8
4
10
2027.331856765906
20
-742.88223782078
30
6.000949049781
11
2027.24776418682
21
-742.634509047642
31
6.00094898813
0
LINE
8
4
10
2027.132055937388
20
-742.39987591428
30
6.000948903336
11
2026.986711817839
21
-742.182353058661
31
6.00094879685
0
LINE
8
4
10
2026.814218706354
20
-741.98566235715
30
6.000948670496
11
2026.617528007896
21
-741.813169242185
31
6.000948526434
0
LINE
8
4
10
2026.617528007896
20
-741.813169242185
30
6.000948526434
11
2026.400005154848
21
-741.667825118787
31
6.000948367129
0
LINE
8
4
10
2026.400005154848
20
-741.667825118787
30
6.000948367129
11
2026.165372023534
21
-741.552116865204
31
6.000948195308
0
LINE
8
5
10
2059.400012027211
20
-661.667938719754
30
6.001297850405
11
2059.617534636718
21
-661.813282867156
31
6.001297961111
0
LINE
8
5
10
2058.917642995473
20
-781.331846407654
30
6.001300907893
11
2058.661056777427
21
-781.382884476477
31
6.001300735956
0
LINE
8
5
10
2043.399960245418
20
-683.499986740764
30
6.00111655523
11
2043.399960245418
21
-685.000001192636
31
6.001116557431
0
LINE
8
5
10
2043.399960245418
20
-685.000001192636
30
6.001116557431
11
2040.399989151449
21
-685.000001192636
31
6.001127716558
0
LINE
8
5
10
2059.400004760891
20
-701.132040584004
30
6.001297904395
11
2059.165371705857
21
-701.247748829278
31
6.001297800748
0
LINE
8
5
10
2059.165371705857
20
-701.247748829278
30
6.001297800748
11
2058.917642989644
21
-701.331841403973
31
6.001297691329
0
LINE
8
5
10
2059.617690535683
20
-769.313292522771
30
6.001312279546
11
2059.814379508715
21
-769.485784524773
31
6.001309669818
0
LINE
8
5
10
2032.400000847584
20
-775.39999452908
30
6.001287157824
11
2032.400008462336
21
-667.399987745633
31
6.001287157897
0
LINE
8
5
10
2032.451331636965
20
-776.183151683683
30
6.001287192223
11
2032.604445805822
21
-776.952908804805
31
6.001287294834
0
LINE
8
5
10
2033.639880608197
20
-779.052563134116
30
6.001287988739
11
2034.157359930895
21
-779.642635260115
31
6.001288335533
0
LINE
8
5
10
2036.847086263371
20
-781.195549597943
30
6.001290138078
11
2037.616843372381
21
-781.348663827687
31
6.001290653938
0
LINE
8
5
10
2037.616843372381
20
-781.348663827687
30
6.001290653938
11
2038.400000522924
21
-781.399994679015
31
6.001291178778
0
LINE
8
5
10
2058.400004221243
20
-781.399994752361
30
6.001300561015
11
2038.400000522924
21
-781.399994679015
31
6.001291178778
0
LINE
8
5
10
2058.661056777427
20
-781.382884476477
30
6.001300735956
11
2058.400004221243
21
-781.399994752361
31
6.001300561015
0
LINE
8
5
10
2059.165372614052
20
-781.2477538214
30
6.001301073882
11
2058.917642995473
21
-781.331846407654
31
6.001300907893
0
LINE
8
5
10
2059.400006910706
20
-781.132045565181
30
6.001301231086
11
2059.165372614052
21
-781.2477538214
31
6.001301073882
0
LINE
8
5
10
2059.617531227567
20
-780.986701439341
30
6.001301376813
11
2059.400006910706
21
-781.132045565181
31
6.001301231086
0
LINE
8
5
10
2059.814223663263
20
-780.814208322169
30
6.00130150857
11
2059.617531227567
21
-780.986701439341
31
6.001301376813
0
LINE
8
5
10
2059.986718755686
20
-780.617517618726
30
6.001301624102
11
2059.814223663263
21
-780.814208322169
31
6.00130150857
0
LINE
8
5
10
2060.132065065982
20
-780.39999476148
30
6.001301721434
11
2059.986718755686
21
-780.617517618726
31
6.001301624102
0
LINE
8
5
10
2060.247775678481
20
-780.165361626827
30
6.001301798899
11
2060.132065065982
21
-780.39999476148
31
6.001301721434
0
LINE
8
5
10
2060.331870752525
20
-779.917632852754
30
6.001301855172
11
2060.247775678481
21
-780.165361626827
31
6.001301798899
0
LINE
8
5
10
2060.38291139808
20
-779.661047147268
30
6.001301889291
11
2060.331870752525
21
-779.917632852754
31
6.001301855172
0
LINE
8
5
10
2060.38291139808
20
-779.661047147268
30
6.001301889291
11
2060.40002429555
21
-779.399994762929
31
6.001301900671
0
LINE
8
5
10
2060.40002429555
20
-779.399994762929
30
6.001301900671
11
2060.400151751733
21
-770.899994762852
31
6.001301897712
0
LINE
8
5
10
2060.400151751733
20
-770.899994762852
30
6.001301897712
11
2060.383044094697
21
-770.63894247551
31
6.001302124676
0
LINE
8
5
10
2060.332008599908
20
-770.382357059381
30
6.001302801808
11
2060.383044094697
21
-770.63894247551
31
6.001302124676
0
LINE
8
5
10
2060.247918498834
20
-770.134628762074
30
6.001303917522
11
2060.332008599908
21
-770.382357059381
31
6.001302801808
0
LINE
8
5
10
2060.132212596416
20
-769.899996283441
30
6.001305452729
11
2060.247918498834
21
-770.134628762074
31
6.001303917522
0
LINE
8
5
10
2059.986870652726
20
-769.682474250241
30
6.001307381159
11
2060.132212596416
21
-769.899996283441
31
6.001305452729
0
LINE
8
5
10
2059.814379508715
20
-769.485784524773
30
6.001309669818
11
2059.986870652726
21
-769.682474250241
31
6.001307381159
0
LINE
8
5
10
2059.40016913649
20
-769.167949630214
30
6.001315165689
11
2059.617690535683
21
-769.313292522771
31
6.001312279546
0
LINE
8
5
10
2059.165537162583
20
-769.05224270429
30
6.001318278865
11
2059.40016913649
21
-769.167949630214
31
6.001315165689
0
LINE
8
5
10
2058.917809232091
20
-768.968151522581
30
6.001321565807
11
2059.165537162583
21
-769.05224270429
31
6.001318278865
0
LINE
8
5
10
2058.661224038585
20
-768.917114908521
30
6.001324970273
11
2058.917809232091
21
-768.968151522581
31
6.001321565807
0
LINE
8
5
10
2058.661224038585
20
-768.917114908521
30
6.001324970273
11
2058.400171825866
21
-768.900006112726
31
6.001328434013
0
LINE
8
5
10
2058.400171825866
20
-768.900006112726
30
6.001328434013
11
2054.40017182662
21
-768.900028812509
31
6.001381507565
0
LINE
8
5
10
2054.40017182662
20
-768.900028812509
30
6.001381507565
11
2054.400008710653
21
-763.500019855023
31
6.001114108179
0
LINE
8
5
10
2054.400008710653
20
-763.500019855023
30
6.001114108179
11
2043.39994572094
21
-763.500022242571
31
6.001103639493
0
LINE
8
5
10
2043.39994572094
20
-763.500022242571
30
6.001103639493
11
2043.399945720927
21
-765.000023074375
31
6.001111357348
0
LINE
8
5
10
2043.399945720927
20
-765.000023074375
30
6.001111357348
11
2040.399974626699
21
-765.000023074375
31
6.001149287643
0
LINE
8
5
10
2040.399974626699
20
-765.000023074375
30
6.001149287643
11
2040.399974626739
21
-763.500022893579
31
6.001116224645
0
LINE
8
5
10
2040.399974626739
20
-763.500022893579
30
6.001116224645
11
2039.40028978176
21
-763.500023110691
31
6.001089308955
0
LINE
8
5
10
2039.40028978176
20
-763.500023110691
30
6.001089308955
11
2039.400288870148
21
-759.300025822027
31
6.001107523471
0
LINE
8
5
10
2039.400288870148
20
-759.300025822027
30
6.001107523471
11
2040.399974626697
21
-759.300025605016
31
6.001113804606
0
LINE
8
5
10
2040.399974626697
20
-759.300025605016
30
6.001113804606
11
2040.399974626693
21
-757.800022965545
31
6.001111847163
0
LINE
8
5
10
2040.399974626693
20
-757.800022965545
30
6.001111847163
11
2043.399945720927
21
-757.800022965545
31
6.001111357353
0
LINE
8
5
10
2043.399945720927
20
-757.800022965545
30
6.001111357353
11
2043.399945720927
21
-759.300024953907
31
6.001110317543
0
LINE
8
5
10
2043.399945720927
20
-759.300024953907
30
6.001110317543
11
2054.40000779905
21
-759.300022566359
31
6.001114102399
0
LINE
8
5
10
2054.40000779905
20
-759.300022566359
30
6.001114102399
11
2054.400004833974
21
-753.900028386558
31
6.001381502214
0
LINE
8
5
10
2058.400004833339
20
-753.900005686776
30
6.001328428663
11
2054.400004833974
21
-753.900028386558
31
6.001381502214
0
LINE
8
5
10
2058.661057218366
20
-753.882893928065
30
6.001324964913
11
2058.400004833339
21
-753.900005686776
31
6.001328428663
0
LINE
8
5
10
2058.661057218366
20
-753.882893928065
30
6.001324964913
11
2058.917642925877
21
-753.831854401785
31
6.001321560417
0
LINE
8
5
10
2058.917642925877
20
-753.831854401785
30
6.001321560417
11
2059.165371703279
21
-753.74776040838
31
6.001318273427
0
LINE
8
5
10
2059.165371703279
20
-753.74776040838
30
6.001318273427
11
2059.400004842505
21
-753.632050819395
31
6.001315160183
0
LINE
8
5
10
2059.400004842505
20
-753.632050819395
30
6.001315160183
11
2059.617527705493
21
-753.486705457975
31
6.001312273956
0
LINE
8
5
10
2059.617527705493
20
-753.486705457975
30
6.001312273956
11
2059.814218415748
21
-753.314211223554
31
6.001309664128
0
LINE
8
5
10
2059.814218415748
20
-753.314211223554
30
6.001309664128
11
2059.986711540682
21
-753.117519540306
31
6.001307375355
0
LINE
8
5
10
2059.986711540682
20
-753.117519540306
30
6.001307375355
11
2060.132055675107
21
-752.899995857465
31
6.001305446798
0
LINE
8
5
10
2060.132055675107
20
-752.899995857465
30
6.001305446798
11
2060.247763940583
21
-752.665362065553
31
6.001303911456
0
LINE
8
5
10
2060.247763940583
20
-752.665362065553
30
6.001303911456
11
2060.331856536608
21
-752.417632813803
31
6.001302795597
0
LINE
8
5
10
2060.331856536608
20
-752.417632813803
30
6.001302795597
11
2060.382894615551
21
-752.161046818396
31
6.001302118316
0
LINE
8
5
10
2060.382894615551
20
-752.161046818396
30
6.001302118316
11
2060.400004901728
21
-751.899994336852
31
6.0013018912
0
LINE
8
5
10
2060.400004901728
20
-751.899994336852
30
6.0013018912
11
2060.400004878316
21
-743.399994336884
31
6.001301888281
0
LINE
8
5
10
2060.400004878316
20
-743.399994336884
30
6.001301888281
11
2060.382894609989
21
-743.138941952727
31
6.001301875664
0
LINE
8
5
10
2060.382894609989
20
-743.138941952727
30
6.001301875664
11
2060.331856548592
21
-742.882356247804
31
6.001301838209
0
LINE
8
5
10
2060.331856548592
20
-742.882356247804
30
6.001301838209
11
2060.247763969507
21
-742.634627474666
31
6.001301776558
0
LINE
8
5
10
2060.247763969507
20
-742.634627474666
30
6.001301776558
11
2060.132055720075
21
-742.399994341304
31
6.001301691764
0
LINE
8
5
10
2060.132055720075
20
-742.399994341304
30
6.001301691764
11
2059.986711600525
21
-742.182471485684
31
6.001301585279
0
LINE
8
5
10
2059.986711600525
20
-742.182471485684
30
6.001301585279
11
2059.81421848904
21
-741.985780784174
31
6.001301458925
0
LINE
8
5
10
2059.81421848904
20
-741.985780784174
30
6.001301458925
11
2059.617527790582
21
-741.813287669209
31
6.001301314863
0
LINE
8
5
10
2059.617527790582
20
-741.813287669209
30
6.001301314863
11
2059.400004937534
21
-741.667943545811
31
6.001301155558
0
LINE
8
5
10
2059.400004937534
20
-741.667943545811
30
6.001301155558
11
2059.16537180622
21
-741.552235292227
31
6.001300983737
0
LINE
8
5
10
2059.16537180622
20
-741.552235292227
30
6.001300983737
11
2058.91764303457
21
-741.468142708758
31
6.001300802339
0
LINE
8
5
10
2058.91764303457
20
-741.468142708758
30
6.001300802339
11
2058.66105733055
21
-741.417104642821
31
6.001300614468
0
LINE
8
5
10
2058.66105733055
20
-741.417104642821
30
6.001300614468
11
2058.400004946695
21
-741.399994369875
31
6.001300423338
0
LINE
8
5
10
2058.400004946695
20
-741.399994369875
30
6.001300423338
11
2048.400004445781
21
-741.39999473277
31
6.00129310206
0
LINE
8
5
10
2048.400004445781
20
-741.39999473277
30
6.00129310206
11
2048.400004445781
21
-701.399988582444
31
6.00129304702
0
LINE
8
5
10
2048.400004445781
20
-701.399988582444
30
6.00129304702
11
2058.400004946695
21
-701.399989724523
31
6.001297462731
0
LINE
8
5
10
2058.400004946695
20
-701.399989724523
30
6.001297462731
11
2058.661057319271
21
-701.382879460822
31
6.001297578011
0
LINE
8
5
10
2058.917642989644
20
-701.331841403973
30
6.001297691329
11
2058.661057319271
21
-701.382879460822
31
6.001297578011
0
LINE
8
5
10
2059.617527518121
20
-700.98669646831
30
6.001298000497
11
2059.400004760891
21
-701.132040584004
31
6.001297904395
0
LINE
8
5
10
2059.814218102864
20
-700.814203360312
30
6.001298087409
11
2059.617527518121
21
-700.98669646831
31
6.001298000497
0
LINE
8
5
10
2059.986711084681
20
-700.61751266491
30
6.001298163645
11
2059.814218102864
21
-700.814203360312
31
6.001298087409
0
LINE
8
5
10
2060.132055060829
20
-700.399989814438
30
6.0012982279
11
2059.986711084681
21
-700.61751266491
31
6.001298163645
0
LINE
8
5
10
2060.247763155581
20
-700.165356685175
30
6.001298279074
11
2060.132055060829
21
-700.399989814438
31
6.0012982279
0
LINE
8
5
10
2060.331855571352
20
-699.917627915015
30
6.001298316292
11
2060.247763155581
21
-700.165356685175
31
6.001298279074
0
LINE
8
5
10
2060.382893463596
20
-699.6610422119
30
6.001298338918
11
2060.331855571352
21
-699.917627915015
31
6.001298316292
0
LINE
8
5
10
2060.382893463596
20
-699.6610422119
30
6.001298338918
11
2060.400003559826
21
-699.399989828348
31
6.001298346563
0
LINE
8
5
10
2060.400003559826
20
-699.399989828348
30
6.001298346563
11
2060.400000680307
21
-690.89998983253
31
6.001298349494
0
LINE
8
5
10
2060.400000680307
20
-690.89998983253
30
6.001298349494
11
2060.382890222032
21
-690.638937475584
31
6.001298476947
0
LINE
8
5
10
2060.382890222032
20
-690.638937475584
30
6.001298476947
11
2060.331851973937
21
-690.382351851832
31
6.001298856945
0
LINE
8
5
10
2060.331851973937
20
-690.382351851832
30
6.001298856945
11
2060.247759214599
21
-690.134623212434
31
6.001299482986
0
LINE
8
5
10
2060.247759214599
20
-690.134623212434
30
6.001299482986
11
2060.132050794443
21
-689.899990263095
31
6.001300344359
0
LINE
8
5
10
2059.98670651662
20
-689.68246763863
30
6.001301426324
11
2059.814213262021
21
-689.485777211452
31
6.00130271037
0
LINE
8
5
10
2059.814213262021
20
-689.485777211452
30
6.00130271037
11
2059.617522438054
21
-689.313284409303
31
6.001304174526
0
LINE
8
5
10
2059.617522438054
20
-689.313284409303
30
6.001304174526
11
2059.399999479253
21
-689.167940631852
31
6.001305793739
0
LINE
8
5
10
2059.399999479253
20
-689.167940631852
30
6.001305793739
11
2059.165366263749
21
-689.052232751428
31
6.001307540305
0
LINE
8
5
10
2059.165366263749
20
-689.052232751428
30
6.001307540305
11
2058.917637430914
21
-688.968140561946
31
6.00130938434
0
LINE
8
5
10
2058.917637430914
20
-688.968140561946
30
6.00130938434
11
2058.66105168976
21
-688.917102904081
31
6.001311294291
0
LINE
8
5
10
2058.399999293458
20
-688.899993046312
30
6.001313237479
11
2054.39999929361
21
-688.899999473875
31
6.001343012067
0
LINE
8
5
10
2054.399983128865
20
-683.499942578799
30
6.001075610689
11
2043.399960245418
21
-683.499986740764
31
6.00111655523
0
LINE
8
5
10
2040.399989151449
20
-685.000001192636
30
6.001127716558
11
2040.399989151455
21
-683.499998784797
31
6.001126460219
0
LINE
8
5
10
2040.399989151455
20
-683.499998784797
30
6.001126460219
11
2039.399983129402
21
-683.500002799534
31
6.001131441034
0
LINE
8
5
10
2039.399983129402
20
-683.500002799534
30
6.001131441034
11
2039.399966267779
21
-679.300038916928
31
6.001066679648
0
LINE
8
5
10
2039.399966267779
20
-679.300038916928
30
6.001066679648
11
2040.399989151467
21
-679.300034902078
31
6.001092717344
0
LINE
8
5
10
2040.399989151467
20
-679.300034902078
30
6.001092717344
11
2040.399989151452
21
-677.799996372
31
6.001115644047
0
LINE
8
5
10
2040.399989151452
20
-677.799996372
30
6.001115644047
11
2043.399960245418
21
-677.799996372
31
6.001116557436
0
LINE
8
5
10
2043.399960245418
20
-677.799996372
30
6.001116557436
11
2043.399960245432
21
-679.300022858089
31
6.00109281016
0
LINE
8
5
10
2043.399960245432
20
-679.300022858089
30
6.00109281016
11
2054.399966267204
21
-679.299978696192
31
6.001075616802
0
LINE
8
5
10
2054.399966267204
20
-679.299978696192
30
6.001075616802
11
2054.400011307619
21
-673.899999262526
31
6.00134301724
0
LINE
8
5
10
2058.400011307442
20
-673.899992834963
30
6.001313242652
11
2054.400011307619
21
-673.899999262526
31
6.00134301724
0
LINE
8
5
10
2058.661063721138
20
-673.882882138227
30
6.001311299476
11
2058.400011307442
21
-673.899992834963
31
6.001313242652
0
LINE
8
5
10
2058.661063721138
20
-673.882882138227
30
6.001311299476
11
2058.917649514169
21
-673.831843655752
31
6.001309389559
0
LINE
8
5
10
2058.917649514169
20
-673.831843655752
30
6.001309389559
11
2059.165378432478
21
-673.747750670123
31
6.00130754558
0
LINE
8
5
10
2059.165378432478
20
-673.747750670123
30
6.00130754558
11
2059.400011765587
21
-673.632042035639
31
6.001305799091
0
LINE
8
5
10
2059.400011765587
20
-673.632042035639
30
6.001305799091
11
2059.617534872118
21
-673.486697559116
31
6.001304179975
0
LINE
8
5
10
2059.617534872118
20
-673.486697559116
30
6.001304179975
11
2059.814225871406
21
-673.314204124845
31
6.001302715934
0
LINE
8
5
10
2059.814225871406
20
-673.314204124845
30
6.001302715934
11
2059.986719325921
21
-673.11751314331
31
6.00130143202
0
LINE
8
5
10
2059.986719325921
20
-673.11751314331
30
6.00130143202
11
2060.132063824832
21
-672.899990051739
31
6.0013003502
0
LINE
8
5
10
2060.132063824832
20
-672.899990051739
30
6.0013003502
11
2060.247772483465
21
-672.665356730537
31
6.001299488985
0
LINE
8
5
10
2060.247772483465
20
-672.665356730537
30
6.001299488985
11
2060.331865494593
21
-672.417627820883
31
6.001298863109
0
LINE
8
5
10
2060.331865494593
20
-672.417627820883
30
6.001298863109
11
2060.382904003477
21
-672.161042033103
31
6.001298483282
0
LINE
8
5
10
2060.382904003477
20
-672.161042033103
30
6.001298483282
11
2060.400014727082
21
-671.899989621167
31
6.001298356004
0
LINE
8
5
10
2060.400014727082
20
-671.899989621167
30
6.001298356004
11
2060.400009065724
21
-663.399989621181
31
6.001298358978
0
LINE
8
5
10
2060.400009065724
20
-663.399989621181
30
6.001298358978
11
2060.382899234824
21
-663.138937235135
31
6.001298350357
0
LINE
8
5
10
2060.331861603369
20
-662.882351524579
30
6.001298324458
11
2060.382899234824
21
-663.138937235135
31
6.001298350357
0
LINE
8
5
10
2060.247769439385
20
-662.634622742162
30
6.001298281726
11
2060.331861603369
21
-662.882351524579
31
6.001298324458
0
LINE
8
5
10
2060.13206158311
20
-662.399989596032
30
6.001298222892
11
2060.247769439385
21
-662.634622742162
31
6.001298281726
0
LINE
8
5
10
2059.986717828047
20
-662.182466724372
30
6.001298148962
11
2060.13206158311
21
-662.399989596032
31
6.001298222892
0
LINE
8
5
10
2059.814225046143
20
-661.985776003827
30
6.001298061201
11
2059.986717828047
21
-662.182466724372
31
6.001298148962
0
LINE
8
5
10
2059.617534636718
20
-661.813282867156
30
6.001297961111
11
2059.814225046143
21
-661.985776003827
31
6.001298061201
0
LINE
8
5
10
2059.16537908978
20
-661.552230440278
30
6.001297730977
11
2059.400012027211
21
-661.667938719754
31
6.001297850405
0
LINE
8
5
10
2058.917650459037
20
-661.468137829471
30
6.001297604869
11
2059.16537908978
21
-661.552230440278
31
6.001297730977
0
LINE
8
5
10
2058.661064840537
20
-661.417099735218
30
6.001297474241
11
2058.917650459037
21
-661.468137829471
31
6.001297604869
0
LINE
8
5
10
2058.661064840537
20
-661.417099735218
30
6.001297474241
11
2058.400012485351
21
-661.399989433464
31
6.001297341326
0
LINE
8
5
10
2058.400012485351
20
-661.399989433464
30
6.001297341326
11
2038.400008786997
21
-661.399988119448
31
6.001290212928
0
LINE
8
5
10
2032.856723528275
20
-777.696095134684
30
6.0012874639
11
2033.203848262548
21
-778.399994549168
31
6.001287696528
0
LINE
8
5
10
2034.747432015962
20
-780.160114629488
30
6.001288730975
11
2035.40000056642
21
-780.596147026754
31
6.001289168299
0
LINE
8
5
10
2033.203848262548
20
-778.399994549168
30
6.001287696528
11
2033.639880608197
21
-779.052563134116
31
6.001287988739
0
LINE
8
5
10
2032.604445805822
20
-776.952908804805
30
6.001287294834
11
2032.856723528275
21
-777.696095134684
31
6.0012874639
0
LINE
8
5
10
2036.103899953447
20
-780.943271816705
30
6.001289640024
11
2036.847086263371
21
-781.195549597943
31
6.001290138078
0
LINE
8
5
10
2035.40000056642
20
-780.596147026754
30
6.001289168299
11
2036.103899953447
21
-780.943271816705
31
6.001289640024
0
LINE
8
5
10
2032.400000847584
20
-775.39999452908
30
6.001287157824
11
2032.451331636965
21
-776.183151683683
31
6.001287192223
0
LINE
8
5
10
2033.63988861823
20
-663.747419248828
30
6.001287789211
11
2033.20385620196
21
-664.399987795715
31
6.001287567195
0
LINE
8
5
10
2033.20385620196
20
-664.399987795715
30
6.001287567195
11
2032.856731391511
21
-665.103887179897
31
6.001287390449
0
LINE
8
5
10
2035.4000087435
20
-662.203835509834
30
6.001288685414
11
2034.747440145854
21
-662.639867850136
31
6.001288353145
0
LINE
8
5
10
2034.157368004787
20
-663.157347168001
30
6.001288052697
11
2033.63988861823
21
-663.747419248828
31
6.001287789211
0
LINE
8
5
10
2038.400008786997
20
-661.399988119448
30
6.001290212928
11
2037.616851630899
21
-661.451318902412
31
6.001289814167
0
LINE
8
5
10
2036.847094505319
20
-661.604433064963
30
6.001289422229
11
2036.103908168093
21
-661.856710781327
31
6.00128904382
0
LINE
8
5
10
2034.747440145854
20
-662.639867850136
30
6.001288353145
11
2034.157368004787
21
-663.157347168001
31
6.001288052697
0
LINE
8
5
10
2036.103908168093
20
-661.856710781327
30
6.00128904382
11
2035.4000087435
21
-662.203835509834
31
6.001288685414
0
LINE
8
5
10
2032.60445358863
20
-665.847073487755
30
6.001287261996
11
2032.45133933647
21
-666.61683059551
31
6.001287184034
0
LINE
8
5
10
2037.616851630899
20
-661.451318902412
30
6.001289814167
11
2036.847094505319
21
-661.604433064963
31
6.001289422229
0
LINE
8
5
10
2032.856731391511
20
-665.103887179897
30
6.001287390449
11
2032.60445358863
21
-665.847073487755
31
6.001287261996
0
LINE
8
5
10
2034.157359930895
20
-779.642635260115
30
6.001288335533
11
2034.747432015962
21
-780.160114629488
31
6.001288730975
0
LINE
8
5
10
2032.45133933647
20
-666.61683059551
30
6.001287184034
11
2032.400008462336
21
-667.399987745633
31
6.001287157897
0
LINE
8
5
10
2054.39999929361
20
-688.899999473875
30
6.001343012067
11
2054.399983128865
21
-683.499942578799
31
6.001075610689
0
LINE
8
5
10
2060.132050794443
20
-689.899990263095
30
6.001300344359
11
2059.98670651662
21
-689.68246763863
31
6.001301426324
0
LINE
8
5
10
2058.66105168976
20
-688.917102904081
30
6.001311294291
11
2058.399999293458
21
-688.899993046312
31
6.001313237479
0
LINE
8
6
10
1900.604446675078
20
-776.952553523733
30
6.000228929548
11
1900.856724397531
21
-777.695739853613
31
6.000229098614
0
LINE
8
6
10
1927.165379301734
20
-673.747395389052
30
6.000249180295
11
1927.400012634844
21
-673.631686754567
31
6.000247433805
0
LINE
8
6
10
1911.399946590196
20
-763.4996669615
30
6.000045274208
11
1911.399946590183
21
-764.999667793303
31
6.000052992063
0
LINE
8
6
10
1906.400009656253
20
-661.399632838376
30
6.000231847643
11
1905.616852500155
21
-661.450963621341
31
6.000231448882
0
LINE
8
6
10
1927.814226740662
20
-673.313848843773
30
6.000244350649
11
1927.986720195177
21
-673.117157862239
31
6.000243066734
0
LINE
8
6
10
1900.400001716841
20
-775.399639248009
30
6.000228792539
11
1900.451332506221
21
-776.182796402612
31
6.000228826938
0
LINE
8
6
10
1908.399975495949
20
-757.799667684474
30
6.000053481878
11
1911.399946590183
21
-757.799667684474
31
6.000052992068
0
LINE
8
6
10
1926.661064590394
20
-673.882526857156
30
6.00025293419
11
1926.917650383425
21
-673.831488374681
31
6.000251024273
0
LINE
8
6
10
1927.814219285004
20
-753.313855942483
30
6.000251298843
11
1927.986712409939
21
-753.117164259235
31
6.000249010069
0
LINE
8
6
10
1911.399961114674
20
-677.799641090929
30
6.00005819215
11
1911.399961114688
21
-679.299667577018
31
6.000034444875
0
LINE
8
6
10
1927.40000580679
20
-741.667588264739
30
6.000242790272
11
1927.165372675476
21
-741.551880011156
31
6.000242618451
0
LINE
8
6
10
1911.399961114674
20
-683.499631459692
30
6.000058189944
11
1911.399961114674
21
-684.999645911564
31
6.000058192145
0
LINE
8
6
10
1928.382895479245
20
-743.138586671655
30
6.000243510379
11
1928.331857417848
21
-742.882000966732
31
6.000243472924
0
LINE
8
6
10
1927.986719624942
20
-780.617162337655
30
6.000243258817
11
1927.814224532519
21
-780.813853041098
31
6.000243143284
0
LINE
8
6
10
1928.400025164806
20
-779.399639481858
30
6.000243535385
11
1928.400152620989
21
-770.899639481781
31
6.000243532426
0
LINE
8
6
10
1908.399990020709
20
-677.799641090929
30
6.000057278761
11
1911.399961114674
21
-677.799641090929
31
6.00005819215
0
LINE
8
6
10
1927.814225915399
20
-661.985420722755
30
6.000239695915
11
1927.986718697304
21
-662.182111443301
31
6.000239783676
0
LINE
8
6
10
1928.247776547737
20
-780.165006345756
30
6.000243433614
11
1928.132065935238
21
-780.399639480409
31
6.000243356148
0
LINE
8
6
10
1928.331857405864
20
-752.417277532732
30
6.000244430311
11
1928.382895484807
21
-752.160691537324
31
6.000243753031
0
LINE
8
6
10
1927.400007779963
20
-781.131690284109
30
6.0002428658
11
1927.165373483308
21
-781.247398540329
31
6.000242708597
0
LINE
8
6
10
1928.332009469165
20
-770.382001778309
30
6.000244436522
11
1928.383044963953
21
-770.638587194438
31
6.00024375939
0
LINE
8
6
10
1927.986707385877
20
-689.682112357558
30
6.000243061039
11
1927.814214131277
21
-689.48542193038
31
6.000244345085
0
LINE
8
6
10
1928.400001549563
20
-690.899634551458
30
6.000239984208
11
1928.382891091288
21
-690.638582194512
31
6.000240111662
0
LINE
8
6
10
1928.247764838763
20
-742.634272193594
30
6.000243411273
11
1928.132056589331
21
-742.399639060233
31
6.000243326479
0
LINE
8
6
10
1928.331857417848
20
-742.882000966732
30
6.000243472924
11
1928.247764838763
21
-742.634272193594
31
6.000243411273
0
LINE
8
6
10
1927.617528387377
20
-700.986341187239
30
6.000239635211
11
1927.400005630147
21
-701.131685302933
31
6.000239539109
0
LINE
8
6
10
1928.331862472625
20
-662.881996243508
30
6.000239959172
11
1928.38290010408
21
-663.138581954063
31
6.000239985071
0
LINE
8
6
10
1927.986711953938
20
-700.617157383839
30
6.00023979836
11
1927.81421897212
21
-700.81384807924
31
6.000239722124
0
LINE
8
6
10
1927.617691404939
20
-769.3129372417
30
6.00025391426
11
1927.814380377971
21
-769.485429243702
31
6.000251304533
0
LINE
8
6
10
1928.132056544363
20
-752.899640576393
30
6.000247081513
11
1928.247764809839
21
-752.665006784482
31
6.00024554617
0
LINE
8
6
10
1900.451332506221
20
-776.182796402612
30
6.000228826938
11
1900.604446675078
21
-776.952553523733
31
6.000228929548
0
LINE
8
6
10
1922.400000162866
20
-688.899644192804
30
6.000284646782
11
1922.399983998121
21
-683.499587297727
31
6.000017245403
0
LINE
8
6
10
1922.39996713646
20
-679.299623415121
30
6.000017251517
11
1922.400012176875
21
-673.899643981455
31
6.000284651955
0
LINE
8
6
10
1927.814214131277
20
-689.48542193038
30
6.000244345085
11
1927.61752330731
21
-689.312929128231
31
6.00024580924
0
LINE
8
6
10
1928.132051663699
20
-689.899634982023
30
6.000241979073
11
1927.986707385877
21
-689.682112357558
31
6.000243061039
0
LINE
8
6
10
1927.617532096823
20
-780.986346158269
30
6.000243011527
11
1927.400007779963
21
-781.131690284109
31
6.0002428658
0
LINE
8
6
10
1926.400005702595
20
-753.899650405704
30
6.000270063378
11
1922.400005703231
21
-753.899673105487
31
6.000323136929
0
LINE
8
6
10
1926.400012176698
20
-673.899637553891
30
6.000254877366
11
1922.400012176875
21
-673.899643981455
31
6.000284651955
0
LINE
8
6
10
1901.639881477453
20
-779.052207853045
30
6.000229623454
11
1902.157360800152
21
-779.642279979043
31
6.000229970247
0
LINE
8
6
10
1902.157360800152
20
-779.642279979043
30
6.000229970247
11
1902.747432885218
21
-780.159759348417
31
6.000230365689
0
LINE
8
6
10
1903.400001435676
20
-780.595791745683
30
6.000230803014
11
1904.103900822703
21
-780.942916535634
31
6.000231274739
0
LINE
8
6
10
1926.917643864729
20
-781.331491126582
30
6.000242542607
11
1926.661057646683
21
-781.382529195405
31
6.000242370671
0
LINE
8
6
10
1927.165373483308
20
-781.247398540329
30
6.000242708597
11
1926.917643864729
21
-781.331491126582
31
6.000242542607
0
LINE
8
6
10
1928.132213465672
20
-769.899641002369
30
6.000247087443
11
1928.24791936809
21
-770.134273481003
31
6.000245552237
0
LINE
8
6
10
1927.814219358296
20
-741.985425503102
30
6.000243093639
11
1927.617528659838
21
-741.812932388138
31
6.000242949577
0
LINE
8
6
10
1916.400005315037
20
-741.399639451698
30
6.000234736775
11
1916.400005315037
21
-701.399633301372
31
6.000234681735
0
LINE
8
6
10
1927.165372575113
20
-701.247393548206
30
6.000239435462
11
1926.9176438589
21
-701.331486122902
31
6.000239326044
0
LINE
8
6
10
1928.382894332852
20
-699.660686930828
30
6.000239973632
11
1928.331856440608
21
-699.917272633944
31
6.000239951007
0
LINE
8
6
10
1928.247760083855
20
-690.134267931363
30
6.000241117701
11
1928.132051663699
21
-689.899634982023
31
6.000241979073
0
LINE
8
6
10
1927.61752330731
20
-689.312929128231
30
6.00024580924
11
1927.400000348509
21
-689.16758535078
31
6.000247428453
0
LINE
8
6
10
1927.400000348509
20
-689.16758535078
30
6.000247428453
11
1927.165367133005
21
-689.051877470357
31
6.00024917502
0
LINE
8
6
10
1927.165367133005
20
-689.051877470357
30
6.00024917502
11
1926.91763830017
21
-688.967785280874
31
6.000251019054
0
LINE
8
6
10
1926.91763830017
20
-688.967785280874
30
6.000251019054
11
1926.661052559016
21
-688.91674762301
31
6.000252929006
0
LINE
8
6
10
1926.400000162714
20
-688.89963776524
30
6.000254872193
11
1922.400000162866
21
-688.899644192804
31
6.000284646782
0
LINE
8
6
10
1926.661064590394
20
-673.882526857156
30
6.00025293419
11
1926.400012176698
21
-673.899637553891
31
6.000254877366
0
LINE
8
6
10
1928.247770308641
20
-662.63426746109
30
6.000239916441
11
1928.331862472625
21
-662.881996243508
31
6.000239959172
0
LINE
8
6
10
1927.986718697304
20
-662.182111443301
30
6.000239783676
11
1928.132062452366
21
-662.39963431496
31
6.000239857606
0
LINE
8
6
10
1926.917651328293
20
-661.467782548399
30
6.000239239584
11
1927.165379959036
21
-661.551875159206
31
6.000239365691
0
LINE
8
6
10
1905.616844241637
20
-781.348308546616
30
6.000232288652
11
1906.40000139218
21
-781.399639397943
31
6.000232813492
0
LINE
8
6
10
1928.331856440608
20
-699.917272633944
30
6.000239951007
11
1928.247764024837
21
-700.165001404104
31
6.000239913789
0
LINE
8
6
10
1922.400008668306
20
-759.299667285287
30
6.000055737114
11
1922.400005703231
21
-753.899673105487
31
6.000323136929
0
LINE
8
6
10
1907.399967137035
20
-679.299683635856
30
6.000008314363
11
1908.399990020723
21
-679.299679621006
31
6.000034352058
0
LINE
8
6
10
1927.400005630147
20
-701.131685302933
30
6.000239539109
11
1927.165372575113
21
-701.247393548206
31
6.000239435462
0
LINE
8
6
10
1928.331871621781
20
-779.917277571682
30
6.000243489887
11
1928.247776547737
21
-780.165006345756
31
6.000243433614
0
LINE
8
6
10
1928.400152620989
20
-770.899639481781
30
6.000243532426
11
1928.383044963953
21
-770.638587194438
31
6.00024375939
0
LINE
8
6
10
1900.451340205726
20
-666.616475314439
30
6.000228818748
11
1900.400009331593
21
-667.399632464561
31
6.000228792612
0
LINE
8
6
10
1904.103900822703
20
-780.942916535634
30
6.000231274739
11
1904.847087132627
21
-781.195194316872
31
6.000231772792
0
LINE
8
6
10
1911.399946590183
20
-757.799667684474
30
6.000052992068
11
1911.399946590183
21
-759.299669672836
31
6.000051952258
0
LINE
8
6
10
1927.814224532519
20
-780.813853041098
30
6.000243143284
11
1927.617532096823
21
-780.986346158269
31
6.000243011527
0
LINE
8
6
10
1902.74744101511
20
-662.639512569065
30
6.000229987859
11
1902.157368874043
21
-663.15699188693
31
6.000229687411
0
LINE
8
6
10
1927.400012896467
20
-661.667583438682
30
6.000239485119
11
1927.617535505974
21
-661.812927586085
31
6.000239595826
0
LINE
8
6
10
1927.617528574749
20
-753.486350176904
30
6.00025390867
11
1927.814219285004
21
-753.313855942483
31
6.000251298843
0
LINE
8
6
10
1928.382895484807
20
-752.160691537324
30
6.000243753031
11
1928.400005770984
21
-751.89963905578
31
6.000243525915
0
LINE
8
6
10
1908.399975495955
20
-764.999667793303
30
6.000090922358
11
1908.399975495995
21
-763.499667612508
31
6.000057859359
0
LINE
8
6
10
1927.165379959036
20
-661.551875159206
30
6.000239365691
11
1927.400012896467
21
-661.667583438682
31
6.000239485119
0
LINE
8
6
10
1926.661058087622
20
-753.882538646993
30
6.000266599628
11
1926.400005702595
21
-753.899650405704
31
6.000270063378
0
LINE
8
6
10
1911.399946590183
20
-764.999667793303
30
6.000052992063
11
1908.399975495955
21
-764.999667793303
31
6.000090922358
0
LINE
8
6
10
1926.661058199806
20
-741.41674936175
30
6.000242249182
11
1926.400005815951
21
-741.399639088803
31
6.000242058053
0
LINE
8
6
10
1928.132056589331
20
-742.399639060233
30
6.000243326479
11
1927.986712469781
21
-742.182116204613
31
6.000243219993
0
LINE
8
6
10
1900.856724397531
20
-777.695739853613
30
6.000229098614
11
1901.203849131804
21
-778.399639268096
31
6.000229331243
0
LINE
8
6
10
1927.814380377971
20
-769.485429243702
30
6.000251304533
11
1927.986871521982
21
-769.68211896917
31
6.000249015874
0
LINE
8
6
10
1926.661057646683
20
-781.382529195405
30
6.000242370671
11
1926.400005090499
21
-781.399639471289
31
6.000242195729
0
LINE
8
6
10
1927.986871521982
20
-769.68211896917
30
6.000249015874
11
1928.132213465672
21
-769.899641002369
31
6.000247087443
0
LINE
8
6
10
1908.399990020705
20
-684.999645911564
30
6.000069351272
11
1908.399990020711
21
-683.499643503725
31
6.000068094933
0
LINE
8
6
10
1908.399975495953
20
-759.299670323945
30
6.000055439321
11
1908.399975495949
21
-757.799667684474
31
6.000053481878
0
LINE
8
6
10
1927.986712469781
20
-742.182116204613
30
6.000243219993
11
1927.814219358296
21
-741.985425503102
31
6.000243093639
0
LINE
8
6
10
1922.400009579909
20
-763.499664573951
30
6.000055742893
11
1911.399946590196
21
-763.4996669615
31
6.000045274208
0
LINE
8
6
10
1928.382891091288
20
-690.638582194512
30
6.000240111662
11
1928.331852843194
21
-690.38199657076
31
6.000240491659
0
LINE
8
6
10
1928.382912267336
20
-779.660691866196
30
6.000243524005
11
1928.331871621781
21
-779.917277571682
31
6.000243489887
0
LINE
8
6
10
1900.400001716841
20
-775.399639248009
30
6.000228792539
11
1900.400009331593
21
-667.399632464561
31
6.000228792612
0
LINE
8
6
10
1927.400170005746
20
-769.167594349143
30
6.000256800403
11
1927.617691404939
21
-769.3129372417
31
6.00025391426
0
LINE
8
6
10
1928.247764024837
20
-700.165001404104
30
6.000239913789
11
1928.132055930085
21
-700.399634533367
31
6.000239862614
0
LINE
8
6
10
1928.382912267336
20
-779.660691866196
30
6.000243524005
11
1928.400025164806
21
-779.399639481858
31
6.000243535385
0
LINE
8
6
10
1908.399990020711
20
-683.499643503725
30
6.000068094933
11
1907.399983998658
21
-683.499647518463
31
6.000073075749
0
LINE
8
6
10
1926.9176438589
20
-701.331486122902
30
6.000239326044
11
1926.661058188527
21
-701.382524179751
31
6.000239212725
0
LINE
8
6
10
1926.917810101347
20
-768.967796241509
30
6.000263200521
11
1927.16553803184
21
-769.051887423218
31
6.00025991358
0
LINE
8
6
10
1926.661065709793
20
-661.416744454147
30
6.000239108955
11
1926.400013354607
21
-661.399634152393
31
6.000238976041
0
LINE
8
6
10
1901.639889487486
20
-663.747063967757
30
6.000229423925
11
1901.203857071216
21
-664.399632514643
31
6.00022920191
0
LINE
8
6
10
1927.400005711762
20
-753.631695538323
30
6.000256794898
11
1927.617528574749
21
-753.486350176904
31
6.00025390867
0
LINE
8
6
10
1928.132064694088
20
-672.899634770668
30
6.000241984915
11
1928.247773352722
21
-672.665001449466
31
6.000241123699
0
LINE
8
6
10
1928.132062452366
20
-662.39963431496
30
6.000239857606
11
1928.247770308641
21
-662.63426746109
31
6.000239916441
0
LINE
8
6
10
1927.986720195177
20
-673.117157862239
30
6.000243066734
11
1928.132064694088
21
-672.899634770668
31
6.000241984915
0
LINE
8
6
10
1927.81421897212
20
-700.81384807924
30
6.000239722124
11
1927.617528387377
21
-700.986341187239
31
6.000239635211
0
LINE
8
6
10
1928.24791936809
20
-770.134273481003
30
6.000245552237
11
1928.332009469165
21
-770.382001778309
31
6.000244436522
0
LINE
8
6
10
1922.400172695877
20
-768.899673531437
30
6.000323142279
11
1922.400009579909
21
-763.499664573951
31
6.000055742893
0
LINE
8
6
10
1922.399983998121
20
-683.499587297727
30
6.000017245403
11
1911.399961114674
21
-683.499631459692
31
6.000058189944
0
LINE
8
6
10
1901.203857071216
20
-664.399632514643
30
6.00022920191
11
1900.856732260767
21
-665.103531898826
31
6.000229025163
0
LINE
8
6
10
1927.617535741374
20
-673.486342278044
30
6.000245814689
11
1927.814226740662
21
-673.313848843773
31
6.000244350649
0
LINE
8
6
10
1926.661224907841
20
-768.916759627449
30
6.000266604988
11
1926.400172695122
21
-768.899650831655
31
6.000270068728
0
LINE
8
6
10
1911.399961114674
20
-684.999645911564
30
6.000058192145
11
1908.399990020705
21
-684.999645911564
31
6.000069351272
0
LINE
8
6
10
1928.247773352722
20
-672.665001449466
30
6.000241123699
11
1928.331866363849
21
-672.417272539811
31
6.000240497823
0
LINE
8
6
10
1926.661065709793
20
-661.416744454147
30
6.000239108955
11
1926.917651328293
21
-661.467782548399
31
6.000239239584
0
LINE
8
6
10
1926.400005815951
20
-741.399639088803
30
6.000242058053
11
1916.400005315037
21
-741.399639451698
31
6.000234736775
0
LINE
8
6
10
1911.399961114688
20
-679.299667577018
30
6.000034444875
11
1922.39996713646
21
-679.299623415121
31
6.000017251517
0
LINE
8
6
10
1928.331866363849
20
-672.417272539811
30
6.000240497823
11
1928.382904872733
21
-672.160686752032
31
6.000240117997
0
LINE
8
6
10
1928.382904872733
20
-672.160686752032
30
6.000240117997
11
1928.400015596338
21
-671.899634340096
31
6.000239990718
0
LINE
8
6
10
1926.400013354607
20
-661.399634152393
30
6.000238976041
11
1906.400009656253
21
-661.399632838376
31
6.000231847643
0
LINE
8
6
10
1900.856732260767
20
-665.103531898826
30
6.000229025163
11
1900.604454457886
21
-665.846718206684
31
6.00022889671
0
LINE
8
6
10
1926.661052559016
20
-688.91674762301
30
6.000252929006
11
1926.400000162714
21
-688.89963776524
31
6.000254872193
0
LINE
8
6
10
1928.247764809839
20
-752.665006784482
30
6.00024554617
11
1928.331857405864
21
-752.417277532732
31
6.000244430311
0
LINE
8
6
10
1904.103909037349
20
-661.856355500256
30
6.000230678534
11
1903.400009612756
21
-662.203480228762
31
6.000230320129
0
LINE
8
6
10
1902.157368874043
20
-663.15699188693
30
6.000229687411
11
1901.639889487486
21
-663.747063967757
31
6.000229423925
0
LINE
8
6
10
1901.203849131804
20
-778.399639268096
30
6.000229331243
11
1901.639881477453
21
-779.052207853045
31
6.000229623454
0
LINE
8
6
10
1927.986712409939
20
-753.117164259235
30
6.000249010069
11
1928.132056544363
21
-752.899640576393
31
6.000247081513
0
LINE
8
6
10
1904.847095374575
20
-661.604077783892
30
6.000231056943
11
1904.103909037349
21
-661.856355500256
31
6.000230678534
0
LINE
8
6
10
1927.16553803184
20
-769.051887423218
30
6.00025991358
11
1927.400170005746
21
-769.167594349143
31
6.000256800403
0
LINE
8
6
10
1902.747432885218
20
-780.159759348417
30
6.000230365689
11
1903.400001435676
21
-780.595791745683
31
6.000230803014
0
LINE
8
6
10
1908.399975495995
20
-763.499667612508
30
6.000057859359
11
1907.400290651016
21
-763.499667829619
31
6.00003094367
0
LINE
8
6
10
1900.604454457886
20
-665.846718206684
30
6.00022889671
11
1900.451340205726
21
-666.616475314439
31
6.000228818748
0
LINE
8
6
10
1903.400009612756
20
-662.203480228762
30
6.000230320129
11
1902.74744101511
21
-662.639512569065
31
6.000229987859
0
LINE
8
6
10
1928.132065935238
20
-780.399639480409
30
6.000243356148
11
1927.986719624942
21
-780.617162337655
31
6.000243258817
0
LINE
8
6
10
1928.400015596338
20
-671.899634340096
30
6.000239990718
11
1928.40000993498
21
-663.399634340109
31
6.000239993693
0
LINE
8
6
10
1927.400012634844
20
-673.631686754567
30
6.000247433805
11
1927.617535741374
21
-673.486342278044
31
6.000245814689
0
LINE
8
6
10
1928.400005747573
20
-743.399639055813
30
6.000243522995
11
1928.382895479245
21
-743.138586671655
31
6.000243510379
0
LINE
8
6
10
1928.331852843194
20
-690.38199657076
30
6.000240491659
11
1928.247760083855
21
-690.134267931363
31
6.000241117701
0
LINE
8
6
10
1905.616852500155
20
-661.450963621341
30
6.000231448882
11
1904.847095374575
21
-661.604077783892
31
6.000231056943
0
LINE
8
6
10
1907.400289739405
20
-759.299670540956
30
6.000049158185
11
1908.399975495953
21
-759.299670323945
31
6.000055439321
0
LINE
8
6
10
1926.400005090499
20
-781.399639471289
30
6.000242195729
11
1906.40000139218
21
-781.399639397943
31
6.000232813492
0
LINE
8
6
10
1927.165372675476
20
-741.551880011156
30
6.000242618451
11
1926.917643903826
21
-741.467787427687
31
6.000242437053
0
LINE
8
6
10
1926.917643903826
20
-741.467787427687
30
6.000242437053
11
1926.661058199806
21
-741.41674936175
31
6.000242249182
0
LINE
8
6
10
1904.847087132627
20
-781.195194316872
30
6.000231772792
11
1905.616844241637
21
-781.348308546616
31
6.000232288652
0
LINE
8
6
10
1926.917650383425
20
-673.831488374681
30
6.000251024273
11
1927.165379301734
21
-673.747395389052
31
6.000249180295
0
LINE
8
6
10
1926.661224907841
20
-768.916759627449
30
6.000266604988
11
1926.917810101347
21
-768.967796241509
31
6.000263200521
0
LINE
8
6
10
1928.400005770984
20
-751.89963905578
30
6.000243525915
11
1928.400005747573
21
-743.399639055813
31
6.000243522995
0
LINE
8
6
10
1916.400005315037
20
-701.399633301372
30
6.000234681735
11
1926.400005815952
21
-701.399634443451
31
6.000239097446
0
LINE
8
6
10
1927.165372572535
20
-753.747405127309
30
6.000259908141
11
1927.400005711762
21
-753.631695538323
31
6.000256794898
0
LINE
8
6
10
1926.400005815952
20
-701.399634443451
30
6.000239097446
11
1926.661058188527
21
-701.382524179751
31
6.000239212725
0
LINE
8
6
10
1926.400172695122
20
-768.899650831655
30
6.000270068728
11
1922.400172695877
21
-768.899673531437
31
6.000323142279
0
LINE
8
6
10
1927.617535505974
20
-661.812927586085
30
6.000239595826
11
1927.814225915399
21
-661.985420722755
31
6.000239695915
0
LINE
8
6
10
1928.40000993498
20
-663.399634340109
30
6.000239993693
11
1928.38290010408
21
-663.138581954063
31
6.000239985071
0
LINE
8
6
10
1908.399990020723
20
-679.299679621006
30
6.000034352058
11
1908.399990020709
21
-677.799641090929
31
6.000057278761
0
LINE
8
6
10
1907.399983998658
20
-683.499647518463
30
6.000073075749
11
1907.399967137035
21
-679.299683635856
31
6.000008314363
0
LINE
8
6
10
1907.400290651016
20
-763.499667829619
30
6.00003094367
11
1907.400289739405
21
-759.299670540956
31
6.000049158185
0
LINE
8
6
10
1926.917643795133
20
-753.831499120713
30
6.000263195131
11
1927.165372572535
21
-753.747405127309
31
6.000259908141
0
LINE
8
6
10
1927.617528659838
20
-741.812932388138
30
6.000242949577
11
1927.40000580679
21
-741.667588264739
31
6.000242790272
0
LINE
8
6
10
1911.399946590183
20
-759.299669672836
30
6.000051952258
11
1922.400008668306
21
-759.299667285287
31
6.000055737114
0
LINE
8
6
10
1926.661058087622
20
-753.882538646993
30
6.000266599628
11
1926.917643795133
21
-753.831499120713
31
6.000263195131
0
LINE
8
6
10
1928.400004429082
20
-699.399634547276
30
6.000239981277
11
1928.400001549563
21
-690.899634551458
31
6.000239984208
0
LINE
8
6
10
1928.132055930085
20
-700.399634533367
30
6.000239862614
11
1927.986711953938
21
-700.617157383839
31
6.00023979836
0
LINE
8
6
10
1928.382894332852
20
-699.660686930828
30
6.000239973632
11
1928.400004429082
21
-699.399634547276
31
6.000239981277
0
LINE
8
7
10
1894.293865457121
20
-769.051887423218
30
6.00025991358
11
1894.528497431027
21
-769.167594349143
31
6.000256800403
0
LINE
8
7
10
1894.046137526628
20
-768.967796241509
30
6.000263200521
11
1894.293865457121
21
-769.051887423218
31
6.00025991358
0
LINE
8
7
10
1893.789552333122
20
-768.916759627449
30
6.000266604988
11
1894.046137526628
21
-768.967796241509
31
6.000263200521
0
LINE
8
7
10
1893.789552333122
20
-768.916759627449
30
6.000266604988
11
1893.528500120403
21
-768.899650831655
31
6.000270068728
0
LINE
8
7
10
1893.528500120403
20
-768.899650831655
30
6.000270068728
11
1889.528500121158
21
-768.899673531437
31
6.000323142279
0
LINE
8
7
10
1889.528500121158
20
-768.899673531437
30
6.000323142279
11
1889.528337005191
21
-763.499664573951
31
6.000055742893
0
LINE
8
7
10
1889.528336093587
20
-759.299667285287
30
6.000055737114
11
1889.528333128512
21
-753.899673105487
31
6.000323136929
0
LINE
8
7
10
1893.528333127877
20
-753.899650405704
30
6.000270063378
11
1889.528333128512
21
-753.899673105487
31
6.000323136929
0
LINE
8
7
10
1893.789385512903
20
-753.882538646993
30
6.000266599628
11
1893.528333127877
21
-753.899650405704
31
6.000270063378
0
LINE
8
7
10
1893.789385512903
20
-753.882538646993
30
6.000266599628
11
1894.045971220414
21
-753.831499120713
31
6.000263195131
0
LINE
8
7
10
1894.045971220414
20
-753.831499120713
30
6.000263195131
11
1894.293699997816
21
-753.747405127309
31
6.000259908141
0
LINE
8
7
10
1894.293699997816
20
-753.747405127309
30
6.000259908141
11
1894.528333137043
21
-753.631695538323
31
6.000256794898
0
LINE
8
7
10
1894.528333137043
20
-753.631695538323
30
6.000256794898
11
1894.74585600003
21
-753.486350176904
31
6.00025390867
0
LINE
8
7
10
1894.74585600003
20
-753.486350176904
30
6.00025390867
11
1894.942546710285
21
-753.313855942483
31
6.000251298843
0
LINE
8
7
10
1894.942546710285
20
-753.313855942483
30
6.000251298843
11
1895.11503983522
21
-753.117164259235
31
6.000249010069
0
LINE
8
7
10
1895.11503983522
20
-753.117164259235
30
6.000249010069
11
1895.260383969644
21
-752.899640576393
31
6.000247081513
0
LINE
8
7
10
1895.260383969644
20
-752.899640576393
30
6.000247081513
11
1895.37609223512
21
-752.665006784482
31
6.00024554617
0
LINE
8
7
10
1895.37609223512
20
-752.665006784482
30
6.00024554617
11
1895.460184831146
21
-752.417277532732
31
6.000244430311
0
LINE
8
7
10
1895.460184831146
20
-752.417277532732
30
6.000244430311
11
1895.511222910088
21
-752.160691537324
31
6.000243753031
0
LINE
8
7
10
1895.511222910088
20
-752.160691537324
30
6.000243753031
11
1895.528333196266
21
-751.89963905578
31
6.000243525915
0
LINE
8
7
10
1895.528333196266
20
-751.89963905578
30
6.000243525915
11
1895.528333172854
21
-743.399639055813
31
6.000243522995
0
LINE
8
7
10
1895.528333172854
20
-743.399639055813
30
6.000243522995
11
1895.511222904527
21
-743.138586671655
31
6.000243510379
0
LINE
8
7
10
1895.511222904527
20
-743.138586671655
30
6.000243510379
11
1895.460184843129
21
-742.882000966732
31
6.000243472924
0
LINE
8
7
10
1895.460184843129
20
-742.882000966732
30
6.000243472924
11
1895.376092264044
21
-742.634272193594
31
6.000243411273
0
LINE
8
7
10
1895.376092264044
20
-742.634272193594
30
6.000243411273
11
1895.260384014612
21
-742.399639060233
31
6.000243326479
0
LINE
8
7
10
1895.260384014612
20
-742.399639060233
30
6.000243326479
11
1895.115039895062
21
-742.182116204613
31
6.000243219993
0
LINE
8
7
10
1895.115039895062
20
-742.182116204613
30
6.000243219993
11
1894.942546783578
21
-741.985425503102
31
6.000243093639
0
LINE
8
7
10
1894.942546783578
20
-741.985425503102
30
6.000243093639
11
1894.745856085119
21
-741.812932388138
31
6.000242949577
0
LINE
8
7
10
1894.528333232071
20
-741.667588264739
30
6.000242790272
11
1894.293700100757
21
-741.551880011156
31
6.000242618451
0
LINE
8
7
10
1894.293700100757
20
-741.551880011156
30
6.000242618451
11
1894.045971329107
21
-741.467787427687
31
6.000242437053
0
LINE
8
7
10
1894.045971329107
20
-741.467787427687
30
6.000242437053
11
1893.789385625087
21
-741.41674936175
31
6.000242249182
0
LINE
8
7
10
1893.789385625087
20
-741.41674936175
30
6.000242249182
11
1893.528333241233
21
-741.399639088803
31
6.000242058053
0
LINE
8
7
10
1893.528333241233
20
-741.399639088803
30
6.000242058053
11
1883.528332740318
21
-741.399639451698
31
6.000234736775
0
LINE
8
7
10
1883.528332740318
20
-741.399639451698
30
6.000234736775
11
1883.528332740318
21
-701.399633301372
31
6.000234681735
0
LINE
8
7
10
1883.528332740318
20
-701.399633301372
30
6.000234681735
11
1893.528333241233
21
-701.399634443451
31
6.000239097446
0
LINE
8
7
10
1893.528333241233
20
-701.399634443451
30
6.000239097446
11
1893.789385613808
21
-701.382524179751
31
6.000239212725
0
LINE
8
7
10
1895.528331854363
20
-699.399634547276
30
6.000239981277
11
1895.528328974844
21
-690.899634551458
31
6.000239984208
0
LINE
8
7
10
1895.528328974844
20
-690.899634551458
30
6.000239984208
11
1895.511218516569
21
-690.638582194512
31
6.000240111662
0
LINE
8
7
10
1895.511218516569
20
-690.638582194512
30
6.000240111662
11
1895.460180268475
21
-690.38199657076
31
6.000240491659
0
LINE
8
7
10
1895.460180268475
20
-690.38199657076
30
6.000240491659
11
1895.376087509136
21
-690.134267931363
31
6.000241117701
0
LINE
8
7
10
1895.376087509136
20
-690.134267931363
30
6.000241117701
11
1895.260379088981
21
-689.899634982023
31
6.000241979073
0
LINE
8
7
10
1895.260379088981
20
-689.899634982023
30
6.000241979073
11
1895.115034811158
21
-689.682112357558
31
6.000243061039
0
LINE
8
7
10
1895.115034811158
20
-689.682112357558
30
6.000243061039
11
1894.942541556558
21
-689.48542193038
31
6.000244345085
0
LINE
8
7
10
1894.942541556558
20
-689.48542193038
30
6.000244345085
11
1894.745850732592
21
-689.312929128231
31
6.00024580924
0
LINE
8
7
10
1894.745850732592
20
-689.312929128231
30
6.00024580924
11
1894.52832777379
21
-689.16758535078
31
6.000247428453
0
LINE
8
7
10
1894.52832777379
20
-689.16758535078
30
6.000247428453
11
1894.293694558286
21
-689.051877470357
31
6.00024917502
0
LINE
8
7
10
1894.293694558286
20
-689.051877470357
30
6.00024917502
11
1894.045965725451
21
-688.967785280874
31
6.000251019054
0
LINE
8
7
10
1894.045965725451
20
-688.967785280874
30
6.000251019054
11
1893.789379984298
21
-688.91674762301
31
6.000252929006
0
LINE
8
7
10
1893.789379984298
20
-688.91674762301
30
6.000252929006
11
1893.528327587995
21
-688.89963776524
31
6.000254872193
0
LINE
8
7
10
1893.528327587995
20
-688.89963776524
30
6.000254872193
11
1889.528327588147
21
-688.899644192804
31
6.000284646782
0
LINE
8
7
10
1889.528327588147
20
-688.899644192804
30
6.000284646782
11
1889.528311423402
21
-683.499587297727
31
6.000017245403
0
LINE
8
7
10
1889.528294561741
20
-679.299623415121
30
6.000017251517
11
1889.528339602156
21
-673.899643981455
31
6.000284651955
0
LINE
8
7
10
1893.528339601979
20
-673.899637553891
30
6.000254877366
11
1889.528339602156
21
-673.899643981455
31
6.000284651955
0
LINE
8
7
10
1893.789392015675
20
-673.882526857156
30
6.00025293419
11
1893.528339601979
21
-673.899637553891
31
6.000254877366
0
LINE
8
7
10
1893.789392015675
20
-673.882526857156
30
6.00025293419
11
1894.045977808706
21
-673.831488374681
31
6.000251024273
0
LINE
8
7
10
1894.045977808706
20
-673.831488374681
30
6.000251024273
11
1894.293706727015
21
-673.747395389052
31
6.000249180295
0
LINE
8
7
10
1894.293706727015
20
-673.747395389052
30
6.000249180295
11
1894.528340060125
21
-673.631686754567
31
6.000247433805
0
LINE
8
7
10
1894.528340060125
20
-673.631686754567
30
6.000247433805
11
1894.745863166655
21
-673.486342278044
31
6.000245814689
0
LINE
8
7
10
1894.745863166655
20
-673.486342278044
30
6.000245814689
11
1894.942554165943
21
-673.313848843773
31
6.000244350649
0
LINE
8
7
10
1894.942554165943
20
-673.313848843773
30
6.000244350649
11
1895.115047620458
21
-673.117157862239
31
6.000243066734
0
LINE
8
7
10
1895.115047620458
20
-673.117157862239
30
6.000243066734
11
1895.260392119369
21
-672.899634770668
31
6.000241984915
0
LINE
8
7
10
1895.260392119369
20
-672.899634770668
30
6.000241984915
11
1895.376100778003
21
-672.665001449466
31
6.000241123699
0
LINE
8
7
10
1895.376100778003
20
-672.665001449466
30
6.000241123699
11
1895.46019378913
21
-672.417272539811
31
6.000240497823
0
LINE
8
7
10
1895.46019378913
20
-672.417272539811
30
6.000240497823
11
1895.511232298014
21
-672.160686752032
31
6.000240117997
0
LINE
8
7
10
1895.511232298014
20
-672.160686752032
30
6.000240117997
11
1895.528343021619
21
-671.899634340096
31
6.000239990718
0
LINE
8
7
10
1895.528343021619
20
-671.899634340096
30
6.000239990718
11
1895.528337360262
21
-663.399634340109
31
6.000239993693
0
LINE
8
7
10
1895.528337360262
20
-663.399634340109
30
6.000239993693
11
1895.511227529361
21
-663.138581954063
31
6.000239985071
0
LINE
8
7
10
1895.460189897907
20
-662.881996243508
30
6.000239959172
11
1895.511227529361
21
-663.138581954063
31
6.000239985071
0
LINE
8
7
10
1893.789393135074
20
-661.416744454147
30
6.000239108955
11
1893.528340779888
21
-661.399634152393
31
6.000238976041
0
LINE
8
7
10
1893.528340779888
20
-661.399634152393
30
6.000238976041
11
1873.528337081534
21
-661.399632838376
31
6.000231847643
0
LINE
8
7
10
1873.528337081534
20
-661.399632838376
30
6.000231847643
11
1872.745179925436
21
-661.450963621341
31
6.000231448882
0
LINE
8
7
10
1872.745179925436
20
-661.450963621341
30
6.000231448882
11
1871.975422799856
21
-661.604077783892
31
6.000231056943
0
LINE
8
7
10
1871.975422799856
20
-661.604077783892
30
6.000231056943
11
1871.23223646263
21
-661.856355500256
31
6.000230678534
0
LINE
8
7
10
1871.23223646263
20
-661.856355500256
30
6.000230678534
11
1870.528337038037
21
-662.203480228762
31
6.000230320129
0
LINE
8
7
10
1870.528337038037
20
-662.203480228762
30
6.000230320129
11
1869.875768440391
21
-662.639512569065
31
6.000229987859
0
LINE
8
7
10
1869.875768440391
20
-662.639512569065
30
6.000229987859
11
1869.285696299324
21
-663.15699188693
31
6.000229687411
0
LINE
8
7
10
1869.285696299324
20
-663.15699188693
30
6.000229687411
11
1868.768216912767
21
-663.747063967757
31
6.000229423925
0
LINE
8
7
10
1868.768216912767
20
-663.747063967757
30
6.000229423925
11
1868.332184496497
21
-664.399632514643
31
6.00022920191
0
LINE
8
7
10
1868.332184496497
20
-664.399632514643
30
6.00022920191
11
1867.985059686048
21
-665.103531898826
31
6.000229025163
0
LINE
8
7
10
1867.985059686048
20
-665.103531898826
30
6.000229025163
11
1867.732781883167
21
-665.846718206684
31
6.00022889671
0
LINE
8
7
10
1867.732781883167
20
-665.846718206684
30
6.00022889671
11
1867.579667631007
21
-666.616475314439
31
6.000228818748
0
LINE
8
7
10
1867.579667631007
20
-666.616475314439
30
6.000228818748
11
1867.528336756874
21
-667.399632464561
31
6.000228792612
0
LINE
8
7
10
1895.115046122585
20
-662.182111443301
30
6.000239783676
11
1895.260389877648
21
-662.39963431496
31
6.000239857606
0
LINE
8
7
10
1895.376097733922
20
-662.63426746109
30
6.000239916441
11
1895.460189897907
21
-662.881996243508
31
6.000239959172
0
LINE
8
7
10
1894.745862931255
20
-661.812927586085
30
6.000239595826
11
1894.94255334068
21
-661.985420722755
31
6.000239695915
0
LINE
8
7
10
1895.260389877648
20
-662.39963431496
30
6.000239857606
11
1895.376097733922
21
-662.63426746109
31
6.000239916441
0
LINE
8
7
10
1894.94255334068
20
-661.985420722755
30
6.000239695915
11
1895.115046122585
21
-662.182111443301
31
6.000239783676
0
LINE
8
7
10
1894.528340321748
20
-661.667583438682
30
6.000239485119
11
1894.745862931255
21
-661.812927586085
31
6.000239595826
0
LINE
8
7
10
1894.293707384317
20
-661.551875159206
30
6.000239365691
11
1894.528340321748
21
-661.667583438682
31
6.000239485119
0
LINE
8
7
10
1893.789393135074
20
-661.416744454147
30
6.000239108955
11
1894.045978753574
21
-661.467782548399
31
6.000239239584
0
LINE
8
7
10
1894.045978753574
20
-661.467782548399
30
6.000239239584
11
1894.293707384317
21
-661.551875159206
31
6.000239365691
0
LINE
8
7
10
1895.376103973018
20
-780.165006345756
30
6.000243433614
11
1895.260393360519
21
-780.399639480409
31
6.000243356148
0
LINE
8
7
10
1894.528335205244
20
-781.131690284109
30
6.0002428658
11
1894.293700908589
21
-781.247398540329
31
6.000242708597
0
LINE
8
7
10
1895.511239692617
20
-779.660691866196
30
6.000243524005
11
1895.528352590087
21
-779.399639481858
31
6.000243535385
0
LINE
8
7
10
1894.745859522104
20
-780.986346158269
30
6.000243011527
11
1894.528335205244
21
-781.131690284109
31
6.0002428658
0
LINE
8
7
10
1895.511221758134
20
-699.660686930828
30
6.000239973632
11
1895.460183865889
21
-699.917272633944
31
6.000239951007
0
LINE
8
7
10
1893.789385071964
20
-781.382529195405
30
6.000242370671
11
1893.52833251578
21
-781.399639471289
31
6.000242195729
0
LINE
8
7
10
1895.460183865889
20
-699.917272633944
30
6.000239951007
11
1895.376091450118
21
-700.165001404104
31
6.000239913789
0
LINE
8
7
10
1894.045971290011
20
-781.331491126582
30
6.000242542607
11
1893.789385071964
21
-781.382529195405
31
6.000242370671
0
LINE
8
7
10
1895.376091450118
20
-700.165001404104
30
6.000239913789
11
1895.260383355367
21
-700.399634533367
31
6.000239862614
0
LINE
8
7
10
1895.460199047062
20
-779.917277571682
30
6.000243489887
11
1895.376103973018
21
-780.165006345756
31
6.000243433614
0
LINE
8
7
10
1894.293700908589
20
-781.247398540329
30
6.000242708597
11
1894.045971290011
21
-781.331491126582
31
6.000242542607
0
LINE
8
7
10
1895.260393360519
20
-780.399639480409
30
6.000243356148
11
1895.115047050223
21
-780.617162337655
31
6.000243258817
0
LINE
8
7
10
1895.511239692617
20
-779.660691866196
30
6.000243524005
11
1895.460199047062
21
-779.917277571682
31
6.000243489887
0
LINE
8
7
10
1894.9425519578
20
-780.813853041098
30
6.000243143284
11
1894.745859522104
21
-780.986346158269
31
6.000243011527
0
LINE
8
7
10
1895.115047050223
20
-780.617162337655
30
6.000243258817
11
1894.9425519578
21
-780.813853041098
31
6.000243143284
0
LINE
8
7
10
1894.045971284182
20
-701.331486122902
30
6.000239326044
11
1893.789385613808
21
-701.382524179751
31
6.000239212725
0
LINE
8
7
10
1894.942546397401
20
-700.81384807924
30
6.000239722124
11
1894.745855812658
21
-700.986341187239
31
6.000239635211
0
LINE
8
7
10
1895.511221758134
20
-699.660686930828
30
6.000239973632
11
1895.528331854363
21
-699.399634547276
31
6.000239981277
0
LINE
8
7
10
1895.260383355367
20
-700.399634533367
30
6.000239862614
11
1895.115039379219
21
-700.617157383839
31
6.00023979836
0
LINE
8
7
10
1895.115039379219
20
-700.617157383839
30
6.00023979836
11
1894.942546397401
21
-700.81384807924
31
6.000239722124
0
LINE
8
7
10
1894.745855812658
20
-700.986341187239
30
6.000239635211
11
1894.528333055428
21
-701.131685302933
31
6.000239539109
0
LINE
8
7
10
1894.745856085119
20
-741.812932388138
30
6.000242949577
11
1894.528333232071
21
-741.667588264739
31
6.000242790272
0
LINE
8
7
10
1894.528333055428
20
-701.131685302933
30
6.000239539109
11
1894.293700000394
21
-701.247393548206
31
6.000239435462
0
LINE
8
7
10
1894.293700000394
20
-701.247393548206
30
6.000239435462
11
1894.045971284182
21
-701.331486122902
31
6.000239326044
0
LINE
8
7
10
1889.528337005191
20
-763.499664573951
30
6.000055742893
11
1878.528274015477
21
-763.4996669615
31
6.000045274208
0
LINE
8
7
10
1878.528274015477
20
-763.4996669615
30
6.000045274208
11
1878.528274015465
21
-764.999667793303
31
6.000052992063
0
LINE
8
7
10
1878.528274015465
20
-764.999667793303
30
6.000052992063
11
1875.528302921236
21
-764.999667793303
31
6.000090922358
0
LINE
8
7
10
1875.528302921236
20
-764.999667793303
30
6.000090922358
11
1875.528302921276
21
-763.499667612508
31
6.000057859359
0
LINE
8
7
10
1875.528302921276
20
-763.499667612508
30
6.000057859359
11
1874.528618076297
21
-763.499667829619
31
6.00003094367
0
LINE
8
7
10
1874.528618076297
20
-763.499667829619
30
6.00003094367
11
1874.528617164686
21
-759.299670540956
31
6.000049158185
0
LINE
8
7
10
1874.528617164686
20
-759.299670540956
30
6.000049158185
11
1875.528302921234
21
-759.299670323945
31
6.000055439321
0
LINE
8
7
10
1875.528302921234
20
-759.299670323945
30
6.000055439321
11
1875.52830292123
21
-757.799667684474
31
6.000053481878
0
LINE
8
7
10
1875.52830292123
20
-757.799667684474
30
6.000053481878
11
1878.528274015465
21
-757.799667684474
31
6.000052992068
0
LINE
8
7
10
1878.528274015465
20
-757.799667684474
30
6.000052992068
11
1878.528274015465
21
-759.299669672836
31
6.000051952258
0
LINE
8
7
10
1878.528274015465
20
-759.299669672836
30
6.000051952258
11
1889.528336093587
21
-759.299667285287
31
6.000055737114
0
LINE
8
7
10
1875.528317445986
20
-684.999645911564
30
6.000069351272
11
1875.528317445992
21
-683.499643503725
31
6.000068094933
0
LINE
8
7
10
1875.528317445992
20
-683.499643503725
30
6.000068094933
11
1874.528311423939
21
-683.499647518463
31
6.000073075749
0
LINE
8
7
10
1874.528311423939
20
-683.499647518463
30
6.000073075749
11
1874.528294562317
21
-679.299683635856
31
6.000008314363
0
LINE
8
7
10
1874.528294562317
20
-679.299683635856
30
6.000008314363
11
1875.528317446004
21
-679.299679621006
31
6.000034352058
0
LINE
8
7
10
1875.528317446004
20
-679.299679621006
30
6.000034352058
11
1875.52831744599
21
-677.799641090929
31
6.000057278761
0
LINE
8
7
10
1875.52831744599
20
-677.799641090929
30
6.000057278761
11
1878.528288539955
21
-677.799641090929
31
6.00005819215
0
LINE
8
7
10
1878.528288539955
20
-677.799641090929
30
6.00005819215
11
1878.528288539969
21
-679.299667577018
31
6.000034444875
0
LINE
8
7
10
1878.528288539969
20
-679.299667577018
30
6.000034444875
11
1889.528294561741
21
-679.299623415121
31
6.000017251517
0
LINE
8
7
10
1889.528311423402
20
-683.499587297727
30
6.000017245403
11
1878.528288539955
21
-683.499631459692
31
6.000058189944
0
LINE
8
7
10
1878.528288539955
20
-683.499631459692
30
6.000058189944
11
1878.528288539955
21
-684.999645911564
31
6.000058192145
0
LINE
8
7
10
1878.528288539955
20
-684.999645911564
30
6.000058192145
11
1875.528317445986
21
-684.999645911564
31
6.000069351272
0
LINE
8
7
10
1867.528329142122
20
-775.399639248009
30
6.000228792539
11
1867.528336756874
21
-667.399632464561
31
6.000228792612
0
LINE
8
7
10
1867.528329142122
20
-775.399639248009
30
6.000228792539
11
1867.579659931502
21
-776.182796402612
31
6.000228826938
0
LINE
8
7
10
1867.579659931502
20
-776.182796402612
30
6.000228826938
11
1867.732774100359
21
-776.952553523733
31
6.000228929548
0
LINE
8
7
10
1867.732774100359
20
-776.952553523733
30
6.000228929548
11
1867.985051822812
21
-777.695739853613
31
6.000229098614
0
LINE
8
7
10
1867.985051822812
20
-777.695739853613
30
6.000229098614
11
1868.332176557085
21
-778.399639268096
31
6.000229331243
0
LINE
8
7
10
1868.332176557085
20
-778.399639268096
30
6.000229331243
11
1868.768208902734
21
-779.052207853045
31
6.000229623454
0
LINE
8
7
10
1868.768208902734
20
-779.052207853045
30
6.000229623454
11
1869.285688225433
21
-779.642279979043
31
6.000229970247
0
LINE
8
7
10
1869.285688225433
20
-779.642279979043
30
6.000229970247
11
1869.875760310499
21
-780.159759348417
31
6.000230365689
0
LINE
8
7
10
1869.875760310499
20
-780.159759348417
30
6.000230365689
11
1870.528328860958
21
-780.595791745683
31
6.000230803014
0
LINE
8
7
10
1870.528328860958
20
-780.595791745683
30
6.000230803014
11
1871.232228247984
21
-780.942916535634
31
6.000231274739
0
LINE
8
7
10
1871.232228247984
20
-780.942916535634
30
6.000231274739
11
1871.975414557909
21
-781.195194316872
31
6.000231772792
0
LINE
8
7
10
1871.975414557909
20
-781.195194316872
30
6.000231772792
11
1872.745171666918
21
-781.348308546616
31
6.000232288652
0
LINE
8
7
10
1872.745171666918
20
-781.348308546616
30
6.000232288652
11
1873.528328817461
21
-781.399639397943
31
6.000232813492
0
LINE
8
7
10
1893.52833251578
20
-781.399639471289
30
6.000242195729
11
1873.528328817461
21
-781.399639397943
31
6.000232813492
0
LINE
8
7
10
1895.528352590087
20
-779.399639481858
30
6.000243535385
11
1895.52848004627
21
-770.899639481781
31
6.000243532426
0
LINE
8
7
10
1895.52848004627
20
-770.899639481781
30
6.000243532426
11
1895.511372389234
21
-770.638587194438
31
6.00024375939
0
LINE
8
7
10
1895.460336894446
20
-770.382001778309
30
6.000244436522
11
1895.511372389234
21
-770.638587194438
31
6.00024375939
0
LINE
8
7
10
1895.376246793371
20
-770.134273481003
30
6.000245552237
11
1895.460336894446
21
-770.382001778309
31
6.000244436522
0
LINE
8
7
10
1895.260540890953
20
-769.899641002369
30
6.000247087443
11
1895.376246793371
21
-770.134273481003
31
6.000245552237
0
LINE
8
7
10
1895.115198947263
20
-769.68211896917
30
6.000249015874
11
1895.260540890953
21
-769.899641002369
31
6.000247087443
0
LINE
8
7
10
1894.942707803253
20
-769.485429243702
30
6.000251304533
11
1895.115198947263
21
-769.68211896917
31
6.000249015874
0
LINE
8
7
10
1894.74601883022
20
-769.3129372417
30
6.00025391426
11
1894.942707803253
21
-769.485429243702
31
6.000251304533
0
LINE
8
7
10
1894.528497431027
20
-769.167594349143
30
6.000256800403
11
1894.74601883022
21
-769.3129372417
31
6.00025391426
0
ENDSEC
0
EOF
