0
SECTION
2
ENTITIES
0
LINE
8
0
10
2684.891731551407
20
-403.699979786425
30
6.00000069208
11
2684.823585799455
21
-403.182342533617
31
6.00000069208
0
LINE
8
0
10
2481.45987968756
20
-397.182342533182
30
6.00000069208
11
2481.39173155142
21
-397.69997978599
31
6.00000069208
0
LINE
8
0
10
2683.89173155133
20
-439.432029728439
30
6.00000069208
11
2684.305946639221
21
-439.114192966966
31
6.00000069208
0
LINE
8
0
10
2678.891731551375
20
-418.59997988178
30
6.00000069208
11
2667.891731551375
21
-418.599979881756
31
6.00000069208
0
LINE
8
0
10
2684.623787215394
20
-438.699979786425
30
6.00000069208
11
2684.82358579938
21
-438.217617039232
31
6.00000069208
0
LINE
8
0
10
2684.82358579938
20
-438.217617039232
30
6.00000069208
11
2684.891731551334
21
-437.699979786425
31
6.00000069208
0
LINE
8
0
10
2264.374092391174
20
-439.631832126223
30
6.00000069208
11
2264.89173155133
21
-439.699979785526
31
6.00000069208
0
LINE
8
0
10
2263.159675887346
20
-402.699979785522
30
6.00000069208
11
2262.959877303361
21
-403.182342532714
31
6.00000069208
0
LINE
8
0
10
2492.823583892119
20
-397.182342533206
30
6.00000069208
11
2492.623781493438
21
-396.699979786013
31
6.00000069208
0
LINE
8
0
10
2263.47751646344
20
-439.114192966065
30
6.00000069208
11
2263.89173155133
21
-439.43202972754
31
6.00000069208
0
LINE
8
0
10
2464.909369757906
20
-395.768127445256
30
6.00000069208
11
2464.391731551424
21
-395.699979785953
31
6.00000069208
0
LINE
8
0
10
2481.391731551411
20
-401.69997978599
30
6.00000069208
11
2481.39173155142
21
-397.69997978599
31
6.00000069208
0
LINE
8
0
10
2587.674215158969
20
-421.286693320197
30
6.00000069208
11
2587.477524454614
21
-421.114200201987
31
6.00000069208
0
LINE
8
0
10
2263.89173155133
20
-439.43202972754
30
6.00000069208
11
2264.374092391174
21
-439.631832126223
31
6.00000069208
0
LINE
8
0
10
2630.657104583808
20
-421.547745704729
30
6.00000069208
11
2630.409375809283
21
-421.631838292284
31
6.00000069208
0
LINE
8
0
10
2455.891731551423
20
-395.967929843918
30
6.00000069208
11
2455.477518370881
21
-396.285766605392
31
6.00000069208
0
LINE
8
0
10
2262.959877303343
20
-411.717617992004
30
6.00000069208
11
2263.159675887326
21
-412.199979785522
31
6.00000069208
0
LINE
8
0
10
2264.374092391231
20
-413.131831649386
30
6.00000069208
11
2264.891731551387
21
-413.199979785526
31
6.00000069208
0
LINE
8
0
10
2262.959877303361
20
-403.182342532714
30
6.00000069208
11
2262.891731551407
21
-403.699979785522
31
6.00000069208
0
LINE
8
0
10
2465.805944731965
20
-396.285766605414
30
6.00000069208
11
2465.391731551423
21
-395.967929843939
31
6.00000069208
0
LINE
8
0
10
2264.374092391198
20
-428.268127921664
30
6.00000069208
11
2263.891731551354
21
-428.467928889833
31
6.00000069208
0
LINE
8
0
10
2475.991731456043
20
-401.699979785978
30
6.00000069208
11
2481.391731551411
21
-401.69997978599
31
6.00000069208
0
LINE
8
0
10
2263.477516463519
20
-402.285766604981
30
6.00000069208
11
2263.159675887346
21
-402.699979785522
31
6.00000069208
0
LINE
8
0
10
2263.15967588729
20
-429.199979785522
30
6.00000069208
11
2262.959877303304
21
-429.68234157904
31
6.00000069208
0
LINE
8
0
10
2455.159681609405
20
-396.699979785933
30
6.00000069208
11
2454.959879210723
21
-397.182342533125
31
6.00000069208
0
LINE
8
0
10
2492.623781493438
20
-396.699979786013
30
6.00000069208
11
2492.305944731965
21
-396.285766605471
31
6.00000069208
0
LINE
8
0
10
2262.959877303304
20
-429.68234157904
30
6.00000069208
11
2262.89173155135
21
-430.199979785522
31
6.00000069208
0
LINE
8
0
10
2262.959877303286
20
-438.217617038329
30
6.00000069208
11
2263.159675887269
21
-438.699979785522
31
6.00000069208
0
LINE
8
0
10
2481.977518370881
20
-396.285766605449
30
6.00000069208
11
2481.659680655731
21
-396.69997978599
31
6.00000069208
0
LINE
8
0
10
2454.959879210723
20
-397.182342533125
30
6.00000069208
11
2454.89173155142
21
-397.699979785933
31
6.00000069208
0
LINE
8
0
10
2481.659680655731
20
-396.69997978599
30
6.00000069208
11
2481.45987968756
21
-397.182342533182
31
6.00000069208
0
LINE
8
0
10
2682.891731551329
20
-439.699979786421
30
6.00000069208
11
2683.409370711486
21
-439.63183212712
31
6.00000069208
0
LINE
8
0
10
2466.323583415282
20
-397.182342533149
30
6.00000069208
11
2466.123782447113
21
-396.699979785957
31
6.00000069208
0
LINE
8
0
10
2492.89173155142
20
-397.699979786014
30
6.00000069208
11
2492.823583892119
21
-397.182342533206
31
6.00000069208
0
LINE
8
0
10
2262.89173155139
20
-411.199979785522
30
6.00000069208
11
2262.959877303343
21
-411.717617992004
31
6.00000069208
0
LINE
8
0
10
2475.991731456012
20
-416.699979785978
30
6.00000069208
11
2475.991731456013
21
-415.699979785978
31
6.00000069208
0
LINE
8
0
10
2492.305944731965
20
-396.285766605471
30
6.00000069208
11
2491.891731551423
21
-395.967929843995
31
6.00000069208
0
LINE
8
0
10
2263.477516463463
20
-428.785766604981
30
6.00000069208
11
2263.15967588729
21
-429.199979785522
31
6.00000069208
0
LINE
8
0
10
2456.374094298616
20
-395.768127445238
30
6.00000069208
11
2455.891731551423
21
-395.967929843918
31
6.00000069208
0
LINE
8
0
10
2455.477518370881
20
-396.285766605392
30
6.00000069208
11
2455.159681609405
21
-396.699979785933
31
6.00000069208
0
LINE
8
0
10
2586.89173801699
20
-419.699986639613
30
6.00000069208
11
2586.891738017029
21
-401.699979786215
31
6.00000069208
0
LINE
8
0
10
2491.409368804231
20
-395.768127445313
30
6.00000069208
11
2490.891731551424
21
-395.69997978601
31
6.00000069208
0
LINE
8
0
10
2263.891731551354
20
-428.467928889833
30
6.00000069208
11
2263.477516463463
21
-428.785766604981
31
6.00000069208
0
LINE
8
0
10
2263.477516463497
20
-412.614192966065
30
6.00000069208
11
2263.891731551387
21
-412.932030681215
31
6.00000069208
0
LINE
8
0
10
2466.39173155142
20
-397.699979785957
30
6.00000069208
11
2466.323583415282
21
-397.182342533149
31
6.00000069208
0
LINE
8
0
10
2465.391731551423
20
-395.967929843939
30
6.00000069208
11
2464.909369757906
21
-395.768127445256
31
6.00000069208
0
LINE
8
0
10
2264.891731551354
20
-428.199979785526
30
6.00000069208
11
2264.374092391198
21
-428.268127921664
31
6.00000069208
0
LINE
8
0
10
2684.305946639221
20
-439.114192966966
30
6.00000069208
11
2684.623787215394
21
-438.699979786425
31
6.00000069208
0
LINE
8
0
10
2631.739496784103
20
-420.465353504439
30
6.00000069208
11
2631.623788526648
21
-420.699986639708
31
6.00000069208
0
LINE
8
0
10
2684.623787215451
20
-412.199979786425
30
6.00000069208
11
2684.823585799436
21
-411.717617992907
31
6.00000069208
0
LINE
8
0
10
2587.159687209419
20
-420.699986639613
30
6.00000069208
11
2587.043978951966
21
-420.465353504343
31
6.00000069208
0
LINE
8
0
10
2683.409370711543
20
-413.131831650283
30
6.00000069208
11
2683.891731551387
21
-412.932030682114
31
6.00000069208
0
LINE
8
0
10
2587.477524454614
20
-421.114200201987
30
6.00000069208
11
2587.305031336405
21
-420.917509497631
31
6.00000069208
0
LINE
8
0
10
2631.891737719082
20
-419.699986639709
30
6.00000069208
11
2631.874627441829
21
-419.961039024149
31
6.00000069208
0
LINE
8
0
10
2631.623788526648
20
-420.699986639708
30
6.00000069208
11
2631.478444399662
21
-420.917509497726
31
6.00000069208
0
LINE
8
0
10
2629.891737719077
20
-421.699986639705
30
6.00000069208
11
2588.891738016986
21
-421.699986639617
31
6.00000069208
0
LINE
8
0
10
2684.305946639243
20
-428.785766605882
30
6.00000069208
11
2683.891731551354
21
-428.467928890732
31
6.00000069208
0
LINE
8
0
10
2682.891731551386
20
-413.199979786421
30
6.00000069208
11
2683.409370711543
21
-413.131831650283
31
6.00000069208
0
LINE
8
0
10
2586.959886364411
20
-420.217624729818
30
6.00000069208
11
2586.908848294242
21
-419.961039024053
31
6.00000069208
0
LINE
8
0
10
2683.891731551387
20
-412.932030682114
30
6.00000069208
11
2684.305946639278
21
-412.614192966966
31
6.00000069208
0
LINE
8
0
10
2684.823585799455
20
-403.182342533617
30
6.00000069208
11
2684.623787215471
21
-402.699979786425
31
6.00000069208
0
LINE
8
0
10
2587.043978951966
20
-420.465353504343
30
6.00000069208
11
2586.959886364411
21
-420.217624729818
31
6.00000069208
0
LINE
8
0
10
2684.823585799398
20
-429.682341579943
30
6.00000069208
11
2684.623787215415
21
-429.199979786425
31
6.00000069208
0
LINE
8
0
10
2683.891731551354
20
-428.467928890732
30
6.00000069208
11
2683.40937071151
21
-428.268127922561
31
6.00000069208
0
LINE
8
0
10
2588.126371152256
20
-421.547745704638
30
6.00000069208
11
2587.891738016986
21
-421.432037447183
31
6.00000069208
0
LINE
8
0
10
2588.630685632546
20
-421.682876362364
30
6.00000069208
11
2588.374099926781
21
-421.631838292194
31
6.00000069208
0
LINE
8
0
10
2587.891738016986
20
-421.432037447183
30
6.00000069208
11
2587.674215158969
21
-421.286693320197
31
6.00000069208
0
LINE
8
0
10
2683.40937071151
20
-428.268127922561
30
6.00000069208
11
2682.891731551354
21
-428.199979786421
31
6.00000069208
0
LINE
8
0
10
2631.109260577095
20
-421.28669332029
30
6.00000069208
11
2630.891737719078
21
-421.432037447276
31
6.00000069208
0
LINE
8
0
10
2631.89173771912
20
-401.699979786312
30
6.00000069208
11
2682.891731551411
21
-401.699979786421
31
6.00000069208
0
LINE
8
0
10
2630.409375809283
20
-421.631838292284
30
6.00000069208
11
2630.152790103517
21
-421.682876362453
31
6.00000069208
0
LINE
8
0
10
2587.305031336405
20
-420.917509497631
30
6.00000069208
11
2587.159687209419
21
-420.699986639613
31
6.00000069208
0
LINE
8
0
10
2268.891731551366
20
-422.799979690167
30
6.00000069208
11
2279.891731551366
21
-422.799979690191
31
6.00000069208
0
LINE
8
0
10
2279.891731551366
20
-422.799979690191
30
6.00000069208
11
2279.891731551362
21
-424.299979690191
31
6.00000069208
0
LINE
8
0
10
2466.391731551411
20
-401.699979785957
30
6.00000069208
11
2471.791731646779
21
-401.699979785969
31
6.00000069208
0
LINE
8
0
10
2268.891731551354
20
-428.199979785535
30
6.00000069208
11
2268.891731551366
21
-422.799979690167
31
6.00000069208
0
LINE
8
0
10
2282.891731551363
20
-424.299979690197
30
6.00000069208
11
2282.891731551366
21
-422.799979690197
31
6.00000069208
0
LINE
8
0
10
2630.152790103517
20
-421.682876362453
30
6.00000069208
11
2629.891737719077
21
-421.699986639705
31
6.00000069208
0
LINE
8
0
10
2471.791731646779
20
-401.699979785969
30
6.00000069208
11
2471.791731646755
21
-412.699979785969
31
6.00000069208
0
LINE
8
0
10
2630.891737719078
20
-421.432037447276
30
6.00000069208
11
2630.657104583808
21
-421.547745704729
31
6.00000069208
0
LINE
8
0
10
2264.891731551411
20
-401.699979785526
30
6.00000069208
11
2454.891731551411
21
-401.699979785933
31
6.00000069208
0
LINE
8
0
10
2264.891731551354
20
-428.199979785526
30
6.00000069208
11
2268.891731551354
21
-428.199979785535
31
6.00000069208
0
LINE
8
0
10
2282.891731551378
20
-417.099979880932
30
6.00000069208
11
2279.891731551378
21
-417.099979880925
31
6.00000069208
0
LINE
8
0
10
2470.291731646749
20
-415.699979785966
30
6.00000069208
11
2471.791731646748
21
-415.699979785969
31
6.00000069208
0
LINE
8
0
10
2262.891731551334
20
-437.699979785522
30
6.00000069208
11
2262.89173155135
21
-430.199979785522
31
6.00000069208
0
LINE
8
0
10
2588.891738016986
20
-421.699986639617
30
6.00000069208
11
2588.630685632546
21
-421.682876362364
31
6.00000069208
0
LINE
8
0
10
2471.791731646755
20
-412.699979785969
30
6.00000069208
11
2470.291731646755
21
-412.699979785966
31
6.00000069208
0
LINE
8
0
10
2279.891731551362
20
-424.299979690191
30
6.00000069208
11
2282.891731551363
21
-424.299979690197
31
6.00000069208
0
LINE
8
0
10
2683.89173155141
20
-401.967929844406
30
6.00000069208
11
2683.409370711567
21
-401.768127445724
31
6.00000069208
0
LINE
8
0
10
2631.89173771912
20
-401.699979786312
30
6.00000069208
11
2631.891737719082
21
-419.699986639709
31
6.00000069208
0
LINE
8
0
10
2282.891731551375
20
-418.599979880932
30
6.00000069208
11
2282.891731551378
21
-417.099979880932
31
6.00000069208
0
LINE
8
0
10
2471.791731646748
20
-415.699979785969
30
6.00000069208
11
2471.791731646746
21
-416.699979785969
31
6.00000069208
0
LINE
8
0
10
2471.791731646746
20
-416.699979785969
30
6.00000069208
11
2475.991731456012
21
-416.699979785978
31
6.00000069208
0
LINE
8
0
10
2279.891731551375
20
-418.599979880925
30
6.00000069208
11
2268.891731551375
21
-418.599979880902
31
6.00000069208
0
LINE
8
0
10
2631.874627441829
20
-419.961039024149
30
6.00000069208
11
2631.823589371659
21
-420.217624729914
31
6.00000069208
0
LINE
8
0
10
2631.305951281452
20
-421.114200202081
30
6.00000069208
11
2631.109260577095
21
-421.28669332029
31
6.00000069208
0
LINE
8
0
10
2586.908848294242
20
-419.961039024053
30
6.00000069208
11
2586.89173801699
21
-419.699986639613
31
6.00000069208
0
LINE
8
0
10
2470.291731646755
20
-412.699979785966
30
6.00000069208
11
2470.291731646749
21
-415.699979785966
31
6.00000069208
0
LINE
8
0
10
2466.39173155142
20
-397.699979785957
30
6.00000069208
11
2466.391731551411
21
-401.699979785957
31
6.00000069208
0
LINE
8
0
10
2456.891731551424
20
-395.699979785937
30
6.00000069208
11
2464.391731551424
21
-395.699979785953
31
6.00000069208
0
LINE
8
0
10
2454.891731551411
20
-401.699979785933
30
6.00000069208
11
2454.89173155142
21
-397.699979785933
31
6.00000069208
0
LINE
8
0
10
2262.89173155139
20
-411.199979785522
30
6.00000069208
11
2262.891731551407
21
-403.699979785522
31
6.00000069208
0
LINE
8
0
10
2268.891731551387
20
-413.199979785535
30
6.00000069208
11
2264.891731551387
21
-413.199979785526
31
6.00000069208
0
LINE
8
0
10
2282.891731551366
20
-422.799979690197
30
6.00000069208
11
2283.891731551366
21
-422.799979690199
31
6.00000069208
0
LINE
8
0
10
2684.623787215471
20
-402.699979786425
30
6.00000069208
11
2684.3059466393
21
-402.285766605882
31
6.00000069208
0
LINE
8
0
10
2684.305946639278
20
-412.614192966966
30
6.00000069208
11
2684.623787215451
21
-412.199979786425
31
6.00000069208
0
LINE
8
0
10
2684.3059466393
20
-402.285766605882
30
6.00000069208
11
2683.89173155141
21
-401.967929844406
31
6.00000069208
0
LINE
8
0
10
2683.409370711567
20
-401.768127445724
30
6.00000069208
11
2682.891731551411
21
-401.699979786421
31
6.00000069208
0
LINE
8
0
10
2684.823585799436
20
-411.717617992907
30
6.00000069208
11
2684.89173155139
21
-411.199979786425
31
6.00000069208
0
LINE
8
0
10
2279.891731551378
20
-417.099979880925
30
6.00000069208
11
2279.891731551375
21
-418.599979880925
31
6.00000069208
0
LINE
8
0
10
2268.891731551375
20
-418.599979880902
30
6.00000069208
11
2268.891731551387
21
-413.199979785535
31
6.00000069208
0
LINE
8
0
10
2663.891731551366
20
-422.799979691013
30
6.00000069208
11
2664.891731551366
21
-422.799979691015
31
6.00000069208
0
LINE
8
0
10
2268.891731551329
20
-439.699979785535
30
6.00000069208
11
2264.89173155133
21
-439.699979785526
31
6.00000069208
0
LINE
8
0
10
2262.891731551334
20
-437.699979785522
30
6.00000069208
11
2262.959877303286
21
-438.217617038329
31
6.00000069208
0
LINE
8
0
10
2667.891731551366
20
-422.799979691021
30
6.00000069208
11
2678.891731551365
21
-422.799979691045
31
6.00000069208
0
LINE
8
0
10
2667.891731551378
20
-417.099979881756
30
6.00000069208
11
2664.891731551378
21
-417.09997988175
31
6.00000069208
0
LINE
8
0
10
2683.409370711486
20
-439.63183212712
30
6.00000069208
11
2683.89173155133
21
-439.432029728439
31
6.00000069208
0
LINE
8
0
10
2682.891731551329
20
-439.699979786421
30
6.00000069208
11
2678.891731551329
21
-439.699979786412
31
6.00000069208
0
LINE
8
0
10
2483.391731551424
20
-395.699979785994
30
6.00000069208
11
2490.891731551424
21
-395.69997978601
31
6.00000069208
0
LINE
8
0
10
2663.891731551375
20
-418.599979881748
30
6.00000069208
11
2663.891731551366
21
-422.799979691013
31
6.00000069208
0
LINE
8
0
10
2664.891731551375
20
-418.59997988175
30
6.00000069208
11
2663.891731551375
21
-418.599979881748
31
6.00000069208
0
LINE
8
0
10
2664.891731551366
20
-422.799979691015
30
6.00000069208
11
2664.891731551363
21
-424.299979691015
31
6.00000069208
0
LINE
8
0
10
2492.891731551411
20
-401.699979786014
30
6.00000069208
11
2586.891738017029
21
-401.699979786215
31
6.00000069208
0
LINE
8
0
10
2664.891731551378
20
-417.09997988175
30
6.00000069208
11
2664.891731551375
21
-418.59997988175
31
6.00000069208
0
LINE
8
0
10
2268.891731551317
20
-445.699979785535
30
6.00000069208
11
2268.891731551329
21
-439.699979785535
31
6.00000069208
0
LINE
8
0
10
2664.891731551363
20
-424.299979691015
30
6.00000069208
11
2667.891731551363
21
-424.299979691021
31
6.00000069208
0
LINE
8
0
10
2678.891731551329
20
-439.699979786412
30
6.00000069208
11
2678.891731551317
21
-445.699979786412
31
6.00000069208
0
LINE
8
0
10
2678.891731551354
20
-428.199979786412
30
6.00000069208
11
2682.891731551354
21
-428.199979786421
31
6.00000069208
0
LINE
8
0
10
2678.891731551317
20
-445.699979786412
30
6.00000069208
11
2268.891731551317
21
-445.699979785535
31
6.00000069208
0
LINE
8
0
10
2283.891731551366
20
-422.799979690199
30
6.00000069208
11
2283.891731551375
21
-418.599979880934
31
6.00000069208
0
LINE
8
0
10
2475.991731456013
20
-415.699979785978
30
6.00000069208
11
2477.491731456013
21
-415.699979785981
31
6.00000069208
0
LINE
8
0
10
2684.891731551407
20
-403.699979786425
30
6.00000069208
11
2684.89173155139
21
-411.199979786425
31
6.00000069208
0
LINE
8
0
10
2678.891731551365
20
-422.799979691045
30
6.00000069208
11
2678.891731551354
21
-428.199979786412
31
6.00000069208
0
LINE
8
0
10
2684.89173155135
20
-430.199979786425
30
6.00000069208
11
2684.891731551334
21
-437.699979786425
31
6.00000069208
0
LINE
8
0
10
2667.891731551363
20
-424.299979691021
30
6.00000069208
11
2667.891731551366
21
-422.799979691021
31
6.00000069208
0
LINE
8
0
10
2475.99173145602
20
-412.699979785978
30
6.00000069208
11
2475.991731456043
21
-401.699979785978
31
6.00000069208
0
LINE
8
0
10
2678.891731551386
20
-413.199979786412
30
6.00000069208
11
2678.891731551375
21
-418.59997988178
31
6.00000069208
0
LINE
8
0
10
2477.49173145602
20
-412.699979785981
30
6.00000069208
11
2475.99173145602
21
-412.699979785978
31
6.00000069208
0
LINE
8
0
10
2682.891731551386
20
-413.199979786421
30
6.00000069208
11
2678.891731551386
21
-413.199979786412
31
6.00000069208
0
LINE
8
0
10
2283.891731551375
20
-418.599979880934
30
6.00000069208
11
2282.891731551375
21
-418.599979880932
31
6.00000069208
0
LINE
8
0
10
2492.89173155142
20
-397.699979786014
30
6.00000069208
11
2492.891731551411
21
-401.699979786014
31
6.00000069208
0
LINE
8
0
10
2667.891731551375
20
-418.599979881756
30
6.00000069208
11
2667.891731551378
21
-417.099979881756
31
6.00000069208
0
LINE
8
0
10
2477.491731456013
20
-415.699979785981
30
6.00000069208
11
2477.49173145602
21
-412.699979785981
31
6.00000069208
0
LINE
8
0
10
2482.874093344942
20
-395.768127445294
30
6.00000069208
11
2482.391731551423
21
-395.967929843975
31
6.00000069208
0
LINE
8
0
10
2263.159675887269
20
-438.699979785522
30
6.00000069208
11
2263.47751646344
21
-439.114192966065
31
6.00000069208
0
LINE
8
0
10
2631.823589371659
20
-420.217624729914
30
6.00000069208
11
2631.739496784103
21
-420.465353504439
31
6.00000069208
0
LINE
8
0
10
2466.123782447113
20
-396.699979785957
30
6.00000069208
11
2465.805944731965
21
-396.285766605414
31
6.00000069208
0
LINE
8
0
10
2263.891731551387
20
-412.932030681215
30
6.00000069208
11
2264.374092391231
21
-413.131831649386
31
6.00000069208
0
LINE
8
0
10
2631.478444399662
20
-420.917509497726
30
6.00000069208
11
2631.305951281452
21
-421.114200202081
31
6.00000069208
0
LINE
8
0
10
2482.391731551423
20
-395.967929843975
30
6.00000069208
11
2481.977518370881
21
-396.285766605449
31
6.00000069208
0
LINE
8
0
10
2684.89173155135
20
-430.199979786425
30
6.00000069208
11
2684.823585799398
21
-429.682341579943
31
6.00000069208
0
LINE
8
0
10
2264.374092391255
20
-401.768127444826
30
6.00000069208
11
2263.89173155141
21
-401.967929843507
31
6.00000069208
0
LINE
8
0
10
2263.89173155141
20
-401.967929843507
30
6.00000069208
11
2263.477516463519
21
-402.285766604981
31
6.00000069208
0
LINE
8
0
10
2491.891731551423
20
-395.967929843995
30
6.00000069208
11
2491.409368804231
21
-395.768127445313
31
6.00000069208
0
LINE
8
0
10
2263.159675887326
20
-412.199979785522
30
6.00000069208
11
2263.477516463497
21
-412.614192966065
31
6.00000069208
0
LINE
8
0
10
2456.891731551424
20
-395.699979785937
30
6.00000069208
11
2456.374094298616
21
-395.768127445238
31
6.00000069208
0
LINE
8
0
10
2684.623787215415
20
-429.199979786425
30
6.00000069208
11
2684.305946639243
21
-428.785766605882
31
6.00000069208
0
LINE
8
0
10
2588.374099926781
20
-421.631838292194
30
6.00000069208
11
2588.126371152256
21
-421.547745704638
31
6.00000069208
0
LINE
8
0
10
2264.891731551411
20
-401.699979785526
30
6.00000069208
11
2264.374092391255
21
-401.768127444826
31
6.00000069208
0
LINE
8
0
10
2483.391731551424
20
-395.699979785994
30
6.00000069208
11
2482.874093344942
21
-395.768127445294
31
6.00000069208
0
LINE
8
1
10
2684.478438228828
20
-469.217502807334
30
6.00000068042
11
2684.623782362157
21
-468.999979953554
31
6.000000677179
0
LINE
8
1
10
2684.305945104883
20
-469.41419350666
30
6.000000683351
11
2684.478438228828
21
-469.217502807334
31
6.00000068042
0
LINE
8
1
10
2683.152783910369
20
-469.982869633409
30
6.000000691825
11
2683.409369617622
21
-469.931831570721
31
6.000000691065
0
LINE
8
1
10
2682.89173152543
20
-469.99997990305
30
6.00000069208
11
2683.152783910369
21
-469.982869633409
31
6.000000691825
0
LINE
8
1
10
2678.891731551329
20
-469.999979786412
30
6.00000069208
11
2682.89173152543
21
-469.99997990305
31
6.00000069208
0
LINE
8
1
10
2684.109254395498
20
-469.586686619134
30
6.000000685921
11
2684.305945104883
21
-469.41419350666
31
6.000000683351
0
LINE
8
1
10
2683.891731533243
20
-469.732030739777
30
6.000000688087
11
2684.109254395498
21
-469.586686619134
31
6.000000685921
0
LINE
8
1
10
2683.657098394599
20
-469.847738990389
30
6.000000689812
11
2683.891731533243
21
-469.732030739777
31
6.000000688087
0
LINE
8
1
10
2683.409369617622
20
-469.931831570721
30
6.000000691065
11
2683.657098394599
21
-469.847738990389
31
6.000000689812
0
LINE
8
1
10
2264.126363800694
20
-469.847726894565
30
6.000000056154
11
2263.891730665276
21
-469.732018637414
31
6.000000060386
0
LINE
8
1
10
2684.82358349927
20
-458.982343121865
30
6.000000527901
11
2684.739490918938
21
-458.734614347376
31
6.00000052421
0
LINE
8
1
10
2684.623782668326
20
-458.499981212156
30
6.000000520714
11
2684.478438547682
21
-458.282458354202
31
6.000000517472
0
LINE
8
1
10
2684.109254735883
20
-457.913274531797
30
6.000000511971
11
2683.891731882103
21
-457.767930404905
31
6.000000509805
0
LINE
8
1
10
2264.630678281159
20
-469.982857551641
30
6.000000051213
11
2264.891730665621
21
-469.999967828557
31
6.000000050587
0
LINE
8
1
10
2264.374092575328
20
-469.931819481802
30
6.00000005308
11
2264.126363800694
21
-469.847726894565
31
6.000000056154
0
LINE
8
1
10
2684.305945435208
20
-458.085767649921
30
6.000000514541
11
2684.109254735883
21
-457.913274531797
31
6.000000511971
0
LINE
8
1
10
2477.891731266624
20
-451.499981126636
30
6.000001036724
11
2469.891731266624
21
-451.49998112299
31
6.00000103676
0
LINE
8
1
10
2479.623782074708
20
-452.499981126416
30
6.000000948384
11
2479.47843794761
21
-452.282458268417
31
6.000000967599
0
LINE
8
1
10
2263.305023984031
20
-469.217490688618
30
6.0000000792
11
2263.159679856764
21
-468.999967830788
31
6.000000087155
0
LINE
8
1
10
2262.959879011133
20
-468.51760592125
30
6.000000104793
11
2262.908840940633
21
-468.261020215551
31
6.000000114176
0
LINE
8
1
10
2468.891731266762
20
-451.767930315548
30
6.000001013096
11
2469.126364401972
21
-451.652222058065
31
6.000001023315
0
LINE
8
1
10
2478.409369356864
20
-451.568129473992
30
6.000001030702
11
2478.152783651072
21
-451.517091403856
31
6.000001035212
0
LINE
8
1
10
2262.908840929012
20
-459.23892865254
30
6.000000444089
11
2262.891730652096
21
-459.499981036987
31
6.000000434543
0
LINE
8
1
10
2479.874620990268
20
-453.238928741944
30
6.000000883109
11
2479.823582919966
21
-452.982343036186
31
6.000000905774
0
LINE
8
1
10
2467.891731269718
20
-457.499981123244
30
6.000000506772
11
2467.891731267655
21
-453.499981123244
31
6.000000860103
0
LINE
8
1
10
2263.477517102493
20
-469.414181392752
30
6.000000072008
11
2263.305023984031
21
-469.217490688618
31
6.0000000792
0
LINE
8
1
10
2467.891731267655
20
-453.499981123244
30
6.000000860103
11
2467.908841544773
21
-453.238928738802
31
6.000000883163
0
LINE
8
1
10
2684.874621561958
20
-459.238928827608
30
6.000000531725
11
2684.82358349927
21
-458.982343121865
31
6.000000527901
0
LINE
8
1
10
2683.409369978134
20
-457.568129560105
30
6.000000506828
11
2683.152784273857
21
-457.517091490047
31
6.000000506067
0
LINE
8
1
10
2263.891730665276
20
-469.732018637414
30
6.000000060386
11
2263.674207807071
21
-469.586674510708
31
6.0000000657
0
LINE
8
1
10
2469.891731266624
20
-451.49998112299
30
6.00000103676
11
2469.630678882192
21
-451.517091400276
31
6.00000103525
0
LINE
8
1
10
2468.674208408819
20
-451.913274442562
30
6.000001000258
11
2468.891731266762
21
-451.767930315548
31
6.000001013096
0
LINE
8
1
10
2263.159679856764
20
-468.999967830788
30
6.000000087155
11
2263.043971599008
21
-468.765334695667
31
6.000000095735
0
LINE
8
1
10
2479.739490332283
20
-452.734614261671
30
6.000000927657
11
2479.623782074708
21
-452.499981126416
31
6.000000948384
0
LINE
8
1
10
2479.109254124854
20
-451.913274445899
30
6.000001000211
11
2478.891731266762
21
-451.76793031894
31
6.000001013051
0
LINE
8
1
10
2684.478438547682
20
-458.282458354202
30
6.000000517472
11
2684.305945435208
21
-458.085767649921
31
6.000000514541
0
LINE
8
1
10
2469.126364401972
20
-451.652222058065
30
6.000001023315
11
2469.374093176454
21
-451.568129470478
31
6.000001030742
0
LINE
8
1
10
2478.657098131432
20
-451.652222061516
30
6.000001023273
11
2478.409369356864
21
-451.568129473992
31
6.000001030702
0
LINE
8
1
10
2468.043972202237
20
-452.734614258495
30
6.00000092771
11
2468.159680459571
21
-452.49998112321
31
6.000000948435
0
LINE
8
1
10
2478.891731266762
20
-451.76793031894
30
6.000001013051
11
2478.657098131432
21
-451.652222061516
31
6.000001023273
0
LINE
8
1
10
2478.152783651072
20
-451.517091403856
30
6.000001035212
11
2477.891731266624
21
-451.499981126636
31
6.000001036724
0
LINE
8
1
10
2479.305944829299
20
-452.085767564083
30
6.000000984974
11
2479.109254124854
21
-451.913274445899
31
6.000001000211
0
LINE
8
1
10
2469.374093176454
20
-451.568129470478
30
6.000001030742
11
2469.630678882192
21
-451.517091400276
31
6.00000103525
0
LINE
8
1
10
2468.477517704552
20
-452.085767560797
30
6.000000985022
11
2468.674208408819
21
-451.913274442562
31
6.000001000258
0
LINE
8
1
10
2468.305024586444
20
-452.282458265174
30
6.000000967649
11
2468.477517704552
21
-452.085767560797
31
6.000000985022
0
LINE
8
1
10
2468.159680459571
20
-452.49998112321
30
6.000000948435
11
2468.305024586444
21
-452.282458265174
31
6.000000967649
0
LINE
8
1
10
2467.95987961481
20
-452.982343033031
30
6.000000905827
11
2468.043972202237
21
-452.734614258495
31
6.00000092771
0
LINE
8
1
10
2467.908841544773
20
-453.238928738802
30
6.000000883163
11
2467.95987961481
21
-452.982343033031
31
6.000000905827
0
LINE
8
1
10
2467.891731269718
20
-457.499981123244
30
6.000000506772
11
2264.89173064952
21
-457.49998103612
31
6.000000507678
0
LINE
8
1
10
2264.89173064952
20
-457.49998103612
30
6.000000507678
11
2264.630678265102
21
-457.517091313486
31
6.000000507052
0
LINE
8
1
10
2264.374092559402
20
-457.568129383767
30
6.000000505186
11
2264.630678265102
21
-457.517091313486
31
6.000000507052
0
LINE
8
1
10
2264.126363784986
20
-457.652221971429
30
6.000000502111
11
2264.374092559402
21
-457.568129383767
31
6.000000505186
0
LINE
8
1
10
2263.891730649865
20
-457.767930228985
30
6.00000049788
11
2264.126363784986
21
-457.652221971429
31
6.000000502111
0
LINE
8
1
10
2263.674207792035
20
-457.913274356066
30
6.000000492565
11
2263.891730649865
21
-457.767930228985
31
6.00000049788
0
LINE
8
1
10
2263.477517087901
20
-458.08576747436
30
6.000000486257
11
2263.674207792035
21
-457.913274356066
31
6.000000492565
0
LINE
8
1
10
2263.305023969945
20
-458.282458178791
30
6.000000479065
11
2263.477517087901
21
-458.08576747436
31
6.000000486257
0
LINE
8
1
10
2263.159679843239
20
-458.499981036871
30
6.000000471111
11
2263.305023969945
21
-458.282458178791
31
6.000000479065
0
LINE
8
1
10
2263.043971586088
20
-458.734614172191
30
6.000000462531
11
2263.159679843239
21
-458.499981036871
31
6.000000471111
0
LINE
8
1
10
2262.959878998851
20
-458.982342946753
30
6.000000453472
11
2263.043971586088
21
-458.734614172191
31
6.000000462531
0
LINE
8
1
10
2262.908840929012
20
-459.23892865254
30
6.000000444089
11
2262.959878998851
21
-458.982342946753
31
6.000000453472
0
LINE
8
1
10
2262.891730652096
20
-459.499981036987
30
6.000000434543
11
2262.891730663045
21
-467.999967831133
31
6.000000123722
0
LINE
8
1
10
2262.891730663045
20
-467.999967831133
30
6.000000123722
11
2262.908840940633
21
-468.261020215551
31
6.000000114176
0
LINE
8
1
10
2263.043971599008
20
-468.765334695667
30
6.000000095735
11
2262.959879011133
21
-468.51760592125
31
6.000000104793
0
LINE
8
1
10
2263.674207807071
20
-469.586674510708
30
6.0000000657
11
2263.477517102493
21
-469.414181392752
31
6.000000072008
0
LINE
8
1
10
2264.630678281159
20
-469.982857551641
30
6.000000051213
11
2264.374092575328
21
-469.931819481802
31
6.00000005308
0
LINE
8
1
10
2264.891730665621
20
-469.999967828557
30
6.000000050587
11
2268.891730665621
21
-469.999967823405
31
6.000000050587
0
LINE
8
1
10
2268.891730665621
20
-469.999967823405
30
6.000000050587
11
2268.891730668841
21
-472.499981029259
31
5.999999187138
0
LINE
8
1
10
2678.891731935138
20
-472.499981037085
30
5.999999185272
11
2268.891730668841
21
-472.499981029259
31
5.999999187138
0
LINE
8
1
10
2678.891731551329
20
-469.999979786412
30
6.00000069208
11
2678.891731935138
21
-472.499981037085
31
5.999999185272
0
LINE
8
1
10
2684.623782362157
20
-468.999979953554
30
6.000000677179
11
2684.739490626453
21
-468.765346821659
31
6.000000673682
0
LINE
8
1
10
2684.739490626453
20
-468.765346821659
30
6.000000673682
11
2684.823583221232
21
-468.517618049586
31
6.000000669991
0
LINE
8
1
10
2684.823583221232
20
-468.517618049586
30
6.000000669991
11
2684.874621298883
21
-468.261032345309
31
6.000000666167
0
LINE
8
1
10
2684.891731583748
20
-467.999979961368
30
6.000000662277
11
2684.874621298883
21
-468.261032345309
31
6.000000666167
0
LINE
8
1
10
2684.891731831598
20
-459.49998121204
30
6.000000535615
11
2684.891731583748
21
-467.999979961368
31
6.000000662277
0
LINE
8
1
10
2684.874621561958
20
-459.238928827608
30
6.000000531725
11
2684.891731831598
21
-459.49998121204
31
6.000000535615
0
LINE
8
1
10
2684.739490918938
20
-458.734614347376
30
6.00000052421
11
2684.623782668326
21
-458.499981212156
31
6.000000520714
0
LINE
8
1
10
2683.891731882103
20
-457.767930404905
30
6.000000509805
11
2683.657098750207
21
-457.652222147553
31
6.000000508081
0
LINE
8
1
10
2683.657098750207
20
-457.652222147553
30
6.000000508081
11
2683.409369978134
21
-457.568129560105
31
6.000000506828
0
LINE
8
1
10
2683.152784273857
20
-457.517091490047
30
6.000000506067
11
2682.891731889916
21
-457.499981212908
31
6.000000505812
0
LINE
8
1
10
2682.891731889916
20
-457.499981212908
30
6.000000505812
11
2479.891731269718
21
-457.499981126382
31
6.000000506718
0
LINE
8
1
10
2479.891731269718
20
-457.499981126382
30
6.000000506718
11
2479.891731267655
21
-453.499981126382
31
6.00000086005
0
LINE
8
1
10
2479.891731267655
20
-453.499981126382
30
6.00000086005
11
2479.874620990268
21
-453.238928741944
31
6.000000883109
0
LINE
8
1
10
2479.823582919966
20
-452.982343036186
30
6.000000905774
11
2479.739490332283
21
-452.734614261671
31
6.000000927657
0
LINE
8
1
10
2479.47843794761
20
-452.282458268417
30
6.000000967599
11
2479.305944829299
21
-452.085767564083
31
6.000000984974
0
LINE
8
2
10
2682.891727845727
20
-500.699986010948
30
5.999999463977
11
2683.152780230666
21
-500.682875741308
31
5.999999463722
0
LINE
8
2
10
2263.674204112333
20
-488.613280463965
30
5.999999264462
11
2263.891726970162
21
-488.467936336884
31
5.999999269777
0
LINE
8
2
10
2479.891727590016
20
-488.199987234281
30
5.999999278615
11
2479.891727587953
21
-484.199987234281
31
5.999999631946
0
LINE
8
2
10
2684.623778988624
20
-489.199987320055
30
5.99999929261
11
2684.47843486798
21
-488.982464462101
31
5.999999289369
0
LINE
8
2
10
2264.891726985918
20
-500.699973936456
30
5.999998822484
11
2268.891726985918
21
-500.699973931303
31
5.999998822484
0
LINE
8
2
10
2263.674204127369
20
-500.286680618607
30
5.999998837597
11
2263.477513422791
21
-500.11418750065
31
5.999998843905
0
LINE
8
2
10
2468.891727587059
20
-482.467936423447
30
5.999999784992
11
2469.12636072227
21
-482.352228165964
31
5.999999795212
0
LINE
8
2
10
2467.891727587953
20
-484.199987231143
30
5.999999632
11
2467.90883786507
21
-483.938934846701
31
5.999999655059
0
LINE
8
2
10
2678.891728255435
20
-503.199987144984
30
5.999997957169
11
2268.891726989139
21
-503.199987137158
31
5.999997959034
0
LINE
8
2
10
2683.89172785354
20
-500.432036847676
30
5.999999459984
11
2684.109250715796
21
-500.286692727033
31
5.999999457818
0
LINE
8
2
10
2467.891727590016
20
-488.199987231143
30
5.999999278669
11
2467.891727587953
21
-484.199987231143
31
5.999999632
0
LINE
8
2
10
2684.891728151896
20
-490.199987319939
30
5.999999307512
11
2684.891727904045
21
-498.699986069267
31
5.999999434174
0
LINE
8
2
10
2263.891726985573
20
-500.432024745313
30
5.999998832282
11
2263.674204127369
21
-500.286680618607
31
5.999998837597
0
LINE
8
2
10
2263.477513422791
20
-500.11418750065
30
5.999998843905
11
2263.305020304329
21
-499.917496796517
31
5.999998851097
0
LINE
8
2
10
2469.374089496751
20
-482.268135578377
30
5.999999802639
11
2469.63067520249
21
-482.217097508175
31
5.999999807146
0
LINE
8
2
10
2683.409366298432
20
-488.268135668004
30
5.999999278724
11
2683.152780594155
21
-488.217097597946
31
5.999999277964
0
LINE
8
2
10
2467.891727590016
20
-488.199987231143
30
5.999999278669
11
2264.891726969818
21
-488.199987144019
31
5.999999279575
0
LINE
8
2
10
2263.477513408199
20
-488.785773582259
30
5.999999258154
11
2263.674204112333
21
-488.613280463965
31
5.999999264462
0
LINE
8
2
10
2678.891727871627
20
-500.699985894311
30
5.999999463977
11
2682.891727845727
21
-500.699986010948
31
5.999999463977
0
LINE
8
2
10
2264.891726969818
20
-488.199987144019
30
5.999999279575
11
2264.630674585399
21
-488.217097421385
31
5.999999278949
0
LINE
8
2
10
2682.891728210214
20
-488.199987320806
30
5.999999277709
11
2479.891727590016
21
-488.199987234281
31
5.999999278615
0
LINE
8
2
10
2264.630674601457
20
-500.68286365954
30
5.99999882311
11
2264.374088895626
21
-500.631825589701
31
5.999998824976
0
LINE
8
2
10
2262.891726983343
20
-498.699973939032
30
5.999998895619
11
2262.908837260931
21
-498.96102632345
31
5.999998886073
0
LINE
8
2
10
2262.959875319149
20
-489.682349054652
30
5.999999225369
11
2263.043967906385
21
-489.43462028009
31
5.999999234428
0
LINE
8
2
10
2264.3740888797
20
-488.268135491665
30
5.999999277083
11
2264.630674585399
21
-488.217097421385
31
5.999999278949
0
LINE
8
2
10
2683.152780230666
20
-500.682875741308
30
5.999999463722
11
2683.40936593792
21
-500.63183767862
31
5.999999462961
0
LINE
8
2
10
2263.159676177062
20
-499.699973938687
30
5.999998859052
11
2263.043967919306
21
-499.465340803566
31
5.999998867631
0
LINE
8
2
10
2684.874617882256
20
-489.938934935506
30
5.999999303622
11
2684.891728151896
21
-490.199987319939
31
5.999999307512
0
LINE
8
2
10
2268.891726985918
20
-500.699973931303
30
5.999998822484
11
2268.891726989139
21
-503.199987137158
31
5.999997959034
0
LINE
8
2
10
2263.159676163536
20
-489.19998714477
30
5.999999243008
11
2263.305020290243
21
-488.98246428669
31
5.999999250962
0
LINE
8
2
10
2264.374088895626
20
-500.631825589701
30
5.999998824976
11
2264.126360120992
21
-500.547733002464
31
5.999998828051
0
LINE
8
2
10
2468.674204729117
20
-482.613280550461
30
5.999999772155
11
2468.891727587059
21
-482.467936423447
31
5.999999784992
0
LINE
8
2
10
2264.126360120992
20
-500.547733002464
30
5.999998828051
11
2263.891726985573
21
-500.432024745313
31
5.999998832282
0
LINE
8
2
10
2264.630674601457
20
-500.68286365954
30
5.99999882311
11
2264.891726985918
21
-500.699973936456
31
5.999998822484
0
LINE
8
2
10
2684.874617882256
20
-489.938934935506
30
5.999999303622
11
2684.823579819568
21
-489.682349229764
31
5.999999299798
0
LINE
8
2
10
2469.12636072227
20
-482.352228165964
30
5.999999795212
11
2469.374089496751
21
-482.268135578377
31
5.999999802639
0
LINE
8
2
10
2468.043968522535
20
-483.434620366394
30
5.999999699606
11
2468.159676779868
21
-483.199987231109
31
5.999999720332
0
LINE
8
2
10
2477.891727586921
20
-482.199987234535
30
5.999999808621
11
2469.891727586921
21
-482.199987230889
31
5.999999808657
0
LINE
8
2
10
2684.10925105618
20
-488.613280639696
30
5.999999283868
11
2683.891728202401
21
-488.467936512804
31
5.999999281702
0
LINE
8
2
10
2263.043967906385
20
-489.43462028009
30
5.999999234428
11
2263.159676163536
21
-489.19998714477
31
5.999999243008
0
LINE
8
2
10
2684.623778682455
20
-499.699986061453
30
5.999999449075
11
2684.73948694675
21
-499.465352929558
31
5.999999445579
0
LINE
8
2
10
2684.73948694675
20
-499.465352929558
30
5.999999445579
11
2684.823579541529
21
-499.217624157484
31
5.999999441888
0
LINE
8
2
10
2684.478434549126
20
-499.917508915233
30
5.999999452317
11
2684.623778682455
21
-499.699986061453
31
5.999999449075
0
LINE
8
2
10
2262.891726972394
20
-490.199987144886
30
5.99999920644
11
2262.891726983343
21
-498.699973939032
31
5.999998895619
0
LINE
8
2
10
2263.305020304329
20
-499.917496796517
30
5.999998851097
11
2263.159676177062
21
-499.699973938687
31
5.999998859052
0
LINE
8
2
10
2469.891727586921
20
-482.199987230889
30
5.999999808657
11
2469.63067520249
21
-482.217097508175
31
5.999999807146
0
LINE
8
2
10
2683.657094714897
20
-500.547745098288
30
5.999999461708
11
2683.89172785354
21
-500.432036847676
31
5.999999459984
0
LINE
8
2
10
2684.305941755506
20
-488.78577375782
30
5.999999286438
11
2684.10925105618
21
-488.613280639696
31
5.999999283868
0
LINE
8
2
10
2683.152780594155
20
-488.217097597946
30
5.999999277964
11
2682.891728210214
21
-488.199987320806
31
5.999999277709
0
LINE
8
2
10
2263.043967919306
20
-499.465340803566
30
5.999998867631
11
2262.959875331431
21
-499.217612029149
31
5.99999887669
0
LINE
8
2
10
2684.823579541529
20
-499.217624157484
30
5.999999441888
11
2684.874617619181
21
-498.961038453208
31
5.999999438064
0
LINE
8
2
10
2683.891728202401
20
-488.467936512804
30
5.999999281702
11
2683.657095070505
21
-488.352228255452
31
5.999999279978
0
LINE
8
2
10
2684.739487239236
20
-489.434620455275
30
5.999999296107
11
2684.623778988624
21
-489.199987320055
31
5.99999929261
0
LINE
8
2
10
2479.891727587953
20
-484.199987234281
30
5.999999631946
11
2479.874617310566
21
-483.938934849843
31
5.999999655006
0
LINE
8
2
10
2262.90883724931
20
-489.938934760439
30
5.999999215986
11
2262.959875319149
21
-489.682349054652
31
5.999999225369
0
LINE
8
2
10
2684.47843486798
20
-488.982464462101
30
5.999999289369
11
2684.305941755506
21
-488.78577375782
31
5.999999286438
0
LINE
8
2
10
2262.959875331431
20
-499.217612029149
30
5.99999887669
11
2262.908837260931
21
-498.96102632345
31
5.999998886073
0
LINE
8
2
10
2683.657095070505
20
-488.352228255452
30
5.999999279978
11
2683.409366298432
21
-488.268135668004
31
5.999999278724
0
LINE
8
2
10
2684.305941425181
20
-500.114199614559
30
5.999999455248
11
2684.478434549126
21
-499.917508915233
31
5.999999452317
0
LINE
8
2
10
2678.891727871627
20
-500.699985894311
30
5.999999463977
11
2678.891728255435
21
-503.199987144984
31
5.999997957169
0
LINE
8
2
10
2262.90883724931
20
-489.938934760439
30
5.999999215986
11
2262.891726972394
21
-490.199987144886
31
5.99999920644
0
LINE
8
2
10
2684.823579819568
20
-489.682349229764
30
5.999999299798
11
2684.739487239236
21
-489.434620455275
31
5.999999296107
0
LINE
8
2
10
2263.891726970162
20
-488.467936336884
30
5.999999269777
11
2264.126360105283
21
-488.352228079328
31
5.999999274008
0
LINE
8
2
10
2683.40936593792
20
-500.63183767862
30
5.999999462961
11
2683.657094714897
21
-500.547745098288
31
5.999999461708
0
LINE
8
2
10
2684.109250715796
20
-500.286692727033
30
5.999999457818
11
2684.305941425181
21
-500.114199614559
31
5.999999455248
0
LINE
8
2
10
2263.305020290243
20
-488.98246428669
30
5.999999250962
11
2263.477513408199
21
-488.785773582259
31
5.999999258154
0
LINE
8
2
10
2264.126360105283
20
-488.352228079328
30
5.999999274008
11
2264.3740888797
21
-488.268135491665
31
5.999999277083
0
LINE
8
2
10
2684.891727904045
20
-498.699986069267
30
5.999999434174
11
2684.874617619181
21
-498.961038453208
31
5.999999438064
0
LINE
8
2
10
2479.623778395006
20
-483.199987234315
30
5.99999972028
11
2479.478434267907
21
-482.982464376316
31
5.999999739496
0
LINE
8
2
10
2479.109250445152
20
-482.613280553798
30
5.999999772108
11
2478.891727587059
21
-482.467936426839
31
5.999999784948
0
LINE
8
2
10
2468.47751402485
20
-482.785773668696
30
5.999999756919
11
2468.674204729117
21
-482.613280550461
31
5.999999772155
0
LINE
8
2
10
2468.305020906742
20
-482.982464373073
30
5.999999739545
11
2468.47751402485
21
-482.785773668696
31
5.999999756919
0
LINE
8
2
10
2468.159676779868
20
-483.199987231109
30
5.999999720332
11
2468.305020906742
21
-482.982464373073
31
5.999999739545
0
LINE
8
2
10
2467.959875935107
20
-483.68234914093
30
5.999999677724
11
2468.043968522535
21
-483.434620366394
31
5.999999699606
0
LINE
8
2
10
2467.90883786507
20
-483.938934846701
30
5.999999655059
11
2467.959875935107
21
-483.68234914093
31
5.999999677724
0
LINE
8
2
10
2479.874617310566
20
-483.938934849843
30
5.999999655006
11
2479.823579240264
21
-483.682349144085
31
5.999999677671
0
LINE
8
2
10
2479.823579240264
20
-483.682349144085
30
5.999999677671
11
2479.739486652581
21
-483.43462036957
31
5.999999699554
0
LINE
8
2
10
2479.739486652581
20
-483.43462036957
30
5.999999699554
11
2479.623778395006
21
-483.199987234315
31
5.99999972028
0
LINE
8
2
10
2479.478434267907
20
-482.982464376316
30
5.999999739496
11
2479.305941149596
21
-482.785773671982
31
5.999999756871
0
LINE
8
2
10
2479.305941149596
20
-482.785773671982
30
5.999999756871
11
2479.109250445152
21
-482.613280553798
31
5.999999772108
0
LINE
8
2
10
2478.891727587059
20
-482.467936426839
30
5.999999784948
11
2478.65709445173
21
-482.352228169415
31
5.99999979517
0
LINE
8
2
10
2478.65709445173
20
-482.352228169415
30
5.99999979517
11
2478.409365677162
21
-482.268135581891
31
5.999999802599
0
LINE
8
2
10
2478.409365677162
20
-482.268135581891
30
5.999999802599
11
2478.15277997137
21
-482.217097511755
31
5.999999807109
0
LINE
8
2
10
2478.15277997137
20
-482.217097511755
30
5.999999807109
11
2477.891727586921
21
-482.199987234535
31
5.999999808621
0
LINE
8
3
10
2683.891731551354
20
-544.767931252598
30
6.00000069209
11
2683.40937071151
21
-544.568130284427
31
6.00000069209
0
LINE
8
3
10
2684.623787215415
20
-545.49998214829
30
6.00000069209
11
2684.305946639243
21
-545.085768967748
31
6.00000069209
0
LINE
8
3
10
2684.823585799398
20
-545.982343941809
30
6.00000069209
11
2684.623787215415
21
-545.49998214829
31
6.00000069209
0
LINE
8
3
10
2684.89173155135
20
-546.499982148291
30
6.00000069209
11
2684.891731551334
21
-553.999982148291
31
6.00000069209
0
LINE
8
3
10
2682.891731551329
20
-555.999982148287
30
6.00000069209
11
2683.409370711486
21
-555.931834488986
31
6.00000069209
0
LINE
8
3
10
2678.891731551354
20
-544.499982148278
30
6.00000069209
11
2682.891731551354
21
-544.499982148287
31
6.00000069209
0
LINE
8
3
10
2683.409370711486
20
-555.931834488986
30
6.00000069209
11
2683.89173155133
21
-555.732032090305
31
6.00000069209
0
LINE
8
3
10
2684.305946639243
20
-545.085768967748
30
6.00000069209
11
2683.891731551354
21
-544.767931252598
31
6.00000069209
0
LINE
8
3
10
2684.305946639221
20
-555.414195328832
30
6.00000069209
11
2684.623787215394
21
-554.99998214829
31
6.00000069209
0
LINE
8
3
10
2684.89173155135
20
-546.499982148291
30
6.00000069209
11
2684.823585799398
21
-545.982343941809
31
6.00000069209
0
LINE
8
3
10
2684.623787215394
20
-554.99998214829
30
6.00000069209
11
2684.82358579938
21
-554.517619401098
31
6.00000069209
0
LINE
8
3
10
2678.891731551366
20
-539.09998205291
30
6.00000069209
11
2678.891731551354
21
-544.499982148278
31
6.00000069209
0
LINE
8
3
10
2667.891731551366
20
-539.099982052887
30
6.00000069209
11
2678.891731551366
21
-539.09998205291
31
6.00000069209
0
LINE
8
3
10
2667.891731551363
20
-540.599982052887
30
6.00000069209
11
2667.891731551366
21
-539.099982052887
31
6.00000069209
0
LINE
8
3
10
2684.82358579938
20
-554.517619401098
30
6.00000069209
11
2684.891731551334
21
-553.999982148291
31
6.00000069209
0
LINE
8
3
10
2683.40937071151
20
-544.568130284427
30
6.00000069209
11
2682.891731551354
21
-544.499982148287
31
6.00000069209
0
LINE
8
3
10
2664.891731551363
20
-540.59998205288
30
6.00000069209
11
2667.891731551363
21
-540.599982052887
31
6.00000069209
0
LINE
8
3
10
2664.891731551366
20
-539.099982052881
30
6.00000069209
11
2664.891731551363
21
-540.59998205288
31
6.00000069209
0
LINE
8
3
10
2263.477516463497
20
-528.914195327931
30
6.00000069209
11
2263.891731551387
21
-529.23203304308
31
6.00000069209
0
LINE
8
3
10
2263.891731551387
20
-529.23203304308
30
6.00000069209
11
2264.374092391231
21
-529.431834011251
31
6.00000069209
0
LINE
8
3
10
2264.374092391231
20
-529.431834011251
30
6.00000069209
11
2264.891731551386
21
-529.499982147392
31
6.00000069209
0
LINE
8
3
10
2268.891731551386
20
-529.4999821474
30
6.00000069209
11
2264.891731551386
21
-529.499982147392
31
6.00000069209
0
LINE
8
3
10
2268.891731551375
20
-534.899982242767
30
6.00000069209
11
2268.891731551386
21
-529.4999821474
31
6.00000069209
0
LINE
8
3
10
2279.891731551375
20
-534.899982242791
30
6.00000069209
11
2268.891731551375
21
-534.899982242767
31
6.00000069209
0
LINE
8
3
10
2279.891731551378
20
-533.399982242791
30
6.00000069209
11
2279.891731551375
21
-534.899982242791
31
6.00000069209
0
LINE
8
3
10
2282.891731551378
20
-533.399982242798
30
6.00000069209
11
2279.891731551378
21
-533.399982242791
31
6.00000069209
0
LINE
8
3
10
2282.891731551375
20
-534.899982242797
30
6.00000069209
11
2282.891731551378
21
-533.399982242798
31
6.00000069209
0
LINE
8
3
10
2283.891731551375
20
-534.8999822428
30
6.00000069209
11
2282.891731551375
21
-534.899982242797
31
6.00000069209
0
LINE
8
3
10
2283.891731551366
20
-539.099982052065
30
6.00000069209
11
2283.891731551375
21
-534.8999822428
31
6.00000069209
0
LINE
8
3
10
2282.891731551366
20
-539.099982052063
30
6.00000069209
11
2283.891731551366
21
-539.099982052065
31
6.00000069209
0
LINE
8
3
10
2282.891731551363
20
-540.599982052063
30
6.00000069209
11
2282.891731551366
21
-539.099982052063
31
6.00000069209
0
LINE
8
3
10
2279.891731551362
20
-540.599982052056
30
6.00000069209
11
2282.891731551363
21
-540.599982052063
31
6.00000069209
0
LINE
8
3
10
2279.891731551366
20
-539.099982052056
30
6.00000069209
11
2279.891731551362
21
-540.599982052056
31
6.00000069209
0
LINE
8
3
10
2268.891731551366
20
-539.099982052033
30
6.00000069209
11
2279.891731551366
21
-539.099982052056
31
6.00000069209
0
LINE
8
3
10
2268.891731551354
20
-544.4999821474
30
6.00000069209
11
2268.891731551366
21
-539.099982052033
31
6.00000069209
0
LINE
8
3
10
2264.891731551354
20
-544.499982147392
30
6.00000069209
11
2268.891731551354
21
-544.4999821474
31
6.00000069209
0
LINE
8
3
10
2264.891731551354
20
-544.499982147392
30
6.00000069209
11
2264.374092391198
21
-544.568130283529
31
6.00000069209
0
LINE
8
3
10
2263.891731551354
20
-544.767931251699
30
6.00000069209
11
2263.477516463463
21
-545.085768966846
31
6.00000069209
0
LINE
8
3
10
2263.15967588729
20
-545.499982147388
30
6.00000069209
11
2262.959877303304
21
-545.982343940905
31
6.00000069209
0
LINE
8
3
10
2262.959877303304
20
-545.982343940905
30
6.00000069209
11
2262.89173155135
21
-546.499982147387
31
6.00000069209
0
LINE
8
3
10
2262.891731551334
20
-553.999982147387
30
6.00000069209
11
2262.89173155135
21
-546.499982147387
31
6.00000069209
0
LINE
8
3
10
2262.891731551334
20
-553.999982147387
30
6.00000069209
11
2262.959877303286
21
-554.517619400195
31
6.00000069209
0
LINE
8
3
10
2262.959877303286
20
-554.517619400195
30
6.00000069209
11
2263.159675887269
21
-554.999982147388
31
6.00000069209
0
LINE
8
3
10
2263.159675887269
20
-554.999982147388
30
6.00000069209
11
2263.47751646344
21
-555.414195327931
31
6.00000069209
0
LINE
8
3
10
2263.47751646344
20
-555.414195327931
30
6.00000069209
11
2263.89173155133
21
-555.732032089406
31
6.00000069209
0
LINE
8
3
10
2263.89173155133
20
-555.732032089406
30
6.00000069209
11
2264.374092391174
21
-555.931834488089
31
6.00000069209
0
LINE
8
3
10
2268.891731551329
20
-555.9999821474
30
6.00000069209
11
2264.89173155133
21
-555.999982147392
31
6.00000069209
0
LINE
8
3
10
2268.891731551317
20
-561.9999821474
30
6.00000069209
11
2268.891731551329
21
-555.9999821474
31
6.00000069209
0
LINE
8
3
10
2678.891731551317
20
-561.999982148278
30
6.00000069209
11
2268.891731551317
21
-561.9999821474
31
6.00000069209
0
LINE
8
3
10
2678.891731551329
20
-555.999982148278
30
6.00000069209
11
2678.891731551317
21
-561.999982148278
31
6.00000069209
0
LINE
8
3
10
2682.891731551329
20
-555.999982148287
30
6.00000069209
11
2678.891731551329
21
-555.999982148278
31
6.00000069209
0
LINE
8
3
10
2454.959879210722
20
-513.482344894991
30
6.00000069209
11
2454.89173155142
21
-513.999982147798
31
6.00000069209
0
LINE
8
3
10
2455.891731551423
20
-512.267932205784
30
6.00000069209
11
2455.477518370881
21
-512.585768967258
31
6.00000069209
0
LINE
8
3
10
2477.491731456013
20
-531.999982147847
30
6.00000069209
11
2477.49173145602
21
-528.999982147847
31
6.00000069209
0
LINE
8
3
10
2482.874093344942
20
-512.06812980716
30
6.00000069209
11
2482.391731551423
21
-512.267932205841
31
6.00000069209
0
LINE
8
3
10
2475.991731456013
20
-531.999982147844
30
6.00000069209
11
2477.491731456013
21
-531.999982147847
31
6.00000069209
0
LINE
8
3
10
2475.991731456012
20
-532.999982147844
30
6.00000069209
11
2475.991731456013
21
-531.999982147844
31
6.00000069209
0
LINE
8
3
10
2471.791731646746
20
-532.999982147835
30
6.00000069209
11
2475.991731456012
21
-532.999982147844
31
6.00000069209
0
LINE
8
3
10
2663.891731551366
20
-539.099982052878
30
6.00000069209
11
2664.891731551366
21
-539.099982052881
31
6.00000069209
0
LINE
8
3
10
2481.391731551411
20
-517.999982147855
30
6.00000069209
11
2481.39173155142
21
-513.999982147855
31
6.00000069209
0
LINE
8
3
10
2466.391731551411
20
-517.999982147823
30
6.00000069209
11
2471.791731646779
21
-517.999982147835
31
6.00000069209
0
LINE
8
3
10
2483.391731551424
20
-511.999982147859
30
6.00000069209
11
2490.891731551424
21
-511.999982147875
31
6.00000069209
0
LINE
8
3
10
2471.791731646748
20
-531.999982147835
30
6.00000069209
11
2471.791731646746
21
-532.999982147835
31
6.00000069209
0
LINE
8
3
10
2492.823583892119
20
-513.482344895072
30
6.00000069209
11
2492.623781493438
21
-512.999982147879
31
6.00000069209
0
LINE
8
3
10
2491.409368804231
20
-512.068129807178
30
6.00000069209
11
2490.891731551424
21
-511.999982147875
31
6.00000069209
0
LINE
8
3
10
2491.891731551423
20
-512.267932205861
30
6.00000069209
11
2491.409368804231
21
-512.068129807178
31
6.00000069209
0
LINE
8
3
10
2492.305944731965
20
-512.585768967336
30
6.00000069209
11
2491.891731551423
21
-512.267932205861
31
6.00000069209
0
LINE
8
3
10
2492.623781493438
20
-512.999982147879
30
6.00000069209
11
2492.305944731965
21
-512.585768967336
31
6.00000069209
0
LINE
8
3
10
2481.977518370881
20
-512.585768967314
30
6.00000069209
11
2481.659680655731
21
-512.999982147856
31
6.00000069209
0
LINE
8
3
10
2492.89173155142
20
-513.99998214788
30
6.00000069209
11
2492.891731551411
21
-517.99998214788
31
6.00000069209
0
LINE
8
3
10
2482.391731551423
20
-512.267932205841
30
6.00000069209
11
2481.977518370881
21
-512.585768967314
31
6.00000069209
0
LINE
8
3
10
2456.374094298616
20
-512.068129807103
30
6.00000069209
11
2455.891731551423
21
-512.267932205784
31
6.00000069209
0
LINE
8
3
10
2477.49173145602
20
-528.999982147847
30
6.00000069209
11
2475.99173145602
21
-528.999982147844
31
6.00000069209
0
LINE
8
3
10
2481.659680655731
20
-512.999982147856
30
6.00000069209
11
2481.45987968756
21
-513.482344895048
31
6.00000069209
0
LINE
8
3
10
2475.99173145602
20
-528.999982147844
30
6.00000069209
11
2475.991731456043
21
-517.999982147844
31
6.00000069209
0
LINE
8
3
10
2475.991731456043
20
-517.999982147844
30
6.00000069209
11
2481.391731551411
21
-517.999982147855
31
6.00000069209
0
LINE
8
3
10
2481.45987968756
20
-513.482344895048
30
6.00000069209
11
2481.39173155142
21
-513.999982147855
31
6.00000069209
0
LINE
8
3
10
2483.391731551424
20
-511.999982147859
30
6.00000069209
11
2482.874093344942
21
-512.06812980716
31
6.00000069209
0
LINE
8
3
10
2470.291731646749
20
-531.999982147831
30
6.00000069209
11
2471.791731646748
21
-531.999982147835
31
6.00000069209
0
LINE
8
3
10
2684.623787215471
20
-518.99998214829
30
6.00000069209
11
2684.3059466393
21
-518.585768967748
31
6.00000069209
0
LINE
8
3
10
2684.823585799455
20
-519.482344895483
30
6.00000069209
11
2684.623787215471
21
-518.99998214829
31
6.00000069209
0
LINE
8
3
10
2470.291731646755
20
-528.999982147831
30
6.00000069209
11
2470.291731646749
21
-531.999982147831
31
6.00000069209
0
LINE
8
3
10
2684.891731551407
20
-519.999982148291
30
6.00000069209
11
2684.823585799455
21
-519.482344895483
31
6.00000069209
0
LINE
8
3
10
2684.891731551407
20
-519.999982148291
30
6.00000069209
11
2684.89173155139
21
-527.499982148291
31
6.00000069209
0
LINE
8
3
10
2471.791731646755
20
-528.999982147835
30
6.00000069209
11
2470.291731646755
21
-528.999982147831
31
6.00000069209
0
LINE
8
3
10
2684.823585799436
20
-528.017620354773
30
6.00000069209
11
2684.89173155139
21
-527.499982148291
31
6.00000069209
0
LINE
8
3
10
2684.623787215451
20
-528.49998214829
30
6.00000069209
11
2684.823585799436
21
-528.017620354773
31
6.00000069209
0
LINE
8
3
10
2471.791731646779
20
-517.999982147835
30
6.00000069209
11
2471.791731646755
21
-528.999982147835
31
6.00000069209
0
LINE
8
3
10
2684.305946639278
20
-528.914195328832
30
6.00000069209
11
2684.623787215451
21
-528.49998214829
31
6.00000069209
0
LINE
8
3
10
2683.891731551387
20
-529.23203304398
30
6.00000069209
11
2684.305946639278
21
-528.914195328832
31
6.00000069209
0
LINE
8
3
10
2466.39173155142
20
-513.999982147823
30
6.00000069209
11
2466.323583415282
21
-513.482344895015
31
6.00000069209
0
LINE
8
3
10
2683.409370711543
20
-529.431834012149
30
6.00000069209
11
2683.891731551387
21
-529.23203304398
31
6.00000069209
0
LINE
8
3
10
2682.891731551386
20
-529.499982148287
30
6.00000069209
11
2683.409370711543
21
-529.431834012149
31
6.00000069209
0
LINE
8
3
10
2466.323583415282
20
-513.482344895015
30
6.00000069209
11
2466.123782447113
21
-512.999982147822
31
6.00000069209
0
LINE
8
3
10
2682.891731551386
20
-529.499982148287
30
6.00000069209
11
2678.891731551386
21
-529.499982148278
31
6.00000069209
0
LINE
8
3
10
2678.891731551386
20
-529.499982148278
30
6.00000069209
11
2678.891731551375
21
-534.899982243645
31
6.00000069209
0
LINE
8
3
10
2466.123782447113
20
-512.999982147822
30
6.00000069209
11
2465.805944731965
21
-512.58576896728
31
6.00000069209
0
LINE
8
3
10
2678.891731551375
20
-534.899982243645
30
6.00000069209
11
2667.891731551375
21
-534.899982243622
31
6.00000069209
0
LINE
8
3
10
2667.891731551375
20
-534.899982243622
30
6.00000069209
11
2667.891731551378
21
-533.399982243622
31
6.00000069209
0
LINE
8
3
10
2465.805944731965
20
-512.58576896728
30
6.00000069209
11
2465.391731551423
21
-512.267932205804
31
6.00000069209
0
LINE
8
3
10
2667.891731551378
20
-533.399982243622
30
6.00000069209
11
2664.891731551378
21
-533.399982243615
31
6.00000069209
0
LINE
8
3
10
2664.891731551378
20
-533.399982243615
30
6.00000069209
11
2664.891731551375
21
-534.899982243615
31
6.00000069209
0
LINE
8
3
10
2465.391731551423
20
-512.267932205804
30
6.00000069209
11
2464.909369757906
21
-512.068129807122
31
6.00000069209
0
LINE
8
3
10
2492.89173155142
20
-513.99998214788
30
6.00000069209
11
2492.823583892119
21
-513.482344895072
31
6.00000069209
0
LINE
8
3
10
2664.891731551375
20
-534.899982243615
30
6.00000069209
11
2663.891731551375
21
-534.899982243613
31
6.00000069209
0
LINE
8
3
10
2663.891731551375
20
-534.899982243613
30
6.00000069209
11
2663.891731551366
21
-539.099982052878
31
6.00000069209
0
LINE
8
3
10
2455.477518370881
20
-512.585768967258
30
6.00000069209
11
2455.159681609405
21
-512.999982147799
31
6.00000069209
0
LINE
8
3
10
2264.374092391174
20
-555.931834488089
30
6.00000069209
11
2264.89173155133
21
-555.999982147392
31
6.00000069209
0
LINE
8
3
10
2464.909369757906
20
-512.068129807122
30
6.00000069209
11
2464.391731551424
21
-511.999982147819
31
6.00000069209
0
LINE
8
3
10
2466.39173155142
20
-513.999982147823
30
6.00000069209
11
2466.391731551411
21
-517.999982147823
31
6.00000069209
0
LINE
8
3
10
2492.891731551411
20
-517.99998214788
30
6.00000069209
11
2682.891731551411
21
-517.999982148287
31
6.00000069209
0
LINE
8
3
10
2683.409370711567
20
-518.068129807589
30
6.00000069209
11
2682.891731551411
21
-517.999982148287
31
6.00000069209
0
LINE
8
3
10
2683.89173155141
20
-518.267932206272
30
6.00000069209
11
2683.409370711567
21
-518.068129807589
31
6.00000069209
0
LINE
8
3
10
2684.3059466393
20
-518.585768967748
30
6.00000069209
11
2683.89173155141
21
-518.267932206272
31
6.00000069209
0
LINE
8
3
10
2263.477516463463
20
-545.085768966846
30
6.00000069209
11
2263.15967588729
21
-545.499982147388
31
6.00000069209
0
LINE
8
3
10
2683.89173155133
20
-555.732032090305
30
6.00000069209
11
2684.305946639221
21
-555.414195328832
31
6.00000069209
0
LINE
8
3
10
2264.374092391198
20
-544.568130283529
30
6.00000069209
11
2263.891731551354
21
-544.767931251699
31
6.00000069209
0
LINE
8
3
10
2456.891731551424
20
-511.999982147803
30
6.00000069209
11
2464.391731551424
21
-511.999982147819
31
6.00000069209
0
LINE
8
3
10
2456.891731551424
20
-511.999982147803
30
6.00000069209
11
2456.374094298616
21
-512.068129807103
31
6.00000069209
0
LINE
8
3
10
2455.159681609405
20
-512.999982147799
30
6.00000069209
11
2454.959879210722
21
-513.482344894991
31
6.00000069209
0
LINE
8
3
10
2264.891731551411
20
-517.999982147392
30
6.00000069209
11
2454.891731551411
21
-517.999982147798
31
6.00000069209
0
LINE
8
3
10
2454.891731551411
20
-517.999982147798
30
6.00000069209
11
2454.89173155142
21
-513.999982147798
31
6.00000069209
0
LINE
8
3
10
2263.477516463519
20
-518.585768966846
30
6.00000069209
11
2263.159675887346
21
-518.999982147388
31
6.00000069209
0
LINE
8
3
10
2263.159675887346
20
-518.999982147388
30
6.00000069209
11
2262.959877303361
21
-519.48234489458
31
6.00000069209
0
LINE
8
3
10
2262.959877303343
20
-528.017620353869
30
6.00000069209
11
2263.159675887326
21
-528.499982147388
31
6.00000069209
0
LINE
8
3
10
2262.891731551391
20
-527.499982147387
30
6.00000069209
11
2262.891731551407
21
-519.999982147387
31
6.00000069209
0
LINE
8
3
10
2264.891731551411
20
-517.999982147392
30
6.00000069209
11
2264.374092391255
21
-518.068129806692
31
6.00000069209
0
LINE
8
3
10
2263.89173155141
20
-518.267932205373
30
6.00000069209
11
2263.477516463519
21
-518.585768966846
31
6.00000069209
0
LINE
8
3
10
2264.374092391255
20
-518.068129806692
30
6.00000069209
11
2263.89173155141
21
-518.267932205373
31
6.00000069209
0
LINE
8
3
10
2262.891731551391
20
-527.499982147387
30
6.00000069209
11
2262.959877303343
21
-528.017620353869
31
6.00000069209
0
LINE
8
3
10
2263.159675887326
20
-528.499982147388
30
6.00000069209
11
2263.477516463497
21
-528.914195327931
31
6.00000069209
0
LINE
8
3
10
2262.959877303361
20
-519.48234489458
30
6.00000069209
11
2262.891731551407
21
-519.999982147387
31
6.00000069209
0
LINE
8
4
10
2264.374102991529
20
-599.309762301819
30
5.999994380155
11
2264.630688697294
21
-599.360800371988
31
5.999994380156
0
LINE
8
4
10
2695.409395860029
20
-599.30976236861
30
5.99999438019
11
2695.152810153571
21
-599.360800445747
31
5.999994380188
0
LINE
8
4
10
2695.891757772536
20
-599.109961510503
30
5.999994380192
11
2695.657124635696
21
-599.225669774328
31
5.999994380191
0
LINE
8
4
10
2264.891741081734
20
-599.37791064924
30
5.999994380157
11
2268.891741231057
21
-599.377910649234
31
5.999994380176
0
LINE
8
4
10
2696.109280632527
20
-598.96461737761
30
5.999994380193
11
2695.891757772536
21
-599.109961510503
31
5.999994380192
0
LINE
8
4
10
2694.891757768899
20
-599.377910730088
30
5.999994380187
11
2690.891758212304
21
-599.377910838705
31
5.999994380168
0
LINE
8
4
10
2690.891758212304
20
-599.377910838705
30
5.999994380168
11
2690.891758574355
21
-612.711246167842
31
5.999994384141
0
LINE
8
4
10
2695.152810153571
20
-599.360800445747
30
5.999994380188
11
2694.891757768899
21
-599.377910730088
31
5.999994380187
0
LINE
8
4
10
2696.8236094416
20
-597.895548767836
30
5.999994380196
11
2696.739516850681
21
-598.143277544644
31
5.999994380196
0
LINE
8
4
10
2264.630688697294
20
-599.360800371988
30
5.999994380156
11
2264.891741081734
21
-599.37791064924
31
5.999994380157
0
LINE
8
4
10
2263.891741081715
20
-586.312524485383
30
5.999994380152
11
2264.126374216985
21
-586.196816227929
31
5.999994380153
0
LINE
8
4
10
2262.908851358984
20
-597.638963033683
30
5.999994380148
11
2262.959889429153
21
-597.895548739448
31
5.999994380148
0
LINE
8
4
10
2268.891741231076
20
-612.711246005524
30
5.999994380176
11
2268.891741231057
21
-599.377910649234
31
5.999994380176
0
LINE
8
4
10
2263.674218223716
20
-598.964617329824
30
5.999994380151
11
2263.891741081733
21
-599.10996145681
31
5.999994380152
0
LINE
8
4
10
2262.891741081718
20
-588.044575292954
30
5.999994380148
11
2262.90885135897
21
-587.783522908514
31
5.999994380148
0
LINE
8
4
10
2262.908851358984
20
-597.638963033683
30
5.999994380148
11
2262.891741081731
21
-597.377910649243
31
5.999994380148
0
LINE
8
4
10
2263.043982016709
20
-598.143277513973
30
5.999994380148
11
2263.159690274163
21
-598.377910649242
31
5.999994380149
0
LINE
8
4
10
2263.159690274163
20
-598.377910649242
30
5.999994380149
11
2263.30503440115
21
-598.59543350726
31
5.999994380149
0
LINE
8
4
10
2262.891741081731
20
-597.377910649243
30
5.999994380148
11
2262.891741081718
21
-588.044575292954
31
5.999994380148
0
LINE
8
4
10
2268.891741231019
20
-572.711239936655
30
5.999994380176
11
2690.891758218169
21
-572.7112398546
31
5.999994380168
0
LINE
8
4
10
2690.891758574355
20
-612.711246167842
30
5.999994384141
11
2268.891741231076
21
-612.711246005524
31
5.999994380176
0
LINE
8
4
10
2696.305971339224
20
-598.79212425406
30
5.999994380194
11
2696.109280632527
21
-598.96461737761
31
5.999994380193
0
LINE
8
4
10
2696.739516998159
20
-587.279208439118
30
5.999994380196
11
2696.62380874389
21
-587.044575302277
31
5.999994380195
0
LINE
8
4
10
2264.126374217003
20
-599.225669714264
30
5.999994380153
11
2264.374102991529
21
-599.309762301819
31
5.999994380155
0
LINE
8
4
10
2262.959889429139
20
-587.526937202749
30
5.999994380148
11
2263.043982016694
21
-587.279208428223
31
5.999994380148
0
LINE
8
4
10
2264.630688697275
20
-586.061685570204
30
5.999994380156
11
2264.891741081715
21
-586.044575292951
31
5.999994380157
0
LINE
8
4
10
2264.126374216985
20
-586.196816227929
30
5.999994380153
11
2264.37410299151
21
-586.112723640373
31
5.999994380155
0
LINE
8
4
10
2695.657124635696
20
-599.225669774328
30
5.999994380191
11
2695.409395860029
21
-599.30976236861
31
5.99999438019
0
LINE
8
4
10
2695.409396039176
20
-586.112723633213
30
5.99999438019
11
2695.152810334104
21
-586.061685559561
31
5.999994380188
0
LINE
8
4
10
2695.152810334104
20
-586.061685559561
30
5.999994380188
11
2694.891757949896
21
-586.044575278765
31
5.999994380187
0
LINE
8
4
10
2696.874647649037
20
-587.783522921242
30
5.999994380197
11
2696.823609582351
21
-587.526937214784
31
5.999994380196
0
LINE
8
4
10
2263.159690274148
20
-587.044575292953
30
5.999994380149
11
2263.305034401134
21
-586.827052434936
31
5.999994380149
0
LINE
8
4
10
2696.891757796048
20
-597.37791067578
30
5.999994380197
11
2696.874647515252
21
-597.638963060685
31
5.999994380197
0
LINE
8
4
10
2696.823609582351
20
-587.526937214784
30
5.999994380196
11
2696.739516998159
21
-587.279208439118
31
5.999994380196
0
LINE
8
4
10
2696.62380874389
20
-587.044575302277
30
5.999994380195
11
2696.478464619856
21
-586.827052442287
31
5.999994380195
0
LINE
8
4
10
2696.874647649037
20
-587.783522921242
30
5.999994380197
11
2696.891757922746
21
-588.044575305915
31
5.999994380197
0
LINE
8
4
10
2696.874647515252
20
-597.638963060685
30
5.999994380197
11
2696.8236094416
21
-597.895548767836
31
5.999994380196
0
LINE
8
4
10
2696.739516850681
20
-598.143277544644
30
5.999994380196
11
2696.623808590042
21
-598.377910683056
31
5.999994380195
0
LINE
8
4
10
2696.891757922746
20
-588.044575305915
30
5.999994380197
11
2696.891757796048
21
-597.37791067578
31
5.999994380197
0
LINE
8
4
10
2696.109280802303
20
-586.45786861471
30
5.999994380193
11
2695.891757946259
21
-586.312524484771
31
5.999994380192
0
LINE
8
4
10
2695.891757946259
20
-586.312524484771
30
5.999994380192
11
2695.65712481256
21
-586.196816224132
31
5.999994380191
0
LINE
8
4
10
2696.623808590042
20
-598.377910683056
30
5.999994380195
11
2696.478464460103
21
-598.59543354502
31
5.999994380195
0
LINE
8
4
10
2696.478464460103
20
-598.59543354502
30
5.999994380195
11
2696.305971339224
21
-598.79212425406
31
5.999994380194
0
LINE
8
4
10
2264.37410299151
20
-586.112723640373
30
5.999994380155
11
2264.630688697275
21
-586.061685570204
31
5.999994380156
0
LINE
8
4
10
2696.478464619856
20
-586.827052442287
30
5.999994380195
11
2696.305971504317
21
-586.630361735589
31
5.999994380194
0
LINE
8
4
10
2696.305971504317
20
-586.630361735589
30
5.999994380194
11
2696.109280802303
21
-586.45786861471
31
5.999994380193
0
LINE
8
4
10
2695.65712481256
20
-586.196816224132
30
5.999994380191
11
2695.409396039176
21
-586.112723633213
31
5.99999438019
0
LINE
8
4
10
2694.891757949896
20
-586.044575278765
30
5.999994380187
11
2690.891758037172
21
-586.044575224465
31
5.999994380168
0
LINE
8
4
10
2690.891758218169
20
-572.7112398546
30
5.999994380168
11
2690.891758037172
21
-586.044575224465
31
5.999994380168
0
LINE
8
4
10
2268.891741231037
20
-586.044575292945
30
5.999994380176
11
2268.891741231019
21
-572.711239936655
31
5.999994380176
0
LINE
8
4
10
2264.891741081715
20
-586.044575292951
30
5.999994380157
11
2268.891741231037
21
-586.044575292945
31
5.999994380176
0
LINE
8
4
10
2263.674218223698
20
-586.45786861237
30
5.999994380151
11
2263.891741081715
21
-586.312524485383
31
5.999994380152
0
LINE
8
4
10
2263.477527519343
20
-586.63036173058
30
5.99999438015
11
2263.674218223698
21
-586.45786861237
31
5.999994380151
0
LINE
8
4
10
2263.305034401134
20
-586.827052434936
30
5.999994380149
11
2263.477527519343
21
-586.63036173058
31
5.99999438015
0
LINE
8
4
10
2263.043982016694
20
-587.279208428223
30
5.999994380148
11
2263.159690274148
21
-587.044575292953
31
5.999994380149
0
LINE
8
4
10
2262.90885135897
20
-587.783522908514
30
5.999994380148
11
2262.959889429139
21
-587.526937202749
31
5.999994380148
0
LINE
8
4
10
2262.959889429153
20
-597.895548739448
30
5.999994380148
11
2263.043982016709
21
-598.143277513973
31
5.999994380148
0
LINE
8
4
10
2263.30503440115
20
-598.59543350726
30
5.999994380149
11
2263.47752751936
21
-598.792124211615
31
5.99999438015
0
LINE
8
4
10
2263.47752751936
20
-598.792124211615
30
5.99999438015
11
2263.674218223716
21
-598.964617329824
31
5.999994380151
0
LINE
8
4
10
2263.891741081733
20
-599.10996145681
30
5.999994380152
11
2264.126374217003
21
-599.225669714264
31
5.999994380153
0
LINE
8
5
10
2256.891856549749
20
-623.41124600484
30
5.999994392033
11
2678.891740293735
21
-623.411246004943
31
5.999994384086
0
LINE
8
5
10
2257.891856549746
20
-636.476632168698
30
5.999994391097
11
2257.674333691728
21
-636.331288041712
31
5.999994391244
0
LINE
8
5
10
2256.960004897167
20
-635.262219451334
30
5.99999439174
11
2256.908966826998
21
-635.005633745569
31
5.999994391779
0
LINE
8
5
10
2257.044097484724
20
-635.509948225859
30
5.999994391679
11
2256.960004897167
21
-635.262219451334
31
5.99999439174
0
LINE
8
5
10
2257.159805742177
20
-635.744581361129
30
5.999994391597
11
2257.044097484724
21
-635.509948225859
31
5.999994391679
0
LINE
8
5
10
2256.908966826998
20
-635.005633745569
30
5.999994391779
11
2256.891856549746
21
-634.744581361129
31
5.999994391796
0
LINE
8
5
10
2257.305149869163
20
-635.962104219147
30
5.999994391497
11
2257.159805742177
21
-635.744581361129
31
5.999994391597
0
LINE
8
5
10
2257.477642987373
20
-636.158794923503
30
5.999994391378
11
2257.305149869163
21
-635.962104219147
31
5.999994391497
0
LINE
8
5
10
2257.674333691728
20
-636.331288041712
30
5.999994391244
11
2257.477642987373
21
-636.158794923503
31
5.999994391378
0
LINE
8
5
10
2258.126489685015
20
-636.592340426152
30
5.99999439094
11
2257.891856549746
21
-636.476632168698
31
5.999994391097
0
LINE
8
5
10
2258.37421845954
20
-636.676433013708
30
5.999994390774
11
2258.126489685015
21
-636.592340426152
31
5.99999439094
0
LINE
8
5
10
2258.630804165306
20
-636.727471083877
30
5.999994390603
11
2258.37421845954
21
-636.676433013708
31
5.999994390774
0
LINE
8
5
10
2258.630804165306
20
-636.727471083877
30
5.999994390603
11
2258.891856549746
21
-636.74458136113
31
5.999994390429
0
LINE
8
5
10
2258.891856549746
20
-636.74458136113
30
5.999994390429
11
2262.891856548814
21
-636.744581361131
31
5.99999438778
0
LINE
8
5
10
2262.891856548811
20
-650.07791671742
30
5.999994387501
11
2262.891856548814
21
-636.744581361131
31
5.99999438778
0
LINE
8
5
10
2258.891856549742
20
-650.077916717419
30
5.999994390151
11
2262.891856548811
21
-650.07791671742
31
5.999994387501
0
LINE
8
5
10
2258.630804165302
20
-650.095026994671
30
5.99999439102
11
2258.891856549742
21
-650.077916717419
31
5.999994390151
0
LINE
8
5
10
2258.630804165302
20
-650.095026994671
30
5.99999439102
11
2258.374218459537
21
-650.146065064841
31
5.999994393268
0
LINE
8
5
10
2258.374218459537
20
-650.146065064841
30
5.999994393268
11
2258.126489685013
21
-650.230157652397
31
5.999994396855
0
LINE
8
5
10
2258.126489685013
20
-650.230157652397
30
5.999994396855
11
2257.891856549742
21
-650.34586590985
31
5.999994401721
0
LINE
8
5
10
2257.891856549742
20
-650.34586590985
30
5.999994401721
11
2257.674333691725
21
-650.491210036836
31
5.999994407781
0
LINE
8
5
10
2257.674333691725
20
-650.491210036836
30
5.999994407781
11
2257.47764298737
21
-650.663703155046
31
5.999994414933
0
LINE
8
5
10
2257.47764298737
20
-650.663703155046
30
5.999994414933
11
2257.305149869159
21
-650.860393859401
31
5.999994423054
0
LINE
8
5
10
2257.305149869159
20
-650.860393859401
30
5.999994423054
11
2257.159805742173
21
-651.077916717419
31
5.999994432006
0
LINE
8
5
10
2257.159805742173
20
-651.077916717419
30
5.999994432006
11
2257.044097484719
21
-651.312549852689
31
5.999994441634
0
LINE
8
5
10
2257.044097484719
20
-651.312549852689
30
5.999994441634
11
2256.960004897164
21
-651.560278627214
31
5.999994451774
0
LINE
8
5
10
2256.960004897164
20
-651.560278627214
30
5.999994451774
11
2256.908966826994
21
-651.816864332979
31
5.999994462253
0
LINE
8
5
10
2256.891856549742
20
-652.077916717419
30
5.999994472891
11
2256.908966826994
21
-651.816864332979
31
5.999994462253
0
LINE
8
5
10
2256.891856549739
20
-663.411252114437
30
5.999994934246
11
2256.891856549742
21
-652.077916717419
31
5.999994472891
0
LINE
8
5
10
2678.891740293725
20
-663.41125211454
30
5.999994383249
11
2256.891856549739
21
-663.411252114437
31
5.999994934246
0
LINE
8
5
10
2678.891740293735
20
-623.411246004943
30
5.999994384086
11
2678.891740293725
21
-663.41125211454
31
5.999994383249
0
LINE
8
5
10
2256.891856549746
20
-634.744581361129
30
5.999994391796
11
2256.891856549749
21
-623.41124600484
31
5.999994392033
0
LINE
8
6
10
2256.891856549734
20
-684.644587422173
30
5.99998101513
11
2256.891856549736
21
-673.311252065884
31
5.999981015367
0
LINE
8
6
10
2256.891856549736
20
-673.311252065884
30
5.999981015367
11
2678.891740293722
21
-673.311252065987
31
5.99998100742
0
LINE
8
6
10
2678.891740293722
20
-673.311252065987
30
5.99998100742
11
2678.891740293712
21
-713.311258175584
31
5.999981006583
0
LINE
8
6
10
2678.891740293712
20
-713.311258175584
30
5.999981006583
11
2256.891856549727
21
-713.311258175481
31
5.99998155758
0
LINE
8
6
10
2256.891856549727
20
-713.311258175481
30
5.99998155758
11
2256.891856549729
21
-701.977922778463
31
5.999981096225
0
LINE
8
6
10
2256.891856549729
20
-701.977922778463
30
5.999981096225
11
2256.908966826982
21
-701.716870394023
31
5.999981085587
0
LINE
8
6
10
2256.960004897151
20
-701.460284688258
30
5.999981075108
11
2256.908966826982
21
-701.716870394023
31
5.999981085587
0
LINE
8
6
10
2257.044097484707
20
-701.212555913733
30
5.999981064968
11
2256.960004897151
21
-701.460284688258
31
5.999981075108
0
LINE
8
6
10
2257.159805742161
20
-700.977922778463
30
5.99998105534
11
2257.044097484707
21
-701.212555913733
31
5.999981064968
0
LINE
8
6
10
2257.305149869147
20
-700.760399920446
30
5.999981046388
11
2257.159805742161
21
-700.977922778463
31
5.99998105534
0
LINE
8
6
10
2257.044097484711
20
-685.409954286903
30
5.999981015013
11
2256.960004897155
21
-685.162225512378
31
5.999981015074
0
LINE
8
6
10
2257.159805742164
20
-685.644587422173
30
5.999981014932
11
2257.044097484711
21
-685.409954286903
31
5.999981015013
0
LINE
8
6
10
2257.674333691716
20
-686.231294102756
30
5.999981014579
11
2257.47764298736
21
-686.058800984547
31
5.999981014712
0
LINE
8
6
10
2257.47764298736
20
-686.058800984547
30
5.999981014712
11
2257.305149869151
21
-685.862110280191
31
5.999981014831
0
LINE
8
6
10
2256.908966826986
20
-684.905639806614
30
5.999981015113
11
2256.891856549734
21
-684.644587422173
31
5.99998101513
0
LINE
8
6
10
2256.960004897155
20
-685.162225512378
30
5.999981015074
11
2256.908966826986
21
-684.905639806614
31
5.999981015113
0
LINE
8
6
10
2258.89185654973
20
-699.977922778463
30
5.999981013485
11
2262.891856548798
21
-699.977922778464
31
5.999981010835
0
LINE
8
6
10
2258.126489685003
20
-686.492346487196
30
5.999981014274
11
2257.891856549733
21
-686.376638229742
31
5.999981014431
0
LINE
8
6
10
2257.891856549733
20
-686.376638229742
30
5.999981014431
11
2257.674333691716
21
-686.231294102756
31
5.999981014579
0
LINE
8
6
10
2258.374218459528
20
-686.576439074752
30
5.999981014108
11
2258.126489685003
21
-686.492346487196
31
5.999981014274
0
LINE
8
6
10
2258.630804165293
20
-686.627477144921
30
5.999981013937
11
2258.374218459528
21
-686.576439074752
31
5.999981014108
0
LINE
8
6
10
2257.305149869151
20
-685.862110280191
30
5.999981014831
11
2257.159805742164
21
-685.644587422173
31
5.999981014932
0
LINE
8
6
10
2258.630804165293
20
-686.627477144921
30
5.999981013937
11
2258.891856549733
21
-686.644587422174
31
5.999981013764
0
LINE
8
6
10
2258.891856549733
20
-686.644587422174
30
5.999981013764
11
2262.891856548802
21
-686.644587422175
31
5.999981011114
0
LINE
8
6
10
2262.891856548798
20
-699.977922778464
30
5.999981010835
11
2262.891856548802
21
-686.644587422175
31
5.999981011114
0
LINE
8
6
10
2257.89185654973
20
-700.245871970894
30
5.999981025055
11
2257.674333691712
21
-700.391216097881
31
5.999981031115
0
LINE
8
6
10
2258.63080416529
20
-699.995033055716
30
5.999981014354
11
2258.374218459524
21
-700.046071125885
31
5.999981016602
0
LINE
8
6
10
2258.126489685
20
-700.130163713441
30
5.999981020189
11
2257.89185654973
21
-700.245871970894
31
5.999981025055
0
LINE
8
6
10
2258.63080416529
20
-699.995033055716
30
5.999981014354
11
2258.89185654973
21
-699.977922778463
31
5.999981013485
0
LINE
8
6
10
2257.674333691712
20
-700.391216097881
30
5.999981031115
11
2257.477642987357
21
-700.56370921609
31
5.999981038267
0
LINE
8
6
10
2258.374218459524
20
-700.046071125885
30
5.999981016602
11
2258.126489685
21
-700.130163713441
31
5.999981020189
0
LINE
8
6
10
2257.477642987357
20
-700.56370921609
30
5.999981038267
11
2257.305149869147
21
-700.760399920446
31
5.999981046388
0
LINE
8
7
10
2684.739490616341
20
-754.698271451809
30
5.999994329142
11
2684.823583203897
21
-754.450542677283
31
5.999994329136
0
LINE
8
7
10
2684.623782358888
20
-754.932904587078
30
5.999994329148
11
2684.739490616341
21
-754.698271451809
31
5.999994329142
0
LINE
8
7
10
2684.478438231901
20
-755.150427445096
30
5.999994329153
11
2684.623782358888
21
-754.932904587078
31
5.999994329148
0
LINE
8
7
10
2684.305945113691
20
-755.347118149452
30
5.999994329158
11
2684.478438231901
21
-755.150427445096
31
5.999994329153
0
LINE
8
7
10
2683.891731551319
20
-755.664955394647
30
5.999994329166
11
2684.109254409336
21
-755.519611267661
31
5.999994329162
0
LINE
8
7
10
2682.891731551319
20
-755.932904587079
30
5.999994329173
11
2683.152783935759
21
-755.915794309826
31
5.999994329172
0
LINE
8
7
10
2678.891731551319
20
-755.932904587079
30
5.999994329173
11
2682.891731551319
21
-755.932904587079
31
5.999994329173
0
LINE
8
7
10
2678.89173155132
20
-769.266237920413
30
5.999994329505
11
2678.891731551319
21
-755.932904587079
31
5.999994329173
0
LINE
8
7
10
2268.891731551319
20
-769.266237920616
30
5.999994329505
11
2678.89173155132
21
-769.266237920413
31
5.999994329505
0
LINE
8
7
10
2268.891731551319
20
-769.266237920616
30
5.999994329505
11
2268.891731551322
21
-755.932904587283
31
5.999994329506
0
LINE
8
7
10
2268.891731551322
20
-755.932904587283
30
5.999994329506
11
2264.891731551323
21
-755.932904587282
31
5.999994329506
0
LINE
8
7
10
2264.891731551323
20
-755.932904587282
30
5.999994329506
11
2264.630679166883
21
-755.915794310029
31
5.999994329506
0
LINE
8
7
10
2264.374093461117
20
-755.86475623986
30
5.999994329506
11
2264.630679166883
21
-755.915794310029
31
5.999994329506
0
LINE
8
7
10
2264.126364686592
20
-755.780663652304
30
5.999994329506
11
2264.374093461117
21
-755.86475623986
31
5.999994329506
0
LINE
8
7
10
2263.891731551322
20
-755.66495539485
30
5.999994329506
11
2264.126364686592
21
-755.780663652304
31
5.999994329506
0
LINE
8
7
10
2263.674208693305
20
-755.519611267864
30
5.999994329506
11
2263.891731551322
21
-755.66495539485
31
5.999994329506
0
LINE
8
7
10
2263.477517988949
20
-755.347118149655
30
5.999994329506
11
2263.674208693305
21
-755.519611267864
31
5.999994329506
0
LINE
8
7
10
2263.30502487074
20
-755.150427445299
30
5.999994329506
11
2263.477517988949
21
-755.347118149655
31
5.999994329506
0
LINE
8
7
10
2262.959879898744
20
-754.450542677487
30
5.999994329506
11
2263.0439724863
21
-754.698271452012
31
5.999994329506
0
LINE
8
7
10
2262.908841828575
20
-754.193956971722
30
5.999994329506
11
2262.959879898744
21
-754.450542677487
31
5.999994329506
0
LINE
8
7
10
2262.908841828575
20
-754.193956971722
30
5.999994329506
11
2262.891731551323
21
-753.932904587282
31
5.999994329506
0
LINE
8
7
10
2262.891731551323
20
-753.932904587282
30
5.999994329506
11
2262.891731551325
21
-744.599571253948
31
5.999994329506
0
LINE
8
7
10
2683.657098416049
20
-755.780663652101
30
5.999994329169
11
2683.891731551319
21
-755.664955394647
31
5.999994329166
0
LINE
8
7
10
2684.739490616339
20
-743.834204389015
30
5.999994328871
11
2684.823583203895
21
-744.08193316354
31
5.999994328877
0
LINE
8
7
10
2263.043972486303
20
-743.834204389218
30
5.999994329506
11
2263.159680743756
21
-743.599571253948
31
5.999994329506
0
LINE
8
7
10
2682.891731551317
20
-742.599571253745
30
5.99999432884
11
2683.152783935757
21
-742.616681530998
31
5.999994328841
0
LINE
8
7
10
2264.374093461121
20
-742.66771960137
30
5.999994329506
11
2264.630679166885
21
-742.616681531201
31
5.999994329506
0
LINE
8
7
10
2263.891731551326
20
-742.86752044638
30
5.999994329506
11
2264.126364686595
21
-742.751812188926
31
5.999994329506
0
LINE
8
7
10
2262.959879898747
20
-744.081933163743
30
5.999994329506
11
2263.043972486303
21
-743.834204389218
31
5.999994329506
0
LINE
8
7
10
2684.874621274066
20
-754.193956971519
30
5.999994329129
11
2684.891731551319
21
-753.932904587078
31
5.999994329123
0
LINE
8
7
10
2684.109254409334
20
-743.012864573163
30
5.99999432885
11
2684.30594511369
21
-743.185357691372
31
5.999994328855
0
LINE
8
7
10
2263.674208693308
20
-743.012864573366
30
5.999994329506
11
2263.891731551326
21
-742.86752044638
31
5.999994329506
0
LINE
8
7
10
2684.109254409336
20
-755.519611267661
30
5.999994329162
11
2684.305945113691
21
-755.347118149452
31
5.999994329158
0
LINE
8
7
10
2263.0439724863
20
-754.698271452012
30
5.999994329506
11
2263.159680743754
21
-754.932904587281
31
5.999994329506
0
LINE
8
7
10
2263.159680743756
20
-743.599571253948
30
5.999994329506
11
2263.305024870743
21
-743.382048395931
31
5.999994329506
0
LINE
8
7
10
2263.305024870743
20
-743.382048395931
30
5.999994329506
11
2263.477517988952
21
-743.185357691575
31
5.999994329506
0
LINE
8
7
10
2262.891731551325
20
-744.599571253948
30
5.999994329506
11
2262.908841828577
21
-744.338518869508
31
5.999994329506
0
LINE
8
7
10
2263.477517988952
20
-743.185357691575
30
5.999994329506
11
2263.674208693308
21
-743.012864573366
31
5.999994329506
0
LINE
8
7
10
2684.823583203895
20
-744.08193316354
30
5.999994328877
11
2684.874621274065
21
-744.338518869305
31
5.999994328884
0
LINE
8
7
10
2684.823583203897
20
-754.450542677283
30
5.999994329136
11
2684.874621274066
21
-754.193956971519
31
5.999994329129
0
LINE
8
7
10
2683.152783935759
20
-755.915794309826
30
5.999994329172
11
2683.409369641524
21
-755.864756239657
31
5.999994329171
0
LINE
8
7
10
2262.908841828577
20
-744.338518869508
30
5.999994329506
11
2262.959879898747
21
-744.081933163743
31
5.999994329506
0
LINE
8
7
10
2683.409369641524
20
-755.864756239657
30
5.999994329171
11
2683.657098416049
21
-755.780663652101
31
5.999994329169
0
LINE
8
7
10
2264.126364686595
20
-742.751812188926
30
5.999994329506
11
2264.374093461121
21
-742.66771960137
31
5.999994329506
0
LINE
8
7
10
2263.159680743754
20
-754.932904587281
30
5.999994329506
11
2263.30502487074
21
-755.150427445299
31
5.999994329506
0
LINE
8
7
10
2264.891731551325
20
-742.599571253949
30
5.999994329506
11
2264.630679166885
21
-742.616681531201
31
5.999994329506
0
LINE
8
7
10
2684.891731551319
20
-753.932904587078
30
5.999994329123
11
2684.891731551317
21
-744.599571253745
31
5.99999432889
0
LINE
8
7
10
2268.891731551325
20
-742.59957125395
30
5.999994329506
11
2264.891731551325
21
-742.599571253949
31
5.999994329506
0
LINE
8
7
10
2268.891731551325
20
-742.59957125395
30
5.999994329506
11
2268.891731551314
21
-729.266237920616
31
5.999994328508
0
LINE
8
7
10
2683.657098416047
20
-742.751812188723
30
5.999994328844
11
2683.891731551317
21
-742.867520446176
31
5.999994328847
0
LINE
8
7
10
2684.891731551317
20
-744.599571253745
30
5.99999432889
11
2684.874621274065
21
-744.338518869305
31
5.999994328884
0
LINE
8
7
10
2683.409369641522
20
-742.667719601167
30
5.999994328842
11
2683.657098416047
21
-742.751812188723
31
5.999994328844
0
LINE
8
7
10
2683.152783935757
20
-742.616681530998
30
5.999994328841
11
2683.409369641522
21
-742.667719601167
31
5.999994328842
0
LINE
8
7
10
2683.891731551317
20
-742.867520446176
30
5.999994328847
11
2684.109254409334
21
-743.012864573163
31
5.99999432885
0
LINE
8
7
10
2684.623782358886
20
-743.599571253745
30
5.999994328865
11
2684.739490616339
21
-743.834204389015
31
5.999994328871
0
LINE
8
7
10
2684.30594511369
20
-743.185357691372
30
5.999994328855
11
2684.478438231899
21
-743.382048395728
31
5.99999432886
0
LINE
8
7
10
2268.891731551314
20
-729.266237920616
30
5.999994328508
11
2678.891731551315
21
-729.266237920413
31
5.999994328508
0
LINE
8
7
10
2678.891731551317
20
-742.599571253746
30
5.99999432884
11
2682.891731551317
21
-742.599571253745
31
5.99999432884
0
LINE
8
7
10
2684.478438231899
20
-743.382048395728
30
5.99999432886
11
2684.623782358886
21
-743.599571253745
31
5.999994328865
0
LINE
8
7
10
2678.891731551317
20
-742.599571253746
30
5.99999432884
11
2678.891731551315
21
-729.266237920413
31
5.999994328508
0
LINE
8
8
10
2684.109254409329
20
-794.712864573167
30
5.999994329849
11
2683.891731551313
21
-794.56752044618
31
5.999994329845
0
LINE
8
8
10
2684.874621274053
20
-805.893956971523
30
5.999994330128
11
2684.823583203884
21
-806.150542677288
31
5.999994330134
0
LINE
8
8
10
2683.891731551304
20
-807.364955394651
30
5.999994330165
11
2683.657098416035
21
-807.480663652105
31
5.999994330168
0
LINE
8
8
10
2682.891731551312
20
-794.299571253748
30
5.999994329838
11
2683.152783935752
21
-794.316681531001
31
5.999994329839
0
LINE
8
8
10
2683.409369641509
20
-807.56475623966
30
5.99999433017
11
2683.152783935745
21
-807.615794309829
31
5.999994330171
0
LINE
8
8
10
2684.109254409322
20
-807.219611267665
30
5.999994330161
11
2683.891731551304
21
-807.364955394651
31
5.999994330165
0
LINE
8
8
10
2683.657098416035
20
-807.480663652105
30
5.999994330168
11
2683.409369641509
21
-807.56475623966
31
5.99999433017
0
LINE
8
8
10
2262.891731551314
20
-805.632904586982
30
5.999994329505
11
2262.908841828566
21
-805.893956971422
31
5.999994329505
0
LINE
8
8
10
2683.657098416043
20
-794.451812188726
30
5.999994329842
11
2683.409369641518
21
-794.36771960117
31
5.99999432984
0
LINE
8
8
10
2684.874621274059
20
-796.038518869309
30
5.999994329882
11
2684.891731551311
21
-796.299571253749
31
5.999994329888
0
LINE
8
8
10
2684.739490616328
20
-806.398271451813
30
5.999994330141
11
2684.623782358874
21
-806.632904587083
31
5.999994330146
0
LINE
8
8
10
2684.874621274059
20
-796.038518869309
30
5.999994329882
11
2684.82358320389
21
-795.781933163544
31
5.999994329875
0
LINE
8
8
10
2264.374093461108
20
-807.56475623956
30
5.999994329505
11
2264.126364686583
21
-807.480663652005
31
5.999994329505
0
LINE
8
8
10
2262.908841828568
20
-796.038518869208
30
5.999994329505
11
2262.891731551316
21
-796.299571253648
31
5.999994329505
0
LINE
8
8
10
2263.891731551313
20
-807.364955394551
30
5.999994329505
11
2263.674208693295
21
-807.219611267564
31
5.999994329505
0
LINE
8
8
10
2684.891731551306
20
-805.632904587083
30
5.999994330121
11
2684.874621274053
21
-805.893956971523
31
5.999994330128
0
LINE
8
8
10
2684.478438231894
20
-795.082048395732
30
5.999994329858
11
2684.305945113685
21
-794.885357691376
31
5.999994329853
0
LINE
8
8
10
2263.47751798894
20
-807.047118149355
30
5.999994329505
11
2263.305024870731
21
-806.850427444999
31
5.999994329505
0
LINE
8
8
10
2263.305024870731
20
-806.850427444999
30
5.999994329505
11
2263.159680743745
21
-806.632904586982
31
5.999994329505
0
LINE
8
8
10
2264.630679166873
20
-807.61579430973
30
5.999994329505
11
2264.374093461108
21
-807.56475623956
31
5.999994329505
0
LINE
8
8
10
2264.126364686583
20
-807.480663652005
30
5.999994329505
11
2263.891731551313
21
-807.364955394551
31
5.999994329505
0
LINE
8
8
10
2264.126364686586
20
-794.451812188626
30
5.999994329505
11
2263.891731551316
21
-794.56752044608
31
5.999994329505
0
LINE
8
8
10
2263.674208693295
20
-807.219611267564
30
5.999994329505
11
2263.47751798894
21
-807.047118149355
31
5.999994329505
0
LINE
8
8
10
2682.891731551304
20
-807.632904587081
30
5.999994330171
11
2683.152783935745
21
-807.615794309829
31
5.999994330171
0
LINE
8
8
10
2263.159680743747
20
-795.299571253648
30
5.999994329505
11
2263.043972486293
21
-795.534204388918
31
5.999994329505
0
LINE
8
8
10
2684.305945113685
20
-794.885357691376
30
5.999994329853
11
2684.109254409329
21
-794.712864573167
31
5.999994329849
0
LINE
8
8
10
2263.159680743745
20
-806.632904586982
30
5.999994329505
11
2263.043972486291
21
-806.398271451712
31
5.999994329505
0
LINE
8
8
10
2684.823583203884
20
-806.150542677288
30
5.999994330134
11
2684.739490616328
21
-806.398271451813
31
5.999994330141
0
LINE
8
8
10
2684.305945113678
20
-807.047118149456
30
5.999994330157
11
2684.109254409322
21
-807.219611267665
31
5.999994330161
0
LINE
8
8
10
2683.409369641518
20
-794.36771960117
30
5.99999432984
11
2683.152783935752
21
-794.316681531001
31
5.999994329839
0
LINE
8
8
10
2684.478438231887
20
-806.8504274451
30
5.999994330152
11
2684.305945113678
21
-807.047118149456
31
5.999994330157
0
LINE
8
8
10
2684.623782358874
20
-806.632904587083
30
5.999994330146
11
2684.478438231887
21
-806.8504274451
31
5.999994330152
0
LINE
8
8
10
2684.891731551311
20
-796.299571253749
30
5.999994329888
11
2684.891731551306
21
-805.632904587083
31
5.999994330121
0
LINE
8
8
10
2684.82358320389
20
-795.781933163544
30
5.999994329875
11
2684.739490616334
21
-795.534204389019
31
5.999994329869
0
LINE
8
8
10
2684.739490616334
20
-795.534204389019
30
5.999994329869
11
2684.623782358881
21
-795.299571253749
31
5.999994329863
0
LINE
8
8
10
2684.623782358881
20
-795.299571253749
30
5.999994329863
11
2684.478438231894
21
-795.082048395732
31
5.999994329858
0
LINE
8
8
10
2683.891731551313
20
-794.56752044618
30
5.999994329845
11
2683.657098416043
21
-794.451812188726
31
5.999994329842
0
LINE
8
8
10
2678.891731551313
20
-794.299571253746
30
5.999994329838
11
2682.891731551312
21
-794.299571253748
31
5.999994329838
0
LINE
8
8
10
2678.89173155132
20
-780.966237920412
30
5.999994329505
11
2678.891731551313
21
-794.299571253746
31
5.999994329838
0
LINE
8
8
10
2678.89173155132
20
-780.966237920412
30
5.999994329505
11
2268.891731551319
21
-780.966237920316
31
5.999994329505
0
LINE
8
8
10
2268.891731551319
20
-780.966237920316
30
5.999994329505
11
2268.891731551316
21
-794.29957125365
31
5.999994329505
0
LINE
8
8
10
2268.891731551316
20
-794.29957125365
30
5.999994329505
11
2264.891731551316
21
-794.299571253649
31
5.999994329505
0
LINE
8
8
10
2264.891731551316
20
-794.299571253649
30
5.999994329505
11
2264.630679166876
21
-794.316681530901
31
5.999994329505
0
LINE
8
8
10
2264.630679166876
20
-794.316681530901
30
5.999994329505
11
2264.374093461111
21
-794.367719601071
31
5.999994329505
0
LINE
8
8
10
2264.374093461111
20
-794.367719601071
30
5.999994329505
11
2264.126364686586
21
-794.451812188626
31
5.999994329505
0
LINE
8
8
10
2263.891731551316
20
-794.56752044608
30
5.999994329505
11
2263.674208693299
21
-794.712864573066
31
5.999994329505
0
LINE
8
8
10
2263.674208693299
20
-794.712864573066
30
5.999994329505
11
2263.477517988943
21
-794.885357691275
31
5.999994329505
0
LINE
8
8
10
2263.477517988943
20
-794.885357691275
30
5.999994329505
11
2263.305024870734
21
-795.082048395631
31
5.999994329505
0
LINE
8
8
10
2263.305024870734
20
-795.082048395631
30
5.999994329505
11
2263.159680743747
21
-795.299571253648
31
5.999994329505
0
LINE
8
8
10
2263.043972486293
20
-795.534204388918
30
5.999994329505
11
2262.959879898738
21
-795.781933163443
31
5.999994329505
0
LINE
8
8
10
2262.959879898738
20
-795.781933163443
30
5.999994329505
11
2262.908841828568
21
-796.038518869208
31
5.999994329505
0
LINE
8
8
10
2262.891731551316
20
-796.299571253648
30
5.999994329505
11
2262.891731551314
21
-805.632904586982
31
5.999994329505
0
LINE
8
8
10
2262.959879898735
20
-806.150542677187
30
5.999994329505
11
2262.908841828566
21
-805.893956971422
31
5.999994329505
0
LINE
8
8
10
2263.043972486291
20
-806.398271451712
30
5.999994329505
11
2262.959879898735
21
-806.150542677187
31
5.999994329505
0
LINE
8
8
10
2264.891731551313
20
-807.632904586982
30
5.999994329505
11
2264.630679166873
21
-807.61579430973
31
5.999994329505
0
LINE
8
8
10
2268.891731551313
20
-807.632904586983
30
5.999994329505
11
2264.891731551313
21
-807.632904586982
31
5.999994329505
0
LINE
8
8
10
2268.891731551313
20
-807.632904586983
30
5.999994329505
11
2268.891731551295
21
-820.966237920317
31
5.999994330505
0
LINE
8
8
10
2678.891731551296
20
-820.966237920412
30
5.999994330505
11
2268.891731551295
21
-820.966237920317
31
5.999994330505
0
LINE
8
8
10
2678.891731551304
20
-807.632904587079
30
5.999994330171
11
2678.891731551296
21
-820.966237920412
31
5.999994330505
0
LINE
8
8
10
2678.891731551304
20
-807.632904587079
30
5.999994330171
11
2682.891731551304
21
-807.632904587081
31
5.999994330171
0
LINE
8
9
10
2270.106980940799
20
-870.999625958256
30
5.999994330505
11
2270.624618193606
21
-871.067773617559
31
5.999994330505
0
LINE
8
9
10
2575.824618289101
20
-854.067773617587
30
5.999994330505
11
2577.324618289102
21
-854.067773617591
31
5.999994330505
0
LINE
8
9
10
2597.838831374241
20
-870.481986798177
30
5.999994330505
11
2598.156668135717
21
-870.067773617635
31
5.999994330505
0
LINE
8
9
10
2305.142255446414
20
-870.999625958331
30
5.999994330505
11
2305.624618193607
21
-870.79982355965
31
5.999994330505
0
LINE
8
9
10
2306.356668135625
20
-870.067773617635
30
5.999994330505
11
2306.556470534308
21
-869.585410870443
31
5.999994330505
0
LINE
8
9
10
2295.124618193611
20
-869.067773617611
30
5.999994330505
11
2295.124618193619
21
-865.067773617611
31
5.999994330505
0
LINE
8
9
10
2560.692568251683
20
-870.067773617555
30
5.999994330505
11
2561.010405013157
21
-870.481986798098
31
5.999994330505
0
LINE
8
9
10
2289.724618098252
20
-865.0677736176
30
5.999994330505
11
2289.724618098276
21
-854.0677736176
31
5.999994330505
0
LINE
8
9
10
2280.124618193619
20
-865.067773617579
30
5.999994330505
11
2280.12461819361
21
-869.067773617579
31
5.999994330505
0
LINE
8
9
10
2587.924618193699
20
-870.79982355963
30
5.999994330505
11
2588.406979987216
21
-870.999625958313
31
5.999994330505
0
LINE
8
9
10
2598.156668135717
20
-870.067773617635
30
5.999994330505
11
2598.356470534399
21
-869.585410870443
31
5.999994330505
0
LINE
8
9
10
2304.624618193606
20
-871.067773617631
30
5.999994330505
11
2297.124618193607
21
-871.067773617616
31
5.999994330505
0
LINE
8
9
10
2577.324618289108
20
-851.067773617591
30
5.999994330505
11
2575.824618289108
21
-851.067773617587
31
5.999994330505
0
LINE
8
9
10
2291.224618098282
20
-851.067773617603
30
5.999994330505
11
2289.724618098282
21
-851.0677736176
31
5.999994330505
0
LINE
8
9
10
2295.192766329749
20
-869.585410870419
30
5.999994330505
11
2295.392567297918
21
-870.067773617612
31
5.999994330505
0
LINE
8
9
10
2284.736388867465
20
-841.118882577082
30
5.999994330508
11
2285.124618238343
21
-841.067769454204
31
5.999994330508
0
LINE
8
9
10
2284.063964545275
20
-841.507108122485
30
5.999994330508
11
2284.374618235351
21
-841.268731509681
31
5.999994330508
0
LINE
8
9
10
2284.374618235351
20
-841.268731509681
30
5.999994330508
11
2284.736388867465
21
-841.118882577082
31
5.999994330508
0
LINE
8
9
10
2289.724618098283
20
-850.0677736176
30
5.999994330505
11
2285.524618289019
21
-850.067773617591
31
5.999994330505
0
LINE
8
9
10
2289.724618098282
20
-851.0677736176
30
5.999994330505
11
2289.724618098283
21
-850.0677736176
31
5.999994330505
0
LINE
8
9
10
2283.825576479124
20
-841.817769434852
30
5.999994330508
11
2284.063964545275
21
-841.507108122485
31
5.999994330508
0
LINE
8
9
10
2283.624618215998
20
-842.567769431858
30
5.999994330508
11
2283.67573516514
21
-842.179540062502
31
5.999994330508
0
LINE
8
9
10
2283.67573516514
20
-842.179540062502
30
5.999994330508
11
2283.825576479124
21
-841.817769434852
31
5.999994330508
0
LINE
8
9
10
2283.675735153573
20
-842.955998802736
30
5.999994330508
11
2283.624618215998
21
-842.567769431858
31
5.999994330508
0
LINE
8
9
10
2581.912847446957
20
-844.016660591544
30
5.999994330505
11
2581.524618076078
21
-844.067773714421
31
5.999994330505
0
LINE
8
9
10
2576.524618076078
20
-844.067773639934
30
5.999994330505
11
2576.136388706722
21
-844.016660505488
31
5.999994330505
0
LINE
8
9
10
2284.063964513673
20
-843.628430754321
30
5.999994330508
11
2283.825576456778
21
-843.317769434851
31
5.999994330508
0
LINE
8
9
10
2283.825576456778
20
-843.317769434851
30
5.999994330508
11
2283.675735153573
21
-842.955998802736
31
5.999994330508
0
LINE
8
9
10
2284.374618196645
20
-843.86680737638
30
5.999994330508
11
2284.063964513673
21
-843.628430754321
31
5.999994330508
0
LINE
8
9
10
2285.124618193651
20
-844.067769454204
30
5.999994330508
11
2284.736388824295
21
-844.016656319758
31
5.999994330508
0
LINE
8
9
10
2284.736388824295
20
-844.016656319758
30
5.999994330508
11
2284.374618196645
21
-843.86680737638
31
5.999994330508
0
LINE
8
9
10
2582.973501160849
20
-842.179544365889
30
5.999994330505
11
2583.024618098424
21
-842.567773736768
31
5.999994330505
0
LINE
8
9
10
2575.463964427702
20
-841.507112308215
30
5.999994330505
11
2575.774618117777
21
-841.268735695411
31
5.999994330505
0
LINE
8
9
10
2576.136388749891
20
-841.118886762812
30
5.999994330505
11
2576.52461812077
21
-841.067773639934
31
5.999994330505
0
LINE
8
9
10
2290.124618193652
20
-844.067769528692
30
5.999994330508
11
2285.124618193651
21
-844.067769454204
31
5.999994330508
0
LINE
8
9
10
2290.874618196645
20
-843.866807473215
30
5.999994330508
11
2290.51284756453
21
-844.016656405814
31
5.999994330508
0
LINE
8
9
10
2290.51284756453
20
-844.016656405814
30
5.999994330508
11
2290.124618193652
21
-844.067769528692
31
5.999994330508
0
LINE
8
9
10
2291.185271886719
20
-843.628430860411
30
5.999994330508
11
2290.874618196645
21
-843.866807473215
31
5.999994330508
0
LINE
8
9
10
2510.174618127817
20
-842.567772690335
30
5.999994330506
11
2510.123501178674
21
-842.956002059691
31
5.999994330506
0
LINE
8
9
10
2510.123501178674
20
-842.956002059691
30
5.999994330506
11
2509.973659864691
21
-843.317772687342
31
5.999994330506
0
LINE
8
9
10
2509.973659864691
20
-843.317772687342
30
5.999994330506
11
2509.73527179854
21
-843.628433999708
31
5.999994330506
0
LINE
8
9
10
2509.73527179854
20
-843.628433999708
30
5.999994330506
11
2509.424618108465
21
-843.866810612512
31
5.999994330505
0
LINE
8
9
10
2509.424618108465
20
-843.866810612512
30
5.999994330505
11
2509.06284747635
21
-844.016659545111
31
5.999994330505
0
LINE
8
9
10
2509.06284747635
20
-844.016659545111
30
5.999994330505
11
2508.674618105472
21
-844.067772667989
31
5.999994330505
0
LINE
8
9
10
2508.674618105472
20
-844.067772667989
30
5.999994330505
11
2503.674618105471
21
-844.067772593501
31
5.999994330506
0
LINE
8
9
10
2503.674618105471
20
-844.067772593501
30
5.999994330506
11
2503.286388736115
21
-844.016659459056
31
5.999994330505
0
LINE
8
9
10
2503.286388736115
20
-844.016659459056
30
5.999994330505
11
2502.924618108465
21
-843.866810515678
31
5.999994330506
0
LINE
8
9
10
2502.924618108465
20
-843.866810515678
30
5.999994330506
11
2502.613964425493
21
-843.628433893618
31
5.999994330505
0
LINE
8
9
10
2502.613964425493
20
-843.628433893618
30
5.999994330505
11
2502.375576368598
21
-843.317772574149
31
5.999994330505
0
LINE
8
9
10
2508.674618150163
20
-841.067772667989
30
5.999994330505
11
2509.06284751952
21
-841.118885802435
31
5.999994330505
0
LINE
8
9
10
2509.06284751952
20
-841.118885802435
30
5.999994330505
11
2509.42461814717
21
-841.268734745813
31
5.999994330505
0
LINE
8
9
10
2509.42461814717
20
-841.268734745813
30
5.999994330505
11
2509.735271830142
21
-841.507111367872
31
5.999994330506
0
LINE
8
9
10
2509.735271830142
20
-841.507111367872
30
5.999994330506
11
2509.973659887037
21
-841.817772687342
31
5.999994330506
0
LINE
8
9
10
2509.973659887037
20
-841.817772687342
30
5.999994330506
11
2510.123501190242
21
-842.179543319457
31
5.999994330506
0
LINE
8
9
10
2510.123501190242
20
-842.179543319457
30
5.999994330506
11
2510.174618127817
21
-842.567772690335
31
5.999994330506
0
LINE
8
9
10
2598.156668135787
20
-836.073725695057
30
5.999994330505
11
2597.838831374313
21
-835.659512514514
31
5.999994330505
0
LINE
8
9
10
2597.838831374313
20
-835.659512514514
30
5.999994330505
11
2597.424618193771
21
-835.341675753039
31
5.999994330505
0
LINE
8
9
10
2502.375576368598
20
-843.317772574149
30
5.999994330505
11
2502.225735065393
21
-842.956001942034
31
5.999994330505
0
LINE
8
9
10
2291.573501266855
20
-842.955998920393
30
5.999994330508
11
2291.423659952871
21
-843.317769548045
31
5.999994330508
0
LINE
8
9
10
2291.423659952871
20
-843.317769548045
30
5.999994330508
11
2291.185271886719
21
-843.628430860411
31
5.999994330508
0
LINE
8
9
10
2430.824618179557
20
-841.067771547069
30
5.999994330506
11
2435.824618179557
21
-841.067771621556
31
5.999994330506
0
LINE
8
9
10
2435.824618179557
20
-841.067771621556
30
5.999994330506
11
2436.212847548913
21
-841.118884756002
31
5.999994330506
0
LINE
8
9
10
2598.424618193768
20
-837.073725695058
30
5.999994330505
11
2598.424618193702
21
-869.067773617636
31
5.999994330505
0
LINE
8
9
10
2598.424618193768
20
-837.073725695058
30
5.999994330505
11
2598.356470534468
21
-836.556088442249
31
5.999994330505
0
LINE
8
9
10
2575.774618117777
20
-841.268735695411
30
5.999994330505
11
2576.136388749891
21
-841.118886762812
31
5.999994330505
0
LINE
8
9
10
2571.924618193711
20
-865.067773617579
30
5.999994330505
11
2571.924618193702
21
-869.067773617579
31
5.999994330505
0
LINE
8
9
10
2587.192567298009
20
-870.067773617612
30
5.999994330505
11
2587.510405013157
21
-870.481986798154
31
5.999994330505
0
LINE
8
9
10
2306.556470534308
20
-869.585410870443
30
5.999994330505
11
2306.624618193611
21
-869.067773617636
31
5.999994330505
0
LINE
8
9
10
2268.624618193611
20
-869.067773617554
30
5.999994330505
11
2268.623781493309
21
-837.067773617568
31
5.999994330505
0
LINE
8
9
10
2586.924618193702
20
-869.067773617611
30
5.999994330505
11
2586.924618193711
21
-865.067773617611
31
5.999994330505
0
LINE
8
9
10
2576.52461812077
20
-841.067773639934
30
5.999994330505
11
2581.52461812077
21
-841.067773714421
31
5.999994330505
0
LINE
8
9
10
2576.136388706722
20
-844.016660505488
30
5.999994330505
11
2575.774618079072
21
-843.86681156211
31
5.999994330505
0
LINE
8
9
10
2280.056470057471
20
-869.585410870386
30
5.999994330505
11
2280.12461819361
21
-869.067773617579
31
5.999994330505
0
LINE
8
9
10
2582.823659857644
20
-841.817773733774
30
5.999994330505
11
2582.973501160849
21
-842.179544365889
31
5.999994330505
0
LINE
8
9
10
2268.692765852911
20
-869.585410870362
30
5.999994330505
11
2268.892568251592
21
-870.067773617555
31
5.999994330505
0
LINE
8
9
10
2575.774618079072
20
-843.86681156211
30
5.999994330505
11
2575.4639643961
21
-843.628434940051
31
5.999994330505
0
LINE
8
9
10
2582.973501149281
20
-842.956003106123
30
5.999994330505
11
2582.823659835298
21
-843.317773733775
31
5.999994330505
0
LINE
8
9
10
2588.406979987216
20
-870.999625958313
30
5.999994330505
11
2588.924618193698
21
-871.067773617616
31
5.999994330505
0
LINE
8
9
10
2575.075735036
20
-842.956002988466
30
5.999994330505
11
2575.024618098425
21
-842.567773617588
31
5.999994330505
0
LINE
8
9
10
2304.624618193606
20
-871.067773617631
30
5.999994330505
11
2305.142255446414
21
-870.999625958331
31
5.999994330505
0
LINE
8
9
10
2581.524618098343
20
-865.0677736176
30
5.999994330505
11
2581.524618098367
21
-854.0677736176
31
5.999994330505
0
LINE
8
9
10
2583.024618098373
20
-851.067773617603
30
5.999994330505
11
2581.524618098373
21
-851.0677736176
31
5.999994330505
0
LINE
8
9
10
2278.124618193607
20
-871.067773617575
30
5.999994330505
11
2278.642256400088
21
-870.999625958274
31
5.999994330505
0
LINE
8
9
10
2306.624618193619
20
-865.067773617579
30
5.999994330505
11
2560.424618193703
21
-865.067773617579
31
5.999994330505
0
LINE
8
9
10
2296.606979987124
20
-870.999625958313
30
5.999994330505
11
2297.124618193607
21
-871.067773617616
31
5.999994330505
0
LINE
8
9
10
2586.924618193702
20
-869.067773617611
30
5.999994330505
11
2586.99276632984
21
-869.585410870419
31
5.999994330505
0
LINE
8
9
10
2279.124618193607
20
-870.799823559594
30
5.999994330505
11
2279.53883137415
21
-870.48198679812
31
5.999994330505
0
LINE
8
9
10
2295.124618193619
20
-865.067773617611
30
5.999994330505
11
2289.724618098252
21
-865.0677736176
31
5.999994330505
0
LINE
8
9
10
2269.210405013065
20
-870.481986798098
30
5.999994330505
11
2269.624618193607
21
-870.799823559573
31
5.999994330505
0
LINE
8
9
10
2582.823659835298
20
-843.317773733775
30
5.999994330505
11
2582.585271769146
21
-843.628435046141
31
5.999994330505
0
LINE
8
9
10
2569.924618193698
20
-871.067773617575
30
5.999994330505
11
2562.424618193698
21
-871.067773617559
31
5.999994330505
0
LINE
8
9
10
2596.424618193697
20
-871.067773617632
30
5.999994330505
11
2596.942255446506
21
-870.999625958331
31
5.999994330505
0
LINE
8
9
10
2269.624618193607
20
-870.799823559573
30
5.999994330505
11
2270.106980940799
21
-870.999625958256
31
5.999994330505
0
LINE
8
9
10
2268.624618193611
20
-869.067773617554
30
5.999994330505
11
2268.692765852911
21
-869.585410870362
31
5.999994330505
0
LINE
8
9
10
2278.642256400088
20
-870.999625958274
30
5.999994330505
11
2279.124618193607
21
-870.799823559594
31
5.999994330505
0
LINE
8
9
10
2278.124618193607
20
-871.067773617575
30
5.999994330505
11
2270.624618193606
21
-871.067773617559
31
5.999994330505
0
LINE
8
9
10
2268.891731551295
20
-836.067773617569
30
5.999994330505
11
2268.691929152612
21
-836.550136364761
31
5.999994330505
0
LINE
8
9
10
2269.20956831277
20
-835.653560437027
30
5.999994330505
11
2268.891731551295
21
-836.067773617569
31
5.999994330505
0
LINE
8
9
10
2268.691929152612
20
-836.550136364761
30
5.999994330505
11
2268.623781493309
21
-837.067773617568
31
5.999994330505
0
LINE
8
9
10
2270.106144240505
20
-835.135921276873
30
5.999994330505
11
2269.623781493313
21
-835.335723675554
31
5.999994330505
0
LINE
8
9
10
2268.892568251592
20
-870.067773617555
30
5.999994330505
11
2269.210405013065
21
-870.481986798098
31
5.999994330505
0
LINE
8
9
10
2269.623781493313
20
-835.335723675554
30
5.999994330505
11
2269.20956831277
21
-835.653560437027
31
5.999994330505
0
LINE
8
9
10
2285.52461828901
20
-854.067773617591
30
5.999994330505
11
2285.524618288987
21
-865.067773617591
31
5.999994330505
0
LINE
8
9
10
2598.356470534468
20
-836.556088442249
30
5.999994330505
11
2598.156668135787
21
-836.073725695057
31
5.999994330505
0
LINE
8
9
10
2285.524618289016
20
-851.067773617591
30
5.999994330505
11
2284.024618289017
21
-851.067773617587
31
5.999994330505
0
LINE
8
9
10
2270.623781493313
20
-835.067773617572
30
5.999994330505
11
2270.106144240505
21
-835.135921276873
31
5.999994330505
0
LINE
8
9
10
2581.524618076078
20
-844.067773714421
30
5.999994330505
11
2576.524618076078
21
-844.067773639934
31
5.999994330505
0
LINE
8
9
10
2596.94225544658
20
-835.141873354356
30
5.999994330505
11
2596.424618193773
21
-835.073725695053
31
5.999994330505
0
LINE
8
9
10
2437.123659894085
20
-843.31777164091
30
5.999994330507
11
2436.885271827933
21
-843.628432953276
31
5.999994330507
0
LINE
8
9
10
2436.885271827933
20
-843.628432953276
30
5.999994330507
11
2436.574618137859
21
-843.866809566079
31
5.999994330506
0
LINE
8
9
10
2279.53883137415
20
-870.48198679812
30
5.999994330505
11
2279.856669089299
21
-870.067773617579
31
5.999994330505
0
LINE
8
9
10
2582.274618117777
20
-841.268735792245
30
5.999994330505
11
2582.585271800749
21
-841.507112414305
31
5.999994330505
0
LINE
8
9
10
2270.623781493313
20
-835.067773617572
30
5.999994330505
11
2596.424618193773
21
-835.073725695053
31
5.999994330505
0
LINE
8
9
10
2285.524618288987
20
-865.067773617591
30
5.999994330505
11
2280.124618193619
21
-865.067773617579
31
5.999994330505
0
LINE
8
9
10
2597.424618193771
20
-835.341675753039
30
5.999994330505
11
2596.94225544658
21
-835.141873354356
31
5.999994330505
0
LINE
8
9
10
2279.856669089299
20
-870.067773617579
30
5.999994330505
11
2280.056470057471
21
-869.585410870386
31
5.999994330505
0
LINE
8
9
10
2583.024618098424
20
-842.567773736768
30
5.999994330505
11
2582.973501149281
21
-842.956003106123
31
5.999994330505
0
LINE
8
9
10
2291.224618098275
20
-854.067773617603
30
5.999994330505
11
2291.224618098282
21
-851.067773617603
31
5.999994330505
0
LINE
8
9
10
2289.724618098276
20
-854.0677736176
30
5.999994330505
11
2291.224618098275
21
-854.067773617603
31
5.999994330505
0
LINE
8
9
10
2295.124618193611
20
-869.067773617611
30
5.999994330505
11
2295.192766329749
21
-869.585410870419
31
5.999994330505
0
LINE
8
9
10
2285.524618289019
20
-850.067773617591
30
5.999994330505
11
2285.524618289016
21
-851.067773617591
31
5.999994330505
0
LINE
8
9
10
2295.392567297918
20
-870.067773617612
30
5.999994330505
11
2295.710405013066
21
-870.481986798154
31
5.999994330505
0
LINE
8
9
10
2284.02461828901
20
-854.067773617587
30
5.999994330505
11
2285.52461828901
21
-854.067773617591
31
5.999994330505
0
LINE
8
9
10
2284.024618289017
20
-851.067773617587
30
5.999994330505
11
2284.02461828901
21
-854.067773617587
31
5.999994330505
0
LINE
8
9
10
2295.710405013066
20
-870.481986798154
30
5.999994330505
11
2296.124618193607
21
-870.79982355963
31
5.999994330505
0
LINE
8
9
10
2296.124618193607
20
-870.79982355963
30
5.999994330505
11
2296.606979987124
21
-870.999625958313
31
5.999994330505
0
LINE
8
9
10
2305.624618193607
20
-870.79982355965
30
5.999994330505
11
2306.03883137415
21
-870.481986798176
31
5.999994330505
0
LINE
8
9
10
2306.03883137415
20
-870.481986798176
30
5.999994330505
11
2306.356668135625
21
-870.067773617635
31
5.999994330505
0
LINE
8
9
10
2306.624618193619
20
-865.067773617579
30
5.999994330505
11
2306.624618193611
21
-869.067773617636
31
5.999994330505
0
LINE
8
9
10
2560.424618193702
20
-869.067773617555
30
5.999994330505
11
2560.424618193703
21
-865.067773617579
31
5.999994330505
0
LINE
8
9
10
2560.424618193702
20
-869.067773617555
30
5.999994330505
11
2560.492765853002
21
-869.585410870362
31
5.999994330505
0
LINE
8
9
10
2560.492765853002
20
-869.585410870362
30
5.999994330505
11
2560.692568251683
21
-870.067773617555
31
5.999994330505
0
LINE
8
9
10
2561.010405013157
20
-870.481986798098
30
5.999994330505
11
2561.424618193698
21
-870.799823559573
31
5.999994330505
0
LINE
8
9
10
2561.424618193698
20
-870.799823559573
30
5.999994330505
11
2561.90698094089
21
-870.999625958256
31
5.999994330505
0
LINE
8
9
10
2561.90698094089
20
-870.999625958256
30
5.999994330505
11
2562.424618193698
21
-871.067773617559
31
5.999994330505
0
LINE
8
9
10
2569.924618193698
20
-871.067773617575
30
5.999994330505
11
2570.44225640018
21
-870.999625958274
31
5.999994330505
0
LINE
8
9
10
2570.44225640018
20
-870.999625958274
30
5.999994330505
11
2570.924618193698
21
-870.799823559594
31
5.999994330505
0
LINE
8
9
10
2570.924618193698
20
-870.799823559594
30
5.999994330505
11
2571.338831374241
21
-870.48198679812
31
5.999994330505
0
LINE
8
9
10
2571.338831374241
20
-870.48198679812
30
5.999994330505
11
2571.656669089391
21
-870.067773617579
31
5.999994330505
0
LINE
8
9
10
2571.656669089391
20
-870.067773617579
30
5.999994330505
11
2571.856470057562
21
-869.585410870387
31
5.999994330505
0
LINE
8
9
10
2571.856470057562
20
-869.585410870387
30
5.999994330505
11
2571.924618193702
21
-869.067773617579
31
5.999994330505
0
LINE
8
9
10
2577.324618289078
20
-865.067773617591
30
5.999994330505
11
2571.924618193711
21
-865.067773617579
31
5.999994330505
0
LINE
8
9
10
2577.324618289102
20
-854.067773617591
30
5.999994330505
11
2577.324618289078
21
-865.067773617591
31
5.999994330505
0
LINE
8
9
10
2575.824618289108
20
-851.067773617587
30
5.999994330505
11
2575.824618289101
21
-854.067773617587
31
5.999994330505
0
LINE
8
9
10
2577.32461828911
20
-850.067773617591
30
5.999994330505
11
2577.324618289108
21
-851.067773617591
31
5.999994330505
0
LINE
8
9
10
2581.524618098375
20
-850.0677736176
30
5.999994330505
11
2577.32461828911
21
-850.067773617591
31
5.999994330505
0
LINE
8
9
10
2581.524618098373
20
-851.0677736176
30
5.999994330505
11
2581.524618098375
21
-850.0677736176
31
5.999994330505
0
LINE
8
9
10
2583.024618098367
20
-854.067773617603
30
5.999994330505
11
2583.024618098373
21
-851.067773617603
31
5.999994330505
0
LINE
8
9
10
2581.524618098367
20
-854.0677736176
30
5.999994330505
11
2583.024618098367
21
-854.067773617603
31
5.999994330505
0
LINE
8
9
10
2586.924618193711
20
-865.067773617611
30
5.999994330505
11
2581.524618098343
21
-865.0677736176
31
5.999994330505
0
LINE
8
9
10
2586.99276632984
20
-869.585410870419
30
5.999994330505
11
2587.192567298009
21
-870.067773617612
31
5.999994330505
0
LINE
8
9
10
2587.510405013157
20
-870.481986798154
30
5.999994330505
11
2587.924618193699
21
-870.79982355963
31
5.999994330505
0
LINE
8
9
10
2596.424618193697
20
-871.067773617632
30
5.999994330505
11
2588.924618193698
21
-871.067773617616
31
5.999994330505
0
LINE
8
9
10
2596.942255446506
20
-870.999625958331
30
5.999994330505
11
2597.424618193699
21
-870.79982355965
31
5.999994330505
0
LINE
8
9
10
2597.424618193699
20
-870.79982355965
30
5.999994330505
11
2597.838831374241
21
-870.481986798177
31
5.999994330505
0
LINE
8
9
10
2598.356470534399
20
-869.585410870443
30
5.999994330505
11
2598.424618193702
21
-869.067773617636
31
5.999994330505
0
LINE
8
9
10
2582.585271769146
20
-843.628435046141
30
5.999994330505
11
2582.274618079072
21
-843.866811658945
31
5.999994330505
0
LINE
8
9
10
2582.274618079072
20
-843.866811658945
30
5.999994330505
11
2581.912847446957
21
-844.016660591544
31
5.999994330505
0
LINE
8
9
10
2575.4639643961
20
-843.628434940051
30
5.999994330505
11
2575.225576339205
21
-843.317773620581
31
5.999994330505
0
LINE
8
9
10
2575.225576339205
20
-843.317773620581
30
5.999994330505
11
2575.075735036
21
-842.956002988466
31
5.999994330505
0
LINE
8
9
10
2575.024618098425
20
-842.567773617588
30
5.999994330505
11
2575.075735047567
21
-842.179544248232
31
5.999994330505
0
LINE
8
9
10
2575.075735047567
20
-842.179544248232
30
5.999994330505
11
2575.22557636155
21
-841.817773620582
31
5.999994330505
0
LINE
8
9
10
2575.22557636155
20
-841.817773620582
30
5.999994330505
11
2575.463964427702
21
-841.507112308215
31
5.999994330505
0
LINE
8
9
10
2581.52461812077
20
-841.067773714421
30
5.999994330505
11
2581.912847490126
21
-841.118886848867
31
5.999994330505
0
LINE
8
9
10
2581.912847490126
20
-841.118886848867
30
5.999994330505
11
2582.274618117777
21
-841.268735792245
31
5.999994330505
0
LINE
8
9
10
2582.585271800749
20
-841.507112414305
30
5.999994330505
11
2582.823659857644
21
-841.817773733774
31
5.999994330505
0
LINE
8
9
10
2502.225735065393
20
-842.956001942034
30
5.999994330505
11
2502.174618127818
21
-842.567772571155
31
5.999994330505
0
LINE
8
9
10
2502.174618127818
20
-842.567772571155
30
5.999994330505
11
2502.225735076961
21
-842.179543201799
31
5.999994330505
0
LINE
8
9
10
2502.225735076961
20
-842.179543201799
30
5.999994330505
11
2502.375576390944
21
-841.817772574149
31
5.999994330505
0
LINE
8
9
10
2502.375576390944
20
-841.817772574149
30
5.999994330505
11
2502.613964457095
21
-841.507111261782
31
5.999994330505
0
LINE
8
9
10
2502.613964457095
20
-841.507111261782
30
5.999994330505
11
2502.92461814717
21
-841.268734648978
31
5.999994330506
0
LINE
8
9
10
2502.92461814717
20
-841.268734648978
30
5.999994330506
11
2503.286388779285
21
-841.118885716379
31
5.999994330505
0
LINE
8
9
10
2503.286388779285
20
-841.118885716379
30
5.999994330505
11
2503.674618150163
21
-841.067772593501
31
5.999994330506
0
LINE
8
9
10
2503.674618150163
20
-841.067772593501
30
5.999994330506
11
2508.674618150163
21
-841.067772667989
31
5.999994330505
0
LINE
8
9
10
2429.375735094787
20
-842.956000895601
30
5.999994330506
11
2429.324618157211
21
-842.567771524723
31
5.999994330506
0
LINE
8
9
10
2429.324618157211
20
-842.567771524723
30
5.999994330506
11
2429.375735106354
21
-842.179542155366
31
5.999994330506
0
LINE
8
9
10
2429.375735106354
20
-842.179542155366
30
5.999994330506
11
2429.525576420337
21
-841.817771527716
31
5.999994330506
0
LINE
8
9
10
2429.525576420337
20
-841.817771527716
30
5.999994330506
11
2429.763964486488
21
-841.50711021535
31
5.999994330506
0
LINE
8
9
10
2429.763964486488
20
-841.50711021535
30
5.999994330506
11
2430.074618176564
21
-841.268733602546
31
5.999994330506
0
LINE
8
9
10
2430.074618176564
20
-841.268733602546
30
5.999994330506
11
2430.436388808678
21
-841.118884669947
31
5.999994330506
0
LINE
8
9
10
2430.436388808678
20
-841.118884669947
30
5.999994330506
11
2430.824618179557
21
-841.067771547069
31
5.999994330506
0
LINE
8
9
10
2436.212847548913
20
-841.118884756002
30
5.999994330506
11
2436.574618176564
21
-841.26873369938
31
5.999994330506
0
LINE
8
9
10
2436.574618176564
20
-841.26873369938
30
5.999994330506
11
2436.885271859535
21
-841.50711032144
31
5.999994330506
0
LINE
8
9
10
2436.885271859535
20
-841.50711032144
30
5.999994330506
11
2437.12365991643
21
-841.817771640909
31
5.999994330506
0
LINE
8
9
10
2437.12365991643
20
-841.817771640909
30
5.999994330506
11
2437.273501219635
21
-842.179542273024
31
5.999994330507
0
LINE
8
9
10
2437.273501219635
20
-842.179542273024
30
5.999994330507
11
2437.324618157211
21
-842.567771643903
31
5.999994330507
0
LINE
8
9
10
2437.324618157211
20
-842.567771643903
30
5.999994330507
11
2437.273501208068
21
-842.956001013258
31
5.999994330507
0
LINE
8
9
10
2437.273501208068
20
-842.956001013258
30
5.999994330507
11
2437.123659894085
21
-843.31777164091
31
5.999994330507
0
LINE
8
9
10
2436.574618137859
20
-843.866809566079
30
5.999994330506
11
2436.212847505743
21
-844.016658498678
31
5.999994330506
0
LINE
8
9
10
2436.212847505743
20
-844.016658498678
30
5.999994330506
11
2435.824618134865
21
-844.067771621556
31
5.999994330506
0
LINE
8
9
10
2435.824618134865
20
-844.067771621556
30
5.999994330506
11
2430.824618134865
21
-844.067771547069
31
5.999994330507
0
LINE
8
9
10
2430.824618134865
20
-844.067771547069
30
5.999994330507
11
2430.436388765509
21
-844.016658412623
31
5.999994330506
0
LINE
8
9
10
2430.436388765509
20
-844.016658412623
30
5.999994330506
11
2430.074618137859
21
-843.866809469245
31
5.999994330507
0
LINE
8
9
10
2430.074618137859
20
-843.866809469245
30
5.999994330507
11
2429.763964454886
21
-843.628432847186
31
5.999994330506
0
LINE
8
9
10
2429.763964454886
20
-843.628432847186
30
5.999994330506
11
2429.525576397991
21
-843.317771527716
31
5.999994330506
0
LINE
8
9
10
2429.525576397991
20
-843.317771527716
30
5.999994330506
11
2429.375735094787
21
-842.956000895601
31
5.999994330506
0
LINE
8
9
10
2356.52573512418
20
-842.955999849169
30
5.999994330507
11
2356.474618186604
21
-842.56777047829
31
5.999994330507
0
LINE
8
9
10
2356.474618186604
20
-842.56777047829
30
5.999994330507
11
2356.525735135747
21
-842.179541108934
31
5.999994330507
0
LINE
8
9
10
2356.525735135747
20
-842.179541108934
30
5.999994330507
11
2356.675576449731
21
-841.817770481284
31
5.999994330507
0
LINE
8
9
10
2356.675576449731
20
-841.817770481284
30
5.999994330507
11
2356.913964515882
21
-841.507109168917
31
5.999994330507
0
LINE
8
9
10
2356.913964515882
20
-841.507109168917
30
5.999994330507
11
2357.224618205957
21
-841.268732556114
31
5.999994330507
0
LINE
8
9
10
2357.224618205957
20
-841.268732556114
30
5.999994330507
11
2357.586388838071
21
-841.118883623515
31
5.999994330507
0
LINE
8
9
10
2357.586388838071
20
-841.118883623515
30
5.999994330507
11
2357.97461820895
21
-841.067770500637
31
5.999994330507
0
LINE
8
9
10
2357.97461820895
20
-841.067770500637
30
5.999994330507
11
2362.97461820895
21
-841.067770575124
31
5.999994330507
0
LINE
8
9
10
2362.97461820895
20
-841.067770575124
30
5.999994330507
11
2363.362847578306
21
-841.11888370957
31
5.999994330507
0
LINE
8
9
10
2363.362847578306
20
-841.11888370957
30
5.999994330507
11
2363.724618205957
21
-841.268732652948
31
5.999994330507
0
LINE
8
9
10
2363.724618205957
20
-841.268732652948
30
5.999994330507
11
2364.035271888928
21
-841.507109275007
31
5.999994330507
0
LINE
8
9
10
2364.035271888928
20
-841.507109275007
30
5.999994330507
11
2364.273659945824
21
-841.817770594477
31
5.999994330507
0
LINE
8
9
10
2364.273659945824
20
-841.817770594477
30
5.999994330507
11
2364.423501249029
21
-842.179541226592
31
5.999994330507
0
LINE
8
9
10
2364.423501249029
20
-842.179541226592
30
5.999994330507
11
2364.474618186604
21
-842.567770597471
31
5.999994330507
0
LINE
8
9
10
2364.474618186604
20
-842.567770597471
30
5.999994330507
11
2364.423501237461
21
-842.955999966826
31
5.999994330507
0
LINE
8
9
10
2364.423501237461
20
-842.955999966826
30
5.999994330507
11
2364.273659923478
21
-843.317770594477
31
5.999994330507
0
LINE
8
9
10
2364.273659923478
20
-843.317770594477
30
5.999994330507
11
2364.035271857326
21
-843.628431906844
31
5.999994330507
0
LINE
8
9
10
2364.035271857326
20
-843.628431906844
30
5.999994330507
11
2363.724618167252
21
-843.866808519647
31
5.999994330507
0
LINE
8
9
10
2363.724618167252
20
-843.866808519647
30
5.999994330507
11
2363.362847535137
21
-844.016657452246
31
5.999994330507
0
LINE
8
9
10
2363.362847535137
20
-844.016657452246
30
5.999994330507
11
2362.974618164258
21
-844.067770575124
31
5.999994330507
0
LINE
8
9
10
2362.974618164258
20
-844.067770575124
30
5.999994330507
11
2357.974618164258
21
-844.067770500637
31
5.999994330507
0
LINE
8
9
10
2357.974618164258
20
-844.067770500637
30
5.999994330507
11
2357.586388794902
21
-844.016657366191
31
5.999994330507
0
LINE
8
9
10
2357.586388794902
20
-844.016657366191
30
5.999994330507
11
2357.224618167252
21
-843.866808422813
31
5.999994330507
0
LINE
8
9
10
2357.224618167252
20
-843.866808422813
30
5.999994330507
11
2356.913964484279
21
-843.628431800754
31
5.999994330507
0
LINE
8
9
10
2356.913964484279
20
-843.628431800754
30
5.999994330507
11
2356.675576427384
21
-843.317770481284
31
5.999994330507
0
LINE
8
9
10
2356.675576427384
20
-843.317770481284
30
5.999994330507
11
2356.52573512418
21
-842.955999849169
31
5.999994330507
0
LINE
8
9
10
2285.124618238343
20
-841.067769454204
30
5.999994330508
11
2290.124618238344
21
-841.067769528692
31
5.999994330508
0
LINE
8
9
10
2290.124618238344
20
-841.067769528692
30
5.999994330508
11
2290.5128476077
21
-841.118882663137
31
5.999994330508
0
LINE
8
9
10
2290.5128476077
20
-841.118882663137
30
5.999994330508
11
2290.87461823535
21
-841.268731606515
31
5.999994330508
0
LINE
8
9
10
2290.87461823535
20
-841.268731606515
30
5.999994330508
11
2291.185271918322
21
-841.507108228575
31
5.999994330508
0
LINE
8
9
10
2291.185271918322
20
-841.507108228575
30
5.999994330508
11
2291.423659975217
21
-841.817769548044
31
5.999994330508
0
LINE
8
9
10
2291.423659975217
20
-841.817769548044
30
5.999994330508
11
2291.573501278422
21
-842.179540180159
31
5.999994330508
0
LINE
8
9
10
2291.573501278422
20
-842.179540180159
30
5.999994330508
11
2291.624618215997
21
-842.567769551038
31
5.999994330508
0
LINE
8
9
10
2291.624618215997
20
-842.567769551038
30
5.999994330508
11
2291.573501266855
21
-842.955998920393
31
5.999994330508
0
LINE
8
10
10
2502.993602506773
20
-889.786371901772
30
5.999994330506
11
2503.355373138887
21
-889.636522969173
31
5.999994330505
0
LINE
8
10
10
2503.355373138887
20
-889.636522969173
30
5.999994330505
11
2503.743602509766
21
-889.585409846295
31
5.999994330506
0
LINE
8
10
10
2503.743602509766
20
-889.585409846295
30
5.999994330506
11
2508.743602509766
21
-889.585409920783
31
5.999994330505
0
LINE
8
10
10
2429.444719454389
20
-891.473638148395
30
5.999994330506
11
2429.393602516813
21
-891.085408777516
31
5.999994330506
0
LINE
8
10
10
2429.393602516813
20
-891.085408777516
30
5.999994330506
11
2429.444719465956
21
-890.69717940816
31
5.999994330506
0
LINE
8
10
10
2429.444719465956
20
-890.69717940816
30
5.999994330506
11
2429.594560779939
21
-890.33540878051
31
5.999994330506
0
LINE
8
10
10
2429.594560779939
20
-890.33540878051
30
5.999994330506
11
2429.832948846091
21
-890.024747468143
31
5.999994330506
0
LINE
8
10
10
2429.832948846091
20
-890.024747468143
30
5.999994330506
11
2430.143602536166
21
-889.78637085534
31
5.999994330506
0
LINE
8
10
10
2430.143602536166
20
-889.78637085534
30
5.999994330506
11
2430.505373168281
21
-889.636521922741
31
5.999994330506
0
LINE
8
10
10
2430.505373168281
20
-889.636521922741
30
5.999994330506
11
2430.893602539159
21
-889.585408799863
31
5.999994330506
0
LINE
8
10
10
2436.281831908515
20
-889.636522008796
30
5.999994330506
11
2436.643602536166
21
-889.786370952174
31
5.999994330506
0
LINE
8
10
10
2436.643602536166
20
-889.786370952174
30
5.999994330506
11
2436.954256219138
21
-890.024747574233
31
5.999994330506
0
LINE
8
10
10
2436.954256219138
20
-890.024747574233
30
5.999994330506
11
2437.192644276033
21
-890.335408893703
31
5.999994330506
0
LINE
8
10
10
2437.192644276033
20
-890.335408893703
30
5.999994330506
11
2437.342485579237
21
-890.697179525818
31
5.999994330507
0
LINE
8
10
10
2437.342485579237
20
-890.697179525818
30
5.999994330507
11
2437.393602516813
21
-891.085408896697
31
5.999994330507
0
LINE
8
10
10
2437.393602516813
20
-891.085408896697
30
5.999994330507
11
2437.34248556767
21
-891.473638266052
31
5.999994330507
0
LINE
8
10
10
2437.34248556767
20
-891.473638266052
30
5.999994330507
11
2437.192644253687
21
-891.835408893704
31
5.999994330507
0
LINE
8
10
10
2436.643602497461
20
-892.384446818873
30
5.999994330506
11
2436.281831865346
21
-892.534295751472
31
5.999994330506
0
LINE
8
10
10
2436.281831865346
20
-892.534295751472
30
5.999994330506
11
2435.893602494467
21
-892.58540887435
31
5.999994330506
0
LINE
8
10
10
2435.893602494467
20
-892.58540887435
30
5.999994330506
11
2430.893602494467
21
-892.585408799863
31
5.999994330507
0
LINE
8
10
10
2430.893602494467
20
-892.585408799863
30
5.999994330507
11
2430.505373125111
21
-892.534295665417
31
5.999994330506
0
LINE
8
10
10
2430.505373125111
20
-892.534295665417
30
5.999994330506
11
2430.143602497461
21
-892.384446722039
31
5.999994330507
0
LINE
8
10
10
2430.143602497461
20
-892.384446722039
30
5.999994330507
11
2429.832948814489
21
-892.14607009998
31
5.999994330506
0
LINE
8
10
10
2429.832948814489
20
-892.14607009998
30
5.999994330506
11
2429.594560757594
21
-891.83540878051
31
5.999994330506
0
LINE
8
10
10
2429.594560757594
20
-891.83540878051
30
5.999994330506
11
2429.444719454389
21
-891.473638148395
31
5.999994330506
0
LINE
8
10
10
2356.594719483782
20
-891.473637101963
30
5.999994330507
11
2356.543602546207
21
-891.085407731084
31
5.999994330507
0
LINE
8
10
10
2356.543602546207
20
-891.085407731084
30
5.999994330507
11
2356.59471949535
21
-890.697178361728
31
5.999994330507
0
LINE
8
10
10
2356.59471949535
20
-890.697178361728
30
5.999994330507
11
2356.744560809333
21
-890.335407734078
31
5.999994330507
0
LINE
8
10
10
2356.744560809333
20
-890.335407734078
30
5.999994330507
11
2356.982948875484
21
-890.024746421711
31
5.999994330507
0
LINE
8
10
10
2356.982948875484
20
-890.024746421711
30
5.999994330507
11
2357.293602565559
21
-889.786369808907
31
5.999994330507
0
LINE
8
10
10
2357.293602565559
20
-889.786369808907
30
5.999994330507
11
2357.655373197674
21
-889.636520876309
31
5.999994330507
0
LINE
8
10
10
2357.655373197674
20
-889.636520876309
30
5.999994330507
11
2358.043602568553
21
-889.58540775343
31
5.999994330507
0
LINE
8
10
10
2358.043602568553
20
-889.58540775343
30
5.999994330507
11
2363.043602568553
21
-889.585407827918
31
5.999994330507
0
LINE
8
10
10
2363.043602568553
20
-889.585407827918
30
5.999994330507
11
2363.431831937909
21
-889.636520962364
31
5.999994330507
0
LINE
8
10
10
2363.431831937909
20
-889.636520962364
30
5.999994330507
11
2363.793602565559
21
-889.786369905742
31
5.999994330507
0
LINE
8
10
10
2363.793602565559
20
-889.786369905742
30
5.999994330507
11
2364.104256248531
21
-890.024746527801
31
5.999994330507
0
LINE
8
10
10
2364.104256248531
20
-890.024746527801
30
5.999994330507
11
2364.342644305426
21
-890.335407847271
31
5.999994330507
0
LINE
8
10
10
2364.342644305426
20
-890.335407847271
30
5.999994330507
11
2364.492485608631
21
-890.697178479386
31
5.999994330507
0
LINE
8
10
10
2364.492485608631
20
-890.697178479386
30
5.999994330507
11
2364.543602546206
21
-891.085407850264
31
5.999994330507
0
LINE
8
10
10
2364.543602546206
20
-891.085407850264
30
5.999994330507
11
2364.492485597063
21
-891.47363721962
31
5.999994330507
0
LINE
8
10
10
2364.492485597063
20
-891.47363721962
30
5.999994330507
11
2364.34264428308
21
-891.835407847271
31
5.999994330507
0
LINE
8
10
10
2364.34264428308
20
-891.835407847271
30
5.999994330507
11
2364.104256216929
21
-892.146069159637
31
5.999994330507
0
LINE
8
10
10
2364.104256216929
20
-892.146069159637
30
5.999994330507
11
2363.793602526854
21
-892.384445772441
31
5.999994330507
0
LINE
8
10
10
2363.793602526854
20
-892.384445772441
30
5.999994330507
11
2363.431831894739
21
-892.53429470504
31
5.999994330507
0
LINE
8
10
10
2363.431831894739
20
-892.53429470504
30
5.999994330507
11
2363.04360252386
21
-892.585407827918
31
5.999994330507
0
LINE
8
10
10
2363.04360252386
20
-892.585407827918
30
5.999994330507
11
2358.04360252386
21
-892.585407753431
31
5.999994330507
0
LINE
8
10
10
2358.04360252386
20
-892.585407753431
30
5.999994330507
11
2357.655373154504
21
-892.534294618985
31
5.999994330507
0
LINE
8
10
10
2357.655373154504
20
-892.534294618985
30
5.999994330507
11
2357.293602526854
21
-892.384445675607
31
5.999994330507
0
LINE
8
10
10
2357.293602526854
20
-892.384445675607
30
5.999994330507
11
2356.982948843882
21
-892.146069053547
31
5.999994330507
0
LINE
8
10
10
2356.982948843882
20
-892.146069053547
30
5.999994330507
11
2356.744560786987
21
-891.835407734078
31
5.999994330507
0
LINE
8
10
10
2356.744560786987
20
-891.835407734078
30
5.999994330507
11
2356.594719483782
21
-891.473637101963
31
5.999994330507
0
LINE
8
10
10
2285.193602597946
20
-889.585406706998
30
5.999994330508
11
2290.193602597946
21
-889.585406781485
31
5.999994330508
0
LINE
8
10
10
2290.193602597946
20
-889.585406781485
30
5.999994330508
11
2290.581831967302
21
-889.636519915931
31
5.999994330508
0
LINE
8
10
10
2290.581831967302
20
-889.636519915931
30
5.999994330508
11
2290.943602594953
21
-889.786368859309
31
5.999994330508
0
LINE
8
10
10
2290.943602594953
20
-889.786368859309
30
5.999994330508
11
2291.254256277924
21
-890.024745481369
31
5.999994330508
0
LINE
8
10
10
2291.254256277924
20
-890.024745481369
30
5.999994330508
11
2291.492644334819
21
-890.335406800838
31
5.999994330508
0
LINE
8
10
10
2291.492644334819
20
-890.335406800838
30
5.999994330508
11
2291.642485638024
21
-890.697177432953
31
5.999994330508
0
LINE
8
10
10
2291.642485638024
20
-890.697177432953
30
5.999994330508
11
2291.693602575599
21
-891.085406803832
31
5.999994330508
0
LINE
8
10
10
2291.693602575599
20
-891.085406803832
30
5.999994330508
11
2291.642485626457
21
-891.473636173187
31
5.999994330508
0
LINE
8
10
10
2502.682948816698
20
-890.024748514576
30
5.999994330505
11
2502.993602506773
21
-889.786371901772
31
5.999994330506
0
LINE
8
10
10
2575.144719395602
20
-891.47364024126
30
5.999994330505
11
2575.093602458027
21
-891.085410870381
31
5.999994330505
0
LINE
8
10
10
2304.693602553209
20
-919.585410870425
30
5.999994330505
11
2305.211239806016
21
-919.517263211125
31
5.999994330505
0
LINE
8
10
10
2581.593602457945
20
-913.585410870394
30
5.999994330505
11
2581.593602457969
21
-902.585410870394
31
5.999994330505
0
LINE
8
10
10
2583.093602457975
20
-899.585410870397
30
5.999994330505
11
2581.593602457976
21
-899.585410870394
31
5.999994330505
0
LINE
8
10
10
2278.193602553209
20
-919.585410870369
30
5.999994330505
11
2278.711240759691
21
-919.517263211068
31
5.999994330505
0
LINE
8
10
10
2306.693602553221
20
-913.585410870373
30
5.999994330505
11
2560.493602553305
21
-913.585410870373
31
5.999994330505
0
LINE
8
10
10
2296.675964346727
20
-919.517263211107
30
5.999994330505
11
2297.193602553209
21
-919.585410870409
31
5.999994330505
0
LINE
8
10
10
2586.993602553304
20
-917.585410870405
30
5.999994330505
11
2587.061750689442
21
-918.103048123213
31
5.999994330505
0
LINE
8
10
10
2279.19360255321
20
-919.317460812387
30
5.999994330505
11
2279.607815733752
21
-918.999624050914
31
5.999994330505
0
LINE
8
10
10
2295.193602553222
20
-913.585410870405
30
5.999994330505
11
2289.793602457854
21
-913.585410870394
31
5.999994330505
0
LINE
8
10
10
2269.279389372668
20
-918.999624050891
30
5.999994330505
11
2269.69360255321
21
-919.317460812367
31
5.999994330505
0
LINE
8
10
10
2582.8926441949
20
-891.835410986569
30
5.999994330505
11
2582.654256128749
21
-892.146072298935
31
5.999994330505
0
LINE
8
10
10
2569.9936025533
20
-919.585410870369
30
5.999994330505
11
2562.4936025533
21
-919.585410870353
31
5.999994330505
0
LINE
8
10
10
2596.4936025533
20
-919.585410870425
30
5.999994330505
11
2597.011239806108
21
-919.517263211125
31
5.999994330505
0
LINE
8
10
10
2583.093602458026
20
-891.085410989562
30
5.999994330505
11
2583.042485508884
21
-891.473640358917
31
5.999994330505
0
LINE
8
10
10
2581.593602435681
20
-892.585410967215
30
5.999994330505
11
2576.59360243568
21
-892.585410892728
31
5.999994330505
0
LINE
8
10
10
2285.593602648619
20
-899.585410870384
30
5.999994330505
11
2284.093602648619
21
-899.585410870381
31
5.999994330505
0
LINE
8
10
10
2598.42545489407
20
-885.073725695043
30
5.999994330505
11
2598.225652495389
21
-884.591362947851
31
5.999994330505
0
LINE
8
10
10
2437.192644253687
20
-891.835408893704
30
5.999994330507
11
2436.954256187536
21
-892.14607020607
31
5.999994330507
0
LINE
8
10
10
2436.954256187536
20
-892.14607020607
30
5.999994330507
11
2436.643602497461
21
-892.384446818873
31
5.999994330506
0
LINE
8
10
10
2582.34360247738
20
-889.786373045039
30
5.999994330505
11
2582.654256160351
21
-890.024749667098
31
5.999994330505
0
LINE
8
10
10
2597.493602553374
20
-883.859313005833
30
5.999994330505
11
2597.011239806182
21
-883.65951060715
31
5.999994330505
0
LINE
8
10
10
2597.011239806182
20
-883.65951060715
30
5.999994330505
11
2596.493602553376
21
-883.591362947847
31
5.999994330505
0
LINE
8
10
10
2270.692765852916
20
-883.585410870366
30
5.999994330505
11
2596.493602553376
21
-883.591362947847
31
5.999994330505
0
LINE
8
10
10
2270.692765852916
20
-883.585410870366
30
5.999994330505
11
2270.175128600108
21
-883.653558529666
31
5.999994330505
0
LINE
8
10
10
2270.175128600108
20
-883.653558529666
30
5.999994330505
11
2269.692765852915
21
-883.853360928348
31
5.999994330505
0
LINE
8
10
10
2269.692765852915
20
-883.853360928348
30
5.999994330505
11
2269.278552672373
21
-884.171197689821
31
5.999994330505
0
LINE
8
10
10
2269.278552672373
20
-884.171197689821
30
5.999994330505
11
2268.960715910897
21
-884.585410870363
31
5.999994330505
0
LINE
8
10
10
2268.960715910897
20
-884.585410870363
30
5.999994330505
11
2268.760913512215
21
-885.067773617555
31
5.999994330505
0
LINE
8
10
10
2268.760913512215
20
-885.067773617555
30
5.999994330505
11
2268.692765852911
21
-885.585410870362
31
5.999994330505
0
LINE
8
10
10
2268.693602553213
20
-917.585410870348
30
5.999994330505
11
2268.761750212514
21
-918.103048123156
31
5.999994330505
0
LINE
8
10
10
2268.961552611194
20
-918.585410870349
30
5.999994330505
11
2269.279389372668
21
-918.999624050891
31
5.999994330505
0
LINE
8
10
10
2269.69360255321
20
-919.317460812367
30
5.999994330505
11
2270.175965300401
21
-919.51726321105
31
5.999994330505
0
LINE
8
10
10
2278.193602553209
20
-919.585410870369
30
5.999994330505
11
2270.693602553209
21
-919.585410870353
31
5.999994330505
0
LINE
8
10
10
2278.711240759691
20
-919.517263211068
30
5.999994330505
11
2279.19360255321
21
-919.317460812387
31
5.999994330505
0
LINE
8
10
10
2279.607815733752
20
-918.999624050914
30
5.999994330505
11
2279.925653448901
21
-918.585410870372
31
5.999994330505
0
LINE
8
10
10
2279.925653448901
20
-918.585410870372
30
5.999994330505
11
2280.125454417073
21
-918.10304812318
31
5.999994330505
0
LINE
8
10
10
2285.593602648589
20
-913.585410870384
30
5.999994330505
11
2280.193602553221
21
-913.585410870373
31
5.999994330505
0
LINE
8
10
10
2285.593602648612
20
-902.585410870384
30
5.999994330505
11
2285.593602648589
21
-913.585410870384
31
5.999994330505
0
LINE
8
10
10
2284.093602648612
20
-902.585410870381
30
5.999994330505
11
2285.593602648612
21
-902.585410870384
31
5.999994330505
0
LINE
8
10
10
2284.093602648619
20
-899.585410870381
30
5.999994330505
11
2284.093602648612
21
-902.585410870381
31
5.999994330505
0
LINE
8
10
10
2285.593602648621
20
-898.585410870385
30
5.999994330505
11
2285.593602648619
21
-899.585410870384
31
5.999994330505
0
LINE
8
10
10
2291.293602457878
20
-902.585410870397
30
5.999994330505
11
2291.293602457884
21
-899.585410870397
31
5.999994330505
0
LINE
8
10
10
2289.793602457878
20
-902.585410870393
30
5.999994330505
11
2291.293602457878
21
-902.585410870397
31
5.999994330505
0
LINE
8
10
10
2295.193602553213
20
-917.585410870405
30
5.999994330505
11
2295.261750689351
21
-918.103048123213
31
5.999994330505
0
LINE
8
10
10
2295.46155165752
20
-918.585410870406
30
5.999994330505
11
2295.779389372668
21
-918.999624050948
31
5.999994330505
0
LINE
8
10
10
2295.779389372668
20
-918.999624050948
30
5.999994330505
11
2296.193602553209
21
-919.317460812424
31
5.999994330505
0
LINE
8
10
10
2296.193602553209
20
-919.317460812424
30
5.999994330505
11
2296.675964346727
21
-919.517263211107
31
5.999994330505
0
LINE
8
10
10
2305.693602553209
20
-919.317460812444
30
5.999994330505
11
2306.107815733752
21
-918.99962405097
31
5.999994330505
0
LINE
8
10
10
2306.107815733752
20
-918.99962405097
30
5.999994330505
11
2306.425652495227
21
-918.585410870429
31
5.999994330505
0
LINE
8
10
10
2306.693602553221
20
-913.585410870373
30
5.999994330505
11
2306.693602553213
21
-917.58541087043
31
5.999994330505
0
LINE
8
10
10
2560.493602553304
20
-917.585410870348
30
5.999994330505
11
2560.493602553305
21
-913.585410870373
31
5.999994330505
0
LINE
8
10
10
2560.493602553304
20
-917.585410870348
30
5.999994330505
11
2560.561750212605
21
-918.103048123156
31
5.999994330505
0
LINE
8
10
10
2560.561750212605
20
-918.103048123156
30
5.999994330505
11
2560.761552611286
21
-918.585410870349
31
5.999994330505
0
LINE
8
10
10
2561.07938937276
20
-918.999624050892
30
5.999994330505
11
2561.493602553301
21
-919.317460812367
31
5.999994330505
0
LINE
8
10
10
2561.493602553301
20
-919.317460812367
30
5.999994330505
11
2561.975965300493
21
-919.51726321105
31
5.999994330505
0
LINE
8
10
10
2561.975965300493
20
-919.51726321105
30
5.999994330505
11
2562.4936025533
21
-919.585410870353
31
5.999994330505
0
LINE
8
10
10
2569.9936025533
20
-919.585410870369
30
5.999994330505
11
2570.511240759782
21
-919.517263211068
31
5.999994330505
0
LINE
8
10
10
2570.511240759782
20
-919.517263211068
30
5.999994330505
11
2570.993602553301
21
-919.317460812388
31
5.999994330505
0
LINE
8
10
10
2570.993602553301
20
-919.317460812388
30
5.999994330505
11
2571.407815733843
21
-918.999624050914
31
5.999994330505
0
LINE
8
10
10
2571.407815733843
20
-918.999624050914
30
5.999994330505
11
2571.725653448993
21
-918.585410870373
31
5.999994330505
0
LINE
8
10
10
2571.725653448993
20
-918.585410870373
30
5.999994330505
11
2571.925454417164
21
-918.103048123181
31
5.999994330505
0
LINE
8
10
10
2571.925454417164
20
-918.103048123181
30
5.999994330505
11
2571.993602553305
21
-917.585410870373
31
5.999994330505
0
LINE
8
10
10
2577.39360264868
20
-913.585410870385
30
5.999994330505
11
2571.993602553313
21
-913.585410870373
31
5.999994330505
0
LINE
8
10
10
2577.393602648704
20
-902.585410870385
30
5.999994330505
11
2577.39360264868
21
-913.585410870385
31
5.999994330505
0
LINE
8
10
10
2575.89360264871
20
-899.585410870381
30
5.999994330505
11
2575.893602648704
21
-902.585410870381
31
5.999994330505
0
LINE
8
10
10
2577.393602648713
20
-898.585410870385
30
5.999994330505
11
2577.39360264871
21
-899.585410870385
31
5.999994330505
0
LINE
8
10
10
2581.593602457978
20
-898.585410870394
30
5.999994330505
11
2577.393602648713
21
-898.585410870385
31
5.999994330505
0
LINE
8
10
10
2581.593602457976
20
-899.585410870394
30
5.999994330505
11
2581.593602457978
21
-898.585410870394
31
5.999994330505
0
LINE
8
10
10
2583.093602457969
20
-902.585410870397
30
5.999994330505
11
2583.093602457975
21
-899.585410870397
31
5.999994330505
0
LINE
8
10
10
2581.593602457969
20
-902.585410870394
30
5.999994330505
11
2583.093602457969
21
-902.585410870397
31
5.999994330505
0
LINE
8
10
10
2586.993602553313
20
-913.585410870405
30
5.999994330505
11
2581.593602457945
21
-913.585410870394
31
5.999994330505
0
LINE
8
10
10
2587.061750689442
20
-918.103048123213
30
5.999994330505
11
2587.261551657611
21
-918.585410870406
31
5.999994330505
0
LINE
8
10
10
2587.579389372759
20
-918.999624050948
30
5.999994330505
11
2587.993602553301
21
-919.317460812424
31
5.999994330505
0
LINE
8
10
10
2596.4936025533
20
-919.585410870425
30
5.999994330505
11
2588.9936025533
21
-919.58541087041
31
5.999994330505
0
LINE
8
10
10
2597.011239806108
20
-919.517263211125
30
5.999994330505
11
2597.493602553301
21
-919.317460812444
31
5.999994330505
0
LINE
8
10
10
2597.493602553301
20
-919.317460812444
30
5.999994330505
11
2597.907815733844
21
-918.99962405097
31
5.999994330505
0
LINE
8
10
10
2598.425454894002
20
-918.103048123237
30
5.999994330505
11
2598.493602553304
21
-917.58541087043
31
5.999994330505
0
LINE
8
10
10
2582.654256128749
20
-892.146072298935
30
5.999994330505
11
2582.343602438674
21
-892.384448911738
31
5.999994330505
0
LINE
8
10
10
2582.343602438674
20
-892.384448911738
30
5.999994330505
11
2581.981831806559
21
-892.534297844337
31
5.999994330505
0
LINE
8
10
10
2575.532948755702
20
-892.146072192845
30
5.999994330505
11
2575.294560698807
21
-891.835410873375
31
5.999994330505
0
LINE
8
10
10
2575.294560698807
20
-891.835410873375
30
5.999994330505
11
2575.144719395602
21
-891.47364024126
31
5.999994330505
0
LINE
8
10
10
2575.093602458027
20
-891.085410870381
30
5.999994330505
11
2575.144719407169
21
-890.697181501025
31
5.999994330505
0
LINE
8
10
10
2575.144719407169
20
-890.697181501025
30
5.999994330505
11
2575.294560721153
21
-890.335410873375
31
5.999994330505
0
LINE
8
10
10
2575.294560721153
20
-890.335410873375
30
5.999994330505
11
2575.532948787305
21
-890.024749561009
31
5.999994330505
0
LINE
8
10
10
2581.593602480373
20
-889.585410967215
30
5.999994330505
11
2581.981831849729
21
-889.636524101661
31
5.999994330505
0
LINE
8
10
10
2581.981831849729
20
-889.636524101661
30
5.999994330505
11
2582.34360247738
21
-889.786373045039
31
5.999994330505
0
LINE
8
10
10
2582.654256160351
20
-890.024749667098
30
5.999994330505
11
2582.892644217246
21
-890.335410986568
31
5.999994330505
0
LINE
8
10
10
2502.294719424995
20
-891.473639194828
30
5.999994330505
11
2502.24360248742
21
-891.085409823949
31
5.999994330505
0
LINE
8
10
10
2502.24360248742
20
-891.085409823949
30
5.999994330505
11
2502.294719436563
21
-890.697180454593
31
5.999994330505
0
LINE
8
10
10
2502.294719436563
20
-890.697180454593
30
5.999994330505
11
2502.444560750546
21
-890.335409826943
31
5.999994330505
0
LINE
8
10
10
2502.444560750546
20
-890.335409826943
30
5.999994330505
11
2502.682948816698
21
-890.024748514576
31
5.999994330505
0
LINE
8
10
10
2575.893602648704
20
-902.585410870381
30
5.999994330505
11
2577.393602648704
21
-902.585410870385
31
5.999994330505
0
LINE
8
10
10
2270.175965300401
20
-919.51726321105
30
5.999994330505
11
2270.693602553209
21
-919.585410870353
31
5.999994330505
0
LINE
8
10
10
2295.193602553213
20
-917.585410870405
30
5.999994330505
11
2295.193602553222
21
-913.585410870405
31
5.999994330505
0
LINE
8
10
10
2306.425652495227
20
-918.585410870429
30
5.999994330505
11
2306.62545489391
21
-918.103048123237
31
5.999994330505
0
LINE
8
10
10
2560.761552611286
20
-918.585410870349
30
5.999994330505
11
2561.07938937276
21
-918.999624050892
31
5.999994330505
0
LINE
8
10
10
2305.211239806016
20
-919.517263211125
30
5.999994330505
11
2305.693602553209
21
-919.317460812444
31
5.999994330505
0
LINE
8
10
10
2597.907815733844
20
-918.99962405097
30
5.999994330505
11
2598.225652495319
21
-918.585410870429
31
5.999994330505
0
LINE
8
10
10
2289.793602457854
20
-913.585410870394
30
5.999994330505
11
2289.793602457878
21
-902.585410870393
31
5.999994330505
0
LINE
8
10
10
2280.193602553221
20
-913.585410870373
30
5.999994330505
11
2280.193602553213
21
-917.585410870373
31
5.999994330505
0
LINE
8
10
10
2587.993602553301
20
-919.317460812424
30
5.999994330505
11
2588.475964346818
21
-919.517263211107
31
5.999994330505
0
LINE
8
10
10
2598.225652495319
20
-918.585410870429
30
5.999994330505
11
2598.425454894002
21
-918.103048123237
31
5.999994330505
0
LINE
8
10
10
2304.693602553209
20
-919.585410870425
30
5.999994330505
11
2297.193602553209
21
-919.585410870409
31
5.999994330505
0
LINE
8
10
10
2577.39360264871
20
-899.585410870385
30
5.999994330505
11
2575.89360264871
21
-899.585410870381
31
5.999994330505
0
LINE
8
10
10
2291.293602457884
20
-899.585410870397
30
5.999994330505
11
2289.793602457884
21
-899.585410870393
31
5.999994330505
0
LINE
8
10
10
2295.261750689351
20
-918.103048123213
30
5.999994330505
11
2295.46155165752
21
-918.585410870406
31
5.999994330505
0
LINE
8
10
10
2284.805373227067
20
-889.636519829876
30
5.999994330508
11
2285.193602597946
21
-889.585406706998
31
5.999994330508
0
LINE
8
10
10
2284.132948904878
20
-890.024745375279
30
5.999994330508
11
2284.443602594953
21
-889.786368762475
31
5.999994330508
0
LINE
8
10
10
2284.443602594953
20
-889.786368762475
30
5.999994330508
11
2284.805373227067
21
-889.636519829876
31
5.999994330508
0
LINE
8
10
10
2289.793602457886
20
-898.585410870394
30
5.999994330505
11
2285.593602648621
21
-898.585410870385
31
5.999994330505
0
LINE
8
10
10
2289.793602457884
20
-899.585410870393
30
5.999994330505
11
2289.793602457886
21
-898.585410870394
31
5.999994330505
0
LINE
8
10
10
2283.894560838726
20
-890.335406687645
30
5.999994330508
11
2284.132948904878
21
-890.024745375279
31
5.999994330508
0
LINE
8
10
10
2283.6936025756
20
-891.085406684652
30
5.999994330508
11
2283.744719524743
21
-890.697177315295
31
5.999994330508
0
LINE
8
10
10
2283.744719524743
20
-890.697177315295
30
5.999994330508
11
2283.894560838726
21
-890.335406687645
31
5.999994330508
0
LINE
8
10
10
2283.744719513175
20
-891.47363605553
30
5.999994330508
11
2283.6936025756
21
-891.085406684652
31
5.999994330508
0
LINE
8
10
10
2581.981831806559
20
-892.534297844337
30
5.999994330505
11
2581.593602435681
21
-892.585410967215
31
5.999994330505
0
LINE
8
10
10
2576.59360243568
20
-892.585410892728
30
5.999994330505
11
2576.205373066324
21
-892.534297758282
31
5.999994330505
0
LINE
8
10
10
2284.132948873275
20
-892.146068007115
30
5.999994330508
11
2283.89456081638
21
-891.835406687645
31
5.999994330508
0
LINE
8
10
10
2283.89456081638
20
-891.835406687645
30
5.999994330508
11
2283.744719513175
21
-891.47363605553
31
5.999994330508
0
LINE
8
10
10
2284.443602556248
20
-892.384444629174
30
5.999994330508
11
2284.132948873275
21
-892.146068007115
31
5.999994330508
0
LINE
8
10
10
2285.193602553254
20
-892.585406706998
30
5.999994330508
11
2284.805373183898
21
-892.534293572552
31
5.999994330508
0
LINE
8
10
10
2284.805373183898
20
-892.534293572552
30
5.999994330508
11
2284.443602556248
21
-892.384444629174
31
5.999994330508
0
LINE
8
10
10
2583.042485520451
20
-890.697181618683
30
5.999994330505
11
2583.093602458026
21
-891.085410989562
31
5.999994330505
0
LINE
8
10
10
2575.532948787305
20
-890.024749561009
30
5.999994330505
11
2575.84360247738
21
-889.786372948205
31
5.999994330505
0
LINE
8
10
10
2576.205373109494
20
-889.636524015606
30
5.999994330505
11
2576.593602480372
21
-889.585410892728
31
5.999994330505
0
LINE
8
10
10
2290.193602553254
20
-892.585406781485
30
5.999994330508
11
2285.193602553254
21
-892.585406706998
31
5.999994330508
0
LINE
8
10
10
2290.943602556248
20
-892.384444726008
30
5.999994330508
11
2290.581831924133
21
-892.534293658607
31
5.999994330508
0
LINE
8
10
10
2290.581831924133
20
-892.534293658607
30
5.999994330508
11
2290.193602553254
21
-892.585406781485
31
5.999994330508
0
LINE
8
10
10
2291.254256246322
20
-892.146068113205
30
5.999994330508
11
2290.943602556248
21
-892.384444726008
31
5.999994330508
0
LINE
8
10
10
2510.24360248742
20
-891.085409943129
30
5.999994330506
11
2510.192485538277
21
-891.473639312485
31
5.999994330506
0
LINE
8
10
10
2510.192485538277
20
-891.473639312485
30
5.999994330506
11
2510.042644224293
21
-891.835409940136
31
5.999994330506
0
LINE
8
10
10
2510.042644224293
20
-891.835409940136
30
5.999994330506
11
2509.804256158142
21
-892.146071252502
31
5.999994330506
0
LINE
8
10
10
2509.804256158142
20
-892.146071252502
30
5.999994330506
11
2509.493602468067
21
-892.384447865306
31
5.999994330505
0
LINE
8
10
10
2509.493602468067
20
-892.384447865306
30
5.999994330505
11
2509.131831835953
21
-892.534296797905
31
5.999994330505
0
LINE
8
10
10
2509.131831835953
20
-892.534296797905
30
5.999994330505
11
2508.743602465074
21
-892.585409920783
31
5.999994330505
0
LINE
8
10
10
2508.743602465074
20
-892.585409920783
30
5.999994330505
11
2503.743602465074
21
-892.585409846295
31
5.999994330506
0
LINE
8
10
10
2503.743602465074
20
-892.585409846295
30
5.999994330506
11
2503.355373095718
21
-892.534296711849
31
5.999994330505
0
LINE
8
10
10
2503.355373095718
20
-892.534296711849
30
5.999994330505
11
2502.993602468068
21
-892.384447768471
31
5.999994330506
0
LINE
8
10
10
2502.993602468068
20
-892.384447768471
30
5.999994330506
11
2502.682948785096
21
-892.146071146412
31
5.999994330505
0
LINE
8
10
10
2502.682948785096
20
-892.146071146412
30
5.999994330505
11
2502.4445607282
21
-891.835409826942
31
5.999994330505
0
LINE
8
10
10
2508.743602509766
20
-889.585409920783
30
5.999994330505
11
2509.131831879122
21
-889.636523055229
31
5.999994330505
0
LINE
8
10
10
2509.131831879122
20
-889.636523055229
30
5.999994330505
11
2509.493602506773
21
-889.786371998606
31
5.999994330505
0
LINE
8
10
10
2509.493602506773
20
-889.786371998606
30
5.999994330505
11
2509.804256189745
21
-890.024748620666
31
5.999994330506
0
LINE
8
10
10
2509.804256189745
20
-890.024748620666
30
5.999994330506
11
2510.04264424664
21
-890.335409940136
31
5.999994330506
0
LINE
8
10
10
2510.04264424664
20
-890.335409940136
30
5.999994330506
11
2510.192485549844
21
-890.697180572251
31
5.999994330506
0
LINE
8
10
10
2510.192485549844
20
-890.697180572251
30
5.999994330506
11
2510.24360248742
21
-891.085409943129
31
5.999994330506
0
LINE
8
10
10
2598.225652495389
20
-884.591362947851
30
5.999994330505
11
2597.907815733916
21
-884.177149767308
31
5.999994330505
0
LINE
8
10
10
2597.907815733916
20
-884.177149767308
30
5.999994330505
11
2597.493602553374
21
-883.859313005833
31
5.999994330505
0
LINE
8
10
10
2502.4445607282
20
-891.835409826942
30
5.999994330505
11
2502.294719424995
21
-891.473639194828
31
5.999994330505
0
LINE
8
10
10
2291.642485626457
20
-891.473636173187
30
5.999994330508
11
2291.492644312474
21
-891.835406800839
31
5.999994330508
0
LINE
8
10
10
2291.492644312474
20
-891.835406800839
30
5.999994330508
11
2291.254256246322
21
-892.146068113205
31
5.999994330508
0
LINE
8
10
10
2430.893602539159
20
-889.585408799863
30
5.999994330506
11
2435.893602539159
21
-889.58540887435
31
5.999994330506
0
LINE
8
10
10
2435.893602539159
20
-889.58540887435
30
5.999994330506
11
2436.281831908515
21
-889.636522008796
31
5.999994330506
0
LINE
8
10
10
2598.493602553371
20
-885.591362947852
30
5.999994330505
11
2598.493602553304
21
-917.58541087043
31
5.999994330505
0
LINE
8
10
10
2598.493602553371
20
-885.591362947852
30
5.999994330505
11
2598.42545489407
21
-885.073725695043
31
5.999994330505
0
LINE
8
10
10
2575.84360247738
20
-889.786372948205
30
5.999994330505
11
2576.205373109494
21
-889.636524015606
31
5.999994330505
0
LINE
8
10
10
2571.993602553313
20
-913.585410870373
30
5.999994330505
11
2571.993602553305
21
-917.585410870373
31
5.999994330505
0
LINE
8
10
10
2587.261551657611
20
-918.585410870406
30
5.999994330505
11
2587.579389372759
21
-918.999624050948
31
5.999994330505
0
LINE
8
10
10
2306.62545489391
20
-918.103048123237
30
5.999994330505
11
2306.693602553213
21
-917.58541087043
31
5.999994330505
0
LINE
8
10
10
2268.693602553213
20
-917.585410870348
30
5.999994330505
11
2268.692765852911
21
-885.585410870362
31
5.999994330505
0
LINE
8
10
10
2586.993602553304
20
-917.585410870405
30
5.999994330505
11
2586.993602553313
21
-913.585410870405
31
5.999994330505
0
LINE
8
10
10
2576.593602480372
20
-889.585410892728
30
5.999994330505
11
2581.593602480373
21
-889.585410967215
31
5.999994330505
0
LINE
8
10
10
2576.205373066324
20
-892.534297758282
30
5.999994330505
11
2575.843602438674
21
-892.384448814904
31
5.999994330505
0
LINE
8
10
10
2280.125454417073
20
-918.10304812318
30
5.999994330505
11
2280.193602553213
21
-917.585410870373
31
5.999994330505
0
LINE
8
10
10
2582.892644217246
20
-890.335410986568
30
5.999994330505
11
2583.042485520451
21
-890.697181618683
31
5.999994330505
0
LINE
8
10
10
2268.761750212514
20
-918.103048123156
30
5.999994330505
11
2268.961552611194
21
-918.585410870349
31
5.999994330505
0
LINE
8
10
10
2575.843602438674
20
-892.384448814904
30
5.999994330505
11
2575.532948755702
21
-892.146072192845
31
5.999994330505
0
LINE
8
10
10
2583.042485508884
20
-891.473640358917
30
5.999994330505
11
2582.8926441949
21
-891.835410986569
31
5.999994330505
0
LINE
8
10
10
2588.475964346818
20
-919.517263211107
30
5.999994330505
11
2588.9936025533
21
-919.58541087041
31
5.999994330505
0
ENDSEC
0
EOF
