0
SECTION
2
ENTITIES
0
LINE
8
0
10
3099.375457522828
20
-903.079152124369
30
5.999971172519
11
3099.165666621643
21
-902.572672124853
31
5.999971225152
0
LINE
8
0
10
3099.165666621643
20
-902.572672124853
30
5.999971225152
11
3098.831937502228
21
-902.137747893537
31
5.999971272159
0
LINE
8
0
10
3098.831937502228
20
-902.137747893537
30
5.999971272159
11
3098.397013252561
21
-901.80401879804
31
5.999971310336
0
LINE
8
0
10
3098.397013252561
20
-901.80401879804
30
5.999971310336
11
3097.890533241508
21
-901.594227924706
31
5.999971337082
0
LINE
8
0
10
3097.890533241508
20
-901.594227924706
30
5.999971337082
11
3097.347013244826
21
-901.522672174857
31
5.999971350573
0
LINE
8
0
10
3097.347013244826
20
-901.522672174857
30
5.999971350573
11
3096.803493252077
21
-901.594227954594
31
5.999971349892
0
LINE
8
0
10
3096.803493252077
20
-901.594227954594
30
5.999971349892
11
3096.297013252561
21
-901.80401885578
31
5.999971335083
0
LINE
8
0
10
3096.297013252561
20
-901.80401885578
30
5.999971335083
11
3095.862089021245
21
-902.137747975194
31
5.999971307157
0
LINE
8
0
10
3095.862089021245
20
-902.137747975194
30
5.999971307157
11
3095.528359925748
21
-902.572672224861
31
5.999971268015
0
LINE
8
0
10
3095.528359925748
20
-902.572672224861
30
5.999971268015
11
3095.318569052414
21
-903.079152235914
31
5.999971220328
0
LINE
8
0
10
3095.318569052414
20
-903.079152235914
30
5.999971220328
11
3095.247013302565
21
-903.622672232597
31
5.999971167342
0
LINE
8
0
10
3095.247013302565
20
-903.622672232597
30
5.999971167342
11
3095.318569082302
21
-904.166192225345
31
5.99997111267
0
LINE
8
0
10
3095.318569082302
20
-904.166192225345
30
5.99997111267
11
3095.528359983488
21
-904.672672224861
31
5.999971060037
0
LINE
8
0
10
3095.528359983488
20
-904.672672224861
30
5.999971060037
11
3095.862089102902
21
-905.107596456177
31
5.999971013031
0
LINE
8
0
10
3095.862089102902
20
-905.107596456177
30
5.999971013031
11
3096.29701335257
21
-905.441325551674
31
5.999970974853
0
LINE
8
0
10
3096.29701335257
20
-905.441325551674
30
5.999970974853
11
3096.803493363623
21
-905.651116425008
31
5.999970948108
0
LINE
8
0
10
3096.803493363623
20
-905.651116425008
30
5.999970948108
11
3097.347013360305
21
-905.722672174857
31
5.999970934616
0
LINE
8
0
10
3097.347013360305
20
-905.722672174857
30
5.999970934616
11
3097.890533353053
21
-905.65111639512
31
5.999970935297
0
LINE
8
0
10
3097.890533353053
20
-905.65111639512
30
5.999970935297
11
3098.39701335257
21
-905.441325493934
31
5.999970950106
0
LINE
8
0
10
3098.39701335257
20
-905.441325493934
30
5.999970950106
11
3098.831937583886
21
-905.10759637452
31
5.999970978032
0
LINE
8
0
10
3098.831937583886
20
-905.10759637452
30
5.999970978032
11
3099.165666679382
21
-904.672672124853
31
5.999971017173
0
LINE
8
0
10
3099.165666679382
20
-904.672672124853
30
5.999971017173
11
3099.375457552716
21
-904.1661921138
31
5.999971064861
0
LINE
8
0
10
3099.375457552716
20
-904.1661921138
30
5.999971064861
11
3099.447013302565
21
-903.622672117117
31
5.999971117847
0
LINE
8
0
10
3099.447013302565
20
-903.622672117117
30
5.999971117847
11
3099.375457522828
21
-903.079152124369
31
5.999971172519
0
LINE
8
0
10
2841.52834640883
20
-902.5726760103
30
5.999976591686
11
2841.318555535496
21
-903.079156021352
31
5.999976543997
0
LINE
8
0
10
2841.318555535496
20
-903.079156021352
30
5.999976543997
11
2841.246999785647
21
-903.622676018035
31
5.999976491012
0
LINE
8
0
10
2841.246999785647
20
-903.622676018035
30
5.999976491012
11
2841.318555565384
21
-904.166196010783
31
5.999976436339
0
LINE
8
0
10
2841.318555565384
20
-904.166196010783
30
5.999976436339
11
2841.52834646657
21
-904.672676010299
31
5.999976383706
0
LINE
8
0
10
2841.52834646657
20
-904.672676010299
30
5.999976383706
11
2841.862075585984
21
-905.107600241615
31
5.9999763367
0
LINE
8
0
10
2841.862075585984
20
-905.107600241615
30
5.9999763367
11
2842.296999835651
21
-905.441329337112
31
5.999976298522
0
LINE
8
0
10
2842.296999835651
20
-905.441329337112
30
5.999976298522
11
2842.803479846704
21
-905.651120210446
31
5.999976271777
0
LINE
8
0
10
2842.803479846704
20
-905.651120210446
30
5.999976271777
11
2843.346999843387
21
-905.722675960295
31
5.999976258285
0
LINE
8
0
10
2843.346999843387
20
-905.722675960295
30
5.999976258285
11
2843.890519836135
21
-905.651120180558
31
5.999976258967
0
LINE
8
0
10
2843.890519836135
20
-905.651120180558
30
5.999976258967
11
2844.396999835651
21
-905.441329279372
31
5.999976273775
0
LINE
8
0
10
2844.396999835651
20
-905.441329279372
30
5.999976273775
11
2844.831924066967
21
-905.107600159958
31
5.999976301702
0
LINE
8
0
10
2844.831924066967
20
-905.107600159958
30
5.999976301702
11
2845.165653162464
21
-904.672675910291
31
5.999976340842
0
LINE
8
0
10
2845.165653162464
20
-904.672675910291
30
5.999976340842
11
2845.375444035797
21
-904.166195899238
31
5.99997638853
0
LINE
8
0
10
2845.375444035797
20
-904.166195899238
30
5.99997638853
11
2845.446999785647
21
-903.622675902555
31
5.999976441517
0
LINE
8
0
10
2845.446999785647
20
-903.622675902555
30
5.999976441517
11
2845.375444005909
21
-903.079155909807
31
5.999976496189
0
LINE
8
0
10
2845.375444005909
20
-903.079155909807
30
5.999976496189
11
2845.165653104724
21
-902.572675910291
31
5.999976548822
0
LINE
8
0
10
2845.165653104724
20
-902.572675910291
30
5.999976548822
11
2844.83192398531
21
-902.137751678975
31
5.999976595828
0
LINE
8
0
10
2844.83192398531
20
-902.137751678975
30
5.999976595828
11
2844.396999735642
21
-901.804022583478
31
5.999976634005
0
LINE
8
0
10
2844.396999735642
20
-901.804022583478
30
5.999976634005
11
2843.890519724589
21
-901.594231710144
31
5.999976660751
0
LINE
8
0
10
2843.890519724589
20
-901.594231710144
30
5.999976660751
11
2843.346999727907
21
-901.522675960295
31
5.999976674243
0
LINE
8
0
10
2843.346999727907
20
-901.522675960295
30
5.999976674243
11
2842.803479735159
21
-901.594231740033
31
5.999976673561
0
LINE
8
0
10
2842.803479735159
20
-901.594231740033
30
5.999976673561
11
2842.296999735643
21
-901.804022641218
31
5.999976658752
0
LINE
8
0
10
2842.296999735643
20
-901.804022641218
30
5.999976658752
11
2841.862075504327
21
-902.137751760632
31
5.999976630826
0
LINE
8
0
10
2841.862075504327
20
-902.137751760632
30
5.999976630826
11
2841.52834640883
21
-902.5726760103
31
5.999976591686
0
LINE
8
0
10
3179.528342880265
20
-795.573529266203
30
5.999979463
11
3179.318565055782
21
-796.079998995892
31
5.999979413296
0
LINE
8
0
10
3179.862083108158
20
-795.138592737792
30
5.999979503396
11
3179.528342880265
21
-795.573529266203
31
5.999979463
0
LINE
8
0
10
3179.318565055782
20
-796.079998995892
30
5.999979413296
11
3179.247001343179
21
-796.623517063364
31
5.999979357668
0
LINE
8
0
10
3094.347014767226
20
-883.622671454084
30
5.999971105054
11
3100.347014413296
21
-883.622671364664
31
5.999971034346
0
LINE
8
0
10
2954.347001825949
20
-419.623520406307
30
6.000022052925
11
2953.563844671864
21
-419.57218958622
31
6.000022069369
0
LINE
8
0
10
3206.347005179969
20
-943.62267034596
30
5.999984783676
11
2790.347006767384
21
-943.622676545731
31
5.999992161204
0
LINE
8
0
10
3206.347005179969
20
-943.62267034596
30
5.999984783676
11
3206.347001294946
21
-903.62267049263
31
5.999968211322
0
LINE
8
0
10
3206.347001294946
20
-903.62267049263
30
5.999968211322
11
3200.347006487602
21
-903.622670291001
31
5.99996639509
0
LINE
8
0
10
3200.347006487602
20
-903.622670291001
30
5.99996639509
11
3200.347008743364
21
-863.622670291
31
5.99997058956
0
LINE
8
0
10
3206.347003550707
20
-863.622670492632
30
5.999972405793
11
3200.347008743364
21
-863.622670291
31
5.99997058956
0
LINE
8
0
10
2952.794087552288
20
-419.419075387185
30
6.000022096241
11
2952.050901224953
21
-419.166797635593
31
6.00002213308
0
LINE
8
0
10
2950.69443323342
20
-418.383640502488
30
6.000022233979
11
2950.10436111264
21
-417.866161156654
31
6.000022296312
0
LINE
8
0
10
2949.586881749218
20
-417.276089051302
30
6.00002236519
11
2949.150849358533
21
-416.623520483747
31
6.000022439433
0
LINE
8
0
10
2949.150849358533
20
-416.623520483747
30
6.000022439433
11
2948.803724575681
21
-415.91962108311
31
6.000022517771
0
LINE
8
0
10
2948.803724575681
20
-415.91962108311
30
6.000022517771
11
2948.551446801939
21
-415.176434763293
31
6.000022598863
0
LINE
8
0
10
2948.551446801939
20
-415.176434763293
30
6.000022598863
11
2948.398332579959
21
-414.406677648282
31
6.000022681324
0
LINE
8
0
10
2948.347001542787
20
-400.623520495726
30
6.000024119744
11
2948.398332362873
21
-399.840363341639
31
6.000024200669
0
LINE
8
0
10
2948.398332362873
20
-399.840363341639
30
6.000024200669
11
2948.551446561909
21
-399.070606222063
31
6.000024278679
0
LINE
8
0
10
2948.551446561909
20
-399.070606222063
30
6.000024278679
11
2948.8037243135
21
-398.327419894729
31
6.000024352443
0
LINE
8
0
10
2948.8037243135
20
-398.327419894729
30
6.000024352443
11
2949.15084907537
21
-397.623520483746
31
6.000024420695
0
LINE
8
0
10
2949.586881446604
20
-396.970951903197
30
6.000024482267
11
2950.104360792439
21
-396.380879782415
31
6.000024536108
0
LINE
8
0
10
2951.347001465347
20
-395.42736802831
30
6.000024617059
11
2952.050900865984
21
-395.080243245457
31
6.000024642782
0
LINE
8
0
10
2952.050900865984
20
-395.080243245457
30
6.000024642782
11
2952.794087185799
21
-394.827965471716
31
6.000024658026
0
LINE
8
0
10
2952.794087185799
20
-394.827965471716
30
6.000024658026
11
2953.563844300813
21
-394.674851249734
31
6.000024662532
0
LINE
8
0
10
2953.563844300813
20
-394.674851249734
30
6.000024662532
11
2954.347001453367
21
-394.623520406307
31
6.00002465622
0
LINE
8
0
10
2846.346999280794
20
-883.622675925583
30
5.999978409517
11
2846.346999467086
21
-896.122675925582
31
5.999977105667
0
LINE
8
0
10
2846.346999467086
20
-896.122675925582
30
5.999977105667
11
2840.346999624485
21
-896.122676015002
31
5.99997726648
0
LINE
8
0
10
2840.346999624485
20
-896.122676015002
30
5.99997726648
11
2840.346999438194
21
-883.622676015003
31
5.999978480225
0
LINE
8
0
10
2840.346999438194
20
-883.622676015003
30
5.999978480225
11
2846.346999280794
21
-883.622675925583
31
5.999978409517
0
LINE
8
0
10
2840.347000412497
20
-923.622675999693
30
5.999974616443
11
2840.347000226206
21
-911.122675999694
31
5.999975766402
0
LINE
8
0
10
2840.347000226206
20
-911.122675999694
30
5.999975766402
11
2846.347000068806
21
-911.122675910274
31
5.999975695695
0
LINE
8
0
10
2846.347000068806
20
-911.122675910274
30
5.999975695695
11
2846.347000255098
21
-923.622675910274
31
5.999974391845
0
LINE
8
0
10
2846.347000255098
20
-923.622675910274
30
5.999974391845
11
2840.347000412497
21
-923.622675999693
31
5.999974616443
0
LINE
8
0
10
3100.347014413296
20
-883.622671364664
30
5.999971034346
11
3100.347014599587
21
-896.122671364664
31
5.999969730496
0
LINE
8
0
10
3100.347014599587
20
-896.122671364664
30
5.999969730496
11
3094.347014953517
21
-896.122671454084
31
5.99997312248
0
LINE
8
0
10
3094.347014953517
20
-896.122671454084
30
5.99997312248
11
3094.347014767226
21
-883.622671454084
31
5.999971105054
0
LINE
8
0
10
3094.347016589537
20
-923.622671031733
30
5.999970472442
11
3094.347016403246
21
-911.122654069223
31
5.999966695216
0
LINE
8
0
10
3094.347016403246
20
-911.122654069223
30
5.999966695216
11
3100.347016074336
21
-911.122653979803
31
5.999966624508
0
LINE
8
0
10
3100.347016074336
20
-911.122653979803
30
5.999966624508
11
3100.347016260628
21
-923.622670942313
31
5.999965320657
0
LINE
8
0
10
3100.347016260628
20
-923.622670942313
30
5.999965320657
11
3094.347016589537
21
-923.622671031733
31
5.999970472442
0
LINE
8
0
10
3183.165672013124
20
-797.673504797933
30
5.999979189777
11
3183.375449837607
21
-797.167035068244
31
5.99997923948
0
LINE
8
0
10
3180.297019680831
20
-798.442181598496
30
5.999979152326
11
3180.803489410519
21
-798.651959422979
31
5.999979122901
0
LINE
8
0
10
3179.862078714667
20
-500.33860494482
30
6.000010253398
11
3179.528338486774
21
-500.773541473238
31
6.000010213002
0
LINE
8
0
10
3183.165667588336
20
-500.773541419029
30
6.000010158824
11
3182.83192734748
21
-500.338604900562
31
6.000010209161
0
LINE
8
0
10
3180.803489410519
20
-798.651959422979
30
5.999979122901
11
3181.347007477991
21
-798.723492618003
31
5.999979107344
0
LINE
8
0
10
3180.803485017028
20
-503.851971630011
30
6.000009872904
11
3181.347003084504
21
-503.923504825041
31
6.000009857346
0
LINE
8
0
10
3179.246996949688
20
-501.823529270395
30
6.000010107672
11
3179.318560678491
21
-502.367047335735
31
6.000010049912
0
LINE
8
0
10
3182.396990819068
20
-500.004864672674
30
6.000010250452
11
3181.890521089383
21
-499.795086848185
31
6.000010279877
0
LINE
8
0
10
3179.247001343179
20
-796.623517063364
30
5.999979357668
11
3179.318565071982
21
-797.167035128704
31
5.999979299909
0
LINE
8
0
10
3183.44701355021
20
-796.623517000768
30
5.999979295107
11
3183.375449821407
21
-796.079998935431
31
5.999979352867
0
LINE
8
0
10
3181.347007477991
20
-798.723492618003
30
5.999979107344
11
3181.890525543331
21
-798.651959406779
31
5.999979106709
0
LINE
8
0
10
3183.447009156719
20
-501.823529207801
30
6.000010045111
11
3183.375445427916
21
-501.280011142459
31
6.00001010287
0
LINE
8
0
10
3183.375445444116
20
-502.367047275272
30
6.000009989483
11
3183.447009156719
21
-501.823529207801
31
6.000010045111
0
LINE
8
0
10
3182.83192734748
20
-500.338604900562
30
6.000010209161
11
3182.396990819068
21
-500.004864672674
31
6.000010250452
0
LINE
8
0
10
3183.375445427916
20
-501.280011142459
30
6.00001010287
11
3183.165667588336
21
-500.773541419029
31
6.000010158824
0
LINE
8
0
10
3180.803484956571
20
-499.795086864386
30
6.000010296069
11
3180.297015233131
21
-500.00486470397
31
6.000010281731
0
LINE
8
0
10
3181.890525543331
20
-798.651959406779
30
5.999979106709
11
3182.396995266768
21
-798.442181567199
31
5.999979121047
0
LINE
8
0
10
3182.396995266768
20
-798.442181567199
30
5.999979121047
11
3182.831931785235
21
-798.108441326344
31
5.99997914938
0
LINE
8
0
10
3180.297015233131
20
-500.00486470397
30
6.000010281731
11
3179.862078714667
21
-500.33860494482
31
6.000010253398
0
LINE
8
0
10
3181.347003021907
20
-499.723492618009
30
6.000010295442
11
3180.803484956571
21
-499.795086864386
31
6.000010296069
0
LINE
8
0
10
3181.890521089383
20
-499.795086848185
30
6.000010279877
11
3181.347003021907
21
-499.723492618009
31
6.000010295442
0
LINE
8
0
10
3182.831931785235
20
-798.108441326344
30
5.99997914938
11
3183.165672013124
21
-797.673504797933
31
5.999979189777
0
LINE
8
0
10
3162.347003008495
20
-498.823529522265
30
6.000010672325
11
3173.847003008495
21
-498.823529350878
31
6.000010501029
0
LINE
8
0
10
3150.347002618028
20
-472.623517494074
30
6.000013583938
11
3150.347002707447
21
-478.623517494074
31
6.00001295809
0
LINE
8
0
10
2862.165659568474
20
-474.57353399595
30
6.00001767307
11
2861.831926957012
21
-474.138597477488
31
6.000017723408
0
LINE
8
0
10
2860.890520698912
20
-473.59507942511
30
6.000017794124
11
2860.347002631439
21
-473.52354623009
31
6.000017809679
0
LINE
8
0
10
3183.165667619637
20
-502.873517004967
30
6.000009939779
11
3183.375445444116
21
-502.367047275272
31
6.000009989483
0
LINE
8
0
10
2880.347002707446
20
-478.623521517957
30
6.000016979808
11
2867.847002707446
21
-478.62352170425
31
6.000017165999
0
LINE
8
0
10
3200.347004406423
20
-592.623516748909
30
6.000000322213
11
3200.347003810291
21
-552.623516748909
31
6.000004494534
0
LINE
8
0
10
3180.297019626621
20
-794.804852496933
30
5.999979531729
11
3179.862083108158
21
-795.138592737792
31
5.999979503396
0
LINE
8
0
10
3179.862078758928
20
-503.308453577632
30
6.00000994362
11
3180.297015287343
21
-503.642193805533
31
6.000009902329
0
LINE
8
0
10
3179.318560662291
20
-501.280011202922
30
6.000010163298
11
3179.246996949688
21
-501.823529270395
31
6.000010107672
0
LINE
8
0
10
2860.347002631439
20
-473.52354623009
30
6.000017809679
11
2859.803484566099
21
-473.59507944131
31
6.000017810316
0
LINE
8
0
10
2862.375445053649
20
-476.167039852198
30
6.000017503729
11
2862.447001136857
21
-475.623521784732
31
6.000017559356
0
LINE
8
0
10
2859.80348462656
20
-477.651964206935
30
6.00001738715
11
2860.347002694032
21
-477.723497401965
31
6.000017371593
0
LINE
8
0
10
3183.375449837607
20
-797.167035068244
30
5.99997923948
11
3183.44701355021
21
-796.623517000768
31
5.999979295107
0
LINE
8
0
10
2823.245995648243
20
-377.638903228328
30
6.000028398299
11
2815.347001257336
21
-381.322252955421
31
6.000028131754
0
LINE
8
0
10
3200.347003008494
20
-498.82352895594
30
6.000010106305
11
3200.347003097917
21
-504.82352895594
31
6.000009480456
0
LINE
8
0
10
3180.297015287343
20
-503.642193805533
30
6.000009902329
11
3180.803485017028
21
-503.851971630011
31
6.000009872904
0
LINE
8
0
10
2859.296999583874
20
-473.80485728089
30
6.000017795977
11
2858.8620783242
21
-474.138597521746
31
6.000017767645
0
LINE
8
0
10
2862.447001136857
20
-475.623521784732
30
6.000017559356
11
2862.375445037448
21
-475.080003719386
31
6.000017617114
0
LINE
8
0
10
2861.831927001273
20
-477.108446110301
30
6.000017413628
11
2862.165659599771
21
-476.673509581887
31
6.000017454026
0
LINE
8
0
10
3206.347003810291
20
-552.623516659489
30
6.000004405163
11
3206.347001902668
21
-424.623516659488
31
6.000017791041
0
LINE
8
0
10
2858.318560271823
20
-475.080003779849
30
6.000017677543
11
2858.247004188614
21
-475.623521847322
31
6.000017621917
0
LINE
8
0
10
3200.347007491403
20
-799.623516748904
30
5.999978730453
11
3188.847007491404
21
-799.623516920294
31
5.999978901749
0
LINE
8
0
10
3200.347007401986
20
-793.623516748904
30
5.999979356303
11
3200.347007491403
21
-799.623516748904
31
5.999978730453
0
LINE
8
0
10
3200.347003097917
20
-504.82352895594
30
6.000009480456
11
3188.847003097917
21
-504.823529127327
31
6.000009651752
0
LINE
8
0
10
2858.247004188614
20
-475.623521847322
30
6.000017621917
11
2858.318560288023
21
-476.167039912662
31
6.000017564158
0
LINE
8
0
10
3182.396995212559
20
-794.804852465636
30
5.99997950045
11
3181.890525482874
21
-794.595074641154
31
5.999979529874
0
LINE
8
0
10
2859.803484566099
20
-473.59507944131
30
6.000017810316
11
2859.296999583874
21
-473.80485728089
31
6.000017795977
0
LINE
8
0
10
3181.89052114984
20
-503.851971613811
30
6.000009856711
11
3182.39699087328
21
-503.642193774236
31
6.00000987105
0
LINE
8
0
10
3179.528338518074
20
-502.873517059176
30
6.000009993957
11
3179.862078758928
21
-503.308453577632
31
6.00000994362
0
LINE
8
0
10
3206.347003550707
20
-863.622670492632
30
5.999972405793
11
3206.347004406423
21
-592.623516659489
31
6.000000232842
0
LINE
8
0
10
2858.8620783242
20
-474.138597521746
30
6.000017767645
11
2858.528345725701
21
-474.573534050158
31
6.000017727248
0
LINE
8
0
10
2858.528345725701
20
-474.573534050158
30
6.000017727248
11
2858.318560271823
21
-475.080003779849
31
6.000017677543
0
LINE
8
0
10
2860.890520759373
20
-477.651964190735
30
6.000017370958
11
2861.397005741598
21
-477.442186351157
31
6.000017385295
0
LINE
8
0
10
2861.831926957012
20
-474.138597477488
30
6.000017723408
11
2861.39700568739
21
-473.804857249595
31
6.000017764697
0
LINE
8
0
10
2858.528345756997
20
-476.673509636095
30
6.000017508204
11
2858.86207836846
21
-477.108446154559
31
6.000017457866
0
LINE
8
0
10
2860.347002694032
20
-477.723497401965
30
6.000017371593
11
2860.890520759373
21
-477.651964190735
31
6.000017370958
0
LINE
8
0
10
2858.318560288023
20
-476.167039912662
30
6.000017564158
11
2858.528345756997
21
-476.673509636095
31
6.000017508204
0
LINE
8
0
10
3183.375449821407
20
-796.079998935431
30
5.999979352867
11
3183.165671981827
21
-795.573529211996
31
5.999979408821
0
LINE
8
0
10
3179.318560678491
20
-502.367047335735
30
6.000010049912
11
3179.528338518074
21
-502.873517059176
31
6.000009993957
0
LINE
8
0
10
3181.347003084504
20
-503.923504825041
30
6.000009857346
11
3181.89052114984
21
-503.851971613811
31
6.000009856711
0
LINE
8
0
10
3203.331620788434
20
-407.52256455599
30
6.000019619723
11
3199.648271061336
21
-399.623516759321
31
6.000020498522
0
LINE
8
0
10
3110.347002707446
20
-478.623518090199
30
6.000013553899
11
3110.347002618028
21
-472.623518090199
31
6.000014179747
0
LINE
8
0
10
3200.347003810291
20
-552.623516748909
30
6.000004494534
11
3206.347003810291
21
-552.623516659489
31
6.000004405163
0
LINE
8
0
10
3182.831931740971
20
-795.138592693531
30
5.999979459159
11
3182.396995212559
21
-794.804852465636
31
5.99997950045
0
LINE
8
0
10
3182.39699087328
20
-503.642193774236
30
6.00000987105
11
3182.83192739174
21
-503.308453533374
31
6.000009899383
0
LINE
8
0
10
2880.347002618026
20
-472.623521517957
30
6.000017605654
11
2880.347002707446
21
-478.623521517957
31
6.000016979808
0
LINE
8
0
10
3206.347004406423
20
-592.623516659489
30
6.000000232842
11
3200.347004406423
21
-592.623516748909
31
6.000000322213
0
LINE
8
0
10
3188.486375111137
20
-386.321270831916
30
6.000022052312
11
3181.347001257342
21
-381.322247500821
31
6.000022680093
0
LINE
8
0
10
3173.847003097917
20
-504.823529350878
30
6.000009875181
11
3162.347003097917
21
-504.823529522265
31
6.000010046476
0
LINE
8
0
10
2793.362370586249
20
-407.522570665877
30
6.000025726316
11
2791.106614095125
21
-415.941149801063
31
6.00002488179
0
LINE
8
0
10
3179.528338486774
20
-500.773541473238
30
6.000010213002
11
3179.318560662291
21
-501.280011202922
31
6.000010163298
0
LINE
8
0
10
3181.347007415398
20
-794.523541446128
30
5.999979545433
11
3180.803489350061
21
-794.595074657354
31
5.999979546067
0
LINE
8
0
10
3199.648271061336
20
-399.623516759321
30
6.000020498522
11
3194.649216999859
21
-392.484112536943
31
6.000021317681
0
LINE
8
0
10
3180.803489350061
20
-794.595074657354
30
5.999979546067
11
3180.297019626621
21
-794.804852496933
31
5.999979531729
0
LINE
8
0
10
3182.83192739174
20
-503.308453533374
30
6.000009899383
11
3183.165667619637
21
-502.873517004967
31
6.000009939779
0
LINE
8
0
10
2861.397005741598
20
-477.442186351157
30
6.000017385295
11
2861.831927001273
21
-477.108446110301
31
6.000017413628
0
LINE
8
0
10
3162.347007491404
20
-799.623517315227
30
5.999979296474
11
3162.347007401985
21
-793.623517315227
31
5.999979922322
0
LINE
8
0
10
3183.165671981827
20
-795.573529211996
30
5.999979408821
11
3182.831931740971
21
-795.138592693531
31
5.999979459159
0
LINE
8
0
10
3181.890525482874
20
-794.595074641154
30
5.999979529874
11
3181.347007415398
21
-794.523541446128
31
5.999979545433
0
LINE
8
0
10
2861.39700568739
20
-473.804857249595
30
6.000017764697
11
2860.890520698912
21
-473.59507942511
31
6.000017794124
0
LINE
8
0
10
2797.045731521998
20
-399.623522759422
30
6.000026495386
11
2793.362370586249
21
-407.522570665877
31
6.000025726316
0
LINE
8
0
10
2867.847002707446
20
-478.62352170425
30
6.000017165999
11
2867.847002618026
21
-472.62352170425
31
6.000017791845
0
LINE
8
0
10
2862.165659599771
20
-476.673509581887
30
6.000017454026
11
2862.375445053649
21
-476.167039852198
31
6.000017503729
0
LINE
8
0
10
3165.029404733279
20
-375.383160829941
30
6.000023542642
11
3156.347001157508
21
-374.623517404653
31
6.000023751205
0
LINE
8
0
10
3173.448014386041
20
-377.638898009168
30
6.000023181953
11
3165.029404733279
21
-375.383160829941
31
6.000023542642
0
LINE
8
0
10
2858.86207836846
20
-477.108446154559
30
6.000017457866
11
2859.296999638082
21
-477.442186382453
31
6.000017416575
0
LINE
8
0
10
3173.847007491404
20
-799.623517143842
30
5.999979125178
11
3162.347007491404
21
-799.623517315227
31
5.999979296474
0
LINE
8
0
10
2802.044779171792
20
-392.484118388048
30
6.000027165621
11
2797.045731521998
21
-399.623522759422
31
6.000026495386
0
LINE
8
0
10
2852.847002618026
20
-472.623521927803
30
6.000018015274
11
2852.847002707446
21
-478.623521927804
31
6.000017389428
0
LINE
8
0
10
3173.847007401984
20
-793.623517143842
30
5.999979751027
11
3173.847007491404
21
-799.623517143842
31
5.999979125178
0
LINE
8
0
10
2791.106614095125
20
-415.941149801063
30
6.00002488179
11
2790.347001902667
21
-424.623522859256
31
6.000023987464
0
LINE
8
0
10
2815.347001257336
20
-381.322252955421
30
6.000028131754
11
2808.207619923147
21
-386.321276499322
31
6.000027716657
0
LINE
8
0
10
2840.347001157503
20
-374.623522114089
30
6.000028458103
11
2831.664593789674
21
-375.383165798179
31
6.000028508193
0
LINE
8
0
10
2840.347002707446
20
-478.623522114091
30
6.000017575618
11
2840.347002618026
21
-472.62352211409
31
6.000018201464
0
LINE
8
0
10
2859.296999638082
20
-477.442186382453
30
6.000017416575
11
2859.80348462656
21
-477.651964206935
31
6.00001738715
0
LINE
8
0
10
3188.847003097917
20
-504.823529127327
30
6.000009651752
11
3188.847003008495
21
-498.823529127327
31
6.000010277601
0
LINE
8
0
10
3206.347001902668
20
-424.623516659488
30
6.000017791041
11
3205.587388736163
21
-415.941143623931
31
6.000018707998
0
LINE
8
0
10
3188.847007401985
20
-793.623516920294
30
5.999979527598
11
3200.347007401986
21
-793.623516748904
31
5.999979356303
0
LINE
8
0
10
3188.847007491404
20
-799.623516920294
30
5.999978901749
11
3188.847007401985
21
-793.623516920294
31
5.999979527598
0
LINE
8
0
10
3162.347007401985
20
-793.623517315227
30
5.999979922322
11
3173.847007401984
21
-793.623517143842
31
5.999979751027
0
LINE
8
0
10
2867.847002618026
20
-472.62352170425
30
6.000017791845
11
2880.347002618026
21
-472.623521517957
31
6.000017605654
0
LINE
8
0
10
3181.347001257342
20
-381.322247500821
30
6.000022680093
11
3173.448014386041
21
-377.638898009168
31
6.000023181953
0
LINE
8
0
10
2831.664593789674
20
-375.383165798179
30
6.000028508193
11
2823.245995648243
21
-377.638903228328
31
6.000028398299
0
LINE
8
0
10
2840.347002618026
20
-472.62352211409
30
6.000018201464
11
2852.847002618026
21
-472.623521927803
31
6.000018015274
0
LINE
8
0
10
2852.847002707446
20
-478.623521927804
30
6.000017389428
11
2840.347002707446
21
-478.623522114091
31
6.000017575618
0
LINE
8
0
10
2862.375445037448
20
-475.080003719386
30
6.000017617114
11
2862.165659568474
21
-474.57353399595
31
6.00001767307
0
LINE
8
0
10
3188.847003008495
20
-498.823529127327
30
6.000010277601
11
3200.347003008494
21
-498.82352895594
31
6.000010106305
0
LINE
8
0
10
3110.347002618028
20
-472.623518090199
30
6.000014179747
11
3150.347002618028
21
-472.623517494074
31
6.000013583938
0
LINE
8
0
10
3194.649216999859
20
-392.484112536943
30
6.000021317681
11
3188.486375111137
21
-386.321270831916
31
6.000022052312
0
LINE
8
0
10
2808.207619923147
20
-386.321276499322
30
6.000027716657
11
2802.044779171792
21
-392.484118388048
31
6.000027165621
0
LINE
8
0
10
3162.347003097917
20
-504.823529522265
30
6.000010046476
11
3162.347003008495
21
-498.823529522265
31
6.000010672325
0
LINE
8
0
10
3156.347001157508
20
-374.623517404653
30
6.000023751205
11
2840.347001157503
21
-374.623522114089
31
6.000028458103
0
LINE
8
0
10
3205.587388736163
20
-415.941143623931
30
6.000018707998
11
3203.331620788434
21
-407.52256455599
31
6.000019619723
0
LINE
8
0
10
3150.347002707447
20
-478.623517494074
30
6.00001295809
11
3110.347002707446
21
-478.623518090199
31
6.000013553899
0
LINE
8
0
10
3173.847003008495
20
-498.823529350878
30
6.000010501029
11
3173.847003097917
21
-504.823529350878
31
6.000009875181
0
LINE
8
0
10
3087.347010545699
20
-491.123513540127
30
6.000012592642
11
3087.347010359408
21
-478.623514701426
31
6.000013896492
0
LINE
8
0
10
3087.347010359408
20
-478.623514701426
30
6.000013896492
11
3081.347008815347
21
-478.623514790848
31
6.000013985864
0
LINE
8
0
10
3081.347009001637
20
-491.123513629547
30
6.000012682013
11
3087.347010545699
21
-491.123513540127
31
6.000012592642
0
LINE
8
0
10
2790.346995153705
20
-541.623528969023
30
6.000009160937
11
2790.347000701813
21
-734.623528973716
31
5.999991869596
0
LINE
8
0
10
2790.347002157875
20
-776.623528973715
30
5.999988150645
11
2790.347006767384
21
-943.622676545731
31
5.999992161204
0
LINE
8
0
10
2790.347001902667
20
-424.623522859256
30
6.000023987464
11
2790.346993753529
21
-499.623528969025
31
6.000012824005
0
LINE
8
0
10
2919.347004251509
20
-478.62352093673
30
6.000016398893
11
2913.347002707446
21
-478.62352102615
31
6.000016488266
0
LINE
8
0
10
3081.347008815347
20
-478.623514790848
30
6.000013985864
11
3081.347009001637
21
-491.123513629547
31
6.000012682013
0
LINE
8
0
10
2919.347004437799
20
-491.123519775429
30
6.000015095043
11
2919.347004251509
21
-478.62352093673
31
6.000016398893
0
LINE
8
0
10
2774.364103738971
20
-486.362476911926
30
6.000014327484
11
2774.346993469499
21
-486.623529296874
31
6.000014304399
0
LINE
8
0
10
2775.346995145374
20
-541.355580074642
30
6.000009432238
11
2775.581628284091
21
-541.471288325103
31
6.000009418399
0
LINE
8
0
10
2790.347002157875
20
-776.623528973715
30
5.999988150645
11
2776.347002157529
21
-776.623529241961
31
5.999988384732
0
LINE
8
0
10
2775.829364065292
20
-776.555380909967
30
5.999988398534
11
2776.085949772579
21
-776.60641897249
31
5.99998839015
0
LINE
8
0
10
2774.364105378786
20
-539.884581680806
30
6.000009578393
11
2774.415143456602
21
-540.141167385049
31
6.000009554692
0
LINE
8
0
10
2774.932786869147
20
-720.209315721735
30
5.999993413456
11
2775.129477568361
21
-720.036822597663
31
5.999993425948
0
LINE
8
0
10
2774.364112382955
20
-774.884581685498
30
5.999988569736
11
2774.415150460771
21
-775.141167389742
31
5.999988546035
0
LINE
8
0
10
2782.91236966508
20
-484.775770086583
30
6.000014329947
11
2783.147002802998
21
-484.891478340553
31
6.000014315264
0
LINE
8
0
10
2774.614951320157
20
-775.623529293582
30
5.999988499933
11
2774.760295453625
21
-775.841052147268
31
5.999988478321
0
LINE
8
0
10
2775.129479287194
20
-776.210235958828
30
5.999988439816
11
2775.347002149543
21
-776.355580079334
31
5.999988423581
0
LINE
8
0
10
2783.561219883688
20
-720.20931554136
30
5.999993271768
11
2783.733713005665
21
-720.406006242413
31
5.999993251298
0
LINE
8
0
10
2783.87905713682
20
-720.623529097645
30
5.99999322942
11
2783.994765398769
21
-720.858162230696
31
5.999993206509
0
LINE
8
0
10
2782.147002796865
20
-484.62352916297
30
6.000014356868
11
2776.346993409893
21
-484.623529237271
31
6.000014453424
0
LINE
8
0
10
2774.346993469499
20
-486.623529296874
30
6.000014304399
11
2774.346995093754
21
-539.623529296873
31
6.000009601987
0
LINE
8
0
10
2774.760293756799
20
-720.406006431233
30
5.999993398438
11
2774.932786869147
21
-720.209315721735
31
5.999993413456
0
LINE
8
0
10
2776.346995153359
20
-541.623529237271
30
6.000009393389
11
2776.085942768409
21
-541.6064189678
31
6.000009398808
0
LINE
8
0
10
2774.932779864978
20
-485.209315717045
30
6.000014422114
11
2775.129470564193
21
-485.036822592974
31
6.000014434606
0
LINE
8
0
10
2913.347002707446
20
-478.62352102615
30
6.000016488266
11
2913.347002893737
21
-491.123519864849
31
6.000015184416
0
LINE
8
0
10
2774.614944315988
20
-540.62352928889
30
6.000009508591
11
2774.760288449457
21
-540.841052142576
31
6.000009486979
0
LINE
8
0
10
2774.614942632127
20
-485.62352928889
30
6.000014389813
11
2774.76028675263
21
-485.406006426542
31
6.000014407095
0
LINE
8
0
10
2774.499236051542
20
-540.388896157066
30
6.000009531292
11
2774.614944315988
21
-540.62352928889
31
6.000009508591
0
LINE
8
0
10
2774.346995093754
20
-539.623529296873
30
6.000009601987
11
2774.364105378786
21
-539.884581680806
31
6.000009578393
0
LINE
8
0
10
2775.581633553869
20
-719.775770199747
30
5.999993442553
11
2775.829362325888
21
-719.691677604811
31
5.999993446382
0
LINE
8
0
10
2775.129472283024
20
-541.210235954139
30
6.000009448474
11
2775.346995145374
21
-541.355580074642
31
6.000009432238
0
LINE
8
0
10
2774.499234381666
20
-485.858162427606
30
6.00001437056
11
2774.614942632127
21
-485.62352928889
31
6.000014389813
0
LINE
8
0
10
2775.5816265497
20
-484.775770195058
30
6.000014451211
11
2775.829355321719
21
-484.691677600119
31
6.00001445504
0
LINE
8
0
10
2774.347000473667
20
-721.623529301566
30
5.999993295741
11
2774.347002097922
21
-774.623529301566
31
5.999988593329
0
LINE
8
0
10
2913.347002893737
20
-491.123519864849
30
6.000015184416
11
2919.347004437799
21
-491.123519775429
31
6.000015095043
0
LINE
8
0
10
2774.415141801493
20
-486.105891204639
30
6.000014349663
11
2774.499234381666
21
-485.858162427606
31
6.00001437056
0
LINE
8
0
10
2775.129470564193
20
-485.036822592974
30
6.000014434606
11
2775.346993417878
21
-484.891478459504
31
6.000014444359
0
LINE
8
0
10
2775.346993417878
20
-484.891478459504
30
6.000014444359
11
2775.5816265497
21
-484.775770195058
31
6.000014451211
0
LINE
8
0
10
2775.829355321719
20
-484.691677600119
30
6.00001445504
11
2776.085941025963
21
-484.640639522301
31
6.000014455782
0
LINE
8
0
10
2774.760295453625
20
-775.841052147268
30
5.999988478321
11
2774.932788577697
21
-776.037742846481
31
5.999988458167
0
LINE
8
0
10
2775.347002149543
20
-776.355580079334
30
5.999988423581
11
2775.581635288261
21
-776.471288329792
31
5.999988409741
0
LINE
8
0
10
2776.347002157529
20
-776.623529241961
30
5.999988384732
11
2776.085949772579
21
-776.60641897249
31
5.99998839015
0
LINE
8
0
10
2774.760288449457
20
-540.841052142576
30
6.000009486979
11
2774.932781573528
21
-541.037742841792
31
6.000009466825
0
LINE
8
0
10
2775.581635288261
20
-776.471288329792
30
5.999988409741
11
2775.829364065292
21
-776.555380909967
31
5.999988398534
0
LINE
8
0
10
2775.581628284091
20
-541.471288325103
30
6.000009418399
11
2775.829357061124
21
-541.555380905275
31
6.000009407192
0
LINE
8
0
10
2774.932781573528
20
-541.037742841792
30
6.000009466825
11
2775.129472283024
21
-541.210235954139
31
6.000009448474
0
LINE
8
0
10
2774.614949636296
20
-720.623529293582
30
5.999993381156
11
2774.760293756799
21
-720.406006431233
31
5.999993398438
0
LINE
8
0
10
2775.347000422048
20
-719.891478464196
30
5.999993435702
11
2775.581633553869
21
-719.775770199747
31
5.999993442553
0
LINE
8
0
10
2775.129477568361
20
-720.036822597663
30
5.999993425948
11
2775.347000422048
21
-719.891478464196
31
5.999993435702
0
LINE
8
0
10
2774.415143456602
20
-540.141167385049
30
6.000009554692
11
2774.499236051542
21
-540.388896157066
31
6.000009531292
0
LINE
8
0
10
2774.415148805662
20
-721.105891209332
30
5.999993341005
11
2774.499241385834
21
-720.858162432299
31
5.999993361902
0
LINE
8
0
10
2774.36411074314
20
-721.362476916618
30
5.999993318826
11
2774.347000473667
21
-721.623529301566
31
5.999993295741
0
LINE
8
0
10
2774.499241385834
20
-720.858162432299
30
5.999993361902
11
2774.614949636296
21
-720.623529293582
31
5.999993381156
0
LINE
8
0
10
2790.346995153705
20
-541.623528969023
30
6.000009160937
11
2776.346995153359
21
-541.623529237271
31
6.000009393389
0
LINE
8
0
10
2776.346993409893
20
-484.623529237271
30
6.000014453424
11
2776.085941025963
21
-484.640639522301
31
6.000014455782
0
LINE
8
0
10
2774.415150460771
20
-775.141167389742
30
5.999988546035
11
2774.499243055709
21
-775.388896161758
31
5.999988522634
0
LINE
8
0
10
2784.147002842638
20
-486.623529133273
30
6.000014137309
11
2784.147003140156
21
-499.623529133273
31
6.000012926606
0
LINE
8
0
10
2774.36411074314
20
-721.362476916618
30
5.999993318826
11
2774.415148805662
21
-721.105891209332
31
5.999993341005
0
LINE
8
0
10
2775.829357061124
20
-541.555380905275
30
6.000009407192
11
2776.085942768409
21
-541.6064189678
31
6.000009398808
0
LINE
8
0
10
2782.147006310091
20
-719.62352913083
30
5.999993347787
11
2776.347000414062
21
-719.623529241961
31
5.999993444766
0
LINE
8
0
10
2790.347000701813
20
-734.623528973716
30
5.999991869596
11
2784.147006597496
21
-734.623529092509
31
5.999991973263
0
LINE
8
0
10
2784.078857991071
20
-721.105891003612
30
5.999993182953
11
2784.129896066157
21
-721.362476708399
31
5.999993159161
0
LINE
8
0
10
2783.147006315225
20
-719.891478304103
30
5.999993307109
11
2783.364529176027
21
-720.03682242692
31
5.999993290479
0
LINE
8
0
10
2783.364529176027
20
-720.03682242692
30
5.999993290479
11
2783.561219883688
21
-720.20931554136
31
5.999993271768
0
LINE
8
0
10
2790.346993753529
20
-499.623528969025
30
6.000012824005
11
2784.147003140156
21
-499.623529133273
31
6.000012926606
0
LINE
8
0
10
2774.499243055709
20
-775.388896161758
30
5.999988522634
11
2774.614951320157
21
-775.623529293582
31
5.999988499933
0
LINE
8
0
10
2774.347002097922
20
-774.623529301566
30
5.999988593329
11
2774.364112382955
21
-774.884581685498
31
5.999988569736
0
LINE
8
0
10
2774.364103738971
20
-486.362476911926
30
6.000014327484
11
2774.415141801493
21
-486.105891204639
31
6.000014349663
0
LINE
8
0
10
2776.347000414062
20
-719.623529241961
30
5.999993444766
11
2776.085948030131
21
-719.640639526992
31
5.999993447124
0
LINE
8
0
10
2775.829362325888
20
-719.691677604811
30
5.999993446382
11
2776.085948030131
21
-719.640639526992
31
5.999993447124
0
LINE
8
0
10
2774.76028675263
20
-485.406006426542
30
6.000014407095
11
2774.932779864978
21
-485.209315717045
31
6.000014422114
0
LINE
8
0
10
3048.142556717408
20
-415.17643327906
30
6.000021175474
11
3047.890278965817
21
-415.919619606394
31
6.000021103708
0
LINE
8
0
10
2782.408055181697
20
-484.640639436345
30
6.000014350928
11
2782.147002796865
21
-484.62352916297
31
6.000014356868
0
LINE
8
0
10
3047.107121832713
20
-417.276087597926
30
6.00002097729
11
3046.589642486879
21
-417.866159718708
31
6.000020924802
0
LINE
8
0
10
2782.664644401602
20
-719.691677468336
30
5.999993333038
11
2782.912373177738
21
-719.775770051143
31
5.999993321378
0
LINE
8
0
10
2784.129896066157
20
-721.362476708399
30
5.999993159161
11
2784.147006348412
21
-721.623529092509
31
5.999993135534
0
LINE
8
0
10
3044.643102413334
20
-419.166796255664
30
6.00002082052
11
3043.899916093519
21
-419.419074029407
31
6.000020805471
0
LINE
8
0
10
3046.589642166677
20
-396.380878344468
30
6.000023104096
11
3045.999570045898
21
-395.863398998632
31
6.000023165344
0
LINE
8
0
10
3045.999570045898
20
-395.863398998632
30
6.000023165344
11
3045.347001465348
21
-395.4273666274
31
6.000023219266
0
LINE
8
0
10
3048.142556477379
20
-399.070604737829
30
6.000022808303
11
3047.890278703636
21
-398.327418418013
31
6.000022887399
0
LINE
8
0
10
2783.733713005665
20
-720.406006242413
30
5.999993251298
11
2783.87905713682
21
-720.623529097645
31
5.99999322942
0
LINE
8
0
10
2783.994761890144
20
-485.858162270803
30
6.000014211125
11
2784.078854483369
21
-486.105891044079
31
6.000014186652
0
LINE
8
0
10
2784.147006348412
20
-721.623529092509
30
5.999993135534
11
2784.147006597496
21
-734.623529092509
31
5.999991973263
0
LINE
8
0
10
2782.912373177738
20
-719.775770051143
30
5.999993321378
11
2783.147006315225
21
-719.891478304103
31
5.999993307109
0
LINE
8
0
10
2783.147002802998
20
-484.891478340553
30
6.000014315264
11
2783.364525664342
21
-485.036822464309
31
6.000014298109
0
LINE
8
0
10
3043.130158607454
20
-394.674849914903
30
6.00002332857
11
3042.347001453368
21
-394.623519094817
31
6.00002334544
0
LINE
8
0
10
3048.34700173653
20
-413.623519005397
30
6.00002133
11
3048.347001542788
21
-400.623519005397
31
6.000022647836
0
LINE
8
0
10
2783.364525664342
20
-485.036822464309
30
6.000014298109
11
2783.561216372645
21
-485.209315579596
31
6.00001427877
0
LINE
8
0
10
2783.733709495356
20
-485.40600628139
30
6.00001425758
11
2783.87905362732
21
-485.623529137252
31
6.000014234901
0
LINE
8
0
10
3047.890278703636
20
-398.327418418013
30
6.000022887399
11
3047.543153920784
21
-397.623519017377
31
6.000022963925
0
LINE
8
0
10
2783.87905362732
20
-485.623529137252
30
6.000014234901
11
2783.994761890144
21
-485.858162270803
31
6.000014211125
0
LINE
8
0
10
3043.89991572703
20
-394.827964113938
30
6.000023301583
11
3043.130158607454
21
-394.674849914903
31
6.00002332857
0
LINE
8
0
10
3045.999570381525
20
-418.383639082127
30
6.0000208807
11
3045.347001813971
21
-418.819671472814
31
6.00002084574
0
LINE
8
0
10
2782.66464088863
20
-484.691677502707
30
6.000014341902
11
2782.91236966508
21
-484.775770086583
31
6.000014329947
0
LINE
8
0
10
3047.107121530099
20
-396.970950449821
30
6.000023036571
11
3046.589642166677
21
-396.380878344468
31
6.000023104096
0
LINE
8
0
10
2782.408055181697
20
-484.640639436345
30
6.000014350928
11
2782.66464088863
21
-484.691677502707
31
6.000014341902
0
LINE
8
0
10
3048.34700173653
20
-413.623519005397
30
6.00002133
11
3048.295670916445
21
-414.406676159482
31
6.000021251337
0
LINE
8
0
10
2783.561216372645
20
-485.209315579596
30
6.00001427877
11
2783.733709495356
21
-485.40600628139
31
6.00001425758
0
LINE
8
0
10
3045.347001465348
20
-395.4273666274
30
6.000023219266
11
3044.643102054365
21
-395.080241865528
31
6.000023264939
0
LINE
8
0
10
3048.347001542788
20
-400.623519005397
30
6.000022647836
11
3048.295670699359
21
-399.840361852841
31
6.00002272799
0
LINE
8
0
10
3046.589642486879
20
-417.866159718708
30
6.000020924802
11
3045.999570381525
21
-418.383639082127
31
6.0000208807
0
LINE
8
0
10
3048.295670916445
20
-414.406676159482
30
6.000021251337
11
3048.142556717408
21
-415.17643327906
31
6.000021175474
0
LINE
8
0
10
2950.104360792439
20
-396.380879782415
30
6.000024536108
11
2950.694432897793
21
-395.863400418993
31
6.000024581297
0
LINE
8
0
10
3047.890278965817
20
-415.919619606394
30
6.000021103708
11
3047.543154203947
21
-416.623519017377
31
6.000021037268
0
LINE
8
0
10
2950.694432897793
20
-395.863400418993
30
6.000024581297
11
2951.347001465347
21
-395.42736802831
31
6.000024617059
0
LINE
8
0
10
2949.15084907537
20
-397.623520483746
30
6.000024420695
11
2949.586881446604
21
-396.970951903197
31
6.000024482267
0
LINE
8
0
10
3047.543154203947
20
-416.623519017377
30
6.000021037268
11
3047.107121832713
21
-417.276087597926
31
6.00002097729
0
LINE
8
0
10
2954.347001825949
20
-419.623520406307
30
6.000022052925
11
3042.34700182595
21
-419.623519094817
31
6.000020806736
0
LINE
8
0
10
2953.563844671864
20
-419.57218958622
30
6.000022069369
11
2952.794087552288
21
-419.419075387185
31
6.000022096241
0
LINE
8
0
10
2948.347001542787
20
-400.623520495726
30
6.000024119744
11
2948.34700173653
21
-413.623520495727
31
6.00002276374
0
LINE
8
0
10
2948.398332579959
20
-414.406677648282
30
6.000022681324
11
2948.34700173653
21
-413.623520495727
31
6.00002276374
0
LINE
8
0
10
2952.050901224953
20
-419.166797635593
30
6.00002213308
11
2951.34700181397
21
-418.819672873723
31
6.000022179255
0
LINE
8
0
10
2951.34700181397
20
-418.819672873723
30
6.000022179255
11
2950.69443323342
21
-418.383640502488
31
6.000022233979
0
LINE
8
0
10
3044.643102054365
20
-395.080241865528
30
6.000023264939
11
3043.89991572703
21
-394.827964113938
31
6.000023301583
0
LINE
8
0
10
2782.408058694858
20
-719.640639403082
30
5.999993341892
11
2782.664644401602
21
-719.691677468336
31
5.999993333038
0
LINE
8
0
10
2784.078854483369
20
-486.105891044079
30
6.000014186652
11
2784.129892559411
21
-486.362476749087
31
6.000014161907
0
LINE
8
0
10
2783.994765398769
20
-720.858162230696
30
5.999993206509
11
2784.078857991071
21
-721.105891003612
31
5.999993182953
0
LINE
8
0
10
2774.932788577697
20
-776.037742846481
30
5.999988458167
11
2775.129479287194
21
-776.210235958828
31
5.999988439816
0
LINE
8
0
10
3043.899916093519
20
-419.419074029407
30
6.000020805471
11
3043.130158978505
21
-419.572188251389
31
6.000020800849
0
LINE
8
0
10
3045.347001813971
20
-418.819671472814
30
6.00002084574
11
3044.643102413334
21
-419.166796255664
31
6.00002082052
0
LINE
8
0
10
2950.10436111264
20
-417.866161156654
30
6.000022296312
11
2949.586881749218
21
-417.276089051302
31
6.00002236519
0
LINE
8
0
10
3043.130158978505
20
-419.572188251389
30
6.000020800849
11
3042.34700182595
21
-419.623519094817
31
6.000020806736
0
LINE
8
0
10
2782.408058694858
20
-719.640639403082
30
5.999993341892
11
2782.147006310091
21
-719.62352913083
31
5.999993347787
0
LINE
8
0
10
2784.129892559411
20
-486.362476749087
30
6.000014161907
11
2784.147002842638
21
-486.623529133273
31
6.000014137309
0
LINE
8
0
10
3042.347001453368
20
-394.623519094817
30
6.00002334544
11
2954.347001453367
21
-394.623520406307
31
6.00002465622
0
LINE
8
0
10
3048.295670699359
20
-399.840361852841
30
6.00002272799
11
3048.142556477379
21
-399.070604737829
31
6.000022808303
0
LINE
8
0
10
3047.543153920784
20
-397.623519017377
30
6.000022963925
11
3047.107121530099
21
-396.970950449821
31
6.000023036571
0
LINE
8
0
10
3179.862083152421
20
-798.108441370604
30
5.999979193617
11
3180.297019680831
21
-798.442181598496
31
5.999979152326
0
LINE
8
0
10
3179.318565071982
20
-797.167035128704
30
5.999979299909
11
3179.528342911562
21
-797.67350485214
31
5.999979243955
0
LINE
8
0
10
3179.528342911562
20
-797.67350485214
30
5.999979243955
11
3179.862083152421
21
-798.108441370604
31
5.999979193617
0
ENDSEC
0
EOF
