0
SECTION
2
ENTITIES
0
LINE
8
0
10
2862.165589780434
20
-1663.989797578182
30
6.000006956115
11
2861.831860666503
21
-1663.554873342661
31
6.000006970219
0
LINE
8
0
10
2861.831860666503
20
-1663.554873342661
30
6.000006970219
11
2861.396936421044
21
-1663.221144241684
31
6.00000698371
0
LINE
8
0
10
2861.396936421044
20
-1663.221144241684
30
6.00000698371
11
2860.890456412638
21
-1663.011353361967
31
6.000006995659
0
LINE
8
0
10
2860.890456412638
20
-1663.011353361967
30
6.000006995659
11
2860.34693641686
21
-1662.939797605269
31
6.00000700526
0
LINE
8
0
10
2860.34693641686
20
-1662.939797605269
30
6.00000700526
11
2859.803416423212
21
-1663.011353378154
31
6.00000701185
0
LINE
8
0
10
2859.803416423212
20
-1663.011353378154
30
6.00000701185
11
2859.296936421053
21
-1663.221144272956
31
6.000007014989
0
LINE
8
0
10
2859.296936421053
20
-1663.221144272956
30
6.000007014989
11
2858.862012185533
21
-1663.554873386885
31
6.000007014456
0
LINE
8
0
10
2858.862012185533
20
-1663.554873386885
30
6.000007014456
11
2858.528283084556
21
-1663.989797632344
31
6.000007010294
0
LINE
8
0
10
2858.528283084556
20
-1663.989797632344
30
6.000007010294
11
2858.318492204839
21
-1664.496277640751
31
6.000007002779
0
LINE
8
0
10
2858.318492204839
20
-1664.496277640751
30
6.000007002779
11
2858.24693644814
21
-1665.039797636531
31
6.000006992427
0
LINE
8
0
10
2858.24693644814
20
-1665.039797636531
30
6.000006992427
11
2858.318492221027
21
-1665.583317630177
31
6.000006979944
0
LINE
8
0
10
2858.318492221027
20
-1665.583317630177
30
6.000006979944
11
2858.528283115827
21
-1666.089797632335
31
6.000006966181
0
LINE
8
0
10
2858.528283115827
20
-1666.089797632335
30
6.000006966181
11
2858.862012229758
21
-1666.524721867855
31
6.000006952076
0
LINE
8
0
10
2858.862012229758
20
-1666.524721867855
30
6.000006952076
11
2859.296936475217
21
-1666.858450968834
31
6.000006938587
0
LINE
8
0
10
2859.296936475217
20
-1666.858450968834
30
6.000006938587
11
2859.803416483624
21
-1667.068241848549
31
6.000006926637
0
LINE
8
0
10
2859.803416483624
20
-1667.068241848549
30
6.000006926637
11
2860.346936479402
21
-1667.13979760525
31
6.000006917036
0
LINE
8
0
10
2860.346936479402
20
-1667.13979760525
30
6.000006917036
11
2860.89045647305
21
-1667.068241832363
31
6.000006910446
0
LINE
8
0
10
2860.89045647305
20
-1667.068241832363
30
6.000006910446
11
2861.396936475208
21
-1666.858450937562
31
6.000006907307
0
LINE
8
0
10
2861.396936475208
20
-1666.858450937562
30
6.000006907307
11
2861.831860710728
21
-1666.52472182363
31
6.00000690784
0
LINE
8
0
10
2861.831860710728
20
-1666.52472182363
30
6.00000690784
11
2862.165589811706
21
-1666.089797578172
31
6.000006912002
0
LINE
8
0
10
2862.165589811706
20
-1666.089797578172
30
6.000006912002
11
2862.375380691422
21
-1665.583317569765
31
6.000006919516
0
LINE
8
0
10
2862.375380691422
20
-1665.583317569765
30
6.000006919516
11
2862.446936448121
21
-1665.039797573988
31
6.000006929868
0
LINE
8
0
10
2862.446936448121
20
-1665.039797573988
30
6.000006929868
11
2862.375380675235
21
-1664.496277580341
31
6.000006942352
0
LINE
8
0
10
2862.375380675235
20
-1664.496277580341
30
6.000006942352
11
2862.165589780434
21
-1663.989797578182
31
6.000006956115
0
LINE
8
0
10
3131.831860688642
20
-1663.554869344177
30
6.000002948534
11
3131.396936448151
21
-1663.221140236716
31
6.000002962023
0
LINE
8
0
10
3131.396936448151
20
-1663.221140236716
30
6.000002962023
11
3130.890456442869
21
-1663.01134934945
31
6.000002973972
0
LINE
8
0
10
3130.890456442869
20
-1663.01134934945
30
6.000002973972
11
3130.346936448154
21
-1662.939793584652
31
6.000002983573
0
LINE
8
0
10
3130.346936448154
20
-1662.939793584652
30
6.000002983573
11
3129.803416453438
21
-1663.01134934944
31
6.000002990164
0
LINE
8
0
10
3129.803416453438
20
-1663.01134934944
30
6.000002990164
11
3129.296936448151
21
-1663.221140236694
31
6.000002993303
0
LINE
8
0
10
3129.296936448151
20
-1663.221140236694
30
6.000002993303
11
3128.862012207658
21
-1663.554869344144
31
6.00000299277
0
LINE
8
0
10
3128.862012207658
20
-1663.554869344144
30
6.00000299277
11
3128.528283100195
21
-1663.989793584634
31
6.000002988606
0
LINE
8
0
10
3128.528283100195
20
-1663.989793584634
30
6.000002988606
11
3128.318492212931
21
-1664.496273589915
31
6.000002981092
0
LINE
8
0
10
3128.318492212931
20
-1664.496273589915
30
6.000002981092
11
3128.246936448133
21
-1665.03979358463
31
6.00000297074
0
LINE
8
0
10
3128.246936448133
20
-1665.03979358463
30
6.00000297074
11
3128.318492212923
21
-1665.583313579346
31
6.000002958258
0
LINE
8
0
10
3128.318492212923
20
-1665.583313579346
30
6.000002958258
11
3128.528283100174
21
-1666.089793584634
31
6.000002944495
0
LINE
8
0
10
3128.528283100174
20
-1666.089793584634
30
6.000002944495
11
3128.862012207626
21
-1666.524717825128
31
6.000002930389
0
LINE
8
0
10
3128.862012207626
20
-1666.524717825128
30
6.000002930389
11
3129.296936448114
21
-1666.858446932589
31
6.000002916901
0
LINE
8
0
10
3129.296936448114
20
-1666.858446932589
30
6.000002916901
11
3129.803416453396
21
-1667.068237819854
31
6.00000290495
0
LINE
8
0
10
3129.803416453396
20
-1667.068237819854
30
6.00000290495
11
3130.346936448111
21
-1667.139793584652
31
6.00000289535
0
LINE
8
0
10
3130.346936448111
20
-1667.139793584652
30
6.00000289535
11
3130.890456442827
21
-1667.068237819864
31
6.000002888759
0
LINE
8
0
10
3130.890456442827
20
-1667.068237819864
30
6.000002888759
11
3131.396936448115
21
-1666.85844693261
31
6.000002885621
0
LINE
8
0
10
3131.396936448115
20
-1666.85844693261
30
6.000002885621
11
3131.831860688609
21
-1666.52471782516
31
6.000002886153
0
LINE
8
0
10
3131.831860688609
20
-1666.52471782516
30
6.000002886153
11
3132.165589796069
21
-1666.08979358467
31
6.000002890316
0
LINE
8
0
10
3132.165589796069
20
-1666.08979358467
30
6.000002890316
11
3132.375380683337
21
-1665.583313579389
31
6.00000289783
0
LINE
8
0
10
3132.375380683337
20
-1665.583313579389
30
6.00000289783
11
3132.446936448132
21
-1665.039793584674
31
6.000002908181
0
LINE
8
0
10
3132.446936448132
20
-1665.039793584674
30
6.000002908181
11
3132.375380683345
21
-1664.496273589958
31
6.000002920664
0
LINE
8
0
10
3132.375380683345
20
-1664.496273589958
30
6.000002920664
11
3132.16558979609
21
-1663.98979358467
31
6.000002934427
0
LINE
8
0
10
3132.16558979609
20
-1663.98979358467
30
6.000002934427
11
3131.831860688642
21
-1663.554869344177
31
6.000002948534
0
LINE
8
0
10
3097.346944890722
20
-1197.423548285374
30
5.999755600378
11
3097.890464885435
21
-1197.351992520587
31
5.999755592297
0
LINE
8
0
10
3097.890464885435
20
-1197.351992520587
30
5.999755592297
11
3098.39694489072
21
-1197.142201633333
31
5.999755588425
0
LINE
8
0
10
3098.39694489072
20
-1197.142201633333
30
5.999755588425
11
3098.831869131212
21
-1196.808472525884
31
5.999755589026
0
LINE
8
0
10
3098.831869131212
20
-1196.808472525884
30
5.999755589026
11
3099.165598238671
21
-1196.373548285398
31
5.999755594057
0
LINE
8
0
10
3099.165598238671
20
-1196.373548285398
30
5.999755594057
11
3099.375389125934
21
-1195.867068280118
31
5.999755603177
0
LINE
8
0
10
3099.375389125934
20
-1195.867068280118
30
5.999755603177
11
3099.446944890733
21
-1195.323548285406
31
5.999755615765
0
LINE
8
0
10
3099.446944890733
20
-1195.323548285406
30
5.999755615765
11
3099.375389125946
21
-1194.780028290693
31
5.999755630961
0
LINE
8
0
10
3099.375389125946
20
-1194.780028290693
30
5.999755630961
11
3099.165598238692
21
-1194.273548285408
31
5.99975564773
0
LINE
8
0
10
3099.165598238692
20
-1194.273548285408
30
5.99975564773
11
3098.831869131243
21
-1193.838624044916
31
5.999755664931
0
LINE
8
0
10
3098.831869131243
20
-1193.838624044916
30
5.999755664931
11
3098.396944890757
21
-1193.504894937457
31
5.999755681391
0
LINE
8
0
10
3098.396944890757
20
-1193.504894937457
30
5.999755681391
11
3097.890464885477
21
-1193.295104050193
31
5.999755695986
0
LINE
8
0
10
3097.890464885477
20
-1193.295104050193
30
5.999755695986
11
3097.346944890765
21
-1193.223548285395
31
5.999755707725
0
LINE
8
0
10
3097.346944890765
20
-1193.223548285395
30
5.999755707725
11
3096.803424896052
21
-1193.295104050182
31
5.999755715805
0
LINE
8
0
10
3096.803424896052
20
-1193.295104050182
30
5.999755715805
11
3096.296944890767
21
-1193.504894937435
31
5.999755719677
0
LINE
8
0
10
3096.296944890767
20
-1193.504894937435
30
5.999755719677
11
3095.862020650274
21
-1193.838624044885
31
5.999755719076
0
LINE
8
0
10
3095.862020650274
20
-1193.838624044885
30
5.999755719076
11
3095.528291542816
21
-1194.273548285371
31
5.999755714045
0
LINE
8
0
10
3095.528291542816
20
-1194.273548285371
30
5.999755714045
11
3095.318500655552
21
-1194.780028290651
31
5.999755704925
0
LINE
8
0
10
3095.318500655552
20
-1194.780028290651
30
5.999755704925
11
3095.246944890754
21
-1195.323548285363
31
5.999755692337
0
LINE
8
0
10
3095.246944890754
20
-1195.323548285363
30
5.999755692337
11
3095.318500655541
21
-1195.867068280076
31
5.999755677141
0
LINE
8
0
10
3095.318500655541
20
-1195.867068280076
30
5.999755677141
11
3095.528291542795
21
-1196.37354828536
31
5.999755660371
0
LINE
8
0
10
3095.528291542795
20
-1196.37354828536
30
5.999755660371
11
3095.862020650244
21
-1196.808472525853
31
5.999755643171
0
LINE
8
0
10
3095.862020650244
20
-1196.808472525853
30
5.999755643171
11
3096.29694489073
21
-1197.142201633312
31
5.999755626712
0
LINE
8
0
10
3096.29694489073
20
-1197.142201633312
30
5.999755626712
11
3096.80342489601
21
-1197.351992520576
31
5.999755612115
0
LINE
8
0
10
3096.80342489601
20
-1197.351992520576
30
5.999755612115
11
3097.346944890722
21
-1197.423548285374
31
5.999755600378
0
LINE
8
0
10
2843.890488801423
20
-1197.351992517974
30
5.999753287576
11
2844.39696880671
21
-1197.14220163072
31
5.999753283704
0
LINE
8
0
10
2844.39696880671
20
-1197.14220163072
30
5.999753283704
11
2844.831893047204
21
-1196.808472523268
31
5.999753284304
0
LINE
8
0
10
2844.831893047204
20
-1196.808472523268
30
5.999753284304
11
2845.165622154664
21
-1196.37354828278
31
5.999753289336
0
LINE
8
0
10
2845.165622154664
20
-1196.37354828278
30
5.999753289336
11
2845.375413041929
21
-1195.867068277498
31
5.999753298456
0
LINE
8
0
10
2845.375413041929
20
-1195.867068277498
30
5.999753298456
11
2845.446968806727
21
-1195.323548282784
31
5.999753311043
0
LINE
8
0
10
2845.446968806727
20
-1195.323548282784
30
5.999753311043
11
2845.37541304194
21
-1194.780028288067
31
5.999753326239
0
LINE
8
0
10
2845.37541304194
20
-1194.780028288067
30
5.999753326239
11
2845.165622154686
21
-1194.273548282781
31
5.999753343009
0
LINE
8
0
10
2845.165622154686
20
-1194.273548282781
30
5.999753343009
11
2844.831893047235
21
-1193.838624042286
31
5.99975336021
0
LINE
8
0
10
2844.831893047235
20
-1193.838624042286
30
5.99975336021
11
2844.396968806746
21
-1193.504894934826
31
5.999753376668
0
LINE
8
0
10
2844.396968806746
20
-1193.504894934826
30
5.999753376668
11
2843.890488801464
21
-1193.295104047561
31
5.999753391265
0
LINE
8
0
10
2843.890488801464
20
-1193.295104047561
30
5.999753391265
11
2843.34696880675
21
-1193.223548282763
31
5.999753403003
0
LINE
8
0
10
2843.34696880675
20
-1193.223548282763
30
5.999753403003
11
2842.803448812034
21
-1193.29510404755
31
5.999753411084
0
LINE
8
0
10
2842.803448812034
20
-1193.29510404755
30
5.999753411084
11
2842.296968806747
21
-1193.504894934805
31
5.999753414955
0
LINE
8
0
10
2842.296968806747
20
-1193.504894934805
30
5.999753414955
11
2841.862044566252
21
-1193.838624042256
31
5.999753414356
0
LINE
8
0
10
2841.862044566252
20
-1193.838624042256
30
5.999753414356
11
2841.528315458792
21
-1194.273548282744
31
5.999753409323
0
LINE
8
0
10
2841.528315458792
20
-1194.273548282744
30
5.999753409323
11
2841.318524571527
21
-1194.780028288026
31
5.999753400203
0
LINE
8
0
10
2841.318524571527
20
-1194.780028288026
30
5.999753400203
11
2841.246968806729
21
-1195.323548282741
31
5.999753387616
0
LINE
8
0
10
2841.246968806729
20
-1195.323548282741
30
5.999753387616
11
2841.318524571516
21
-1195.867068277457
31
5.99975337242
0
LINE
8
0
10
2841.318524571516
20
-1195.867068277457
30
5.99975337242
11
2841.528315458771
21
-1196.373548282743
31
5.99975335565
0
LINE
8
0
10
2841.528315458771
20
-1196.373548282743
30
5.99975335565
11
2841.862044566221
21
-1196.808472523238
31
5.999753338449
0
LINE
8
0
10
2841.862044566221
20
-1196.808472523238
30
5.999753338449
11
2842.29696880671
21
-1197.142201630698
31
5.999753321991
0
LINE
8
0
10
2842.29696880671
20
-1197.142201630698
30
5.999753321991
11
2842.803448811992
21
-1197.351992517963
31
5.999753307394
0
LINE
8
0
10
2842.803448811992
20
-1197.351992517963
30
5.999753307394
11
2843.346968806706
21
-1197.423548282762
31
5.999753295657
0
LINE
8
0
10
2843.346968806706
20
-1197.423548282762
30
5.999753295657
11
2843.890488801423
21
-1197.351992517974
31
5.999753287576
0
LINE
8
0
10
3156.757916639815
20
-1724.322678958664
30
6.000000803071
11
3165.388867567557
21
-1723.500008975842
31
6.000000691791
0
LINE
8
0
10
2774.614883276929
20
-1167.32437506313
30
6.000021791023
11
2774.760227400679
21
-1167.106852202949
31
6.000021790193
0
LINE
8
0
10
2774.76022827014
20
-1222.541897914295
30
6.000021487977
11
2774.932721391277
21
-1222.738588616085
31
6.000021484217
0
LINE
8
0
10
2774.364045213742
20
-1221.585427446615
30
6.000021499693
11
2774.415083287729
21
-1221.84201315162
31
6.000021497369
0
LINE
8
0
10
2774.760227400679
20
-1167.106852202949
30
6.000021790193
11
2774.932720515961
21
-1166.910161496027
31
6.000021788835
0
LINE
8
0
10
3200.346933188064
20
-1195.323522880562
30
6.000011653294
11
3206.346933188064
21
-1195.323522880623
31
6.000011563923
0
LINE
8
0
10
2774.932720515961
20
-1166.910161496027
30
6.000021788835
11
2775.129411217749
21
-1166.737668374889
31
6.000021786969
0
LINE
8
0
10
2774.346934932605
20
-1221.32437506243
30
6.000021501539
11
2774.364045213742
21
-1221.585427446615
31
6.000021499693
0
LINE
8
0
10
3200.346933187652
20
-1235.323522880563
30
6.000010813091
11
3200.346933188064
21
-1195.323522880562
31
6.000011653294
0
LINE
8
0
10
2774.346934099378
20
-1168.324375067118
30
6.000021788896
11
2774.346934932605
21
-1221.32437506243
31
6.000021501539
0
LINE
8
0
10
2775.129411217749
20
-1166.737668374889
30
6.000021786969
11
2775.346934073604
21
-1166.592324244665
31
6.000021784626
0
LINE
8
0
10
3206.346933187651
20
-1235.323522880624
30
6.000010723719
11
3200.346933187652
21
-1235.323522880563
31
6.000010813091
0
LINE
8
0
10
2790.346934003308
20
-1155.323522552244
30
6.000040639527
11
3206.346932614251
21
-1155.323522556538
31
6.000033154007
0
LINE
8
0
10
3206.346936415721
20
-1674.324368870062
30
6.000001114651
11
3206.346936448759
21
-1604.324368870063
31
6.000002613832
0
LINE
8
0
10
3148.114575575369
20
-1723.641995822588
30
6.000000946114
11
3156.757916639815
21
-1724.322678958664
31
6.000000803071
0
LINE
8
0
10
2793.331148098817
20
-1691.339528472733
30
6.000006909218
11
2796.977333735256
21
-1699.205638320794
31
6.000006689677
0
LINE
8
0
10
2801.927562903121
20
-1706.323615463179
30
6.000006466429
11
2808.032990645062
21
-1712.479432495103
31
6.000006246185
0
LINE
8
0
10
2774.415083287729
20
-1221.84201315162
30
6.000021497369
11
2774.499175878971
21
-1222.089741924894
31
6.00002149461
0
LINE
8
0
10
2774.364044372746
20
-1168.063322682423
30
6.000021790237
11
2774.346934099378
21
-1168.324375067118
31
6.000021788896
0
LINE
8
0
10
3206.346936449174
20
-1564.324368870063
30
6.000003454035
11
3206.346933187651
21
-1235.323522880624
31
6.000010723719
0
LINE
8
0
10
2790.346934962713
20
-1223.32437497323
30
6.000021229667
11
2776.346934962367
21
-1223.324375032664
31
6.000021459654
0
LINE
8
0
10
2774.499175878971
20
-1222.089741924894
30
6.00002149461
11
2774.614884139917
21
-1222.324375058442
31
6.000021491461
0
LINE
8
0
10
2775.346934073604
20
-1166.592324244665
30
6.000021784626
11
2775.581567207152
21
-1166.47661598372
31
6.000021781851
0
LINE
8
0
10
2776.346934069617
20
-1166.324375037352
30
6.000021771423
11
2776.085881685431
21
-1166.341485318488
31
6.000021775192
0
LINE
8
0
10
2998.346936415469
20
-1698.641995821042
30
6.000003702065
11
3148.114575575369
21
-1723.641995822588
31
6.000000946114
0
LINE
8
0
10
2790.346934003308
20
-1155.323522552244
30
6.000040639527
11
2790.346934189525
21
-1181.324374977919
31
6.000021394013
0
LINE
8
0
10
2796.977333735256
20
-1699.205638320794
30
6.000006689677
11
2801.927562903121
21
-1706.323615463179
31
6.000006466429
0
LINE
8
0
10
2775.34693495838
20
-1223.056425855115
30
6.000021476129
11
2775.581568095371
21
-1223.172134109076
31
6.000021471942
0
LINE
8
0
10
2822.945912550489
20
-1721.198716552872
30
6.000005840902
11
2831.305005262868
21
-1723.500008972394
31
6.000005668053
0
LINE
8
0
10
2775.129412098199
20
-1222.911081731366
30
6.000021480245
11
2775.34693495838
21
-1223.056425855115
31
6.000021476129
0
LINE
8
0
10
3206.346933188064
20
-1195.323522880623
30
6.000011563923
11
3206.346932614251
21
-1155.323522556538
31
6.000033154007
0
LINE
8
0
10
3200.346936449174
20
-1564.32436887
30
6.000003543406
11
3206.346936449174
21
-1564.324368870063
31
6.000003454035
0
LINE
8
0
10
3173.747967909382
20
-1721.198716556494
30
6.000000615619
11
3181.58384437426
21
-1717.488000309017
31
6.000000576846
0
LINE
8
0
10
3200.346936448759
20
-1604.324368870002
30
6.000002703203
11
3200.346936449174
21
-1564.32436887
31
6.000003543406
0
LINE
8
0
10
2775.581568095371
20
-1223.172134109076
30
6.000021471942
11
2775.829296871148
21
-1223.256226692944
31
6.000021467752
0
LINE
8
0
10
2852.846936451564
20
-1332.324368866415
30
6.000013592692
11
2840.346936451564
21
-1332.324368866285
31
6.000013778882
0
LINE
8
0
10
2776.346934962367
20
-1223.324375032664
30
6.000021459654
11
2776.085882577673
21
-1223.307264759295
31
6.000021463633
0
LINE
8
0
10
3181.58384437426
20
-1717.488000309017
30
6.000000576846
11
3188.660870741499
21
-1712.479432499031
31
6.000000576637
0
LINE
8
0
10
2831.305005262868
20
-1723.500008972394
30
6.000005668053
11
2839.935971449383
21
-1724.322678955392
31
6.000005522213
0
LINE
8
0
10
2790.346936415719
20
-1674.324368865768
30
6.000007311074
11
2791.098639916378
21
-1682.961804778862
31
6.000007118446
0
LINE
8
0
10
3194.766308973985
20
-1706.323615467233
30
6.000000614999
11
3199.716534804136
21
-1699.205638324951
31
6.000000690778
0
LINE
8
0
10
2848.579293440357
20
-1723.641995819495
30
6.000005407766
11
2998.346936415469
21
-1698.641995821042
31
6.000003702065
0
LINE
8
0
10
2774.932721391277
20
-1222.738588616085
30
6.000021484217
11
2775.129412098199
21
-1222.911081731366
31
6.000021480245
0
LINE
8
0
10
2774.499175022967
20
-1167.559008200122
30
6.000021791309
11
2774.614883276929
21
-1167.32437506313
31
6.000021791023
0
LINE
8
0
10
2774.364044372746
20
-1168.063322682423
30
6.000021790237
11
2774.415082439098
21
-1167.806736975899
31
6.000021791043
0
LINE
8
0
10
3205.595227431257
20
-1682.96180478314
30
6.000000944417
11
3206.346936415721
21
-1674.324368870062
31
6.000001114651
0
LINE
8
0
10
2790.346934189525
20
-1181.324374977919
30
6.000021394013
11
2784.146936572839
21
-1181.32437504969
31
6.000021495558
0
LINE
8
0
10
2775.829296871148
20
-1223.256226692944
30
6.000021467752
11
2776.085882577673
21
-1223.307264759295
31
6.000021463633
0
LINE
8
0
10
3199.716534804136
20
-1699.205638324951
30
6.000000690778
11
3203.362714003437
21
-1691.339528476966
31
6.000000801696
0
LINE
8
0
10
2839.935971449383
20
-1724.322678955392
30
6.000005522213
11
2848.579293440357
21
-1723.641995819495
31
6.000005407766
0
LINE
8
0
10
2790.346934962713
20
-1223.32437497323
30
6.000021229667
11
2790.346936415719
21
-1674.324368865768
31
6.000007311074
0
LINE
8
0
10
3165.388867567557
20
-1723.500008975842
30
6.000000691791
11
3173.747967909382
21
-1721.198716556494
31
6.000000615619
0
LINE
8
0
10
2774.415082439098
20
-1167.806736975899
30
6.000021791043
11
2774.499175022967
21
-1167.559008200122
31
6.000021791309
0
LINE
8
0
10
3206.346936448759
20
-1604.324368870063
30
6.000002613832
11
3200.346936448759
21
-1604.324368870002
31
6.000002703203
0
LINE
8
0
10
2808.032990645062
20
-1712.479432495103
30
6.000006246185
11
2815.110039900381
21
-1717.488000305233
31
6.000006035563
0
LINE
8
0
10
2791.098639916378
20
-1682.961804778862
30
6.000007118446
11
2793.331148098817
21
-1691.339528472733
31
6.000006909218
0
LINE
8
0
10
2774.614884139917
20
-1222.324375058442
30
6.000021491461
11
2774.76022827014
21
-1222.541897914295
31
6.000021487977
0
LINE
8
0
10
3203.362714003437
20
-1691.339528476966
30
6.000000801696
11
3205.595227431257
21
-1682.96180478314
31
6.000000944417
0
LINE
8
0
10
3188.660870741499
20
-1712.479432499031
30
6.000000576637
11
3194.766308973985
21
-1706.323615467233
31
6.000000614999
0
LINE
8
0
10
2815.110039900381
20
-1717.488000305233
30
6.000006035563
11
2822.945912550489
21
-1721.198716552872
31
6.000005840902
0
LINE
8
0
10
3128.528271900804
20
-1330.374356662229
30
6.000009527309
11
3128.862012135174
21
-1330.809293185669
31
6.000009513202
0
LINE
8
0
10
2862.165593372971
20
-1330.374356659479
30
6.000013494847
11
2862.375378834402
21
-1329.867886932919
31
6.000013502361
0
LINE
8
0
10
3132.446942555112
20
-1329.324368869301
30
6.000009490994
11
3132.375378834414
21
-1328.780850802894
31
6.000009503477
0
LINE
8
0
10
2861.396939503333
20
-1331.143033417284
30
6.00001349015
11
2861.831860767985
21
-1330.809293182914
31
6.000013490682
0
LINE
8
0
10
2783.561150020319
20
-1166.910161487279
30
6.000021646869
11
2783.733643140096
21
-1167.106852191646
31
6.000021642095
0
LINE
8
0
10
2783.733643140096
20
-1167.106852191646
30
6.000021642095
11
2783.878987268817
21
-1167.324375049673
31
6.000021637564
0
LINE
8
0
10
2860.346936451616
20
-1327.224362762976
30
6.000013588104
11
2859.803418385209
21
-1327.295926483674
31
6.000013594695
0
LINE
8
0
10
2861.831860767985
20
-1330.809293182914
30
6.000013490682
11
2862.165593372971
21
-1330.374356659479
31
6.000013494847
0
LINE
8
0
10
2782.912303319221
20
-1166.476615984587
30
6.000021661814
11
2783.146936455413
21
-1166.592324242056
31
6.000021656813
0
LINE
8
0
10
3131.396924244546
20
-1331.143033420072
30
6.000009468434
11
3131.831860767987
21
-1330.809293185701
31
6.000009468966
0
LINE
8
0
10
3130.890454517981
20
-1331.352811252096
30
6.00000947157
11
3131.396924244546
21
-1331.143033420072
31
6.000009468434
0
LINE
8
0
10
2861.396939503371
20
-1327.505704315721
30
6.000013566552
11
2860.890454518022
21
-1327.295926483685
31
6.000013578503
0
LINE
8
0
10
2782.407988837854
20
-1166.341485326829
30
6.000021671447
11
2782.664574544026
21
-1166.392523397015
31
6.000021666719
0
LINE
8
0
10
3128.318494068777
20
-1329.867886935663
30
6.000009541072
11
3128.528271900804
21
-1330.374356662229
31
6.000009527309
0
LINE
8
0
10
2861.831860768016
20
-1327.839444550101
30
6.000013553065
11
2861.396939503371
21
-1327.505704315721
31
6.000013566552
0
LINE
8
0
10
2859.296933399855
20
-1327.5057043157
30
6.000013597833
11
2858.862012135204
21
-1327.83944455007
31
6.000013597301
0
LINE
8
0
10
3122.846936451565
20
-1332.324368869202
30
6.000009570973
11
3110.346936451565
21
-1332.324368869072
31
6.000009757164
0
LINE
8
0
10
2783.878987268817
20
-1167.324375049673
30
6.000021637564
11
2783.994695528141
21
-1167.55900818495
31
6.000021633354
0
LINE
8
0
10
2784.078788117671
20
-1167.806736959482
30
6.000021629532
11
2784.129826189886
21
-1168.06332266525
31
6.000021626171
0
LINE
8
0
10
2782.664574544026
20
-1166.392523397015
30
6.000021666719
11
2782.912303319221
21
-1166.476615984587
31
6.000021661814
0
LINE
8
0
10
2859.803418385209
20
-1327.295926483674
30
6.000013594695
11
2859.296933399855
21
-1327.5057043157
31
6.000013597833
0
LINE
8
0
10
3137.846936451565
20
-1332.324368869356
30
6.000009347544
11
3137.846936451627
21
-1326.324368869356
31
6.000009473575
0
LINE
8
0
10
2775.581567207152
20
-1166.47661598372
30
6.000021781851
11
2775.829295980426
21
-1166.392523392476
31
6.000021778688
0
LINE
8
0
10
2775.829295980426
20
-1166.392523392476
30
6.000021778688
11
2776.085881685431
21
-1166.341485318488
31
6.000021775192
0
LINE
8
0
10
3130.890454518023
20
-1327.295926486471
30
6.000009556785
11
3130.346936451621
21
-1327.224362765764
31
6.000009566385
0
LINE
8
0
10
2783.146936455413
20
-1166.592324242056
30
6.000021656813
11
2783.364459314588
21
-1166.737668369056
31
6.000021651804
0
LINE
8
0
10
3129.803418385211
20
-1327.295926486461
30
6.000009572977
11
3129.296948658647
21
-1327.505704318486
31
6.000009576116
0
LINE
8
0
10
3150.346936451627
20
-1326.324368869485
30
6.000009287384
11
3150.346936451565
21
-1332.324368869485
31
6.000009161354
0
LINE
8
0
10
2784.146936469218
20
-1168.32437504969
30
6.000021623323
11
2784.146936572839
21
-1181.32437504969
31
6.000021495558
0
LINE
8
0
10
3137.846936451627
20
-1326.324368869356
30
6.000009473575
11
3150.346936451627
21
-1326.324368869485
31
6.000009287384
0
LINE
8
0
10
2784.129826189886
20
-1168.06332266525
30
6.000021626171
11
2784.146936469218
21
-1168.32437504969
31
6.000021623323
0
LINE
8
0
10
3132.375378834414
20
-1328.780850802894
30
6.000009503477
11
3132.165601002388
21
-1328.274381076329
31
6.00000951724
0
LINE
8
0
10
3128.862012135205
20
-1327.839444552856
30
6.000009575583
11
3128.528271900826
21
-1328.274381076291
31
6.000009571419
0
LINE
8
0
10
3129.803418385169
20
-1331.352811252086
30
6.000009487762
11
3130.346936451574
21
-1331.424374972795
31
6.000009478163
0
LINE
8
0
10
3128.862012135174
20
-1330.809293185669
30
6.000009513202
11
3129.296948658608
21
-1331.143033420048
31
6.000009499713
0
LINE
8
0
10
3130.346936451574
20
-1331.424374972795
30
6.000009478163
11
3130.890454517981
21
-1331.352811252096
31
6.00000947157
0
LINE
8
0
10
2852.846936451625
20
-1326.324368866415
30
6.000013718721
11
2852.846936451564
21
-1332.324368866415
31
6.000013592692
0
LINE
8
0
10
3128.318494068789
20
-1328.780850802851
30
6.000009563904
11
3128.246930348081
21
-1329.324368869256
31
6.000009553554
0
LINE
8
0
10
2783.994695528141
20
-1167.55900818495
30
6.000021633354
11
2784.078788117671
21
-1167.806736959482
31
6.000021629532
0
LINE
8
0
10
3131.396924244584
20
-1327.505704318509
30
6.000009544836
11
3130.890454518023
21
-1327.295926486471
31
6.000009556785
0
LINE
8
0
10
3128.528271900826
20
-1328.274381076291
30
6.000009571419
11
3128.318494068789
21
-1328.780850802851
31
6.000009563904
0
LINE
8
0
10
2782.407988837854
20
-1166.341485326829
30
6.000021671447
11
2782.146936453277
21
-1166.324375049559
31
6.000021675914
0
LINE
8
0
10
2840.346936451625
20
-1326.324368866284
30
6.00001390491
11
2852.846936451625
21
-1326.324368866415
31
6.000013718721
0
LINE
8
0
10
3150.346936451565
20
-1332.324368869485
30
6.000009161354
11
3137.846936451565
21
-1332.324368869356
31
6.000009347544
0
LINE
8
0
10
3132.165601002367
20
-1330.374356662267
30
6.00000947313
11
3132.375378834402
21
-1329.867886935707
31
6.000009480644
0
LINE
8
0
10
3132.165601002388
20
-1328.274381076329
30
6.00000951724
11
3131.831860768017
21
-1327.839444552888
31
6.000009531346
0
LINE
8
0
10
3131.831860768017
20
-1327.839444552888
30
6.000009531346
11
3131.396924244584
21
-1327.505704318509
31
6.000009544836
0
LINE
8
0
10
2862.375378834402
20
-1329.867886932919
30
6.000013502361
11
2862.446934925716
21
-1329.324368866514
31
6.000013512712
0
LINE
8
0
10
2860.890454518022
20
-1327.295926483685
30
6.000013578503
11
2860.346936451616
21
-1327.224362762976
31
6.000013588104
0
LINE
8
0
10
2840.346936451564
20
-1332.324368866285
30
6.000013778882
11
2840.346936451625
21
-1326.324368866284
31
6.00001390491
0
LINE
8
0
10
2862.165593372992
20
-1328.274381073542
30
6.000013538958
11
2861.831860768016
21
-1327.839444550101
31
6.000013553065
0
LINE
8
0
10
2782.146936453277
20
-1166.324375049559
30
6.000021675914
11
2776.346934069617
21
-1166.324375037352
31
6.000021771423
0
LINE
8
0
10
2858.862012135204
20
-1327.83944455007
30
6.000013597301
11
2858.528279530219
21
-1328.274381073504
31
6.000013593136
0
LINE
8
0
10
3110.346936451565
20
-1332.324368869072
30
6.000009757164
11
3110.346936451626
21
-1326.324368869072
31
6.000009883194
0
LINE
8
0
10
3110.346936451626
20
-1326.324368869072
30
6.000009883194
11
3122.846936451626
21
-1326.324368869201
31
6.000009697003
0
LINE
8
0
10
2862.375378834412
20
-1328.780850800107
30
6.000013525193
11
2862.165593372992
21
-1328.274381073542
31
6.000013538958
0
LINE
8
0
10
3129.296948658608
20
-1331.143033420048
30
6.000009499713
11
3129.803418385169
21
-1331.352811252086
31
6.000009487762
0
LINE
8
0
10
3130.346936451621
20
-1327.224362765764
30
6.000009566385
11
3129.803418385211
21
-1327.295926486461
31
6.000009572977
0
LINE
8
0
10
3132.375378834402
20
-1329.867886935707
30
6.000009480644
11
3132.446942555112
21
-1329.324368869301
31
6.000009490994
0
LINE
8
0
10
3129.296948658647
20
-1327.505704318486
30
6.000009576116
11
3128.862012135205
21
-1327.839444552856
31
6.000009575583
0
LINE
8
0
10
3128.246930348081
20
-1329.324368869256
30
6.000009553554
11
3128.318494068777
21
-1329.867886935663
31
6.000009541072
0
LINE
8
0
10
2783.364459314588
20
-1166.737668369056
30
6.000021651804
11
2783.561150020319
21
-1166.910161487279
31
6.000021646869
0
LINE
8
0
10
3131.831860767987
20
-1330.809293185701
30
6.000009468966
11
3132.165601002367
21
-1330.374356662267
31
6.00000947313
0
LINE
8
0
10
2862.446934925716
20
-1329.324368866514
30
6.000013512712
11
2862.375378834412
21
-1328.780850800107
31
6.000013525193
0
LINE
8
0
10
2867.846936451563
20
-1332.324368866569
30
6.000013369263
11
2867.846936451626
21
-1326.324368866568
31
6.000013495292
0
LINE
8
0
10
3122.846936451626
20
-1326.324368869201
30
6.000009697003
11
3122.846936451565
21
-1332.324368869202
31
6.000009570973
0
LINE
8
0
10
2867.846936451626
20
-1326.324368866568
30
6.000013495292
11
2880.346936451625
21
-1326.324368866699
31
6.000013309101
0
LINE
8
0
10
2880.346936451625
20
-1326.324368866699
30
6.000013309101
11
2880.346936451563
21
-1332.324368866699
31
6.000013183073
0
LINE
8
0
10
2880.346936451563
20
-1332.324368866699
30
6.000013183073
11
2867.846936451563
21
-1332.324368866569
31
6.000013369263
0
LINE
8
0
10
3150.346936458877
20
-1662.039793264436
30
6.000011553241
11
3137.846936458887
21
-1662.039793264307
31
6.000011739431
0
LINE
8
0
10
3122.846936458886
20
-1662.039793673941
30
6.000011962857
11
3110.346936458886
21
-1662.039793673812
31
6.000012149048
0
LINE
8
0
10
2846.347093049515
20
-1215.323475082331
30
5.99958670079
11
2840.347009806851
21
-1215.323475082272
31
5.999751475354
0
LINE
8
0
10
2846.347093049644
20
-1202.823509074027
30
5.999586963354
11
2846.347093049515
21
-1215.323475082331
31
5.99958670079
0
LINE
8
0
10
2846.346926121358
20
-1187.823548340981
30
6.000040224357
11
2840.347010484875
21
-1187.823548340919
31
6.000039977493
0
LINE
8
0
10
2846.346926121487
20
-1175.323514380048
30
6.000040486921
11
2846.346926121358
21
-1187.823548340981
31
6.000040224357
0
LINE
8
0
10
2858.862012135173
20
-1330.809293182883
30
6.000013534918
11
2859.296933399818
21
-1331.143033417262
31
6.00001352143
0
LINE
8
0
10
2859.803418385167
20
-1331.352811249299
30
6.00001350948
11
2860.346936451573
21
-1331.424374970007
31
6.00001349988
0
LINE
8
0
10
2840.346936458824
20
-1668.039797880686
30
6.000016089387
11
2852.846936458824
21
-1668.039797880815
31
6.000015858512
0
LINE
8
0
10
2910.346937111501
20
-1681.373130059893
30
6.000005278078
11
2916.346936912727
21
-1681.373130059955
31
6.000005188707
0
LINE
8
0
10
2840.346936458886
20
-1662.039797694417
30
6.000016170735
11
2840.346936458824
21
-1668.039797880686
31
6.000016089387
0
LINE
8
0
10
2840.347009806851
20
-1215.323475082272
30
5.999751475354
11
2840.347009806977
21
-1202.823509073966
31
5.999587072745
0
LINE
8
0
10
2840.347009806977
20
-1202.823509073966
30
5.999587072745
11
2846.347093049644
21
-1202.823509074027
31
5.999586963354
0
LINE
8
0
10
2858.318494068788
20
-1328.780850800065
30
6.000013585622
11
2858.246937977473
21
-1329.32436886647
31
6.000013575272
0
LINE
8
0
10
2858.528279530197
20
-1330.374356659442
30
6.000013549026
11
2858.862012135173
21
-1330.809293182883
31
6.000013534918
0
LINE
8
0
10
2858.318494068776
20
-1329.867886932877
30
6.00001356279
11
2858.528279530197
21
-1330.374356659442
31
6.000013549026
0
LINE
8
0
10
3122.846936458825
20
-1668.03979386021
30
6.000011836825
11
3122.846936458886
21
-1662.039793673941
31
6.000011962857
0
LINE
8
0
10
2880.346936458875
20
-1662.039797285042
30
6.000015574928
11
2867.846936458885
21
-1662.039797284913
31
6.000015761119
0
LINE
8
0
10
2852.846936458886
20
-1662.039797694547
30
6.000015984544
11
2840.346936458886
21
-1662.039797694417
31
6.000016170735
0
LINE
8
0
10
2910.346937111364
20
-1694.706463482635
30
6.000005196613
11
2910.346937111501
21
-1681.373130059893
31
6.000005278078
0
LINE
8
0
10
3110.346936458886
20
-1662.039793673812
30
6.000012149048
11
3110.346936458825
21
-1668.039793860081
31
6.000012067698
0
LINE
8
0
10
2860.346936451573
20
-1331.424374970007
30
6.00001349988
11
2860.89045451798
21
-1331.35281124931
31
6.000013493288
0
LINE
8
0
10
2880.346936458813
20
-1668.03979747131
30
6.000015448895
11
2880.346936458875
21
-1662.039797285042
31
6.000015574928
0
LINE
8
0
10
3080.346956412254
20
-1681.373127617659
30
6.000021795365
11
3080.346956412116
21
-1694.706461040401
31
6.000021515297
0
LINE
8
0
10
2859.296933399818
20
-1331.143033417262
30
6.00001352143
11
2859.803418385167
21
-1331.352811249299
31
6.00001350948
0
LINE
8
0
10
2858.246937977473
20
-1329.32436886647
30
6.000013575272
11
2858.318494068776
21
-1329.867886932877
31
6.00001356279
0
LINE
8
0
10
3080.346956412116
20
-1694.706461040401
30
6.000021515297
11
3074.346956610889
21
-1694.706461040339
31
6.000021803271
0
LINE
8
0
10
2916.346936912727
20
-1681.373130059955
30
6.000005188707
11
2916.34693691259
21
-1694.706463482697
31
6.000004908638
0
LINE
8
0
10
2852.846936458824
20
-1668.039797880815
30
6.000015858512
11
2852.846936458886
21
-1662.039797694547
31
6.000015984544
0
LINE
8
0
10
3110.346936458825
20
-1668.039793860081
30
6.000012067698
11
3122.846936458825
21
-1668.03979386021
31
6.000011836825
0
LINE
8
0
10
2840.347010484875
20
-1187.823548340919
30
6.000039977493
11
2840.347010485004
21
-1175.323514379986
31
6.00004059631
0
LINE
8
0
10
2840.347010485004
20
-1175.323514379986
30
6.00004059631
11
2846.346926121487
21
-1175.323514380048
31
6.000040486921
0
LINE
8
0
10
2916.34693691259
20
-1694.706463482697
30
6.000004908638
11
2910.346937111364
21
-1694.706463482635
31
6.000005196613
0
LINE
8
0
10
3150.346936458815
20
-1668.039793450704
30
6.000011427209
11
3150.346936458877
21
-1662.039793264436
31
6.000011553241
0
LINE
8
0
10
3100.346947592237
20
-1187.823546728563
30
5.999748767734
11
3094.346947952662
21
-1187.823546728501
31
5.999755250492
0
LINE
8
0
10
3074.346956611028
20
-1681.373127617597
30
6.000021884736
11
3080.346956412254
21
-1681.373127617659
31
6.000021795365
0
LINE
8
0
10
3137.846936458887
20
-1662.039793264307
30
6.000011739431
11
3137.846936458825
21
-1668.039793450576
31
6.000011658082
0
LINE
8
0
10
2858.528279530219
20
-1328.274381073504
30
6.000013593136
11
2858.318494068788
21
-1328.780850800065
31
6.000013585622
0
LINE
8
0
10
2867.846936458823
20
-1668.039797471181
30
6.000015679768
11
2880.346936458813
21
-1668.03979747131
31
6.000015448895
0
LINE
8
0
10
3094.346947952791
20
-1175.323512767567
30
5.999749139688
11
3100.346947592367
21
-1175.323512767629
31
5.999749030299
0
LINE
8
0
10
3094.346947952662
20
-1187.823546728501
30
5.999755250492
11
3094.346947952791
21
-1175.323512767567
31
5.999749139688
0
LINE
8
0
10
2867.846936458885
20
-1662.039797284913
30
6.000015761119
11
2867.846936458823
21
-1668.039797471181
31
6.000015679768
0
LINE
8
0
10
3137.846936458825
20
-1668.039793450576
30
6.000011658082
11
3150.346936458815
21
-1668.039793450704
31
6.000011427209
0
LINE
8
0
10
2860.89045451798
20
-1331.35281124931
30
6.000013493288
11
2861.396939503333
21
-1331.143033417284
31
6.00001349015
0
LINE
8
0
10
3100.346947592367
20
-1175.323512767629
30
5.999749030299
11
3100.346947592237
21
-1187.823546728563
31
5.999748767734
0
LINE
8
0
10
3074.346956610889
20
-1694.706461040339
30
6.000021803271
11
3074.346956611028
21
-1681.373127617597
31
6.000021884736
0
LINE
8
0
10
3100.346985670557
20
-1215.323494795631
30
6.000000512513
11
3094.346986623023
21
-1215.323494795571
31
6.000083150097
0
LINE
8
0
10
3094.346986623023
20
-1215.323494795571
30
6.000083150097
11
3094.34698662315
21
-1202.823528787264
31
6.000000884467
0
LINE
8
0
10
3094.34698662315
20
-1202.823528787264
30
6.000000884467
11
3100.346985670686
21
-1202.823528787326
31
6.000000775077
0
LINE
8
0
10
3100.346985670686
20
-1202.823528787326
30
6.000000775077
11
3100.346985670557
21
-1215.323494795631
31
6.000000512513
0
ENDSEC
0
EOF
