0
SECTION
2
ENTITIES
0
LINE
8
0
10
3739.150133835603
20
-542.414333790023
30
6.000020419568
11
3738.816404821372
21
-542.849257925529
31
6.000020445683
0
LINE
8
0
10
3738.816404821372
20
-542.849257925529
30
6.000020445683
11
3738.606613996989
21
-543.355737805277
31
6.000020473086
0
LINE
8
0
10
3738.606613996989
20
-543.355737805277
30
6.000020473086
11
3738.535058260439
21
-543.899257662459
31
6.000020499909
0
LINE
8
0
10
3738.535058260439
20
-543.899257662459
30
6.000020499909
11
3738.606614016915
21
-544.442777517018
31
6.000020524324
0
LINE
8
0
10
3738.606614016915
20
-544.442777517018
30
6.000020524324
11
3738.816404859867
21
-544.949257389075
31
6.000020544667
0
LINE
8
0
10
3738.816404859867
20
-544.949257389075
30
6.000020544667
11
3739.150133890043
21
-545.384181512346
31
6.000020559552
0
LINE
8
0
10
3739.150133890043
20
-545.384181512346
30
6.000020559552
11
3739.585058025549
21
-545.717910526577
31
6.000020567964
0
LINE
8
0
10
3739.585058025549
20
-545.717910526577
30
6.000020567964
11
3740.091537905297
21
-545.92770135096
31
6.000020569331
0
LINE
8
0
10
3740.091537905297
20
-545.92770135096
30
6.000020569331
11
3740.635057762479
21
-545.999257087511
31
6.000020563558
0
LINE
8
0
10
3740.635057762479
20
-545.999257087511
30
6.000020563558
11
3741.178577617038
21
-545.927701331034
31
6.00002055104
0
LINE
8
0
10
3741.178577617038
20
-545.927701331034
30
6.00002055104
11
3741.685057489095
21
-545.717910488082
31
6.00002053263
0
LINE
8
0
10
3741.685057489095
20
-545.717910488082
30
6.00002053263
11
3742.119981612365
21
-545.384181457906
31
6.000020509581
0
LINE
8
0
10
3742.119981612365
20
-545.384181457906
30
6.000020509581
11
3742.453710626597
21
-544.9492573224
31
6.000020483466
0
LINE
8
0
10
3742.453710626597
20
-544.9492573224
30
6.000020483466
11
3742.66350145098
21
-544.442777442652
31
6.000020456063
0
LINE
8
0
10
3742.66350145098
20
-544.442777442652
30
6.000020456063
11
3742.735057187531
21
-543.89925758547
31
6.00002042924
0
LINE
8
0
10
3742.735057187531
20
-543.89925758547
30
6.00002042924
11
3742.663501431054
21
-543.355737730911
31
6.000020404825
0
LINE
8
0
10
3742.663501431054
20
-543.355737730911
30
6.000020404825
11
3742.453710588102
21
-542.849257858854
31
6.000020384482
0
LINE
8
0
10
3742.453710588102
20
-542.849257858854
30
6.000020384482
11
3742.119981557927
21
-542.414333735583
31
6.000020369597
0
LINE
8
0
10
3742.119981557927
20
-542.414333735583
30
6.000020369597
11
3741.685057422421
21
-542.080604721353
31
6.000020361185
0
LINE
8
0
10
3741.685057422421
20
-542.080604721353
30
6.000020361185
11
3741.178577542672
21
-541.870813896969
31
6.000020359818
0
LINE
8
0
10
3741.178577542672
20
-541.870813896969
30
6.000020359818
11
3740.63505768549
21
-541.799258160419
31
6.000020365591
0
LINE
8
0
10
3740.63505768549
20
-541.799258160419
30
6.000020365591
11
3740.091537830931
21
-541.870813916895
31
6.000020378109
0
LINE
8
0
10
3740.091537830931
20
-541.870813916895
30
6.000020378109
11
3739.585057958876
21
-542.080604759847
31
6.000020396519
0
LINE
8
0
10
3739.585057958876
20
-542.080604759847
30
6.000020396519
11
3739.150133835603
21
-542.414333790023
31
6.000020419568
0
LINE
8
0
10
3742.928449144841
20
-836.242655996868
30
6.001215227355
11
3743.000004881392
21
-835.699136139685
31
6.001215200533
0
LINE
8
0
10
3743.000004881392
20
-835.699136139685
30
6.001215200533
11
3742.928449124915
21
-835.155616285126
31
6.001215176118
0
LINE
8
0
10
3742.928449124915
20
-835.155616285126
30
6.001215176118
11
3742.718658281964
21
-834.64913641307
31
6.001215155775
0
LINE
8
0
10
3742.718658281964
20
-834.64913641307
30
6.001215155775
11
3742.384929251788
21
-834.214212289799
31
6.00121514089
0
LINE
8
0
10
3742.384929251788
20
-834.214212289799
30
6.00121514089
11
3741.950005116283
21
-833.880483275568
31
6.001215132477
0
LINE
8
0
10
3741.950005116283
20
-833.880483275568
30
6.001215132477
11
3741.443525236533
21
-833.670692451185
31
6.001215131111
0
LINE
8
0
10
3741.443525236533
20
-833.670692451185
30
6.001215131111
11
3740.900005379352
21
-833.599136714634
31
6.001215136883
0
LINE
8
0
10
3740.900005379352
20
-833.599136714634
30
6.001215136883
11
3740.356485524792
21
-833.670692471111
31
6.001215149401
0
LINE
8
0
10
3740.356485524792
20
-833.670692471111
30
6.001215149401
11
3739.850005652737
21
-833.880483314063
31
6.001215167812
0
LINE
8
0
10
3739.850005652737
20
-833.880483314063
30
6.001215167812
11
3739.415081529465
21
-834.214212344239
31
6.00121519086
0
LINE
8
0
10
3739.415081529465
20
-834.214212344239
30
6.00121519086
11
3739.081352515234
21
-834.649136479745
31
6.001215216976
0
LINE
8
0
10
3739.081352515234
20
-834.649136479745
30
6.001215216976
11
3738.871561690851
21
-835.155616359493
31
6.001215244379
0
LINE
8
0
10
3738.871561690851
20
-835.155616359493
30
6.001215244379
11
3738.8000059543
21
-835.699136216675
31
6.001215271202
0
LINE
8
0
10
3738.8000059543
20
-835.699136216675
30
6.001215271202
11
3738.871561710777
21
-836.242656071234
31
6.001215295616
0
LINE
8
0
10
3738.871561710777
20
-836.242656071234
30
6.001215295616
11
3739.081352553728
21
-836.749135943291
31
6.001215315959
0
LINE
8
0
10
3739.081352553728
20
-836.749135943291
30
6.001215315959
11
3739.415081583905
21
-837.184060066562
31
6.001215330844
0
LINE
8
0
10
3739.415081583905
20
-837.184060066562
30
6.001215330844
11
3739.850005719411
21
-837.517789080792
31
6.001215339257
0
LINE
8
0
10
3739.850005719411
20
-837.517789080792
30
6.001215339257
11
3740.356485599159
21
-837.727579905176
31
6.001215340623
0
LINE
8
0
10
3740.356485599159
20
-837.727579905176
30
6.001215340623
11
3740.900005456341
21
-837.799135641726
31
6.001215334851
0
LINE
8
0
10
3740.900005456341
20
-837.799135641726
30
6.001215334851
11
3741.4435253109
21
-837.727579885249
31
6.001215322333
0
LINE
8
0
10
3741.4435253109
20
-837.727579885249
30
6.001215322333
11
3741.950005182957
21
-837.517789042297
31
6.001215303922
0
LINE
8
0
10
3741.950005182957
20
-837.517789042297
30
6.001215303922
11
3742.384929306228
21
-837.184060012122
31
6.001215280874
0
LINE
8
0
10
3742.384929306228
20
-837.184060012122
30
6.001215280874
11
3742.718658320458
21
-836.749135876616
31
6.001215254758
0
LINE
8
0
10
3742.718658320458
20
-836.749135876616
30
6.001215254758
11
3742.928449144841
21
-836.242655996868
31
6.001215227355
0
LINE
8
0
10
3737.435898866745
20
-449.200001189649
30
6.000016761367
11
3737.03629715952
21
-448.235277377186
31
6.00001671691
0
LINE
8
0
10
3737.03629715952
20
-448.235277377186
30
6.00001671691
11
3736.900000446213
21
-447.200001199208
31
6.000016661787
0
LINE
8
0
10
3736.900000446213
20
-447.200001199208
30
6.000016661787
11
3737.03629712259
21
-446.164725016366
31
6.000016599754
0
LINE
8
0
10
3737.03629712259
20
-446.164725016366
30
6.000016599754
11
3737.435898795401
21
-445.200001189649
31
6.000016535039
0
LINE
8
0
10
3737.435898795401
20
-445.200001189649
30
6.000016535039
11
3738.071573271018
21
-444.371574053565
31
6.000016472052
0
LINE
8
0
10
3738.071573271018
20
-444.371574053565
30
6.000016472052
11
3738.900000384428
21
-443.735899548399
31
6.000016415085
0
LINE
8
0
10
3738.900000384428
20
-443.735899548399
30
6.000016415085
11
3739.864724196889
21
-443.336297841174
31
6.000016368021
0
LINE
8
0
10
3739.864724196889
20
-443.336297841174
30
6.000016368021
11
3740.900000374869
21
-443.200001127865
31
6.000016334067
0
LINE
8
0
10
3740.900000374869
20
-443.200001127865
30
6.000016334067
11
3741.935276557709
21
-443.336297804243
31
6.000016315538
0
LINE
8
0
10
3741.935276557709
20
-443.336297804243
30
6.000016315538
11
3742.900000384428
21
-443.735899477056
31
6.000016313694
0
LINE
8
0
10
3742.900000384428
20
-443.735899477056
30
6.000016313694
11
3743.72842752051
21
-444.371573952671
31
6.000016328664
0
LINE
8
0
10
3743.72842752051
20
-444.371573952671
30
6.000016328664
11
3744.364102025677
21
-445.20000106608
31
6.000016359425
0
LINE
8
0
10
3744.364102025677
20
-445.20000106608
30
6.000016359425
11
3744.763703732902
21
-446.164724878543
31
6.000016403882
0
LINE
8
0
10
3744.763703732902
20
-446.164724878543
30
6.000016403882
11
3744.900000446213
21
-447.200001056522
31
6.000016459005
0
LINE
8
0
10
3744.900000446213
20
-447.200001056522
30
6.000016459005
11
3744.763703769832
21
-448.235277239363
31
6.000016521038
0
LINE
8
0
10
3744.763703769832
20
-448.235277239363
30
6.000016521038
11
3744.36410209702
21
-449.20000106608
31
6.000016585754
0
LINE
8
0
10
3744.36410209702
20
-449.20000106608
30
6.000016585754
11
3743.728427621404
21
-450.028428202164
31
6.000016648741
0
LINE
8
0
10
3743.728427621404
20
-450.028428202164
30
6.000016648741
11
3742.900000507997
21
-450.664102707331
31
6.000016705707
0
LINE
8
0
10
3742.900000507997
20
-450.664102707331
30
6.000016705707
11
3741.935276695534
21
-451.063704414556
31
6.000016752771
0
LINE
8
0
10
3741.935276695534
20
-451.063704414556
30
6.000016752771
11
3740.900000517555
21
-451.200001127864
31
6.000016786725
0
LINE
8
0
10
3740.900000517555
20
-451.200001127864
30
6.000016786725
11
3739.864724334715
21
-451.063704451486
31
6.000016805255
0
LINE
8
0
10
3739.864724334715
20
-451.063704451486
30
6.000016805255
11
3738.900000507997
21
-450.664102778674
31
6.000016807098
0
LINE
8
0
10
3738.900000507997
20
-450.664102778674
30
6.000016807098
11
3738.071573371912
21
-450.028428303058
31
6.000016792129
0
LINE
8
0
10
3738.071573371912
20
-450.028428303058
30
6.000016792129
11
3737.435898866745
21
-449.200001189649
31
6.000016761367
0
LINE
8
0
10
4037.581384214488
20
-899.149145782634
30
6.000067358751
11
4037.371593336285
21
-899.655625791616
31
6.000067398381
0
LINE
8
0
10
4037.371593336285
20
-899.655625791616
30
6.000067398381
11
4037.300037581194
21
-900.19914578756
31
6.000067437152
0
LINE
8
0
10
4037.300037581194
20
-900.19914578756
30
6.000067437152
11
4037.371593355677
21
-900.74266578095
31
6.000067472423
0
LINE
8
0
10
4037.371593355677
20
-900.74266578095
30
6.000067472423
11
4037.581384251954
21
-901.249145782447
31
6.00006750179
0
LINE
8
0
10
4037.581384251954
20
-901.249145782447
30
6.00006750179
11
4037.91511336714
21
-901.684070016946
31
6.000067523252
0
LINE
8
0
10
4037.91511336714
20
-901.684070016946
30
6.000067523252
11
4038.350037613546
21
-902.017799116612
31
6.000067535345
0
LINE
8
0
10
4038.350037613546
20
-902.017799116612
30
6.000067535345
11
4038.85651762253
21
-902.227589994817
31
6.000067537247
0
LINE
8
0
10
4038.85651762253
20
-902.227589994817
30
6.000067537247
11
4039.400037618472
21
-902.299145749907
31
6.000067528827
0
LINE
8
0
10
4039.400037618472
20
-902.299145749907
30
6.000067528827
11
4039.943557611863
21
-902.227589975423
31
6.000067510658
0
LINE
8
0
10
4039.943557611863
20
-902.227589975423
30
6.000067510658
11
4040.450037613358
21
-902.017799079147
31
6.000067483981
0
LINE
8
0
10
4040.450037613358
20
-902.017799079147
30
6.000067483981
11
4040.88496184786
21
-901.684069963961
31
6.000067450611
0
LINE
8
0
10
4040.88496184786
20
-901.684069963961
30
6.000067450611
11
4041.218690947524
21
-901.249145717554
31
6.000067412824
0
LINE
8
0
10
4041.218690947524
20
-901.249145717554
30
6.000067412824
11
4041.428481825729
21
-900.742665708572
31
6.000067373194
0
LINE
8
0
10
4041.428481825729
20
-900.742665708572
30
6.000067373194
11
4041.500037580819
21
-900.199145712628
31
6.000067334423
0
LINE
8
0
10
4041.500037580819
20
-900.199145712628
30
6.000067334423
11
4041.428481806337
21
-899.655625719238
31
6.000067299152
0
LINE
8
0
10
4041.428481806337
20
-899.655625719238
30
6.000067299152
11
4041.218690910059
21
-899.149145717741
31
6.000067269785
0
LINE
8
0
10
4041.218690910059
20
-899.149145717741
30
6.000067269785
11
4040.884961794873
21
-898.714221483243
31
6.000067248324
0
LINE
8
0
10
4040.884961794873
20
-898.714221483243
30
6.000067248324
11
4040.450037548467
21
-898.380492383576
31
6.00006723623
0
LINE
8
0
10
4040.450037548467
20
-898.380492383576
30
6.00006723623
11
4039.943557539484
21
-898.170701505371
31
6.000067234328
0
LINE
8
0
10
4039.943557539484
20
-898.170701505371
30
6.000067234328
11
4039.400037543542
21
-898.099145750281
31
6.000067242749
0
LINE
8
0
10
4039.400037543542
20
-898.099145750281
30
6.000067242749
11
4038.856517550151
21
-898.170701524765
31
6.000067260917
0
LINE
8
0
10
4038.856517550151
20
-898.170701524765
30
6.000067260917
11
4038.350037548655
21
-898.380492421042
31
6.000067287595
0
LINE
8
0
10
4038.350037548655
20
-898.380492421042
30
6.000067287595
11
4037.915113314154
21
-898.714221536227
31
6.000067320964
0
LINE
8
0
10
4037.915113314154
20
-898.714221536227
30
6.000067320964
11
4037.581384214488
21
-899.149145782634
31
6.000067358751
0
LINE
8
0
10
3837.218693686496
20
-901.24914908689
30
6.001214650827
11
3837.42848451088
21
-900.742669207142
31
6.001214611198
0
LINE
8
0
10
3837.42848451088
20
-900.742669207142
30
6.001214611198
11
3837.50004024743
21
-900.19914934996
31
6.001214572427
0
LINE
8
0
10
3837.50004024743
20
-900.19914934996
30
6.001214572427
11
3837.428484490953
21
-899.6556294954
31
6.001214537156
0
LINE
8
0
10
3837.428484490953
20
-899.6556294954
30
6.001214537156
11
3837.218693648002
21
-899.149149623344
31
6.001214507789
0
LINE
8
0
10
3837.218693648002
20
-899.149149623344
30
6.001214507789
11
3836.884964617827
21
-898.714225500073
31
6.001214486327
0
LINE
8
0
10
3836.884964617827
20
-898.714225500073
30
6.001214486327
11
3836.450040482318
21
-898.380496485842
31
6.001214474234
0
LINE
8
0
10
3836.450040482318
20
-898.380496485842
30
6.001214474234
11
3835.943560602572
21
-898.170705661458
31
6.001214472332
0
LINE
8
0
10
3835.943560602572
20
-898.170705661458
30
6.001214472332
11
3835.400040745389
21
-898.099149924908
31
6.001214480752
0
LINE
8
0
10
3835.400040745389
20
-898.099149924908
30
6.001214480752
11
3834.856520890831
21
-898.170705681385
31
6.001214498921
0
LINE
8
0
10
3834.856520890831
20
-898.170705681385
30
6.001214498921
11
3834.350041018772
21
-898.380496524337
31
6.001214525598
0
LINE
8
0
10
3834.350041018772
20
-898.380496524337
30
6.001214525598
11
3833.915116895504
21
-898.714225554512
31
6.001214558968
0
LINE
8
0
10
3833.915116895504
20
-898.714225554512
30
6.001214558968
11
3833.581387881272
21
-899.149149690019
31
6.001214596755
0
LINE
8
0
10
3833.581387881272
20
-899.149149690019
30
6.001214596755
11
3833.371597056889
21
-899.655629569767
31
6.001214636385
0
LINE
8
0
10
3833.371597056889
20
-899.655629569767
30
6.001214636385
11
3833.300041320338
21
-900.199149426949
31
6.001214675156
0
LINE
8
0
10
3833.300041320338
20
-900.199149426949
30
6.001214675156
11
3833.371597076815
21
-900.742669281508
31
6.001214710427
0
LINE
8
0
10
3833.371597076815
20
-900.742669281508
30
6.001214710427
11
3833.581387919767
21
-901.249149153565
31
6.001214739794
0
LINE
8
0
10
3833.581387919767
20
-901.249149153565
30
6.001214739794
11
3833.915116949943
21
-901.684073276836
31
6.001214761255
0
LINE
8
0
10
3833.915116949943
20
-901.684073276836
30
6.001214761255
11
3834.350041085448
21
-902.017802291067
31
6.001214773349
0
LINE
8
0
10
3834.350041085448
20
-902.017802291067
30
6.001214773349
11
3834.856520965197
21
-902.22759311545
31
6.00121477525
0
LINE
8
0
10
3834.856520965197
20
-902.22759311545
30
6.00121477525
11
3835.400040822379
21
-902.299148852
31
6.00121476683
0
LINE
8
0
10
3835.400040822379
20
-902.299148852
30
6.00121476683
11
3835.943560676938
21
-902.227593095523
31
6.001214748662
0
LINE
8
0
10
3835.943560676938
20
-902.227593095523
30
6.001214748662
11
3836.450040548994
21
-902.017802252571
31
6.001214721984
0
LINE
8
0
10
3836.450040548994
20
-902.017802252571
30
6.001214721984
11
3836.884964672265
21
-901.684073222396
31
6.001214688614
0
LINE
8
0
10
3836.884964672265
20
-901.684073222396
30
6.001214688614
11
3837.218693686496
21
-901.24914908689
31
6.001214650827
0
LINE
8
0
10
3754.138948574581
20
-461.182890614481
30
6.000016223179
11
3753.882362867907
21
-461.131852548886
31
6.000016229163
0
LINE
8
0
10
4122.13205548591
20
-412.199999658465
30
6.000002753345
11
4121.814214902349
21
-411.785815093822
31
6.000002748963
0
LINE
8
0
10
3743.635066853085
20
-536.399241965302
30
5.998846948283
11
3737.635114142163
21
-536.399242072333
31
5.998912883993
0
LINE
8
0
10
3824.400001371709
20
-460.932050445914
30
6.000014245168
11
3824.165368238503
21
-461.047758707552
31
6.000014255861
0
LINE
8
0
10
3938.884930908433
20
-791.715078611011
30
6.000022242623
11
3938.450009637831
21
-791.381338384394
31
6.000022244926
0
LINE
8
0
10
3956.400006672035
20
-796.200002614964
30
6.000021831038
11
3944.900006672035
21
-796.200002820114
31
6.000022206121
0
LINE
8
0
10
3737.635036441031
20
-562.899257078313
30
5.998846500211
11
3737.635036235882
21
-551.399257078314
31
5.998844378657
0
LINE
8
0
10
3754.138948075702
20
-433.217111168985
30
6.000015554402
11
3753.882362370846
21
-433.26814924373
31
6.000015563976
0
LINE
8
0
10
3732.400002979355
20
-589.200006610908
30
6.00002176683
11
3732.400001625596
21
-860.199160152994
31
6.00003584089
0
LINE
8
0
10
3935.915077016676
20
-496.915090871022
30
6.000011843231
11
3935.58135204885
21
-497.350027400412
31
6.000011869601
0
LINE
8
0
10
3935.300000515003
20
-793.200002991367
30
6.00002241242
11
3935.371564245399
21
-793.743521056498
31
6.000022429438
0
LINE
8
0
10
3752.552241416837
20
-434.434634055308
30
6.000015634922
11
3752.468148833701
21
-434.682362831331
31
6.000015643518
0
LINE
8
0
10
3752.468149280304
20
-459.717639011742
30
6.000016235377
11
3752.417111205558
21
-459.461053306887
31
6.000016230744
0
LINE
8
0
10
4148.400004403195
20
-860.199152725705
30
6.000029383446
11
4148.400004623795
21
-900.199152717888
31
6.000032432417
0
LINE
8
0
10
3938.884925649489
20
-496.915090818041
30
6.000011746367
11
3938.450004378886
21
-496.581350591424
31
6.000011748667
0
LINE
8
0
10
3939.428443732689
20
-497.856497058345
30
6.000011762157
11
3939.218650632834
21
-497.350027335525
31
6.000011750966
0
LINE
8
0
10
4142.400002996714
20
-860.199152758795
30
6.000027584123
11
4148.400004403195
21
-860.199152725705
31
6.000029383446
0
LINE
8
0
10
3752.985786907913
20
-433.785787349931
30
6.000015605451
11
3752.813293793212
21
-433.982478057363
31
6.000015615723
0
LINE
8
0
10
4122.331854078501
20
-412.682421529902
30
6.000002764003
11
4122.13205548591
21
-412.199999658465
31
6.000002753345
0
LINE
8
0
10
3825.331853002622
20
-459.717637711924
30
6.000014175816
11
3825.247760419487
21
-459.96536648795
31
6.000014186994
0
LINE
8
0
10
3825.400000912675
20
-435.199999620503
30
6.000013300964
11
3825.382890630765
21
-434.938947236371
31
6.000013292227
0
LINE
8
0
10
3936.349998340257
20
-500.218679730451
30
6.000011946669
11
3936.856483329352
21
-500.428457553448
31
6.000011937618
0
LINE
8
0
10
3753.182478093936
20
-460.786707589376
30
6.000016240621
11
3752.985787386504
21
-460.614214474677
31
6.000016242056
0
LINE
8
0
10
4122.399999839686
20
-413.199999653685
30
6.000002780211
11
4122.331854078501
21
-412.682421529902
31
6.000002764003
0
LINE
8
0
10
3938.884930961413
20
-794.684927243824
30
6.000022348364
11
3939.21865592924
21
-794.249990714431
31
6.000022321993
0
LINE
8
0
10
3935.581352086312
20
-499.45000298635
30
6.00001194437
11
3935.915077069655
21
-499.884939503835
31
6.000011948972
0
LINE
8
0
10
3752.813294264787
20
-460.417523773399
30
6.000016242242
11
3752.667950133919
21
-460.200000917974
31
6.000016241174
0
LINE
8
0
10
3753.400000954548
20
-460.932051712482
30
6.000016237959
11
3753.182478093936
21
-460.786707589376
31
6.000016240621
0
LINE
8
0
10
4042.400062576427
20
-907.699145427529
30
6.000034957662
11
4042.400062799415
21
-920.199135225453
31
6.00003540272
0
LINE
8
0
10
3944.900006564999
20
-790.200002820114
30
6.000021992494
11
3956.400006564999
21
-790.200002614964
31
6.000021617411
0
LINE
8
0
10
3935.581357307796
20
-792.15001519338
30
6.000022365857
11
3935.371564226009
21
-792.656484923686
31
6.000022390734
0
LINE
8
0
10
4142.400000000238
20
-422.199999296904
30
6.000002448334
11
4142.400002265797
21
-549.199999296904
31
6.000006970129
0
LINE
8
0
10
3936.350003534315
20
-791.381338421857
30
6.00002231342
11
3935.915082275622
21
-791.71507866399
31
6.000022339489
0
LINE
8
0
10
3936.856488515925
20
-791.171560580789
30
6.000022289431
11
3936.350003534315
21
-791.381338421857
31
6.00002231342
0
LINE
8
0
10
3944.900006672035
20
-796.200002820114
30
6.000022206121
11
3944.900006564999
21
-790.200002820114
31
6.000021992494
0
LINE
8
0
10
3824.986708043113
20
-460.417522485895
30
6.000014210407
11
3824.814214928413
21
-460.614213193328
31
6.000014222244
0
LINE
8
0
10
3753.882362370846
20
-433.26814924373
30
6.000015563976
11
3753.634633597821
21
-433.352241835707
31
6.000015574043
0
LINE
8
0
10
3935.371564245399
20
-793.743521056498
30
6.000022429438
11
3935.581357345256
21
-794.249990779317
31
6.000022440628
0
LINE
8
0
10
3937.400001397033
20
-500.499990746877
30
6.000011922437
11
3937.943519462163
21
-500.428457534057
31
6.000011902164
0
LINE
8
0
10
3753.634633597821
20
-433.352241835707
30
6.000015574043
11
3753.400000464615
21
-433.467950097344
31
6.000015584431
0
LINE
8
0
10
3939.500012722033
20
-793.200002916443
30
6.000022275434
11
3939.428448991634
21
-792.656484851315
31
6.000022258415
0
LINE
8
0
10
3939.428449011025
20
-793.743520984127
30
6.000022297119
11
3939.500012722033
21
-793.200002916443
31
6.000022275434
0
LINE
8
0
10
4142.400004569666
20
-940.199153587082
30
6.000030385311
11
3732.400003608465
21
-940.19914731209
31
6.000042044237
0
LINE
8
0
10
3937.400006655978
20
-795.299978539843
30
6.000022418695
11
3937.94352472111
21
-795.228445327022
31
6.000022398421
0
LINE
8
0
10
3754.400000959326
20
-461.200000887076
30
6.000016216266
11
3823.400001376488
21
-461.199999656183
31
6.00001428273
0
LINE
8
0
10
3825.132052166218
20
-460.199999625284
30
6.00001419859
11
3824.986708043113
21
-460.417522485895
31
6.000014210407
0
LINE
8
0
10
3752.468148833701
20
-434.682362831331
30
6.000015643518
11
3752.41711076811
21
-434.938948538007
31
6.000015651246
0
LINE
8
0
10
3918.400006564998
20
-790.200003292847
30
6.000022856814
11
3929.900006564998
21
-790.200003087699
31
6.000022481732
0
LINE
8
0
10
3825.247759964042
20
-434.43463275849
30
6.000013278679
11
3825.331852556018
21
-434.682361531514
31
6.000013284756
0
LINE
8
0
10
4142.400003217313
20
-900.199152750979
30
6.000030633094
11
4148.400004623795
21
-900.199152717888
31
6.000032432417
0
LINE
8
0
10
3743.900014341798
20
-816.699120519517
30
6.000041551377
11
3743.900014546946
21
-828.199120519518
31
6.000041719576
0
LINE
8
0
10
3743.900014546946
20
-828.199120519518
30
6.000041719576
11
3737.900061836025
21
-828.199120626549
31
6.000107655286
0
LINE
8
0
10
3737.900061836025
20
-828.199120626549
30
6.000107655286
11
3737.900061630877
21
-816.699120672337
31
6.000044311301
0
LINE
8
0
10
3737.899984134892
20
-854.699135632529
30
6.000041271503
11
3737.899983929743
21
-843.19913563253
31
6.000039149949
0
LINE
8
0
10
3737.899983929743
20
-843.19913563253
30
6.000039149949
11
3743.900031088454
21
-843.199135525495
31
6.000039048993
0
LINE
8
0
10
3743.900031293604
20
-854.699135525495
30
6.000039217192
11
3737.899984134892
21
-854.699135632529
31
6.000041271503
0
LINE
8
0
10
3737.635114142163
20
-536.399242072333
30
5.998912883993
11
3737.635113937015
21
-524.899242118122
31
5.998849540009
0
LINE
8
0
10
3743.635066647937
20
-524.899241965302
30
5.998846780084
11
3743.635066853085
21
-536.399241965302
31
5.998846948283
0
LINE
8
0
10
3737.635036235882
20
-551.399257078314
30
5.998844378657
11
3743.635083394594
21
-551.399256971279
31
5.9988442777
0
LINE
8
0
10
3743.635083599743
20
-562.899256971279
30
5.998844445899
11
3737.635036441031
21
-562.899257078313
31
5.998846500211
0
LINE
8
0
10
4042.400047187959
20
-880.199119669201
30
6.000035492474
11
4042.400047410946
21
-892.699129761059
31
6.000035937533
0
LINE
8
0
10
4036.400094700025
20
-892.69912986809
30
6.000103295071
11
4036.400094477038
21
-880.199119776234
31
6.000035639229
0
LINE
8
0
10
4142.400003217313
20
-900.199152750979
30
6.000030633094
11
4142.400004569666
21
-940.199153587082
31
6.000030385311
0
LINE
8
0
10
3935.299995256056
20
-498.4000151984
30
6.000011916161
11
3935.371558986454
21
-498.94353326353
31
6.000011933179
0
LINE
8
0
10
3937.400001322108
20
-496.299978539846
30
6.000011772897
11
3936.85648325698
21
-496.371572787823
31
6.000011793174
0
LINE
8
0
10
4120.91763896538
20
-411.268114914506
30
6.000002759775
11
4120.399999804008
21
-411.199999689364
31
6.000002774233
0
LINE
8
0
10
3918.400001306054
20
-495.400015499878
30
6.000012360557
11
3929.900001306054
21
-495.400015294729
31
6.000011985474
0
LINE
8
0
10
3743.635083394594
20
-551.399256971279
30
5.9988442777
11
3743.635083599743
21
-562.899256971279
31
5.998844445899
0
LINE
8
0
10
3832.400096979065
20
-880.199123744966
30
6.000040628956
11
3838.400049689987
21
-880.199123637933
31
6.000040482201
0
LINE
8
0
10
4036.400094477038
20
-880.199119776234
30
6.000035639229
11
4042.400047187959
21
-880.199119669201
31
6.000035492474
0
LINE
8
0
10
3743.900031088454
20
-843.199135525495
30
6.000039048993
11
3743.900031293604
21
-854.699135525495
31
6.000039217192
0
LINE
8
0
10
3743.635066647937
20
-524.899241965302
30
5.998846780084
11
3737.635113937015
21
-524.899242118122
31
5.998849540009
0
LINE
8
0
10
3937.400006581055
20
-791.100027367968
30
6.000022269157
11
3936.856488515925
21
-791.171560580789
31
6.000022289431
0
LINE
8
0
10
3935.915082275622
20
-791.71507866399
30
6.000022339489
11
3935.581357307796
21
-792.15001519338
31
6.000022365857
0
LINE
8
0
10
3939.428448991634
20
-792.656484851315
30
6.000022258415
11
3939.218655891779
21
-792.150015128493
31
6.000022247224
0
LINE
8
0
10
4142.400002979356
20
-589.199999296904
30
6.000008394315
11
4142.400002996714
21
-860.199152758795
31
6.000027584123
0
LINE
8
0
10
3824.617524227133
20
-460.786706315047
30
6.000014233898
11
3824.400001371709
21
-460.932050445914
31
6.000014245168
0
LINE
8
0
10
3938.450009637831
20
-791.381338384394
30
6.000022244926
11
3937.943524648738
21
-791.171560561397
31
6.000022253977
0
LINE
8
0
10
3732.400002265793
20
-549.200006610908
30
6.000020342644
11
3732.399999804007
21
-411.200006610908
31
6.000015429198
0
LINE
8
0
10
3825.400001340813
20
-459.199999620503
30
6.000014155477
11
3825.400000912675
21
-435.199999620503
31
6.000013300964
0
LINE
8
0
10
3832.400097202054
20
-892.699133836823
30
6.00010690877
11
3832.400096979065
21
-880.199123744966
31
6.000040628956
0
LINE
8
0
10
3752.813293793212
20
-433.982478057363
30
6.000015615723
11
3752.667949670106
21
-434.200000917974
31
6.000015625603
0
LINE
8
0
10
3726.400002979355
20
-589.200006717942
30
6.000021962526
11
3732.400002979355
21
-589.200006610908
31
6.00002176683
0
LINE
8
0
10
3939.218650670296
20
-499.450002921463
30
6.000011825737
11
3939.42844375208
21
-498.943533191158
31
6.00001180086
0
LINE
8
0
10
3944.900001306054
20
-495.400015027146
30
6.000011496236
11
3956.400001306054
21
-495.400014821997
31
6.000011121153
0
LINE
8
0
10
3752.400000495513
20
-435.200000922754
30
6.000015657972
11
3752.400000923651
21
-459.200000922754
31
6.000016225056
0
LINE
8
0
10
3752.41711076811
20
-434.938948538007
30
6.000015651246
11
3752.400000495513
21
-435.200000922754
31
6.000015657972
0
LINE
8
0
10
3825.382891068215
20
-459.461052005251
30
6.000014165251
11
3825.331853002622
21
-459.717637711924
31
6.000014175816
0
LINE
8
0
10
3743.900014341798
20
-816.699120519517
30
6.000041551377
11
3737.900061630877
21
-816.699120672337
31
6.000044311301
0
LINE
8
0
10
3732.400001721066
20
-900.199160152994
30
6.000040712981
11
3732.400003608465
21
-940.19914731209
31
6.000042044237
0
LINE
8
0
10
3936.350003599203
20
-795.018667523419
30
6.000022442928
11
3936.856488588297
21
-795.228445346414
31
6.000022433875
0
LINE
8
0
10
3838.400049689987
20
-880.199123637933
30
6.000040482201
11
3838.400049912974
21
-892.699133729791
31
6.00004092726
0
LINE
8
0
10
3825.132051702404
20
-434.199999625284
30
6.000013274099
11
3825.247759964042
21
-434.43463275849
31
6.000013278679
0
LINE
8
0
10
3825.331852556018
20
-434.682361531514
30
6.000013284756
11
3825.382890630765
21
-434.938947236371
31
6.000013292227
0
LINE
8
0
10
3825.382891068215
20
-459.461052005251
30
6.000014165251
11
3825.400001340813
21
-459.199999620503
31
6.000014155477
0
LINE
8
0
10
3825.247760419487
20
-459.96536648795
30
6.000014186994
11
3825.132052166218
21
-460.199999625284
31
6.00001419859
0
LINE
8
0
10
3824.814214928413
20
-460.614213193328
30
6.000014222244
11
3824.617524227133
21
-460.786706315047
31
6.000014233898
0
LINE
8
0
10
3824.165368238503
20
-461.047758707552
30
6.000014255861
11
3823.917639465476
21
-461.131851299525
31
6.000014265798
0
LINE
8
0
10
3823.917639465476
20
-461.131851299525
30
6.000014265798
11
3823.661053760623
21
-461.182889374273
31
6.000014274807
0
LINE
8
0
10
3823.400001376488
20
-461.199999656183
30
6.00001428273
11
3823.661053760623
21
-461.182889374273
31
6.000014274807
0
LINE
8
0
10
3754.138948574581
20
-461.182890614481
30
6.000016223179
11
3754.400000959326
21
-461.200000887076
31
6.000016216266
0
LINE
8
0
10
3753.882362867907
20
-461.131852548886
30
6.000016229163
11
3753.634634091882
21
-461.047759965752
31
6.000016234118
0
LINE
8
0
10
3753.634634091882
20
-461.047759965752
30
6.000016234118
11
3753.400000954548
21
-460.932051712482
31
6.000016237959
0
LINE
8
0
10
3752.985787386504
20
-460.614214474677
30
6.000016242056
11
3752.813294264787
21
-460.417523773399
31
6.000016242242
0
LINE
8
0
10
3752.667950133919
20
-460.200000917974
30
6.000016241174
11
3752.55224187228
21
-459.965367784768
31
6.000016238874
0
LINE
8
0
10
3752.55224187228
20
-459.965367784768
30
6.000016238874
11
3752.468149280304
21
-459.717639011742
31
6.000016235377
0
LINE
8
0
10
3752.400000923651
20
-459.200000922754
30
6.000016225056
11
3752.417111205558
21
-459.461053306887
31
6.000016230744
0
LINE
8
0
10
3935.371558967063
20
-497.856497130718
30
6.000011894476
11
3935.299995256056
21
-498.4000151984
31
6.000011916161
0
LINE
8
0
10
3935.58135204885
20
-497.350027400412
30
6.000011869601
11
3935.371558967063
21
-497.856497130718
31
6.000011894476
0
LINE
8
0
10
3936.349998275371
20
-496.581350628888
30
6.000011817161
11
3935.915077016676
21
-496.915090871022
31
6.000011843231
0
LINE
8
0
10
3936.85648325698
20
-496.371572787823
30
6.000011793174
11
3936.349998275371
21
-496.581350628888
31
6.000011817161
0
LINE
8
0
10
3937.943519389793
20
-496.371572768431
30
6.00001175772
11
3937.400001322108
21
-496.299978539846
31
6.000011772897
0
LINE
8
0
10
3938.450004378886
20
-496.581350591424
30
6.000011748667
11
3937.943519389793
21
-496.371572768431
31
6.00001175772
0
LINE
8
0
10
3939.218650632834
20
-497.350027335525
30
6.000011750966
11
3938.884925649489
21
-496.915090818041
31
6.000011746367
0
LINE
8
0
10
3939.500007463086
20
-498.400015123476
30
6.000011779174
11
3939.428443732689
21
-497.856497058345
31
6.000011762157
0
LINE
8
0
10
3939.42844375208
20
-498.943533191158
30
6.00001180086
11
3939.500007463086
21
-498.400015123476
31
6.000011779174
0
LINE
8
0
10
3938.884925702468
20
-499.884939450854
30
6.000011852106
11
3939.218650670296
21
-499.450002921463
31
6.000011825737
0
LINE
8
0
10
3938.450004443772
20
-500.218679692987
30
6.000011878175
11
3938.884925702468
21
-499.884939450854
31
6.000011852106
0
LINE
8
0
10
3937.943519462163
20
-500.428457534057
30
6.000011902164
11
3938.450004443772
21
-500.218679692987
31
6.000011878175
0
LINE
8
0
10
3936.856483329352
20
-500.428457553448
30
6.000011937618
11
3937.400001397033
21
-500.499990746877
31
6.000011922437
0
LINE
8
0
10
3935.915077069655
20
-499.884939503835
30
6.000011948972
11
3936.349998340257
21
-500.218679730451
31
6.000011946669
0
LINE
8
0
10
3935.371558986454
20
-498.94353326353
30
6.000011933179
11
3935.581352086312
21
-499.45000298635
31
6.00001194437
0
LINE
8
0
10
3956.40000141309
20
-501.400014821997
30
6.00001133478
11
3944.90000141309
21
-501.400015027146
31
6.000011709863
0
LINE
8
0
10
3944.90000141309
20
-501.400015027146
30
6.000011709863
11
3944.900001306054
21
-495.400015027146
31
6.000011496236
0
LINE
8
0
10
3956.400001306054
20
-495.400014821997
30
6.000011121153
11
3956.40000141309
21
-501.400014821997
31
6.00001133478
0
LINE
8
0
10
3917.400000945708
20
-475.200003310688
30
6.000011673958
11
3917.400000838672
21
-469.200003310688
31
6.00001146033
0
LINE
8
0
10
3917.400000838672
20
-469.200003310688
30
6.00001146033
11
3957.400000838672
21
-469.200002597125
31
6.000010155694
0
LINE
8
0
10
3957.400000838672
20
-469.200002597125
30
6.000010155694
11
3957.400000945709
21
-475.200002597125
31
6.000010369322
0
LINE
8
0
10
3957.400000945709
20
-475.200002597125
30
6.000010369322
11
3917.400000945708
21
-475.200003310688
31
6.000011673958
0
LINE
8
0
10
3956.400006564999
20
-790.200002614964
30
6.000021617411
11
3956.400006672035
21
-796.200002614964
31
6.000021831038
0
LINE
8
0
10
3929.900001306054
20
-495.400015294729
30
6.000011985474
11
3929.900001413089
21
-501.400015294729
31
6.000012199101
0
LINE
8
0
10
3929.900001413089
20
-501.400015294729
30
6.000012199101
11
3918.400001413089
21
-501.400015499878
31
6.000012574184
0
LINE
8
0
10
3918.400001413089
20
-501.400015499878
30
6.000012574184
11
3918.400001306054
21
-495.400015499878
31
6.000012360557
0
LINE
8
0
10
3918.400006672034
20
-796.200003292847
30
6.000023070442
11
3918.400006564998
21
-790.200003292847
31
6.000022856814
0
LINE
8
0
10
3929.900006564998
20
-790.200003087699
30
6.000022481732
11
3929.900006672035
21
-796.2000030877
31
6.000022695359
0
LINE
8
0
10
3929.900006672035
20
-796.2000030877
30
6.000022695359
11
3918.400006672034
21
-796.200003292847
31
6.000023070442
0
LINE
8
0
10
3938.450009702718
20
-795.018667485957
30
6.000022374433
11
3938.884930961413
21
-794.684927243824
31
6.000022348364
0
LINE
8
0
10
3937.94352472111
20
-795.228445327022
30
6.000022398421
11
3938.450009702718
21
-795.018667485957
31
6.000022374433
0
LINE
8
0
10
3936.856488588297
20
-795.228445346414
30
6.000022433875
11
3937.400006655978
21
-795.299978539843
31
6.000022418695
0
LINE
8
0
10
3935.915082328602
20
-794.684927296802
30
6.000022445229
11
3936.350003599203
21
-795.018667523419
31
6.000022442928
0
LINE
8
0
10
3935.581357345256
20
-794.249990779317
30
6.000022440628
11
3935.915082328602
21
-794.684927296802
31
6.000022445229
0
LINE
8
0
10
3935.371564226009
20
-792.656484923686
30
6.000022390734
11
3935.300000515003
21
-793.200002991367
31
6.00002241242
0
LINE
8
0
10
3937.943524648738
20
-791.171560561397
30
6.000022253977
11
3937.400006581055
21
-791.100027367968
31
6.000022269157
0
LINE
8
0
10
3939.218655891779
20
-792.150015128493
30
6.000022247224
11
3938.884930908433
21
-791.715078611011
31
6.000022242623
0
LINE
8
0
10
3939.21865592924
20
-794.249990714431
30
6.000022321993
11
3939.428449011025
21
-793.743520984127
31
6.000022297119
0
LINE
8
0
10
4036.400015640703
20
-920.199135332488
30
6.000038363897
11
4036.400015417714
21
-907.699145534564
31
6.00003510442
0
LINE
8
0
10
4036.400015417714
20
-907.699145534564
30
6.00003510442
11
4042.400062576427
21
-907.699145427529
31
6.000034957662
0
LINE
8
0
10
4042.400062799415
20
-920.199135225453
30
6.00003540272
11
4036.400015640703
21
-920.199135332488
31
6.000038363897
0
LINE
8
0
10
4042.400047410946
20
-892.699129761059
30
6.000035937533
11
4036.400094700025
21
-892.69912986809
31
6.000103295071
0
LINE
8
0
10
3838.400049912974
20
-892.699133729791
30
6.00004092726
11
3832.400097202054
21
-892.699133836823
31
6.00010690877
0
LINE
8
0
10
3838.400066454483
20
-907.699148735768
30
6.000038571356
11
3838.400066677471
21
-920.199138533692
31
6.000039016414
0
LINE
8
0
10
3838.400066677471
20
-920.199138533692
30
6.000039016414
11
3832.400019518759
21
-920.199138640727
31
6.000043353618
0
LINE
8
0
10
3832.400019518759
20
-920.199138640727
30
6.000043353618
11
3832.400019295771
21
-907.699148842804
31
6.000038718114
0
LINE
8
0
10
3832.400019295771
20
-907.699148842804
30
6.000038718114
11
3838.400066454483
21
-907.699148735768
31
6.000038571356
0
LINE
8
0
10
4142.400002979356
20
-589.199999296904
30
6.000008394315
11
4148.400002979356
21
-589.199999189872
31
6.000008198619
0
LINE
8
0
10
4148.400002979356
20
-589.199999189872
30
6.000008198619
11
4148.400002265797
21
-549.199999189872
31
6.000006774434
0
LINE
8
0
10
4148.400002265797
20
-549.199999189872
30
6.000006774434
11
4142.400002265797
21
-549.199999296904
31
6.000006970129
0
LINE
8
0
10
4142.400000000238
20
-422.199999296904
30
6.000002448334
11
4122.400000000239
21
-422.199999653685
31
6.000003100651
0
LINE
8
0
10
4122.400000000239
20
-422.199999653685
30
6.000003100651
11
4122.399999839686
21
-413.199999653685
31
6.000002780211
0
LINE
8
0
10
4121.814214902349
20
-411.785815093822
30
6.000002748963
11
4121.399999808788
21
-411.467944007463
31
6.000002751156
0
LINE
8
0
10
4121.399999808788
20
-411.467944007463
30
6.000002751156
11
4120.91763896538
21
-411.268114914506
31
6.000002759775
0
LINE
8
0
10
4120.399999804008
20
-411.199999689364
30
6.000002774233
11
3732.399999804007
21
-411.200006610908
31
6.000015429198
0
LINE
8
0
10
3732.400002265793
20
-549.200006610908
30
6.000020342644
11
3726.400002265793
21
-549.200006717942
31
6.000020538339
0
LINE
8
0
10
3726.400002265793
20
-549.200006717942
30
6.000020538339
11
3726.400002979355
21
-589.200006717942
31
6.000021962526
0
LINE
8
0
10
3732.400001625596
20
-860.199160152994
30
6.00003584089
11
3726.400002000746
21
-860.199160167315
31
6.000034041567
0
LINE
8
0
10
3726.400002000746
20
-860.199160167315
30
6.000034041567
11
3726.400002096216
21
-900.199160167315
31
6.000038913658
0
LINE
8
0
10
3732.400001721066
20
-900.199160152994
30
6.000040712981
11
3726.400002096216
21
-900.199160167315
31
6.000038913658
0
LINE
8
0
10
3752.667949670106
20
-434.200000917974
30
6.000015625603
11
3752.552241416837
21
-434.434634055308
31
6.000015634922
0
LINE
8
0
10
3753.18247760919
20
-433.613294228211
30
6.00001559496
11
3752.985786907913
21
-433.785787349931
31
6.000015605451
0
LINE
8
0
10
3753.400000464615
20
-433.467950097344
30
6.000015584431
11
3753.18247760919
21
-433.613294228211
31
6.00001559496
0
LINE
8
0
10
3754.400000459835
20
-433.200000887076
30
6.000015545482
11
3754.138948075702
21
-433.217111168985
31
6.000015554402
0
LINE
8
0
10
3823.400000876995
20
-433.199999656183
30
6.000013294986
11
3754.400000459835
21
-433.200000887076
31
6.000015545482
0
LINE
8
0
10
3823.661053261741
20
-433.217109928778
30
6.000013287081
11
3823.400000876995
21
-433.199999656183
31
6.000013294986
0
LINE
8
0
10
3823.661053261741
20
-433.217109928778
30
6.000013287081
11
3823.917638968416
21
-433.268147994369
31
6.000013280529
0
LINE
8
0
10
3823.917638968416
20
-433.268147994369
30
6.000013280529
11
3824.165367744441
21
-433.352240577507
31
6.000013275443
0
LINE
8
0
10
3824.165367744441
20
-433.352240577507
30
6.000013275443
11
3824.400000881776
21
-433.467948830776
31
6.000013271912
0
LINE
8
0
10
3824.400000881776
20
-433.467948830776
30
6.000013271912
11
3824.617523742385
21
-433.613292953882
31
6.000013269992
0
LINE
8
0
10
3824.617523742385
20
-433.613292953882
30
6.000013269992
11
3824.81421444982
21
-433.785786068581
31
6.000013269717
0
LINE
8
0
10
3824.81421444982
20
-433.785786068581
30
6.000013269717
11
3824.986707571538
21
-433.98247676986
31
6.000013271094
0
LINE
8
0
10
3824.986707571538
20
-433.98247676986
30
6.000013271094
11
3825.132051702404
21
-434.199999625284
31
6.000013274099
0
ENDSEC
0
EOF
