0
SECTION
2
ENTITIES
0
LINE
8
0
10
3526.471847413409
20
-1591.960790201809
30
6.000070628874
11
3526.262056535205
21
-1592.467270210791
31
6.000070668504
0
LINE
8
0
10
3526.262056535205
20
-1592.467270210791
30
6.000070668504
11
3526.190500780115
21
-1593.010790206734
31
6.000070707276
0
LINE
8
0
10
3526.190500780115
20
-1593.010790206734
30
6.000070707276
11
3526.262056554598
21
-1593.554310200125
31
6.000070742547
0
LINE
8
0
10
3526.262056554598
20
-1593.554310200125
30
6.000070742547
11
3526.471847450875
21
-1594.060790201621
31
6.000070771913
0
LINE
8
0
10
3526.471847450875
20
-1594.060790201621
30
6.000070771913
11
3526.805576566061
21
-1594.495714436121
31
6.000070793375
0
LINE
8
0
10
3526.805576566061
20
-1594.495714436121
30
6.000070793375
11
3527.240500812467
21
-1594.829443535787
31
6.000070805468
0
LINE
8
0
10
3527.240500812467
20
-1594.829443535787
30
6.000070805468
11
3527.746980821451
21
-1595.039234413992
31
6.00007080737
0
LINE
8
0
10
3527.746980821451
20
-1595.039234413992
30
6.00007080737
11
3528.290500817393
21
-1595.110790169082
31
6.00007079895
0
LINE
8
0
10
3528.290500817393
20
-1595.110790169082
30
6.00007079895
11
3528.834020810784
21
-1595.039234394598
31
6.000070780781
0
LINE
8
0
10
3528.834020810784
20
-1595.039234394598
30
6.000070780781
11
3529.340500812279
21
-1594.829443498321
31
6.000070754104
0
LINE
8
0
10
3529.340500812279
20
-1594.829443498321
30
6.000070754104
11
3529.77542504678
21
-1594.495714383135
31
6.000070720734
0
LINE
8
0
10
3529.77542504678
20
-1594.495714383135
30
6.000070720734
11
3530.109154146445
21
-1594.060790136729
31
6.000070682947
0
LINE
8
0
10
3530.109154146445
20
-1594.060790136729
30
6.000070682947
11
3530.31894502465
21
-1593.554310127746
31
6.000070643318
0
LINE
8
0
10
3530.31894502465
20
-1593.554310127746
30
6.000070643318
11
3530.390500779741
21
-1593.010790131802
31
6.000070604546
0
LINE
8
0
10
3530.390500779741
20
-1593.010790131802
30
6.000070604546
11
3530.318945005258
21
-1592.467270138413
31
6.000070569275
0
LINE
8
0
10
3530.318945005258
20
-1592.467270138413
30
6.000070569275
11
3530.10915410898
21
-1591.960790136915
31
6.000070539908
0
LINE
8
0
10
3530.10915410898
20
-1591.960790136915
30
6.000070539908
11
3529.775424993794
21
-1591.525865902417
31
6.000070518447
0
LINE
8
0
10
3529.775424993794
20
-1591.525865902417
30
6.000070518447
11
3529.340500747388
21
-1591.192136802751
31
6.000070506353
0
LINE
8
0
10
3529.340500747388
20
-1591.192136802751
30
6.000070506353
11
3528.834020738405
21
-1590.982345924546
31
6.000070504452
0
LINE
8
0
10
3528.834020738405
20
-1590.982345924546
30
6.000070504452
11
3528.290500742463
21
-1590.910790169457
31
6.000070512872
0
LINE
8
0
10
3528.290500742463
20
-1590.910790169457
30
6.000070512872
11
3527.746980749072
21
-1590.98234594394
31
6.00007053104
0
LINE
8
0
10
3527.746980749072
20
-1590.98234594394
30
6.00007053104
11
3527.240500747576
21
-1591.192136840217
31
6.000070557718
0
LINE
8
0
10
3527.240500747576
20
-1591.192136840217
30
6.000070557718
11
3526.805576513075
21
-1591.525865955401
31
6.000070591087
0
LINE
8
0
10
3526.805576513075
20
-1591.525865955401
30
6.000070591087
11
3526.471847413409
21
-1591.960790201809
31
6.000070628874
0
LINE
8
0
10
3322.471851080193
20
-1591.960794109192
30
6.001217866878
11
3322.26206025581
21
-1592.467273988941
31
6.001217906508
0
LINE
8
0
10
3322.26206025581
20
-1592.467273988941
30
6.001217906508
11
3322.190504519259
21
-1593.010793846123
31
6.001217945279
0
LINE
8
0
10
3322.190504519259
20
-1593.010793846123
30
6.001217945279
11
3322.262060275736
21
-1593.554313700682
31
6.00121798055
0
LINE
8
0
10
3322.262060275736
20
-1593.554313700682
30
6.00121798055
11
3322.471851118687
21
-1594.06079357274
31
6.001218009917
0
LINE
8
0
10
3322.471851118687
20
-1594.06079357274
30
6.001218009917
11
3322.805580148864
21
-1594.49571769601
31
6.001218031378
0
LINE
8
0
10
3322.805580148864
20
-1594.49571769601
30
6.001218031378
11
3323.240504284369
21
-1594.829446710241
31
6.001218043472
0
LINE
8
0
10
3323.240504284369
20
-1594.829446710241
30
6.001218043472
11
3323.746984164118
21
-1595.039237534624
31
6.001218045373
0
LINE
8
0
10
3323.746984164118
20
-1595.039237534624
30
6.001218045373
11
3324.2905040213
21
-1595.110793271175
31
6.001218036953
0
LINE
8
0
10
3324.2905040213
20
-1595.110793271175
30
6.001218036953
11
3324.834023875859
21
-1595.039237514697
31
6.001218018785
0
LINE
8
0
10
3324.834023875859
20
-1595.039237514697
30
6.001218018785
11
3325.340503747915
21
-1594.829446671746
31
6.001217992107
0
LINE
8
0
10
3325.340503747915
20
-1594.829446671746
30
6.001217992107
11
3325.775427871186
21
-1594.495717641571
31
6.001217958738
0
LINE
8
0
10
3325.775427871186
20
-1594.495717641571
30
6.001217958738
11
3326.109156885417
21
-1594.060793506064
31
6.001217920951
0
LINE
8
0
10
3326.109156885417
20
-1594.060793506064
30
6.001217920951
11
3326.318947709801
21
-1593.554313626317
31
6.001217881321
0
LINE
8
0
10
3326.318947709801
20
-1593.554313626317
30
6.001217881321
11
3326.390503446351
21
-1593.010793769134
31
6.00121784255
0
LINE
8
0
10
3326.390503446351
20
-1593.010793769134
30
6.00121784255
11
3326.318947689874
21
-1592.467273914574
31
6.001217807279
0
LINE
8
0
10
3326.318947689874
20
-1592.467273914574
30
6.001217807279
11
3326.109156846923
21
-1591.960794042518
31
6.001217777912
0
LINE
8
0
10
3326.109156846923
20
-1591.960794042518
30
6.001217777912
11
3325.775427816748
21
-1591.525869919247
31
6.00121775645
0
LINE
8
0
10
3325.775427816748
20
-1591.525869919247
30
6.00121775645
11
3325.340503681239
21
-1591.192140905017
31
6.001217744357
0
LINE
8
0
10
3325.340503681239
20
-1591.192140905017
30
6.001217744357
11
3324.834023801493
21
-1590.982350080634
31
6.001217742455
0
LINE
8
0
10
3324.834023801493
20
-1590.982350080634
30
6.001217742455
11
3324.29050394431
21
-1590.910794344082
31
6.001217750876
0
LINE
8
0
10
3324.29050394431
20
-1590.910794344082
30
6.001217750876
11
3323.746984089752
21
-1590.98235010056
31
6.001217769044
0
LINE
8
0
10
3323.746984089752
20
-1590.98235010056
30
6.001217769044
11
3323.240504217693
21
-1591.192140943512
31
6.001217795721
0
LINE
8
0
10
3323.240504217693
20
-1591.192140943512
30
6.001217795721
11
3322.805580094424
21
-1591.525869973687
31
6.001217829091
0
LINE
8
0
10
3322.805580094424
20
-1591.525869973687
30
6.001217829091
11
3322.471851080193
21
-1591.960794109192
31
6.001217866878
0
LINE
8
0
10
3226.326361994323
20
-1138.011645608824
30
6.000019805162
11
3226.962036469939
21
-1137.18321847274
31
6.000019742175
0
LINE
8
0
10
3226.962036469939
20
-1137.18321847274
30
6.000019742175
11
3227.790463583349
21
-1136.547543967573
31
6.000019685208
0
LINE
8
0
10
3227.790463583349
20
-1136.547543967573
30
6.000019685208
11
3228.75518739581
21
-1136.147942260348
31
6.000019638145
0
LINE
8
0
10
3228.75518739581
20
-1136.147942260348
30
6.000019638145
11
3229.79046357379
21
-1136.011645547039
31
6.000019604191
0
LINE
8
0
10
3229.79046357379
20
-1136.011645547039
30
6.000019604191
11
3230.825739756629
21
-1136.147942223418
31
6.000019585661
0
LINE
8
0
10
3230.825739756629
20
-1136.147942223418
30
6.000019585661
11
3231.790463583349
21
-1136.547543896229
31
6.000019583818
0
LINE
8
0
10
3231.790463583349
20
-1136.547543896229
30
6.000019583818
11
3232.618890719431
21
-1137.183218371845
31
6.000019598787
0
LINE
8
0
10
3232.618890719431
20
-1137.183218371845
30
6.000019598787
11
3233.254565224599
21
-1138.011645485254
31
6.000019629548
0
LINE
8
0
10
3233.254565224599
20
-1138.011645485254
30
6.000019629548
11
3233.654166931824
21
-1138.976369297717
31
6.000019674006
0
LINE
8
0
10
3233.654166931824
20
-1138.976369297717
30
6.000019674006
11
3233.790463645134
21
-1140.011645475696
31
6.000019729129
0
LINE
8
0
10
3233.790463645134
20
-1140.011645475696
30
6.000019729129
11
3233.654166968753
21
-1141.046921658537
31
6.000019791162
0
LINE
8
0
10
3233.654166968753
20
-1141.046921658537
30
6.000019791162
11
3233.254565295942
21
-1142.011645485254
31
6.000019855877
0
LINE
8
0
10
3233.254565295942
20
-1142.011645485254
30
6.000019855877
11
3232.618890820325
21
-1142.840072621338
31
6.000019918864
0
LINE
8
0
10
3232.618890820325
20
-1142.840072621338
30
6.000019918864
11
3231.790463706919
21
-1143.475747126505
31
6.000019975831
0
LINE
8
0
10
3231.790463706919
20
-1143.475747126505
30
6.000019975831
11
3230.825739894455
21
-1143.87534883373
31
6.000020022894
0
LINE
8
0
10
3230.825739894455
20
-1143.87534883373
30
6.000020022894
11
3229.790463716477
21
-1144.011645547039
31
6.000020056848
0
LINE
8
0
10
3229.790463716477
20
-1144.011645547039
30
6.000020056848
11
3228.755187533636
21
-1143.87534887066
31
6.000020075378
0
LINE
8
0
10
3228.755187533636
20
-1143.87534887066
30
6.000020075378
11
3227.790463706919
21
-1143.475747197848
31
6.000020077221
0
LINE
8
0
10
3227.790463706919
20
-1143.475747197848
30
6.000020077221
11
3226.962036570833
21
-1142.840072722233
31
6.000020062252
0
LINE
8
0
10
3226.962036570833
20
-1142.840072722233
30
6.000020062252
11
3226.326362065666
21
-1142.011645608824
31
6.000020031491
0
LINE
8
0
10
3226.326362065666
20
-1142.011645608824
30
6.000020031491
11
3225.92676035844
21
-1141.046921796361
31
6.000019987033
0
LINE
8
0
10
3225.92676035844
20
-1141.046921796361
30
6.000019987033
11
3225.790463645134
21
-1140.011645618382
31
6.00001993191
0
LINE
8
0
10
3225.790463645134
20
-1140.011645618382
30
6.00001993191
11
3225.926760321511
21
-1138.976369435541
31
6.000019869877
0
LINE
8
0
10
3225.926760321511
20
-1138.976369435541
30
6.000019869877
11
3226.326361994323
21
-1138.011645608824
31
6.000019805162
0
LINE
8
0
10
3227.49707719591
20
-1236.167382224452
30
6.000023743209
11
3227.42552145936
21
-1236.710902081634
31
6.000023770032
0
LINE
8
0
10
3227.42552145936
20
-1236.710902081634
30
6.000023770032
11
3227.497077215836
21
-1237.254421936193
31
6.000023794447
0
LINE
8
0
10
3227.497077215836
20
-1237.254421936193
30
6.000023794447
11
3227.706868058788
21
-1237.76090180825
31
6.00002381479
0
LINE
8
0
10
3227.706868058788
20
-1237.76090180825
30
6.00002381479
11
3228.040597088964
21
-1238.195825931521
31
6.000023829675
0
LINE
8
0
10
3228.040597088964
20
-1238.195825931521
30
6.000023829675
11
3228.47552122447
21
-1238.529554945751
31
6.000023838088
0
LINE
8
0
10
3228.47552122447
20
-1238.529554945751
30
6.000023838088
11
3228.982001104218
21
-1238.739345770135
31
6.000023839454
0
LINE
8
0
10
3228.982001104218
20
-1238.739345770135
30
6.000023839454
11
3229.525520961401
21
-1238.810901506685
31
6.000023833681
0
LINE
8
0
10
3229.525520961401
20
-1238.810901506685
30
6.000023833681
11
3230.069040815959
21
-1238.739345750209
31
6.000023821164
0
LINE
8
0
10
3230.069040815959
20
-1238.739345750209
30
6.000023821164
11
3230.575520688016
21
-1238.529554907257
31
6.000023802753
0
LINE
8
0
10
3230.575520688016
20
-1238.529554907257
30
6.000023802753
11
3231.010444811287
21
-1238.195825877081
31
6.000023779705
0
LINE
8
0
10
3231.010444811287
20
-1238.195825877081
30
6.000023779705
11
3231.344173825517
21
-1237.760901741575
31
6.000023753589
0
LINE
8
0
10
3231.344173825517
20
-1237.760901741575
30
6.000023753589
11
3231.553964649901
21
-1237.254421861827
31
6.000023726186
0
LINE
8
0
10
3231.553964649901
20
-1237.254421861827
30
6.000023726186
11
3231.625520386452
21
-1236.710902004644
31
6.000023699363
0
LINE
8
0
10
3231.625520386452
20
-1236.710902004644
30
6.000023699363
11
3231.553964629975
21
-1236.167382150086
31
6.000023674948
0
LINE
8
0
10
3231.553964629975
20
-1236.167382150086
30
6.000023674948
11
3231.344173787023
21
-1235.660902278028
31
6.000023654605
0
LINE
8
0
10
3231.344173787023
20
-1235.660902278028
30
6.000023654605
11
3231.010444756848
21
-1235.225978154758
31
6.000023639721
0
LINE
8
0
10
3231.010444756848
20
-1235.225978154758
30
6.000023639721
11
3230.575520621343
21
-1234.892249140527
31
6.000023631308
0
LINE
8
0
10
3230.575520621343
20
-1234.892249140527
30
6.000023631308
11
3230.069040741593
21
-1234.682458316144
31
6.000023629942
0
LINE
8
0
10
3230.069040741593
20
-1234.682458316144
30
6.000023629942
11
3229.525520884411
21
-1234.610902579593
31
6.000023635714
0
LINE
8
0
10
3229.525520884411
20
-1234.610902579593
30
6.000023635714
11
3228.982001029852
21
-1234.68245833607
31
6.000023648232
0
LINE
8
0
10
3228.982001029852
20
-1234.68245833607
30
6.000023648232
11
3228.475521157797
21
-1234.892249179022
31
6.000023666643
0
LINE
8
0
10
3228.475521157797
20
-1234.892249179022
30
6.000023666643
11
3228.040597034525
21
-1235.225978209198
31
6.000023689691
0
LINE
8
0
10
3228.040597034525
20
-1235.225978209198
30
6.000023689691
11
3227.706868020293
21
-1235.660902344704
31
6.000023715807
0
LINE
8
0
10
3227.706868020293
20
-1235.660902344704
30
6.000023715807
11
3227.49707719591
21
-1236.167382224452
31
6.000023743209
0
LINE
8
0
10
3231.890468080313
20
-1528.51078055886
30
6.001218470656
11
3231.818912323836
21
-1527.967260704301
31
6.001218446241
0
LINE
8
0
10
3231.818912323836
20
-1527.967260704301
30
6.001218446241
11
3231.609121480885
21
-1527.460780832244
31
6.001218425898
0
LINE
8
0
10
3231.609121480885
20
-1527.460780832244
30
6.001218425898
11
3231.275392450709
21
-1527.025856708974
31
6.001218411013
0
LINE
8
0
10
3231.275392450709
20
-1527.025856708974
30
6.001218411013
11
3230.840468315204
21
-1526.692127694743
31
6.001218402601
0
LINE
8
0
10
3230.840468315204
20
-1526.692127694743
30
6.001218402601
11
3230.333988435455
21
-1526.482336870359
31
6.001218401234
0
LINE
8
0
10
3230.333988435455
20
-1526.482336870359
30
6.001218401234
11
3229.790468578272
21
-1526.410781133808
31
6.001218407007
0
LINE
8
0
10
3229.790468578272
20
-1526.410781133808
30
6.001218407007
11
3229.246948723713
21
-1526.482336890286
31
6.001218419525
0
LINE
8
0
10
3229.246948723713
20
-1526.482336890286
30
6.001218419525
11
3228.740468851658
21
-1526.692127733238
31
6.001218437935
0
LINE
8
0
10
3228.740468851658
20
-1526.692127733238
30
6.001218437935
11
3228.305544728386
21
-1527.025856763413
31
6.001218460984
0
LINE
8
0
10
3228.305544728386
20
-1527.025856763413
30
6.001218460984
11
3227.971815714155
21
-1527.46078089892
31
6.001218487099
0
LINE
8
0
10
3227.971815714155
20
-1527.46078089892
30
6.001218487099
11
3227.762024889772
21
-1527.967260778667
31
6.001218514502
0
LINE
8
0
10
3227.762024889772
20
-1527.967260778667
30
6.001218514502
11
3227.690469153221
21
-1528.510780635849
31
6.001218541325
0
LINE
8
0
10
3227.690469153221
20
-1528.510780635849
30
6.001218541325
11
3227.762024909698
21
-1529.054300490409
31
6.00121856574
0
LINE
8
0
10
3227.762024909698
20
-1529.054300490409
30
6.00121856574
11
3227.971815752649
21
-1529.560780362465
31
6.001218586083
0
LINE
8
0
10
3227.971815752649
20
-1529.560780362465
30
6.001218586083
11
3228.305544782826
21
-1529.995704485737
31
6.001218600968
0
LINE
8
0
10
3228.305544782826
20
-1529.995704485737
30
6.001218600968
11
3228.740468918332
21
-1530.329433499967
31
6.00121860938
0
LINE
8
0
10
3228.740468918332
20
-1530.329433499967
30
6.00121860938
11
3229.246948798079
21
-1530.53922432435
31
6.001218610747
0
LINE
8
0
10
3229.246948798079
20
-1530.53922432435
30
6.001218610747
11
3229.790468655262
21
-1530.610780060901
31
6.001218604974
0
LINE
8
0
10
3229.790468655262
20
-1530.610780060901
30
6.001218604974
11
3230.333988509821
21
-1530.539224304424
31
6.001218592456
0
LINE
8
0
10
3230.333988509821
20
-1530.539224304424
30
6.001218592456
11
3230.840468381878
21
-1530.329433461472
31
6.001218574046
0
LINE
8
0
10
3230.840468381878
20
-1530.329433461472
30
6.001218574046
11
3231.275392505149
21
-1529.995704431296
31
6.001218550997
0
LINE
8
0
10
3231.275392505149
20
-1529.995704431296
30
6.001218550997
11
3231.609121519379
21
-1529.560780295791
31
6.001218524882
0
LINE
8
0
10
3231.609121519379
20
-1529.560780295791
30
6.001218524882
11
3231.818912343762
21
-1529.054300416042
31
6.001218497479
0
LINE
8
0
10
3231.818912343762
20
-1529.054300416042
30
6.001218497479
11
3231.890468080313
21
-1528.51078055886
31
6.001218470656
0
LINE
8
0
10
3425.240466733236
20
-1484.192982841031
30
6.000025583543
11
3424.805545474544
21
-1484.526723083164
31
6.000025609613
0
LINE
8
0
10
3424.805545474544
20
-1484.526723083164
30
6.000025609613
11
3424.471820506717
21
-1484.961659612554
31
6.00002563598
0
LINE
8
0
10
3424.471820506717
20
-1484.961659612554
30
6.00002563598
11
3424.26202742493
21
-1485.468129342861
31
6.000025660857
0
LINE
8
0
10
3424.26202742493
20
-1485.468129342861
30
6.000025660857
11
3424.190463713925
21
-1486.011647410542
31
6.000025682544
0
LINE
8
0
10
3424.190463713925
20
-1486.011647410542
30
6.000025682544
11
3424.262027444321
21
-1486.555165475673
31
6.000025699561
0
LINE
8
0
10
3424.262027444321
20
-1486.555165475673
30
6.000025699561
11
3424.471820544177
21
-1487.061635198492
31
6.000025710751
0
LINE
8
0
10
3424.471820544177
20
-1487.061635198492
30
6.000025710751
11
3424.805545527523
21
-1487.496571715977
31
6.000025715352
0
LINE
8
0
10
3424.805545527523
20
-1487.496571715977
30
6.000025715352
11
3425.240466798125
21
-1487.830311942594
31
6.000025713051
0
LINE
8
0
10
3425.240466798125
20
-1487.830311942594
30
6.000025713051
11
3425.746951787218
21
-1488.040089765588
31
6.000025703999
0
LINE
8
0
10
3425.746951787218
20
-1488.040089765588
30
6.000025703999
11
3426.2904698549
21
-1488.111622959017
31
6.000025688818
0
LINE
8
0
10
3426.2904698549
20
-1488.111622959017
30
6.000025688818
11
3426.833987920031
21
-1488.040089746196
31
6.000025668544
0
LINE
8
0
10
3426.833987920031
20
-1488.040089746196
30
6.000025668544
11
3427.34047290164
21
-1487.830311905132
31
6.000025644556
0
LINE
8
0
10
3427.34047290164
20
-1487.830311905132
30
6.000025644556
11
3427.775394160335
21
-1487.496571662998
31
6.000025618488
0
LINE
8
0
10
3531.290525998336
20
-1613.010779644628
30
6.000038672843
11
3525.290478839624
21
-1613.010779751662
31
6.00004163402
0
LINE
8
0
10
3531.290525775349
20
-1600.510789846705
30
6.000038227785
11
3531.290525998336
21
-1613.010779644628
31
6.000038672843
0
LINE
8
0
10
3525.290478616636
20
-1600.510789953739
30
6.000038374543
11
3531.290525775349
21
-1600.510789846705
31
6.000038227785
0
LINE
8
0
10
3525.290478839624
20
-1613.010779751662
30
6.00004163402
11
3525.290478616636
21
-1600.510789953739
31
6.000038374543
0
LINE
8
0
10
3531.290510386881
20
-1573.010764088376
30
6.000038762597
11
3531.290510609867
21
-1585.510774180234
31
6.000039207656
0
LINE
8
0
10
3525.290557675959
20
-1573.010764195408
30
6.000038909352
11
3531.290510386881
21
-1573.010764088376
31
6.000038762597
0
LINE
8
0
10
3525.290557898946
20
-1585.510774287265
30
6.000106565194
11
3525.290557675959
21
-1573.010764195408
31
6.000038909352
0
LINE
8
0
10
3531.290510609867
20
-1585.510774180234
30
6.000039207656
11
3525.290557898946
21
-1585.510774287265
31
6.000106565194
0
LINE
8
0
10
3321.290560400975
20
-1585.510778255998
30
6.000110178893
11
3321.290560177986
21
-1573.010768164141
31
6.000043899079
0
LINE
8
0
10
3327.290513111895
20
-1585.510778148966
30
6.000044197383
11
3321.290560400975
21
-1585.510778255998
31
6.000110178893
0
LINE
8
0
10
3327.290512888907
20
-1573.010768057107
30
6.000043752324
11
3327.290513111895
21
-1585.510778148966
31
6.000044197383
0
LINE
8
0
10
3321.290560177986
20
-1573.010768164141
30
6.000043899079
11
3327.290512888907
21
-1573.010768057107
31
6.000043752324
0
LINE
8
0
10
3321.290482494692
20
-1600.510793261979
30
6.000041988237
11
3327.290529653404
21
-1600.510793154943
31
6.000041841479
0
LINE
8
0
10
3327.290529653404
20
-1600.510793154943
30
6.000041841479
11
3327.290529876392
21
-1613.010782952867
31
6.000042286537
0
LINE
8
0
10
3327.290529876392
20
-1613.010782952867
30
6.000042286537
11
3321.29048271768
21
-1613.010783059902
31
6.000046623742
0
LINE
8
0
10
3321.29048271768
20
-1613.010783059902
30
6.000046623742
11
3321.290482494692
21
-1600.510793261979
31
6.000041988237
0
LINE
8
0
10
3425.746951714847
20
-1483.983204999962
30
6.000025559555
11
3425.240466733236
21
-1484.192982841031
31
6.000025583543
0
LINE
8
0
10
3426.290469779976
20
-1483.911671787142
30
6.00002553928
11
3425.746951714847
21
-1483.983204999962
31
6.000025559555
0
LINE
8
0
10
3426.83398784766
20
-1483.983204980572
30
6.0000255241
11
3426.290469779976
21
-1483.911671787142
31
6.00002553928
0
LINE
8
0
10
3427.340472836752
20
-1484.192982803569
30
6.000025515049
11
3426.83398784766
21
-1483.983204980572
31
6.0000255241
0
LINE
8
0
10
3427.775394107355
20
-1484.526723030185
30
6.000025512747
11
3427.340472836752
21
-1484.192982803569
31
6.000025515049
0
LINE
8
0
10
3428.1091190907
20
-1484.961659547668
30
6.000025517347
11
3427.775394107355
21
-1484.526723030185
31
6.000025512747
0
LINE
8
0
10
3428.318912190554
20
-1485.468129270489
30
6.000025528538
11
3428.1091190907
21
-1484.961659547668
31
6.000025517347
0
LINE
8
0
10
3428.390475920955
20
-1486.011647335617
30
6.000025545557
11
3428.318912190554
21
-1485.468129270489
31
6.000025528538
0
LINE
8
0
10
3428.318912209947
20
-1486.555165403302
30
6.000025567242
11
3428.390475920955
21
-1486.011647335617
31
6.000025545557
0
LINE
8
0
10
3428.109119128161
20
-1487.061635133606
30
6.000025592117
11
3428.318912209947
21
-1486.555165403302
31
6.000025567242
0
LINE
8
0
10
3427.775394160335
20
-1487.496571662998
30
6.000025618488
11
3428.109119128161
21
-1487.061635133606
31
6.000025592117
0
LINE
8
0
10
3407.290469870955
20
-1489.011647712021
30
6.000026340565
11
3407.29046976392
21
-1483.011647712021
31
6.000026126938
0
LINE
8
0
10
3407.29046976392
20
-1483.011647712021
30
6.000026126938
11
3418.790469763919
21
-1483.011647506873
31
6.000025751856
0
LINE
8
0
10
3418.790469763919
20
-1483.011647506873
30
6.000025751856
11
3418.790469870955
21
-1489.011647506873
31
6.000025965483
0
LINE
8
0
10
3418.790469870955
20
-1489.011647506873
30
6.000025965483
11
3407.290469870955
21
-1489.011647712021
31
6.000026340565
0
LINE
8
0
10
3407.040464612011
20
-1188.211659919053
30
6.000015656765
11
3419.040464612011
21
-1188.211659816478
31
6.000015656765
0
LINE
8
0
10
3419.040464612011
20
-1194.211659816478
30
6.000015656765
11
3419.040464612011
21
-1188.211659816478
31
6.000015656765
0
LINE
8
0
10
3419.040464612011
20
-1194.211659816478
30
6.000015656765
11
3407.04046461201
21
-1194.211659816478
31
6.000015656765
0
LINE
8
0
10
3407.04046461201
20
-1194.211659816478
30
6.000015656765
11
3407.040464612011
21
-1188.211659919053
31
6.000015656765
0
LINE
8
0
10
3445.290469870956
20
-1489.011647034138
30
6.000025101161
11
3433.790469870957
21
-1489.011647239289
31
6.000025476244
0
LINE
8
0
10
3433.790469870957
20
-1489.011647239289
30
6.000025476244
11
3433.790469763921
21
-1483.011647239289
31
6.000025262617
0
LINE
8
0
10
3433.790469763921
20
-1483.011647239289
30
6.000025262617
11
3445.29046976392
21
-1483.011647034139
31
6.000024887535
0
LINE
8
0
10
3445.29046976392
20
-1483.011647034139
30
6.000024887535
11
3445.290469870956
21
-1489.011647034138
31
6.000025101161
0
LINE
8
0
10
3406.290464144628
20
-1168.011647729863
30
6.000014944081
11
3406.290464037593
21
-1162.011647729862
31
6.000014730453
0
LINE
8
0
10
3406.290464037593
20
-1162.011647729862
30
6.000014730453
11
3446.290464037593
21
-1162.011647016299
31
6.000013425817
0
LINE
8
0
10
3446.290464037593
20
-1162.011647016299
30
6.000013425817
11
3446.290464144631
21
-1168.011647016299
31
6.000013639445
0
LINE
8
0
10
3446.290464144631
20
-1168.011647016299
30
6.000013639445
11
3406.290464144628
21
-1168.011647729863
31
6.000014944081
0
LINE
8
0
10
3433.540464612011
20
-1194.211659343746
30
6.000014792444
11
3445.540464612011
21
-1194.211659343746
31
6.000014792445
0
LINE
8
0
10
3433.540464612011
20
-1194.211659343746
30
6.000014792444
11
3433.540464612011
21
-1188.211659241172
31
6.000014792444
0
LINE
8
0
10
3433.540464612011
20
-1188.211659241172
30
6.000014792444
11
3445.540464612011
21
-1188.211659241172
31
6.000014792445
0
LINE
8
0
10
3445.540464612011
20
-1194.211659343746
30
6.000014792445
11
3445.540464612011
21
-1188.211659241172
31
6.000014792445
0
LINE
8
0
10
3424.190458454977
20
-1191.211659617574
30
6.000015186284
11
3424.262022185375
21
-1191.755177682704
31
6.000015203302
0
LINE
8
0
10
3424.262022165984
20
-1190.668141549892
30
6.000015164599
11
3424.190458454977
21
-1191.211659617574
31
6.000015186284
0
LINE
8
0
10
3424.47181524777
20
-1190.161671819587
30
6.000015139724
11
3424.262022165984
21
-1190.668141549892
31
6.000015164599
0
LINE
8
0
10
3424.805540215597
20
-1189.726735290197
30
6.000015113354
11
3424.47181524777
21
-1190.161671819587
31
6.000015139724
0
LINE
8
0
10
3425.240461474292
20
-1189.392995048063
30
6.000015087285
11
3424.805540215597
21
-1189.726735290197
31
6.000015113354
0
LINE
8
0
10
3425.7469464559
20
-1189.183217206998
30
6.000015063297
11
3425.240461474292
21
-1189.392995048063
31
6.000015087285
0
LINE
8
0
10
3426.29046452103
20
-1189.11162295902
30
6.00001504302
11
3425.7469464559
21
-1189.183217206998
31
6.000015063297
0
LINE
8
0
10
3426.833982588713
20
-1189.183217187606
30
6.000015027843
11
3426.29046452103
21
-1189.11162295902
31
6.00001504302
0
LINE
8
0
10
3427.340467577807
20
-1189.392995010599
30
6.00001501879
11
3426.833982588713
21
-1189.183217187606
31
6.000015027843
0
LINE
8
0
10
3427.77538884841
20
-1189.726735237216
30
6.00001501649
11
3427.340467577807
21
-1189.392995010599
31
6.00001501879
0
LINE
8
0
10
3428.109113831755
20
-1190.161671754699
30
6.000015021089
11
3427.77538884841
21
-1189.726735237216
31
6.00001501649
0
LINE
8
0
10
3428.31890693161
20
-1190.66814147752
30
6.00001503228
11
3428.109113831755
21
-1190.161671754699
31
6.000015021089
0
LINE
8
0
10
3428.390470662008
20
-1191.211659542651
30
6.000015049297
11
3428.31890693161
21
-1190.66814147752
31
6.00001503228
0
LINE
8
0
10
3428.318906951001
20
-1191.755177610332
30
6.000015070983
11
3428.390470662008
21
-1191.211659542651
31
6.000015049297
0
LINE
8
0
10
3428.109113869218
20
-1192.261647340637
30
6.00001509586
11
3428.318906951001
21
-1191.755177610332
31
6.000015070983
0
LINE
8
0
10
3427.775388901389
20
-1192.696583870028
30
6.000015122229
11
3428.109113869218
21
-1192.261647340637
31
6.00001509586
0
LINE
8
0
10
3427.340467642693
20
-1193.030324112162
30
6.000015148298
11
3427.775388901389
21
-1192.696583870028
31
6.000015122229
0
LINE
8
0
10
3426.833982661084
20
-1193.240101953231
30
6.000015172287
11
3427.340467642693
21
-1193.030324112162
31
6.000015148298
0
LINE
8
0
10
3426.290464595954
20
-1193.311635166052
30
6.00001519256
11
3426.833982661084
21
-1193.240101953231
31
6.000015172287
0
LINE
8
0
10
3425.746946528272
20
-1193.240101972623
30
6.000015207741
11
3426.290464595954
21
-1193.311635166052
31
6.00001519256
0
LINE
8
0
10
3425.240461539178
20
-1193.030324149626
30
6.000015216792
11
3425.746946528272
21
-1193.240101972623
31
6.000015207741
0
LINE
8
0
10
3424.805540268575
20
-1192.696583923009
30
6.000015219095
11
3425.240461539178
21
-1193.030324149626
31
6.000015216792
0
LINE
8
0
10
3424.471815285232
20
-1192.261647405525
30
6.000015214493
11
3424.805540268575
21
-1192.696583923009
31
6.000015219095
0
LINE
8
0
10
3424.262022185375
20
-1191.755177682704
30
6.000015203302
11
3424.471815285232
21
-1192.261647405525
31
6.000015214493
0
LINE
8
0
10
3241.307573967031
20
-1127.750592957181
30
6.00001892137
11
3241.290463694434
21
-1128.011645341928
31
6.000018928096
0
LINE
8
0
10
3241.358612032621
20
-1127.494007250506
30
6.000018913642
11
3241.307573967031
21
-1127.750592957181
31
6.00001892137
0
LINE
8
0
10
3241.442704615758
20
-1127.246278474482
30
6.000018905045
11
3241.358612032621
21
-1127.494007250506
31
6.000018913642
0
LINE
8
0
10
3241.558412869028
20
-1127.011645337149
30
6.000018895727
11
3241.442704615758
21
-1127.246278474482
31
6.000018905045
0
LINE
8
0
10
3241.703756992133
20
-1126.794122476537
30
6.000018885847
11
3241.558412869028
21
-1127.011645337149
31
6.000018895727
0
LINE
8
0
10
3241.876250106834
20
-1126.597431769105
30
6.000018875575
11
3241.703756992133
21
-1126.794122476537
31
6.000018885847
0
LINE
8
0
10
3242.072940808112
20
-1126.424938647385
30
6.000018865084
11
3241.876250106834
21
-1126.597431769105
31
6.000018875575
0
LINE
8
0
10
3242.290463663536
20
-1126.279594516518
30
6.000018854554
11
3242.072940808112
21
-1126.424938647385
31
6.000018865084
0
LINE
8
0
10
3242.525096796742
20
-1126.163886254881
30
6.000018844167
11
3242.290463663536
21
-1126.279594516518
31
6.000018854554
0
LINE
8
0
10
3242.772825569767
20
-1126.079793662904
30
6.000018834099
11
3242.525096796742
21
-1126.163886254881
31
6.000018844167
0
LINE
8
0
10
3243.029411274622
20
-1126.028755588159
30
6.000018824525
11
3242.772825569767
21
-1126.079793662904
31
6.000018834099
0
LINE
8
0
10
3521.290463002931
20
-1104.011645678373
30
6.000006890239
11
3333.290450922488
21
-1104.01164463297
31
6.000016213858
0
LINE
8
0
10
3333.290450922488
20
-1104.01164463297
30
6.000016213858
11
3333.290450922488
21
-1115.01164407286
31
6.000016213858
0
LINE
8
0
10
3333.290450922488
20
-1115.01164407286
30
6.000016213858
11
3313.290448792093
21
-1115.011644083863
31
6.000019032645
0
LINE
8
0
10
3313.290448792093
20
-1115.011644083863
30
6.000019032645
11
3313.290448852616
21
-1104.011644533931
31
6.000017201431
0
LINE
8
0
10
3313.290448852616
20
-1104.011644533931
30
6.000017201431
11
3241.2904375541
21
-1104.011644137779
31
6.000019090974
0
LINE
8
0
10
3241.2904375541
20
-1115.01164407286
30
6.000019090974
11
3241.2904375541
21
-1104.011644137779
31
6.000019090974
0
LINE
8
0
10
3221.290463199157
20
-1115.01164407286
30
6.000019090973
11
3241.2904375541
21
-1115.01164407286
31
6.000019090974
0
LINE
8
0
10
3221.290465464715
20
-1242.011651030083
30
6.000023612767
11
3221.290463199157
21
-1115.01164407286
31
6.000019090973
0
LINE
8
0
10
3221.290465464715
20
-1242.011651030083
30
6.000023612767
11
3215.290465464715
21
-1242.011651137116
31
6.000023808462
0
LINE
8
0
10
3215.290465464715
20
-1242.011651137116
30
6.000023808462
11
3215.290466178275
21
-1282.011651137116
31
6.000025232649
0
LINE
8
0
10
3215.290466178275
20
-1282.011651137116
30
6.000025232649
11
3221.290466178275
21
-1282.011651030083
31
6.000025036953
0
LINE
8
0
10
3221.290466178275
20
-1282.011651030083
30
6.000025036953
11
3221.290464824517
21
-1553.010804572168
31
6.000039111013
0
LINE
8
0
10
3221.290464824517
20
-1553.010804572168
30
6.000039111013
11
3215.290465199667
21
-1553.010804586489
31
6.00003731169
0
LINE
8
0
10
3215.290465199667
20
-1553.010804586489
30
6.00003731169
11
3215.290465295137
21
-1593.010804586489
31
6.000042183781
0
LINE
8
0
10
3221.290464919988
20
-1593.010804572169
30
6.000043983105
11
3215.290465295137
21
-1593.010804586489
31
6.000042183781
0
LINE
8
0
10
3221.290464919988
20
-1593.010804572169
30
6.000043983105
11
3221.290466807386
21
-1633.010791731264
31
6.000045314361
0
LINE
8
0
10
3631.290467768586
20
-1633.010798006256
30
6.000033655434
11
3221.290466807386
21
-1633.010791731264
31
6.000045314361
0
LINE
8
0
10
3631.290466416235
20
-1593.010797170153
30
6.000033903217
11
3631.290467768586
21
-1633.010798006256
31
6.000033655434
0
LINE
8
0
10
3631.290466416235
20
-1593.010797170153
30
6.000033903217
11
3637.290467822716
21
-1593.010797137062
31
6.00003570254
0
LINE
8
0
10
3637.290467602116
20
-1553.010797144879
30
6.000032653569
11
3637.290467822716
21
-1593.010797137062
31
6.00003570254
0
LINE
8
0
10
3631.290466195634
20
-1553.01079717797
30
6.000030854246
11
3637.290467602116
21
-1553.010797144879
31
6.000032653569
0
LINE
8
0
10
3631.290466178277
20
-1282.011643716079
30
6.000011664439
11
3631.290466195634
21
-1553.01079717797
31
6.000030854246
0
LINE
8
0
10
3631.290466178277
20
-1282.011643716079
30
6.000011664439
11
3637.290466178277
21
-1282.011643609047
31
6.000011468743
0
LINE
8
0
10
3637.290466178277
20
-1282.011643609047
30
6.000011468743
11
3637.290465464717
21
-1242.011643609047
31
6.000010044557
0
LINE
8
0
10
3637.290465464717
20
-1242.011643609047
30
6.000010044557
11
3631.290465464717
21
-1242.011643716079
31
6.000010240252
0
LINE
8
0
10
3631.29046319916
20
-1115.011643716079
30
6.000005718458
11
3631.290465464717
21
-1242.011643716079
31
6.000010240252
0
LINE
8
0
10
3631.29046319916
20
-1115.011643716079
30
6.000005718458
11
3611.290463199159
21
-1115.011644072859
31
6.000006370775
0
LINE
8
0
10
3611.290463199159
20
-1115.011644072859
30
6.000006370775
11
3611.290463199159
21
-1104.011644137778
31
6.000006097815
0
LINE
8
0
10
3541.290463199159
20
-1104.011645321593
30
6.000007316506
11
3611.290463199159
21
-1104.011644137778
31
6.000006097815
0
LINE
8
0
10
3541.290463199159
20
-1115.011644072859
30
6.000006370775
11
3541.290463199159
21
-1104.011645321593
31
6.000007316506
0
LINE
8
0
10
3541.290463199159
20
-1115.011644072859
30
6.000006370775
11
3521.29046319916
21
-1115.01164407286
31
6.000006370775
0
LINE
8
0
10
3521.29046319916
20
-1115.01164407286
30
6.000006370775
11
3521.290463002931
21
-1104.011645678373
31
6.000006890239
0
LINE
8
0
10
3226.525499639952
20
-1255.710901497488
30
5.998849770334
11
3226.525499434804
21
-1244.210901497489
31
5.99884764878
0
LINE
8
0
10
3226.525499434804
20
-1244.210901497489
30
5.99884764878
11
3232.525546593516
21
-1244.210901390453
31
5.998847547824
0
LINE
8
0
10
3232.525546593516
20
-1244.210901390453
30
5.998847547824
11
3232.525546798664
21
-1255.710901390453
31
5.998847716023
0
LINE
8
0
10
3232.525546798664
20
-1255.710901390453
30
5.998847716023
11
3226.525499639952
21
-1255.710901497488
31
5.998849770334
0
LINE
8
0
10
3226.525577341084
20
-1229.210886491507
30
5.998916154117
11
3226.525577135937
21
-1217.710886537296
31
5.998852810132
0
LINE
8
0
10
3232.525529846858
20
-1217.710886384477
30
5.998850050207
11
3226.525577135937
21
-1217.710886537296
31
5.998852810132
0
LINE
8
0
10
3232.525529846858
20
-1217.710886384477
30
5.998850050207
11
3232.525530052006
21
-1229.210886384476
31
5.998850218407
0
LINE
8
0
10
3232.525530052006
20
-1229.210886384476
30
5.998850218407
11
3226.525577341084
21
-1229.210886491507
31
5.998916154117
0
LINE
8
0
10
3226.790447333814
20
-1547.510780051705
30
6.000044541626
11
3226.790447128663
21
-1536.010780051704
31
6.000042420073
0
LINE
8
0
10
3226.790447128663
20
-1536.010780051704
30
6.000042420073
11
3232.790494287376
21
-1536.010779944669
31
6.000042319116
0
LINE
8
0
10
3232.790494287376
20
-1536.010779944669
30
6.000042319116
11
3232.790494492525
21
-1547.51077994467
31
6.000042487316
0
LINE
8
0
10
3232.790494492525
20
-1547.51077994467
30
6.000042487316
11
3226.790447333814
21
-1547.510780051705
31
6.000044541626
0
LINE
8
0
10
3232.790477540719
20
-1509.510764938693
30
6.0000448215
11
3232.790477745868
21
-1521.010764938693
31
6.000044989699
0
LINE
8
0
10
3232.790477745868
20
-1521.010764938693
30
6.000044989699
11
3226.790525034946
21
-1521.010765045723
31
6.00011092541
0
LINE
8
0
10
3226.790525034946
20
-1521.010765045723
30
6.00011092541
11
3226.790524829798
21
-1509.510765091512
31
6.000047581424
0
LINE
8
0
10
3232.790477540719
20
-1509.510764938693
30
6.0000448215
11
3226.790524829798
21
-1509.510765091512
31
6.000047581424
0
LINE
8
0
10
3243.290463658756
20
-1126.01164530625
30
6.000018815605
11
3243.029411274622
21
-1126.028755588159
31
6.000018824525
0
LINE
8
0
10
3312.290464075916
20
-1126.011644075357
30
6.00001656511
11
3243.290463658756
21
-1126.01164530625
31
6.000018815605
0
LINE
8
0
10
3312.551516460662
20
-1126.028754347952
30
6.000016557204
11
3312.290464075916
21
-1126.011644075357
31
6.00001656511
0
LINE
8
0
10
3312.551516460662
20
-1126.028754347952
30
6.000016557204
11
3312.808102167337
21
-1126.079792413543
31
6.000016550652
0
LINE
8
0
10
3312.808102167337
20
-1126.079792413543
30
6.000016550652
11
3313.055830943362
21
-1126.163884996682
31
6.000016545566
0
LINE
8
0
10
3313.055830943362
20
-1126.163884996682
30
6.000016545566
11
3313.290464080697
21
-1126.27959324995
31
6.000016542035
0
LINE
8
0
10
3313.290464080697
20
-1126.27959324995
30
6.000016542035
11
3313.507986941306
21
-1126.424937373056
31
6.000016540116
0
LINE
8
0
10
3313.507986941306
20
-1126.424937373056
30
6.000016540116
11
3313.70467764874
21
-1126.597430487755
31
6.000016539841
0
LINE
8
0
10
3313.70467764874
20
-1126.597430487755
30
6.000016539841
11
3313.877170770459
21
-1126.794121189034
31
6.000016541218
0
LINE
8
0
10
3313.877170770459
20
-1126.794121189034
30
6.000016541218
11
3314.022514901324
21
-1127.011644044458
31
6.000016544222
0
LINE
8
0
10
3314.022514901324
20
-1127.011644044458
30
6.000016544222
11
3314.138223162963
21
-1127.246277177664
31
6.000016548802
0
LINE
8
0
10
3314.138223162963
20
-1127.246277177664
30
6.000016548802
11
3314.222315754938
21
-1127.494005950688
31
6.00001655488
0
LINE
8
0
10
3314.222315754938
20
-1127.494005950688
30
6.00001655488
11
3314.273353829686
21
-1127.750591655545
31
6.000016562351
0
LINE
8
0
10
3314.290464111596
20
-1128.011644039677
30
6.000016571087
11
3314.273353829686
21
-1127.750591655545
31
6.000016562351
0
LINE
8
0
10
3314.290464539733
20
-1152.011644039678
30
6.0000174256
11
3314.290464111596
21
-1128.011644039677
31
6.000016571087
0
LINE
8
0
10
3314.273354267136
20
-1152.272696424425
30
6.000017435374
11
3314.290464539733
21
-1152.011644039678
31
6.0000174256
0
LINE
8
0
10
3314.273354267136
20
-1152.272696424425
30
6.000017435374
11
3314.222316201543
21
-1152.529282131098
31
6.000017445939
0
LINE
8
0
10
3314.222316201543
20
-1152.529282131098
30
6.000017445939
11
3314.138223618408
21
-1152.777010907125
31
6.000017457117
0
LINE
8
0
10
3314.138223618408
20
-1152.777010907125
30
6.000017457117
11
3314.022515365139
21
-1153.011644044459
31
6.000017468713
0
LINE
8
0
10
3314.022515365139
20
-1153.011644044459
30
6.000017468713
11
3313.877171242033
21
-1153.22916690507
31
6.00001748053
0
LINE
8
0
10
3313.877171242033
20
-1153.22916690507
30
6.00001748053
11
3313.704678127334
21
-1153.425857612502
31
6.000017492368
0
LINE
8
0
10
3313.704678127334
20
-1153.425857612502
30
6.000017492368
11
3313.507987426054
21
-1153.598350734221
31
6.000017504022
0
LINE
8
0
10
3313.507987426054
20
-1153.598350734221
30
6.000017504022
11
3313.29046457063
21
-1153.743694865089
31
6.000017515291
0
LINE
8
0
10
3313.29046457063
20
-1153.743694865089
30
6.000017515291
11
3313.055831437424
21
-1153.859403126726
31
6.000017525985
0
LINE
8
0
10
3313.055831437424
20
-1153.859403126726
30
6.000017525985
11
3312.808102664397
21
-1153.943495718699
31
6.000017535921
0
LINE
8
0
10
3312.808102664397
20
-1153.943495718699
30
6.000017535921
11
3312.551516959544
21
-1153.994533793448
31
6.00001754493
0
LINE
8
0
10
3312.290464575409
20
-1154.011644075357
30
6.000017552853
11
3312.551516959544
21
-1153.994533793448
31
6.00001754493
0
LINE
8
0
10
3243.290464158248
20
-1154.01164530625
30
6.00001948639
11
3312.290464575409
21
-1154.011644075357
31
6.000017552853
0
LINE
8
0
10
3243.029411773502
20
-1153.994535033655
30
6.000019493302
11
3243.290464158248
21
-1154.01164530625
31
6.00001948639
0
LINE
8
0
10
3243.029411773502
20
-1153.994535033655
30
6.000019493302
11
3242.772826066828
21
-1153.943496968061
31
6.000019499286
0
LINE
8
0
10
3242.772826066828
20
-1153.943496968061
30
6.000019499286
11
3242.525097290803
21
-1153.859404384926
31
6.000019504241
0
LINE
8
0
10
3242.525097290803
20
-1153.859404384926
30
6.000019504241
11
3242.29046415347
21
-1153.743696131657
31
6.000019508082
0
LINE
8
0
10
3242.29046415347
20
-1153.743696131657
30
6.000019508082
11
3242.072941292857
21
-1153.598352008551
31
6.000019510744
0
LINE
8
0
10
3242.072941292857
20
-1153.598352008551
30
6.000019510744
11
3241.876250585426
21
-1153.425858893852
31
6.000019512179
0
LINE
8
0
10
3241.876250585426
20
-1153.425858893852
30
6.000019512179
11
3241.703757463708
21
-1153.229168192573
31
6.000019512365
0
LINE
8
0
10
3241.703757463708
20
-1153.229168192573
30
6.000019512365
11
3241.55841333284
21
-1153.011645337148
31
6.000019511297
0
LINE
8
0
10
3241.55841333284
20
-1153.011645337148
30
6.000019511297
11
3241.442705071202
21
-1152.777012203943
31
6.000019508997
0
LINE
8
0
10
3241.442705071202
20
-1152.777012203943
30
6.000019508997
11
3241.358612479225
21
-1152.529283430916
31
6.0000195055
0
LINE
8
0
10
3241.358612479225
20
-1152.529283430916
30
6.0000195055
11
3241.307574404479
21
-1152.272697726062
31
6.000019500867
0
LINE
8
0
10
3241.290464122572
20
-1152.011645341928
30
6.000019495179
11
3241.307574404479
21
-1152.272697726062
31
6.000019500867
0
LINE
8
0
10
3241.290463694434
20
-1128.011645341928
30
6.000018928096
11
3241.290464122572
21
-1152.011645341928
31
6.000019495179
0
ENDSEC
0
EOF
