0
SECTION
2
ENTITIES
0
LINE
8
0
10
3582.288535445655
20
-744.175766123616
30
6.000000691786
11
3582.220389693702
21
-743.65812696346
31
6.000000691787
0
LINE
8
0
10
3562.288535445645
20
-765.775772227123
30
6.000000691801
11
3562.288535445645
21
-764.275772227123
31
6.000000691801
0
LINE
8
0
10
3582.020591109705
20
-770.675766123616
30
6.000000691787
11
3581.702750533534
21
-770.261551035725
31
6.000000691787
0
LINE
8
0
10
3580.288535445638
20
-782.175766123615
30
6.000000691788
11
3580.806174605794
21
-782.107620371662
31
6.000000691787
0
LINE
8
0
10
3562.288535445645
20
-764.275772227123
30
6.000000691801
11
3561.288535445646
21
-764.275772227122
31
6.000000691802
0
LINE
8
0
10
3582.288535445651
20
-752.675766123616
30
6.000000691786
11
3582.288535445655
21
-744.175766123616
31
6.000000691786
0
LINE
8
0
10
3580.288535445655
20
-742.175766123615
30
6.000000691788
11
3576.288535445656
21
-742.175766123613
31
6.000000691791
0
LINE
8
0
10
3580.806174605806
20
-754.607620371663
30
6.000000691787
11
3581.288535445651
21
-754.407821787678
31
6.000000691787
0
LINE
8
0
10
3565.288535445645
20
-764.275772227124
30
6.000000691799
11
3565.288535445645
21
-765.775772227124
31
6.000000691799
0
LINE
8
0
10
3582.0205911097
20
-781.175766123616
30
6.000000691787
11
3582.220389693685
21
-780.693405283772
31
6.000000691787
0
LINE
8
0
10
3580.806174605799
20
-769.743911875569
30
6.000000691787
11
3580.288535445643
21
-769.675766123615
31
6.000000691788
0
LINE
8
0
10
3580.28853544565
20
-754.675766123615
30
6.000000691788
11
3580.806174605806
21
-754.607620371663
31
6.000000691787
0
LINE
8
0
10
3581.288535445651
20
-754.407821787678
30
6.000000691787
11
3581.702750533541
21
-754.089981211506
31
6.000000691787
0
LINE
8
0
10
3581.702750533541
20
-754.089981211506
30
6.000000691787
11
3582.020591109713
21
-753.675766123616
31
6.000000691787
0
LINE
8
0
10
3581.702750533529
20
-781.589981211507
30
6.000000691787
11
3582.0205911097
21
-781.175766123616
31
6.000000691787
0
LINE
8
0
10
3581.702750533534
20
-770.261551035725
30
6.000000691787
11
3581.288535445643
21
-769.943710459553
31
6.000000691787
0
LINE
8
0
10
3582.220389693702
20
-743.65812696346
30
6.000000691787
11
3582.020591109718
21
-743.175766123616
31
6.000000691787
0
LINE
8
0
10
3582.22038969369
20
-771.15812696346
30
6.000000691787
11
3582.020591109705
21
-770.675766123616
31
6.000000691787
0
LINE
8
0
10
3565.288535445648
20
-758.575760020093
30
6.000000691799
11
3565.288535445648
21
-760.075760020093
31
6.000000691799
0
LINE
8
0
10
3561.288535445767
20
-494.275764597728
30
6.000000691802
11
3561.288535445769
21
-490.075767649486
31
6.000000691802
0
LINE
8
0
10
3576.28853544565
20
-754.675766123613
30
6.000000691791
11
3580.28853544565
21
-754.675766123615
31
6.000000691788
0
LINE
8
0
10
3565.288535445645
20
-765.775772227124
30
6.000000691799
11
3562.288535445645
21
-765.775772227123
31
6.000000691801
0
LINE
8
0
10
3576.288535445777
20
-472.175766123613
30
6.000000691791
11
3576.288535445799
21
-422.175766123613
31
6.000000691791
0
LINE
8
0
10
3576.288535445643
20
-769.675766123613
30
6.000000691791
11
3576.288535445646
21
-764.275772227129
31
6.000000691791
0
LINE
8
0
10
3565.288535445648
20
-760.075760020093
30
6.000000691799
11
3576.288535445648
21
-760.075760020098
31
6.000000691791
0
LINE
8
0
10
3378.788535445801
20
-418.175766123525
30
6.000000691935
11
3378.788535445799
21
-422.175766123525
31
6.000000691935
0
LINE
8
0
10
3391.288535445801
20
-418.17576612353
30
6.000000691926
11
3391.220387786499
21
-417.658127917048
31
6.000000691926
0
LINE
8
0
10
3565.288535445767
20
-494.27576459773
30
6.000000691799
11
3565.288535445767
21
-495.77576459773
31
6.000000691799
0
LINE
8
0
10
3582.288535445643
20
-771.675766123616
30
6.000000691786
11
3582.22038969369
21
-771.15812696346
31
6.000000691787
0
LINE
8
0
10
3582.020591109821
20
-511.175766123616
30
6.000000691787
11
3582.220389693807
21
-510.693405283772
31
6.000000691787
0
LINE
8
0
10
3581.702750533655
20
-500.261551035726
30
6.000000691787
11
3581.288535445764
21
-499.943718088948
31
6.000000691787
0
LINE
8
0
10
3582.28853544576
20
-510.175766123616
30
6.000000691786
11
3582.288535445764
21
-501.675766123616
31
6.000000691786
0
LINE
8
0
10
3581.288535445638
20
-781.907821787678
30
6.000000691787
11
3581.702750533529
21
-781.589981211507
31
6.000000691787
0
LINE
8
0
10
3582.288535445639
20
-780.175766123616
30
6.000000691786
11
3582.288535445643
21
-771.675766123616
31
6.000000691786
0
LINE
8
0
10
3581.288535445656
20
-742.443710459553
30
6.000000691787
11
3580.806174605812
21
-742.243911875569
31
6.000000691787
0
LINE
8
0
10
3582.020591109835
20
-483.675766123616
30
6.000000691787
11
3582.220389693819
21
-483.193405283772
31
6.000000691787
0
LINE
8
0
10
3576.288535445764
20
-499.675766123613
30
6.000000691791
11
3576.288535445767
21
-494.275764597734
31
6.000000691791
0
LINE
8
0
10
3581.288535445643
20
-769.943710459553
30
6.000000691787
11
3580.806174605799
21
-769.743911875569
31
6.000000691787
0
LINE
8
0
10
3581.702750533662
20
-484.089981211507
30
6.000000691787
11
3582.020591109835
21
-483.675766123616
31
6.000000691787
0
LINE
8
0
10
3580.806174605812
20
-742.243911875569
30
6.000000691787
11
3580.288535445655
21
-742.175766123615
31
6.000000691788
0
LINE
8
0
10
3391.220387786499
20
-417.658127917048
30
6.000000691926
11
3391.020585387818
21
-417.17576612353
31
6.000000691926
0
LINE
8
0
10
3576.288535445646
20
-764.275772227129
30
6.000000691791
11
3565.288535445645
21
-764.275772227124
31
6.000000691799
0
LINE
8
0
10
3582.220389693823
20
-473.65812696346
30
6.000000691787
11
3582.020591109839
21
-473.175766123616
31
6.000000691787
0
LINE
8
0
10
3561.288535445646
20
-764.275772227122
30
6.000000691802
11
3561.288535445648
21
-760.075760020091
31
6.000000691802
0
LINE
8
0
10
3582.020591109826
20
-500.675766123616
30
6.000000691787
11
3581.702750533655
21
-500.261551035726
31
6.000000691787
0
LINE
8
0
10
3380.27089723932
20
-416.243914259664
30
6.000000691934
11
3379.788535445802
21
-416.443715227834
31
6.000000691934
0
LINE
8
0
10
3391.020585387818
20
-417.17576612353
30
6.000000691926
11
3390.702748626344
21
-416.761552466151
31
6.000000691927
0
LINE
8
0
10
3581.70275053365
20
-511.589981211507
30
6.000000691787
11
3582.020591109821
21
-511.175766123616
31
6.000000691787
0
LINE
8
0
10
3576.288535445648
20
-760.075760020098
30
6.000000691791
11
3576.28853544565
21
-754.675766123613
31
6.000000691791
0
LINE
8
0
10
3389.288535445803
20
-416.17576612353
30
6.000000691927
11
3380.788535445802
21
-416.175766123526
31
6.000000691933
0
LINE
8
0
10
3580.288535445765
20
-499.675766123615
30
6.000000691788
11
3576.288535445764
21
-499.675766123613
31
6.000000691791
0
LINE
8
0
10
3580.288535445777
20
-472.175766123615
30
6.000000691788
11
3576.288535445777
21
-472.175766123613
31
6.000000691791
0
LINE
8
0
10
3581.288535445764
20
-499.943718088948
30
6.000000691787
11
3580.806174605921
21
-499.743911875569
31
6.000000691787
0
LINE
8
0
10
3580.288535445771
20
-484.675766123615
30
6.000000691788
11
3580.806174605927
21
-484.607616556966
31
6.000000691787
0
LINE
8
0
10
3580.806174605921
20
-499.743911875569
30
6.000000691787
11
3580.288535445765
21
-499.675766123615
31
6.000000691788
0
LINE
8
0
10
3378.85668358194
20
-417.658127917043
30
6.000000691935
11
3378.788535445801
21
-418.175766123525
31
6.000000691935
0
LINE
8
0
10
3380.788535445802
20
-416.175766123526
30
6.000000691933
11
3380.27089723932
21
-416.243914259664
31
6.000000691934
0
LINE
8
0
10
3582.288535445772
20
-482.675766123616
30
6.000000691786
11
3582.288535445776
21
-474.175766123616
31
6.000000691786
0
LINE
8
0
10
3576.288535445637
20
-782.175766123613
30
6.000000691791
11
3580.288535445638
21
-782.175766123615
31
6.000000691788
0
LINE
8
0
10
3562.288535445648
20
-758.575760020092
30
6.000000691801
11
3565.288535445648
21
-758.575760020093
31
6.000000691799
0
LINE
8
0
10
3581.702750533667
20
-472.761551035726
30
6.000000691787
11
3581.288535445777
21
-472.44371427425
31
6.000000691787
0
LINE
8
0
10
3582.020591109839
20
-473.175766123616
30
6.000000691787
11
3581.702750533667
21
-472.761551035726
31
6.000000691787
0
LINE
8
0
10
3580.288535445759
20
-512.175766123615
30
6.000000691788
11
3580.806174605916
21
-512.107620371663
31
6.000000691787
0
LINE
8
0
10
3582.220389693698
20
-753.193405283772
30
6.000000691787
11
3582.288535445651
21
-752.675766123616
31
6.000000691786
0
LINE
8
0
10
3562.288535445648
20
-760.075760020092
30
6.000000691801
11
3562.288535445648
21
-758.575760020092
31
6.000000691801
0
LINE
8
0
10
3561.288535445769
20
-490.075767649486
30
6.000000691802
11
3562.288535445769
21
-490.075767649486
31
6.000000691801
0
LINE
8
0
10
3562.288535445766
20
-495.775764597728
30
6.000000691801
11
3562.288535445768
21
-494.275764597728
31
6.000000691801
0
LINE
8
0
10
3582.220389693685
20
-780.693405283772
30
6.000000691787
11
3582.288535445639
21
-780.175766123616
31
6.000000691786
0
LINE
8
0
10
3374.888535350427
20
-433.175766123523
30
6.000000691938
11
3374.888535350425
21
-436.175766123523
31
6.000000691938
0
LINE
8
0
10
3576.288535445772
20
-484.675766123613
30
6.000000691791
11
3580.288535445771
21
-484.675766123615
31
6.000000691788
0
LINE
8
0
10
3580.288535445643
20
-769.675766123615
30
6.000000691788
11
3576.288535445643
21
-769.675766123613
31
6.000000691791
0
LINE
8
0
10
3576.288535445799
20
-422.175766123613
30
6.000000691791
11
3391.288535445799
21
-422.17576612353
31
6.000000691926
0
LINE
8
0
10
3582.288535445776
20
-474.175766123616
30
6.000000691786
11
3582.220389693823
21
-473.65812696346
31
6.000000691787
0
LINE
8
0
10
3565.288535445767
20
-495.77576459773
30
6.000000691799
11
3562.288535445766
21
-495.775764597728
31
6.000000691801
0
LINE
8
0
10
3582.020591109718
20
-743.175766123616
30
6.000000691787
11
3581.702750533546
21
-742.761551035725
31
6.000000691787
0
LINE
8
0
10
3580.806174605916
20
-512.107620371663
30
6.000000691787
11
3581.288535445759
21
-511.907814158284
31
6.000000691787
0
LINE
8
0
10
3580.806174605794
20
-782.107620371662
30
6.000000691787
11
3581.288535445638
21
-781.907821787678
31
6.000000691787
0
LINE
8
0
10
3561.288535445648
20
-760.075760020091
30
6.000000691802
11
3562.288535445648
21
-760.075760020092
31
6.000000691801
0
LINE
8
0
10
3581.288535445759
20
-511.907814158284
30
6.000000691787
11
3581.70275053365
21
-511.589981211507
31
6.000000691787
0
LINE
8
0
10
3581.702750533546
20
-742.761551035725
30
6.000000691787
11
3581.288535445656
21
-742.443710459553
31
6.000000691787
0
LINE
8
0
10
3562.288535445769
20
-490.075767649486
30
6.000000691801
11
3562.288535445769
21
-488.575767649486
31
6.000000691801
0
LINE
8
0
10
3576.288535445767
20
-494.275764597734
30
6.000000691791
11
3565.288535445767
21
-494.27576459773
31
6.000000691799
0
LINE
8
0
10
3580.806174605927
20
-484.607616556966
30
6.000000691787
11
3581.288535445772
21
-484.407817972981
31
6.000000691787
0
LINE
8
0
10
3166.288535445777
20
-472.175766123429
30
6.00000069209
11
3162.288535445777
21
-472.175766123427
31
6.000000692093
0
LINE
8
0
10
3378.788535445799
20
-422.175766123525
30
6.000000691935
11
3373.388535350432
21
-422.175766123523
31
6.000000691939
0
LINE
8
0
10
3177.288535445766
20
-495.775764597555
30
6.000000692083
11
3177.288535445767
21
-494.275764597555
31
6.000000692083
0
LINE
8
0
10
3582.220389693807
20
-510.693405283772
30
6.000000691787
11
3582.28853544576
21
-510.175766123616
31
6.000000691786
0
LINE
8
0
10
3177.288535445769
20
-488.575767649313
30
6.000000692083
11
3180.288535445769
21
-488.575767649315
31
6.000000692081
0
LINE
8
0
10
3181.288535445767
20
-494.275764597557
30
6.000000692079
11
3180.288535445767
21
-494.275764597557
31
6.000000692081
0
LINE
8
0
10
3180.288535445767
20
-494.275764597557
30
6.000000692081
11
3180.288535445766
21
-495.775764597557
31
6.000000692081
0
LINE
8
0
10
3565.288535445769
20
-490.075767649487
30
6.000000691799
11
3576.288535445769
21
-490.075767649492
31
6.000000691791
0
LINE
8
0
10
3160.556479781575
20
-781.175766123426
30
6.000000692094
11
3160.874320357747
21
-781.589981211317
31
6.000000692095
0
LINE
8
0
10
3363.720387309662
20
-417.658127917036
30
6.000000691946
11
3363.520586341493
21
-417.175766123518
31
6.000000691947
0
LINE
8
0
10
3363.788535445799
20
-422.175766123518
30
6.000000691946
11
3363.788535445801
21
-418.175766123518
31
6.000000691946
0
LINE
8
0
10
3581.288535445777
20
-472.44371427425
30
6.000000691787
11
3580.806174605933
21
-472.243915690267
31
6.000000691787
0
LINE
8
0
10
3576.288535445758
20
-512.175766123613
30
6.000000691791
11
3580.288535445759
21
-512.175766123615
31
6.000000691788
0
LINE
8
0
10
3353.288535445802
20
-416.175766123514
30
6.000000691954
11
3352.770898192995
21
-416.243914259652
31
6.000000691954
0
LINE
8
0
10
3373.388535350426
20
-436.175766123522
30
6.000000691939
11
3373.388535350426
21
-437.175766123522
31
6.000000691939
0
LINE
8
0
10
3351.556485503786
20
-417.175766123512
30
6.000000691955
11
3351.356683105103
21
-417.65812791703
31
6.000000691955
0
LINE
8
0
10
3363.520586341493
20
-417.175766123518
30
6.000000691947
11
3363.202748626344
21
-416.761552466139
31
6.000000691947
0
LINE
8
0
10
3373.388535350426
20
-437.175766123522
30
6.000000691939
11
3369.18853554116
21
-437.17576612352
31
6.000000691942
0
LINE
8
0
10
3362.306173652285
20
-416.243914259656
30
6.000000691947
11
3361.788535445802
21
-416.175766123517
31
6.000000691947
0
LINE
8
0
10
3166.288535445771
20
-484.675766123429
30
6.00000069209
11
3166.288535445769
21
-490.075767649308
31
6.00000069209
0
LINE
8
0
10
3160.288535445772
20
-482.675766123426
30
6.000000692095
11
3160.356681197725
21
-483.193405283583
31
6.000000692095
0
LINE
8
0
10
3160.556479781714
20
-473.175766123426
30
6.000000692094
11
3160.356681197729
21
-473.65812696327
31
6.000000692095
0
LINE
8
0
10
3161.288535445771
20
-484.407817972792
30
6.000000692094
11
3161.770896285615
21
-484.607616556777
31
6.000000692094
0
LINE
8
0
10
3369.188535541167
20
-422.17576612352
30
6.000000691942
11
3363.788535445799
21
-422.175766123518
31
6.000000691946
0
LINE
8
0
10
3374.888535350425
20
-436.175766123523
30
6.000000691938
11
3373.388535350426
21
-436.175766123522
31
6.000000691939
0
LINE
8
0
10
3562.288535445769
20
-488.575767649486
30
6.000000691801
11
3565.28853544577
21
-488.575767649487
31
6.000000691799
0
LINE
8
0
10
3576.288535445769
20
-490.075767649492
30
6.000000691791
11
3576.288535445772
21
-484.675766123613
31
6.000000691791
0
LINE
8
0
10
3562.288535445768
20
-494.275764597728
30
6.000000691801
11
3561.288535445767
21
-494.275764597728
31
6.000000691802
0
LINE
8
0
10
3582.020591109713
20
-753.675766123616
30
6.000000691787
11
3582.220389693698
21
-753.193405283772
31
6.000000691787
0
LINE
8
0
10
3581.288535445772
20
-484.407817972981
30
6.000000691787
11
3581.702750533662
21
-484.089981211507
31
6.000000691787
0
LINE
8
0
10
3580.806174605933
20
-472.243915690267
30
6.000000691787
11
3580.288535445777
21
-472.175766123615
31
6.000000691788
0
LINE
8
0
10
3582.220389693811
20
-501.15812696346
30
6.000000691787
11
3582.020591109826
21
-500.675766123616
31
6.000000691787
0
LINE
8
0
10
3576.288535445656
20
-742.175766123613
30
6.000000691791
11
3576.288535445758
21
-512.175766123613
31
6.000000691791
0
LINE
8
0
10
3389.80617269861
20
-416.243914259668
30
6.000000691927
11
3389.288535445803
21
-416.17576612353
31
6.000000691927
0
LINE
8
0
10
3166.288535445767
20
-494.27576459755
30
6.00000069209
11
3166.288535445764
21
-499.675766123429
31
6.00000069209
0
LINE
8
0
10
3166.288535445799
20
-422.175766123429
30
6.00000069209
11
3166.288535445777
21
-472.175766123429
31
6.00000069209
0
LINE
8
0
10
3363.788535445801
20
-418.175766123518
30
6.000000691946
11
3363.720387309662
21
-417.658127917036
31
6.000000691946
0
LINE
8
0
10
3565.28853544577
20
-488.575767649487
30
6.000000691799
11
3565.288535445769
21
-490.075767649487
31
6.000000691799
0
LINE
8
0
10
3373.388535350432
20
-422.175766123523
30
6.000000691939
11
3373.388535350427
21
-433.175766123522
31
6.000000691939
0
LINE
8
0
10
3160.356681197725
20
-483.193405283583
30
6.000000692095
11
3160.556479781709
21
-483.675766123426
31
6.000000692094
0
LINE
8
0
10
3369.188535541161
20
-433.175766123521
30
6.000000691942
11
3369.188535541167
21
-422.17576612352
31
6.000000691942
0
LINE
8
0
10
3362.788535445802
20
-416.443715227827
30
6.000000691947
11
3362.306173652285
21
-416.243914259656
31
6.000000691947
0
LINE
8
0
10
3351.288535445801
20
-418.175766123512
30
6.000000691955
11
3351.288535445799
21
-422.175766123512
31
6.000000691955
0
LINE
8
0
10
3160.556479781709
20
-483.675766123426
30
6.000000692094
11
3160.874320357881
21
-484.089981211317
31
6.000000692095
0
LINE
8
0
10
3582.288535445764
20
-501.675766123616
30
6.000000691786
11
3582.220389693811
21
-501.15812696346
31
6.000000691787
0
LINE
8
0
10
3166.288535445769
20
-490.075767649308
30
6.00000069209
11
3177.288535445769
21
-490.075767649313
31
6.000000692083
0
LINE
8
0
10
3180.288535445769
20
-488.575767649315
30
6.000000692081
11
3180.288535445769
21
-490.075767649315
31
6.000000692081
0
LINE
8
0
10
3369.18853554116
20
-436.175766123521
30
6.000000691942
11
3367.68853554116
21
-436.17576612352
31
6.000000691943
0
LINE
8
0
10
3351.356683105103
20
-417.65812791703
30
6.000000691955
11
3351.288535445801
21
-418.175766123512
31
6.000000691955
0
LINE
8
0
10
3162.288535445771
20
-484.675766123427
30
6.000000692093
11
3166.288535445771
21
-484.675766123429
31
6.00000069209
0
LINE
8
0
10
3379.056484550111
20
-417.175766123525
30
6.000000691935
11
3378.85668358194
21
-417.658127917043
31
6.000000691935
0
LINE
8
0
10
3161.288535445777
20
-472.443714274062
30
6.000000692094
11
3160.874320357886
21
-472.761551035536
31
6.000000692095
0
LINE
8
0
10
3379.37432226526
20
-416.761552466146
30
6.000000691934
11
3379.056484550111
21
-417.175766123525
31
6.000000691935
0
LINE
8
0
10
3181.288535445769
20
-490.075767649315
30
6.000000692079
11
3181.288535445767
21
-494.275764597557
31
6.000000692079
0
LINE
8
0
10
3582.220389693819
20
-483.193405283772
30
6.000000691787
11
3582.288535445772
21
-482.675766123616
31
6.000000691786
0
LINE
8
0
10
3391.288535445799
20
-422.17576612353
30
6.000000691926
11
3391.288535445801
21
-418.17576612353
31
6.000000691926
0
LINE
8
0
10
3373.388535350427
20
-433.175766123522
30
6.000000691939
11
3374.888535350427
21
-433.175766123523
31
6.000000691938
0
LINE
8
0
10
3351.288535445799
20
-422.175766123512
30
6.000000691955
11
3166.288535445799
21
-422.175766123429
31
6.00000069209
0
LINE
8
0
10
3361.788535445802
20
-416.175766123517
30
6.000000691947
11
3353.288535445802
21
-416.175766123514
31
6.000000691954
0
LINE
8
0
10
3177.288535445767
20
-494.275764597555
30
6.000000692083
11
3166.288535445767
21
-494.27576459755
31
6.00000069209
0
LINE
8
0
10
3162.288535445777
20
-472.175766123427
30
6.000000692093
11
3161.770896285621
21
-472.243915690078
31
6.000000692094
0
LINE
8
0
10
3160.288535445776
20
-474.175766123426
30
6.000000692095
11
3160.288535445772
21
-482.675766123426
31
6.000000692095
0
LINE
8
0
10
3161.770896285615
20
-484.607616556777
30
6.000000692094
11
3162.288535445771
21
-484.675766123427
31
6.000000692093
0
LINE
8
0
10
3160.356681197729
20
-473.65812696327
30
6.000000692095
11
3160.288535445776
21
-474.175766123426
31
6.000000692095
0
LINE
8
0
10
3177.288535445645
20
-765.77577222695
30
6.000000692083
11
3177.288535445646
21
-764.27577222695
31
6.000000692083
0
LINE
8
0
10
3160.874320357881
20
-484.089981211317
30
6.000000692095
11
3161.288535445771
21
-484.407817972792
31
6.000000692094
0
LINE
8
0
10
3180.288535445645
20
-765.775772226951
30
6.000000692081
11
3177.288535445645
21
-765.77577222695
31
6.000000692083
0
LINE
8
0
10
3166.28853544565
20
-754.675766123429
30
6.00000069209
11
3166.288535445648
21
-760.075760019913
31
6.00000069209
0
LINE
8
0
10
3160.288535445651
20
-752.675766123426
30
6.000000692095
11
3160.356681197603
21
-753.193405283583
31
6.000000692095
0
LINE
8
0
10
3367.68853554116
20
-436.17576612352
30
6.000000691943
11
3367.688535541162
21
-433.17576612352
31
6.000000691943
0
LINE
8
0
10
3166.288535445643
20
-769.675766123429
30
6.00000069209
11
3162.288535445643
21
-769.675766123427
31
6.000000692093
0
LINE
8
0
10
3160.288535445642
20
-771.675766123426
30
6.000000692095
11
3160.288535445639
21
-780.175766123426
31
6.000000692095
0
LINE
8
0
10
3369.18853554116
20
-437.17576612352
30
6.000000691942
11
3369.18853554116
21
-436.175766123521
31
6.000000691942
0
LINE
8
0
10
3166.288535445638
20
-782.175766123429
30
6.00000069209
11
3166.288535445615
21
-832.175785622953
31
6.00000069209
0
LINE
8
0
10
3162.288535445764
20
-499.675766123427
30
6.000000692093
11
3161.770896285608
21
-499.74391187538
31
6.000000692094
0
LINE
8
0
10
3180.288535445646
20
-764.275772226951
30
6.000000692081
11
3180.288535445645
21
-765.775772226951
31
6.000000692081
0
LINE
8
0
10
3180.288535445769
20
-490.075767649315
30
6.000000692081
11
3181.288535445769
21
-490.075767649315
31
6.000000692079
0
LINE
8
0
10
3161.770896285494
20
-754.607620371474
30
6.000000692094
11
3162.28853544565
21
-754.675766123427
31
6.000000692093
0
LINE
8
0
10
3166.288535445615
20
-832.175785622953
30
6.00000069209
11
3576.288535445616
21
-832.175785623137
31
6.000000691791
0
LINE
8
0
10
3576.288535445616
20
-832.175785623137
30
6.000000691791
11
3576.288535445637
21
-782.175766123613
31
6.000000691791
0
LINE
8
0
10
3390.702748626344
20
-416.761552466151
30
6.000000691927
11
3390.288535445802
21
-416.443715227839
31
6.000000691927
0
LINE
8
0
10
3390.288535445802
20
-416.443715227839
30
6.000000691927
11
3389.80617269861
21
-416.243914259668
31
6.000000691927
0
LINE
8
0
10
3379.788535445802
20
-416.443715227834
30
6.000000691934
11
3379.37432226526
21
-416.761552466146
31
6.000000691934
0
LINE
8
0
10
3367.688535541162
20
-433.17576612352
30
6.000000691943
11
3369.188535541161
21
-433.175766123521
31
6.000000691942
0
LINE
8
0
10
3363.202748626344
20
-416.761552466139
30
6.000000691947
11
3362.788535445802
21
-416.443715227827
31
6.000000691947
0
LINE
8
0
10
3352.770898192995
20
-416.243914259652
30
6.000000691954
11
3352.288535445802
21
-416.443715227822
31
6.000000691955
0
LINE
8
0
10
3352.288535445802
20
-416.443715227822
30
6.000000691955
11
3351.87432226526
21
-416.761552466133
31
6.000000691955
0
LINE
8
0
10
3351.87432226526
20
-416.761552466133
30
6.000000691955
11
3351.556485503786
21
-417.175766123512
31
6.000000691955
0
LINE
8
0
10
3161.770896285621
20
-472.243915690078
30
6.000000692094
11
3161.288535445777
21
-472.443714274062
31
6.000000692094
0
LINE
8
0
10
3160.874320357886
20
-472.761551035536
30
6.000000692095
11
3160.556479781714
21
-473.175766123426
31
6.000000692094
0
LINE
8
0
10
3177.288535445769
20
-490.075767649313
30
6.000000692083
11
3177.288535445769
21
-488.575767649313
31
6.000000692083
0
LINE
8
0
10
3180.288535445766
20
-495.775764597557
30
6.000000692081
11
3177.288535445766
21
-495.775764597555
31
6.000000692083
0
LINE
8
0
10
3166.288535445764
20
-499.675766123429
30
6.00000069209
11
3162.288535445764
21
-499.675766123427
31
6.000000692093
0
LINE
8
0
10
3161.770896285608
20
-499.74391187538
30
6.000000692094
11
3161.288535445764
21
-499.943718088759
31
6.000000692094
0
LINE
8
0
10
3161.288535445764
20
-499.943718088759
30
6.000000692094
11
3160.874320357874
21
-500.261551035536
31
6.000000692095
0
LINE
8
0
10
3160.874320357874
20
-500.261551035536
30
6.000000692095
11
3160.556479781701
21
-500.675766123427
31
6.000000692094
0
LINE
8
0
10
3160.556479781701
20
-500.675766123427
30
6.000000692094
11
3160.356681197717
21
-501.15812696327
31
6.000000692095
0
LINE
8
0
10
3160.356681197717
20
-501.15812696327
30
6.000000692095
11
3160.288535445764
21
-501.675766123427
31
6.000000692095
0
LINE
8
0
10
3160.288535445764
20
-501.675766123427
30
6.000000692095
11
3160.28853544576
21
-510.175766123427
31
6.000000692095
0
LINE
8
0
10
3160.28853544576
20
-510.175766123427
30
6.000000692095
11
3160.356681197713
21
-510.693405283583
31
6.000000692095
0
LINE
8
0
10
3160.356681197713
20
-510.693405283583
30
6.000000692095
11
3160.556479781697
21
-511.175766123427
31
6.000000692094
0
LINE
8
0
10
3160.556479781697
20
-511.175766123427
30
6.000000692094
11
3160.874320357869
21
-511.589981211317
31
6.000000692095
0
LINE
8
0
10
3160.874320357869
20
-511.589981211317
30
6.000000692095
11
3161.288535445759
21
-511.907814158095
31
6.000000692094
0
LINE
8
0
10
3161.288535445759
20
-511.907814158095
30
6.000000692094
11
3161.770896285603
21
-512.107620371474
31
6.000000692094
0
LINE
8
0
10
3161.770896285603
20
-512.107620371474
30
6.000000692094
11
3162.288535445759
21
-512.175766123427
31
6.000000692093
0
LINE
8
0
10
3162.288535445759
20
-512.175766123427
30
6.000000692093
11
3166.288535445759
21
-512.175766123429
31
6.00000069209
0
LINE
8
0
10
3166.288535445759
20
-512.175766123429
30
6.00000069209
11
3166.288535445655
21
-742.175766123429
31
6.00000069209
0
LINE
8
0
10
3166.288535445655
20
-742.175766123429
30
6.00000069209
11
3162.288535445656
21
-742.175766123427
31
6.000000692093
0
LINE
8
0
10
3162.288535445656
20
-742.175766123427
30
6.000000692093
11
3161.770896285499
21
-742.24391187538
31
6.000000692094
0
LINE
8
0
10
3161.770896285499
20
-742.24391187538
30
6.000000692094
11
3161.288535445655
21
-742.443710459364
31
6.000000692094
0
LINE
8
0
10
3161.288535445655
20
-742.443710459364
30
6.000000692094
11
3160.874320357765
21
-742.761551035536
31
6.000000692095
0
LINE
8
0
10
3160.874320357765
20
-742.761551035536
30
6.000000692095
11
3160.556479781593
21
-743.175766123427
31
6.000000692094
0
LINE
8
0
10
3160.556479781593
20
-743.175766123427
30
6.000000692094
11
3160.356681197608
21
-743.65812696327
31
6.000000692095
0
LINE
8
0
10
3160.356681197608
20
-743.65812696327
30
6.000000692095
11
3160.288535445654
21
-744.175766123426
31
6.000000692095
0
LINE
8
0
10
3160.288535445654
20
-744.175766123426
30
6.000000692095
11
3160.288535445651
21
-752.675766123426
31
6.000000692095
0
LINE
8
0
10
3160.356681197603
20
-753.193405283583
30
6.000000692095
11
3160.556479781588
21
-753.675766123427
31
6.000000692094
0
LINE
8
0
10
3160.556479781588
20
-753.675766123427
30
6.000000692094
11
3160.87432035776
21
-754.089981211318
31
6.000000692095
0
LINE
8
0
10
3160.87432035776
20
-754.089981211318
30
6.000000692095
11
3161.28853544565
21
-754.407821787489
31
6.000000692094
0
LINE
8
0
10
3161.28853544565
20
-754.407821787489
30
6.000000692094
11
3161.770896285494
21
-754.607620371474
31
6.000000692094
0
LINE
8
0
10
3162.28853544565
20
-754.675766123427
30
6.000000692093
11
3166.28853544565
21
-754.675766123429
31
6.00000069209
0
LINE
8
0
10
3166.288535445648
20
-760.075760019913
30
6.00000069209
11
3177.288535445648
21
-760.075760019918
31
6.000000692083
0
LINE
8
0
10
3177.288535445648
20
-760.075760019918
30
6.000000692083
11
3177.288535445648
21
-758.575760019919
31
6.000000692083
0
LINE
8
0
10
3177.288535445648
20
-758.575760019919
30
6.000000692083
11
3180.288535445648
21
-758.57576001992
31
6.000000692081
0
LINE
8
0
10
3180.288535445648
20
-758.57576001992
30
6.000000692081
11
3180.288535445648
21
-760.07576001992
31
6.000000692081
0
LINE
8
0
10
3180.288535445648
20
-760.07576001992
30
6.000000692081
11
3181.288535445648
21
-760.07576001992
31
6.000000692079
0
LINE
8
0
10
3181.288535445648
20
-760.07576001992
30
6.000000692079
11
3181.288535445646
21
-764.275772226952
31
6.000000692079
0
LINE
8
0
10
3181.288535445646
20
-764.275772226952
30
6.000000692079
11
3180.288535445646
21
-764.275772226951
31
6.000000692081
0
LINE
8
0
10
3177.288535445646
20
-764.27577222695
30
6.000000692083
11
3166.288535445646
21
-764.275772226945
31
6.00000069209
0
LINE
8
0
10
3166.288535445646
20
-764.275772226945
30
6.00000069209
11
3166.288535445643
21
-769.675766123429
31
6.00000069209
0
LINE
8
0
10
3162.288535445643
20
-769.675766123427
30
6.000000692093
11
3161.770896285487
21
-769.743911875381
31
6.000000692094
0
LINE
8
0
10
3161.770896285487
20
-769.743911875381
30
6.000000692094
11
3161.288535445643
21
-769.943710459364
31
6.000000692094
0
LINE
8
0
10
3161.288535445643
20
-769.943710459364
30
6.000000692094
11
3160.874320357752
21
-770.261551035536
31
6.000000692095
0
LINE
8
0
10
3160.874320357752
20
-770.261551035536
30
6.000000692095
11
3160.55647978158
21
-770.675766123427
31
6.000000692094
0
LINE
8
0
10
3160.55647978158
20
-770.675766123427
30
6.000000692094
11
3160.356681197596
21
-771.15812696327
31
6.000000692095
0
LINE
8
0
10
3160.356681197596
20
-771.15812696327
30
6.000000692095
11
3160.288535445642
21
-771.675766123426
31
6.000000692095
0
LINE
8
0
10
3160.288535445639
20
-780.175766123426
30
6.000000692095
11
3160.356681197592
21
-780.693405283583
31
6.000000692095
0
LINE
8
0
10
3160.356681197592
20
-780.693405283583
30
6.000000692095
11
3160.556479781575
21
-781.175766123426
31
6.000000692094
0
LINE
8
0
10
3160.874320357747
20
-781.589981211317
30
6.000000692095
11
3161.288535445638
21
-781.907821787489
31
6.000000692094
0
LINE
8
0
10
3161.288535445638
20
-781.907821787489
30
6.000000692094
11
3161.770896285481
21
-782.107620371474
31
6.000000692094
0
LINE
8
0
10
3161.770896285481
20
-782.107620371474
30
6.000000692094
11
3162.288535445638
21
-782.175766123427
31
6.000000692093
0
LINE
8
0
10
3162.288535445638
20
-782.175766123427
30
6.000000692093
11
3166.288535445638
21
-782.175766123429
31
6.00000069209
0
ENDSEC
0
EOF
