0
SECTION
2
ENTITIES
0
LINE
8
0
10
2586.954518561019
20
-1632.376792483512
30
5.999960720122
11
2586.744727659833
21
-1631.870312483996
31
5.999960772756
0
LINE
8
0
10
2586.744727659833
20
-1631.870312483996
30
5.999960772756
11
2586.410998540419
21
-1631.43538825268
31
5.999960819762
0
LINE
8
0
10
2586.410998540419
20
-1631.43538825268
30
5.999960819762
11
2585.976074290752
21
-1631.101659157183
31
5.999960857939
0
LINE
8
0
10
2585.976074290752
20
-1631.101659157183
30
5.999960857939
11
2585.469594279698
21
-1630.891868283849
31
5.999960884685
0
LINE
8
0
10
2585.469594279698
20
-1630.891868283849
30
5.999960884685
11
2584.926074283016
21
-1630.820312534
31
5.999960898177
0
LINE
8
0
10
2584.926074283016
20
-1630.820312534
30
5.999960898177
11
2584.382554290268
21
-1630.891868313737
31
5.999960897496
0
LINE
8
0
10
2584.382554290268
20
-1630.891868313737
30
5.999960897496
11
2583.876074290752
21
-1631.101659214923
31
5.999960882686
0
LINE
8
0
10
2583.876074290752
20
-1631.101659214923
30
5.999960882686
11
2583.441150059436
21
-1631.435388334336
31
5.999960854761
0
LINE
8
0
10
2583.441150059436
20
-1631.435388334336
30
5.999960854761
11
2583.107420963938
21
-1631.870312584005
31
5.999960815619
0
LINE
8
0
10
2583.107420963938
20
-1631.870312584005
30
5.999960815619
11
2582.897630090604
21
-1632.376792595058
31
5.999960767932
0
LINE
8
0
10
2582.897630090604
20
-1632.376792595058
30
5.999960767932
11
2582.826074340756
21
-1632.92031259174
31
5.999960714946
0
LINE
8
0
10
2582.826074340756
20
-1632.92031259174
30
5.999960714946
11
2582.897630120493
21
-1633.463832584488
31
5.999960660274
0
LINE
8
0
10
2582.897630120493
20
-1633.463832584488
30
5.999960660274
11
2583.107421021678
21
-1633.970312584004
31
5.999960607641
0
LINE
8
0
10
2583.107421021678
20
-1633.970312584004
30
5.999960607641
11
2583.441150141092
21
-1634.40523681532
31
5.999960560634
0
LINE
8
0
10
2583.441150141092
20
-1634.40523681532
30
5.999960560634
11
2583.87607439076
21
-1634.738965910817
31
5.999960522457
0
LINE
8
0
10
2583.87607439076
20
-1634.738965910817
30
5.999960522457
11
2584.382554401813
21
-1634.948756784151
31
5.999960495712
0
LINE
8
0
10
2584.382554401813
20
-1634.948756784151
30
5.999960495712
11
2584.926074398496
21
-1635.020312534
31
5.99996048222
0
LINE
8
0
10
2584.926074398496
20
-1635.020312534
30
5.99996048222
11
2585.469594391243
21
-1634.948756754263
31
5.999960482901
0
LINE
8
0
10
2585.469594391243
20
-1634.948756754263
30
5.999960482901
11
2585.97607439076
21
-1634.738965853077
31
5.99996049771
0
LINE
8
0
10
2585.97607439076
20
-1634.738965853077
30
5.99996049771
11
2586.410998622076
21
-1634.405236733663
31
5.999960525636
0
LINE
8
0
10
2586.410998622076
20
-1634.405236733663
30
5.999960525636
11
2586.744727717573
21
-1633.970312483995
31
5.999960564777
0
LINE
8
0
10
2586.744727717573
20
-1633.970312483995
30
5.999960564777
11
2586.954518590907
21
-1633.463832472943
31
5.999960612465
0
LINE
8
0
10
2586.954518590907
20
-1633.463832472943
30
5.999960612465
11
2587.026074340756
21
-1632.92031247626
31
5.999960665451
0
LINE
8
0
10
2587.026074340756
20
-1632.92031247626
30
5.999960665451
11
2586.954518561019
21
-1632.376792483512
31
5.999960720122
0
LINE
8
0
10
2329.10740744702
20
-1631.870316369442
30
5.999966139289
11
2328.897616573686
21
-1632.376796380495
31
5.999966091601
0
LINE
8
0
10
2328.897616573686
20
-1632.376796380495
30
5.999966091601
11
2328.826060823837
21
-1632.920316377178
31
5.999966038616
0
LINE
8
0
10
2328.826060823837
20
-1632.920316377178
30
5.999966038616
11
2328.897616603575
21
-1633.463836369926
31
5.999965983943
0
LINE
8
0
10
2328.897616603575
20
-1633.463836369926
30
5.999965983943
11
2329.10740750476
21
-1633.970316369442
31
5.99996593131
0
LINE
8
0
10
2329.10740750476
20
-1633.970316369442
30
5.99996593131
11
2329.441136624174
21
-1634.405240600758
31
5.999965884304
0
LINE
8
0
10
2329.441136624174
20
-1634.405240600758
30
5.999965884304
11
2329.876060873842
21
-1634.738969696255
31
5.999965846126
0
LINE
8
0
10
2329.876060873842
20
-1634.738969696255
30
5.999965846126
11
2330.382540884895
21
-1634.948760569589
31
5.999965819381
0
LINE
8
0
10
2330.382540884895
20
-1634.948760569589
30
5.999965819381
11
2330.926060881578
21
-1635.020316319438
31
5.999965805888
0
LINE
8
0
10
2330.926060881578
20
-1635.020316319438
30
5.999965805888
11
2331.469580874325
21
-1634.948760539701
31
5.999965806571
0
LINE
8
0
10
2331.469580874325
20
-1634.948760539701
30
5.999965806571
11
2331.976060873842
21
-1634.738969638515
31
5.999965821379
0
LINE
8
0
10
2331.976060873842
20
-1634.738969638515
30
5.999965821379
11
2332.410985105157
21
-1634.405240519101
31
5.999965849305
0
LINE
8
0
10
2332.410985105157
20
-1634.405240519101
30
5.999965849305
11
2332.744714200654
21
-1633.970316269433
31
5.999965888446
0
LINE
8
0
10
2332.744714200654
20
-1633.970316269433
30
5.999965888446
11
2332.954505073988
21
-1633.463836258381
31
5.999965936134
0
LINE
8
0
10
2332.954505073988
20
-1633.463836258381
30
5.999965936134
11
2333.026060823837
21
-1632.920316261698
31
5.99996598912
0
LINE
8
0
10
2333.026060823837
20
-1632.920316261698
30
5.99996598912
11
2332.9545050441
21
-1632.376796268951
31
5.999966043792
0
LINE
8
0
10
2332.9545050441
20
-1632.376796268951
30
5.999966043792
11
2332.744714142914
21
-1631.870316269434
31
5.999966096425
0
LINE
8
0
10
2332.744714142914
20
-1631.870316269434
30
5.999966096425
11
2332.4109850235
21
-1631.435392038118
31
5.999966143431
0
LINE
8
0
10
2332.4109850235
20
-1631.435392038118
30
5.999966143431
11
2331.976060773833
21
-1631.101662942621
31
5.999966181609
0
LINE
8
0
10
2331.976060773833
20
-1631.101662942621
30
5.999966181609
11
2331.46958076278
21
-1630.891872069287
31
5.999966208354
0
LINE
8
0
10
2331.46958076278
20
-1630.891872069287
30
5.999966208354
11
2330.926060766097
21
-1630.820316319438
31
5.999966221847
0
LINE
8
0
10
2330.926060766097
20
-1630.820316319438
30
5.999966221847
11
2330.382540773349
21
-1630.891872099176
31
5.999966221165
0
LINE
8
0
10
2330.382540773349
20
-1630.891872099176
30
5.999966221165
11
2329.876060773833
21
-1631.101663000361
31
5.999966206356
0
LINE
8
0
10
2329.876060773833
20
-1631.101663000361
30
5.999966206356
11
2329.441136542517
21
-1631.435392119775
31
5.99996617843
0
LINE
8
0
10
2329.441136542517
20
-1631.435392119775
30
5.99996617843
11
2329.10740744702
21
-1631.870316369442
31
5.999966139289
0
LINE
8
0
10
2270.226067353415
20
-1449.189118663246
30
5.999982862565
11
2270.443590214217
21
-1449.334462786062
31
5.999982845935
0
LINE
8
0
10
2270.443590214217
20
-1449.334462786062
30
5.999982845935
11
2270.640280921878
21
-1449.506955900503
31
5.999982827224
0
LINE
8
0
10
2277.92605479172
20
-1228.921169328167
30
6.000002371609
11
2271.726064178346
21
-1228.921169492416
31
6.00000247421
0
LINE
8
0
10
2261.5783040939
20
-1504.686536520901
30
5.99997807809
11
2261.694012358347
21
-1504.921169652725
31
5.999978055389
0
LINE
8
0
10
2261.426063136112
20
-1503.921169660709
30
5.999978148785
11
2261.443173421145
21
-1504.182222044641
31
5.999978125191
0
LINE
8
0
10
2261.943164777161
20
-1215.660117271069
30
6.000003875088
11
2261.994202839684
21
-1215.403531563782
31
6.000003897267
0
LINE
8
0
10
2263.426061452252
20
-1448.921169601104
30
5.999983000222
11
2263.165009068322
21
-1448.938279886135
31
5.99998300258
0
LINE
8
0
10
2262.908423364078
20
-1448.989317963954
30
5.999983001838
11
2263.165009068322
21
-1448.938279886135
31
5.99998300258
0
LINE
8
0
10
2262.339347790821
20
-1214.703646785685
30
6.000003954699
11
2262.511840903168
21
-1214.506956076188
31
6.000003969717
0
LINE
8
0
10
2535.721617755599
20
-1144.474073638203
30
6.000010723077
11
2535.469340004007
21
-1145.217259965537
31
6.000010651312
0
LINE
8
0
10
2269.987116219888
20
-1213.938279795488
30
6.000003898532
11
2269.726063835056
21
-1213.921169522113
31
6.000003904472
0
LINE
8
0
10
2534.686182870903
20
-1146.573727957069
30
6.000010524894
11
2534.168703525069
21
-1147.163800077851
31
6.000010472406
0
LINE
8
0
10
2269.743705439792
20
-1448.989317827479
30
5.999982888493
11
2269.991434215929
21
-1449.073410410286
31
5.999982876834
0
LINE
8
0
10
2271.208957104348
20
-1450.660117067542
30
5.999982714616
11
2271.226067386602
21
-1450.921169451652
31
5.999982690989
0
LINE
8
0
10
2532.222163451524
20
-1148.464436614807
30
6.000010368124
11
2531.478977131709
21
-1148.71671438855
31
6.000010353075
0
LINE
8
0
10
2534.168703204868
20
-1125.678518703611
30
6.0000126517
11
2533.578631084089
21
-1125.161039357776
31
6.000012712948
0
LINE
8
0
10
2533.578631084089
20
-1125.161039357776
30
6.000012712948
11
2532.926062503539
21
-1124.725006986543
31
6.000012766869
0
LINE
8
0
10
2535.721617515569
20
-1128.368245096972
30
6.000012355907
11
2535.469339741826
21
-1127.625058777156
31
6.000012435003
0
LINE
8
0
10
2270.812774043855
20
-1449.703646601555
30
5.999982806754
11
2270.95811817501
21
-1449.921169456788
31
5.999982784876
0
LINE
8
0
10
2271.573822928334
20
-1215.155802629946
30
6.000003758728
11
2271.65791552156
21
-1215.403531403222
31
6.000003734255
0
LINE
8
0
10
2271.226067386602
20
-1450.921169451652
30
5.999982690989
11
2271.226067635686
21
-1463.921169451652
31
5.999981528719
0
LINE
8
0
10
2269.991434215929
20
-1449.073410410286
30
5.999982876834
11
2270.226067353415
21
-1449.189118663246
31
5.999982862565
0
LINE
8
0
10
2270.726063841188
20
-1214.189118699696
30
6.000003862868
11
2270.943586702532
21
-1214.334462823452
31
6.000003845712
0
LINE
8
0
10
2530.709219645644
20
-1123.972490274046
30
6.000012876174
11
2529.926062491558
21
-1123.921159453959
31
6.000012893044
0
LINE
8
0
10
2535.926062774721
20
-1142.92115936454
30
6.000010877604
11
2535.926062580978
21
-1129.92115936454
31
6.00001219544
0
LINE
8
0
10
2270.943586702532
20
-1214.334462823452
30
6.000003845712
11
2271.140277410835
21
-1214.506955938739
31
6.000003826374
0
LINE
8
0
10
2271.312770533546
20
-1214.703646640533
30
6.000003805183
11
2271.45811466551
21
-1214.921169496395
31
6.000003782505
0
LINE
8
0
10
2535.469339741826
20
-1127.625058777156
30
6.000012435003
11
2535.122214958974
21
-1126.92115937652
31
6.000012511529
0
LINE
8
0
10
2271.45811466551
20
-1214.921169496395
30
6.000003782505
11
2271.573822928334
21
-1215.155802629946
31
6.000003758728
0
LINE
8
0
10
2531.47897676522
20
-1124.125604473081
30
6.000012849187
11
2530.709219645644
21
-1123.972490274046
31
6.000012876174
0
LINE
8
0
10
2533.578631419715
20
-1147.68127944127
30
6.000010428304
11
2532.926062852161
21
-1148.117311831957
31
6.000010393344
0
LINE
8
0
10
2270.24370192682
20
-1213.98931786185
30
6.000003889506
11
2270.49143070327
21
-1214.073410445726
31
6.000003877551
0
LINE
8
0
10
2534.686182568289
20
-1126.268590808964
30
6.000012584175
11
2534.168703204868
21
-1125.678518703611
31
6.0000126517
0
LINE
8
0
10
2269.987116219888
20
-1213.938279795488
30
6.000003898532
11
2270.24370192682
21
-1213.98931786185
31
6.000003889506
0
LINE
8
0
10
2535.926062774721
20
-1142.92115936454
30
6.000010877604
11
2535.874731954635
21
-1143.704316518625
31
6.000010798941
0
LINE
8
0
10
2271.140277410835
20
-1214.506955938739
30
6.000003826374
11
2271.312770533546
21
-1214.703646640533
31
6.000003805183
0
LINE
8
0
10
2532.926062503539
20
-1124.725006986543
30
6.000012766869
11
2532.222163092556
21
-1124.377882224671
31
6.000012812543
0
LINE
8
0
10
2535.926062580978
20
-1129.92115936454
30
6.00001219544
11
2535.874731737549
21
-1129.138002211984
31
6.000012275594
0
LINE
8
0
10
2534.168703525069
20
-1147.163800077851
30
6.000010472406
11
2533.578631419715
21
-1147.68127944127
31
6.000010428304
0
LINE
8
0
10
2535.874731954635
20
-1143.704316518625
30
6.000010798941
11
2535.721617755599
21
-1144.474073638203
31
6.000010723077
0
LINE
8
0
10
2437.68342183063
20
-1125.678520141558
30
6.000014083712
11
2438.273493935983
21
-1125.161040778136
31
6.000014128901
0
LINE
8
0
10
2535.469340004007
20
-1145.217259965537
30
6.000010651312
11
2535.122215242137
21
-1145.92115937652
31
6.000010584872
0
LINE
8
0
10
2438.273493935983
20
-1125.161040778136
30
6.000014128901
11
2438.926062503538
21
-1124.725008387453
31
6.000014164662
0
LINE
8
0
10
2436.72991011356
20
-1126.921160842889
30
6.000013968298
11
2437.165942484795
21
-1126.26859226234
31
6.000014029871
0
LINE
8
0
10
2535.122215242137
20
-1145.92115937652
30
6.000010584872
11
2534.686182870903
21
-1146.573727957069
31
6.000010524894
0
LINE
8
0
10
2441.92606286414
20
-1148.92116076545
30
6.000011600529
11
2529.92606286414
21
-1148.92115945396
31
6.00001035434
0
LINE
8
0
10
2441.142905710055
20
-1148.869829945362
30
6.000011616972
11
2440.373148590478
21
-1148.716715746328
31
6.000011643845
0
LINE
8
0
10
2435.926062580978
20
-1129.921160854869
30
6.000013667348
11
2435.92606277472
21
-1142.92116085487
31
6.000012311344
0
LINE
8
0
10
2435.977393618149
20
-1143.704318007425
30
6.000012228928
11
2435.92606277472
21
-1142.92116085487
31
6.000012311344
0
LINE
8
0
10
2439.629962263143
20
-1148.464437994736
30
6.000011680683
11
2438.92606285216
21
-1148.117313232866
31
6.000011726859
0
LINE
8
0
10
2438.92606285216
20
-1148.117313232866
30
6.000011726859
11
2438.27349427161
21
-1147.681280861631
31
6.000011781583
0
LINE
8
0
10
2532.222163092556
20
-1124.377882224671
30
6.000012812543
11
2531.47897676522
21
-1124.125604473081
31
6.000012849187
0
LINE
8
0
10
2269.487119733049
20
-1448.938279762225
30
5.999982897347
11
2269.743705439792
21
-1448.989317827479
31
5.999982888493
0
LINE
8
0
10
2271.65791552156
20
-1215.403531403222
30
6.000003734255
11
2271.708953597602
21
-1215.66011710823
31
6.000003709511
0
LINE
8
0
10
2271.073826436959
20
-1450.155802589839
30
5.999982761965
11
2271.157919029262
21
-1450.403531362755
31
5.999982738409
0
LINE
8
0
10
2262.011849615888
20
-1505.335383205624
30
5.999978013623
11
2262.208540325384
21
-1505.507876317971
31
5.999977995272
0
LINE
8
0
10
2531.478977131709
20
-1148.71671438855
30
6.000010353075
11
2530.709220016695
21
-1148.869828610532
31
6.000010348453
0
LINE
8
0
10
2532.926062852161
20
-1148.117311831957
30
6.000010393344
11
2532.222163451524
21
-1148.464436614807
31
6.000010368124
0
LINE
8
0
10
2437.68342215083
20
-1147.163801515797
30
6.000011843915
11
2437.165942787408
21
-1146.573729410444
31
6.000011912794
0
LINE
8
0
10
2530.709220016695
20
-1148.869828610532
30
6.000010348453
11
2529.92606286414
21
-1148.92115945396
31
6.00001035434
0
LINE
8
0
10
2269.487119733049
20
-1448.938279762225
30
5.999982897347
11
2269.226067348281
21
-1448.921169489972
31
5.999982903243
0
LINE
8
0
10
2271.708953597602
20
-1215.66011710823
30
6.000003709511
11
2271.726063880828
21
-1215.921169492416
31
6.000003684913
0
LINE
8
0
10
2529.926062491558
20
-1123.921159453959
30
6.000012893044
11
2441.926062491557
21
-1123.921160765449
31
6.000014203823
0
LINE
8
0
10
2535.874731737549
20
-1129.138002211984
30
6.000012275594
11
2535.721617515569
21
-1128.368245096972
31
6.000012355907
0
LINE
8
0
10
2535.122214958974
20
-1126.92115937652
30
6.000012511529
11
2534.686182568289
21
-1126.268590808964
31
6.000012584175
0
LINE
8
0
10
2667.441144190612
20
-1527.406081729747
30
5.999968741221
11
2667.876080719021
21
-1527.739821957639
31
5.99996869993
0
LINE
8
0
10
2666.897626110172
20
-1526.464675487847
30
5.999968847512
11
2667.107403949752
21
-1526.971145211283
31
5.999968791558
0
LINE
8
0
10
2667.107403949752
20
-1526.971145211283
30
5.999968791558
11
2667.441144190612
21
-1527.406081729747
31
5.999968741221
0
LINE
8
0
10
2667.107403918455
20
-1524.871169625345
30
5.999969010603
11
2666.897626093972
21
-1525.377639355035
31
5.9999689609
0
LINE
8
0
10
2667.441144146349
20
-1524.436233096935
30
5.999969051
11
2667.107403918455
21
-1524.871169625345
31
5.999969010603
0
LINE
8
0
10
2666.897626093972
20
-1525.377639355035
30
5.9999689609
11
2666.826062381369
21
-1525.921157422507
31
5.999968905272
0
LINE
8
0
10
2581.926075805416
20
-1612.920311813227
30
5.999960652658
11
2587.926075451486
21
-1612.920311723807
31
5.99996058195
0
LINE
8
0
10
2441.92606286414
20
-1148.92116076545
30
6.000011600529
11
2441.142905710055
21
-1148.869829945362
31
6.000011616972
0
LINE
8
0
10
2270.95811817501
20
-1449.921169456788
30
5.999982784876
11
2271.073826436959
21
-1450.155802589839
31
5.999982761965
0
LINE
8
0
10
2270.640280921878
20
-1449.506955900503
30
5.999982827224
11
2270.812774043855
21
-1449.703646601555
31
5.999982806754
0
LINE
8
0
10
2262.660694592059
20
-1449.07341055889
30
5.999982998008
11
2262.908423364078
21
-1448.989317963954
31
5.999983001838
0
LINE
8
0
10
2262.011847907337
20
-1449.506956080878
30
5.999982968912
11
2262.208538606552
21
-1449.334462956806
31
5.999982981404
0
LINE
8
0
10
2261.839354794989
20
-1449.703646790376
30
5.999982953893
11
2262.011847907337
21
-1449.506956080878
31
5.999982968912
0
LINE
8
0
10
2261.426061511858
20
-1450.921169660709
30
5.999982851197
11
2261.426063136112
21
-1503.921169660709
31
5.999978148785
0
LINE
8
0
10
2261.443173421145
20
-1504.182222044641
30
5.999978125191
11
2261.494211498962
21
-1504.438807748885
31
5.99997810149
0
LINE
8
0
10
2261.694012358347
20
-1504.921169652725
30
5.999978055389
11
2261.839356491816
21
-1505.138692506411
31
5.999978033776
0
LINE
8
0
10
2262.208540325384
20
-1505.507876317971
30
5.999977995272
11
2262.426063187733
21
-1505.653220438476
31
5.999977979037
0
LINE
8
0
10
2262.908425103483
20
-1505.85302126911
30
5.99997795399
11
2263.165010810769
21
-1505.904059331632
31
5.999977945606
0
LINE
8
0
10
2277.926063196065
20
-1505.921169332858
30
5.999977698249
11
2277.926067805574
21
-1672.920316904874
31
5.999981708808
0
LINE
8
0
10
2693.926066218159
20
-1672.920310705103
30
5.999974331279
11
2277.926067805574
21
-1672.920316904874
31
5.999981708808
0
LINE
8
0
10
2693.926066218159
20
-1672.920310705103
30
5.999974331279
11
2693.926062333136
21
-1632.920310851773
31
5.999957758926
0
LINE
8
0
10
2693.926062333136
20
-1632.920310851773
30
5.999957758926
11
2687.926067525793
21
-1632.920310650144
31
5.999955942694
0
LINE
8
0
10
2687.926067525793
20
-1632.920310650144
30
5.999955942694
11
2687.926069781554
21
-1592.920310650143
31
5.999960137164
0
LINE
8
0
10
2693.926064588898
20
-1592.920310851775
30
5.999961953397
11
2687.926069781554
21
-1592.920310650143
31
5.999960137164
0
LINE
8
0
10
2693.926065444613
20
-1321.921157018632
30
5.999989780446
11
2687.926065444613
21
-1321.921157108052
31
5.999989869817
0
LINE
8
0
10
2687.926064848481
20
-1281.921157108053
30
5.999994042138
11
2693.926064848481
21
-1281.921157018632
31
5.999993952766
0
LINE
8
0
10
2693.926062940859
20
-1153.921157018631
30
6.000007338645
11
2693.166449774354
21
-1145.238783983074
31
6.000008255602
0
LINE
8
0
10
2693.166449774354
20
-1145.238783983074
30
6.000008255602
11
2690.910681826624
21
-1136.820204915133
31
6.000009167326
0
LINE
8
0
10
2690.910681826624
20
-1136.820204915133
30
6.000009167326
11
2687.227332099527
21
-1128.921157118464
31
6.000010046125
0
LINE
8
0
10
2687.227332099527
20
-1128.921157118464
30
6.000010046125
11
2682.228278038049
21
-1121.781752896086
31
6.000010865285
0
LINE
8
0
10
2682.228278038049
20
-1121.781752896086
30
6.000010865285
11
2676.065436149327
21
-1115.618911191059
31
6.000011599916
0
LINE
8
0
10
2676.065436149327
20
-1115.618911191059
30
6.000011599916
11
2668.926062295532
21
-1110.619887859963
31
6.000012227697
0
LINE
8
0
10
2668.926062295532
20
-1110.619887859963
30
6.000012227697
11
2661.027075424231
21
-1106.936538368311
31
6.000012729557
0
LINE
8
0
10
2661.027075424231
20
-1106.936538368311
30
6.000012729557
11
2652.608465771469
21
-1104.680801189084
31
6.000013090245
0
LINE
8
0
10
2652.608465771469
20
-1104.680801189084
30
6.000013090245
11
2643.926062195699
21
-1103.921157763796
31
6.000013298809
0
LINE
8
0
10
2643.926062195699
20
-1103.921157763796
30
6.000013298809
11
2327.926062195693
21
-1103.921162473232
31
6.000018005707
0
LINE
8
0
10
2327.926062195693
20
-1103.921162473232
30
6.000018005707
11
2319.243654827865
21
-1104.680806157322
31
6.000018055797
0
LINE
8
0
10
2319.243654827865
20
-1104.680806157322
30
6.000018055797
11
2310.825056686433
21
-1106.93654358747
31
6.000017945902
0
LINE
8
0
10
2302.926062295526
20
-1110.619893314564
30
6.000017679357
11
2295.786680961337
21
-1115.618916858465
31
6.000017264261
0
LINE
8
0
10
2295.786680961337
20
-1115.618916858465
30
6.000017264261
11
2289.623840209983
21
-1121.781758747191
31
6.000016713225
0
LINE
8
0
10
2289.623840209983
20
-1121.781758747191
30
6.000016713225
11
2284.624792560189
21
-1128.921163118565
31
6.00001604299
0
LINE
8
0
10
2284.624792560189
20
-1128.921163118565
30
6.00001604299
11
2280.94143162444
21
-1136.82021102502
31
6.00001527392
0
LINE
8
0
10
2280.94143162444
20
-1136.82021102502
30
6.00001527392
11
2278.685675133316
21
-1145.238790160206
31
6.000014429394
0
LINE
8
0
10
2278.685675133316
20
-1145.238790160206
30
6.000014429394
11
2277.926062940858
21
-1153.921163218399
31
6.000013535068
0
LINE
8
0
10
2277.926062940858
20
-1153.921163218399
30
6.000013535068
11
2277.92605479172
21
-1228.921169328167
31
6.000002371609
0
LINE
8
0
10
2270.49143070327
20
-1214.073410445726
30
6.000003877551
11
2270.726063841188
21
-1214.189118699696
31
6.000003862868
0
LINE
8
0
10
2269.726063835056
20
-1213.921169522113
30
6.000003904472
11
2263.926054448084
21
-1213.921169596414
31
6.000004001027
0
LINE
8
0
10
2263.160687587891
20
-1214.073410554201
30
6.000003998814
11
2263.40841635991
21
-1213.989317959262
31
6.000004002643
0
LINE
8
0
10
2262.511840903168
20
-1214.506956076188
30
6.000003969717
11
2262.708531602383
21
-1214.334462952117
31
6.00000398221
0
LINE
8
0
10
2262.194003670317
20
-1214.921169648033
30
6.000003937417
11
2262.339347790821
21
-1214.703646785685
31
6.000003954699
0
LINE
8
0
10
2262.078295419856
20
-1215.155802786749
30
6.000003918164
11
2262.194003670317
21
-1214.921169648033
31
6.000003937417
0
LINE
8
0
10
2261.994202839684
20
-1215.403531563782
30
6.000003897267
11
2262.078295419856
21
-1215.155802786749
31
6.000003918164
0
LINE
8
0
10
2261.943164777161
20
-1215.660117271069
30
6.000003875088
11
2261.926054507689
21
-1215.921169656017
31
6.000003852002
0
LINE
8
0
10
2261.926054507689
20
-1215.921169656017
30
6.000003852002
11
2261.926056131944
21
-1268.921169656016
31
5.999999149591
0
LINE
8
0
10
2261.926056131944
20
-1268.921169656016
30
5.999999149591
11
2261.943166416977
21
-1269.182222039949
31
5.999999125997
0
LINE
8
0
10
2261.943166416977
20
-1269.182222039949
30
5.999999125997
11
2261.994204494793
21
-1269.438807744192
31
5.999999102296
0
LINE
8
0
10
2262.078297089732
20
-1269.68653651621
30
5.999999078896
11
2262.194005354178
21
-1269.921169648033
31
5.999999056194
0
LINE
8
0
10
2262.194005354178
20
-1269.921169648033
30
5.999999056194
11
2262.339349487647
21
-1270.138692501719
31
5.999999034582
0
LINE
8
0
10
2262.708533321215
20
-1270.507876313282
30
5.999998996077
11
2262.926056183564
21
-1270.653220433785
31
5.999998979842
0
LINE
8
0
10
2262.926056183564
20
-1270.653220433785
30
5.999998979842
11
2263.160689322282
21
-1270.768928684246
31
5.999998966002
0
LINE
8
0
10
2277.926056191895
20
-1270.921169328166
30
5.999998708541
11
2263.6650038066
21
-1270.904059326943
31
5.999998946411
0
LINE
8
0
10
2277.926056191895
20
-1270.921169328166
30
5.999998708541
11
2277.926061740003
21
-1463.921169332859
31
5.999981417199
0
LINE
8
0
10
2440.373148590478
20
-1148.716715746328
30
6.000011643845
11
2439.629962263143
21
-1148.464437994736
31
6.000011680683
0
LINE
8
0
10
2438.27349427161
20
-1147.681280861631
30
6.000011781583
11
2437.68342215083
21
-1147.163801515797
31
6.000011843915
0
LINE
8
0
10
2437.165942787408
20
-1146.573729410444
30
6.000011912794
11
2436.729910396723
21
-1145.92116084289
31
6.000011987036
0
LINE
8
0
10
2436.729910396723
20
-1145.92116084289
30
6.000011987036
11
2436.382785613872
21
-1145.217261442253
31
6.000012065374
0
LINE
8
0
10
2436.382785613872
20
-1145.217261442253
30
6.000012065374
11
2436.130507840129
21
-1144.474075122436
31
6.000012146467
0
LINE
8
0
10
2436.130507840129
20
-1144.474075122436
30
6.000012146467
11
2435.977393618149
21
-1143.704318007425
31
6.000012228928
0
LINE
8
0
10
2435.926062580978
20
-1129.921160854869
30
6.000013667348
11
2435.977393401063
21
-1129.138003700782
31
6.000013748273
0
LINE
8
0
10
2435.977393401063
20
-1129.138003700782
30
6.000013748273
11
2436.130507600099
21
-1128.368246581206
31
6.000013826283
0
LINE
8
0
10
2436.130507600099
20
-1128.368246581206
30
6.000013826283
11
2436.38278535169
21
-1127.625060253872
31
6.000013900046
0
LINE
8
0
10
2436.38278535169
20
-1127.625060253872
30
6.000013900046
11
2436.72991011356
21
-1126.921160842889
31
6.000013968298
0
LINE
8
0
10
2437.165942484795
20
-1126.26859226234
30
6.000014029871
11
2437.68342183063
21
-1125.678520141558
31
6.000014083712
0
LINE
8
0
10
2438.926062503538
20
-1124.725008387453
30
6.000014164662
11
2439.629961904174
21
-1124.3778836046
31
6.000014190385
0
LINE
8
0
10
2439.629961904174
20
-1124.3778836046
30
6.000014190385
11
2440.37314822399
21
-1124.125605830859
31
6.00001420563
0
LINE
8
0
10
2440.37314822399
20
-1124.125605830859
30
6.00001420563
11
2441.142905339003
21
-1123.972491608876
31
6.000014210135
0
LINE
8
0
10
2441.142905339003
20
-1123.972491608876
30
6.000014210135
11
2441.926062491557
21
-1123.921160765449
31
6.000014203823
0
LINE
8
0
10
2637.926063745637
20
-1207.921157853217
30
6.000002505693
11
2597.926063745636
21
-1207.921158449342
31
6.000003101503
0
LINE
8
0
10
2597.926063745636
20
-1207.921158449342
30
6.000003101503
11
2597.926063656218
21
-1201.921158449342
31
6.000003727351
0
LINE
8
0
10
2597.926063656218
20
-1201.921158449342
30
6.000003727351
11
2637.926063656218
21
-1201.921157853217
31
6.000003131541
0
LINE
8
0
10
2355.426063656216
20
-1201.921162063393
30
6.000007339449
11
2367.926063656216
21
-1201.9211618771
31
6.000007153258
0
LINE
8
0
10
2367.926063656216
20
-1201.9211618771
30
6.000007153258
11
2367.926063745637
21
-1207.9211618771
31
6.000006527412
0
LINE
8
0
10
2355.426063745637
20
-1207.921162063393
30
6.000006713603
11
2355.426063656216
21
-1201.921162063393
31
6.000007339449
0
LINE
8
0
10
2346.876060676272
20
-1206.739826741595
30
6.000006964179
11
2347.382545664751
21
-1206.949604566078
31
6.000006934754
0
LINE
8
0
10
2346.441139406651
20
-1206.406086513702
30
6.00000700547
11
2346.876060676272
21
-1206.739826741595
31
6.000006964179
0
LINE
8
0
10
2348.97606672558
20
-1203.102497608738
30
6.000007312301
11
2348.469581737102
21
-1202.892719784253
31
6.000007341727
0
LINE
8
0
10
2349.954506075638
20
-1204.377644078528
30
6.000007164718
11
2349.744720606664
21
-1203.871174355093
31
6.000007220673
0
LINE
8
0
10
2349.744720637961
20
-1205.97114994103
30
6.000007001629
11
2349.954506091839
21
-1205.464680211341
31
6.000007051333
0
LINE
8
0
10
2348.976066779788
20
-1206.7398267103
30
6.000006932899
11
2349.410988039463
21
-1206.406086469444
31
6.000006961232
0
LINE
8
0
10
2340.426063745636
20
-1207.921162286947
30
6.000006937032
11
2327.926063745636
21
-1207.921162473234
31
6.000007123222
0
LINE
8
0
10
2327.926063745636
20
-1207.921162473234
30
6.000007123222
11
2327.926063656216
21
-1201.921162473233
31
6.000007749068
0
LINE
8
0
10
2327.926063656216
20
-1201.921162473233
30
6.000007749068
11
2340.426063656216
21
-1201.921162286946
31
6.000007562878
0
LINE
8
0
10
2340.426063656216
20
-1201.921162286946
30
6.000007562878
11
2340.426063745636
21
-1207.921162286947
31
6.000006937032
0
LINE
8
0
10
2676.426068440175
20
-1522.921157279437
30
5.999969075202
11
2687.926068440177
21
-1522.921157108048
31
5.999968903907
0
LINE
8
0
10
2676.426068529594
20
-1528.921157279437
30
5.999968449353
11
2676.426068440175
21
-1522.921157279437
31
5.999969075202
0
LINE
8
0
10
2668.382550388252
20
-1523.892715016497
30
5.99996909367
11
2667.876080664812
21
-1524.102492856076
31
5.999969079332
0
LINE
8
0
10
2668.926068453588
20
-1523.821181805271
30
5.999969093036
11
2668.382550388252
21
-1523.892715016497
31
5.99996909367
0
LINE
8
0
10
2669.469586521064
20
-1523.892715000296
30
5.999969077478
11
2668.926068453588
21
-1523.821181805271
31
5.999969093036
0
LINE
8
0
10
2670.410992779161
20
-1524.436233052674
30
5.999969006762
11
2669.976056250749
21
-1524.102492824779
31
5.999969048053
0
LINE
8
0
10
2670.744733020018
20
-1524.871169571139
30
5.999968956425
11
2670.410992779161
21
-1524.436233052674
31
5.999969006762
0
LINE
8
0
10
2676.426064136107
20
-1234.12116948647
30
5.999999199355
11
2676.426064046685
21
-1228.12116948647
31
5.999999825204
0
LINE
8
0
10
2676.426064046685
20
-1228.12116948647
30
5.999999825204
11
2687.926064046684
21
-1228.121169315083
31
5.999999653909
0
LINE
8
0
10
2661.426068529594
20
-1528.921157502985
30
5.999968672782
11
2649.926068529595
21
-1528.92115767437
31
5.999968844077
0
LINE
8
0
10
2649.926068529595
20
-1528.92115767437
30
5.999968844077
11
2649.926068440175
21
-1522.92115767437
31
5.999969469926
0
LINE
8
0
10
2649.926068440175
20
-1522.92115767437
30
5.999969469926
11
2661.426068440175
21
-1522.921157502985
31
5.99996929863
0
LINE
8
0
10
2661.426068440175
20
-1522.921157502985
30
5.99996929863
11
2661.426068529594
21
-1528.921157502985
31
5.999968672782
0
LINE
8
0
10
2670.410988429931
20
-1232.606093892517
30
5.999999446987
11
2670.744728657827
21
-1232.17115736411
31
5.999999487383
0
LINE
8
0
10
2669.97605191147
20
-1232.939834133379
30
5.999999418653
11
2670.410988429931
21
-1232.606093892517
31
5.999999446987
0
LINE
8
0
10
2667.107399524964
20
-1230.071181832381
30
5.999999760606
11
2666.897621700481
21
-1230.577651562065
31
5.999999710902
0
LINE
8
0
10
2661.426064046685
20
-1228.121169710021
30
6.000000048633
11
2661.426064136107
21
-1234.121169710021
31
5.999999422785
0
LINE
8
0
10
2661.426064136107
20
-1234.121169710021
30
5.999999422785
11
2649.926064136107
21
-1234.121169881408
31
5.99999959408
0
LINE
8
0
10
2649.926064136107
20
-1234.121169881408
30
5.99999959408
11
2649.926064046685
21
-1228.121169881408
31
6.000000219928
0
LINE
8
0
10
2406.926065475989
20
-1220.421160134572
30
6.000004642647
11
2406.926065289699
21
-1207.921161295873
31
6.000005946497
0
LINE
8
0
10
2400.926063931927
20
-1220.421160223992
30
6.000004732019
11
2406.926065475989
21
-1220.421160134572
31
6.000004642647
0
LINE
8
0
10
2400.926063745637
20
-1207.921161385293
30
6.000006035869
11
2400.926063931927
21
-1220.421160223992
31
6.000004732019
0
LINE
8
0
10
2406.926065289699
20
-1207.921161295873
30
6.000005946497
11
2400.926063745637
21
-1207.921161385293
31
6.000006035869
0
LINE
8
0
10
2568.926070039827
20
-1220.42115398869
30
6.000002229617
11
2574.926071583889
21
-1220.42115389927
31
6.000002140246
0
LINE
8
0
10
2568.926069853537
20
-1207.921155149991
30
6.000003533467
11
2568.926070039827
21
-1220.42115398869
31
6.000002229617
0
LINE
8
0
10
2574.926071397599
20
-1207.921155060569
30
6.000003444096
11
2568.926069853537
21
-1207.921155149991
31
6.000003533467
0
LINE
8
0
10
2574.926071583889
20
-1220.42115389927
30
6.000002140246
11
2574.926071397599
21
-1207.921155060569
31
6.000003444096
0
LINE
8
0
10
2333.926060318985
20
-1612.920316284725
30
5.999967957121
11
2333.926060505276
21
-1625.420316284725
31
5.999966653271
0
LINE
8
0
10
2333.926060505276
20
-1625.420316284725
30
5.999966653271
11
2327.926060662675
21
-1625.420316374145
31
5.999966814084
0
LINE
8
0
10
2327.926060662675
20
-1625.420316374145
30
5.999966814084
11
2327.926060476384
21
-1612.920316374145
31
5.999968027828
0
LINE
8
0
10
2327.926060476384
20
-1612.920316374145
30
5.999968027828
11
2333.926060318985
21
-1612.920316284725
31
5.999967957121
0
LINE
8
0
10
2327.926061450687
20
-1652.920316358836
30
5.999964164046
11
2327.926061264396
21
-1640.420316358837
31
5.999965314006
0
LINE
8
0
10
2327.926061264396
20
-1640.420316358837
30
5.999965314006
11
2333.926061106996
21
-1640.420316269417
31
5.999965243299
0
LINE
8
0
10
2333.926061106996
20
-1640.420316269417
30
5.999965243299
11
2333.926061293288
21
-1652.920316269417
31
5.999963939449
0
LINE
8
0
10
2333.926061293288
20
-1652.920316269417
30
5.999963939449
11
2327.926061450687
21
-1652.920316358836
31
5.999964164046
0
LINE
8
0
10
2587.926075451486
20
-1612.920311723807
30
5.99996058195
11
2587.926075637777
21
-1625.420311723807
31
5.9999592781
0
LINE
8
0
10
2587.926075637777
20
-1625.420311723807
30
5.9999592781
11
2581.926075991707
21
-1625.420311813227
31
5.999962670083
0
LINE
8
0
10
2581.926075991707
20
-1625.420311813227
30
5.999962670083
11
2581.926075805416
21
-1612.920311813227
31
5.999960652658
0
LINE
8
0
10
2581.926077627728
20
-1652.920311390876
30
5.999960020046
11
2581.926077441436
21
-1640.420294428366
31
5.99995624282
0
LINE
8
0
10
2581.926077441436
20
-1640.420294428366
30
5.99995624282
11
2587.926077112527
21
-1640.420294338946
31
5.999956172112
0
LINE
8
0
10
2587.926077112527
20
-1640.420294338946
30
5.999956172112
11
2587.926077298818
21
-1652.920311301456
31
5.99995486826
0
LINE
8
0
10
2587.926077298818
20
-1652.920311301456
30
5.99995486826
11
2581.926077627728
21
-1652.920311390876
31
5.999960020046
0
LINE
8
0
10
2667.876076271321
20
-1229.302505063113
30
5.999999829335
11
2667.441139752858
21
-1229.636245303963
31
5.999999801002
0
LINE
8
0
10
2668.926064060097
20
-1229.021132977152
30
5.999999843045
11
2668.382545994761
21
-1229.092727223529
31
5.999999843673
0
LINE
8
0
10
2649.926064046685
20
-1228.121169881408
30
6.000000219928
11
2661.426064046685
21
-1228.121169710021
31
6.000000048633
0
LINE
8
0
10
2666.826062381369
20
-1525.921157422507
30
5.999968905272
11
2666.897626110172
21
-1526.464675487847
31
5.999968847512
0
LINE
8
0
10
2671.026070194909
20
-1231.121169566944
30
5.999999592714
11
2670.954506466106
21
-1230.577651501602
31
5.999999650474
0
LINE
8
0
10
2666.826057987878
20
-1231.121169629538
30
5.999999655275
11
2666.897621716681
21
-1231.664687694878
31
5.999999597515
0
LINE
8
0
10
2668.382550448709
20
-1527.949599782122
30
5.999968670505
11
2668.926068516181
21
-1528.021132977146
31
5.999968654948
0
LINE
8
0
10
2668.382546055218
20
-1233.149611989154
30
5.999999420507
11
2668.926064122694
21
-1233.221145184184
31
5.99999940495
0
LINE
8
0
10
2349.744720606664
20
-1203.871174355093
30
6.000007220673
11
2349.410987995203
21
-1203.436237836631
31
6.000007271012
0
LINE
8
0
10
2671.0260745884
20
-1525.921157359911
30
5.999968842711
11
2670.954510859597
21
-1525.377639294574
31
5.999968900471
0
LINE
8
0
10
2670.744728626527
20
-1230.071181778172
30
5.999999706428
11
2670.41098838567
21
-1229.636245259705
31
5.999999756765
0
LINE
8
0
10
2667.876080664812
20
-1524.102492856076
30
5.999969079332
11
2667.441144146349
21
-1524.436233096935
31
5.999969051
0
LINE
8
0
10
2669.976051857259
20
-1229.302505031817
30
5.999999798056
11
2669.469582127573
21
-1229.092727207328
31
5.999999827481
0
LINE
8
0
10
2367.926063745637
20
-1207.9211618771
30
6.000006527412
11
2355.426063745637
21
-1207.921162063393
31
6.000006713603
0
LINE
8
0
10
2670.41098838567
20
-1229.636245259705
30
5.999999756765
11
2669.976051857259
21
-1229.302505031817
31
5.999999798056
0
LINE
8
0
10
2666.897621700481
20
-1230.577651562065
30
5.999999710902
11
2666.826057987878
21
-1231.121169629538
31
5.999999655275
0
LINE
8
0
10
2347.92606366963
20
-1202.821186589233
30
6.000007357283
11
2347.38254560429
21
-1202.892719800453
31
6.00000735792
0
LINE
8
0
10
2637.926063656218
20
-1201.921157853217
30
6.000003131541
11
2637.926063745637
21
-1207.921157853217
31
6.000002505693
0
LINE
8
0
10
2670.954506466106
20
-1230.577651501602
30
5.999999650474
11
2670.744728626527
21
-1230.071181778172
31
5.999999706428
0
LINE
8
0
10
2669.469582127573
20
-1229.092727207328
30
5.999999827481
11
2668.926064060097
21
-1229.021132977152
31
5.999999843045
0
LINE
8
0
10
2667.441139752858
20
-1229.636245303963
30
5.999999801002
11
2667.107399524964
21
-1230.071181832381
31
5.999999760606
0
LINE
8
0
10
2687.926068440177
20
-1522.921157108048
30
5.999968903907
11
2687.926068529594
21
-1528.921157108047
31
5.999968278057
0
LINE
8
0
10
2667.876080719021
20
-1527.739821957639
30
5.99996869993
11
2668.382550448709
21
-1527.949599782122
31
5.999968670505
0
LINE
8
0
10
2670.410992823425
20
-1527.406081685487
30
5.999968696984
11
2670.744733051315
21
-1526.971145157076
31
5.99996873738
0
LINE
8
0
10
2687.926065444613
20
-1321.921157108052
30
5.999989869817
11
2687.926064848481
21
-1281.921157108053
31
5.999994042138
0
LINE
8
0
10
2667.441139797118
20
-1232.606093936776
30
5.999999491223
11
2667.876076325533
21
-1232.939834164676
31
5.999999449932
0
LINE
8
0
10
2668.926068516181
20
-1528.021132977146
30
5.999968654948
11
2669.469586581522
21
-1527.949599765922
31
5.999968654312
0
LINE
8
0
10
2348.469581737102
20
-1202.892719784253
30
6.000007341727
11
2347.92606366963
21
-1202.821186589233
31
6.000007357283
0
LINE
8
0
10
2670.744728657827
20
-1232.17115736411
30
5.999999487383
11
2670.954506482306
21
-1231.664687634415
31
5.999999537086
0
LINE
8
0
10
2349.954506091839
20
-1205.464680211341
30
6.000007051333
11
2350.026062175047
21
-1204.921162143875
31
6.00000710696
0
LINE
8
0
10
2347.382545664751
20
-1206.949604566078
30
6.000006934754
11
2347.926063732223
21
-1207.021137761108
31
6.000006919196
0
LINE
8
0
10
2668.382545994761
20
-1229.092727223529
30
5.999999843673
11
2667.876076271321
21
-1229.302505063113
31
5.999999829335
0
LINE
8
0
10
2670.954510875797
20
-1526.464675427387
30
5.999968787084
11
2671.0260745884
21
-1525.921157359911
31
5.999968842711
0
LINE
8
0
10
2670.744733051315
20
-1526.971145157076
30
5.99996873738
11
2670.954510875797
21
-1526.464675427387
31
5.999968787084
0
LINE
8
0
10
2310.825056686433
20
-1106.93654358747
30
6.000017945902
11
2302.926062295526
21
-1110.619893314564
31
6.000017679357
0
LINE
8
0
10
2687.926064046684
20
-1228.121169315083
30
5.999999653909
11
2687.926064136108
21
-1234.121169315083
31
5.99999902806
0
LINE
8
0
10
2667.876076325533
20
-1232.939834164676
30
5.999999449932
11
2668.382546055218
21
-1233.149611989154
31
5.999999420507
0
LINE
8
0
10
2346.876060622064
20
-1203.102497640033
30
6.000007343581
11
2346.44113936239
21
-1203.436237880889
31
6.000007315249
0
LINE
8
0
10
2350.026062175047
20
-1204.921162143875
30
6.00000710696
11
2349.954506075638
21
-1204.377644078528
31
6.000007164718
0
LINE
8
0
10
2670.954506482306
20
-1231.664687634415
30
5.999999537086
11
2671.026070194909
21
-1231.121169566944
31
5.999999592714
0
LINE
8
0
10
2349.410988039463
20
-1206.406086469444
30
6.000006961232
11
2349.744720637961
21
-1205.97114994103
31
6.000007001629
0
LINE
8
0
10
2669.976056304959
20
-1527.739821926342
30
5.999968668651
11
2670.410992823425
21
-1527.406081685487
31
5.999968696984
0
LINE
8
0
10
2693.926064848481
20
-1281.921157018632
30
5.999993952766
11
2693.926062940859
21
-1153.921157018631
31
6.000007338645
0
LINE
8
0
10
2669.469586581522
20
-1527.949599765922
30
5.999968654312
11
2669.976056304959
21
-1527.739821926342
31
5.999968668651
0
LINE
8
0
10
2345.897621310014
20
-1204.377644138992
30
6.000007225147
11
2345.826065226805
21
-1204.921162206464
31
6.000007169521
0
LINE
8
0
10
2687.926068529594
20
-1528.921157108047
30
5.999968278057
11
2676.426068529594
21
-1528.921157279437
31
5.999968449353
0
LINE
8
0
10
2687.926064136108
20
-1234.121169315083
30
5.99999902806
11
2676.426064136107
21
-1234.12116948647
31
5.999999199355
0
LINE
8
0
10
2345.826065226805
20
-1204.921162206464
30
6.000007169521
11
2345.897621326214
21
-1205.464680271805
31
6.000007111762
0
LINE
8
0
10
2669.976056250749
20
-1524.102492824779
30
5.999969048053
11
2669.469586521064
21
-1523.892715000296
31
5.999969077478
0
LINE
8
0
10
2347.38254560429
20
-1202.892719800453
30
6.00000735792
11
2346.876060622064
21
-1203.102497640033
31
6.000007343581
0
LINE
8
0
10
2669.469582188031
20
-1233.149611972953
30
5.999999404315
11
2669.97605191147
21
-1232.939834133379
31
5.999999418653
0
LINE
8
0
10
2667.107399556265
20
-1232.171157418318
30
5.999999541561
11
2667.441139797118
21
-1232.606093936776
31
5.999999491223
0
LINE
8
0
10
2693.926064588898
20
-1592.920310851775
30
5.999961953397
11
2693.926065444613
21
-1321.921157018632
31
5.999989780446
0
LINE
8
0
10
2346.44113936239
20
-1203.436237880889
30
6.000007315249
11
2346.107406763892
21
-1203.871174409301
31
6.000007274851
0
LINE
8
0
10
2346.107406763892
20
-1203.871174409301
30
6.000007274851
11
2345.897621310014
21
-1204.377644138992
31
6.000007225147
0
LINE
8
0
10
2348.469581797563
20
-1206.949604549878
30
6.000006918561
11
2348.976066779788
21
-1206.7398267103
31
6.000006932899
0
LINE
8
0
10
2349.410987995203
20
-1203.436237836631
30
6.000007271012
11
2348.97606672558
21
-1203.102497608738
31
6.000007312301
0
LINE
8
0
10
2346.107406795188
20
-1205.971149995238
30
6.000007055807
11
2346.441139406651
21
-1206.406086513702
31
6.00000700547
0
LINE
8
0
10
2347.926063732223
20
-1207.021137761108
30
6.000006919196
11
2348.469581797563
21
-1206.949604549878
31
6.000006918561
0
LINE
8
0
10
2345.897621326214
20
-1205.464680271805
30
6.000007111762
11
2346.107406795188
21
-1205.971149995238
31
6.000007055807
0
LINE
8
0
10
2670.954510859597
20
-1525.377639294574
30
5.999968900471
11
2670.744733020018
21
-1524.871169571139
31
5.999968956425
0
LINE
8
0
10
2666.897621716681
20
-1231.664687694878
30
5.999999597515
11
2667.107399556265
21
-1232.171157418318
31
5.999999541561
0
LINE
8
0
10
2668.926064122694
20
-1233.221145184184
30
5.99999940495
11
2669.469582188031
21
-1233.149611972953
31
5.999999404315
0
LINE
8
0
10
2262.708531602383
20
-1214.334462952117
30
6.00000398221
11
2262.926054456069
21
-1214.189118818647
31
6.000003991963
0
LINE
8
0
10
2262.926054456069
20
-1214.189118818647
30
6.000003991963
11
2263.160687587891
21
-1214.073410554201
31
6.000003998814
0
LINE
8
0
10
2263.40841635991
20
-1213.989317959262
30
6.000004002643
11
2263.665002064153
21
-1213.938279881444
31
6.000004003386
0
LINE
8
0
10
2261.839356491816
20
-1505.138692506411
30
5.999978033776
11
2262.011849615888
21
-1505.335383205624
31
5.999978013623
0
LINE
8
0
10
2262.426063187733
20
-1505.653220438476
30
5.999977979037
11
2262.660696326452
21
-1505.768928688935
31
5.999977965197
0
LINE
8
0
10
2277.926063196065
20
-1505.921169332858
30
5.999977698249
11
2263.165010810769
21
-1505.904059331632
31
5.999977945606
0
LINE
8
0
10
2262.339349487647
20
-1270.138692501719
30
5.999999034582
11
2262.511842611719
21
-1270.335383200935
31
5.999999014429
0
LINE
8
0
10
2262.660696326452
20
-1505.768928688935
30
5.999977965197
11
2262.908425103483
21
-1505.85302126911
31
5.99997795399
0
LINE
8
0
10
2263.160689322282
20
-1270.768928684246
30
5.999998966002
11
2263.408418099314
21
-1270.853021264418
31
5.999998954795
0
LINE
8
0
10
2262.511842611719
20
-1270.335383200935
30
5.999999014429
11
2262.708533321215
21
-1270.507876313282
31
5.999998996077
0
LINE
8
0
10
2261.694010674486
20
-1449.921169652725
30
5.999982936611
11
2261.839354794989
21
-1449.703646790376
31
5.999982953893
0
LINE
8
0
10
2262.426061460238
20
-1449.189118823339
30
5.999982991158
11
2262.660694592059
21
-1449.07341055889
31
5.999982998008
0
LINE
8
0
10
2262.208538606552
20
-1449.334462956806
30
5.999982981404
11
2262.426061460238
21
-1449.189118823339
31
5.999982991158
0
LINE
8
0
10
2261.994204494793
20
-1269.438807744192
30
5.999999102296
11
2262.078297089732
21
-1269.68653651621
31
5.999999078896
0
LINE
8
0
10
2261.494209843853
20
-1450.403531568475
30
5.999982896461
11
2261.578302424025
21
-1450.155802791442
31
5.999982917358
0
LINE
8
0
10
2261.44317178133
20
-1450.660117275761
30
5.999982874282
11
2261.426061511858
21
-1450.921169660709
31
5.999982851197
0
LINE
8
0
10
2261.578302424025
20
-1450.155802791442
30
5.999982917358
11
2261.694010674486
21
-1449.921169652725
31
5.999982936611
0
LINE
8
0
10
2263.926054448084
20
-1213.921169596414
30
6.000004001027
11
2263.665002064153
21
-1213.938279881444
31
6.000004003386
0
LINE
8
0
10
2261.494211498962
20
-1504.438807748885
30
5.99997810149
11
2261.5783040939
21
-1504.686536520901
31
5.99997807809
0
LINE
8
0
10
2271.726063880828
20
-1215.921169492416
30
6.000003684913
11
2271.726064178346
21
-1228.921169492416
31
6.00000247421
0
LINE
8
0
10
2261.44317178133
20
-1450.660117275761
30
5.999982874282
11
2261.494209843853
21
-1450.403531568475
31
5.999982896461
0
LINE
8
0
10
2263.408418099314
20
-1270.853021264418
30
5.999998954795
11
2263.6650038066
21
-1270.904059326943
31
5.999998946411
0
LINE
8
0
10
2269.226067348281
20
-1448.921169489972
30
5.999982903243
11
2263.426061452252
21
-1448.921169601104
31
5.999983000222
0
LINE
8
0
10
2277.926061740003
20
-1463.921169332859
30
5.999981417199
11
2271.226067635686
21
-1463.921169451652
31
5.999981528719
0
LINE
8
0
10
2271.157919029262
20
-1450.403531362755
30
5.999982738409
11
2271.208957104348
21
-1450.660117067542
31
5.999982714616
0
ENDSEC
0
EOF
