0
SECTION
2
ENTITIES
0
LINE
8
0
10
4037.58138491069
20
-1235.54915579768
30
6.000019632382
11
4037.915114003727
21
-1235.984080049224
31
6.000019616625
0
LINE
8
0
10
4037.915114003727
20
-1235.984080049224
30
6.000019616625
11
4038.350038233154
21
-1236.317809171086
31
6.000019602525
0
LINE
8
0
10
4038.350038233154
20
-1236.317809171086
30
6.000019602525
11
4038.85651823148
21
-1236.527600075126
31
6.000019591042
0
LINE
8
0
10
4038.85651823148
20
-1236.527600075126
30
6.000019591042
11
4039.400038223815
21
-1236.599155857929
31
6.00001958296
0
LINE
8
0
10
4039.400038223815
20
-1236.599155857929
30
6.00001958296
11
4039.943558220893
21
-1236.527600111148
31
6.000019578829
0
LINE
8
0
10
4039.943558220893
20
-1236.527600111148
30
6.000019578829
11
4040.450038233121
21
-1236.317809240674
31
6.00001957893
0
LINE
8
0
10
4040.450038233121
20
-1236.317809240674
30
6.00001957893
11
4040.884962484665
21
-1235.984080147636
31
6.000019583257
0
LINE
8
0
10
4040.884962484665
20
-1235.984080147636
30
6.000019583257
11
4041.218691606529
21
-1235.549155918209
31
6.000019591515
0
LINE
8
0
10
4041.218691606529
20
-1235.549155918209
30
6.000019591515
11
4041.428482510568
21
-1235.042675919885
31
6.00001960314
0
LINE
8
0
10
4041.428482510568
20
-1235.042675919885
30
6.00001960314
11
4041.50003829337
21
-1234.499155927549
31
6.000019617341
0
LINE
8
0
10
4041.50003829337
20
-1234.499155927549
30
6.000019617341
11
4041.428482546589
21
-1233.955635930471
31
6.000019633151
0
LINE
8
0
10
4041.428482546589
20
-1233.955635930471
30
6.000019633151
11
4041.218691676117
21
-1233.449155918242
31
6.000019649491
0
LINE
8
0
10
4041.218691676117
20
-1233.449155918242
30
6.000019649491
11
4040.884962583077
21
-1233.014231666698
31
6.000019665248
0
LINE
8
0
10
4040.884962583077
20
-1233.014231666698
30
6.000019665248
11
4040.450038353652
21
-1232.680502544835
31
6.000019679348
0
LINE
8
0
10
4040.450038353652
20
-1232.680502544835
30
6.000019679348
11
4039.943558355326
21
-1232.470711640795
31
6.00001969083
0
LINE
8
0
10
4039.943558355326
20
-1232.470711640795
30
6.00001969083
11
4039.40003836299
21
-1232.399155857993
31
6.000019698912
0
LINE
8
0
10
4039.40003836299
20
-1232.399155857993
30
6.000019698912
11
4038.856518365912
21
-1232.470711604774
31
6.000019703044
0
LINE
8
0
10
4038.856518365912
20
-1232.470711604774
30
6.000019703044
11
4038.350038353684
21
-1232.680502475247
31
6.000019702942
0
LINE
8
0
10
4038.350038353684
20
-1232.680502475247
30
6.000019702942
11
4037.915114102139
21
-1233.014231568286
31
6.000019698616
0
LINE
8
0
10
4037.915114102139
20
-1233.014231568286
30
6.000019698616
11
4037.581384980278
21
-1233.449155797712
31
6.000019690358
0
LINE
8
0
10
4037.581384980278
20
-1233.449155797712
30
6.000019690358
11
4037.371594076237
21
-1233.955635796037
31
6.000019678732
0
LINE
8
0
10
4037.371594076237
20
-1233.955635796037
30
6.000019678732
11
4037.300038293435
21
-1234.499155788373
31
6.000019664531
0
LINE
8
0
10
4037.300038293435
20
-1234.499155788373
30
6.000019664531
11
4037.371594040216
21
-1235.042675785451
31
6.000019648721
0
LINE
8
0
10
4037.371594040216
20
-1235.042675785451
30
6.000019648721
11
4037.58138491069
21
-1235.54915579768
31
6.000019632382
0
LINE
8
0
10
3740.223996405019
20
-1319.071639225194
30
6.00061235202
11
3739.717516533783
21
-1319.281430070122
31
6.000612346286
0
LINE
8
0
10
3739.717516533783
20
-1319.281430070122
30
6.000612346286
11
3739.282592411813
21
-1319.615159101995
31
6.000612336181
0
LINE
8
0
10
3739.282592411813
20
-1319.615159101995
30
6.000612336181
11
3738.948863399278
21
-1320.050083238802
31
6.000612322393
0
LINE
8
0
10
3738.948863399278
20
-1320.050083238802
30
6.000612322393
11
3738.739072576872
21
-1320.556563119369
31
6.000612305863
0
LINE
8
0
10
3738.739072576872
20
-1320.556563119369
30
6.000612305863
11
3738.66751684244
21
-1321.10008297683
31
6.000612287716
0
LINE
8
0
10
3738.66751684244
20
-1321.10008297683
30
6.000612287716
11
3738.739072601038
21
-1321.643602831111
31
6.000612269189
0
LINE
8
0
10
3738.739072601038
20
-1321.643602831111
30
6.000612269189
11
3738.948863445967
21
-1322.150082702349
31
6.000612251545
0
LINE
8
0
10
3738.948863445967
20
-1322.150082702349
30
6.000612251545
11
3739.282592477839
21
-1322.585006824318
31
6.000612235987
0
LINE
8
0
10
3739.282592477839
20
-1322.585006824318
30
6.000612235987
11
3739.717516614647
21
-1322.918735836852
31
6.000612223574
0
LINE
8
0
10
3739.717516614647
20
-1322.918735836852
30
6.000612223574
11
3740.223996495214
21
-1323.128526659259
31
6.000612215152
0
LINE
8
0
10
3740.223996495214
20
-1323.128526659259
30
6.000612215152
11
3740.767516352674
21
-1323.200082393689
31
6.000612211296
0
LINE
8
0
10
3740.767516352674
20
-1323.200082393689
30
6.000612211296
11
3741.311036206956
21
-1323.128526635091
31
6.000612212268
0
LINE
8
0
10
3741.311036206956
20
-1323.128526635091
30
6.000612212268
11
3741.817516078193
21
-1322.918735790164
31
6.000612218002
0
LINE
8
0
10
3741.817516078193
20
-1322.918735790164
30
6.000612218002
11
3742.252440200161
21
-1322.585006758291
31
6.000612228107
0
LINE
8
0
10
3742.252440200161
20
-1322.585006758291
30
6.000612228107
11
3742.586169212697
21
-1322.150082621483
31
6.000612241895
0
LINE
8
0
10
3742.586169212697
20
-1322.150082621483
30
6.000612241895
11
3742.795960035102
21
-1321.643602740916
31
6.000612258426
0
LINE
8
0
10
3742.795960035102
20
-1321.643602740916
30
6.000612258426
11
3742.867515769532
21
-1321.100082883455
31
6.000612276573
0
LINE
8
0
10
3742.867515769532
20
-1321.100082883455
30
6.000612276573
11
3742.795960010937
21
-1320.556563029175
31
6.000612295099
0
LINE
8
0
10
3742.795960010937
20
-1320.556563029175
30
6.000612295099
11
3742.586169166007
21
-1320.050083157937
31
6.000612312743
0
LINE
8
0
10
3742.586169166007
20
-1320.050083157937
30
6.000612312743
11
3742.252440134136
21
-1319.615159035968
31
6.000612328301
0
LINE
8
0
10
3742.252440134136
20
-1319.615159035968
30
6.000612328301
11
3741.817515997328
21
-1319.281430023434
31
6.000612340715
0
LINE
8
0
10
3741.817515997328
20
-1319.281430023434
30
6.000612340715
11
3741.31103611676
21
-1319.071639201027
31
6.000612349136
0
LINE
8
0
10
3741.31103611676
20
-1319.071639201027
30
6.000612349136
11
3740.767516259299
21
-1319.000083466597
31
6.000612352992
0
LINE
8
0
10
3740.767516259299
20
-1319.000083466597
30
6.000612352992
11
3740.223996405019
21
-1319.071639225194
31
6.00061235202
0
LINE
8
0
10
3742.851118044993
20
-1613.949961174761
30
6.001783418441
11
3743.060908867399
21
-1613.443481294194
31
6.001783434972
0
LINE
8
0
10
3743.060908867399
20
-1613.443481294194
30
6.001783434972
11
3743.132464601829
21
-1612.899961436732
31
6.001783453119
0
LINE
8
0
10
3743.132464601829
20
-1612.899961436732
30
6.001783453119
11
3743.060908843233
21
-1612.356441582453
31
6.001783471645
0
LINE
8
0
10
3743.060908843233
20
-1612.356441582453
30
6.001783471645
11
3742.851117998304
21
-1611.849961711214
31
6.001783489289
0
LINE
8
0
10
3742.851117998304
20
-1611.849961711214
30
6.001783489289
11
3742.517388966431
21
-1611.415037589245
31
6.001783504848
0
LINE
8
0
10
3742.517388966431
20
-1611.415037589245
30
6.001783504848
11
3742.082464829624
21
-1611.081308576712
31
6.00178351726
0
LINE
8
0
10
3742.082464829624
20
-1611.081308576712
30
6.00178351726
11
3741.575984949057
21
-1610.871517754304
31
6.001783525682
0
LINE
8
0
10
3741.575984949057
20
-1610.871517754304
30
6.001783525682
11
3741.032465091595
21
-1610.799962019874
31
6.001783529538
0
LINE
8
0
10
3741.032465091595
20
-1610.799962019874
30
6.001783529538
11
3740.488945237315
21
-1610.871517778472
31
6.001783528566
0
LINE
8
0
10
3740.488945237315
20
-1610.871517778472
30
6.001783528566
11
3739.982465366079
21
-1611.0813086234
31
6.001783522832
0
LINE
8
0
10
3739.982465366079
20
-1611.0813086234
30
6.001783522832
11
3739.547541244108
21
-1611.415037655272
31
6.001783512727
0
LINE
8
0
10
3739.547541244108
20
-1611.415037655272
30
6.001783512727
11
3739.213812231574
21
-1611.84996179208
31
6.001783498939
0
LINE
8
0
10
3739.213812231574
20
-1611.84996179208
30
6.001783498939
11
3739.004021409169
21
-1612.356441672647
31
6.001783482409
0
LINE
8
0
10
3739.004021409169
20
-1612.356441672647
30
6.001783482409
11
3738.932465674737
21
-1612.899961530108
31
6.001783464262
0
LINE
8
0
10
3738.932465674737
20
-1612.899961530108
30
6.001783464262
11
3739.004021433334
21
-1613.443481384388
31
6.001783445735
0
LINE
8
0
10
3739.004021433334
20
-1613.443481384388
30
6.001783445735
11
3739.213812278264
21
-1613.949961255626
31
6.001783428091
0
LINE
8
0
10
3739.213812278264
20
-1613.949961255626
30
6.001783428091
11
3739.547541310135
21
-1614.384885377596
31
6.001783412533
0
LINE
8
0
10
3739.547541310135
20
-1614.384885377596
30
6.001783412533
11
3739.982465446943
21
-1614.718614390129
31
6.00178340012
0
LINE
8
0
10
3739.982465446943
20
-1614.718614390129
30
6.00178340012
11
3740.48894532751
21
-1614.928405212537
31
6.001783391698
0
LINE
8
0
10
3740.48894532751
20
-1614.928405212537
30
6.001783391698
11
3741.032465184971
21
-1614.999960946966
31
6.001783387842
0
LINE
8
0
10
3741.032465184971
20
-1614.999960946966
30
6.001783387842
11
3741.575985039252
21
-1614.928405188369
31
6.001783388814
0
LINE
8
0
10
3741.575985039252
20
-1614.928405188369
30
6.001783388814
11
3742.082464910489
21
-1614.718614343441
31
6.001783394548
0
LINE
8
0
10
3742.082464910489
20
-1614.718614343441
30
6.001783394548
11
3742.517389032458
21
-1614.384885311569
31
6.001783404653
0
LINE
8
0
10
3742.517389032458
20
-1614.384885311569
30
6.001783404653
11
3742.851118044993
21
-1613.949961174761
31
6.001783418441
0
LINE
8
0
10
3835.400041413861
20
-1236.599149097258
30
6.000030382364
11
3835.94356141094
21
-1236.527593350477
31
6.000030378233
0
LINE
8
0
10
3835.94356141094
20
-1236.527593350477
30
6.000030378233
11
3836.450041423172
21
-1236.317802480003
31
6.000030378334
0
LINE
8
0
10
3836.450041423172
20
-1236.317802480003
30
6.000030378334
11
3836.884965674717
21
-1235.984073386964
31
6.000030382661
0
LINE
8
0
10
3836.884965674717
20
-1235.984073386964
30
6.000030382661
11
3837.218694796581
21
-1235.549149157536
31
6.000030390919
0
LINE
8
0
10
3837.218694796581
20
-1235.549149157536
30
6.000030390919
11
3837.428485700621
21
-1235.04266915921
31
6.000030402544
0
LINE
8
0
10
3837.428485700621
20
-1235.04266915921
30
6.000030402544
11
3837.500041483425
21
-1234.499149166872
31
6.000030416746
0
LINE
8
0
10
3837.500041483425
20
-1234.499149166872
30
6.000030416746
11
3837.428485736643
21
-1233.955629169792
31
6.000030432555
0
LINE
8
0
10
3837.428485736643
20
-1233.955629169792
30
6.000030432555
11
3837.218694866169
21
-1233.449149157562
31
6.000030448895
0
LINE
8
0
10
3837.218694866169
20
-1233.449149157562
30
6.000030448895
11
3836.88496577313
21
-1233.014224906017
31
6.000030464652
0
LINE
8
0
10
3836.88496577313
20
-1233.014224906017
30
6.000030464652
11
3836.450041543702
21
-1232.680495784153
31
6.000030478752
0
LINE
8
0
10
3836.450041543702
20
-1232.680495784153
30
6.000030478752
11
3835.943561545375
21
-1232.470704880112
31
6.000030490234
0
LINE
8
0
10
3835.943561545375
20
-1232.470704880112
30
6.000030490234
11
3835.400041553039
21
-1232.399149097309
31
6.000030498316
0
LINE
8
0
10
3835.400041553039
20
-1232.399149097309
30
6.000030498316
11
3834.856521555959
21
-1232.470704844091
31
6.000030502448
0
LINE
8
0
10
3834.856521555959
20
-1232.470704844091
30
6.000030502448
11
3834.350041543727
21
-1232.680495714565
31
6.000030502347
0
LINE
8
0
10
3834.350041543727
20
-1232.680495714565
30
6.000030502347
11
3833.915117292182
21
-1233.014224807603
31
6.00003049802
0
LINE
8
0
10
3833.915117292182
20
-1233.014224807603
30
6.00003049802
11
3833.581388170318
21
-1233.449149037031
31
6.000030489762
0
LINE
8
0
10
3833.581388170318
20
-1233.449149037031
30
6.000030489762
11
3833.371597266278
21
-1233.955629035358
31
6.000030478136
0
LINE
8
0
10
3833.371597266278
20
-1233.955629035358
30
6.000030478136
11
3833.300041483476
21
-1234.499149027695
31
6.000030463935
0
LINE
8
0
10
3833.300041483476
20
-1234.499149027695
30
6.000030463935
11
3833.371597230256
21
-1235.042669024775
31
6.000030448125
0
LINE
8
0
10
3833.371597230256
20
-1235.042669024775
30
6.000030448125
11
3833.58138810073
21
-1235.549149037006
31
6.000030431786
0
LINE
8
0
10
3833.58138810073
20
-1235.549149037006
30
6.000030431786
11
3833.915117193769
21
-1235.984073288551
31
6.000030416029
0
LINE
8
0
10
3833.915117193769
20
-1235.984073288551
30
6.000030416029
11
3834.350041423197
21
-1236.317802410415
31
6.000030401929
0
LINE
8
0
10
3834.350041423197
20
-1236.317802410415
30
6.000030401929
11
3834.856521421524
21
-1236.527593314455
31
6.000030390446
0
LINE
8
0
10
3834.856521421524
20
-1236.527593314455
30
6.000030390446
11
3835.400041413861
21
-1236.599149097258
31
6.000030382364
0
LINE
8
0
10
3744.364109769728
20
-1685.499999296886
30
6.00002071402
11
3743.728435279336
21
-1686.328426421632
31
6.000020700579
0
LINE
8
0
10
3743.728435279336
20
-1686.328426421632
30
6.000020700579
11
3742.90000815459
21
-1686.964100912024
31
6.000020694094
0
LINE
8
0
10
3742.90000815459
20
-1686.964100912024
30
6.000020694094
11
3741.935284335
21
-1687.363702602042
31
6.000020695005
0
LINE
8
0
10
3741.935284335
20
-1687.363702602042
30
6.000020695005
11
3740.900008154591
21
-1687.499999296886
31
6.000020703251
0
LINE
8
0
10
3740.900008154591
20
-1687.499999296886
30
6.000020703251
11
3739.86473197418
21
-1687.363702602042
31
6.000020718269
0
LINE
8
0
10
3739.86473197418
20
-1687.363702602042
30
6.000020718269
11
3738.90000815459
21
-1686.964100912024
31
6.000020739036
0
LINE
8
0
10
3738.90000815459
20
-1686.964100912024
30
6.000020739036
11
3738.071581029844
21
-1686.328426421632
31
6.000020764137
0
LINE
8
0
10
3738.071581029844
20
-1686.328426421632
30
6.000020764137
11
3737.435906539452
21
-1685.499999296886
31
6.000020791862
0
LINE
8
0
10
3737.435906539452
20
-1685.499999296886
30
6.000020791862
11
3737.036304849434
21
-1684.535275477296
31
6.00002082032
0
LINE
8
0
10
3737.036304849434
20
-1684.535275477296
30
6.00002082032
11
3736.900008154589
21
-1683.499999296886
31
6.000020847573
0
LINE
8
0
10
3736.900008154589
20
-1683.499999296886
30
6.000020847573
11
3737.036304849433
21
-1682.464723116476
31
6.000020871763
0
LINE
8
0
10
3737.036304849433
20
-1682.464723116476
30
6.000020871763
11
3737.435906539452
21
-1681.499999296886
31
6.000020891242
0
LINE
8
0
10
3737.435906539452
20
-1681.499999296886
30
6.000020891242
11
3738.071581029843
21
-1680.67157217214
31
6.000020904682
0
LINE
8
0
10
3738.071581029843
20
-1680.67157217214
30
6.000020904682
11
3738.90000815459
21
-1680.035897681748
31
6.000020911167
0
LINE
8
0
10
3738.90000815459
20
-1680.035897681748
30
6.000020911167
11
3739.86473197418
21
-1679.63629599173
31
6.000020910256
0
LINE
8
0
10
3739.86473197418
20
-1679.63629599173
30
6.000020910256
11
3740.900008154591
21
-1679.499999296886
31
6.000020902011
0
LINE
8
0
10
3740.900008154591
20
-1679.499999296886
30
6.000020902011
11
3741.935284335
21
-1679.63629599173
31
6.000020886992
0
LINE
8
0
10
3741.935284335
20
-1679.63629599173
30
6.000020886992
11
3742.90000815459
21
-1680.035897681748
31
6.000020866225
0
LINE
8
0
10
3742.90000815459
20
-1680.035897681748
30
6.000020866225
11
3743.728435279335
21
-1680.67157217214
31
6.000020841124
0
LINE
8
0
10
3743.728435279335
20
-1680.67157217214
30
6.000020841124
11
3744.364109769728
21
-1681.499999296886
31
6.0000208134
0
LINE
8
0
10
3744.364109769728
20
-1681.499999296886
30
6.0000208134
11
3744.763711459746
21
-1682.464723116476
31
6.000020784941
0
LINE
8
0
10
3744.763711459746
20
-1682.464723116476
30
6.000020784941
11
3744.90000815459
21
-1683.499999296886
31
6.000020757688
0
LINE
8
0
10
3744.90000815459
20
-1683.499999296886
30
6.000020757688
11
3744.763711459746
21
-1684.535275477296
31
6.000020733498
0
LINE
8
0
10
3744.763711459746
20
-1684.535275477296
30
6.000020733498
11
3744.364109769728
21
-1685.499999296886
31
6.00002071402
0
LINE
8
0
10
3958.400008154236
20
-1616.499999296137
30
6.000017434722
11
3916.400008154236
21
-1616.499999296276
31
6.000018060594
0
LINE
8
0
10
3732.400002814039
20
-1194.499146837958
30
6.000028213668
11
3732.400002265648
21
-1234.499153307448
31
6.000030177914
0
LINE
8
0
10
3732.400002265648
20
-1234.499153307448
30
6.000030177914
11
3726.400002265647
21
-1234.499153307468
31
6.000030267323
0
LINE
8
0
10
3737.767495097177
20
-1340.100082396101
30
5.999436738689
11
3737.767494847161
21
-1328.600082396102
31
5.999435547166
0
LINE
8
0
10
3937.40000815452
20
-1702.115422498455
30
6.000016318274
11
3936.856490088114
21
-1702.186978589766
31
6.000016326374
0
LINE
8
0
10
3732.400002814039
20
-1194.499146837958
30
6.000028213668
11
4142.40000325507
21
-1194.499153587084
31
6.000024554654
0
LINE
8
0
10
3732.400008154193
20
-1603.499999296886
30
6.000020802492
11
3732.400002265781
21
-1274.499153307448
31
6.000030177961
0
LINE
8
0
10
3732.400008154193
20
-1603.499999296886
30
6.000020802492
11
3726.400008154192
21
-1603.499999296906
31
6.000020891902
0
LINE
8
0
10
3726.400008154192
20
-1603.499999296906
30
6.000020891902
11
3726.400008154324
21
-1643.499999296906
31
6.000020891949
0
LINE
8
0
10
4148.400008154326
20
-1643.499999295507
30
6.000014603431
11
4148.400008154194
21
-1603.499999295507
31
6.000014603384
0
LINE
8
0
10
4142.40000218664
20
-1274.499153218066
30
6.000027256041
11
4142.400008154194
21
-1603.499999295527
31
6.000014692794
0
LINE
8
0
10
4142.40000218664
20
-1274.499153218066
30
6.000027256041
11
4148.400002186641
21
-1274.499153218047
31
6.000027166631
0
LINE
8
0
10
4148.400002186641
20
-1274.499153218047
30
6.000027166631
11
4148.400002186508
21
-1234.499153218047
31
6.000027166584
0
LINE
8
0
10
4148.400002186508
20
-1234.499153218047
30
6.000027166584
11
4142.400002186509
21
-1234.499153218066
31
6.000027255994
0
LINE
8
0
10
3917.400008153403
20
-1365.499999296273
30
6.000018045403
11
3929.900008153403
21
-1365.499999296232
31
6.000017859132
0
LINE
8
0
10
3929.900008153424
20
-1371.499999296231
30
6.000017859138
11
3917.400008153424
21
-1371.499999296273
31
6.000018045409
0
LINE
8
0
10
3917.400008153424
20
-1371.499999296273
30
6.000018045409
11
3917.400008153403
21
-1365.499999296273
31
6.000018045403
0
LINE
8
0
10
3944.900008153425
20
-1371.499999296181
30
6.000017635612
11
3944.900008153404
21
-1365.499999296182
31
6.000017635606
0
LINE
8
0
10
3944.900008153404
20
-1365.499999296182
30
6.000017635606
11
3957.400008153404
21
-1365.499999296141
31
6.000017449334
0
LINE
8
0
10
3957.400008153404
20
-1365.499999296141
30
6.000017449334
11
3957.400008153425
21
-1371.49999929614
31
6.000017449341
0
LINE
8
0
10
3957.400008153425
20
-1371.49999929614
30
6.000017449341
11
3944.900008153425
21
-1371.499999296181
31
6.000017635612
0
LINE
8
0
10
3956.400008154538
20
-1707.215422879862
30
6.000016035148
11
3944.900008154538
21
-1707.2154228799
31
6.000016206517
0
LINE
8
0
10
3944.900008154538
20
-1707.2154228799
30
6.000016206517
11
3944.900008154517
21
-1701.2154228799
31
6.00001620651
0
LINE
8
0
10
3944.900008154517
20
-1701.2154228799
30
6.00001620651
11
3956.400008154517
21
-1701.215422879862
31
6.00001603514
0
LINE
8
0
10
3956.400008154517
20
-1701.215422879862
30
6.00001603514
11
3956.400008154538
21
-1707.215422879862
31
6.000016035148
0
LINE
8
0
10
3935.300002049898
20
-1368.499999296213
30
6.000017778665
11
3935.371565770604
21
-1369.043517362619
31
6.000017777599
0
LINE
8
0
10
3935.371565770603
20
-1367.956481229807
30
6.000017777598
11
3935.300002049898
21
-1368.499999296213
31
6.000017778665
0
LINE
8
0
10
3935.581358861419
20
-1367.450011503244
30
6.00001777447
11
3935.371565770603
21
-1367.956481229807
31
6.000017777598
0
LINE
8
0
10
3935.915083837005
20
-1367.015074979805
30
6.000017769499
11
3935.581358861419
21
-1367.450011503244
31
6.00001777447
0
LINE
8
0
10
3937.400008153407
20
-1366.399993192691
30
6.000017747369
11
3936.856490087001
21
-1366.471556913396
31
6.000017755468
0
LINE
8
0
10
3937.943526219814
20
-1366.471556913393
30
6.00001773927
11
3937.400008153407
21
-1366.399993192691
31
6.000017747369
0
LINE
8
0
10
3938.450011205166
20
-1366.681334745422
30
6.000017731721
11
3937.943526219814
21
-1366.471556913393
31
6.00001773927
0
LINE
8
0
10
3938.884932469818
20
-1367.015074979795
30
6.000017725242
11
3938.450011205166
21
-1366.681334745422
31
6.000017731721
0
LINE
8
0
10
3939.50001425693
20
-1368.4999992962
30
6.000017716079
11
3939.428450536228
21
-1367.956481229793
31
6.000017717144
0
LINE
8
0
10
3939.218657445411
20
-1369.54998708917
30
6.000017720272
11
3939.428450536229
21
-1369.043517362606
31
6.000017717145
0
LINE
8
0
10
3938.884932469826
20
-1369.984923612608
30
6.000017725245
11
3939.218657445411
21
-1369.54998708917
31
6.000017720272
0
LINE
8
0
10
3937.943526219828
20
-1370.528441679017
30
6.000017739275
11
3938.450011205179
21
-1370.318663846984
31
6.000017731727
0
LINE
8
0
10
3937.400008153421
20
-1370.600005399722
30
6.000017747374
11
3937.943526219828
21
-1370.528441679017
31
6.000017739275
0
LINE
8
0
10
3936.856490087015
20
-1370.528441679021
30
6.000017755473
11
3937.400008153421
21
-1370.600005399722
31
6.000017747374
0
LINE
8
0
10
3916.400008154209
20
-1608.499999296276
30
6.000018060586
11
3958.40000815421
21
-1608.499999296137
31
6.000017434714
0
LINE
8
0
10
3916.400008154236
20
-1616.499999296276
30
6.000018060594
11
3916.400008154209
21
-1608.499999296276
31
6.000018060586
0
LINE
8
0
10
3929.900008154517
20
-1701.21542287995
30
6.000016430035
11
3929.900008154536
21
-1707.21542287995
31
6.000016430043
0
LINE
8
0
10
3929.900008154536
20
-1707.21542287995
30
6.000016430043
11
3918.400008154536
21
-1707.215422879988
31
6.000016601412
0
LINE
8
0
10
3918.400008154536
20
-1707.215422879988
30
6.000016601412
11
3918.400008154518
21
-1701.215422879988
31
6.000016601405
0
LINE
8
0
10
3938.450011206291
20
-1706.034076463448
30
6.00001630263
11
3938.884932470938
21
-1705.700347196326
31
6.000016296151
0
LINE
8
0
10
3937.943526220941
20
-1706.243867170084
30
6.00001631018
11
3938.450011206291
21
-1706.034076463448
31
6.00001630263
0
LINE
8
0
10
3937.400008154534
20
-1706.315422784558
30
6.000016318279
11
3937.943526220941
21
-1706.243867170084
31
6.00001631018
0
LINE
8
0
10
3936.856490088129
20
-1706.243867170088
30
6.000016326379
11
3937.400008154534
21
-1706.315422784558
31
6.000016318279
0
LINE
8
0
10
3935.915083838125
20
-1705.700347196336
30
6.000016340407
11
3936.350005102776
21
-1706.034076463455
31
6.000016333925
0
LINE
8
0
10
3935.58135886254
20
-1705.265423070666
30
6.000016345378
11
3935.915083838125
21
-1705.700347196336
31
6.000016340407
0
LINE
8
0
10
3935.371565771716
20
-1704.758942853686
30
6.000016348505
11
3935.58135886254
21
-1705.265423070666
31
6.000016345378
0
LINE
8
0
10
3935.300002051011
20
-1704.215422879932
30
6.00001634957
11
3935.371565771716
21
-1704.758942853686
31
6.000016348505
0
LINE
8
0
10
3935.581358862532
20
-1703.165422689196
30
6.000016345376
11
3935.371565771713
21
-1703.671902906177
31
6.000016348503
0
LINE
8
0
10
3935.915083838116
20
-1702.730498563524
30
6.000016340403
11
3935.581358862532
21
-1703.165422689196
31
6.000016345376
0
LINE
8
0
10
3936.856490088114
20
-1702.186978589766
30
6.000016326374
11
3936.350005102765
21
-1702.396769773239
31
6.000016333921
0
LINE
8
0
10
3938.450011206281
20
-1702.396769773232
30
6.000016302627
11
3937.943526220926
21
-1702.186978589762
31
6.000016310176
0
LINE
8
0
10
3938.884932470929
20
-1702.730498563513
30
6.000016296147
11
3938.450011206281
21
-1702.396769773232
31
6.000016302627
0
LINE
8
0
10
3939.218657446516
20
-1703.165422689184
30
6.000016291173
11
3938.884932470929
21
-1702.730498563513
31
6.000016296147
0
LINE
8
0
10
3939.428450537338
20
-1703.671902906163
30
6.000016288048
11
3939.218657446516
21
-1703.165422689184
31
6.000016291173
0
LINE
8
0
10
3939.500014258043
20
-1704.215422879918
30
6.000016286982
11
3939.428450537338
21
-1703.671902906163
31
6.000016288048
0
LINE
8
0
10
3838.400006710008
20
-1241.999156502614
30
5.999999425164
11
3838.400006710046
21
-1254.49914707678
31
5.999999425179
0
LINE
8
0
10
3832.400007198829
20
-1254.4991470768
30
5.999968361128
11
3832.400007198788
21
-1241.999156502635
31
5.999999492577
0
LINE
8
0
10
3832.400039343803
20
-1226.999158916921
30
6.000001160579
11
3832.400039343764
21
-1214.499131286228
31
5.999968424521
0
LINE
8
0
10
3832.400039343764
20
-1214.499131286228
30
5.999968424521
11
3838.400039975609
21
-1214.499131286208
31
5.999968357108
0
LINE
8
0
10
3838.400039975609
20
-1214.499131286208
30
5.999968357108
11
3838.400039975649
21
-1226.999158916901
31
5.999968357122
0
LINE
8
0
10
4042.400019862902
20
-1214.499150139005
30
6.000030036198
11
4042.400019862944
21
-1226.999173951322
31
6.000030036213
0
LINE
8
0
10
4042.400019862944
20
-1226.999173951322
30
6.000030036213
11
4036.400019522823
21
-1226.999173951342
31
6.000028365665
0
LINE
8
0
10
4036.400019522823
20
-1226.999173951342
30
6.000028365665
11
4036.400019522781
21
-1214.499150139026
31
6.000030103612
0
LINE
8
0
10
4036.400019522781
20
-1214.499150139026
30
6.000030103612
11
4042.400019862902
21
-1214.499150139005
31
6.000030036198
0
LINE
8
0
10
4036.400004005175
20
-1241.999163410477
30
6.000000105749
11
4042.400003761567
21
-1241.999163410457
31
6.000000038336
0
LINE
8
0
10
4042.400003761567
20
-1241.999163410457
30
6.000000038336
11
4042.400003761608
21
-1254.499147223946
31
6.000000038351
0
LINE
8
0
10
4042.400003761608
20
-1254.499147223946
30
6.000000038351
11
4036.400004005217
21
-1254.499147223965
31
5.999968361127
0
LINE
8
0
10
4036.400004005217
20
-1254.499147223965
30
5.999968361127
11
4036.400004005175
21
-1241.999163410477
31
6.000000105749
0
LINE
8
0
10
3738.032443679457
20
-1620.399960949379
30
6.000606723712
11
3744.032490838169
21
-1620.399960818935
31
6.000606707793
0
LINE
8
0
10
3744.032491088186
20
-1631.899960818935
30
6.000605945962
11
3738.032443929474
21
-1631.899960949379
31
6.000607915235
0
LINE
8
0
10
3738.032443929474
20
-1631.899960949379
30
6.000607915235
11
3738.032443679457
21
-1620.399960949379
31
6.000606723712
0
LINE
8
0
10
3743.767525155826
20
-1302.10006725968
30
5.999440176746
11
3743.767525405841
21
-1313.600067259681
31
5.999439414915
0
LINE
8
0
10
3743.767525405841
20
-1313.600067259681
30
5.999439414915
11
3737.76757269492
21
-1313.600067390126
31
5.999505265588
0
LINE
8
0
10
3743.767525155826
20
-1302.10006725968
30
5.999440176746
11
3737.767572444905
21
-1302.100067435909
31
5.999442851634
0
LINE
8
0
10
3737.767494847161
20
-1328.600082396102
30
5.999435547166
11
3743.767542005873
21
-1328.600082265657
31
5.999435531247
0
LINE
8
0
10
3743.767542005873
20
-1328.600082265657
30
5.999435531247
11
3743.767542255889
21
-1340.100082265657
31
5.999434769416
0
LINE
8
0
10
3743.767542255889
20
-1340.100082265657
30
5.999434769416
11
3737.767495097177
21
-1340.100082396101
31
5.999436738689
0
LINE
8
0
10
3744.032474238138
20
-1605.399945812958
30
6.000610591461
11
3738.032521527216
21
-1605.399945943403
31
6.000676442134
0
LINE
8
0
10
3738.032521527216
20
-1605.399945943403
30
6.000676442134
11
3738.032521277201
21
-1593.899945989187
31
6.00061402818
0
LINE
8
0
10
3838.400039975649
20
-1226.999158916901
30
5.999968357122
11
3832.400039343803
21
-1226.999158916921
31
6.000001160579
0
LINE
8
0
10
3744.032473988122
20
-1593.899945812958
30
6.000611353292
11
3738.032521277201
21
-1593.899945989187
31
6.00061402818
0
LINE
8
0
10
3935.371565770604
20
-1369.043517362619
30
6.000017777599
11
3935.581358861426
21
-1369.549987089182
31
6.000017774474
0
LINE
8
0
10
3732.40000815459
20
-1723.499999296886
30
6.000020802631
11
3732.400008154325
21
-1643.499999296886
31
6.000020802539
0
LINE
8
0
10
3732.40000815459
20
-1723.499999296886
30
6.000020802631
11
4142.400008154592
21
-1723.499999295527
31
6.000014692932
0
LINE
8
0
10
3832.400007198788
20
-1241.999156502635
30
5.999999492577
11
3838.400006710008
21
-1241.999156502614
31
5.999999425164
0
LINE
8
0
10
3838.400006710046
20
-1254.49914707678
30
5.999999425179
11
3832.400007198829
21
-1254.4991470768
31
5.999968361128
0
LINE
8
0
10
3936.350005102765
20
-1702.396769773239
30
6.000016333921
11
3935.915083838116
21
-1702.730498563524
31
6.000016340403
0
LINE
8
0
10
3737.76757269492
20
-1313.600067390126
30
5.999505265588
11
3737.767572444905
21
-1302.100067435909
31
5.999442851634
0
LINE
8
0
10
3936.350005101663
20
-1370.318663846991
30
6.000017763022
11
3936.856490087015
21
-1370.528441679021
31
6.000017755473
0
LINE
8
0
10
3935.915083837013
20
-1369.984923612617
30
6.000017769502
11
3936.350005101663
21
-1370.318663846991
31
6.000017763022
0
LINE
8
0
10
3938.884932470938
20
-1705.700347196326
30
6.000016296151
11
3939.218657446525
21
-1705.265423070654
31
6.000016291177
0
LINE
8
0
10
3935.371565771713
20
-1703.671902906177
30
6.000016348503
11
3935.300002051011
21
-1704.215422879932
31
6.00001634957
0
LINE
8
0
10
3929.900008153403
20
-1365.499999296232
30
6.000017859132
11
3929.900008153424
21
-1371.499999296231
31
6.000017859138
0
LINE
8
0
10
3744.032473988122
20
-1593.899945812958
30
6.000611353292
11
3744.032474238138
21
-1605.399945812958
31
6.000610591461
0
LINE
8
0
10
3726.400008154324
20
-1643.499999296906
30
6.000020891949
11
3732.400008154325
21
-1643.499999296886
31
6.000020802539
0
LINE
8
0
10
3935.581358861426
20
-1369.549987089182
30
6.000017774474
11
3935.915083837013
21
-1369.984923612617
31
6.000017769502
0
LINE
8
0
10
4142.400008154592
20
-1723.499999295527
30
6.000014692932
11
4142.400008154326
21
-1643.499999295527
31
6.00001469284
0
LINE
8
0
10
4148.400008154194
20
-1603.499999295507
30
6.000014603384
11
4142.400008154194
21
-1603.499999295527
31
6.000014692794
0
LINE
8
0
10
3958.40000815421
20
-1608.499999296137
30
6.000017434714
11
3958.400008154236
21
-1616.499999296137
31
6.000017434722
0
LINE
8
0
10
4142.400008154326
20
-1643.499999295527
30
6.00001469284
11
4148.400008154326
21
-1643.499999295507
31
6.000014603431
0
LINE
8
0
10
3936.350005102776
20
-1706.034076463455
30
6.000016333925
11
3936.856490088129
21
-1706.243867170088
31
6.000016326379
0
LINE
8
0
10
3936.35000510165
20
-1366.681334745429
30
6.000017763016
11
3935.915083837005
21
-1367.015074979805
31
6.000017769499
0
LINE
8
0
10
4142.40000325507
20
-1194.499153587084
30
6.000024554654
11
4142.400002186509
21
-1234.499153218066
31
6.000027255994
0
LINE
8
0
10
3726.400002265647
20
-1234.499153307468
30
6.000030267323
11
3726.400002265781
21
-1274.499153307468
31
6.00003026737
0
LINE
8
0
10
3726.400002265781
20
-1274.499153307468
30
6.00003026737
11
3732.400002265781
21
-1274.499153307448
31
6.000030177961
0
LINE
8
0
10
3939.428450537341
20
-1704.758942853673
30
6.00001628805
11
3939.500014258043
21
-1704.215422879918
31
6.000016286982
0
LINE
8
0
10
3939.218657446525
20
-1705.265423070654
30
6.000016291177
11
3939.428450537341
21
-1704.758942853673
31
6.00001628805
0
LINE
8
0
10
3918.400008154518
20
-1701.215422879988
30
6.000016601405
11
3929.900008154517
21
-1701.21542287995
31
6.000016430035
0
LINE
8
0
10
3744.032490838169
20
-1620.399960818935
30
6.000606707793
11
3744.032491088186
21
-1631.899960818935
31
6.000605945962
0
LINE
8
0
10
3939.428450536228
20
-1367.956481229793
30
6.000017717144
11
3939.218657445403
21
-1367.450011503232
31
6.000017720268
0
LINE
8
0
10
3939.428450536229
20
-1369.043517362606
30
6.000017717145
11
3939.50001425693
21
-1368.4999992962
31
6.000017716079
0
LINE
8
0
10
3938.450011205179
20
-1370.318663846984
30
6.000017731727
11
3938.884932469826
21
-1369.984923612608
31
6.000017725245
0
LINE
8
0
10
3936.856490087001
20
-1366.471556913396
30
6.000017755468
11
3936.35000510165
21
-1366.681334745429
31
6.000017763016
0
LINE
8
0
10
3937.943526220926
20
-1702.186978589762
30
6.000016310176
11
3937.40000815452
21
-1702.115422498455
31
6.000016318274
0
LINE
8
0
10
3939.218657445403
20
-1367.450011503232
30
6.000017720268
11
3938.884932469818
21
-1367.015074979795
31
6.000017725242
0
ENDSEC
0
EOF
