0
SECTION
2
ENTITIES
0
LINE
8
0
10
3565.375453485804
20
-903.079152159716
30
6.000000255005
11
3565.165662592164
21
-902.572672157074
31
6.000000247261
0
LINE
8
0
10
3565.165662592164
20
-902.572672157074
30
6.000000247261
11
3564.83193347923
21
-902.137747920786
31
6.000000242421
0
LINE
8
0
10
3564.83193347923
20
-902.137747920786
30
6.000000242421
11
3564.397009234535
21
-901.804018818808
31
6.000000240814
0
LINE
8
0
10
3564.397009234535
20
-901.804018818808
30
6.000000240814
11
3563.890529226608
21
-901.594227937928
31
6.000000242551
0
LINE
8
0
10
3563.890529226608
20
-901.594227937928
30
6.000000242551
11
3563.347009230991
21
-901.522672179981
31
6.000000247513
0
LINE
8
0
10
3563.347009230991
20
-901.522672179981
30
6.000000247513
11
3562.803489237177
21
-901.59422795162
31
6.000000255361
0
LINE
8
0
10
3562.803489237177
20
-901.59422795162
30
6.000000255361
11
3562.297009234535
21
-901.80401884526
31
6.000000265561
0
LINE
8
0
10
3562.297009234535
20
-901.80401884526
30
6.000000265561
11
3561.862084998247
21
-902.137747958193
31
6.000000277419
0
LINE
8
0
10
3561.862084998247
20
-902.137747958193
30
6.000000277419
11
3561.52835589627
21
-902.572672202889
31
6.000000290124
0
LINE
8
0
10
3561.52835589627
20
-902.572672202889
30
6.000000290124
11
3561.31856501539
21
-903.079152210816
31
6.000000302814
0
LINE
8
0
10
3561.31856501539
20
-903.079152210816
30
6.000000302814
11
3561.247009257443
21
-903.622672206433
31
6.000000314621
0
LINE
8
0
10
3561.247009257443
20
-903.622672206433
30
6.000000314621
11
3561.318565029082
21
-904.166192200247
31
6.000000324741
0
LINE
8
0
10
3561.318565029082
20
-904.166192200247
30
6.000000324741
11
3561.528355922721
21
-904.672672202889
31
6.000000332485
0
LINE
8
0
10
3561.528355922721
20
-904.672672202889
30
6.000000332485
11
3561.862085035655
21
-905.107596439177
31
6.000000337326
0
LINE
8
0
10
3561.862085035655
20
-905.107596439177
30
6.000000337326
11
3562.29700928035
21
-905.441325541154
31
6.000000338932
0
LINE
8
0
10
3562.29700928035
20
-905.441325541154
30
6.000000338932
11
3562.803489288277
21
-905.651116422034
31
6.000000337195
0
LINE
8
0
10
3562.803489288277
20
-905.651116422034
30
6.000000337195
11
3563.347009283893
21
-905.722672179981
31
6.000000332234
0
LINE
8
0
10
3563.347009283893
20
-905.722672179981
30
6.000000332234
11
3563.890529277708
21
-905.651116408342
31
6.000000324385
0
LINE
8
0
10
3563.890529277708
20
-905.651116408342
30
6.000000324385
11
3564.39700928035
21
-905.441325514703
31
6.000000314185
0
LINE
8
0
10
3564.39700928035
20
-905.441325514703
30
6.000000314185
11
3564.831933516638
21
-905.107596401769
31
6.000000302327
0
LINE
8
0
10
3564.831933516638
20
-905.107596401769
30
6.000000302327
11
3565.165662618615
21
-904.672672157074
31
6.000000289622
0
LINE
8
0
10
3565.165662618615
20
-904.672672157074
30
6.000000289622
11
3565.375453499496
21
-904.166192149147
31
6.000000276932
0
LINE
8
0
10
3565.375453499496
20
-904.166192149147
30
6.000000276932
11
3565.447009257442
21
-903.62267215353
31
6.000000265125
0
LINE
8
0
10
3565.447009257442
20
-903.62267215353
30
6.000000265125
11
3565.375453485804
21
-903.079152159716
31
6.000000255005
0
LINE
8
0
10
3307.528342379351
20
-902.572672203886
30
6.000005613795
11
3307.318551498471
21
-903.079152211813
31
6.000005626483
0
LINE
8
0
10
3307.318551498471
20
-903.079152211813
30
6.000005626483
11
3307.246995740525
21
-903.622672207429
31
6.00000563829
0
LINE
8
0
10
3307.246995740525
20
-903.622672207429
30
6.00000563829
11
3307.318551512164
21
-904.166192201243
31
6.00000564841
0
LINE
8
0
10
3307.318551512164
20
-904.166192201243
30
6.00000564841
11
3307.528342405803
21
-904.672672203885
31
6.000005656154
0
LINE
8
0
10
3307.528342405803
20
-904.672672203885
30
6.000005656154
11
3307.862071518737
21
-905.107596440173
31
6.000005660995
0
LINE
8
0
10
3307.862071518737
20
-905.107596440173
30
6.000005660995
11
3308.296995763431
21
-905.441325542151
31
6.000005662601
0
LINE
8
0
10
3308.296995763431
20
-905.441325542151
30
6.000005662601
11
3308.803475771359
21
-905.651116423031
31
6.000005660865
0
LINE
8
0
10
3308.803475771359
20
-905.651116423031
30
6.000005660865
11
3309.346995766975
21
-905.722672180977
31
6.000005655903
0
LINE
8
0
10
3309.346995766975
20
-905.722672180977
30
6.000005655903
11
3309.890515760789
21
-905.651116409339
31
6.000005648055
0
LINE
8
0
10
3309.890515760789
20
-905.651116409339
30
6.000005648055
11
3310.396995763432
21
-905.441325515699
31
6.000005637854
0
LINE
8
0
10
3310.396995763432
20
-905.441325515699
30
6.000005637854
11
3310.831919999719
21
-905.107596402766
31
6.000005625997
0
LINE
8
0
10
3310.831919999719
20
-905.107596402766
30
6.000005625997
11
3311.165649101697
21
-904.67267215807
31
6.000005613291
0
LINE
8
0
10
3311.165649101697
20
-904.67267215807
30
6.000005613291
11
3311.375439982577
21
-904.166192150143
31
6.000005600602
0
LINE
8
0
10
3311.375439982577
20
-904.166192150143
30
6.000005600602
11
3311.446995740524
21
-903.622672154527
31
6.000005588795
0
LINE
8
0
10
3311.446995740524
20
-903.622672154527
30
6.000005588795
11
3311.375439968885
21
-903.079152160713
31
6.000005578675
0
LINE
8
0
10
3311.375439968885
20
-903.079152160713
30
6.000005578675
11
3311.165649075246
21
-902.572672158071
31
6.00000557093
0
LINE
8
0
10
3311.165649075246
20
-902.572672158071
30
6.00000557093
11
3310.831919962312
21
-902.137747921783
31
6.00000556609
0
LINE
8
0
10
3310.831919962312
20
-902.137747921783
30
6.00000556609
11
3310.396995717616
21
-901.804018819805
31
6.000005564484
0
LINE
8
0
10
3310.396995717616
20
-901.804018819805
30
6.000005564484
11
3309.890515709689
21
-901.594227938925
31
6.00000556622
0
LINE
8
0
10
3309.890515709689
20
-901.594227938925
30
6.00000556622
11
3309.346995714073
21
-901.522672180978
31
6.000005571182
0
LINE
8
0
10
3309.346995714073
20
-901.522672180978
30
6.000005571182
11
3308.803475720259
21
-901.594227952617
31
6.00000557903
0
LINE
8
0
10
3308.803475720259
20
-901.594227952617
30
6.00000557903
11
3308.296995717617
21
-901.804018846256
31
6.000005589231
0
LINE
8
0
10
3308.296995717617
20
-901.804018846256
30
6.000005589231
11
3307.862071481328
21
-902.13774795919
31
6.000005601088
0
LINE
8
0
10
3307.862071481328
20
-902.13774795919
30
6.000005601088
11
3307.528342379351
21
-902.572672203886
31
6.000005613795
0
LINE
8
0
10
3648.831929312192
20
-795.138593972327
30
5.99999567414
11
3648.396992788753
21
-794.804853737952
31
5.999995675645
0
LINE
8
0
10
3646.803486929394
20
-798.651960671552
30
5.999995756707
11
3647.3470049958
21
-798.723493874675
31
5.999995749677
0
LINE
8
0
10
3645.24699889112
20
-501.823530495776
30
5.999991356804
11
3645.318562611826
21
-502.367048562182
31
5.999991363837
0
LINE
8
0
10
3647.347004994648
20
-503.92350608171
30
5.999991356815
11
3647.89052306105
21
-503.851972878578
31
5.999991347653
0
LINE
8
0
10
3672.347000101559
20
-863.622672121787
30
5.999996784704
11
3672.347004994992
21
-592.623518288643
31
5.999992306167
0
LINE
8
0
10
3645.52834044385
20
-500.773542702811
30
5.999991336967
11
3645.318562611821
21
-501.280012429369
31
5.999991347639
0
LINE
8
0
10
3648.396992787615
20
-503.64219504655
30
5.999991336984
11
3648.831929311048
21
-503.308454812168
31
5.999991325532
0
LINE
8
0
10
3666.347004994835
20
-552.623518288667
30
5.999991799492
11
3672.347004994834
21
-552.623518288643
31
5.99999171012
0
LINE
8
0
10
3645.318562612977
20
-796.080000222341
30
5.999995740501
11
3645.246998892276
21
-796.623518288746
31
5.999995749665
0
LINE
8
0
10
3346.34700499452
20
-472.623518289915
30
5.999995373878
11
3346.347004994544
21
-478.623518289915
31
5.999995463287
0
LINE
8
0
10
3649.375447378606
20
-797.167036355137
30
5.99999569627
11
3649.447011099307
21
-796.623518288728
31
5.999995687104
0
LINE
8
0
10
3648.831929311036
20
-500.338606179356
30
5.999991281277
11
3648.396992787598
21
-500.004865944987
31
5.999991282783
0
LINE
8
0
10
3649.165669545413
20
-500.773542702796
30
5.999991282788
11
3648.831929311036
21
-500.338606179356
31
5.999991281277
0
LINE
8
0
10
3645.862080679394
20
-798.108442605151
30
5.999995762631
11
3646.297017202831
21
-798.442182839523
31
5.999995761125
0
LINE
8
0
10
3645.318562611821
20
-501.280012429369
30
5.999991347639
11
3645.24699889112
21
-501.823530495776
31
5.999991356804
0
LINE
8
0
10
3645.528340443862
20
-502.873518288748
30
5.999991368258
11
3645.862080678235
21
-503.308454812178
31
5.999991369769
0
LINE
8
0
10
3346.347004994544
20
-478.623518289915
30
5.999995463287
11
3333.847004994544
21
-478.623518289966
31
5.999995649477
0
LINE
8
0
10
3645.318562612981
20
-797.167036355153
30
5.999995756698
11
3645.528340445014
21
-797.673506081714
31
5.99999576112
0
LINE
8
0
10
3646.803486928225
20
-499.795088112958
30
5.999991303393
11
3646.29701720166
21
-500.004865944996
31
5.999991314062
0
LINE
8
0
10
3649.375447377446
20
-501.280012429352
30
5.99999128721
11
3649.165669545413
21
-500.773542702796
31
5.999991282788
0
LINE
8
0
10
3324.24700652041
20
-475.623518290003
30
5.999995747768
11
3324.318562611722
21
-476.167036356409
31
5.999995754801
0
LINE
8
0
10
3646.803486929382
20
-794.595075905927
30
5.999995696255
11
3646.297017202816
21
-794.80485373796
31
5.999995706925
0
LINE
8
0
10
3646.297017202831
20
-798.442182839523
30
5.999995761125
11
3646.803486929394
21
-798.651960671552
31
5.999995756707
0
LINE
8
0
10
3649.165669545425
20
-502.873518288733
30
5.99999131408
11
3649.375447377451
21
-502.367048562164
31
5.999991303408
0
LINE
8
0
10
3647.347004995783
20
-794.5235427028
30
5.999995687093
11
3646.803486929382
21
-794.595075905927
31
5.999995696255
0
LINE
8
0
10
3645.528340445007
20
-795.573530495777
30
5.999995729829
11
3645.318562612977
21
-796.080000222341
31
5.999995740501
0
LINE
8
0
10
3647.347004994628
20
-499.723493874679
30
5.999991294231
11
3646.803486928225
21
-499.795088112958
31
5.999991303393
0
LINE
8
0
10
3645.862080678235
20
-503.308454812178
30
5.999991369769
11
3646.297017201678
21
-503.642195046558
31
5.999991368263
0
LINE
8
0
10
3645.318562611826
20
-502.367048562182
30
5.999991363837
11
3645.528340443862
21
-502.873518288748
31
5.999991368258
0
LINE
8
0
10
3645.86208067938
20
-795.138593972339
30
5.999995718377
11
3645.528340445007
21
-795.573530495777
31
5.999995729829
0
LINE
8
0
10
3648.831929312207
20
-798.108442605139
30
5.999995718394
11
3649.165669546577
21
-797.673506081702
31
5.999995706942
0
LINE
8
0
10
3646.297017201678
20
-503.642195046558
30
5.999991368263
11
3646.803486928238
21
-503.851972878582
31
5.999991363845
0
LINE
8
0
10
3647.890523062194
20
-794.595075905923
30
5.999995680063
11
3647.347004995783
21
-794.5235427028
31
5.999995687093
0
LINE
8
0
10
3648.396992788753
20
-794.804853737952
30
5.999995675645
11
3647.890523062194
21
-794.595075905923
31
5.999995680063
0
LINE
8
0
10
3648.396992788769
20
-798.442182839514
30
5.999995729846
11
3648.831929312207
21
-798.108442605139
31
5.999995718394
0
LINE
8
0
10
3646.29701720166
20
-500.004865944996
30
5.999991314062
11
3645.862080678224
21
-500.338606179365
31
5.999991325514
0
LINE
8
0
10
3649.447011099307
20
-796.623518288728
30
5.999995687104
11
3649.375447378602
21
-796.080000222325
31
5.999995680072
0
LINE
8
0
10
3647.89052306105
20
-503.851972878578
30
5.999991347653
11
3648.396992787615
21
-503.64219504655
31
5.999991336984
0
LINE
8
0
10
3645.528340445014
20
-797.673506081714
30
5.99999576112
11
3645.862080679394
21
-798.108442605151
31
5.999995762631
0
LINE
8
0
10
3647.3470049958
20
-798.723493874675
30
5.999995749677
11
3647.890523062206
21
-798.651960671549
31
5.999995740515
0
LINE
8
0
10
3645.246998892276
20
-796.623518288746
30
5.999995749665
11
3645.318562612981
21
-797.167036355153
31
5.999995756698
0
LINE
8
0
10
3647.890523062206
20
-798.651960671549
30
5.999995740515
11
3648.396992788769
21
-798.442182839514
31
5.999995729846
0
LINE
8
0
10
3649.165669546577
20
-797.673506081702
30
5.999995706942
11
3649.375447378606
21
-797.167036355137
31
5.99999569627
0
LINE
8
0
10
3645.862080678224
20
-500.338606179365
30
5.999991325514
11
3645.52834044385
21
-500.773542702811
31
5.999991336967
0
LINE
8
0
10
3649.447011098151
20
-501.823530495759
30
5.999991294243
11
3649.375447377446
21
-501.280012429352
31
5.99999128721
0
LINE
8
0
10
3647.890523061038
20
-499.795088112953
30
5.999991287201
11
3647.347004994628
21
-499.723493874679
31
5.999991294231
0
LINE
8
0
10
3649.375447377451
20
-502.367048562164
30
5.999991303408
11
3649.447011098151
21
-501.823530495759
31
5.999991294243
0
LINE
8
0
10
3648.396992787598
20
-500.004865944987
30
5.999991282783
11
3647.890523061038
21
-499.795088112953
31
5.999991287201
0
LINE
8
0
10
3648.831929311048
20
-503.308454812168
30
5.999991325532
11
3649.165669545425
21
-502.873518288733
31
5.99999131408
0
LINE
8
0
10
3646.803486928238
20
-503.851972878582
30
5.999991363845
11
3647.347004994648
21
-503.92350608171
31
5.999991356815
0
LINE
8
0
10
3327.397008046296
20
-477.442182840772
30
5.999995727947
11
3327.831929310944
21
-477.108442606396
31
5.999995716496
0
LINE
8
0
10
3326.347004994539
20
-477.723493875935
30
5.99999574778
11
3326.890523060946
21
-477.651960672804
31
5.999995738617
0
LINE
8
0
10
3324.528348073149
20
-476.673506082969
30
5.999995759223
11
3324.862080678132
21
-477.108442606405
31
5.999995760733
0
LINE
8
0
10
3325.803486928133
20
-477.651960672808
30
5.99999575481
11
3326.347004994539
21
-477.723493875935
31
5.99999574778
0
LINE
8
0
10
3666.347004994992
20
-592.623518288667
30
5.999992395538
11
3666.347004994835
21
-552.623518288667
31
5.999991799492
0
LINE
8
0
10
3327.831929310933
20
-474.138593973583
30
5.999995672242
11
3327.397008046282
21
-473.80485373921
31
5.999995673746
0
LINE
8
0
10
3324.318562611717
20
-475.080000223597
30
5.999995738601
11
3324.24700652041
21
-475.623518290003
31
5.999995747768
0
LINE
8
0
10
3326.89052306093
20
-473.595075907179
30
5.999995678165
11
3326.347004994524
21
-473.52354270406
31
5.999995685194
0
LINE
8
0
10
3628.347004995804
20
-799.623518288811
30
5.999996046098
11
3628.34700499578
21
-793.623518288811
31
5.999995956692
0
LINE
8
0
10
3669.331624134891
20
-407.522566140216
30
5.999989627315
11
3665.648274525485
21
-399.623518288668
31
5.999989564475
0
LINE
8
0
10
3654.48637877348
20
-386.321272194957
30
5.999989532515
11
3647.347004994167
21
-381.322248757489
31
5.999989564367
0
LINE
8
0
10
3666.347004994651
20
-504.823530495698
30
5.999991087217
11
3654.847004994651
21
-504.823530495742
31
5.999991258512
0
LINE
8
0
10
3654.84700499578
20
-793.62351828871
30
5.999995561968
11
3666.347004995781
21
-793.623518288664
31
5.999995390673
0
LINE
8
0
10
3646.297017202816
20
-794.80485373796
30
5.999995706925
11
3645.86208067938
21
-795.138593972339
31
5.999995718377
0
LINE
8
0
10
3654.847004994625
20
-498.823530495742
30
5.999991169106
11
3666.347004994624
21
-498.823530495698
31
5.99999099781
0
LINE
8
0
10
3297.664597614988
20
-375.383161844799
30
5.999994684473
11
3289.245999439948
21
-377.638899149516
31
5.999994843483
0
LINE
8
0
10
3324.318562611722
20
-476.167036356409
30
5.999995754801
11
3324.528348073149
21
-476.673506082969
31
5.999995759223
0
LINE
8
0
10
3671.587391957188
20
-415.941145241767
30
5.999989719162
11
3669.331624134891
21
-407.522566140216
31
5.999989627315
0
LINE
8
0
10
3333.84700499452
20
-472.623518289966
30
5.999995560068
11
3346.34700499452
21
-472.623518289915
31
5.999995373878
0
LINE
8
0
10
3639.847004995803
20
-799.623518288768
30
5.999995874803
11
3628.347004995804
21
-799.623518288811
31
5.999996046098
0
LINE
8
0
10
3274.20762358549
20
-386.321272196448
30
5.99999519686
11
3268.044782742314
21
-392.484113993352
31
5.999995380492
0
LINE
8
0
10
3628.34700499578
20
-793.623518288811
30
5.999995956692
11
3639.84700499578
21
-793.623518288768
31
5.999995785396
0
LINE
8
0
10
3328.375447377346
20
-476.167036356391
30
5.999995694372
11
3328.447003468653
21
-475.623518289991
31
5.999995685207
0
LINE
8
0
10
3672.347004994332
20
-424.623518288642
30
5.999989837224
11
3671.587391957188
21
-415.941145241767
31
5.999989719162
0
LINE
8
0
10
3289.245999439948
20
-377.638899149516
30
5.999994843483
11
3281.347004994162
21
-381.32224875892
31
5.999995016027
0
LINE
8
0
10
3639.84700499578
20
-793.623518288768
30
5.999995785396
11
3639.847004995803
21
-799.623518288768
31
5.999995874803
0
LINE
8
0
10
3628.347004994651
20
-504.823530495846
30
5.999991653236
11
3628.347004994625
21
-498.823530495846
31
5.99999156383
0
LINE
8
0
10
3672.347004994834
20
-552.623518288643
30
5.99999171012
11
3672.347004994332
21
-424.623518288642
31
5.999989837224
0
LINE
8
0
10
3622.347004994141
20
-374.623518288838
30
5.999989836929
11
3306.347004994136
21
-374.623518290071
31
5.999994543827
0
LINE
8
0
10
3325.297001942767
20
-473.804853739216
30
5.999995705026
11
3324.86208067812
21
-474.138593973593
31
5.999995716479
0
LINE
8
0
10
3259.362373932707
20
-407.522566141818
30
5.999995733908
11
3257.106617316151
21
-415.941145243394
31
5.999995892954
0
LINE
8
0
10
3628.347004994625
20
-498.823530495846
30
5.99999156383
11
3639.847004994625
21
-498.823530495802
31
5.999991392534
0
LINE
8
0
10
3576.347004994521
20
-472.623518289013
30
5.99999194797
11
3616.347004994521
21
-472.623518288863
31
5.999991352161
0
LINE
8
0
10
3666.347004995803
20
-799.623518288664
30
5.999995480078
11
3654.847004995803
21
-799.62351828871
31
5.999995651374
0
LINE
8
0
10
3672.347004994992
20
-592.623518288643
30
5.999992306167
11
3666.347004994992
21
-592.623518288667
31
5.999992395538
0
LINE
8
0
10
3263.045734986146
20
-399.623518290243
30
5.999995561339
11
3259.362373932707
21
-407.522566141818
31
5.999995733908
0
LINE
8
0
10
3324.528348073141
20
-474.573530497032
30
5.99999572793
11
3324.318562611717
21
-475.080000223597
31
5.999995738601
0
LINE
8
0
10
3576.347004994544
20
-478.623518289013
30
5.999992037378
11
3576.347004994521
21
-472.623518289013
31
5.99999194797
0
LINE
8
0
10
3333.847004994544
20
-478.623518289966
30
5.999995649477
11
3333.84700499452
21
-472.623518289966
31
5.999995560068
0
LINE
8
0
10
3666.347004994624
20
-498.823530495698
30
5.99999099781
11
3666.347004994651
21
-504.823530495698
31
5.999991087217
0
LINE
8
0
10
3639.448018177747
20
-377.638899148147
30
5.999989627138
11
3631.029408558593
21
-375.383161843488
31
5.999989718922
0
LINE
8
0
10
3318.84700499452
20
-472.623518290028
30
5.999995783497
11
3318.847004994544
21
-478.623518290029
31
5.999995872906
0
LINE
8
0
10
3306.347004994544
20
-478.623518290074
30
5.999996059096
11
3306.347004994519
21
-472.623518290074
31
5.999995969687
0
LINE
8
0
10
3328.375447377342
20
-475.080000223579
30
5.999995678173
11
3328.165661915914
21
-474.573530497017
31
5.999995673752
0
LINE
8
0
10
3324.862080678132
20
-477.108442606405
30
5.999995760733
11
3325.297001942781
21
-477.442182840779
31
5.999995759227
0
LINE
8
0
10
3649.375447378602
20
-796.080000222325
30
5.999995680072
11
3649.165669546569
21
-795.573530495764
31
5.99999567565
0
LINE
8
0
10
3327.831929310944
20
-477.108442606396
30
5.999995716496
11
3328.165661915922
21
-476.673506082955
31
5.999995705044
0
LINE
8
0
10
3327.397008046282
20
-473.80485373921
30
5.999995673746
11
3326.89052306093
21
-473.595075907179
31
5.999995678165
0
LINE
8
0
10
3328.165661915914
20
-474.573530497017
30
5.999995673752
11
3327.831929310933
21
-474.138593973583
31
5.999995672242
0
LINE
8
0
10
3326.347004994524
20
-473.52354270406
30
5.999995685194
11
3325.803486928117
21
-473.595075907182
31
5.999995694358
0
LINE
8
0
10
3325.297001942781
20
-477.442182840779
30
5.999995759227
11
3325.803486928133
21
-477.651960672808
31
5.99999575481
0
LINE
8
0
10
3666.347004995781
20
-793.623518288664
30
5.999995390673
11
3666.347004995803
21
-799.623518288664
31
5.999995480078
0
LINE
8
0
10
3325.803486928117
20
-473.595075907182
30
5.999995694358
11
3325.297001942767
21
-473.804853739216
31
5.999995705026
0
LINE
8
0
10
3281.347004994162
20
-381.32224875892
30
5.999995016027
11
3274.20762358549
21
-386.321272196448
31
5.99999519686
0
LINE
8
0
10
3306.347004994519
20
-472.623518290074
30
5.999995969687
11
3318.84700499452
21
-472.623518290028
31
5.999995783497
0
LINE
8
0
10
3324.86208067812
20
-474.138593973593
30
5.999995716479
11
3324.528348073141
21
-474.573530497032
31
5.99999572793
0
LINE
8
0
10
3326.890523060946
20
-477.651960672804
30
5.999995738617
11
3327.397008046296
21
-477.442182840772
31
5.999995727947
0
LINE
8
0
10
3328.165661915922
20
-476.673506082955
30
5.999995705044
11
3328.375447377346
21
-476.167036356391
31
5.999995694372
0
LINE
8
0
10
3328.447003468653
20
-475.623518289991
30
5.999995685207
11
3328.375447377342
21
-475.080000223579
31
5.999995678173
0
LINE
8
0
10
3318.847004994544
20
-478.623518290029
30
5.999995872906
11
3306.347004994544
21
-478.623518290074
31
5.999996059096
0
LINE
8
0
10
3616.347004994544
20
-478.623518288863
30
5.999991441568
11
3576.347004994544
21
-478.623518289013
31
5.999992037378
0
LINE
8
0
10
3665.648274525485
20
-399.623518288668
30
5.999989564475
11
3660.64922057038
21
-392.484113991807
31
5.999989532552
0
LINE
8
0
10
3639.847004994625
20
-498.823530495802
30
5.999991392534
11
3639.847004994651
21
-504.823530495802
31
5.999991481941
0
LINE
8
0
10
3649.165669546569
20
-795.573530495764
30
5.99999567565
11
3648.831929312192
21
-795.138593972327
31
5.99999567414
0
LINE
8
0
10
3660.64922057038
20
-392.484113991807
30
5.999989532552
11
3654.48637877348
21
-386.321272194957
31
5.999989532515
0
LINE
8
0
10
3616.347004994521
20
-472.623518288863
30
5.999991352161
11
3616.347004994544
21
-478.623518288863
31
5.999991441568
0
LINE
8
0
10
3268.044782742314
20
-392.484113993352
30
5.999995380492
11
3263.045734986146
21
-399.623518290243
31
5.999995561339
0
LINE
8
0
10
3654.847004995803
20
-799.62351828871
30
5.999995651374
11
3654.84700499578
21
-793.62351828871
31
5.999995561968
0
LINE
8
0
10
3647.347004994167
20
-381.322248757489
30
5.999989564367
11
3639.448018177747
21
-377.638899148147
31
5.999989627138
0
LINE
8
0
10
3257.106617316151
20
-415.941145243394
30
5.999995892954
11
3256.347004994331
21
-424.62351829027
31
5.999996033646
0
LINE
8
0
10
3306.347004994136
20
-374.623518290071
30
5.999994543827
11
3297.664597614988
21
-375.383161844799
31
5.999994684473
0
LINE
8
0
10
3631.029408558593
20
-375.383161843488
30
5.999989718922
11
3622.347004994141
21
-374.623518288838
31
5.999989836929
0
LINE
8
0
10
3654.847004994651
20
-504.823530495742
30
5.999991258512
11
3654.847004994625
21
-498.823530495742
31
5.999991169106
0
LINE
8
0
10
3639.847004994651
20
-504.823530495802
30
5.999991481941
11
3628.347004994651
21
-504.823530495846
31
5.999991653236
0
LINE
8
0
10
3391.992375477885
20
-463.917585672548
30
5.999994564252
11
3391.822011097997
21
-462.623518289741
31
5.999994547506
0
LINE
8
0
10
3514.347004992087
20
-413.62351828045
30
5.999992064882
11
3514.295674160333
21
-414.40667543377
31
5.999992079578
0
LINE
8
0
10
3514.295674160333
20
-414.40667543377
30
5.999992079578
11
3514.142559949828
21
-415.176432551066
31
5.999992095477
0
LINE
8
0
10
3514.142559949828
20
-415.176432551066
30
5.999992095477
11
3513.890282187163
21
-415.919618874642
31
5.999992112306
0
LINE
8
0
10
3513.890282187163
20
-415.919618874642
30
5.999992112306
11
3513.543157414806
21
-416.623518280453
31
5.999992129777
0
LINE
8
0
10
3513.543157414806
20
-416.623518280453
30
5.999992129777
11
3513.107125033849
21
-417.276086854505
31
5.999992147591
0
LINE
8
0
10
3513.107125033849
20
-417.276086854505
30
5.999992147591
11
3512.589645679223
21
-417.866158967577
31
5.999992165445
0
LINE
8
0
10
3512.589645679223
20
-417.866158967577
30
5.999992165445
11
3511.999573566159
21
-418.383638322205
31
5.999992183032
0
LINE
8
0
10
3511.999573566159
20
-418.383638322205
30
5.999992183032
11
3511.347004992109
21
-418.819670703168
31
5.999992200051
0
LINE
8
0
10
3511.347004992109
20
-418.819670703168
30
5.999992200051
11
3510.643105586299
21
-419.16679547553
31
5.999992216211
0
LINE
8
0
10
3510.643105586299
20
-419.16679547553
30
5.999992216211
11
3509.899919262725
21
-419.419073238201
31
5.999992231236
0
LINE
8
0
10
3509.899919262725
20
-419.419073238201
30
5.999992231236
11
3509.13016214543
21
-419.572187448714
31
5.999992244867
0
LINE
8
0
10
3509.13016214543
20
-419.572187448714
30
5.999992244867
11
3508.347004992111
21
-419.623518280473
31
5.999992256873
0
LINE
8
0
10
3414.803727796959
20
-398.327417686649
30
5.999993263889
11
3415.150852569317
21
-397.623518280838
31
5.999993248229
0
LINE
8
0
10
3514.142559949765
20
-399.070604009835
30
5.999991808344
11
3513.890282187095
21
-398.327417686261
31
5.999991798845
0
LINE
8
0
10
3415.586884950274
20
-396.970949706785
30
5.99999323201
11
3416.104364304901
21
-396.380877593714
31
5.999993215509
0
LINE
8
0
10
3510.643105586205
20
-395.080241085395
30
5.999991789292
11
3509.899919262628
21
-394.827963322732
31
5.999991795862
0
LINE
8
0
10
3511.347004992017
20
-395.427365857754
30
5.999991784999
11
3510.643105586205
21
-395.080241085395
31
5.999991789292
0
LINE
8
0
10
3513.107125033769
20
-396.9709497064
30
5.999991786314
11
3512.589645679138
21
-396.380877593337
31
5.999991783497
0
LINE
8
0
10
3418.794090721398
20
-394.827963323089
30
5.999993152305
11
3419.563847838693
21
-394.674849112576
31
5.999993138558
0
LINE
8
0
10
3414.347004992036
20
-400.623518280841
30
5.999993304906
11
3414.39833582379
21
-399.840361127519
31
5.999993292472
0
LINE
8
0
10
3415.150852569392
20
-416.623518280839
30
5.999993531942
11
3414.803727797028
21
-415.919618875031
31
5.999993526368
0
LINE
8
0
10
3414.551450034295
20
-399.070604010224
30
5.99999327872
11
3414.803727796959
21
-398.327417686649
31
5.999993263889
0
LINE
8
0
10
3391.992375477847
20
-454.22941428583
30
5.999994419885
11
3392.491871937803
21
-453.023542703798
31
5.999994394477
0
LINE
8
0
10
3256.347000004959
20
-776.623524404731
30
6.000002158459
11
3256.347002126286
21
-943.622671976745
31
6.00002607685
0
LINE
8
0
10
3666.34700244248
20
-903.622671830761
30
5.999995542369
11
3666.347005294217
21
-863.62267183076
31
5.999994968471
0
LINE
8
0
10
3250.14700501054
20
-486.623524471912
30
5.999993574462
11
3250.147005114367
21
-499.623524471911
31
5.999993913478
0
LINE
8
0
10
3396.822011098016
20
-467.623518289717
30
5.999994547535
11
3395.527913197625
21
-467.453169168632
31
5.999994564274
0
LINE
8
0
10
3250.078856658984
20
-486.105886381703
30
5.999993562097
11
3250.129894731203
21
-486.362472087471
31
5.99999356794
0
LINE
8
0
10
3395.527913197625
20
-467.453169168632
30
5.999994564274
11
3394.322011098013
21
-466.953657449883
31
5.999994574792
0
LINE
8
0
10
3453.116093739621
20
-467.453169168406
30
5.999993706482
11
3451.822011098016
21
-467.623518289507
31
5.999993728296
0
LINE
8
0
10
3418.050904397824
20
-395.080241085757
30
5.999993167134
11
3418.794090721398
21
-394.827963323089
31
5.999993152305
0
LINE
8
0
10
3392.491871937803
20
-453.023542703798
30
5.999994394477
11
3393.286473378228
21
-451.987959207706
31
5.99999436721
0
LINE
8
0
10
3451.822011098016
20
-467.623518289507
30
5.999993728296
11
3396.822011098016
21
-467.623518289717
31
5.999994547535
0
LINE
8
0
10
3514.347004992037
20
-400.623518280449
30
5.999991832998
11
3514.295674160276
21
-399.840361127129
31
5.999991819793
0
LINE
8
0
10
3391.822011097997
20
-462.623518289741
30
5.999994547506
11
3391.822011097969
21
-455.523542703803
31
5.999994441708
0
LINE
8
0
10
3672.347000101559
20
-863.622672121787
30
5.999996784704
11
3666.347005294217
21
-863.62267183076
31
5.999994968471
0
LINE
8
0
10
3416.104364304901
20
-396.380877593714
30
5.999993215509
11
3416.694436417964
21
-395.863398239083
31
5.999993199009
0
LINE
8
0
10
3249.733711681399
20
-485.406001613871
30
5.999993549592
11
3249.879055810122
21
-485.623524471898
31
5.999993552845
0
LINE
8
0
10
3512.589645679138
20
-396.380877593337
30
5.999991783497
11
3511.99957356607
21
-395.86339823871
31
5.999991783056
0
LINE
8
0
10
3414.39833582379
20
-399.840361127519
30
5.999993292472
11
3414.551450034295
21
-399.070604010224
31
5.99999327872
0
LINE
8
0
10
3511.99957356607
20
-395.86339823871
30
5.999991783056
11
3511.347004992017
21
-395.427365857754
31
5.999991784999
0
LINE
8
0
10
3394.322011098013
20
-466.953657449883
30
5.999994574792
11
3393.286473378284
21
-466.159040750675
31
5.999994578374
0
LINE
8
0
10
3419.563847838693
20
-394.674849112576
30
5.999993138558
11
3420.347004992012
21
-394.623518280818
31
5.999993126127
0
LINE
8
0
10
3513.543157414731
20
-397.623518280452
30
5.99999179146
11
3513.107125033769
21
-396.9709497064
31
5.999991786314
0
LINE
8
0
10
3391.822011097969
20
-455.523542703803
30
5.999994441708
11
3391.992375477847
21
-454.22941428583
31
5.999994419885
0
LINE
8
0
10
3672.347000538871
20
-943.622671975114
30
6.000018699322
11
3256.347002126286
21
-943.622671976745
31
6.00002607685
0
LINE
8
0
10
3672.347000538871
20
-943.622671975114
30
6.000018699322
11
3672.346997249823
21
-903.622672121786
31
5.999997358601
0
LINE
8
0
10
3672.346997249823
20
-903.622672121786
30
5.999997358601
11
3666.34700244248
21
-903.622671830761
31
5.999995542369
0
LINE
8
0
10
3256.347004994331
20
-424.62351829027
30
5.999996033646
11
3256.34699572774
21
-499.623524400039
31
5.999993810876
0
LINE
8
0
10
3256.34699572774
20
-499.623524400039
30
5.999993810876
11
3250.147005114367
21
-499.623524471911
31
5.999993913478
0
LINE
8
0
10
3250.129894731203
20
-486.362472087471
30
5.99999356794
11
3250.14700501054
21
-486.623524471912
31
5.999993574462
0
LINE
8
0
10
3249.99476406945
20
-485.858157607174
30
5.999993557038
11
3250.078856658984
21
-486.105886381703
31
5.999993562097
0
LINE
8
0
10
3249.879055810122
20
-485.623524471898
30
5.999993552845
11
3249.99476406945
21
-485.858157607174
31
5.999993557038
0
LINE
8
0
10
3249.561218561618
20
-485.209310909507
30
5.999993547335
11
3249.733711681399
21
-485.406001613871
31
5.999993549592
0
LINE
8
0
10
3249.364527855886
20
-485.036817791289
30
5.999993546111
11
3249.561218561618
21
-485.209310909507
31
5.999993547335
0
LINE
8
0
10
3249.147004996707
20
-484.891473664293
30
5.999993545941
11
3249.364527855886
21
-485.036817791289
31
5.999993546111
0
LINE
8
0
10
3248.912371860513
20
-484.775765406827
30
5.99999354683
11
3249.147004996707
21
-484.891473664293
31
5.999993545941
0
LINE
8
0
10
3248.664643085316
20
-484.69167281926
30
5.99999354876
11
3248.912371860513
21
-484.775765406827
31
5.99999354683
0
LINE
8
0
10
3248.408057379144
20
-484.640634749075
30
5.999993551702
11
3248.664643085316
21
-484.69167281926
31
5.99999354876
0
LINE
8
0
10
3248.408057379144
20
-484.640634749075
30
5.999993551702
11
3248.147004994567
21
-484.62352447181
31
5.999993555602
0
LINE
8
0
10
3248.147004994567
20
-484.62352447181
30
5.999993555602
11
3242.346995607595
21
-484.623524459694
31
5.999993652158
0
LINE
8
0
10
3242.346995607595
20
-484.623524459694
30
5.999993652158
11
3242.08594322341
21
-484.640634740835
31
5.999993656556
0
LINE
8
0
10
3241.829357518405
20
-484.69167281483
30
5.999993661897
11
3242.08594322341
21
-484.640634740835
31
5.999993656556
0
LINE
8
0
10
3241.581628745133
20
-484.775765406079
30
5.999993668093
11
3241.829357518405
21
-484.69167281483
31
5.999993661897
0
LINE
8
0
10
3241.346995611587
20
-484.891473667028
30
5.999993675036
11
3241.581628745133
21
-484.775765406079
31
5.999993668093
0
LINE
8
0
10
3241.129472755737
20
-485.036817797257
30
5.999993682608
11
3241.346995611587
21
-484.891473667028
31
5.999993675036
0
LINE
8
0
10
3240.932782053952
20
-485.209310918398
30
5.999993690679
11
3241.129472755737
21
-485.036817797257
31
5.999993682608
0
LINE
8
0
10
3240.760288938674
20
-485.406001625324
30
5.999993699108
11
3240.932782053952
21
-485.209310918398
31
5.999993690679
0
LINE
8
0
10
3240.614944814929
20
-485.623524485508
30
5.999993707757
11
3240.760288938674
21
-485.406001625324
31
5.999993699108
0
LINE
8
0
10
3240.499236560972
20
-485.8581576225
30
5.999993716474
11
3240.614944814929
21
-485.623524485508
31
5.999993707757
0
LINE
8
0
10
3240.415143977109
20
-486.105886398279
30
5.999993725108
11
3240.499236560972
21
-485.8581576225
31
5.999993716474
0
LINE
8
0
10
3240.364105910764
20
-486.362472104805
30
5.999993733517
11
3240.415143977109
21
-486.105886398279
31
5.999993725108
0
LINE
8
0
10
3240.364105910764
20
-486.362472104805
30
5.999993733517
11
3240.346995637402
21
-486.623524489499
31
5.999993741551
0
LINE
8
0
10
3240.346995637402
20
-486.623524489499
30
5.999993741551
11
3240.34699647199
21
-539.623524489499
31
5.999995357226
0
LINE
8
0
10
3240.34699647199
20
-539.623524489499
30
5.999995357226
11
3240.364106753133
21
-539.884576873686
31
5.999995364752
0
LINE
8
0
10
3240.364106753133
20
-539.884576873686
30
5.999995364752
11
3240.415144827126
21
-540.141162578689
31
5.999995371638
0
LINE
8
0
10
3240.415144827126
20
-540.141162578689
30
5.999995371638
11
3240.499237418374
21
-540.38889135196
31
5.99999537777
0
LINE
8
0
10
3240.499237418374
20
-540.38889135196
30
5.99999537777
11
3240.614945679325
21
-540.623524485507
31
5.999995383039
0
LINE
8
0
10
3240.614945679325
20
-540.623524485507
30
5.999995383039
11
3240.760289809552
21
-540.841047341359
31
5.999995387357
0
LINE
8
0
10
3240.760289809552
20
-540.841047341359
30
5.999995387357
11
3240.932782930694
21
-541.037738043144
31
5.999995390651
0
LINE
8
0
10
3240.932782930694
20
-541.037738043144
30
5.999995390651
11
3241.129473637619
21
-541.210231158422
31
5.999995392863
0
LINE
8
0
10
3241.129473637619
20
-541.210231158422
30
5.999995392863
11
3241.346996497804
21
-541.355575282166
31
5.999995393953
0
LINE
8
0
10
3241.346996497804
20
-541.355575282166
30
5.999995393953
11
3241.581629634797
21
-541.471283536123
31
5.999995393908
0
LINE
8
0
10
3241.581629634797
20
-541.471283536123
30
5.999995393908
11
3241.829358410576
21
-541.555376119986
31
5.999995392725
0
LINE
8
0
10
3241.829358410576
20
-541.555376119986
30
5.999995392725
11
3242.085944117102
21
-541.606414186334
31
5.999995390425
0
LINE
8
0
10
3242.346996501796
20
-541.623524459694
30
5.999995387047
11
3242.085944117102
21
-541.606414186334
31
5.999995390425
0
LINE
8
0
10
3256.346996502142
20
-541.623524400038
30
5.999995154595
11
3242.346996501796
21
-541.623524459694
31
5.999995387047
0
LINE
8
0
10
3256.346996502142
20
-541.623524400038
30
5.999995154595
11
3256.346999174671
21
-734.623524404732
31
6.000000870624
0
LINE
8
0
10
3256.346999174671
20
-734.623524404732
30
6.000000870624
11
3250.147005070354
21
-734.623524431149
31
6.000000974292
0
LINE
8
0
10
3250.147005014962
20
-721.623524431149
30
6.000000586843
11
3250.147005070354
21
-734.623524431149
31
6.000000974292
0
LINE
8
0
10
3250.129894736597
20
-721.362472046783
30
6.00000057935
11
3250.147005014962
21
-721.623524431149
31
6.000000586843
0
LINE
8
0
10
3250.078856665335
20
-721.105886341236
30
6.000000572555
11
3250.129894736597
21
-721.362472046783
31
6.00000057935
0
LINE
8
0
10
3249.994764076722
20
-720.858157567068
30
6.00000056658
11
3250.078856665335
21
-721.105886341236
31
6.000000572555
0
LINE
8
0
10
3249.87905581827
20
-720.623524432292
30
6.00000056152
11
3249.994764076722
21
-720.858157567068
31
6.00000056658
0
LINE
8
0
10
3249.733711690355
20
-720.406001574894
30
6.000000557468
11
3249.87905581827
21
-720.623524432292
31
6.00000056152
0
LINE
8
0
10
3249.561218571309
20
-720.209310871272
30
6.00000055449
11
3249.733711690355
21
-720.406001574894
31
6.000000557468
0
LINE
8
0
10
3249.364527866218
20
-720.036817753901
30
6.000000552638
11
3249.561218571309
21
-720.209310871272
31
6.00000055449
0
LINE
8
0
10
3249.147005007581
20
-719.891473627843
30
6.000000551942
11
3249.364527866218
21
-720.036817753901
31
6.000000552638
0
LINE
8
0
10
3248.912371871819
20
-719.775765371387
30
6.000000552417
11
3249.147005007581
21
-719.891473627843
31
6.000000551942
0
LINE
8
0
10
3248.664643096935
20
-719.691672784889
30
6.000000554053
11
3248.912371871819
21
-719.775765371387
31
6.000000552417
0
LINE
8
0
10
3248.408057390953
20
-719.640634715813
30
6.000000556823
11
3248.664643096935
21
-719.691672784889
31
6.000000554053
0
LINE
8
0
10
3248.408057390953
20
-719.640634715813
30
6.000000556823
11
3248.14700500644
21
-719.623524439671
31
6.000000560678
0
LINE
8
0
10
3248.14700500644
20
-719.623524439671
30
6.000000560678
11
3242.346999110411
21
-719.623524464386
31
6.000000657657
0
LINE
8
0
10
3242.346999110411
20
-719.623524464386
30
6.000000657657
11
3242.085946726225
21
-719.640634745527
31
6.000000662055
0
LINE
8
0
10
3241.829361021221
20
-719.691672819523
30
6.000000667397
11
3242.085946726225
21
-719.640634745527
31
6.000000662055
0
LINE
8
0
10
3241.58163224795
20
-719.775765410768
30
6.000000673592
11
3241.829361021221
21
-719.691672819523
31
6.000000667397
0
LINE
8
0
10
3241.346999114404
20
-719.891473671721
30
6.000000680535
11
3241.58163224795
21
-719.775765410768
31
6.000000673592
0
LINE
8
0
10
3241.129476258553
20
-720.036817801947
30
6.000000688108
11
3241.346999114404
21
-719.891473671721
31
6.000000680535
0
LINE
8
0
10
3240.932785556768
20
-720.209310923088
30
6.000000696178
11
3241.129476258553
21
-720.036817801947
31
6.000000688108
0
LINE
8
0
10
3240.760292441489
20
-720.406001630017
30
6.000000704607
11
3240.932785556768
21
-720.209310923088
31
6.000000696178
0
LINE
8
0
10
3240.614948317746
20
-720.6235244902
30
6.000000713256
11
3240.760292441489
21
-720.406001630017
31
6.000000704607
0
LINE
8
0
10
3240.499240063788
20
-720.858157627193
30
6.000000721973
11
3240.614948317746
21
-720.6235244902
31
6.000000713256
0
LINE
8
0
10
3240.415147479925
20
-721.105886402973
30
6.000000730607
11
3240.499240063788
21
-720.858157627193
31
6.000000721973
0
LINE
8
0
10
3240.36410941358
20
-721.362472109498
30
6.000000739016
11
3240.415147479925
21
-721.105886402973
31
6.000000730607
0
LINE
8
0
10
3240.36410941358
20
-721.362472109498
30
6.000000739016
11
3240.346999140218
21
-721.623524494192
31
6.00000074705
0
LINE
8
0
10
3240.346999140218
20
-721.623524494192
30
6.00000074705
11
3240.346999974805
21
-774.623524494191
31
6.000002362725
0
LINE
8
0
10
3240.346999974805
20
-774.623524494191
30
6.000002362725
11
3240.364110255949
21
-774.884576878378
31
6.000002370251
0
LINE
8
0
10
3240.364110255949
20
-774.884576878378
30
6.000002370251
11
3240.415148329942
21
-775.141162583383
31
6.000002377138
0
LINE
8
0
10
3240.415148329942
20
-775.141162583383
30
6.000002377138
11
3240.49924092119
21
-775.388891356652
31
6.000002383269
0
LINE
8
0
10
3240.49924092119
20
-775.388891356652
30
6.000002383269
11
3240.614949182141
21
-775.6235244902
31
6.000002388538
0
LINE
8
0
10
3240.614949182141
20
-775.6235244902
30
6.000002388538
11
3240.760293312369
21
-775.841047346051
31
6.000002392856
0
LINE
8
0
10
3240.760293312369
20
-775.841047346051
30
6.000002392856
11
3240.93278643351
21
-776.037738047834
31
6.00000239615
0
LINE
8
0
10
3240.93278643351
20
-776.037738047834
30
6.00000239615
11
3241.129477140436
21
-776.210231163112
31
6.000002398362
0
LINE
8
0
10
3241.129477140436
20
-776.210231163112
30
6.000002398362
11
3241.34700000062
21
-776.355575286859
31
6.000002399453
0
LINE
8
0
10
3241.34700000062
20
-776.355575286859
30
6.000002399453
11
3241.581633137614
21
-776.471283540813
31
6.000002399407
0
LINE
8
0
10
3241.581633137614
20
-776.471283540813
30
6.000002399407
11
3241.829361913393
21
-776.555376124679
31
6.000002398225
0
LINE
8
0
10
3241.829361913393
20
-776.555376124679
30
6.000002398225
11
3242.085947619918
21
-776.606414191024
31
6.000002395924
0
LINE
8
0
10
3242.347000004614
20
-776.623524464386
30
6.000002392546
11
3242.085947619918
21
-776.606414191024
31
6.000002395924
0
LINE
8
0
10
3256.347000004959
20
-776.623524404731
30
6.000002158459
11
3242.347000004614
21
-776.623524464386
31
6.000002392546
0
LINE
8
0
10
3420.34700499211
20
-419.623518280818
30
5.999993503061
11
3508.347004992111
21
-419.623518280473
31
5.999992256873
0
LINE
8
0
10
3420.34700499211
20
-419.623518280818
30
5.999993503061
11
3419.56384783879
21
-419.572187449062
31
5.999993513386
0
LINE
8
0
10
3419.56384783879
20
-419.572187449062
30
5.999993513386
11
3418.794090721494
21
-419.419073238559
31
5.999993522006
0
LINE
8
0
10
3418.794090721494
20
-419.419073238559
30
5.999993522006
11
3418.050904397918
21
-419.166795475893
31
5.999993528771
0
LINE
8
0
10
3418.050904397918
20
-419.166795475893
30
5.999993528771
11
3417.347004992107
21
-418.819670703537
31
5.999993533566
0
LINE
8
0
10
3417.347004992107
20
-418.819670703537
30
5.999993533566
11
3416.694436418054
21
-418.383638322579
31
5.999993536311
0
LINE
8
0
10
3416.694436418054
20
-418.383638322579
30
5.999993536311
11
3416.104364304984
21
-417.866158967953
31
5.999993536955
0
LINE
8
0
10
3416.104364304984
20
-417.866158967953
30
5.999993536955
11
3415.586884950354
21
-417.27608685489
31
5.999993535491
0
LINE
8
0
10
3415.586884950354
20
-417.27608685489
30
5.999993535491
11
3415.150852569392
21
-416.623518280839
31
5.999993531942
0
LINE
8
0
10
3414.803727797028
20
-415.919618875031
30
5.999993526368
11
3414.551450034359
21
-415.176432551454
31
5.999993518866
0
LINE
8
0
10
3414.551450034359
20
-415.176432551454
30
5.999993518866
11
3414.398335823847
21
-414.406675434162
31
5.999993509565
0
LINE
8
0
10
3414.398335823847
20
-414.406675434162
30
5.999993509565
11
3414.347004992087
21
-413.623518280842
31
5.999993498622
0
LINE
8
0
10
3414.347004992036
20
-400.623518280841
30
5.999993304906
11
3414.347004992087
21
-413.623518280842
31
5.999993498622
0
LINE
8
0
10
3415.150852569317
20
-397.623518280838
30
5.999993248229
11
3415.586884950274
21
-396.970949706785
31
5.99999323201
0
LINE
8
0
10
3416.694436417964
20
-395.863398239083
30
5.999993199009
11
3417.347004992015
21
-395.427365858123
31
5.999993182792
0
LINE
8
0
10
3417.347004992015
20
-395.427365858123
30
5.999993182792
11
3418.050904397824
21
-395.080241085757
31
5.999993167134
0
LINE
8
0
10
3508.347004992013
20
-394.623518280473
30
5.999991815347
11
3420.347004992012
21
-394.623518280818
31
5.999993126127
0
LINE
8
0
10
3509.130162145334
20
-394.674849112228
30
5.999991804596
11
3508.347004992013
21
-394.623518280473
31
5.999991815347
0
LINE
8
0
10
3509.899919262628
20
-394.827963322732
30
5.999991795862
11
3509.130162145334
21
-394.674849112228
31
5.999991804596
0
LINE
8
0
10
3513.890282187095
20
-398.327417686261
30
5.999991798845
11
3513.543157414731
21
-397.623518280452
31
5.99999179146
0
LINE
8
0
10
3514.295674160276
20
-399.840361127129
30
5.999991819793
11
3514.142559949765
21
-399.070604009835
31
5.999991808344
0
LINE
8
0
10
3514.347004992087
20
-413.62351828045
30
5.999992064882
11
3514.347004992037
21
-400.623518280449
31
5.999991832998
0
LINE
8
0
10
3393.286473378284
20
-466.159040750675
30
5.999994578374
11
3392.49187193785
21
-465.123518289736
31
5.999994574779
0
LINE
8
0
10
3392.49187193785
20
-465.123518289736
30
5.999994574779
11
3391.992375477885
21
-463.917585672548
31
5.999994564252
0
LINE
8
0
10
3393.286473378228
20
-451.987959207706
30
5.99999436721
11
3394.322011097952
21
-451.193403543633
31
5.999994339946
0
LINE
8
0
10
3394.322011097952
20
-451.193403543633
30
5.999994339946
11
3395.52791319756
21
-450.69389182488
31
5.999994314541
0
LINE
8
0
10
3395.52791319756
20
-450.69389182488
30
5.999994314541
11
3396.822011097949
21
-450.523542703779
31
5.999994292725
0
LINE
8
0
10
3396.822011097949
20
-450.523542703779
30
5.999994292725
11
3451.82201109795
21
-450.523542703568
31
5.999993473485
0
LINE
8
0
10
3451.82201109795
20
-450.523542703568
30
5.999993473485
11
3453.116093739552
21
-450.693891824654
31
5.999993456749
0
LINE
8
0
10
3453.116093739552
20
-450.693891824654
30
5.999993456749
11
3454.322011097952
21
-451.193403543398
31
5.99999344623
0
LINE
8
0
10
3454.322011097952
20
-451.193403543398
30
5.99999344623
11
3455.357533558893
21
-451.987959207458
31
5.999993442645
0
LINE
8
0
10
3455.357533558893
20
-451.987959207458
30
5.999993442645
11
3456.152134999327
21
-453.023542703553
31
5.999993446241
0
LINE
8
0
10
3456.152134999327
20
-453.023542703553
30
5.999993446241
11
3456.651631459292
21
-454.229414285576
31
5.999993456769
0
LINE
8
0
10
3456.651631459292
20
-454.229414285576
30
5.999993456769
11
3456.822011097969
21
-455.523542703546
31
5.999993473516
0
LINE
8
0
10
3456.822011097969
20
-455.523542703546
30
5.999993473516
11
3456.822011097997
21
-462.623518289484
31
5.999993579314
0
LINE
8
0
10
3456.822011097997
20
-462.623518289484
30
5.999993579314
11
3456.65163145933
21
-463.917585672295
31
5.999993601135
0
LINE
8
0
10
3456.65163145933
20
-463.917585672295
30
5.999993601135
11
3456.152134999374
21
-465.123518289491
31
5.999993626543
0
LINE
8
0
10
3456.152134999374
20
-465.123518289491
30
5.999993626543
11
3455.357533558948
21
-466.159040750427
31
5.999993653809
0
LINE
8
0
10
3455.357533558948
20
-466.159040750427
30
5.999993653809
11
3454.322011098017
21
-466.953657449648
31
5.999993681076
0
LINE
8
0
10
3454.322011098017
20
-466.953657449648
30
5.999993681076
11
3453.116093739621
21
-467.453169168406
31
5.999993706482
0
LINE
8
0
10
3385.347006538654
20
-491.123517128463
30
5.999995068636
11
3385.347006538606
21
-478.623518289764
31
5.999994882372
0
LINE
8
0
10
3379.347004994593
20
-491.123517128487
30
5.999995158008
11
3385.347006538654
21
-491.123517128463
31
5.999995068636
0
LINE
8
0
10
3379.347004994544
20
-478.623518289788
30
5.999994971744
11
3379.347004994593
21
-491.123517128487
31
5.999995158008
0
LINE
8
0
10
3385.347006538606
20
-478.623518289764
30
5.999994882372
11
3379.347004994544
21
-478.623518289788
31
5.999994971744
0
LINE
8
0
10
3547.347011102493
20
-491.123513396279
30
5.999992655606
11
3553.347012646555
21
-491.123513396256
31
5.999992566234
0
LINE
8
0
10
3547.347011102444
20
-478.62351455758
30
5.999992469341
11
3547.347011102493
21
-491.123513396279
31
5.999992655606
0
LINE
8
0
10
3553.347012646506
20
-478.623514557555
30
5.99999237997
11
3547.347011102444
21
-478.62351455758
31
5.999992469341
0
LINE
8
0
10
3553.347012646555
20
-491.123513396256
30
5.999992566234
11
3553.347012646506
21
-478.623514557555
31
5.99999237997
0
LINE
8
0
10
3312.346995533659
20
-883.622672190964
30
6.000005172612
11
3312.346995533708
21
-896.122672190963
31
6.000005358877
0
LINE
8
0
10
3312.346995533708
20
-896.122672190963
30
6.000005358877
11
3306.346995691107
21
-896.122672190987
31
6.00000551969
0
LINE
8
0
10
3306.346995691107
20
-896.122672190987
30
6.00000551969
11
3306.346995691059
21
-883.622672190987
31
6.00000524332
0
LINE
8
0
10
3306.346995691059
20
-883.622672190987
30
6.00000524332
11
3312.346995533659
21
-883.622672190964
31
6.000005172612
0
LINE
8
0
10
3306.346996069386
20
-923.622672175678
30
6.000006147905
11
3306.346996069337
21
-911.122672175679
31
6.00000580775
0
LINE
8
0
10
3306.346996069337
20
-911.122672175679
30
6.00000580775
11
3312.346995911938
21
-911.122672175655
31
6.000005737042
0
LINE
8
0
10
3312.346995911938
20
-911.122672175655
30
6.000005737042
11
3312.346995911987
21
-923.622672175655
31
6.000005923307
0
LINE
8
0
10
3312.346995911987
20
-923.622672175655
30
6.000005923307
11
3306.346996069386
21
-923.622672175678
31
6.000006147905
0
LINE
8
0
10
3560.347011020091
20
-883.62267141451
30
5.999997868149
11
3566.34701066616
21
-883.622671414487
31
5.999997797441
0
LINE
8
0
10
3566.34701066616
20
-883.622671414487
30
5.999997797441
11
3566.347010666209
21
-896.122671414487
31
5.999997983706
0
LINE
8
0
10
3566.347010666209
20
-896.122671414487
30
5.999997983706
11
3560.34701102014
21
-896.12267141451
31
6.000001375689
0
LINE
8
0
10
3560.34701102014
20
-896.12267141451
30
6.000001375689
11
3560.347011020091
21
-883.62267141451
31
5.999997868149
0
LINE
8
0
10
3560.347012246427
20
-923.622670992159
30
6.000002003904
11
3560.347012246378
21
-911.122654029649
31
5.999996736561
0
LINE
8
0
10
3560.347012246378
20
-911.122654029649
30
5.999996736561
11
3566.347011917468
21
-911.122654029626
31
5.999996665854
0
LINE
8
0
10
3566.347011917468
20
-911.122654029626
30
5.999996665854
11
3566.347011917517
21
-923.622670992136
31
5.999996852119
0
LINE
8
0
10
3566.347011917517
20
-923.622670992136
30
5.999996852119
11
3560.347012246427
21
-923.622670992159
31
6.000002003904
0
ENDSEC
0
EOF
