0
SECTION
2
ENTITIES
0
LINE
8
0
10
2590.30000761776
20
-1195.200024413841
30
5.999994516809
11
2590.300007617802
21
-1176.399975585717
31
5.999994236636
0
LINE
8
0
10
2590.96988371644
20
-1173.899975585718
30
5.999994199386
11
2591.764469898083
21
-1172.864453124782
31
5.999994183958
0
LINE
8
0
10
2667.30000761776
20
-1195.200024414013
30
5.999994517367
11
2667.129637515828
21
-1196.494091796824
31
5.999994536651
0
LINE
8
0
10
2590.300007617802
20
-1176.399975585717
30
5.999994236636
11
2590.470379627082
21
-1175.105908202904
31
5.999994217353
0
LINE
8
0
10
2662.300007617749
20
-1200.200024414002
30
5.999994591845
11
2595.300007617749
21
-1200.200024413853
31
5.999994591357
0
LINE
8
0
10
2429.937214649041
20
-1181.094433593174
30
5.999994305429
11
2431.897785938113
21
-1177.358837890052
31
5.999994249773
0
LINE
8
0
10
2592.80000761775
20
-1199.530102538847
30
5.999994581357
11
2591.764469898026
21
-1198.735546874782
31
5.999994569506
0
LINE
8
0
10
2665.835541522839
20
-1172.864453124947
30
5.999994184498
11
2666.630135333871
21
-1173.899975585886
31
5.999994199936
0
LINE
8
0
10
2428.927601611923
20
-1185.190624999421
30
5.999994366466
11
2429.937214649041
21
-1181.094433593174
31
5.999994305429
0
LINE
8
0
10
2429.937214649014
20
-1193.505566405673
30
5.99999449039
11
2428.927601611914
21
-1189.409374999421
31
5.999994429339
0
LINE
8
0
10
2592.800007617811
20
-1172.069897460722
30
5.999994172124
11
2594.005909717422
21
-1171.570385741975
31
5.999994164689
0
LINE
8
0
10
2428.927601611914
20
-1189.409374999421
30
5.999994429339
11
2428.927601611923
21
-1185.190624999421
31
5.999994366466
0
LINE
8
0
10
2527.662785327725
20
-1193.50556640589
30
5.999994491101
11
2528.672413623633
21
-1189.409374999642
31
5.999994430064
0
LINE
8
0
10
2590.470379627035
20
-1196.494091796655
30
5.999994536092
11
2590.30000761776
21
-1195.200024413841
31
5.999994516809
0
LINE
8
0
10
2591.764469898026
20
-1198.735546874782
30
5.999994569506
11
2590.969883716387
21
-1197.700024413843
31
5.999994554069
0
LINE
8
0
10
2446.300007617739
20
-1204.79999999946
30
5.999994658827
11
2442.111988818912
21
-1204.291455077575
31
5.999994651216
0
LINE
8
0
10
2665.835541522782
20
-1198.735546874947
30
5.999994570047
11
2664.80000761775
21
-1199.530102539007
31
5.999994581879
0
LINE
8
0
10
2527.662785327752
20
-1181.09443359339
30
5.99999430614
11
2525.702229297487
21
-1177.358837890261
31
5.999994250457
0
LINE
8
0
10
2442.111988818987
20
-1170.308544921325
30
5.999994144779
11
2446.300007617817
21
-1169.79999999946
31
5.999994137231
0
LINE
8
0
10
2595.300007617749
20
-1200.200024413853
30
5.999994591357
11
2594.005909717358
21
-1200.0296142576
31
5.999994588808
0
LINE
8
0
10
2664.800007617811
20
-1172.069897460882
30
5.999994172648
11
2665.835541522839
21
-1172.864453124947
31
5.999994184498
0
LINE
8
0
10
2667.129637515828
20
-1196.494091796824
30
5.999994536651
11
2666.630135333819
21
-1197.700024414011
31
5.999994554619
0
LINE
8
0
10
2515.488026416568
20
-1204.291455077738
30
5.999994651749
11
2519.432667529853
21
-1202.79548339806
31
5.999994629486
0
LINE
8
0
10
2663.594103610855
20
-1171.570385742129
30
5.999994165195
11
2664.800007617811
21
-1172.069897460882
31
5.999994172648
0
LINE
8
0
10
2442.111988818912
20
-1204.291455077575
30
5.999994651216
11
2438.167347705634
21
-1202.795483397879
31
5.999994628894
0
LINE
8
0
10
2431.897785938068
20
-1197.241162108802
30
5.999994546073
11
2429.937214649014
21
-1193.505566405673
31
5.99999449039
0
LINE
8
0
10
2667.300007617802
20
-1176.399975585887
30
5.999994237196
11
2667.30000761776
21
-1195.200024414013
31
5.999994517367
0
LINE
8
0
10
2519.432667529853
20
-1202.79548339806
30
5.999994629486
11
2522.904652393139
21
-1200.398937987911
31
5.999994593795
0
LINE
8
0
10
2667.129637515876
20
-1175.105908203075
30
5.99999421791
11
2667.300007617802
21
-1176.399975585887
31
5.999994237196
0
LINE
8
0
10
2663.594103610792
20
-1200.029614257754
30
5.999994589314
11
2662.300007617749
21
-1200.200024414002
31
5.999994591845
0
LINE
8
0
10
2511.300007617739
20
-1204.799999999604
30
5.999994659298
11
2446.300007617739
21
-1204.79999999946
31
5.999994658827
0
LINE
8
0
10
2431.897785938113
20
-1177.358837890052
30
5.999994249773
11
2434.695362842416
21
-1174.201062011153
31
5.999994202735
0
LINE
8
0
10
2666.630135333819
20
-1197.700024414011
30
5.999994554619
11
2665.835541522782
21
-1198.735546874947
31
5.999994570047
0
LINE
8
0
10
2438.167347705634
20
-1202.795483397879
30
5.999994628894
11
2434.695362842358
21
-1200.398937987715
31
5.999994593154
0
LINE
8
0
10
2511.300007617739
20
-1204.799999999604
30
5.999994659298
11
2515.488026416568
21
-1204.291455077738
31
5.999994651749
0
LINE
8
0
10
2590.470379627082
20
-1175.105908202904
30
5.999994217353
11
2590.96988371644
21
-1173.899975585718
31
5.999994199386
0
LINE
8
0
10
2522.904652393197
20
-1174.201062011349
30
5.999994203376
11
2519.432667529921
21
-1171.804516601184
31
5.999994167637
0
LINE
8
0
10
2434.695362842358
20
-1200.398937987715
30
5.999994593154
11
2431.897785938068
21
-1197.241162108802
31
5.999994546073
0
LINE
8
0
10
2438.167347705703
20
-1171.804516601004
30
5.999994167045
11
2442.111988818987
21
-1170.308544921325
31
5.999994144779
0
LINE
8
0
10
2434.695362842416
20
-1174.201062011153
30
5.999994202735
11
2438.167347705703
21
-1171.804516601004
31
5.999994167045
0
LINE
8
0
10
2662.300007617813
20
-1171.399975585877
30
5.999994162646
11
2663.594103610855
21
-1171.570385742129
31
5.999994165195
0
LINE
8
0
10
2525.702229297487
20
-1177.358837890261
30
5.999994250457
11
2522.904652393197
21
-1174.201062011349
31
5.999994203376
0
LINE
8
0
10
2666.630135333871
20
-1173.899975585886
30
5.999994199936
11
2667.129637515876
21
-1175.105908203075
31
5.99999421791
0
LINE
8
0
10
2519.432667529921
20
-1171.804516601184
30
5.999994167637
11
2515.488026416644
21
-1170.308544921488
31
5.999994145313
0
LINE
8
0
10
2528.672413623633
20
-1189.409374999642
30
5.999994430064
11
2528.672413623642
21
-1185.190624999642
31
5.999994367192
0
LINE
8
0
10
2446.300007617817
20
-1169.79999999946
30
5.999994137231
11
2511.300007617817
21
-1169.799999999604
31
5.999994137704
0
LINE
8
0
10
2273.800007617006
20
-1534.800000008454
30
5.99999957434
11
2273.80000761714
21
-1474.800000008454
31
5.999998680179
0
LINE
8
0
10
2522.904652393139
20
-1200.398937987911
30
5.999994593795
11
2525.702229297443
21
-1197.241162109011
31
5.999994546757
0
LINE
8
0
10
2683.800007616485
20
-1769.800000002331
30
6.000003079455
11
2689.800007616485
21
-1769.800000002344
31
6.000003080138
0
LINE
8
0
10
2267.80000761714
20
-1474.800000008441
30
5.999998680135
11
2267.800007617006
21
-1534.800000008441
31
5.999999574296
0
LINE
8
0
10
2267.800007617528
20
-1299.800000003752
30
5.999996072645
11
2273.800007617528
21
-1299.800000003765
31
5.999996072688
0
LINE
8
0
10
2525.702229297443
20
-1197.241162109011
30
5.999994546757
11
2527.662785327725
21
-1193.50556640589
31
5.999994491101
0
LINE
8
0
10
2267.800007617661
20
-1239.800000003752
30
5.999995178483
11
2267.800007617528
21
-1299.800000003752
31
5.999996072645
0
LINE
8
0
10
2683.800007617528
20
-1299.800000004675
30
5.999996075669
11
2689.800007617528
21
-1299.800000004688
31
5.999996075712
0
LINE
8
0
10
2267.800007616484
20
-1769.800000001408
30
6.000003076429
11
2273.800007616484
21
-1769.800000001422
31
6.000003077112
0
LINE
8
0
10
2263.973173286256
20
-1680.561204680975
30
6.000001549196
11
2262.800007604757
21
-1681.139745968241
31
6.000001593272
0
LINE
8
0
10
2267.80000761694
20
-1564.800000008441
30
6.000000022599
11
2267.800007616684
21
-1679.800000006096
31
6.000001421964
0
LINE
8
0
10
2699.800007617221
20
-1454.800000014086
30
5.999998385191
11
2699.800007616926
21
-1554.800000009404
31
5.999999876195
0
LINE
8
0
10
2257.800007705452
20
-1789.800000006053
30
6.000003341481
11
2257.800007527651
21
-1689.800000006074
31
6.000001872144
0
LINE
8
0
10
2689.800007617728
20
-1209.800000009377
30
5.999994734489
11
2689.800007489589
21
-1160.800000000003
31
5.999994004526
0
LINE
8
0
10
2699.800007750219
20
-1689.800000007059
30
6.000001891309
11
2699.800007482885
21
-1789.800000007049
31
6.000003368211
0
LINE
8
0
10
2261.712393327241
20
-1562.73353341134
30
5.999999987923
11
2260.728939805625
21
-1561.871067820291
31
5.999999974467
0
LINE
8
0
10
2683.800007617006
20
-1534.800000009364
30
5.999999577322
11
2689.800007617006
21
-1534.800000009377
31
5.999999577365
0
LINE
8
0
10
2528.672413623642
20
-1185.190624999642
30
5.999994367192
11
2527.662785327752
21
-1181.09443359339
31
5.99999430614
0
LINE
8
0
10
2259.866474214763
20
-1560.88761429851
30
5.999999959292
11
2259.139753580035
21
-1559.800000008421
31
5.999999942658
0
LINE
8
0
10
2267.800007616618
20
-1709.800000006097
30
6.000002182267
11
2267.800007616484
21
-1769.800000001408
31
6.000003076429
0
LINE
8
0
10
2259.866474178938
20
-1683.712385715991
30
6.000001720031
11
2259.139753534324
21
-1684.800000006077
31
6.000001758049
0
LINE
8
0
10
2683.80000761714
20
-1474.800000009364
30
5.99999868316
11
2683.800007617006
21
-1534.800000009364
31
5.999999577322
0
LINE
8
0
10
2689.800007616618
20
-1709.800000007033
30
6.000002185336
11
2683.800007616618
21
-1709.800000007019
31
6.000002185292
0
LINE
8
0
10
2694.800007616938
20
-1563.460254049578
30
6.000000005029
11
2695.887621907024
21
-1562.733533414139
31
5.999999994257
0
LINE
8
0
10
2262.800007617192
20
-1563.460254046274
30
5.999999999431
11
2261.712393327241
21
-1562.73353341134
31
5.999999987923
0
LINE
8
0
10
2515.488026416644
20
-1170.308544921488
30
5.999994145313
11
2511.300007617817
21
-1169.799999999604
31
5.999994137704
0
LINE
8
0
10
2267.800007616418
20
-1799.800000001408
30
6.000003524069
11
2267.800000711865
21
-1854.79999999907
31
5.999989769941
0
LINE
8
0
10
2267.800007617727
20
-1209.800000003752
30
5.999994732041
11
2267.800007617837
21
-1160.799999999064
31
5.99999400181
0
LINE
8
0
10
2689.800007617006
20
-1534.800000009377
30
5.999999577365
11
2689.80000761714
21
-1474.800000009377
31
5.999998683204
0
LINE
8
0
10
2689.80000761694
20
-1564.800000014064
30
6.000000024714
11
2689.800007616685
21
-1679.800000007037
31
6.00000173848
0
LINE
8
0
10
2689.800007616485
20
-1769.800000002344
30
6.000003080138
11
2689.800007616618
21
-1709.800000007033
31
6.000002185336
0
LINE
8
0
10
2273.80000761714
20
-1474.800000008454
30
5.999998680179
11
2267.80000761714
21
-1474.800000008441
31
5.999998680135
0
LINE
8
0
10
2683.800007617661
20
-1239.800000004675
30
5.999995181509
11
2683.800007617528
21
-1299.800000004675
31
5.999996075669
0
LINE
8
0
10
2689.800007361531
20
-1854.800006836427
30
5.999982939207
11
2267.800000711865
21
-1854.79999999907
31
5.999989769941
0
LINE
8
0
10
2689.80000761714
20
-1474.800000009377
30
5.999998683204
11
2683.80000761714
21
-1474.800000009364
31
5.99999868316
0
LINE
8
0
10
2273.800007617528
20
-1299.800000003765
30
5.999996072688
11
2273.800007617661
21
-1239.800000003765
31
5.999995178527
0
LINE
8
0
10
2267.800007617006
20
-1534.800000008441
30
5.999999574296
11
2273.800007617006
21
-1534.800000008454
31
5.99999957434
0
LINE
8
0
10
2257.800007617481
20
-1319.800000008413
30
5.999996370403
11
2257.800007617706
21
-1219.80000000373
31
5.999994880918
0
LINE
8
0
10
2273.800007616484
20
-1769.800000001422
30
6.000003077112
11
2273.800007616618
21
-1709.80000000611
31
6.00000218231
0
LINE
8
0
10
2273.800007617661
20
-1239.800000003765
30
5.999995178527
11
2267.800007617661
21
-1239.800000003752
31
5.999995178483
0
LINE
8
0
10
2689.800007617528
20
-1299.800000004688
30
5.999996075712
11
2689.800007617661
21
-1239.800000004688
31
5.999995181552
0
LINE
8
0
10
2689.800007617661
20
-1239.800000004688
30
5.999995181552
11
2683.800007617661
21
-1239.800000004675
31
5.999995181509
0
LINE
8
0
10
2267.800007617461
20
-1329.800000003752
30
5.999996520044
11
2267.800007671054
21
-1444.800000013123
31
5.999998232834
0
LINE
8
0
10
2689.800007616418
20
-1799.800000002358
30
6.000003549296
11
2689.800007361531
21
-1854.800006836427
31
5.999982939207
0
LINE
8
0
10
2273.800007616618
20
-1709.80000000611
30
6.00000218231
11
2267.800007616618
21
-1709.800000006097
31
6.000002182267
0
LINE
8
0
10
2683.800007616618
20
-1709.800000007019
30
6.000002185292
11
2683.800007616485
21
-1769.800000002331
31
6.000003079455
0
LINE
8
0
10
2689.800007617461
20
-1329.800000004693
30
5.99999652278
11
2689.800007617206
21
-1444.800000014064
31
5.999998235729
0
LINE
8
0
10
2257.80000761882
20
-1554.800000008418
30
5.999999867491
11
2257.800007615326
21
-1454.800000017784
31
5.999998381648
0
LINE
8
0
10
2699.800007617928
20
-1219.800000009399
30
5.999994883557
11
2699.800007617261
21
-1319.800000009398
31
5.99999637333
0
LINE
8
0
10
2265.211817166701
20
-1210.140741740856
30
5.999994737098
11
2266.494745695526
21
-1209.885551390011
31
5.999994733306
0
LINE
8
0
10
2696.871075428801
20
-1561.871067822634
30
5.999999981455
11
2697.733541019847
21
-1560.887614300454
31
5.999999966842
0
LINE
8
0
10
2692.388198068232
20
-1445.140741751179
30
5.999998240903
11
2693.626841940858
21
-1445.561204688959
31
5.999998247217
0
LINE
8
0
10
2691.105269540028
20
-1679.885551393302
30
6.000001740414
11
2692.38819807226
21
-1680.140741744152
31
6.000001744842
0
LINE
8
0
10
2689.80000761694
20
-1564.800000014064
30
6.000000024714
11
2691.10526953914
21
-1564.714448627194
31
6.000000023514
0
LINE
8
0
10
2699.45926587982
20
-1557.388190460588
30
5.999999914765
11
2699.714456230666
21
-1556.105261931644
31
5.999999895652
0
LINE
8
0
10
2696.871075467662
20
-1682.728932195187
30
6.000001785371
11
2697.733541071841
21
-1683.712385716967
31
6.000001800339
0
LINE
8
0
10
2699.038802942044
20
-1558.626834333409
30
5.999999933209
11
2699.45926587982
21
-1557.388190460588
31
5.999999914765
0
LINE
8
0
10
2263.973173293432
20
-1564.038795333545
30
6.000000008792
11
2262.800007617192
21
-1563.460254046274
31
5.999999999431
0
LINE
8
0
10
2267.80000761694
20
-1564.800000008441
30
6.000000022599
11
2266.494745694755
21
-1564.714448622176
31
6.000000020477
0
LINE
8
0
10
2695.887621907024
20
-1562.733533414139
30
5.999999994257
11
2696.871075428801
21
-1561.871067822634
31
5.999999981455
0
LINE
8
0
10
2699.03880302423
20
-1685.973165683406
30
6.000001834399
11
2699.459265978549
21
-1687.211809556034
31
6.000001852909
0
LINE
8
0
10
2691.10526953914
20
-1564.714448627194
30
6.000000023514
11
2692.388198067964
21
-1564.459258275748
31
6.000000019784
0
LINE
8
0
10
2261.712393308199
20
-1681.86646660317
30
6.000001636931
11
2260.728939778742
21
-1682.728932194215
31
6.000001679427
0
LINE
8
0
10
2699.03880294245
20
-1323.62683433269
30
5.999996430377
11
2699.459265880203
21
-1322.388190460262
31
5.999996411904
0
LINE
8
0
10
2265.211817162626
20
-1680.1407417432
30
6.000001505457
11
2263.973173286256
21
-1680.561204680975
31
6.000001549196
0
LINE
8
0
10
2689.800007616685
20
-1679.800000007037
30
6.00000173848
11
2691.105269540028
21
-1679.885551393302
31
6.000001740414
0
LINE
8
0
10
2258.140749355442
20
-1557.388190459444
30
5.99999990617
11
2257.885559004836
21
-1556.105261930619
31
5.999999886941
0
LINE
8
0
10
2693.62684194059
20
-1564.038795337393
30
6.000000013587
11
2694.800007616938
21
-1563.460254049578
31
6.000000005029
0
LINE
8
0
10
2692.388198067964
20
-1564.459258275748
30
6.000000019784
11
2693.62684194059
21
-1564.038795337393
31
6.000000013587
0
LINE
8
0
10
2699.714456346528
20
-1688.494738084859
30
6.000001871987
11
2699.800007750219
21
-1689.800000007059
31
6.000001891309
0
LINE
8
0
10
2699.459265880203
20
-1322.388190460262
30
5.999996411904
11
2699.714456231025
21
-1321.105261931558
31
5.999996392779
0
LINE
8
0
10
2258.140749287804
20
-1687.21180955505
30
6.000001823782
11
2257.885558925534
21
-1688.494738083874
31
6.000001850371
0
LINE
8
0
10
2695.887621934366
20
-1681.866466604138
30
6.000001772127
11
2696.871075467662
21
-1682.728932195187
31
6.000001785371
0
LINE
8
0
10
2698.460261655058
20
-1449.800000014083
30
5.999998310592
11
2699.038802942328
21
-1450.973165690433
31
5.999998328105
0
LINE
8
0
10
2258.56121229236
20
-1323.626834331709
30
5.999996427456
11
2258.140749354585
21
-1322.388190459279
31
5.999996408977
0
LINE
8
0
10
2697.733541020295
20
-1325.887614298513
30
5.999996464119
11
2698.460261655206
21
-1324.800000008767
31
5.999996447882
0
LINE
8
0
10
2696.871075429076
20
-1447.728932202214
30
5.999998279655
11
2697.733541020124
21
-1448.712385723994
31
5.99999829435
0
LINE
8
0
10
2689.800007617206
20
-1444.800000014064
30
5.999998235729
11
2691.105269539407
21
-1444.885551400329
31
5.999998237052
0
LINE
8
0
10
2695.887621907507
20
-1327.733533410469
30
5.999996491707
11
2696.871075429268
21
-1326.871067819885
31
5.999996478812
0
LINE
8
0
10
2262.800007604757
20
-1681.139745968241
30
6.000001593272
11
2261.712393308199
21
-1681.86646660317
31
6.000001636931
0
LINE
8
0
10
2263.973173293811
20
-1329.038795330649
30
5.999996508441
11
2262.800007617464
21
-1328.460254043927
31
5.999996499743
0
LINE
8
0
10
2698.460261721296
20
-1684.800000007056
30
6.000001816775
11
2699.03880302423
21
-1685.973165683406
31
6.000001834399
0
LINE
8
0
10
2694.800007617208
20
-1446.139745976231
30
5.999998255885
11
2695.887621907296
21
-1446.866466611165
31
5.99999826676
0
LINE
8
0
10
2697.733541020124
20
-1448.712385723994
30
5.99999829435
11
2698.460261655058
21
-1449.800000014083
31
5.999998310592
0
LINE
8
0
10
2699.714456230957
20
-1453.494738091886
30
5.999998365726
11
2699.800007617221
21
-1454.800000014086
31
5.999998385191
0
LINE
8
0
10
2692.38819806848
20
-1329.459258268801
30
5.999996517582
11
2693.626841941097
21
-1329.038795331606
31
5.999996511259
0
LINE
8
0
10
2267.800007617461
20
-1329.800000003752
30
5.999996520044
11
2266.49474569526
21
-1329.714448618099
31
5.999996518679
0
LINE
8
0
10
2259.139753534324
20
-1684.800000006077
30
6.000001758049
11
2258.56121223661
21
-1685.973165682425
31
6.000001792831
0
LINE
8
0
10
2258.56121223661
20
-1685.973165682425
30
6.000001792831
11
2258.140749287804
21
-1687.21180955505
31
6.000001823782
0
LINE
8
0
10
2691.105269539407
20
-1444.885551400329
30
5.999998237052
11
2692.388198068232
21
-1445.140741751179
31
5.999998240903
0
LINE
8
0
10
2697.733541019847
20
-1560.887614300454
30
5.999999966842
11
2698.460261654777
21
-1559.800000010028
31
5.999999950667
0
LINE
8
0
10
2692.38819807226
20
-1680.140741744152
30
6.000001744842
11
2693.6268419505
21
-1680.561204681933
31
6.000001751689
0
LINE
8
0
10
2266.494745693723
20
-1679.885551392356
30
6.000001462802
11
2265.211817162626
21
-1680.1407417432
31
6.000001505457
0
LINE
8
0
10
2698.460261654777
20
-1559.800000010028
30
5.999999950667
11
2699.038802942044
21
-1558.626834333409
31
5.999999933209
0
LINE
8
0
10
2697.733541071841
20
-1683.712385716967
30
6.000001800339
11
2698.460261721296
21
-1684.800000007056
31
6.000001816775
0
LINE
8
0
10
2693.6268419505
20
-1680.561204681933
30
6.000001751689
11
2694.800007634575
21
-1681.139745969204
31
6.000001760836
0
LINE
8
0
10
2266.494745694755
20
-1564.714448622176
30
6.000000020477
11
2265.211817165978
21
-1564.459258271326
31
6.000000015848
0
LINE
8
0
10
2698.460261655206
20
-1324.800000008767
30
5.999996447882
11
2699.03880294245
21
-1323.62683433269
31
5.999996430377
0
LINE
8
0
10
2694.800007634575
20
-1681.139745969204
30
6.000001760836
11
2695.887621934366
21
-1681.866466604138
31
6.000001772127
0
LINE
8
0
10
2699.714456230666
20
-1556.105261931644
30
5.999999895652
11
2699.800007616926
21
-1554.800000009404
31
5.999999876195
0
LINE
8
0
10
2259.139753580035
20
-1559.800000008421
30
5.999999942658
11
2258.561212292987
21
-1558.626834332071
31
5.999999924849
0
LINE
8
0
10
2267.800007616684
20
-1679.800000006096
30
6.000001421964
11
2266.494745693723
21
-1679.885551392356
31
6.000001462802
0
LINE
8
0
10
2265.211817165978
20
-1564.459258271326
30
6.000000015848
11
2263.973173293432
21
-1564.038795333545
31
6.000000008792
0
LINE
8
0
10
2258.561212292987
20
-1558.626834332071
30
5.999999924849
11
2258.140749355442
21
-1557.388190459444
31
5.99999990617
0
LINE
8
0
10
2257.885558925534
20
-1688.494738083874
30
6.000001850371
11
2257.800007527651
21
-1689.800000006074
31
6.000001872144
0
LINE
8
0
10
2691.10526953966
20
-1329.714448619045
30
5.999996521445
11
2692.38819806848
21
-1329.459258268801
31
5.999996517582
0
LINE
8
0
10
2699.459265978549
20
-1687.211809556034
30
6.000001852909
11
2699.714456346528
21
-1688.494738084859
31
6.000001871987
0
LINE
8
0
10
2699.459265880107
20
-1452.21180956306
30
5.999998346588
11
2699.714456230957
21
-1453.494738091886
31
5.999998365726
0
LINE
8
0
10
2693.626841940858
20
-1445.561204688959
30
5.999998247217
11
2694.800007617208
21
-1446.139745976231
31
5.999998255885
0
LINE
8
0
10
2695.887621907296
20
-1446.866466611165
30
5.99999826676
11
2696.871075429076
21
-1447.728932202214
31
5.999998279655
0
LINE
8
0
10
2260.728939778742
20
-1682.728932194215
30
6.000001679427
11
2259.866474178938
21
-1683.712385715991
31
6.000001720031
0
LINE
8
0
10
2699.038802942328
20
-1450.973165690433
30
5.999998328105
11
2699.459265880107
21
-1452.21180956306
31
5.999998346588
0
LINE
8
0
10
2696.871075429268
20
-1326.871067819885
30
5.999996478812
11
2697.733541020295
21
-1325.887614298513
31
5.999996464119
0
LINE
8
0
10
2697.733540967086
20
-1795.887614296166
30
6.00000346502
11
2698.460261587495
21
-1794.80000000642
31
6.00000344653
0
LINE
8
0
10
2692.388198062889
20
-1799.459258266463
30
6.00000353562
11
2693.626841929901
21
-1799.038795329266
31
6.000003525274
0
LINE
8
0
10
2262.800007617464
20
-1328.460254043927
30
5.999996499743
11
2261.712393327377
21
-1327.733533409502
31
5.999996488843
0
LINE
8
0
10
2691.105269537472
20
-1799.714448616709
30
6.000003543674
11
2692.388198062889
21
-1799.459258266463
31
6.00000353562
0
LINE
8
0
10
2260.728939830631
20
-1796.871067816558
30
6.000003455822
11
2261.712393344731
21
-1797.733533407148
31
6.000003472001
0
LINE
8
0
10
2257.800007617706
20
-1219.80000000373
30
5.999994880918
11
2257.885559003971
21
-1218.494738081529
31
5.999994861477
0
LINE
8
0
10
2260.72893980479
20
-1447.728932204553
30
5.999998276516
11
2259.866474213558
21
-1448.712385726733
31
5.999998291148
0
LINE
8
0
10
2258.140749419518
20
-1792.38819045692
30
6.000003380726
11
2258.561212346267
21
-1793.626834329351
31
6.000003400425
0
LINE
8
0
10
2261.712393344731
20
-1797.733533407148
30
6.000003472001
11
2262.800007628348
21
-1798.460254041575
31
6.000003486557
0
LINE
8
0
10
2257.885559080093
20
-1791.105261928214
30
6.000003360965
11
2258.140749419518
21
-1792.38819045692
31
6.000003380726
0
LINE
8
0
10
2266.494745694982
20
-1799.714448615752
30
6.000003518158
11
2267.800007616418
21
-1799.800000001408
31
6.000003524069
0
LINE
8
0
10
2257.88555900374
20
-1321.105261930573
30
5.999996389851
11
2257.800007617481
21
-1319.800000008413
31
5.999996370403
0
LINE
8
0
10
2259.139753578422
20
-1449.800000017159
30
5.999998307325
11
2258.561212290932
21
-1450.973165693778
31
5.99999832477
0
LINE
8
0
10
2699.714456231025
20
-1321.105261931558
30
5.999996392779
11
2699.800007617261
21
-1319.800000009398
31
5.99999637333
0
LINE
8
0
10
2266.494745695526
20
-1209.885551390011
30
5.999994733306
11
2267.800007617727
21
-1209.800000003752
31
5.999994732041
0
LINE
8
0
10
2694.800007598526
20
-1798.460254042548
30
6.000003512812
11
2695.887621878909
21
-1797.733533408126
31
6.000003498447
0
LINE
8
0
10
2262.800007628348
20
-1798.460254041575
30
6.000003486557
11
2263.973173299546
21
-1799.038795328298
31
6.00000349924
0
LINE
8
0
10
2258.140749354585
20
-1322.388190459279
30
5.999996408977
11
2257.88555900374
21
-1321.105261930573
31
5.999996389851
0
LINE
8
0
10
2694.800007617434
20
-1328.46025404489
30
5.999996502585
11
2695.887621907507
21
-1327.733533410469
31
5.999996491707
0
LINE
8
0
10
2693.626841929901
20
-1799.038795329266
30
6.000003525274
11
2694.800007598526
21
-1798.460254042548
31
6.000003512812
0
LINE
8
0
10
2261.712393327377
20
-1327.733533409502
30
5.999996488843
11
2260.728939805601
21
-1326.871067818913
31
5.999996475928
0
LINE
8
0
10
2265.211817166436
20
-1329.459258267849
30
5.99999651479
11
2263.973173293811
21
-1329.038795330649
31
5.999996508441
0
LINE
8
0
10
2259.866474214806
20
-1213.712385713647
30
5.999994790259
11
2260.728939805856
21
-1212.728932191871
31
5.999994775617
0
LINE
8
0
10
2265.211817168429
20
-1799.459258265501
30
6.000003509835
11
2266.494745694982
21
-1799.714448615752
31
6.000003518158
0
LINE
8
0
10
2259.139753579626
20
-1324.800000007788
30
5.99999644497
11
2258.56121229236
21
-1323.626834331709
31
5.999996427456
0
LINE
8
0
10
2260.728939805601
20
-1326.871067818913
30
5.999996475928
11
2259.866474214556
21
-1325.887614297537
31
5.99999646122
0
LINE
8
0
10
2258.561212290932
20
-1450.973165693778
30
5.99999832477
11
2258.140749352922
21
-1452.2118095666
31
5.999998343184
0
LINE
8
0
10
2257.800007705452
20
-1789.800000006053
30
6.000003341481
11
2257.885559080093
21
-1791.105261928214
31
6.000003360965
0
LINE
8
0
10
2259.86647424834
20
-1795.887614295181
30
6.000003438297
11
2260.728939830631
21
-1796.871067816558
31
6.000003455822
0
LINE
8
0
10
2266.49474569526
20
-1329.714448618099
30
5.999996518679
11
2265.211817166436
21
-1329.459258267849
31
5.99999651479
0
LINE
8
0
10
2258.561212292601
20
-1215.97316568008
30
5.999994823923
11
2259.139753579872
21
-1214.800000003733
31
5.999994806453
0
LINE
8
0
10
2699.714456114053
20
-1791.105261929209
30
6.000003387774
11
2699.800007482885
21
-1789.800000007049
31
6.000003368211
0
LINE
8
0
10
2258.561212346267
20
-1793.626834329351
30
6.000003400425
11
2259.139753623091
21
-1794.800000005431
31
6.000003419725
0
LINE
8
0
10
2273.80000761785
20
-1154.799999977377
30
5.999993912433
11
2683.800007617848
21
-1154.800000021688
31
5.999993915104
0
LINE
8
0
10
2697.733541020718
20
-1213.712385716969
30
5.999994792847
11
2696.871075429652
21
-1212.728932194213
31
5.999994778188
0
LINE
8
0
10
2267.800007671054
20
-1444.800000013123
30
5.999998232834
11
2266.494745694989
21
-1444.885551399994
31
5.999998234135
0
LINE
8
0
10
2689.800007616418
20
-1799.800000002358
30
6.000003549296
11
2691.105269537472
21
-1799.714448616709
31
6.000003543674
0
LINE
8
0
10
2259.866474214556
20
-1325.887614297537
30
5.99999646122
11
2259.139753579626
21
-1324.800000007788
31
5.99999644497
0
LINE
8
0
10
2262.800007616954
20
-1446.139745977609
30
5.999998252855
11
2261.71239332673
21
-1446.866466613048
31
5.999998263679
0
LINE
8
0
10
2259.139753579872
20
-1214.800000003733
30
5.999994806453
11
2259.866474214806
21
-1213.712385713647
31
5.999994790259
0
LINE
8
0
10
2265.211817166116
20
-1445.140741751439
30
5.999998237957
11
2263.973173293412
21
-1445.561204689794
31
5.999998244232
0
LINE
8
0
10
2693.626841941097
20
-1329.038795331606
30
5.999996511259
11
2694.800007617434
21
-1328.46025404489
31
5.999996502585
0
LINE
8
0
10
2263.973173294074
20
-1210.561204678631
30
5.999994743352
11
2265.211817166701
21
-1210.140741740856
31
5.999994737098
0
LINE
8
0
10
2698.460261587495
20
-1794.80000000642
30
6.00000344653
11
2699.038802859098
21
-1793.626834330342
31
6.000003427272
0
LINE
8
0
10
2259.139753623091
20
-1794.800000005431
30
6.000003419725
11
2259.86647424834
21
-1795.887614295181
31
6.000003438297
0
LINE
8
0
10
2257.885559004836
20
-1556.105261930619
30
5.999999886941
11
2257.80000761882
21
-1554.800000008418
31
5.999999867491
0
LINE
8
0
10
2262.800007617724
20
-1211.139745965897
30
5.999994751961
11
2263.973173294074
21
-1210.561204678631
31
5.999994743352
0
LINE
8
0
10
2696.871075389171
20
-1796.87106781754
30
6.000003482425
11
2697.733540967086
21
-1795.887614296166
31
6.00000346502
0
LINE
8
0
10
2695.887621878909
20
-1797.733533408126
30
6.000003498447
11
2696.871075389171
21
-1796.87106781754
31
6.000003482425
0
LINE
8
0
10
2689.800007617461
20
-1329.800000004693
30
5.99999652278
11
2691.10526953966
21
-1329.714448619045
31
5.999996521445
0
LINE
8
0
10
2699.038802859098
20
-1793.626834330342
30
6.000003427272
11
2699.459265780336
21
-1792.388190457914
31
6.000003407574
0
LINE
8
0
10
2699.800007617928
20
-1219.800000009399
30
5.999994883557
11
2699.71445623164
21
-1218.494738087102
31
5.999994864111
0
LINE
8
0
10
2260.728939805856
20
-1212.728932191871
30
5.999994775617
11
2261.712393327635
21
-1211.866466600826
31
5.999994762777
0
LINE
8
0
10
2258.140749354821
20
-1217.211809552706
30
5.99999484237
11
2258.561212292601
21
-1215.97316568008
31
5.999994823923
0
LINE
8
0
10
2257.885559001833
20
-1453.494738095543
30
5.999998362252
11
2257.800007615326
21
-1454.800000017784
31
5.999998381648
0
LINE
8
0
10
2261.712393327635
20
-1211.866466600826
30
5.999994762777
11
2262.800007617724
21
-1211.139745965897
31
5.999994751961
0
LINE
8
0
10
2257.885559003971
20
-1218.494738081529
30
5.999994861477
11
2258.140749354821
21
-1217.211809552706
31
5.99999484237
0
LINE
8
0
10
2266.494745694989
20
-1444.885551399994
30
5.999998234135
11
2265.211817166116
21
-1445.140741751439
31
5.999998237957
0
LINE
8
0
10
2699.459265780336
20
-1792.388190457914
30
6.000003407574
11
2699.714456114053
21
-1791.105261929209
31
6.000003387774
0
LINE
8
0
10
2261.71239332673
20
-1446.866466613048
30
5.999998263679
11
2260.72893980479
21
-1447.728932204553
31
5.999998276516
0
LINE
8
0
10
2259.866474213558
20
-1448.712385726733
30
5.999998291148
11
2259.139753578422
21
-1449.800000017159
31
5.999998307325
0
LINE
8
0
10
2263.973173293412
20
-1445.561204689794
30
5.999998244232
11
2262.800007616954
21
-1446.139745977609
31
5.999998252855
0
LINE
8
0
10
2258.140749352922
20
-1452.2118095666
30
5.999998343184
11
2257.885559001833
21
-1453.494738095543
31
5.999998362252
0
LINE
8
0
10
2263.973173299546
20
-1799.038795328298
30
6.00000349924
11
2265.211817168429
21
-1799.459258265501
31
6.000003509835
0
LINE
8
0
10
2695.887621907857
20
-1211.866466602051
30
5.99999476533
11
2694.800007617755
21
-1211.139745965886
31
5.999994754493
0
LINE
8
0
10
2699.71445623164
20
-1218.494738087102
30
5.999994864111
11
2699.459265880767
21
-1217.211809557988
31
5.999994844996
0
LINE
8
0
10
2699.038802942964
20
-1215.973165684885
30
5.999994826539
11
2698.460261655672
21
-1214.80000000788
31
5.999994809056
0
LINE
8
0
10
2694.800007617755
20
-1211.139745965886
30
5.999994754493
11
2693.626841941394
21
-1210.561204677286
31
5.999994745864
0
LINE
8
0
10
2260.728939805625
20
-1561.871067820291
30
5.999999974467
11
2259.866474214763
21
-1560.88761429851
31
5.999999959292
0
LINE
8
0
10
2696.871075429652
20
-1212.728932194213
30
5.999994778188
11
2695.887621907857
21
-1211.866466602051
31
5.99999476533
0
LINE
8
0
10
2691.10526953993
20
-1209.885551385802
30
5.999994735776
11
2689.800007617728
21
-1209.800000009377
31
5.999994734489
0
LINE
8
0
10
2693.626841941394
20
-1210.561204677286
30
5.999994745864
11
2692.38819806876
21
-1210.140741738104
31
5.999994739589
0
LINE
8
0
10
2698.460261655672
20
-1214.80000000788
30
5.999994809056
11
2697.733541020718
21
-1213.712385716969
31
5.999994792847
0
LINE
8
0
10
2692.38819806876
20
-1210.140741738104
30
5.999994739589
11
2691.10526953993
21
-1209.885551385802
31
5.999994735776
0
LINE
8
0
10
2699.459265880767
20
-1217.211809557988
30
5.999994844996
11
2699.038802942964
21
-1215.973165684885
31
5.999994826539
0
LINE
8
0
10
2687.452576165397
20
-1156.039879966738
30
5.999993933599
11
2688.042648267402
21
-1156.557359319234
31
5.999993941311
0
LINE
8
0
10
2268.004452660105
20
-1159.247085727709
30
5.999993978668
11
2267.851338449596
21
-1160.016842845558
31
5.999993990139
0
LINE
8
0
10
2686.800007600665
20
-1155.603847588138
30
5.999993927099
11
2687.452576165397
21
-1156.039879966738
31
5.999993933599
0
LINE
8
0
10
2267.851338449596
20
-1160.016842845558
30
5.999993990139
11
2267.800007617837
21
-1160.799999999064
31
5.99999400181
0
LINE
8
0
10
2269.557366930727
20
-1156.557359305593
30
5.999993938594
11
2269.039887576097
21
-1157.14743142053
31
5.999993947385
0
LINE
8
0
10
2685.352921884094
20
-1155.004445058341
30
5.999993918159
11
2686.096108202276
21
-1155.256722818321
31
5.999993921923
0
LINE
8
0
10
2689.748676674574
20
-1160.016842846868
30
5.999993992859
11
2689.800007489589
21
-1160.800000000003
31
5.999994004526
0
LINE
8
0
10
2270.147439043795
20
-1156.039879948831
30
5.999993930886
11
2269.557366930727
21
-1156.557359305593
31
5.999993938594
0
LINE
8
0
10
2273.80000761785
20
-1154.799999977377
30
5.999993912433
11
2273.01685046453
21
-1154.851330811964
31
5.999993913193
0
LINE
8
0
10
2688.042648267402
20
-1156.557359319234
30
5.999993941311
11
2688.560127609416
21
-1157.147431430431
31
5.999993950105
0
LINE
8
0
10
2269.039887576097
20
-1157.14743142053
30
5.999993947385
11
2268.603855195136
21
-1157.799999996158
31
5.999993957107
0
LINE
8
0
10
2688.560127609416
20
-1157.147431430431
30
5.999993950105
11
2688.996159976426
21
-1157.800000002907
31
5.999993959829
0
LINE
8
0
10
2684.583164770072
20
-1154.851330850615
30
5.999993915874
11
2685.352921884094
21
-1155.004445058341
31
5.999993918159
0
LINE
8
0
10
2686.096108202276
20
-1155.256722818321
30
5.999993921923
11
2686.800007600665
21
-1155.603847588138
31
5.999993927099
0
LINE
8
0
10
2683.800007617848
20
-1154.800000021688
30
5.999993915104
11
2684.583164770072
21
-1154.851330850615
31
5.999993915874
0
LINE
8
0
10
2688.996159976426
20
-1157.800000002907
30
5.999993959829
11
2689.34328473374
21
-1158.503899407462
31
5.999993970318
0
LINE
8
0
10
2689.59556248052
20
-1159.247085730126
30
5.999993981391
11
2689.748676674574
21
-1160.016842846868
31
5.999993992859
0
LINE
8
0
10
2273.01685046453
20
-1154.851330811964
30
5.999993913193
11
2272.247093347235
21
-1155.004445025255
31
5.999993915469
0
LINE
8
0
10
2272.247093347235
20
-1155.004445025255
30
5.999993915469
11
2271.503907023658
21
-1155.256722790608
31
5.999993919224
0
LINE
8
0
10
2271.503907023658
20
-1155.256722790608
30
5.999993919224
11
2270.800007617848
21
-1155.603847565513
31
5.999993924393
0
LINE
8
0
10
2270.800007617848
20
-1155.603847565513
30
5.999993924393
11
2270.147439043795
21
-1156.039879948831
31
5.999993930886
0
LINE
8
0
10
2268.603855195136
20
-1157.799999996158
30
5.999993957107
11
2268.256730422774
21
-1158.503899403222
31
5.999993967595
0
LINE
8
0
10
2268.256730422774
20
-1158.503899403222
30
5.999993967595
11
2268.004452660105
21
-1159.247085727709
31
5.999993978668
0
LINE
8
0
10
2689.34328473374
20
-1158.503899407462
30
5.999993970318
11
2689.59556248052
21
-1159.247085730126
31
5.999993981391
0
LINE
8
0
10
2664.80000761775
20
-1199.530102539007
30
5.999994581879
11
2663.594103610792
21
-1200.029614257754
31
5.999994589314
0
LINE
8
0
10
2591.764469898083
20
-1172.864453124782
30
5.999994183958
11
2592.800007617811
21
-1172.069897460722
31
5.999994172124
0
LINE
8
0
10
2590.969883716387
20
-1197.700024413843
30
5.999994554069
11
2590.470379627035
21
-1196.494091796655
31
5.999994536092
0
LINE
8
0
10
2594.005909717358
20
-1200.0296142576
30
5.999994588808
11
2592.80000761775
21
-1199.530102538847
31
5.999994581357
0
LINE
8
0
10
2595.300007617813
20
-1171.399975585728
30
5.999994162159
11
2662.300007617813
21
-1171.399975585877
31
5.999994162646
0
LINE
8
0
10
2594.005909717422
20
-1171.570385741975
30
5.999994164689
11
2595.300007617813
21
-1171.399975585728
31
5.999994162159
0
ENDSEC
0
EOF
