0
SECTION
2
ENTITIES
0
LINE
8
0
10
1621.613969085374
20
-414.567922323847
30
5.999981794155
11
1621.131608248507
21
-414.36811610328
31
5.999981794156
0
LINE
8
0
10
1569.881917642331
20
-451.299969587645
30
5.999981794243
11
1569.68211714381
21
-451.782330424511
31
5.999981794244
0
LINE
8
0
10
1569.881914095843
20
-689.299969587645
30
5.999981794243
11
1570.19975180482
21
-689.714184680272
31
5.999981794243
0
LINE
8
0
10
1628.545818763017
20
-465.282331301652
30
5.999981794143
11
1628.346020186221
21
-464.799970458831
31
5.999981794143
0
LINE
8
0
10
1628.028183430918
20
-464.385755366204
30
5.999981794144
11
1627.613968347764
21
-464.067918598557
31
5.999981794145
0
LINE
8
0
10
1627.613968347764
20
-464.067918598557
30
5.999981794145
11
1627.131607510897
21
-463.868120007385
31
5.999981794145
0
LINE
8
0
10
1627.131607510897
20
-463.868120007385
30
5.999981794145
11
1626.613968351757
21
-463.799970433021
31
5.999981794146
0
LINE
8
0
10
1622.613968351757
20
-463.799970373416
30
5.999981794153
11
1626.613968351757
21
-463.799970433021
31
5.999981794146
0
LINE
8
0
10
1622.613969059564
20
-416.299970373416
30
5.999981794153
11
1622.613968351757
21
-463.799970373416
31
5.999981794153
0
LINE
8
0
10
1628.613968321954
20
-465.799970462823
30
5.999981794143
11
1628.545818763017
21
-465.282331301652
31
5.999981794143
0
LINE
8
0
10
1622.613969059564
20
-416.299970373416
30
5.999981794153
11
1622.545819500627
21
-415.782331212244
31
5.999981794153
0
LINE
8
0
10
1622.545819500627
20
-415.782331212244
30
5.999981794153
11
1622.346020923831
21
-415.299970369423
31
5.999981794154
0
LINE
8
0
10
1622.346020923831
20
-415.299970369423
30
5.999981794154
11
1622.028184168528
21
-414.885755276797
31
5.999981794154
0
LINE
8
0
10
1622.028184168528
20
-414.885755276797
30
5.999981794154
11
1621.613969085374
21
-414.567922323847
31
5.999981794155
0
LINE
8
0
10
1621.131608248507
20
-414.36811610328
30
5.999981794156
11
1620.613969089366
21
-414.299970343614
31
5.999981794157
0
LINE
8
0
10
1612.613969089366
20
-414.299970224404
30
5.99998179417
11
1620.613969089366
21
-414.299970343614
31
5.999981794157
0
LINE
8
0
10
1612.613969089366
20
-414.299970224404
30
5.99998179417
11
1612.096329928195
21
-414.368115968644
31
5.999981794171
0
LINE
8
0
10
1612.096329928195
20
-414.368115968644
30
5.999981794171
11
1611.613969085374
21
-414.567922174835
31
5.999981794172
0
LINE
8
0
10
1611.613969085374
20
-414.567922174835
30
5.999981794172
11
1611.199753992747
21
-414.88575511544
31
5.999981794173
0
LINE
8
0
10
1611.199753992747
20
-414.88575511544
30
5.999981794173
11
1610.8819172251
21
-415.299970198594
31
5.999981794173
0
LINE
8
0
10
1610.8819172251
20
-415.299970198594
30
5.999981794173
11
1610.682118633928
21
-415.782331035461
31
5.999981794174
0
LINE
8
0
10
1610.682118633928
20
-415.782331035461
30
5.999981794174
11
1610.613969059564
21
-416.299970194602
31
5.999981794174
0
LINE
8
0
10
1610.613968999959
20
-420.299970194601
30
5.999981794174
11
1610.613969059564
21
-416.299970194602
31
5.999981794174
0
LINE
8
0
10
1575.613968999959
20
-420.299969673059
30
5.999981794234
11
1610.613968999959
21
-420.299970194601
31
5.999981794174
0
LINE
8
0
10
1575.613968552923
20
-450.299969673059
30
5.999981794234
11
1575.613968999959
21
-420.299969673059
31
5.999981794234
0
LINE
8
0
10
1573.613968552923
20
-450.299969643257
30
5.999981794237
11
1575.613968552923
21
-450.299969673059
31
5.999981794234
0
LINE
8
0
10
1571.613968552923
20
-450.299969613454
30
5.999981794241
11
1573.613968552923
21
-450.299969643257
31
5.999981794237
0
LINE
8
0
10
1571.613968552923
20
-450.299969613454
30
5.999981794241
11
1571.096330345425
21
-450.368115357694
31
5.999981794241
0
LINE
8
0
10
1571.096330345425
20
-450.368115357694
30
5.999981794241
11
1570.61396854893
21
-450.567921563885
31
5.999981794242
0
LINE
8
0
10
1570.61396854893
20
-450.567921563885
30
5.999981794242
11
1570.199755363652
21
-450.88575450449
31
5.999981794243
0
LINE
8
0
10
1570.199755363652
20
-450.88575450449
30
5.999981794243
11
1569.881917642331
21
-451.299969587645
31
5.999981794243
0
LINE
8
0
10
1569.68211714381
20
-451.782330424511
30
5.999981794244
11
1569.613968523121
21
-452.299969583652
31
5.999981794244
0
LINE
8
0
10
1569.613968403911
20
-460.299969583652
30
5.999981794244
11
1569.613968523121
21
-452.299969583652
31
5.999981794244
0
LINE
8
0
10
1569.613968403911
20
-460.299969583652
30
5.999981794244
11
1569.682117009173
21
-460.817608744824
31
5.999981794244
0
LINE
8
0
10
1569.682117009173
20
-460.817608744824
30
5.999981794244
11
1569.881917493319
21
-461.299969587645
31
5.999981794243
0
LINE
8
0
10
1569.881917493319
20
-461.299969587645
30
5.999981794243
11
1570.199755202295
21
-461.714184680272
31
5.999981794243
0
LINE
8
0
10
1570.199755202295
20
-461.714184680272
30
5.999981794243
11
1570.613968378101
21
-462.032021447918
31
5.999981794242
0
LINE
8
0
10
1570.613968378101
20
-462.032021447918
30
5.999981794242
11
1571.096330168642
21
-462.231820039091
31
5.999981794241
0
LINE
8
0
10
1571.096330168642
20
-462.231820039091
30
5.999981794241
11
1571.613968374108
21
-462.299969613454
31
5.999981794241
0
LINE
8
0
10
1573.613968374108
20
-462.299969643257
30
5.999981794237
11
1571.613968374108
21
-462.299969613454
31
5.999981794241
0
LINE
8
0
10
1575.613968374108
20
-462.299969673059
30
5.999981794234
11
1573.613968374108
21
-462.299969643257
31
5.999981794237
0
LINE
8
0
10
1575.613968293642
20
-467.699971198938
30
5.999981794234
11
1575.613968374108
21
-462.299969673059
31
5.999981794234
0
LINE
8
0
10
1586.613968293642
20
-467.699971362852
30
5.999981794215
11
1575.613968293642
21
-467.699971198938
31
5.999981794234
0
LINE
8
0
10
1586.613968315994
20
-466.199971362852
30
5.999981794215
11
1586.613968293642
21
-467.699971362852
31
5.999981794215
0
LINE
8
0
10
1589.613968315994
20
-466.199971407555
30
5.99998179421
11
1586.613968315994
21
-466.199971362852
31
5.999981794215
0
LINE
8
0
10
1589.613968293642
20
-467.699971407555
30
5.99998179421
11
1589.613968315994
21
-466.199971407555
31
5.99998179421
0
LINE
8
0
10
1590.613968293642
20
-467.699971422456
30
5.999981794208
11
1589.613968293642
21
-467.699971407555
31
5.99998179421
0
LINE
8
0
10
1590.613968231057
20
-471.899968370699
30
5.999981794208
11
1590.613968293642
21
-467.699971422456
31
5.999981794208
0
LINE
8
0
10
1589.613968231057
20
-471.899968355797
30
5.99998179421
11
1590.613968231057
21
-471.899968370699
31
5.999981794208
0
LINE
8
0
10
1589.613968208705
20
-473.399968355797
30
5.99998179421
11
1589.613968231057
21
-471.899968355797
31
5.99998179421
0
LINE
8
0
10
1586.613968208705
20
-473.399968311094
30
5.999981794215
11
1589.613968208705
21
-473.399968355797
31
5.99998179421
0
LINE
8
0
10
1586.613968231057
20
-471.899968311094
30
5.999981794215
11
1586.613968208705
21
-473.399968311094
31
5.999981794215
0
LINE
8
0
10
1575.613968231057
20
-471.89996814718
30
5.999981794234
11
1586.613968231057
21
-471.899968311094
31
5.999981794215
0
LINE
8
0
10
1575.61396815059
20
-477.299969673059
30
5.999981794234
11
1575.613968231057
21
-471.89996814718
31
5.999981794234
0
LINE
8
0
10
1573.61396815059
20
-477.299969643257
30
5.999981794237
11
1575.61396815059
21
-477.299969673059
31
5.999981794234
0
LINE
8
0
10
1571.61396815059
20
-477.299969613454
30
5.999981794241
11
1573.61396815059
21
-477.299969643257
31
5.999981794237
0
LINE
8
0
10
1571.61396815059
20
-477.299969613454
30
5.999981794241
11
1571.096329943093
21
-477.368119172391
31
5.999981794241
0
LINE
8
0
10
1571.096329943093
20
-477.368119172391
30
5.999981794241
11
1570.613968146597
21
-477.567917749188
31
5.999981794242
0
LINE
8
0
10
1570.613968146597
20
-477.567917749188
30
5.999981794242
11
1570.19975496132
21
-477.88575450449
31
5.999981794243
0
LINE
8
0
10
1570.19975496132
20
-477.88575450449
30
5.999981794243
11
1569.881917239998
21
-478.299969587645
31
5.999981794243
0
LINE
8
0
10
1569.881917239998
20
-478.299969587645
30
5.999981794243
11
1569.682116741478
21
-478.782330424511
31
5.999981794244
0
LINE
8
0
10
1569.682116741478
20
-478.782330424511
30
5.999981794244
11
1569.613968120788
21
-479.299969583652
31
5.999981794244
0
LINE
8
0
10
1569.613968001578
20
-487.299969583652
30
5.999981794244
11
1569.613968120788
21
-479.299969583652
31
5.999981794244
0
LINE
8
0
10
1569.613968001578
20
-487.299969583652
30
5.999981794244
11
1569.682116606841
21
-487.817606837475
31
5.999981794244
0
LINE
8
0
10
1569.682116606841
20
-487.817606837475
30
5.999981794244
11
1569.881917090986
21
-488.299969587645
31
5.999981794243
0
LINE
8
0
10
1569.881917090986
20
-488.299969587645
30
5.999981794243
11
1570.199754799963
21
-488.714182772923
31
5.999981794243
0
LINE
8
0
10
1570.199754799963
20
-488.714182772923
30
5.999981794243
11
1570.613967975769
21
-489.03201954057
31
5.999981794242
0
LINE
8
0
10
1570.613967975769
20
-489.03201954057
30
5.999981794242
11
1571.096329766309
21
-489.231821946439
31
5.999981794241
0
LINE
8
0
10
1571.096329766309
20
-489.231821946439
30
5.999981794241
11
1571.613967971776
21
-489.299969613454
31
5.999981794241
0
LINE
8
0
10
1573.613967971776
20
-489.299969643257
30
5.999981794237
11
1571.613967971776
21
-489.299969613454
31
5.999981794241
0
LINE
8
0
10
1575.613967971776
20
-489.299969673059
30
5.999981794234
11
1573.613967971776
21
-489.299969643257
31
5.999981794237
0
LINE
8
0
10
1575.61396555778
20
-651.299969673059
30
5.999981794234
11
1575.613967971776
21
-489.299969673059
31
5.999981794234
0
LINE
8
0
10
1573.61396555778
20
-651.299969643257
30
5.999981794237
11
1575.61396555778
21
-651.299969673059
31
5.999981794234
0
LINE
8
0
10
1571.61396555778
20
-651.299969613454
30
5.999981794241
11
1573.61396555778
21
-651.299969643257
31
5.999981794237
0
LINE
8
0
10
1571.61396555778
20
-651.299969613454
30
5.999981794241
11
1571.096327350283
21
-651.368115357694
31
5.999981794241
0
LINE
8
0
10
1571.096327350283
20
-651.368115357694
30
5.999981794241
11
1570.613965553787
21
-651.567913934491
31
5.999981794242
0
LINE
8
0
10
1570.613965553787
20
-651.567913934491
30
5.999981794242
11
1570.199752368509
21
-651.88575450449
31
5.999981794243
0
LINE
8
0
10
1570.199752368509
20
-651.88575450449
30
5.999981794243
11
1569.881914647188
21
-652.299969587645
31
5.999981794243
0
LINE
8
0
10
1569.881914647188
20
-652.299969587645
30
5.999981794243
11
1569.682114148667
21
-652.782330424511
31
5.999981794244
0
LINE
8
0
10
1569.682114148667
20
-652.782330424511
30
5.999981794244
11
1569.613965527978
21
-653.299969583652
31
5.999981794244
0
LINE
8
0
10
1569.613965408768
20
-661.299969583652
30
5.999981794244
11
1569.613965527978
21
-653.299969583652
31
5.999981794244
0
LINE
8
0
10
1569.613965408768
20
-661.299969583652
30
5.999981794244
11
1569.682114014031
21
-661.817608744824
31
5.999981794244
0
LINE
8
0
10
1569.682114014031
20
-661.817608744824
30
5.999981794244
11
1569.881914498176
21
-662.299969587645
31
5.999981794243
0
LINE
8
0
10
1569.881914498176
20
-662.299969587645
30
5.999981794243
11
1570.199752207152
21
-662.714184680272
31
5.999981794243
0
LINE
8
0
10
1570.199752207152
20
-662.714184680272
30
5.999981794243
11
1570.613965382958
21
-663.032025262616
31
5.999981794242
0
LINE
8
0
10
1570.613965382958
20
-663.032025262616
30
5.999981794242
11
1571.096327173499
21
-663.231823853788
31
5.999981794241
0
LINE
8
0
10
1571.096327173499
20
-663.231823853788
30
5.999981794241
11
1571.613965378966
21
-663.299969613454
31
5.999981794241
0
LINE
8
0
10
1573.613965378966
20
-663.299969643257
30
5.999981794237
11
1571.613965378966
21
-663.299969613454
31
5.999981794241
0
LINE
8
0
10
1575.613965378966
20
-663.299969673059
30
5.999981794234
11
1573.613965378966
21
-663.299969643257
31
5.999981794237
0
LINE
8
0
10
1575.613965298499
20
-668.699963569544
30
5.999981794234
11
1575.613965378966
21
-663.299969673059
31
5.999981794234
0
LINE
8
0
10
1586.613965298499
20
-668.699963733457
30
5.999981794215
11
1575.613965298499
21
-668.699963569544
31
5.999981794234
0
LINE
8
0
10
1586.613965320851
20
-667.199963733457
30
5.999981794215
11
1586.613965298499
21
-668.699963733457
31
5.999981794215
0
LINE
8
0
10
1589.613965320851
20
-667.19996377816
30
5.99998179421
11
1586.613965320851
21
-667.199963733457
31
5.999981794215
0
LINE
8
0
10
1589.613965298499
20
-668.699963778161
30
5.99998179421
11
1589.613965320851
21
-667.19996377816
31
5.99998179421
0
LINE
8
0
10
1590.613965298499
20
-668.699963793062
30
5.999981794208
11
1589.613965298499
21
-668.699963778161
31
5.99998179421
0
LINE
8
0
10
1590.613965235914
20
-672.899976000093
30
5.999981794208
11
1590.613965298499
21
-668.699963793062
31
5.999981794208
0
LINE
8
0
10
1589.613965235914
20
-672.899975985192
30
5.99998179421
11
1590.613965235914
21
-672.899976000093
31
5.999981794208
0
LINE
8
0
10
1589.613965213562
20
-674.399975985192
30
5.99998179421
11
1589.613965235914
21
-672.899975985192
31
5.99998179421
0
LINE
8
0
10
1586.613965213562
20
-674.399975940488
30
5.999981794215
11
1589.613965213562
21
-674.399975985192
31
5.99998179421
0
LINE
8
0
10
1586.613965235914
20
-672.899975940488
30
5.999981794215
11
1586.613965213562
21
-674.399975940488
31
5.999981794215
0
LINE
8
0
10
1575.613965235914
20
-672.899975776575
30
5.999981794234
11
1586.613965235914
21
-672.899975940488
31
5.999981794215
0
LINE
8
0
10
1575.613965155447
20
-678.299969673059
30
5.999981794234
11
1575.613965235914
21
-672.899975776575
31
5.999981794234
0
LINE
8
0
10
1573.613965155447
20
-678.299969643257
30
5.999981794237
11
1575.613965155447
21
-678.299969673059
31
5.999981794234
0
LINE
8
0
10
1571.613965155447
20
-678.299969613454
30
5.999981794241
11
1573.613965155447
21
-678.299969643257
31
5.999981794237
0
LINE
8
0
10
1571.613965155447
20
-678.299969613454
30
5.999981794241
11
1571.09632694795
21
-678.368115357694
31
5.999981794241
0
LINE
8
0
10
1571.09632694795
20
-678.368115357694
30
5.999981794241
11
1570.613965151455
21
-678.567913934491
31
5.999981794242
0
LINE
8
0
10
1570.613965151455
20
-678.567913934491
30
5.999981794242
11
1570.199751966176
21
-678.88575450449
31
5.999981794243
0
LINE
8
0
10
1570.199751966176
20
-678.88575450449
30
5.999981794243
11
1569.881914244855
21
-679.299969587645
31
5.999981794243
0
LINE
8
0
10
1569.881914244855
20
-679.299969587645
30
5.999981794243
11
1569.682113746334
21
-679.782330424511
31
5.999981794244
0
LINE
8
0
10
1569.682113746334
20
-679.782330424511
30
5.999981794244
11
1569.613965125645
21
-680.299969583652
31
5.999981794244
0
LINE
8
0
10
1569.613965006435
20
-688.299969583652
30
5.999981794244
11
1569.613965125645
21
-680.299969583652
31
5.999981794244
0
LINE
8
0
10
1569.613965006435
20
-688.299969583652
30
5.999981794244
11
1569.682113611698
21
-688.817608744824
31
5.999981794244
0
LINE
8
0
10
1569.682113611698
20
-688.817608744824
30
5.999981794244
11
1569.881914095843
21
-689.299969587645
31
5.999981794243
0
LINE
8
0
10
1570.19975180482
20
-689.714184680272
30
5.999981794243
11
1570.613964980625
21
-690.032025262616
31
5.999981794242
0
LINE
8
0
10
1570.613964980625
20
-690.032025262616
30
5.999981794242
11
1571.096326771166
21
-690.231823853788
31
5.999981794241
0
LINE
8
0
10
1571.096326771166
20
-690.231823853788
30
5.999981794241
11
1571.613964976633
21
-690.299969613454
31
5.999981794241
0
LINE
8
0
10
1573.613964976633
20
-690.299969643257
30
5.999981794237
11
1571.613964976633
21
-690.299969613454
31
5.999981794241
0
LINE
8
0
10
1575.613964976633
20
-690.299969673059
30
5.999981794234
11
1573.613964976633
21
-690.299969643257
31
5.999981794237
0
LINE
8
0
10
1575.613964529597
20
-720.299969673059
30
5.999981794234
11
1575.613964976633
21
-690.299969673059
31
5.999981794234
0
LINE
8
0
10
1622.613964529597
20
-720.299970373416
30
5.999981794153
11
1575.613964529597
21
-720.299969673059
31
5.999981794234
0
LINE
8
0
10
1622.613965177799
20
-676.799970373416
30
5.999981794153
11
1622.613964529597
21
-720.299970373416
31
5.999981794153
0
LINE
8
0
10
1626.613965177799
20
-676.799970433021
30
5.999981794146
11
1622.613965177799
21
-676.799970373416
31
5.999981794153
0
LINE
8
0
10
1626.613965177799
20
-676.799970433021
30
5.999981794146
11
1627.131604338971
21
-676.731824688781
31
5.999981794145
0
LINE
8
0
10
1627.131604338971
20
-676.731824688781
30
5.999981794145
11
1627.613965181792
21
-676.532026111985
31
5.999981794145
0
LINE
8
0
10
1627.613965181792
20
-676.532026111985
30
5.999981794145
11
1628.028180274419
21
-676.214185541985
31
5.999981794144
0
LINE
8
0
10
1628.028180274419
20
-676.214185541985
30
5.999981794144
11
1628.346017042066
21
-675.799970458831
31
5.999981794143
0
LINE
8
0
10
1628.346017042066
20
-675.799970458831
30
5.999981794143
11
1628.545815633238
21
-675.317609621964
31
5.999981794143
0
LINE
8
0
10
1628.545815633238
20
-675.317609621964
30
5.999981794143
11
1628.613965207601
21
-674.799970462823
31
5.999981794143
0
LINE
8
0
10
1628.613965326811
20
-666.799970462823
30
5.999981794143
11
1628.613965207601
21
-674.799970462823
31
5.999981794143
0
LINE
8
0
10
1628.613965326811
20
-666.799970462823
30
5.999981794143
11
1628.545815767874
21
-666.282331301651
31
5.999981794143
0
LINE
8
0
10
1628.545815767874
20
-666.282331301651
30
5.999981794143
11
1628.346017191077
21
-665.79997045883
31
5.999981794143
0
LINE
8
0
10
1628.346017191077
20
-665.79997045883
30
5.999981794143
11
1628.028180435775
21
-665.385755366204
31
5.999981794144
0
LINE
8
0
10
1628.028180435775
20
-665.385755366204
30
5.999981794144
11
1627.613965352621
21
-665.06791478386
31
5.999981794145
0
LINE
8
0
10
1627.613965352621
20
-665.06791478386
30
5.999981794145
11
1627.131604515754
21
-664.868116192688
31
5.999981794145
0
LINE
8
0
10
1627.131604515754
20
-664.868116192688
30
5.999981794145
11
1626.613965356614
21
-664.799970433021
31
5.999981794146
0
LINE
8
0
10
1622.613965356614
20
-664.799970373416
30
5.999981794153
11
1626.613965356614
21
-664.799970433021
31
5.999981794146
0
LINE
8
0
10
1622.613968172942
20
-475.799970373416
30
5.999981794153
11
1622.613965356614
21
-664.799970373416
31
5.999981794153
0
LINE
8
0
10
1626.613968172942
20
-475.799970433021
30
5.999981794146
11
1622.613968172942
21
-475.799970373416
31
5.999981794153
0
LINE
8
0
10
1626.613968172942
20
-475.799970433021
30
5.999981794146
11
1627.131607334114
21
-475.731820874084
31
5.999981794145
0
LINE
8
0
10
1627.131607334114
20
-475.731820874084
30
5.999981794145
11
1627.613968176935
21
-475.532022297287
31
5.999981794145
0
LINE
8
0
10
1627.613968176935
20
-475.532022297287
30
5.999981794145
11
1628.028183269562
21
-475.214185541985
31
5.999981794144
0
LINE
8
0
10
1628.028183269562
20
-475.214185541985
30
5.999981794144
11
1628.346020037209
21
-474.799970458831
31
5.999981794143
0
LINE
8
0
10
1628.346020037209
20
-474.799970458831
30
5.999981794143
11
1628.545818628381
21
-474.317609621964
31
5.999981794143
0
LINE
8
0
10
1628.545818628381
20
-474.317609621964
30
5.999981794143
11
1628.613968202744
21
-473.799970462823
31
5.999981794143
0
LINE
8
0
10
1628.613968321954
20
-465.799970462823
30
5.999981794143
11
1628.613968202744
21
-473.799970462823
31
5.999981794143
0
LINE
8
0
10
1628.346020186221
20
-464.799970458831
30
5.999981794143
11
1628.028183430918
21
-464.385755366204
31
5.999981794144
0
LINE
8
1
10
1544.713911892872
20
-467.699975960074
30
6.000008763509
11
1543.713911892872
21
-467.699975960073
31
6.000008763514
0
LINE
8
1
10
1560.713911892742
20
-651.299974434206
30
6.000008764422
11
1562.713911892742
21
-651.299974434208
31
6.000008764413
0
LINE
8
1
10
1558.713911892742
20
-651.299974434205
30
6.000008764431
11
1560.713911892742
21
-651.299974434206
31
6.000008764422
0
LINE
8
1
10
1558.713911892857
20
-489.299974434204
30
6.00000876356
11
1558.713911892742
21
-651.299974434205
31
6.000008764431
0
LINE
8
1
10
1560.713911892857
20
-489.299974434206
30
6.000008763551
11
1558.713911892857
21
-489.299974434204
31
6.00000876356
0
LINE
8
1
10
1562.713911892857
20
-489.299974434206
30
6.000008763541
11
1560.713911892857
21
-489.299974434206
31
6.000008763551
0
LINE
8
1
10
1563.231550099338
20
-489.231826774906
30
6.000008763539
11
1563.713911892858
21
-489.032024376224
31
6.000008763535
0
LINE
8
1
10
1563.713911892858
20
-489.032024376224
30
6.000008763535
11
1564.1281250734
21
-488.714187614749
31
6.000008763532
0
LINE
8
1
10
1564.1281250734
20
-488.714187614749
30
6.000008763532
11
1564.445962788549
21
-488.299974434209
31
6.000008763528
0
LINE
8
1
10
1564.445962788549
20
-488.299974434209
30
6.000008763528
11
1564.645763279882
21
-487.817611687016
31
6.000008763524
0
LINE
8
1
10
1564.645763279882
20
-487.817611687016
30
6.000008763524
11
1564.713911892858
21
-487.299974434208
31
6.000008763521
0
LINE
8
1
10
1564.713911892863
20
-479.299974434209
30
6.000008763478
11
1564.713911892858
21
-487.299974434208
31
6.000008763521
0
LINE
8
1
10
1564.713911892863
20
-479.299974434209
30
6.000008763478
11
1564.645763279888
21
-478.782335274052
31
6.000008763475
0
LINE
8
1
10
1564.645763279888
20
-478.782335274052
30
6.000008763475
11
1564.445962788556
21
-478.299974434207
31
6.000008763474
0
LINE
8
1
10
1564.445962788556
20
-478.299974434207
30
6.000008763474
11
1564.128125073406
21
-477.885759346318
31
6.000008763473
0
LINE
8
1
10
1563.713911892865
20
-477.567922584843
30
6.000008763473
11
1563.231550099347
21
-477.368124000859
31
6.000008763474
0
LINE
8
1
10
1563.231550099347
20
-477.368124000859
30
6.000008763474
11
1562.713911892865
21
-477.299974434207
31
6.000008763476
0
LINE
8
1
10
1560.713911892864
20
-477.299974434206
30
6.000008763486
11
1562.713911892865
21
-477.299974434207
31
6.000008763476
0
LINE
8
1
10
1558.713911892865
20
-477.299974434205
30
6.000008763495
11
1560.713911892864
21
-477.299974434206
31
6.000008763486
0
LINE
8
1
10
1558.713911892868
20
-471.899972908326
30
6.000008763466
11
1558.713911892865
21
-477.299974434205
31
6.000008763495
0
LINE
8
1
10
1547.713911892868
20
-473.399972908318
30
6.000008763526
11
1547.713911892869
21
-471.899972908318
31
6.000008763518
0
LINE
8
1
10
1544.713911892869
20
-473.399972908315
30
6.00000876354
11
1547.713911892868
21
-473.399972908318
31
6.000008763526
0
LINE
8
1
10
1544.713911892869
20
-471.899972908316
30
6.000008763532
11
1544.713911892869
21
-473.399972908315
31
6.00000876354
0
LINE
8
1
10
1543.71391189287
20
-471.899972908315
30
6.000008763536
11
1544.713911892869
21
-471.899972908316
31
6.000008763532
0
LINE
8
1
10
1543.713911892872
20
-467.699975960073
30
6.000008763514
11
1543.71391189287
21
-471.899972908315
31
6.000008763536
0
LINE
8
1
10
1544.713911892874
20
-466.199975960073
30
6.000008763501
11
1544.713911892872
21
-467.699975960074
31
6.000008763509
0
LINE
8
1
10
1547.713911892873
20
-466.199975960076
30
6.000008763487
11
1544.713911892874
21
-466.199975960073
31
6.000008763501
0
LINE
8
1
10
1547.713911892872
20
-467.699975960077
30
6.000008763495
11
1547.713911892873
21
-466.199975960076
31
6.000008763487
0
LINE
8
1
10
1558.713911892872
20
-467.699975960085
30
6.000008763444
11
1547.713911892872
21
-467.699975960077
31
6.000008763495
0
LINE
8
1
10
1558.713911892875
20
-462.299974434205
30
6.000008763414
11
1558.713911892872
21
-467.699975960085
31
6.000008763444
0
LINE
8
1
10
1560.713911892875
20
-462.299974434205
30
6.000008763405
11
1558.713911892875
21
-462.299974434205
31
6.000008763414
0
LINE
8
1
10
1562.713911892875
20
-462.299974434207
30
6.000008763396
11
1560.713911892875
21
-462.299974434205
31
6.000008763405
0
LINE
8
1
10
1562.713911892875
20
-462.299974434207
30
6.000008763396
11
1563.231550099358
21
-462.231824867556
31
6.000008763393
0
LINE
8
1
10
1563.231550099358
20
-462.231824867556
30
6.000008763393
11
1563.713911892876
21
-462.032026283574
31
6.00000876339
0
LINE
8
1
10
1563.713911892876
20
-462.032026283574
30
6.00000876339
11
1564.128125073419
21
-461.714189522099
31
6.000008763386
0
LINE
8
1
10
1564.128125073419
20
-461.714189522099
30
6.000008763386
11
1564.445962788568
21
-461.299974434209
31
6.000008763382
0
LINE
8
1
10
1564.445962788568
20
-461.299974434209
30
6.000008763382
11
1564.645763279902
21
-460.817613594364
31
6.000008763379
0
LINE
8
1
10
1564.645763279902
20
-460.817613594364
30
6.000008763379
11
1564.713911892877
21
-460.299974434209
31
6.000008763376
0
LINE
8
1
10
1564.713911892883
20
-452.299974434208
30
6.000008763333
11
1564.713911892877
21
-460.299974434209
31
6.000008763376
0
LINE
8
1
10
1564.713911892883
20
-452.299974434208
30
6.000008763333
11
1564.645763279907
21
-451.782335274053
31
6.00000876333
0
LINE
8
1
10
1564.645763279907
20
-451.782335274053
30
6.00000876333
11
1564.445962788575
21
-451.299974434208
31
6.000008763328
0
LINE
8
1
10
1564.445962788575
20
-451.299974434208
30
6.000008763328
11
1564.128125073426
21
-450.885759346318
31
6.000008763328
0
LINE
8
1
10
1564.128125073426
20
-450.885759346318
30
6.000008763328
11
1563.713911892885
21
-450.56792639954
31
6.000008763328
0
LINE
8
1
10
1563.713911892885
20
-450.56792639954
30
6.000008763328
11
1563.231550099366
21
-450.368120186161
31
6.000008763329
0
LINE
8
1
10
1563.231550099366
20
-450.368120186161
30
6.000008763329
11
1562.713911892884
21
-450.299974434207
31
6.000008763331
0
LINE
8
1
10
1560.713911892885
20
-450.299974434206
30
6.000008763341
11
1562.713911892884
21
-450.299974434207
31
6.000008763331
0
LINE
8
1
10
1523.645762326258
20
-415.782335274024
30
6.000008763328
11
1523.445963742275
21
-415.299974434181
31
6.000008763327
0
LINE
8
1
10
1547.713911892869
20
-471.899972908318
30
6.000008763518
11
1558.713911892868
21
-471.899972908326
31
6.000008763466
0
LINE
8
1
10
1564.128125073406
20
-477.885759346318
30
6.000008763473
11
1563.713911892865
21
-477.567922584843
31
6.000008763473
0
LINE
8
1
10
1505.782061459524
20
-465.282335274012
30
6.000008763678
11
1505.713911892873
21
-465.799974434168
31
6.000008763681
0
LINE
8
1
10
1562.713911892857
20
-489.299974434206
30
6.000008763541
11
1563.231550099338
21
-489.231826774906
31
6.000008763539
0
LINE
8
1
10
1523.445963742275
20
-415.299974434181
30
6.000008763327
11
1523.1281269808
21
-414.885759346289
31
6.000008763326
0
LINE
8
1
10
1523.1281269808
20
-414.885759346289
30
6.000008763326
11
1522.71391189291
21
-414.567926399511
31
6.000008763326
0
LINE
8
1
10
1558.713911892884
20
-450.299974434205
30
6.00000876335
11
1560.713911892885
21
-450.299974434206
31
6.000008763341
0
LINE
8
1
10
1523.713911892906
20
-420.299974434182
30
6.000008763352
11
1558.713911892905
21
-420.299974434206
31
6.000008763189
0
LINE
8
1
10
1551.713911892894
20
-437.799974434199
30
6.000008763316
11
1558.713911892893
21
-437.799974434204
31
6.000008763283
0
LINE
8
1
10
1513.713911892909
20
-414.299974434172
30
6.000008763367
11
1521.71391189291
21
-414.299974434178
31
6.000008763329
0
LINE
8
1
10
1511.713911892874
20
-463.799974434171
30
6.000008763642
11
1511.713911892908
21
-416.299974434172
31
6.000008763387
0
LINE
8
1
10
1558.713911892893
20
-437.799974434204
30
6.000008763283
11
1558.713911892884
21
-450.299974434205
31
6.00000876335
0
LINE
8
1
10
1551.713911892897
20
-432.7999744342
30
6.000008763289
11
1551.713911892894
21
-437.799974434199
31
6.000008763316
0
LINE
8
1
10
1558.713911892896
20
-432.799974434205
30
6.000008763256
11
1551.713911892897
21
-432.7999744342
31
6.000008763289
0
LINE
8
1
10
1558.713911892905
20
-420.299974434206
30
6.000008763189
11
1558.713911892896
21
-432.799974434205
31
6.000008763256
0
LINE
8
1
10
1523.713911892908
20
-416.299974434181
30
6.000008763331
11
1523.713911892906
21
-420.299974434182
31
6.000008763352
0
LINE
8
1
10
1523.713911892908
20
-416.299974434181
30
6.000008763331
11
1523.645762326258
21
-415.782335274024
31
6.000008763328
0
LINE
8
1
10
1522.71391189291
20
-414.567926399511
30
6.000008763326
11
1522.231551053066
21
-414.368120186132
31
6.000008763327
0
LINE
8
1
10
1522.231551053066
20
-414.368120186132
30
6.000008763327
11
1521.71391189291
21
-414.299974434178
31
6.000008763329
0
LINE
8
1
10
1513.713911892909
20
-414.299974434172
30
6.000008763367
11
1513.196272732754
21
-414.368120186125
31
6.00000876337
0
LINE
8
1
10
1513.196272732754
20
-414.368120186125
30
6.00000876337
11
1512.71391189291
21
-414.567926399504
31
6.000008763373
0
LINE
8
1
10
1512.71391189291
20
-414.567926399504
30
6.000008763373
11
1512.299696805019
21
-414.885759346281
31
6.000008763376
0
LINE
8
1
10
1512.299696805019
20
-414.885759346281
30
6.000008763376
11
1511.981860043544
21
-415.299974434172
31
6.00000876338
0
LINE
8
1
10
1511.981860043544
20
-415.299974434172
30
6.00000876338
11
1511.78206145956
21
-415.782335274015
31
6.000008763384
0
LINE
8
1
10
1511.78206145956
20
-415.782335274015
30
6.000008763384
11
1511.713911892908
21
-416.299974434172
31
6.000008763387
0
LINE
8
1
10
1507.713911892874
20
-463.799974434169
30
6.000008763661
11
1511.713911892874
21
-463.799974434171
31
6.000008763642
0
LINE
8
1
10
1507.713911892874
20
-463.799974434169
30
6.000008763661
11
1507.196272732719
21
-463.86812400082
31
6.000008763664
0
LINE
8
1
10
1507.196272732719
20
-463.86812400082
30
6.000008763664
11
1506.713911892875
21
-464.067922584803
31
6.000008763667
0
LINE
8
1
10
1506.713911892875
20
-464.067922584803
30
6.000008763667
11
1506.299696804984
21
-464.385759346278
31
6.000008763671
0
LINE
8
1
10
1506.299696804984
20
-464.385759346278
30
6.000008763671
11
1505.981860043509
21
-464.799974434167
31
6.000008763674
0
LINE
8
1
10
1505.981860043509
20
-464.799974434167
30
6.000008763674
11
1505.782061459524
21
-465.282335274012
31
6.000008763678
0
LINE
8
1
10
1505.713911892867
20
-473.799974434168
30
6.000008763724
11
1505.713911892873
21
-465.799974434168
31
6.000008763681
0
LINE
8
1
10
1505.713911892867
20
-473.799974434168
30
6.000008763724
11
1505.782061459518
21
-474.317613594325
31
6.000008763726
0
LINE
8
1
10
1505.782061459518
20
-474.317613594325
30
6.000008763726
11
1505.981860043502
21
-474.799974434168
31
6.000008763728
0
LINE
8
1
10
1505.981860043502
20
-474.799974434168
30
6.000008763728
11
1506.299696804976
21
-475.214189522059
31
6.000008763729
0
LINE
8
1
10
1506.299696804976
20
-475.214189522059
30
6.000008763729
11
1506.713911892866
21
-475.532026283534
31
6.000008763729
0
LINE
8
1
10
1506.713911892866
20
-475.532026283534
30
6.000008763729
11
1507.19627273271
21
-475.731824867518
31
6.000008763728
0
LINE
8
1
10
1507.19627273271
20
-475.731824867518
30
6.000008763728
11
1507.713911892866
21
-475.799974434168
31
6.000008763725
0
LINE
8
1
10
1511.713911892866
20
-475.799974434172
30
6.000008763707
11
1507.713911892866
21
-475.799974434168
31
6.000008763725
0
LINE
8
1
10
1511.713911892773
20
-608.299963360431
30
6.000008762851
11
1511.713911892866
21
-475.799974434172
31
6.000008763707
0
LINE
8
1
10
1511.713911892773
20
-608.299963360431
30
6.000008762851
11
1523.713912015408
21
-608.29996336044
31
6.000008762795
0
LINE
8
1
10
1523.713912015408
20
-608.29996336044
30
6.000008762795
11
1523.713912015405
21
-614.299967751692
31
6.000008761612
0
LINE
8
1
10
1523.713912015405
20
-614.299967751692
30
6.000008761612
11
1511.713911892768
21
-614.299967751683
31
6.000008762884
0
LINE
8
1
10
1511.713911892693
20
-720.299974434171
30
6.000008765023
11
1511.713911892768
21
-614.299967751683
31
6.000008762884
0
LINE
8
1
10
1558.713911892693
20
-720.299974434205
30
6.000008764803
11
1511.713911892693
21
-720.299974434171
31
6.000008765023
0
LINE
8
1
10
1558.713911892714
20
-690.299974434205
30
6.000008764641
11
1558.713911892693
21
-720.299974434205
31
6.000008764803
0
LINE
8
1
10
1560.713911892715
20
-690.299974434206
30
6.000008764632
11
1558.713911892714
21
-690.299974434205
31
6.000008764641
0
LINE
8
1
10
1562.713911892714
20
-690.299974434207
30
6.000008764623
11
1560.713911892715
21
-690.299974434206
31
6.000008764632
0
LINE
8
1
10
1562.713911892714
20
-690.299974434207
30
6.000008764623
11
1563.231550099197
21
-690.231828682254
31
6.00000876462
0
LINE
8
1
10
1563.231550099197
20
-690.231828682254
30
6.00000876462
11
1563.713911892715
21
-690.03203009827
31
6.000008764616
0
LINE
8
1
10
1563.713911892715
20
-690.03203009827
30
6.000008764616
11
1564.128125073256
21
-689.714189522099
31
6.000008764613
0
LINE
8
1
10
1564.128125073256
20
-689.714189522099
30
6.000008764613
11
1564.445962788406
21
-689.299974434209
31
6.000008764609
0
LINE
8
1
10
1564.445962788406
20
-689.299974434209
30
6.000008764609
11
1564.645763279739
21
-688.817613594364
31
6.000008764606
0
LINE
8
1
10
1564.645763279739
20
-688.817613594364
30
6.000008764606
11
1564.713911892717
21
-688.299974434208
31
6.000008764603
0
LINE
8
1
10
1564.713911892722
20
-680.299974434208
30
6.00000876456
11
1564.713911892717
21
-688.299974434208
31
6.000008764603
0
LINE
8
1
10
1564.713911892722
20
-680.299974434208
30
6.00000876456
11
1564.645763279745
21
-679.782335274052
31
6.000008764557
0
LINE
8
1
10
1564.645763279745
20
-679.782335274052
30
6.000008764557
11
1564.445962788413
21
-679.299974434209
31
6.000008764556
0
LINE
8
1
10
1564.445962788413
20
-679.299974434209
30
6.000008764556
11
1564.128125073266
21
-678.885759346317
31
6.000008764555
0
LINE
8
1
10
1564.128125073266
20
-678.885759346317
30
6.000008764555
11
1563.713911892723
21
-678.567918770146
31
6.000008764555
0
LINE
8
1
10
1563.713911892723
20
-678.567918770146
30
6.000008764555
11
1563.231550099206
21
-678.36812018616
31
6.000008764556
0
LINE
8
1
10
1563.231550099206
20
-678.36812018616
30
6.000008764556
11
1562.713911892723
21
-678.299974434207
31
6.000008764558
0
LINE
8
1
10
1560.713911892723
20
-678.299974434206
30
6.000008764568
11
1562.713911892723
21
-678.299974434207
31
6.000008764558
0
LINE
8
1
10
1558.713911892722
20
-678.299974434205
30
6.000008764577
11
1560.713911892723
21
-678.299974434206
31
6.000008764568
0
LINE
8
1
10
1558.713911892727
20
-672.899980537721
30
6.000008764548
11
1558.713911892722
21
-678.299974434205
31
6.000008764577
0
LINE
8
1
10
1547.713911892727
20
-672.899980537713
30
6.000008764599
11
1558.713911892727
21
-672.899980537721
31
6.000008764548
0
LINE
8
1
10
1547.713911892725
20
-674.399980537713
30
6.000008764607
11
1547.713911892727
21
-672.899980537713
31
6.000008764599
0
LINE
8
1
10
1544.713911892726
20
-674.39998053771
30
6.000008764621
11
1547.713911892725
21
-674.399980537713
31
6.000008764607
0
LINE
8
1
10
1544.713911892728
20
-672.89998053771
30
6.000008764613
11
1544.713911892726
21
-674.39998053771
31
6.000008764621
0
LINE
8
1
10
1543.713911892727
20
-672.899980537709
30
6.000008764618
11
1544.713911892728
21
-672.89998053771
31
6.000008764613
0
LINE
8
1
10
1543.71391189273
20
-668.699968330677
30
6.000008764595
11
1543.713911892727
21
-672.899980537709
31
6.000008764618
0
LINE
8
1
10
1544.71391189273
20
-668.699968330678
30
6.000008764591
11
1543.71391189273
21
-668.699968330677
31
6.000008764595
0
LINE
8
1
10
1544.713911892732
20
-667.199968330678
30
6.000008764582
11
1544.71391189273
21
-668.699968330678
31
6.000008764591
0
LINE
8
1
10
1547.713911892732
20
-667.199968330681
30
6.000008764568
11
1544.713911892732
21
-667.199968330678
31
6.000008764582
0
LINE
8
1
10
1547.71391189273
20
-668.69996833068
30
6.000008764577
11
1547.713911892732
21
-667.199968330681
31
6.000008764568
0
LINE
8
1
10
1558.71391189273
20
-668.699968330688
30
6.000008764525
11
1547.71391189273
21
-668.69996833068
31
6.000008764577
0
LINE
8
1
10
1558.713911892733
20
-663.299974434205
30
6.000008764496
11
1558.71391189273
21
-668.699968330688
31
6.000008764525
0
LINE
8
1
10
1560.713911892733
20
-663.299974434206
30
6.000008764487
11
1558.713911892733
21
-663.299974434205
31
6.000008764496
0
LINE
8
1
10
1562.713911892734
20
-663.299974434206
30
6.000008764478
11
1560.713911892733
21
-663.299974434206
31
6.000008764487
0
LINE
8
1
10
1562.713911892734
20
-663.299974434206
30
6.000008764478
11
1563.231550099215
21
-663.231828682255
31
6.000008764475
0
LINE
8
1
10
1563.231550099215
20
-663.231828682255
30
6.000008764475
11
1563.713911892733
21
-663.03203009827
31
6.000008764471
0
LINE
8
1
10
1563.713911892733
20
-663.03203009827
30
6.000008764471
11
1564.128125073276
21
-662.714189522099
31
6.000008764467
0
LINE
8
1
10
1564.128125073276
20
-662.714189522099
30
6.000008764467
11
1564.445962788426
21
-662.299974434209
31
6.000008764464
0
LINE
8
1
10
1564.445962788426
20
-662.299974434209
30
6.000008764464
11
1564.645763279758
21
-661.817613594365
31
6.00000876446
0
LINE
8
1
10
1564.645763279758
20
-661.817613594365
30
6.00000876446
11
1564.713911892735
21
-661.299974434209
31
6.000008764457
0
LINE
8
1
10
1564.71391189274
20
-653.299974434208
30
6.000008764414
11
1564.713911892735
21
-661.299974434209
31
6.000008764457
0
LINE
8
1
10
1564.71391189274
20
-653.299974434208
30
6.000008764414
11
1564.645763279765
21
-652.782335274052
31
6.000008764412
0
LINE
8
1
10
1564.645763279765
20
-652.782335274052
30
6.000008764412
11
1564.445962788432
21
-652.299974434208
31
6.00000876441
0
LINE
8
1
10
1564.445962788432
20
-652.299974434208
30
6.00000876441
11
1564.128125073284
21
-651.885759346317
31
6.000008764409
0
LINE
8
1
10
1564.128125073284
20
-651.885759346317
30
6.000008764409
11
1563.713911892742
21
-651.567918770145
31
6.000008764409
0
LINE
8
1
10
1563.713911892742
20
-651.567918770145
30
6.000008764409
11
1563.231550099224
21
-651.368120186161
31
6.000008764411
0
LINE
8
1
10
1563.231550099224
20
-651.368120186161
30
6.000008764411
11
1562.713911892742
21
-651.299974434208
31
6.000008764413
0
LINE
8
2
10
1419.899989926153
20
-546.199694022152
30
6.000108626969
11
1420.288218840402
21
-546.148582687101
31
6.000108628565
0
LINE
8
2
10
1420.288218840402
20
-546.148582687101
30
6.000108628565
11
1420.649990588256
21
-545.998731891692
31
6.000108644815
0
LINE
8
2
10
1420.649990588256
20
-545.998731891692
30
6.000108644815
11
1420.960651022953
21
-545.760353719993
31
6.000108674611
0
LINE
8
2
10
1420.960651022953
20
-545.760353719993
30
6.000108674611
11
1421.199029149261
21
-545.449693250465
31
6.000108715923
0
LINE
8
2
10
1421.199029149261
20
-545.449693250465
30
6.000108715923
11
1421.34887989181
21
-545.087921480716
31
6.000108765936
0
LINE
8
2
10
1421.34887989181
20
-545.087921480716
30
6.000108765936
11
1421.399991170135
21
-544.699692558999
31
6.000108821241
0
LINE
8
2
10
1421.399991170135
20
-544.699692558999
30
6.000108821241
11
1421.348879835083
21
-544.311463644751
31
6.00010887807
0
LINE
8
2
10
1421.348879835083
20
-544.311463644751
30
6.00010887807
11
1421.199029039675
21
-543.949691896898
31
6.000108932549
0
LINE
8
2
10
1421.199029039675
20
-543.949691896898
30
6.000108932549
11
1420.960650867976
21
-543.6390314622
31
6.000108980965
0
LINE
8
2
10
1420.960650867976
20
-543.6390314622
30
6.000108980965
11
1420.649990398448
21
-543.400653335892
31
6.000109020021
0
LINE
8
2
10
1420.649990398448
20
-543.400653335892
30
6.000109020021
11
1420.288218628699
21
-543.250802593343
31
6.000109047053
0
LINE
8
2
10
1420.288218628699
20
-543.250802593343
30
6.000109047053
11
1419.899989706983
21
-543.199691315018
31
6.00010906022
0
LINE
8
2
10
1359.899990125613
20
-546.199698405562
30
6.00010952108
11
1359.511761203896
21
-546.148587127237
31
6.00010952915
0
LINE
8
2
10
1359.511761203896
20
-546.148587127237
30
6.00010952915
11
1359.149989434148
21
-545.998736384688
31
6.00010954124
0
LINE
8
2
10
1359.149989434148
20
-545.998736384688
30
6.00010954124
11
1358.83932896462
21
-545.76035825838
31
6.000109556526
0
LINE
8
2
10
1358.83932896462
20
-545.76035825838
30
6.000109556526
11
1358.60095079292
21
-545.449697823682
31
6.000109573965
0
LINE
8
2
10
1358.60095079292
20
-545.449697823682
30
6.000109573965
11
1358.451099997511
21
-545.087926075829
31
6.00010959237
0
LINE
8
2
10
1358.451099997511
20
-545.087926075829
30
6.00010959237
11
1358.399988662461
21
-544.69969716158
31
6.000109610486
0
LINE
8
2
10
1358.399988662461
20
-544.69969716158
30
6.000109610486
11
1358.451099940786
21
-544.311468239864
31
6.000109627079
0
LINE
8
2
10
1358.451099940786
20
-544.311468239864
30
6.000109627079
11
1358.600950683335
21
-543.949696470115
31
6.000109641018
0
LINE
8
2
10
1358.600950683335
20
-543.949696470115
30
6.000109641018
11
1358.839328809643
21
-543.639036000587
31
6.000109651353
0
LINE
8
2
10
1358.839328809643
20
-543.639036000587
30
6.000109651353
11
1359.14998924434
21
-543.400657828888
31
6.00010965738
0
LINE
8
2
10
1359.14998924434
20
-543.400657828888
30
6.00010965738
11
1359.511760992193
21
-543.250807033479
31
6.000109658687
0
LINE
8
2
10
1359.511760992193
20
-543.250807033479
30
6.000109658687
11
1359.899989906442
21
-543.199695698428
31
6.000109655186
0
LINE
8
2
10
1359.899990125613
20
-553.855223805562
30
6.00010952108
11
1359.511761203896
21
-553.804112527236
31
6.00010952915
0
LINE
8
2
10
1359.511761203896
20
-553.804112527236
30
6.00010952915
11
1359.149989434148
21
-553.654261784687
31
6.00010954124
0
LINE
8
2
10
1359.149989434148
20
-553.654261784687
30
6.00010954124
11
1358.83932896462
21
-553.415883658379
31
6.000109556526
0
LINE
8
2
10
1358.83932896462
20
-553.415883658379
30
6.000109556526
11
1358.60095079292
21
-553.105223223682
31
6.000109573965
0
LINE
8
2
10
1358.60095079292
20
-553.105223223682
30
6.000109573965
11
1358.451099997511
21
-552.743451475829
31
6.00010959237
0
LINE
8
2
10
1358.451099997511
20
-552.743451475829
30
6.00010959237
11
1358.399988662461
21
-552.35522256158
31
6.000109610486
0
LINE
8
2
10
1358.399988662461
20
-552.35522256158
30
6.000109610486
11
1358.451099940786
21
-551.966993639864
31
6.000109627079
0
LINE
8
2
10
1358.451099940786
20
-551.966993639864
30
6.000109627079
11
1358.600950683335
21
-551.605221870115
31
6.000109641018
0
LINE
8
2
10
1358.600950683335
20
-551.605221870115
30
6.000109641018
11
1358.839328809643
21
-551.294561400587
31
6.000109651353
0
LINE
8
2
10
1358.839328809643
20
-551.294561400587
30
6.000109651353
11
1359.14998924434
21
-551.056183228888
31
6.00010965738
0
LINE
8
2
10
1359.14998924434
20
-551.056183228888
30
6.00010965738
11
1359.511760992193
21
-550.906332433479
31
6.000109658687
0
LINE
8
2
10
1359.511760992193
20
-550.906332433479
30
6.000109658687
11
1359.899989906442
21
-550.855221098428
31
6.000109655186
0
LINE
8
2
10
1359.899990125613
20
-706.965731805561
30
6.00010952108
11
1359.511761203896
21
-706.914620527236
31
6.00010952915
0
LINE
8
2
10
1359.511761203896
20
-706.914620527236
30
6.00010952915
11
1359.149989434148
21
-706.764769784687
31
6.00010954124
0
LINE
8
2
10
1359.149989434148
20
-706.764769784687
30
6.00010954124
11
1358.83932896462
21
-706.526391658379
31
6.000109556526
0
LINE
8
2
10
1358.83932896462
20
-706.526391658379
30
6.000109556526
11
1358.60095079292
21
-706.215731223682
31
6.000109573965
0
LINE
8
2
10
1358.60095079292
20
-706.215731223682
30
6.000109573965
11
1358.451099997511
21
-705.853959475828
31
6.00010959237
0
LINE
8
2
10
1358.451099997511
20
-705.853959475828
30
6.00010959237
11
1358.399988662461
21
-705.46573056158
31
6.000109610486
0
LINE
8
2
10
1358.399988662461
20
-705.46573056158
30
6.000109610486
11
1358.451099940786
21
-705.077501639863
31
6.000109627079
0
LINE
8
2
10
1358.451099940786
20
-705.077501639863
30
6.000109627079
11
1358.600950683335
21
-704.715729870115
31
6.000109641018
0
LINE
8
2
10
1358.600950683335
20
-704.715729870115
30
6.000109641018
11
1358.839328809643
21
-704.405069400587
31
6.000109651353
0
LINE
8
2
10
1358.839328809643
20
-704.405069400587
30
6.000109651353
11
1359.14998924434
21
-704.166691228887
31
6.00010965738
0
LINE
8
2
10
1359.14998924434
20
-704.166691228887
30
6.00010965738
11
1359.511760992193
21
-704.016840433479
31
6.000109658687
0
LINE
8
2
10
1359.511760992193
20
-704.016840433479
30
6.000109658687
11
1359.899989906442
21
-703.965729098428
31
6.000109655186
0
LINE
8
2
10
1419.899989926153
20
-706.965727422151
30
6.000108626969
11
1420.288218840402
21
-706.9146160871
31
6.000108628565
0
LINE
8
2
10
1420.288218840402
20
-706.9146160871
30
6.000108628565
11
1420.649990588256
21
-706.764765291692
31
6.000108644815
0
LINE
8
2
10
1420.649990588256
20
-706.764765291692
30
6.000108644815
11
1420.960651022953
21
-706.526387119992
31
6.000108674611
0
LINE
8
2
10
1420.960651022953
20
-706.526387119992
30
6.000108674611
11
1421.199029149261
21
-706.215726650464
31
6.000108715923
0
LINE
8
2
10
1421.199029149261
20
-706.215726650464
30
6.000108715923
11
1421.34887989181
21
-705.853954880716
31
6.000108765936
0
LINE
8
2
10
1421.34887989181
20
-705.853954880716
30
6.000108765936
11
1421.399991170135
21
-705.465725958999
31
6.000108821241
0
LINE
8
2
10
1421.399991170135
20
-705.465725958999
30
6.000108821241
11
1421.348879835083
21
-705.07749704475
31
6.00010887807
0
LINE
8
2
10
1421.348879835083
20
-705.07749704475
30
6.00010887807
11
1421.199029039675
21
-704.715725296897
31
6.000108932549
0
LINE
8
2
10
1421.199029039675
20
-704.715725296897
30
6.000108932549
11
1420.960650867976
21
-704.4050648622
31
6.000108980965
0
LINE
8
2
10
1420.960650867976
20
-704.4050648622
30
6.000108980965
11
1420.649990398448
21
-704.166686735892
31
6.000109020021
0
LINE
8
2
10
1420.649990398448
20
-704.166686735892
30
6.000109020021
11
1420.288218628699
21
-704.016835993343
31
6.000109047053
0
LINE
8
2
10
1420.288218628699
20
-704.016835993343
30
6.000109047053
11
1419.899989706983
21
-703.965724715017
31
6.00010906022
0
LINE
8
2
10
1359.899990125613
20
-699.310206405561
30
6.00010952108
11
1359.511761203896
21
-699.259095127236
31
6.00010952915
0
LINE
8
2
10
1359.511761203896
20
-699.259095127236
30
6.00010952915
11
1359.149989434148
21
-699.109244384687
31
6.00010954124
0
LINE
8
2
10
1359.149989434148
20
-699.109244384687
30
6.00010954124
11
1358.83932896462
21
-698.870866258379
31
6.000109556526
0
LINE
8
2
10
1358.83932896462
20
-698.870866258379
30
6.000109556526
11
1358.60095079292
21
-698.560205823682
31
6.000109573965
0
LINE
8
2
10
1358.60095079292
20
-698.560205823682
30
6.000109573965
11
1358.451099997511
21
-698.198434075828
31
6.00010959237
0
LINE
8
2
10
1358.451099997511
20
-698.198434075828
30
6.00010959237
11
1358.399988662461
21
-697.81020516158
31
6.000109610486
0
LINE
8
2
10
1358.399988662461
20
-697.81020516158
30
6.000109610486
11
1358.451099940786
21
-697.421976239863
31
6.000109627079
0
LINE
8
2
10
1358.451099940786
20
-697.421976239863
30
6.000109627079
11
1358.600950683335
21
-697.060204470115
31
6.000109641018
0
LINE
8
2
10
1358.600950683335
20
-697.060204470115
30
6.000109641018
11
1358.839328809643
21
-696.749544000587
31
6.000109651353
0
LINE
8
2
10
1358.839328809643
20
-696.749544000587
30
6.000109651353
11
1359.14998924434
21
-696.511165828887
31
6.00010965738
0
LINE
8
2
10
1359.14998924434
20
-696.511165828887
30
6.00010965738
11
1359.511760992193
21
-696.361315033479
31
6.000109658687
0
LINE
8
2
10
1359.511760992193
20
-696.361315033479
30
6.000109658687
11
1359.899989906442
21
-696.310203698428
31
6.000109655186
0
LINE
8
2
10
1419.899989926153
20
-553.855219422152
30
6.000108626969
11
1420.288218840402
21
-553.804108087101
31
6.000108628565
0
LINE
8
2
10
1420.288218840402
20
-553.804108087101
30
6.000108628565
11
1420.649990588256
21
-553.654257291692
31
6.000108644815
0
LINE
8
2
10
1420.649990588256
20
-553.654257291692
30
6.000108644815
11
1420.960651022953
21
-553.415879119992
31
6.000108674611
0
LINE
8
2
10
1420.960651022953
20
-553.415879119992
30
6.000108674611
11
1421.199029149261
21
-553.105218650464
31
6.000108715923
0
LINE
8
2
10
1421.199029149261
20
-553.105218650464
30
6.000108715923
11
1421.34887989181
21
-552.743446880716
31
6.000108765936
0
LINE
8
2
10
1421.34887989181
20
-552.743446880716
30
6.000108765936
11
1421.399991170135
21
-552.355217958999
31
6.000108821241
0
LINE
8
2
10
1421.399991170135
20
-552.355217958999
30
6.000108821241
11
1421.348879835083
21
-551.966989044751
31
6.00010887807
0
LINE
8
2
10
1421.348879835083
20
-551.966989044751
30
6.00010887807
11
1421.199029039675
21
-551.605217296897
31
6.000108932549
0
LINE
8
2
10
1421.199029039675
20
-551.605217296897
30
6.000108932549
11
1420.960650867976
21
-551.2945568622
31
6.000108980965
0
LINE
8
2
10
1420.960650867976
20
-551.2945568622
30
6.000108980965
11
1420.649990398448
21
-551.056178735892
31
6.000109020021
0
LINE
8
2
10
1420.649990398448
20
-551.056178735892
30
6.000109020021
11
1420.288218628699
21
-550.906327993343
31
6.000109047053
0
LINE
8
2
10
1420.288218628699
20
-550.906327993343
30
6.000109047053
11
1419.899989706983
21
-550.855216715018
31
6.00010906022
0
LINE
8
2
10
1359.899990125613
20
-477.299969805562
30
6.00010952108
11
1359.511761203896
21
-477.248858527236
31
6.00010952915
0
LINE
8
2
10
1359.511761203896
20
-477.248858527236
30
6.00010952915
11
1359.149989434148
21
-477.099007784688
31
6.00010954124
0
LINE
8
2
10
1359.149989434148
20
-477.099007784688
30
6.00010954124
11
1358.83932896462
21
-476.86062965838
31
6.000109556526
0
LINE
8
2
10
1358.83932896462
20
-476.86062965838
30
6.000109556526
11
1358.60095079292
21
-476.549969223682
31
6.000109573965
0
LINE
8
2
10
1358.60095079292
20
-476.549969223682
30
6.000109573965
11
1358.451099997511
21
-476.188197475829
31
6.00010959237
0
LINE
8
2
10
1358.451099997511
20
-476.188197475829
30
6.00010959237
11
1358.399988662461
21
-475.79996856158
31
6.000109610486
0
LINE
8
2
10
1358.399988662461
20
-475.79996856158
30
6.000109610486
11
1358.451099940786
21
-475.411739639864
31
6.000109627079
0
LINE
8
2
10
1358.451099940786
20
-475.411739639864
30
6.000109627079
11
1358.600950683335
21
-475.049967870115
31
6.000109641018
0
LINE
8
2
10
1358.600950683335
20
-475.049967870115
30
6.000109641018
11
1358.839328809643
21
-474.739307400587
31
6.000109651353
0
LINE
8
2
10
1358.839328809643
20
-474.739307400587
30
6.000109651353
11
1359.14998924434
21
-474.500929228888
31
6.00010965738
0
LINE
8
2
10
1359.14998924434
20
-474.500929228888
30
6.00010965738
11
1359.511760992193
21
-474.351078433479
31
6.000109658687
0
LINE
8
2
10
1359.511760992193
20
-474.351078433479
30
6.000109658687
11
1359.899989906442
21
-474.299967098428
31
6.000109655186
0
LINE
8
2
10
1419.899989926153
20
-477.299965422152
30
6.000108626969
11
1420.288218840402
21
-477.248854087101
31
6.000108628565
0
LINE
8
2
10
1420.288218840402
20
-477.248854087101
30
6.000108628565
11
1420.649990588256
21
-477.099003291692
31
6.000108644815
0
LINE
8
2
10
1420.649990588256
20
-477.099003291692
30
6.000108644815
11
1420.960651022953
21
-476.860625119992
31
6.000108674611
0
LINE
8
2
10
1420.960651022953
20
-476.860625119992
30
6.000108674611
11
1421.199029149261
21
-476.549964650465
31
6.000108715923
0
LINE
8
2
10
1421.199029149261
20
-476.549964650465
30
6.000108715923
11
1421.34887989181
21
-476.188192880716
31
6.000108765936
0
LINE
8
2
10
1421.34887989181
20
-476.188192880716
30
6.000108765936
11
1421.399991170135
21
-475.799963959
31
6.000108821241
0
LINE
8
2
10
1421.399991170135
20
-475.799963959
30
6.000108821241
11
1421.348879835083
21
-475.411735044751
31
6.00010887807
0
LINE
8
2
10
1421.348879835083
20
-475.411735044751
30
6.00010887807
11
1421.199029039675
21
-475.049963296898
31
6.000108932549
0
LINE
8
2
10
1421.199029039675
20
-475.049963296898
30
6.000108932549
11
1420.960650867976
21
-474.7393028622
31
6.000108980965
0
LINE
8
2
10
1420.960650867976
20
-474.7393028622
30
6.000108980965
11
1420.649990398448
21
-474.500924735892
31
6.000109020021
0
LINE
8
2
10
1420.649990398448
20
-474.500924735892
30
6.000109020021
11
1420.288218628699
21
-474.351073993343
31
6.000109047053
0
LINE
8
2
10
1420.288218628699
20
-474.351073993343
30
6.000109047053
11
1419.899989706983
21
-474.299962715018
31
6.00010906022
0
LINE
8
2
10
1419.899989926153
20
-484.955490822152
30
6.000108626969
11
1420.288218840402
21
-484.904379487101
31
6.000108628565
0
LINE
8
2
10
1420.288218840402
20
-484.904379487101
30
6.000108628565
11
1420.649990588256
21
-484.754528691692
31
6.000108644815
0
LINE
8
2
10
1420.649990588256
20
-484.754528691692
30
6.000108644815
11
1420.960651022953
21
-484.516150519992
31
6.000108674611
0
LINE
8
2
10
1420.960651022953
20
-484.516150519992
30
6.000108674611
11
1421.199029149261
21
-484.205490050465
31
6.000108715923
0
LINE
8
2
10
1421.199029149261
20
-484.205490050465
30
6.000108715923
11
1421.34887989181
21
-483.843718280716
31
6.000108765936
0
LINE
8
2
10
1421.34887989181
20
-483.843718280716
30
6.000108765936
11
1421.399991170135
21
-483.455489359
31
6.000108821241
0
LINE
8
2
10
1421.399991170135
20
-483.455489359
30
6.000108821241
11
1421.348879835083
21
-483.067260444751
31
6.00010887807
0
LINE
8
2
10
1421.348879835083
20
-483.067260444751
30
6.00010887807
11
1421.199029039675
21
-482.705488696898
31
6.000108932549
0
LINE
8
2
10
1421.199029039675
20
-482.705488696898
30
6.000108932549
11
1420.960650867976
21
-482.3948282622
31
6.000108980965
0
LINE
8
2
10
1420.960650867976
20
-482.3948282622
30
6.000108980965
11
1420.649990398448
21
-482.156450135892
31
6.000109020021
0
LINE
8
2
10
1420.649990398448
20
-482.156450135892
30
6.000109020021
11
1420.288218628699
21
-482.006599393343
31
6.000109047053
0
LINE
8
2
10
1420.288218628699
20
-482.006599393343
30
6.000109047053
11
1419.899989706983
21
-481.955488115018
31
6.00010906022
0
LINE
8
2
10
1419.899989926153
20
-699.310202022151
30
6.000108626969
11
1420.288218840402
21
-699.2590906871
31
6.000108628565
0
LINE
8
2
10
1420.288218840402
20
-699.2590906871
30
6.000108628565
11
1420.649990588256
21
-699.109239891692
31
6.000108644815
0
LINE
8
2
10
1420.649990588256
20
-699.109239891692
30
6.000108644815
11
1420.960651022953
21
-698.870861719992
31
6.000108674611
0
LINE
8
2
10
1420.960651022953
20
-698.870861719992
30
6.000108674611
11
1421.199029149261
21
-698.560201250464
31
6.000108715923
0
LINE
8
2
10
1421.199029149261
20
-698.560201250464
30
6.000108715923
11
1421.34887989181
21
-698.198429480716
31
6.000108765936
0
LINE
8
2
10
1421.34887989181
20
-698.198429480716
30
6.000108765936
11
1421.399991170135
21
-697.810200558999
31
6.000108821241
0
LINE
8
2
10
1421.399991170135
20
-697.810200558999
30
6.000108821241
11
1421.348879835083
21
-697.42197164475
31
6.00010887807
0
LINE
8
2
10
1421.348879835083
20
-697.42197164475
30
6.00010887807
11
1421.199029039675
21
-697.060199896897
31
6.000108932549
0
LINE
8
2
10
1421.199029039675
20
-697.060199896897
30
6.000108932549
11
1420.960650867976
21
-696.7495394622
31
6.000108980965
0
LINE
8
2
10
1420.960650867976
20
-696.7495394622
30
6.000108980965
11
1420.649990398448
21
-696.511161335892
31
6.000109020021
0
LINE
8
2
10
1420.649990398448
20
-696.511161335892
30
6.000109020021
11
1420.288218628699
21
-696.361310593343
31
6.000109047053
0
LINE
8
2
10
1420.288218628699
20
-696.361310593343
30
6.000109047053
11
1419.899989706983
21
-696.310199315017
31
6.00010906022
0
LINE
8
2
10
1359.899990125613
20
-691.654681005561
30
6.00010952108
11
1359.511761203896
21
-691.603569727236
31
6.00010952915
0
LINE
8
2
10
1359.511761203896
20
-691.603569727236
30
6.00010952915
11
1359.149989434148
21
-691.453718984687
31
6.00010954124
0
LINE
8
2
10
1359.149989434148
20
-691.453718984687
30
6.00010954124
11
1358.83932896462
21
-691.215340858379
31
6.000109556526
0
LINE
8
2
10
1358.83932896462
20
-691.215340858379
30
6.000109556526
11
1358.60095079292
21
-690.904680423682
31
6.000109573965
0
LINE
8
2
10
1358.60095079292
20
-690.904680423682
30
6.000109573965
11
1358.451099997511
21
-690.542908675828
31
6.00010959237
0
LINE
8
2
10
1358.451099997511
20
-690.542908675828
30
6.00010959237
11
1358.399988662461
21
-690.15467976158
31
6.000109610486
0
LINE
8
2
10
1358.399988662461
20
-690.15467976158
30
6.000109610486
11
1358.451099940786
21
-689.766450839863
31
6.000109627079
0
LINE
8
2
10
1358.451099940786
20
-689.766450839863
30
6.000109627079
11
1358.600950683335
21
-689.404679070115
31
6.000109641018
0
LINE
8
2
10
1358.600950683335
20
-689.404679070115
30
6.000109641018
11
1358.839328809643
21
-689.094018600587
31
6.000109651353
0
LINE
8
2
10
1358.839328809643
20
-689.094018600587
30
6.000109651353
11
1359.14998924434
21
-688.855640428887
31
6.00010965738
0
LINE
8
2
10
1359.14998924434
20
-688.855640428887
30
6.00010965738
11
1359.511760992193
21
-688.705789633479
31
6.000109658687
0
LINE
8
2
10
1359.511760992193
20
-688.705789633479
30
6.000109658687
11
1359.899989906442
21
-688.654678298428
31
6.000109655186
0
LINE
8
2
10
1419.899989926153
20
-691.654676622151
30
6.000108626969
11
1420.288218840402
21
-691.6035652871
31
6.000108628565
0
LINE
8
2
10
1420.288218840402
20
-691.6035652871
30
6.000108628565
11
1420.649990588256
21
-691.453714491692
31
6.000108644815
0
LINE
8
2
10
1420.649990588256
20
-691.453714491692
30
6.000108644815
11
1420.960651022953
21
-691.215336319992
31
6.000108674611
0
LINE
8
2
10
1420.960651022953
20
-691.215336319992
30
6.000108674611
11
1421.199029149261
21
-690.904675850464
31
6.000108715923
0
LINE
8
2
10
1421.199029149261
20
-690.904675850464
30
6.000108715923
11
1421.34887989181
21
-690.542904080716
31
6.000108765936
0
LINE
8
2
10
1421.34887989181
20
-690.542904080716
30
6.000108765936
11
1421.399991170135
21
-690.154675158999
31
6.000108821241
0
LINE
8
2
10
1421.399991170135
20
-690.154675158999
30
6.000108821241
11
1421.348879835083
21
-689.76644624475
31
6.00010887807
0
LINE
8
2
10
1421.348879835083
20
-689.76644624475
30
6.00010887807
11
1421.199029039675
21
-689.404674496897
31
6.000108932549
0
LINE
8
2
10
1421.199029039675
20
-689.404674496897
30
6.000108932549
11
1420.960650867976
21
-689.0940140622
31
6.000108980965
0
LINE
8
2
10
1420.960650867976
20
-689.0940140622
30
6.000108980965
11
1420.649990398448
21
-688.855635935892
31
6.000109020021
0
LINE
8
2
10
1420.649990398448
20
-688.855635935892
30
6.000109020021
11
1420.288218628699
21
-688.705785193343
31
6.000109047053
0
LINE
8
2
10
1420.288218628699
20
-688.705785193343
30
6.000109047053
11
1419.899989706983
21
-688.654673915017
31
6.00010906022
0
LINE
8
2
10
1359.899990125613
20
-683.999155605561
30
6.00010952108
11
1359.511761203896
21
-683.948044327236
31
6.00010952915
0
LINE
8
2
10
1359.511761203896
20
-683.948044327236
30
6.00010952915
11
1359.149989434148
21
-683.798193584687
31
6.00010954124
0
LINE
8
2
10
1359.149989434148
20
-683.798193584687
30
6.00010954124
11
1358.83932896462
21
-683.559815458379
31
6.000109556526
0
LINE
8
2
10
1358.83932896462
20
-683.559815458379
30
6.000109556526
11
1358.60095079292
21
-683.249155023682
31
6.000109573965
0
LINE
8
2
10
1358.60095079292
20
-683.249155023682
30
6.000109573965
11
1358.451099997511
21
-682.887383275828
31
6.00010959237
0
LINE
8
2
10
1358.451099997511
20
-682.887383275828
30
6.00010959237
11
1358.399988662461
21
-682.49915436158
31
6.000109610486
0
LINE
8
2
10
1358.399988662461
20
-682.49915436158
30
6.000109610486
11
1358.451099940786
21
-682.110925439863
31
6.000109627079
0
LINE
8
2
10
1358.451099940786
20
-682.110925439863
30
6.000109627079
11
1358.600950683335
21
-681.749153670115
31
6.000109641018
0
LINE
8
2
10
1358.600950683335
20
-681.749153670115
30
6.000109641018
11
1358.839328809643
21
-681.438493200587
31
6.000109651353
0
LINE
8
2
10
1358.839328809643
20
-681.438493200587
30
6.000109651353
11
1359.14998924434
21
-681.200115028887
31
6.00010965738
0
LINE
8
2
10
1359.14998924434
20
-681.200115028887
30
6.00010965738
11
1359.511760992193
21
-681.050264233479
31
6.000109658687
0
LINE
8
2
10
1359.511760992193
20
-681.050264233479
30
6.000109658687
11
1359.899989906442
21
-680.999152898428
31
6.000109655186
0
LINE
8
2
10
1419.899989926153
20
-683.999151222151
30
6.000108626969
11
1420.288218840402
21
-683.9480398871
31
6.000108628565
0
LINE
8
2
10
1420.288218840402
20
-683.9480398871
30
6.000108628565
11
1420.649990588256
21
-683.798189091692
31
6.000108644815
0
LINE
8
2
10
1420.649990588256
20
-683.798189091692
30
6.000108644815
11
1420.960651022953
21
-683.559810919992
31
6.000108674611
0
LINE
8
2
10
1420.960651022953
20
-683.559810919992
30
6.000108674611
11
1421.199029149261
21
-683.249150450464
31
6.000108715923
0
LINE
8
2
10
1421.199029149261
20
-683.249150450464
30
6.000108715923
11
1421.34887989181
21
-682.887378680716
31
6.000108765936
0
LINE
8
2
10
1421.34887989181
20
-682.887378680716
30
6.000108765936
11
1421.399991170135
21
-682.499149758999
31
6.000108821241
0
LINE
8
2
10
1421.399991170135
20
-682.499149758999
30
6.000108821241
11
1421.348879835083
21
-682.11092084475
31
6.00010887807
0
LINE
8
2
10
1421.348879835083
20
-682.11092084475
30
6.00010887807
11
1421.199029039675
21
-681.749149096897
31
6.000108932549
0
LINE
8
2
10
1421.199029039675
20
-681.749149096897
30
6.000108932549
11
1420.960650867976
21
-681.4384886622
31
6.000108980965
0
LINE
8
2
10
1420.960650867976
20
-681.4384886622
30
6.000108980965
11
1420.649990398448
21
-681.200110535892
31
6.000109020021
0
LINE
8
2
10
1420.649990398448
20
-681.200110535892
30
6.000109020021
11
1420.288218628699
21
-681.050259793343
31
6.000109047053
0
LINE
8
2
10
1420.288218628699
20
-681.050259793343
30
6.000109047053
11
1419.899989706983
21
-680.999148515017
31
6.00010906022
0
LINE
8
2
10
1359.899990125613
20
-676.343630205561
30
6.00010952108
11
1359.511761203896
21
-676.292518927236
31
6.00010952915
0
LINE
8
2
10
1359.511761203896
20
-676.292518927236
30
6.00010952915
11
1359.149989434148
21
-676.142668184687
31
6.00010954124
0
LINE
8
2
10
1359.149989434148
20
-676.142668184687
30
6.00010954124
11
1358.83932896462
21
-675.904290058379
31
6.000109556526
0
LINE
8
2
10
1358.83932896462
20
-675.904290058379
30
6.000109556526
11
1358.60095079292
21
-675.593629623682
31
6.000109573965
0
LINE
8
2
10
1358.60095079292
20
-675.593629623682
30
6.000109573965
11
1358.451099997511
21
-675.231857875829
31
6.00010959237
0
LINE
8
2
10
1358.451099997511
20
-675.231857875829
30
6.00010959237
11
1358.399988662461
21
-674.84362896158
31
6.000109610486
0
LINE
8
2
10
1358.399988662461
20
-674.84362896158
30
6.000109610486
11
1358.451099940786
21
-674.455400039863
31
6.000109627079
0
LINE
8
2
10
1358.451099940786
20
-674.455400039863
30
6.000109627079
11
1358.600950683335
21
-674.093628270115
31
6.000109641018
0
LINE
8
2
10
1358.600950683335
20
-674.093628270115
30
6.000109641018
11
1358.839328809643
21
-673.782967800587
31
6.000109651353
0
LINE
8
2
10
1358.839328809643
20
-673.782967800587
30
6.000109651353
11
1359.14998924434
21
-673.544589628887
31
6.00010965738
0
LINE
8
2
10
1359.14998924434
20
-673.544589628887
30
6.00010965738
11
1359.511760992193
21
-673.394738833479
31
6.000109658687
0
LINE
8
2
10
1359.511760992193
20
-673.394738833479
30
6.000109658687
11
1359.899989906442
21
-673.343627498428
31
6.000109655186
0
LINE
8
2
10
1359.899990125613
20
-561.510749205561
30
6.00010952108
11
1359.511761203896
21
-561.459637927236
31
6.00010952915
0
LINE
8
2
10
1359.511761203896
20
-561.459637927236
30
6.00010952915
11
1359.149989434148
21
-561.309787184687
31
6.00010954124
0
LINE
8
2
10
1359.149989434148
20
-561.309787184687
30
6.00010954124
11
1358.83932896462
21
-561.071409058379
31
6.000109556526
0
LINE
8
2
10
1358.83932896462
20
-561.071409058379
30
6.000109556526
11
1358.60095079292
21
-560.760748623682
31
6.000109573965
0
LINE
8
2
10
1358.60095079292
20
-560.760748623682
30
6.000109573965
11
1358.451099997511
21
-560.398976875829
31
6.00010959237
0
LINE
8
2
10
1358.451099997511
20
-560.398976875829
30
6.00010959237
11
1358.399988662461
21
-560.01074796158
31
6.000109610486
0
LINE
8
2
10
1358.399988662461
20
-560.01074796158
30
6.000109610486
11
1358.451099940786
21
-559.622519039863
31
6.000109627079
0
LINE
8
2
10
1358.451099940786
20
-559.622519039863
30
6.000109627079
11
1358.600950683335
21
-559.260747270115
31
6.000109641018
0
LINE
8
2
10
1358.600950683335
20
-559.260747270115
30
6.000109641018
11
1358.839328809643
21
-558.950086800587
31
6.000109651353
0
LINE
8
2
10
1358.839328809643
20
-558.950086800587
30
6.000109651353
11
1359.14998924434
21
-558.711708628888
31
6.00010965738
0
LINE
8
2
10
1359.14998924434
20
-558.711708628888
30
6.00010965738
11
1359.511760992193
21
-558.561857833479
31
6.000109658687
0
LINE
8
2
10
1359.511760992193
20
-558.561857833479
30
6.000109658687
11
1359.899989906442
21
-558.510746498428
31
6.000109655186
0
LINE
8
2
10
1419.899989926153
20
-561.510744822152
30
6.000108626969
11
1420.288218840402
21
-561.459633487101
31
6.000108628565
0
LINE
8
2
10
1420.288218840402
20
-561.459633487101
30
6.000108628565
11
1420.649990588256
21
-561.309782691692
31
6.000108644815
0
LINE
8
2
10
1420.649990588256
20
-561.309782691692
30
6.000108644815
11
1420.960651022953
21
-561.071404519992
31
6.000108674611
0
LINE
8
2
10
1420.960651022953
20
-561.071404519992
30
6.000108674611
11
1421.199029149261
21
-560.760744050464
31
6.000108715923
0
LINE
8
2
10
1421.199029149261
20
-560.760744050464
30
6.000108715923
11
1421.34887989181
21
-560.398972280716
31
6.000108765936
0
LINE
8
2
10
1421.34887989181
20
-560.398972280716
30
6.000108765936
11
1421.399991170135
21
-560.010743358999
31
6.000108821241
0
LINE
8
2
10
1421.399991170135
20
-560.010743358999
30
6.000108821241
11
1421.348879835083
21
-559.622514444751
31
6.00010887807
0
LINE
8
2
10
1421.348879835083
20
-559.622514444751
30
6.00010887807
11
1421.199029039675
21
-559.260742696897
31
6.000108932549
0
LINE
8
2
10
1421.199029039675
20
-559.260742696897
30
6.000108932549
11
1420.960650867976
21
-558.9500822622
31
6.000108980965
0
LINE
8
2
10
1420.960650867976
20
-558.9500822622
30
6.000108980965
11
1420.649990398448
21
-558.711704135892
31
6.000109020021
0
LINE
8
2
10
1420.649990398448
20
-558.711704135892
30
6.000109020021
11
1420.288218628699
21
-558.561853393343
31
6.000109047053
0
LINE
8
2
10
1420.288218628699
20
-558.561853393343
30
6.000109047053
11
1419.899989706983
21
-558.510742115018
31
6.00010906022
0
LINE
8
2
10
1359.899990125613
20
-569.166274605562
30
6.00010952108
11
1359.511761203896
21
-569.115163327236
31
6.00010952915
0
LINE
8
2
10
1359.511761203896
20
-569.115163327236
30
6.00010952915
11
1359.149989434148
21
-568.965312584688
31
6.00010954124
0
LINE
8
2
10
1359.149989434148
20
-568.965312584688
30
6.00010954124
11
1358.83932896462
21
-568.72693445838
31
6.000109556526
0
LINE
8
2
10
1358.83932896462
20
-568.72693445838
30
6.000109556526
11
1358.60095079292
21
-568.416274023682
31
6.000109573965
0
LINE
8
2
10
1358.60095079292
20
-568.416274023682
30
6.000109573965
11
1358.451099997511
21
-568.054502275829
31
6.00010959237
0
LINE
8
2
10
1358.451099997511
20
-568.054502275829
30
6.00010959237
11
1358.399988662461
21
-567.66627336158
31
6.000109610486
0
LINE
8
2
10
1358.399988662461
20
-567.66627336158
30
6.000109610486
11
1358.451099940786
21
-567.278044439864
31
6.000109627079
0
LINE
8
2
10
1358.451099940786
20
-567.278044439864
30
6.000109627079
11
1358.600950683335
21
-566.916272670115
31
6.000109641018
0
LINE
8
2
10
1358.600950683335
20
-566.916272670115
30
6.000109641018
11
1358.839328809643
21
-566.605612200587
31
6.000109651353
0
LINE
8
2
10
1358.839328809643
20
-566.605612200587
30
6.000109651353
11
1359.14998924434
21
-566.367234028888
31
6.00010965738
0
LINE
8
2
10
1359.14998924434
20
-566.367234028888
30
6.00010965738
11
1359.511760992193
21
-566.217383233479
31
6.000109658687
0
LINE
8
2
10
1359.511760992193
20
-566.217383233479
30
6.000109658687
11
1359.899989906442
21
-566.166271898428
31
6.000109655186
0
LINE
8
2
10
1419.899989926153
20
-569.166270222152
30
6.000108626969
11
1420.288218840402
21
-569.115158887101
31
6.000108628565
0
LINE
8
2
10
1420.288218840402
20
-569.115158887101
30
6.000108628565
11
1420.649990588256
21
-568.965308091692
31
6.000108644815
0
LINE
8
2
10
1420.649990588256
20
-568.965308091692
30
6.000108644815
11
1420.960651022953
21
-568.726929919992
31
6.000108674611
0
LINE
8
2
10
1420.960651022953
20
-568.726929919992
30
6.000108674611
11
1421.199029149261
21
-568.416269450465
31
6.000108715923
0
LINE
8
2
10
1421.199029149261
20
-568.416269450465
30
6.000108715923
11
1421.34887989181
21
-568.054497680716
31
6.000108765936
0
LINE
8
2
10
1421.34887989181
20
-568.054497680716
30
6.000108765936
11
1421.399991170135
21
-567.666268759
31
6.000108821241
0
LINE
8
2
10
1421.399991170135
20
-567.666268759
30
6.000108821241
11
1421.348879835083
21
-567.278039844751
31
6.00010887807
0
LINE
8
2
10
1421.348879835083
20
-567.278039844751
30
6.00010887807
11
1421.199029039675
21
-566.916268096898
31
6.000108932549
0
LINE
8
2
10
1421.199029039675
20
-566.916268096898
30
6.000108932549
11
1420.960650867976
21
-566.6056076622
31
6.000108980965
0
LINE
8
2
10
1420.960650867976
20
-566.6056076622
30
6.000108980965
11
1420.649990398448
21
-566.367229535892
31
6.000109020021
0
LINE
8
2
10
1420.649990398448
20
-566.367229535892
30
6.000109020021
11
1420.288218628699
21
-566.217378793343
31
6.000109047053
0
LINE
8
2
10
1420.288218628699
20
-566.217378793343
30
6.000109047053
11
1419.899989706983
21
-566.166267515018
31
6.00010906022
0
LINE
8
2
10
1359.899990125613
20
-592.132850805562
30
6.00010952108
11
1359.511761203896
21
-592.081739527237
31
6.00010952915
0
LINE
8
2
10
1359.511761203896
20
-592.081739527237
30
6.00010952915
11
1359.149989434148
21
-591.931888784688
31
6.00010954124
0
LINE
8
2
10
1359.149989434148
20
-591.931888784688
30
6.00010954124
11
1358.83932896462
21
-591.69351065838
31
6.000109556526
0
LINE
8
2
10
1358.83932896462
20
-591.69351065838
30
6.000109556526
11
1358.60095079292
21
-591.382850223682
31
6.000109573965
0
LINE
8
2
10
1358.60095079292
20
-591.382850223682
30
6.000109573965
11
1358.451099997511
21
-591.021078475829
31
6.00010959237
0
LINE
8
2
10
1358.451099997511
20
-591.021078475829
30
6.00010959237
11
1358.399988662461
21
-590.63284956158
31
6.000109610486
0
LINE
8
2
10
1358.399988662461
20
-590.63284956158
30
6.000109610486
11
1358.451099940786
21
-590.244620639864
31
6.000109627079
0
LINE
8
2
10
1358.451099940786
20
-590.244620639864
30
6.000109627079
11
1358.600950683335
21
-589.882848870115
31
6.000109641018
0
LINE
8
2
10
1358.600950683335
20
-589.882848870115
30
6.000109641018
11
1358.839328809643
21
-589.572188400587
31
6.000109651353
0
LINE
8
2
10
1358.839328809643
20
-589.572188400587
30
6.000109651353
11
1359.14998924434
21
-589.333810228888
31
6.00010965738
0
LINE
8
2
10
1359.14998924434
20
-589.333810228888
30
6.00010965738
11
1359.511760992193
21
-589.183959433479
31
6.000109658687
0
LINE
8
2
10
1359.511760992193
20
-589.183959433479
30
6.000109658687
11
1359.899989906442
21
-589.132848098428
31
6.000109655186
0
LINE
8
2
10
1419.899989926153
20
-592.132846422152
30
6.000108626969
11
1420.288218840402
21
-592.081735087101
31
6.000108628565
0
LINE
8
2
10
1420.288218840402
20
-592.081735087101
30
6.000108628565
11
1420.649990588256
21
-591.931884291692
31
6.000108644815
0
LINE
8
2
10
1420.649990588256
20
-591.931884291692
30
6.000108644815
11
1420.960651022953
21
-591.693506119993
31
6.000108674611
0
LINE
8
2
10
1420.960651022953
20
-591.693506119993
30
6.000108674611
11
1421.199029149261
21
-591.382845650464
31
6.000108715923
0
LINE
8
2
10
1421.199029149261
20
-591.382845650464
30
6.000108715923
11
1421.34887989181
21
-591.021073880716
31
6.000108765936
0
LINE
8
2
10
1421.34887989181
20
-591.021073880716
30
6.000108765936
11
1421.399991170135
21
-590.632844958999
31
6.000108821241
0
LINE
8
2
10
1421.399991170135
20
-590.632844958999
30
6.000108821241
11
1421.348879835083
21
-590.244616044751
31
6.00010887807
0
LINE
8
2
10
1421.348879835083
20
-590.244616044751
30
6.00010887807
11
1421.199029039675
21
-589.882844296897
31
6.000108932549
0
LINE
8
2
10
1421.199029039675
20
-589.882844296897
30
6.000108932549
11
1420.960650867976
21
-589.5721838622
31
6.000108980965
0
LINE
8
2
10
1420.960650867976
20
-589.5721838622
30
6.000108980965
11
1420.649990398448
21
-589.333805735892
31
6.000109020021
0
LINE
8
2
10
1420.649990398448
20
-589.333805735892
30
6.000109020021
11
1420.288218628699
21
-589.183954993343
31
6.000109047053
0
LINE
8
2
10
1420.288218628699
20
-589.183954993343
30
6.000109047053
11
1419.899989706983
21
-589.132843715018
31
6.00010906022
0
LINE
8
2
10
1419.899989926153
20
-630.410473422152
30
6.000108626969
11
1420.288218840402
21
-630.359362087101
31
6.000108628565
0
LINE
8
2
10
1420.288218840402
20
-630.359362087101
30
6.000108628565
11
1420.649990588256
21
-630.209511291692
31
6.000108644815
0
LINE
8
2
10
1420.649990588256
20
-630.209511291692
30
6.000108644815
11
1420.960651022953
21
-629.971133119992
31
6.000108674611
0
LINE
8
2
10
1420.960651022953
20
-629.971133119992
30
6.000108674611
11
1421.199029149261
21
-629.660472650465
31
6.000108715923
0
LINE
8
2
10
1421.199029149261
20
-629.660472650465
30
6.000108715923
11
1421.34887989181
21
-629.298700880716
31
6.000108765936
0
LINE
8
2
10
1421.34887989181
20
-629.298700880716
30
6.000108765936
11
1421.399991170135
21
-628.910471959
31
6.000108821241
0
LINE
8
2
10
1421.399991170135
20
-628.910471959
30
6.000108821241
11
1421.348879835083
21
-628.522243044751
31
6.00010887807
0
LINE
8
2
10
1421.348879835083
20
-628.522243044751
30
6.00010887807
11
1421.199029039675
21
-628.160471296898
31
6.000108932549
0
LINE
8
2
10
1421.199029039675
20
-628.160471296898
30
6.000108932549
11
1420.960650867976
21
-627.8498108622
31
6.000108980965
0
LINE
8
2
10
1420.960650867976
20
-627.8498108622
30
6.000108980965
11
1420.649990398448
21
-627.611432735892
31
6.000109020021
0
LINE
8
2
10
1420.649990398448
20
-627.611432735892
30
6.000109020021
11
1420.288218628699
21
-627.461581993343
31
6.000109047053
0
LINE
8
2
10
1420.288218628699
20
-627.461581993343
30
6.000109047053
11
1419.899989706983
21
-627.410470715018
31
6.00010906022
0
LINE
8
2
10
1359.899990125613
20
-630.410477805562
30
6.00010952108
11
1359.511761203896
21
-630.359366527236
31
6.00010952915
0
LINE
8
2
10
1359.511761203896
20
-630.359366527236
30
6.00010952915
11
1359.149989434148
21
-630.209515784688
31
6.00010954124
0
LINE
8
2
10
1359.149989434148
20
-630.209515784688
30
6.00010954124
11
1358.83932896462
21
-629.97113765838
31
6.000109556526
0
LINE
8
2
10
1358.83932896462
20
-629.97113765838
30
6.000109556526
11
1358.60095079292
21
-629.660477223682
31
6.000109573965
0
LINE
8
2
10
1358.60095079292
20
-629.660477223682
30
6.000109573965
11
1358.451099997511
21
-629.298705475829
31
6.00010959237
0
LINE
8
2
10
1358.451099997511
20
-629.298705475829
30
6.00010959237
11
1358.399988662461
21
-628.91047656158
31
6.000109610486
0
LINE
8
2
10
1358.399988662461
20
-628.91047656158
30
6.000109610486
11
1358.451099940786
21
-628.522247639864
31
6.000109627079
0
LINE
8
2
10
1358.451099940786
20
-628.522247639864
30
6.000109627079
11
1358.600950683335
21
-628.160475870115
31
6.000109641018
0
LINE
8
2
10
1358.600950683335
20
-628.160475870115
30
6.000109641018
11
1358.839328809643
21
-627.849815400587
31
6.000109651353
0
LINE
8
2
10
1358.839328809643
20
-627.849815400587
30
6.000109651353
11
1359.14998924434
21
-627.611437228887
31
6.00010965738
0
LINE
8
2
10
1359.14998924434
20
-627.611437228887
30
6.00010965738
11
1359.511760992193
21
-627.461586433479
31
6.000109658687
0
LINE
8
2
10
1359.511760992193
20
-627.461586433479
30
6.000109658687
11
1359.899989906442
21
-627.410475098428
31
6.000109655186
0
LINE
8
2
10
1359.899990125613
20
-576.821800005562
30
6.00010952108
11
1359.511761203896
21
-576.770688727236
31
6.00010952915
0
LINE
8
2
10
1359.511761203896
20
-576.770688727236
30
6.00010952915
11
1359.149989434148
21
-576.620837984688
31
6.00010954124
0
LINE
8
2
10
1359.149989434148
20
-576.620837984688
30
6.00010954124
11
1358.83932896462
21
-576.38245985838
31
6.000109556526
0
LINE
8
2
10
1358.83932896462
20
-576.38245985838
30
6.000109556526
11
1358.60095079292
21
-576.071799423682
31
6.000109573965
0
LINE
8
2
10
1358.60095079292
20
-576.071799423682
30
6.000109573965
11
1358.451099997511
21
-575.710027675829
31
6.00010959237
0
LINE
8
2
10
1358.451099997511
20
-575.710027675829
30
6.00010959237
11
1358.399988662461
21
-575.32179876158
31
6.000109610486
0
LINE
8
2
10
1358.399988662461
20
-575.32179876158
30
6.000109610486
11
1358.451099940786
21
-574.933569839864
31
6.000109627079
0
LINE
8
2
10
1358.451099940786
20
-574.933569839864
30
6.000109627079
11
1358.600950683335
21
-574.571798070115
31
6.000109641018
0
LINE
8
2
10
1358.600950683335
20
-574.571798070115
30
6.000109641018
11
1358.839328809643
21
-574.261137600587
31
6.000109651353
0
LINE
8
2
10
1358.839328809643
20
-574.261137600587
30
6.000109651353
11
1359.14998924434
21
-574.022759428888
31
6.00010965738
0
LINE
8
2
10
1359.14998924434
20
-574.022759428888
30
6.00010965738
11
1359.511760992193
21
-573.872908633479
31
6.000109658687
0
LINE
8
2
10
1359.511760992193
20
-573.872908633479
30
6.000109658687
11
1359.899989906442
21
-573.821797298428
31
6.000109655186
0
LINE
8
2
10
1419.899989926153
20
-576.821795622152
30
6.000108626969
11
1420.288218840402
21
-576.770684287101
31
6.000108628565
0
LINE
8
2
10
1420.288218840402
20
-576.770684287101
30
6.000108628565
11
1420.649990588256
21
-576.620833491692
31
6.000108644815
0
LINE
8
2
10
1420.649990588256
20
-576.620833491692
30
6.000108644815
11
1420.960651022953
21
-576.382455319992
31
6.000108674611
0
LINE
8
2
10
1420.960651022953
20
-576.382455319992
30
6.000108674611
11
1421.199029149261
21
-576.071794850465
31
6.000108715923
0
LINE
8
2
10
1421.199029149261
20
-576.071794850465
30
6.000108715923
11
1421.34887989181
21
-575.710023080716
31
6.000108765936
0
LINE
8
2
10
1421.34887989181
20
-575.710023080716
30
6.000108765936
11
1421.399991170135
21
-575.321794159
31
6.000108821241
0
LINE
8
2
10
1421.399991170135
20
-575.321794159
30
6.000108821241
11
1421.348879835083
21
-574.933565244751
31
6.00010887807
0
LINE
8
2
10
1421.348879835083
20
-574.933565244751
30
6.00010887807
11
1421.199029039675
21
-574.571793496898
31
6.000108932549
0
LINE
8
2
10
1421.199029039675
20
-574.571793496898
30
6.000108932549
11
1420.960650867976
21
-574.2611330622
31
6.000108980965
0
LINE
8
2
10
1420.960650867976
20
-574.2611330622
30
6.000108980965
11
1420.649990398448
21
-574.022754935892
31
6.000109020021
0
LINE
8
2
10
1420.649990398448
20
-574.022754935892
30
6.000109020021
11
1420.288218628699
21
-573.872904193343
31
6.000109047053
0
LINE
8
2
10
1420.288218628699
20
-573.872904193343
30
6.000109047053
11
1419.899989706983
21
-573.821792915018
31
6.00010906022
0
LINE
8
2
10
1359.899990125613
20
-615.099427005561
30
6.00010952108
11
1359.511761203896
21
-615.048315727237
31
6.00010952915
0
LINE
8
2
10
1359.511761203896
20
-615.048315727237
30
6.00010952915
11
1359.149989434148
21
-614.898464984688
31
6.00010954124
0
LINE
8
2
10
1359.149989434148
20
-614.898464984688
30
6.00010954124
11
1358.83932896462
21
-614.660086858379
31
6.000109556526
0
LINE
8
2
10
1358.83932896462
20
-614.660086858379
30
6.000109556526
11
1358.60095079292
21
-614.349426423682
31
6.000109573965
0
LINE
8
2
10
1358.60095079292
20
-614.349426423682
30
6.000109573965
11
1358.451099997511
21
-613.987654675829
31
6.00010959237
0
LINE
8
2
10
1358.451099997511
20
-613.987654675829
30
6.00010959237
11
1358.399988662461
21
-613.59942576158
31
6.000109610486
0
LINE
8
2
10
1358.399988662461
20
-613.59942576158
30
6.000109610486
11
1358.451099940786
21
-613.211196839864
31
6.000109627079
0
LINE
8
2
10
1358.451099940786
20
-613.211196839864
30
6.000109627079
11
1358.600950683335
21
-612.849425070115
31
6.000109641018
0
LINE
8
2
10
1358.600950683335
20
-612.849425070115
30
6.000109641018
11
1358.839328809643
21
-612.538764600587
31
6.000109651353
0
LINE
8
2
10
1358.839328809643
20
-612.538764600587
30
6.000109651353
11
1359.14998924434
21
-612.300386428888
31
6.00010965738
0
LINE
8
2
10
1359.14998924434
20
-612.300386428888
30
6.00010965738
11
1359.511760992193
21
-612.150535633479
31
6.000109658687
0
LINE
8
2
10
1359.511760992193
20
-612.150535633479
30
6.000109658687
11
1359.899989906442
21
-612.099424298428
31
6.000109655186
0
LINE
8
2
10
1419.899989926153
20
-615.099422622152
30
6.000108626969
11
1420.288218840402
21
-615.048311287101
31
6.000108628565
0
LINE
8
2
10
1420.288218840402
20
-615.048311287101
30
6.000108628565
11
1420.649990588256
21
-614.898460491692
31
6.000108644815
0
LINE
8
2
10
1420.649990588256
20
-614.898460491692
30
6.000108644815
11
1420.960651022953
21
-614.660082319992
31
6.000108674611
0
LINE
8
2
10
1420.960651022953
20
-614.660082319992
30
6.000108674611
11
1421.199029149261
21
-614.349421850464
31
6.000108715923
0
LINE
8
2
10
1421.199029149261
20
-614.349421850464
30
6.000108715923
11
1421.34887989181
21
-613.987650080716
31
6.000108765936
0
LINE
8
2
10
1421.34887989181
20
-613.987650080716
30
6.000108765936
11
1421.399991170135
21
-613.599421158999
31
6.000108821241
0
LINE
8
2
10
1421.399991170135
20
-613.599421158999
30
6.000108821241
11
1421.348879835083
21
-613.211192244751
31
6.00010887807
0
LINE
8
2
10
1421.348879835083
20
-613.211192244751
30
6.00010887807
11
1421.199029039675
21
-612.849420496897
31
6.000108932549
0
LINE
8
2
10
1421.199029039675
20
-612.849420496897
30
6.000108932549
11
1420.960650867976
21
-612.5387600622
31
6.000108980965
0
LINE
8
2
10
1420.960650867976
20
-612.5387600622
30
6.000108980965
11
1420.649990398448
21
-612.300381935892
31
6.000109020021
0
LINE
8
2
10
1420.649990398448
20
-612.300381935892
30
6.000109020021
11
1420.288218628699
21
-612.150531193343
31
6.000109047053
0
LINE
8
2
10
1420.288218628699
20
-612.150531193343
30
6.000109047053
11
1419.899989706983
21
-612.099419915018
31
6.00010906022
0
LINE
8
2
10
1359.899990125613
20
-622.754952405562
30
6.00010952108
11
1359.511761203896
21
-622.703841127237
31
6.00010952915
0
LINE
8
2
10
1359.511761203896
20
-622.703841127237
30
6.00010952915
11
1359.149989434148
21
-622.553990384688
31
6.00010954124
0
LINE
8
2
10
1359.149989434148
20
-622.553990384688
30
6.00010954124
11
1358.83932896462
21
-622.31561225838
31
6.000109556526
0
LINE
8
2
10
1358.83932896462
20
-622.31561225838
30
6.000109556526
11
1358.60095079292
21
-622.004951823682
31
6.000109573965
0
LINE
8
2
10
1358.60095079292
20
-622.004951823682
30
6.000109573965
11
1358.451099997511
21
-621.643180075829
31
6.00010959237
0
LINE
8
2
10
1358.451099997511
20
-621.643180075829
30
6.00010959237
11
1358.399988662461
21
-621.25495116158
31
6.000109610486
0
LINE
8
2
10
1358.399988662461
20
-621.25495116158
30
6.000109610486
11
1358.451099940786
21
-620.866722239864
31
6.000109627079
0
LINE
8
2
10
1358.451099940786
20
-620.866722239864
30
6.000109627079
11
1358.600950683335
21
-620.504950470115
31
6.000109641018
0
LINE
8
2
10
1358.600950683335
20
-620.504950470115
30
6.000109641018
11
1358.839328809643
21
-620.194290000587
31
6.000109651353
0
LINE
8
2
10
1358.839328809643
20
-620.194290000587
30
6.000109651353
11
1359.14998924434
21
-619.955911828888
31
6.00010965738
0
LINE
8
2
10
1359.14998924434
20
-619.955911828888
30
6.00010965738
11
1359.511760992193
21
-619.806061033479
31
6.000109658687
0
LINE
8
2
10
1359.511760992193
20
-619.806061033479
30
6.000109658687
11
1359.899989906442
21
-619.754949698428
31
6.000109655186
0
LINE
8
2
10
1419.899989926153
20
-599.788371822152
30
6.000108626969
11
1420.288218840402
21
-599.737260487101
31
6.000108628565
0
LINE
8
2
10
1420.288218840402
20
-599.737260487101
30
6.000108628565
11
1420.649990588256
21
-599.587409691692
31
6.000108644815
0
LINE
8
2
10
1420.649990588256
20
-599.587409691692
30
6.000108644815
11
1420.960651022953
21
-599.349031519993
31
6.000108674611
0
LINE
8
2
10
1420.960651022953
20
-599.349031519993
30
6.000108674611
11
1421.199029149261
21
-599.038371050465
31
6.000108715923
0
LINE
8
2
10
1421.199029149261
20
-599.038371050465
30
6.000108715923
11
1421.34887989181
21
-598.676599280716
31
6.000108765936
0
LINE
8
2
10
1421.34887989181
20
-598.676599280716
30
6.000108765936
11
1421.399991170135
21
-598.288370358999
31
6.000108821241
0
LINE
8
2
10
1421.399991170135
20
-598.288370358999
30
6.000108821241
11
1421.348879835083
21
-597.900141444751
31
6.00010887807
0
LINE
8
2
10
1421.348879835083
20
-597.900141444751
30
6.00010887807
11
1421.199029039675
21
-597.538369696898
31
6.000108932549
0
LINE
8
2
10
1421.199029039675
20
-597.538369696898
30
6.000108932549
11
1420.960650867976
21
-597.2277092622
31
6.000108980965
0
LINE
8
2
10
1420.960650867976
20
-597.2277092622
30
6.000108980965
11
1420.649990398448
21
-596.989331135892
31
6.000109020021
0
LINE
8
2
10
1420.649990398448
20
-596.989331135892
30
6.000109020021
11
1420.288218628699
21
-596.839480393343
31
6.000109047053
0
LINE
8
2
10
1420.288218628699
20
-596.839480393343
30
6.000109047053
11
1419.899989706983
21
-596.788369115018
31
6.00010906022
0
LINE
8
2
10
1359.899990125613
20
-599.788376205562
30
6.00010952108
11
1359.511761203896
21
-599.737264927237
31
6.00010952915
0
LINE
8
2
10
1359.511761203896
20
-599.737264927237
30
6.00010952915
11
1359.149989434148
21
-599.587414184688
31
6.00010954124
0
LINE
8
2
10
1359.149989434148
20
-599.587414184688
30
6.00010954124
11
1358.83932896462
21
-599.34903605838
31
6.000109556526
0
LINE
8
2
10
1358.83932896462
20
-599.34903605838
30
6.000109556526
11
1358.60095079292
21
-599.038375623682
31
6.000109573965
0
LINE
8
2
10
1358.60095079292
20
-599.038375623682
30
6.000109573965
11
1358.451099997511
21
-598.676603875829
31
6.00010959237
0
LINE
8
2
10
1358.451099997511
20
-598.676603875829
30
6.00010959237
11
1358.399988662461
21
-598.28837496158
31
6.000109610486
0
LINE
8
2
10
1358.399988662461
20
-598.28837496158
30
6.000109610486
11
1358.451099940786
21
-597.900146039864
31
6.000109627079
0
LINE
8
2
10
1358.451099940786
20
-597.900146039864
30
6.000109627079
11
1358.600950683335
21
-597.538374270115
31
6.000109641018
0
LINE
8
2
10
1358.600950683335
20
-597.538374270115
30
6.000109641018
11
1358.839328809643
21
-597.227713800587
31
6.000109651353
0
LINE
8
2
10
1358.839328809643
20
-597.227713800587
30
6.000109651353
11
1359.14998924434
21
-596.989335628888
31
6.00010965738
0
LINE
8
2
10
1359.14998924434
20
-596.989335628888
30
6.00010965738
11
1359.511760992193
21
-596.839484833479
31
6.000109658687
0
LINE
8
2
10
1359.511760992193
20
-596.839484833479
30
6.000109658687
11
1359.899989906442
21
-596.788373498428
31
6.000109655186
0
LINE
8
2
10
1419.899989926153
20
-622.754948022152
30
6.000108626969
11
1420.288218840402
21
-622.703836687101
31
6.000108628565
0
LINE
8
2
10
1420.288218840402
20
-622.703836687101
30
6.000108628565
11
1420.649990588256
21
-622.553985891692
31
6.000108644815
0
LINE
8
2
10
1420.649990588256
20
-622.553985891692
30
6.000108644815
11
1420.960651022953
21
-622.315607719992
31
6.000108674611
0
LINE
8
2
10
1420.960651022953
20
-622.315607719992
30
6.000108674611
11
1421.199029149261
21
-622.004947250465
31
6.000108715923
0
LINE
8
2
10
1421.199029149261
20
-622.004947250465
30
6.000108715923
11
1421.34887989181
21
-621.643175480716
31
6.000108765936
0
LINE
8
2
10
1421.34887989181
20
-621.643175480716
30
6.000108765936
11
1421.399991170135
21
-621.254946559
31
6.000108821241
0
LINE
8
2
10
1421.399991170135
20
-621.254946559
30
6.000108821241
11
1421.348879835083
21
-620.866717644751
31
6.00010887807
0
LINE
8
2
10
1421.348879835083
20
-620.866717644751
30
6.00010887807
11
1421.199029039675
21
-620.504945896898
31
6.000108932549
0
LINE
8
2
10
1421.199029039675
20
-620.504945896898
30
6.000108932549
11
1420.960650867976
21
-620.1942854622
31
6.000108980965
0
LINE
8
2
10
1420.960650867976
20
-620.1942854622
30
6.000108980965
11
1420.649990398448
21
-619.955907335892
31
6.000109020021
0
LINE
8
2
10
1420.649990398448
20
-619.955907335892
30
6.000109020021
11
1420.288218628699
21
-619.806056593343
31
6.000109047053
0
LINE
8
2
10
1420.288218628699
20
-619.806056593343
30
6.000109047053
11
1419.899989706983
21
-619.754945315018
31
6.00010906022
0
LINE
8
2
10
1359.899990125613
20
-607.443901605562
30
6.00010952108
11
1359.511761203896
21
-607.392790327237
31
6.00010952915
0
LINE
8
2
10
1359.511761203896
20
-607.392790327237
30
6.00010952915
11
1359.149989434148
21
-607.242939584688
31
6.00010954124
0
LINE
8
2
10
1359.149989434148
20
-607.242939584688
30
6.00010954124
11
1358.83932896462
21
-607.00456145838
31
6.000109556526
0
LINE
8
2
10
1358.83932896462
20
-607.00456145838
30
6.000109556526
11
1358.60095079292
21
-606.693901023682
31
6.000109573965
0
LINE
8
2
10
1358.60095079292
20
-606.693901023682
30
6.000109573965
11
1358.451099997511
21
-606.332129275829
31
6.00010959237
0
LINE
8
2
10
1358.451099997511
20
-606.332129275829
30
6.00010959237
11
1358.399988662461
21
-605.94390036158
31
6.000109610486
0
LINE
8
2
10
1358.399988662461
20
-605.94390036158
30
6.000109610486
11
1358.451099940786
21
-605.555671439864
31
6.000109627079
0
LINE
8
2
10
1358.451099940786
20
-605.555671439864
30
6.000109627079
11
1358.600950683335
21
-605.193899670115
31
6.000109641018
0
LINE
8
2
10
1358.600950683335
20
-605.193899670115
30
6.000109641018
11
1358.839328809643
21
-604.883239200587
31
6.000109651353
0
LINE
8
2
10
1358.839328809643
20
-604.883239200587
30
6.000109651353
11
1359.14998924434
21
-604.644861028888
31
6.00010965738
0
LINE
8
2
10
1359.14998924434
20
-604.644861028888
30
6.00010965738
11
1359.511760992193
21
-604.495010233479
31
6.000109658687
0
LINE
8
2
10
1359.511760992193
20
-604.495010233479
30
6.000109658687
11
1359.899989906442
21
-604.443898898428
31
6.000109655186
0
LINE
8
2
10
1419.899989926153
20
-607.443897222152
30
6.000108626969
11
1420.288218840402
21
-607.392785887101
31
6.000108628565
0
LINE
8
2
10
1420.288218840402
20
-607.392785887101
30
6.000108628565
11
1420.649990588256
21
-607.242935091692
31
6.000108644815
0
LINE
8
2
10
1420.649990588256
20
-607.242935091692
30
6.000108644815
11
1420.960651022953
21
-607.004556919993
31
6.000108674611
0
LINE
8
2
10
1420.960651022953
20
-607.004556919993
30
6.000108674611
11
1421.199029149261
21
-606.693896450464
31
6.000108715923
0
LINE
8
2
10
1421.199029149261
20
-606.693896450464
30
6.000108715923
11
1421.34887989181
21
-606.332124680716
31
6.000108765936
0
LINE
8
2
10
1421.34887989181
20
-606.332124680716
30
6.000108765936
11
1421.399991170135
21
-605.943895758999
31
6.000108821241
0
LINE
8
2
10
1421.399991170135
20
-605.943895758999
30
6.000108821241
11
1421.348879835083
21
-605.555666844751
31
6.00010887807
0
LINE
8
2
10
1421.348879835083
20
-605.555666844751
30
6.00010887807
11
1421.199029039675
21
-605.193895096897
31
6.000108932549
0
LINE
8
2
10
1421.199029039675
20
-605.193895096897
30
6.000108932549
11
1420.960650867976
21
-604.8832346622
31
6.000108980965
0
LINE
8
2
10
1420.960650867976
20
-604.8832346622
30
6.000108980965
11
1420.649990398448
21
-604.644856535892
31
6.000109020021
0
LINE
8
2
10
1420.649990398448
20
-604.644856535892
30
6.000109020021
11
1420.288218628699
21
-604.495005793343
31
6.000109047053
0
LINE
8
2
10
1420.288218628699
20
-604.495005793343
30
6.000109047053
11
1419.899989706983
21
-604.443894515018
31
6.00010906022
0
LINE
8
2
10
1419.899989926153
20
-523.233117822152
30
6.000108626969
11
1420.288218840402
21
-523.182006487101
31
6.000108628565
0
LINE
8
2
10
1420.288218840402
20
-523.182006487101
30
6.000108628565
11
1420.649990588256
21
-523.032155691692
31
6.000108644815
0
LINE
8
2
10
1420.649990588256
20
-523.032155691692
30
6.000108644815
11
1420.960651022953
21
-522.793777519992
31
6.000108674611
0
LINE
8
2
10
1420.960651022953
20
-522.793777519992
30
6.000108674611
11
1421.199029149261
21
-522.483117050465
31
6.000108715923
0
LINE
8
2
10
1421.199029149261
20
-522.483117050465
30
6.000108715923
11
1421.34887989181
21
-522.121345280716
31
6.000108765936
0
LINE
8
2
10
1421.34887989181
20
-522.121345280716
30
6.000108765936
11
1421.399991170135
21
-521.733116359
31
6.000108821241
0
LINE
8
2
10
1421.399991170135
20
-521.733116359
30
6.000108821241
11
1421.348879835083
21
-521.344887444751
31
6.00010887807
0
LINE
8
2
10
1421.348879835083
20
-521.344887444751
30
6.00010887807
11
1421.199029039675
21
-520.983115696898
31
6.000108932549
0
LINE
8
2
10
1421.199029039675
20
-520.983115696898
30
6.000108932549
11
1420.960650867976
21
-520.6724552622
31
6.000108980965
0
LINE
8
2
10
1420.960650867976
20
-520.6724552622
30
6.000108980965
11
1420.649990398448
21
-520.434077135892
31
6.000109020021
0
LINE
8
2
10
1420.649990398448
20
-520.434077135892
30
6.000109020021
11
1420.288218628699
21
-520.284226393343
31
6.000109047053
0
LINE
8
2
10
1420.288218628699
20
-520.284226393343
30
6.000109047053
11
1419.899989706983
21
-520.233115115018
31
6.00010906022
0
LINE
8
2
10
1359.899990125613
20
-523.233122205562
30
6.00010952108
11
1359.511761203896
21
-523.182010927236
31
6.00010952915
0
LINE
8
2
10
1359.511761203896
20
-523.182010927236
30
6.00010952915
11
1359.149989434148
21
-523.032160184688
31
6.00010954124
0
LINE
8
2
10
1359.149989434148
20
-523.032160184688
30
6.00010954124
11
1358.83932896462
21
-522.79378205838
31
6.000109556526
0
LINE
8
2
10
1358.83932896462
20
-522.79378205838
30
6.000109556526
11
1358.60095079292
21
-522.483121623682
31
6.000109573965
0
LINE
8
2
10
1358.60095079292
20
-522.483121623682
30
6.000109573965
11
1358.451099997511
21
-522.121349875829
31
6.00010959237
0
LINE
8
2
10
1358.451099997511
20
-522.121349875829
30
6.00010959237
11
1358.399988662461
21
-521.73312096158
31
6.000109610486
0
LINE
8
2
10
1358.399988662461
20
-521.73312096158
30
6.000109610486
11
1358.451099940786
21
-521.344892039864
31
6.000109627079
0
LINE
8
2
10
1358.451099940786
20
-521.344892039864
30
6.000109627079
11
1358.600950683335
21
-520.983120270115
31
6.000109641018
0
LINE
8
2
10
1358.600950683335
20
-520.983120270115
30
6.000109641018
11
1358.839328809643
21
-520.672459800587
31
6.000109651353
0
LINE
8
2
10
1358.839328809643
20
-520.672459800587
30
6.000109651353
11
1359.14998924434
21
-520.434081628888
31
6.00010965738
0
LINE
8
2
10
1359.14998924434
20
-520.434081628888
30
6.00010965738
11
1359.511760992193
21
-520.284230833479
31
6.000109658687
0
LINE
8
2
10
1359.511760992193
20
-520.284230833479
30
6.000109658687
11
1359.899989906442
21
-520.233119498428
31
6.000109655186
0
LINE
8
2
10
1359.899990125613
20
-530.888647605562
30
6.00010952108
11
1359.511761203896
21
-530.837536327236
31
6.00010952915
0
LINE
8
2
10
1359.511761203896
20
-530.837536327236
30
6.00010952915
11
1359.149989434148
21
-530.687685584688
31
6.00010954124
0
LINE
8
2
10
1359.149989434148
20
-530.687685584688
30
6.00010954124
11
1358.83932896462
21
-530.44930745838
31
6.000109556526
0
LINE
8
2
10
1358.83932896462
20
-530.44930745838
30
6.000109556526
11
1358.60095079292
21
-530.138647023682
31
6.000109573965
0
LINE
8
2
10
1358.60095079292
20
-530.138647023682
30
6.000109573965
11
1358.451099997511
21
-529.776875275829
31
6.00010959237
0
LINE
8
2
10
1358.451099997511
20
-529.776875275829
30
6.00010959237
11
1358.399988662461
21
-529.38864636158
31
6.000109610486
0
LINE
8
2
10
1358.399988662461
20
-529.38864636158
30
6.000109610486
11
1358.451099940786
21
-529.000417439864
31
6.000109627079
0
LINE
8
2
10
1358.451099940786
20
-529.000417439864
30
6.000109627079
11
1358.600950683335
21
-528.638645670115
31
6.000109641018
0
LINE
8
2
10
1358.600950683335
20
-528.638645670115
30
6.000109641018
11
1358.839328809643
21
-528.327985200587
31
6.000109651353
0
LINE
8
2
10
1358.839328809643
20
-528.327985200587
30
6.000109651353
11
1359.14998924434
21
-528.089607028887
31
6.00010965738
0
LINE
8
2
10
1359.14998924434
20
-528.089607028887
30
6.00010965738
11
1359.511760992193
21
-527.939756233479
31
6.000109658687
0
LINE
8
2
10
1359.511760992193
20
-527.939756233479
30
6.000109658687
11
1359.899989906442
21
-527.888644898428
31
6.000109655186
0
LINE
8
2
10
1419.899989926153
20
-530.888643222152
30
6.000108626969
11
1420.288218840402
21
-530.837531887101
31
6.000108628565
0
LINE
8
2
10
1420.288218840402
20
-530.837531887101
30
6.000108628565
11
1420.649990588256
21
-530.687681091692
31
6.000108644815
0
LINE
8
2
10
1420.649990588256
20
-530.687681091692
30
6.000108644815
11
1420.960651022953
21
-530.449302919992
31
6.000108674611
0
LINE
8
2
10
1420.960651022953
20
-530.449302919992
30
6.000108674611
11
1421.199029149261
21
-530.138642450465
31
6.000108715923
0
LINE
8
2
10
1421.199029149261
20
-530.138642450465
30
6.000108715923
11
1421.34887989181
21
-529.776870680716
31
6.000108765936
0
LINE
8
2
10
1421.34887989181
20
-529.776870680716
30
6.000108765936
11
1421.399991170135
21
-529.388641759
31
6.000108821241
0
LINE
8
2
10
1421.399991170135
20
-529.388641759
30
6.000108821241
11
1421.348879835083
21
-529.000412844751
31
6.00010887807
0
LINE
8
2
10
1421.348879835083
20
-529.000412844751
30
6.00010887807
11
1421.199029039675
21
-528.638641096898
31
6.000108932549
0
LINE
8
2
10
1421.199029039675
20
-528.638641096898
30
6.000108932549
11
1420.960650867976
21
-528.3279806622
31
6.000108980965
0
LINE
8
2
10
1420.960650867976
20
-528.3279806622
30
6.000108980965
11
1420.649990398448
21
-528.089602535892
31
6.000109020021
0
LINE
8
2
10
1420.649990398448
20
-528.089602535892
30
6.000109020021
11
1420.288218628699
21
-527.939751793343
31
6.000109047053
0
LINE
8
2
10
1420.288218628699
20
-527.939751793343
30
6.000109047053
11
1419.899989706983
21
-527.888640515018
31
6.00010906022
0
LINE
8
2
10
1419.899989926153
20
-538.544168622152
30
6.000108626969
11
1420.288218840402
21
-538.493057287101
31
6.000108628565
0
LINE
8
2
10
1420.288218840402
20
-538.493057287101
30
6.000108628565
11
1420.649990588256
21
-538.343206491692
31
6.000108644815
0
LINE
8
2
10
1420.649990588256
20
-538.343206491692
30
6.000108644815
11
1420.960651022953
21
-538.104828319992
31
6.000108674611
0
LINE
8
2
10
1420.960651022953
20
-538.104828319992
30
6.000108674611
11
1421.199029149261
21
-537.794167850465
31
6.000108715923
0
LINE
8
2
10
1421.199029149261
20
-537.794167850465
30
6.000108715923
11
1421.34887989181
21
-537.432396080716
31
6.000108765936
0
LINE
8
2
10
1421.34887989181
20
-537.432396080716
30
6.000108765936
11
1421.399991170135
21
-537.044167159
31
6.000108821241
0
LINE
8
2
10
1421.399991170135
20
-537.044167159
30
6.000108821241
11
1421.348879835083
21
-536.655938244751
31
6.00010887807
0
LINE
8
2
10
1421.348879835083
20
-536.655938244751
30
6.00010887807
11
1421.199029039675
21
-536.294166496898
31
6.000108932549
0
LINE
8
2
10
1421.199029039675
20
-536.294166496898
30
6.000108932549
11
1420.960650867976
21
-535.9835060622
31
6.000108980965
0
LINE
8
2
10
1420.960650867976
20
-535.9835060622
30
6.000108980965
11
1420.649990398448
21
-535.745127935892
31
6.000109020021
0
LINE
8
2
10
1420.649990398448
20
-535.745127935892
30
6.000109020021
11
1420.288218628699
21
-535.595277193343
31
6.000109047053
0
LINE
8
2
10
1420.288218628699
20
-535.595277193343
30
6.000109047053
11
1419.899989706983
21
-535.544165915018
31
6.00010906022
0
LINE
8
2
10
1359.899990125613
20
-538.544173005562
30
6.00010952108
11
1359.511761203896
21
-538.493061727236
31
6.00010952915
0
LINE
8
2
10
1359.511761203896
20
-538.493061727236
30
6.00010952915
11
1359.149989434148
21
-538.343210984688
31
6.00010954124
0
LINE
8
2
10
1359.149989434148
20
-538.343210984688
30
6.00010954124
11
1358.83932896462
21
-538.10483285838
31
6.000109556526
0
LINE
8
2
10
1358.83932896462
20
-538.10483285838
30
6.000109556526
11
1358.60095079292
21
-537.794172423682
31
6.000109573965
0
LINE
8
2
10
1358.60095079292
20
-537.794172423682
30
6.000109573965
11
1358.451099997511
21
-537.432400675829
31
6.00010959237
0
LINE
8
2
10
1358.451099997511
20
-537.432400675829
30
6.00010959237
11
1358.399988662461
21
-537.04417176158
31
6.000109610486
0
LINE
8
2
10
1358.399988662461
20
-537.04417176158
30
6.000109610486
11
1358.451099940786
21
-536.655942839864
31
6.000109627079
0
LINE
8
2
10
1358.451099940786
20
-536.655942839864
30
6.000109627079
11
1358.600950683335
21
-536.294171070115
31
6.000109641018
0
LINE
8
2
10
1358.600950683335
20
-536.294171070115
30
6.000109641018
11
1358.839328809643
21
-535.983510600587
31
6.000109651353
0
LINE
8
2
10
1358.839328809643
20
-535.983510600587
30
6.000109651353
11
1359.14998924434
21
-535.745132428887
31
6.00010965738
0
LINE
8
2
10
1359.14998924434
20
-535.745132428887
30
6.00010965738
11
1359.511760992193
21
-535.595281633479
31
6.000109658687
0
LINE
8
2
10
1359.511760992193
20
-535.595281633479
30
6.000109658687
11
1359.899989906442
21
-535.544170298428
31
6.000109655186
0
LINE
8
2
10
1419.899989926153
20
-500.266541622152
30
6.000108626969
11
1420.288218840402
21
-500.215430287101
31
6.000108628565
0
LINE
8
2
10
1420.288218840402
20
-500.215430287101
30
6.000108628565
11
1420.649990588256
21
-500.065579491692
31
6.000108644815
0
LINE
8
2
10
1420.649990588256
20
-500.065579491692
30
6.000108644815
11
1420.960651022953
21
-499.827201319992
31
6.000108674611
0
LINE
8
2
10
1420.960651022953
20
-499.827201319992
30
6.000108674611
11
1421.199029149261
21
-499.516540850464
31
6.000108715923
0
LINE
8
2
10
1421.199029149261
20
-499.516540850464
30
6.000108715923
11
1421.34887989181
21
-499.154769080716
31
6.000108765936
0
LINE
8
2
10
1421.34887989181
20
-499.154769080716
30
6.000108765936
11
1421.399991170135
21
-498.766540158999
31
6.000108821241
0
LINE
8
2
10
1421.399991170135
20
-498.766540158999
30
6.000108821241
11
1421.348879835083
21
-498.378311244751
31
6.00010887807
0
LINE
8
2
10
1421.348879835083
20
-498.378311244751
30
6.00010887807
11
1421.199029039675
21
-498.016539496898
31
6.000108932549
0
LINE
8
2
10
1421.199029039675
20
-498.016539496898
30
6.000108932549
11
1420.960650867976
21
-497.7058790622
31
6.000108980965
0
LINE
8
2
10
1420.960650867976
20
-497.7058790622
30
6.000108980965
11
1420.649990398448
21
-497.467500935892
31
6.000109020021
0
LINE
8
2
10
1420.649990398448
20
-497.467500935892
30
6.000109020021
11
1420.288218628699
21
-497.317650193343
31
6.000109047053
0
LINE
8
2
10
1420.288218628699
20
-497.317650193343
30
6.000109047053
11
1419.899989706983
21
-497.266538915018
31
6.00010906022
0
LINE
8
2
10
1359.899990125613
20
-500.266546005562
30
6.00010952108
11
1359.511761203896
21
-500.215434727237
31
6.00010952915
0
LINE
8
2
10
1359.511761203896
20
-500.215434727237
30
6.00010952915
11
1359.149989434148
21
-500.065583984688
31
6.00010954124
0
LINE
8
2
10
1359.149989434148
20
-500.065583984688
30
6.00010954124
11
1358.83932896462
21
-499.82720585838
31
6.000109556526
0
LINE
8
2
10
1358.83932896462
20
-499.82720585838
30
6.000109556526
11
1358.60095079292
21
-499.516545423682
31
6.000109573965
0
LINE
8
2
10
1358.60095079292
20
-499.516545423682
30
6.000109573965
11
1358.451099997511
21
-499.154773675829
31
6.00010959237
0
LINE
8
2
10
1358.451099997511
20
-499.154773675829
30
6.00010959237
11
1358.399988662461
21
-498.76654476158
31
6.000109610486
0
LINE
8
2
10
1358.399988662461
20
-498.76654476158
30
6.000109610486
11
1358.451099940786
21
-498.378315839864
31
6.000109627079
0
LINE
8
2
10
1358.451099940786
20
-498.378315839864
30
6.000109627079
11
1358.600950683335
21
-498.016544070115
31
6.000109641018
0
LINE
8
2
10
1358.600950683335
20
-498.016544070115
30
6.000109641018
11
1358.839328809643
21
-497.705883600587
31
6.000109651353
0
LINE
8
2
10
1358.839328809643
20
-497.705883600587
30
6.000109651353
11
1359.14998924434
21
-497.467505428888
31
6.00010965738
0
LINE
8
2
10
1359.14998924434
20
-497.467505428888
30
6.00010965738
11
1359.511760992193
21
-497.317654633479
31
6.000109658687
0
LINE
8
2
10
1359.511760992193
20
-497.317654633479
30
6.000109658687
11
1359.899989906442
21
-497.266543298428
31
6.000109655186
0
LINE
8
2
10
1359.899990125613
20
-507.922071405561
30
6.00010952108
11
1359.511761203896
21
-507.870960127237
31
6.00010952915
0
LINE
8
2
10
1359.511761203896
20
-507.870960127237
30
6.00010952915
11
1359.149989434148
21
-507.721109384688
31
6.00010954124
0
LINE
8
2
10
1359.149989434148
20
-507.721109384688
30
6.00010954124
11
1358.83932896462
21
-507.482731258379
31
6.000109556526
0
LINE
8
2
10
1358.83932896462
20
-507.482731258379
30
6.000109556526
11
1358.60095079292
21
-507.172070823682
31
6.000109573965
0
LINE
8
2
10
1358.60095079292
20
-507.172070823682
30
6.000109573965
11
1358.451099997511
21
-506.810299075829
31
6.00010959237
0
LINE
8
2
10
1358.451099997511
20
-506.810299075829
30
6.00010959237
11
1358.399988662461
21
-506.42207016158
31
6.000109610486
0
LINE
8
2
10
1358.399988662461
20
-506.42207016158
30
6.000109610486
11
1358.451099940786
21
-506.033841239864
31
6.000109627079
0
LINE
8
2
10
1358.451099940786
20
-506.033841239864
30
6.000109627079
11
1358.600950683335
21
-505.672069470115
31
6.000109641018
0
LINE
8
2
10
1358.600950683335
20
-505.672069470115
30
6.000109641018
11
1358.839328809643
21
-505.361409000587
31
6.000109651353
0
LINE
8
2
10
1358.839328809643
20
-505.361409000587
30
6.000109651353
11
1359.14998924434
21
-505.123030828888
31
6.00010965738
0
LINE
8
2
10
1359.14998924434
20
-505.123030828888
30
6.00010965738
11
1359.511760992193
21
-504.973180033479
31
6.000109658687
0
LINE
8
2
10
1359.511760992193
20
-504.973180033479
30
6.000109658687
11
1359.899989906442
21
-504.922068698428
31
6.000109655186
0
LINE
8
2
10
1419.899989926153
20
-507.922067022152
30
6.000108626969
11
1420.288218840402
21
-507.870955687101
31
6.000108628565
0
LINE
8
2
10
1420.288218840402
20
-507.870955687101
30
6.000108628565
11
1420.649990588256
21
-507.721104891692
31
6.000108644815
0
LINE
8
2
10
1420.649990588256
20
-507.721104891692
30
6.000108644815
11
1420.960651022953
21
-507.482726719992
31
6.000108674611
0
LINE
8
2
10
1420.960651022953
20
-507.482726719992
30
6.000108674611
11
1421.199029149261
21
-507.172066250464
31
6.000108715923
0
LINE
8
2
10
1421.199029149261
20
-507.172066250464
30
6.000108715923
11
1421.34887989181
21
-506.810294480716
31
6.000108765936
0
LINE
8
2
10
1421.34887989181
20
-506.810294480716
30
6.000108765936
11
1421.399991170135
21
-506.422065558999
31
6.000108821241
0
LINE
8
2
10
1421.399991170135
20
-506.422065558999
30
6.000108821241
11
1421.348879835083
21
-506.033836644751
31
6.00010887807
0
LINE
8
2
10
1421.348879835083
20
-506.033836644751
30
6.00010887807
11
1421.199029039675
21
-505.672064896897
31
6.000108932549
0
LINE
8
2
10
1421.199029039675
20
-505.672064896897
30
6.000108932549
11
1420.960650867976
21
-505.3614044622
31
6.000108980965
0
LINE
8
2
10
1420.960650867976
20
-505.3614044622
30
6.000108980965
11
1420.649990398448
21
-505.123026335892
31
6.000109020021
0
LINE
8
2
10
1420.649990398448
20
-505.123026335892
30
6.000109020021
11
1420.288218628699
21
-504.973175593343
31
6.000109047053
0
LINE
8
2
10
1420.288218628699
20
-504.973175593343
30
6.000109047053
11
1419.899989706983
21
-504.922064315018
31
6.00010906022
0
LINE
8
2
10
1419.899989926153
20
-515.577592422152
30
6.000108626969
11
1420.288218840402
21
-515.526481087101
31
6.000108628565
0
LINE
8
2
10
1420.288218840402
20
-515.526481087101
30
6.000108628565
11
1420.649990588256
21
-515.376630291692
31
6.000108644815
0
LINE
8
2
10
1420.649990588256
20
-515.376630291692
30
6.000108644815
11
1420.960651022953
21
-515.138252119992
31
6.000108674611
0
LINE
8
2
10
1420.960651022953
20
-515.138252119992
30
6.000108674611
11
1421.199029149261
21
-514.827591650464
31
6.000108715923
0
LINE
8
2
10
1421.199029149261
20
-514.827591650464
30
6.000108715923
11
1421.34887989181
21
-514.465819880716
31
6.000108765936
0
LINE
8
2
10
1421.34887989181
20
-514.465819880716
30
6.000108765936
11
1421.399991170135
21
-514.077590958999
31
6.000108821241
0
LINE
8
2
10
1421.399991170135
20
-514.077590958999
30
6.000108821241
11
1421.348879835083
21
-513.689362044751
31
6.00010887807
0
LINE
8
2
10
1421.348879835083
20
-513.689362044751
30
6.00010887807
11
1421.199029039675
21
-513.327590296897
31
6.000108932549
0
LINE
8
2
10
1421.199029039675
20
-513.327590296897
30
6.000108932549
11
1420.960650867976
21
-513.0169298622
31
6.000108980965
0
LINE
8
2
10
1420.960650867976
20
-513.0169298622
30
6.000108980965
11
1420.649990398448
21
-512.778551735892
31
6.000109020021
0
LINE
8
2
10
1420.649990398448
20
-512.778551735892
30
6.000109020021
11
1420.288218628699
21
-512.628700993343
31
6.000109047053
0
LINE
8
2
10
1420.288218628699
20
-512.628700993343
30
6.000109047053
11
1419.899989706983
21
-512.577589715018
31
6.00010906022
0
LINE
8
2
10
1359.899990125613
20
-515.577596805561
30
6.00010952108
11
1359.511761203896
21
-515.526485527236
31
6.00010952915
0
LINE
8
2
10
1359.511761203896
20
-515.526485527236
30
6.00010952915
11
1359.149989434148
21
-515.376634784687
31
6.00010954124
0
LINE
8
2
10
1359.149989434148
20
-515.376634784687
30
6.00010954124
11
1358.83932896462
21
-515.138256658379
31
6.000109556526
0
LINE
8
2
10
1358.83932896462
20
-515.138256658379
30
6.000109556526
11
1358.60095079292
21
-514.827596223682
31
6.000109573965
0
LINE
8
2
10
1358.60095079292
20
-514.827596223682
30
6.000109573965
11
1358.451099997511
21
-514.465824475829
31
6.00010959237
0
LINE
8
2
10
1358.451099997511
20
-514.465824475829
30
6.00010959237
11
1358.399988662461
21
-514.07759556158
31
6.000109610486
0
LINE
8
2
10
1358.399988662461
20
-514.07759556158
30
6.000109610486
11
1358.451099940786
21
-513.689366639863
31
6.000109627079
0
LINE
8
2
10
1358.451099940786
20
-513.689366639863
30
6.000109627079
11
1358.600950683335
21
-513.327594870115
31
6.000109641018
0
LINE
8
2
10
1358.600950683335
20
-513.327594870115
30
6.000109641018
11
1358.839328809643
21
-513.016934400587
31
6.000109651353
0
LINE
8
2
10
1358.839328809643
20
-513.016934400587
30
6.000109651353
11
1359.14998924434
21
-512.778556228888
31
6.00010965738
0
LINE
8
2
10
1359.14998924434
20
-512.778556228888
30
6.00010965738
11
1359.511760992193
21
-512.628705433479
31
6.000109658687
0
LINE
8
2
10
1359.511760992193
20
-512.628705433479
30
6.000109658687
11
1359.899989906442
21
-512.577594098428
31
6.000109655186
0
LINE
8
2
10
1419.899989926153
20
-676.343625822151
30
6.000108626969
11
1420.288218840402
21
-676.2925144871
31
6.000108628565
0
LINE
8
2
10
1420.288218840402
20
-676.2925144871
30
6.000108628565
11
1420.649990588256
21
-676.142663691692
31
6.000108644815
0
LINE
8
2
10
1420.649990588256
20
-676.142663691692
30
6.000108644815
11
1420.960651022953
21
-675.904285519992
31
6.000108674611
0
LINE
8
2
10
1420.960651022953
20
-675.904285519992
30
6.000108674611
11
1421.199029149261
21
-675.593625050464
31
6.000108715923
0
LINE
8
2
10
1421.199029149261
20
-675.593625050464
30
6.000108715923
11
1421.34887989181
21
-675.231853280716
31
6.000108765936
0
LINE
8
2
10
1421.34887989181
20
-675.231853280716
30
6.000108765936
11
1421.399991170135
21
-674.843624358999
31
6.000108821241
0
LINE
8
2
10
1421.399991170135
20
-674.843624358999
30
6.000108821241
11
1421.348879835083
21
-674.45539544475
31
6.00010887807
0
LINE
8
2
10
1421.348879835083
20
-674.45539544475
30
6.00010887807
11
1421.199029039675
21
-674.093623696897
31
6.000108932549
0
LINE
8
2
10
1421.199029039675
20
-674.093623696897
30
6.000108932549
11
1420.960650867976
21
-673.7829632622
31
6.000108980965
0
LINE
8
2
10
1420.960650867976
20
-673.7829632622
30
6.000108980965
11
1420.649990398448
21
-673.544585135891
31
6.000109020021
0
LINE
8
2
10
1420.649990398448
20
-673.544585135891
30
6.000109020021
11
1420.288218628699
21
-673.394734393342
31
6.000109047053
0
LINE
8
2
10
1420.288218628699
20
-673.394734393342
30
6.000109047053
11
1419.899989706983
21
-673.343623115018
31
6.00010906022
0
LINE
8
2
10
1359.899990125613
20
-484.955495205562
30
6.00010952108
11
1359.511761203896
21
-484.904383927236
31
6.00010952915
0
LINE
8
2
10
1359.511761203896
20
-484.904383927236
30
6.00010952915
11
1359.149989434148
21
-484.754533184688
31
6.00010954124
0
LINE
8
2
10
1359.149989434148
20
-484.754533184688
30
6.00010954124
11
1358.83932896462
21
-484.51615505838
31
6.000109556526
0
LINE
8
2
10
1358.83932896462
20
-484.51615505838
30
6.000109556526
11
1358.60095079292
21
-484.205494623682
31
6.000109573965
0
LINE
8
2
10
1358.60095079292
20
-484.205494623682
30
6.000109573965
11
1358.451099997511
21
-483.843722875829
31
6.00010959237
0
LINE
8
2
10
1358.451099997511
20
-483.843722875829
30
6.00010959237
11
1358.399988662461
21
-483.45549396158
31
6.000109610486
0
LINE
8
2
10
1358.399988662461
20
-483.45549396158
30
6.000109610486
11
1358.451099940786
21
-483.067265039864
31
6.000109627079
0
LINE
8
2
10
1358.451099940786
20
-483.067265039864
30
6.000109627079
11
1358.600950683335
21
-482.705493270115
31
6.000109641018
0
LINE
8
2
10
1358.600950683335
20
-482.705493270115
30
6.000109641018
11
1358.839328809643
21
-482.394832800587
31
6.000109651353
0
LINE
8
2
10
1358.839328809643
20
-482.394832800587
30
6.000109651353
11
1359.14998924434
21
-482.156454628888
31
6.00010965738
0
LINE
8
2
10
1359.14998924434
20
-482.156454628888
30
6.00010965738
11
1359.511760992193
21
-482.006603833479
31
6.000109658687
0
LINE
8
2
10
1359.511760992193
20
-482.006603833479
30
6.000109658687
11
1359.899989906442
21
-481.955492498428
31
6.000109655186
0
LINE
8
2
10
1359.899990125613
20
-492.611020605562
30
6.00010952108
11
1359.511761203896
21
-492.559909327237
31
6.00010952915
0
LINE
8
2
10
1359.511761203896
20
-492.559909327237
30
6.00010952915
11
1359.149989434148
21
-492.410058584688
31
6.00010954124
0
LINE
8
2
10
1359.149989434148
20
-492.410058584688
30
6.00010954124
11
1358.83932896462
21
-492.17168045838
31
6.000109556526
0
LINE
8
2
10
1358.83932896462
20
-492.17168045838
30
6.000109556526
11
1358.60095079292
21
-491.861020023682
31
6.000109573965
0
LINE
8
2
10
1358.60095079292
20
-491.861020023682
30
6.000109573965
11
1358.451099997511
21
-491.499248275829
31
6.00010959237
0
LINE
8
2
10
1358.451099997511
20
-491.499248275829
30
6.00010959237
11
1358.399988662461
21
-491.11101936158
31
6.000109610486
0
LINE
8
2
10
1358.399988662461
20
-491.11101936158
30
6.000109610486
11
1358.451099940786
21
-490.722790439864
31
6.000109627079
0
LINE
8
2
10
1358.451099940786
20
-490.722790439864
30
6.000109627079
11
1358.600950683335
21
-490.361018670115
31
6.000109641018
0
LINE
8
2
10
1358.600950683335
20
-490.361018670115
30
6.000109641018
11
1358.839328809643
21
-490.050358200587
31
6.000109651353
0
LINE
8
2
10
1358.839328809643
20
-490.050358200587
30
6.000109651353
11
1359.14998924434
21
-489.811980028888
31
6.00010965738
0
LINE
8
2
10
1359.14998924434
20
-489.811980028888
30
6.00010965738
11
1359.511760992193
21
-489.662129233479
31
6.000109658687
0
LINE
8
2
10
1359.511760992193
20
-489.662129233479
30
6.000109658687
11
1359.899989906442
21
-489.611017898428
31
6.000109655186
0
LINE
8
2
10
1419.899989926153
20
-492.611016222152
30
6.000108626969
11
1420.288218840402
21
-492.559904887101
31
6.000108628565
0
LINE
8
2
10
1420.288218840402
20
-492.559904887101
30
6.000108628565
11
1420.649990588256
21
-492.410054091692
31
6.000108644815
0
LINE
8
2
10
1420.649990588256
20
-492.410054091692
30
6.000108644815
11
1420.960651022953
21
-492.171675919993
31
6.000108674611
0
LINE
8
2
10
1420.960651022953
20
-492.171675919993
30
6.000108674611
11
1421.199029149261
21
-491.861015450465
31
6.000108715923
0
LINE
8
2
10
1421.199029149261
20
-491.861015450465
30
6.000108715923
11
1421.34887989181
21
-491.499243680716
31
6.000108765936
0
LINE
8
2
10
1421.34887989181
20
-491.499243680716
30
6.000108765936
11
1421.399991170135
21
-491.111014759
31
6.000108821241
0
LINE
8
2
10
1421.399991170135
20
-491.111014759
30
6.000108821241
11
1421.348879835083
21
-490.722785844751
31
6.00010887807
0
LINE
8
2
10
1421.348879835083
20
-490.722785844751
30
6.00010887807
11
1421.199029039675
21
-490.361014096898
31
6.000108932549
0
LINE
8
2
10
1421.199029039675
20
-490.361014096898
30
6.000108932549
11
1420.960650867976
21
-490.0503536622
31
6.000108980965
0
LINE
8
2
10
1420.960650867976
20
-490.0503536622
30
6.000108980965
11
1420.649990398448
21
-489.811975535892
31
6.000109020021
0
LINE
8
2
10
1420.649990398448
20
-489.811975535892
30
6.000109020021
11
1420.288218628699
21
-489.662124793343
31
6.000109047053
0
LINE
8
2
10
1420.288218628699
20
-489.662124793343
30
6.000109047053
11
1419.899989706983
21
-489.611013515018
31
6.00010906022
0
LINE
8
2
10
1419.899989926153
20
-584.477321022152
30
6.000108626969
11
1420.288218840402
21
-584.426209687101
31
6.000108628565
0
LINE
8
2
10
1420.288218840402
20
-584.426209687101
30
6.000108628565
11
1420.649990588256
21
-584.276358891692
31
6.000108644815
0
LINE
8
2
10
1420.649990588256
20
-584.276358891692
30
6.000108644815
11
1420.960651022953
21
-584.037980719992
31
6.000108674611
0
LINE
8
2
10
1420.960651022953
20
-584.037980719992
30
6.000108674611
11
1421.199029149261
21
-583.727320250465
31
6.000108715923
0
LINE
8
2
10
1421.199029149261
20
-583.727320250465
30
6.000108715923
11
1421.34887989181
21
-583.365548480716
31
6.000108765936
0
LINE
8
2
10
1421.34887989181
20
-583.365548480716
30
6.000108765936
11
1421.399991170135
21
-582.977319559
31
6.000108821241
0
LINE
8
2
10
1421.399991170135
20
-582.977319559
30
6.000108821241
11
1421.348879835083
21
-582.589090644751
31
6.00010887807
0
LINE
8
2
10
1421.348879835083
20
-582.589090644751
30
6.00010887807
11
1421.199029039675
21
-582.227318896898
31
6.000108932549
0
LINE
8
2
10
1421.199029039675
20
-582.227318896898
30
6.000108932549
11
1420.960650867976
21
-581.9166584622
31
6.000108980965
0
LINE
8
2
10
1420.960650867976
20
-581.9166584622
30
6.000108980965
11
1420.649990398448
21
-581.678280335892
31
6.000109020021
0
LINE
8
2
10
1420.649990398448
20
-581.678280335892
30
6.000109020021
11
1420.288218628699
21
-581.528429593343
31
6.000109047053
0
LINE
8
2
10
1420.288218628699
20
-581.528429593343
30
6.000109047053
11
1419.899989706983
21
-581.477318315018
31
6.00010906022
0
LINE
8
2
10
1359.899990125613
20
-584.477325405562
30
6.00010952108
11
1359.511761203896
21
-584.426214127236
31
6.00010952915
0
LINE
8
2
10
1359.511761203896
20
-584.426214127236
30
6.00010952915
11
1359.149989434148
21
-584.276363384688
31
6.00010954124
0
LINE
8
2
10
1359.149989434148
20
-584.276363384688
30
6.00010954124
11
1358.83932896462
21
-584.03798525838
31
6.000109556526
0
LINE
8
2
10
1358.83932896462
20
-584.03798525838
30
6.000109556526
11
1358.60095079292
21
-583.727324823682
31
6.000109573965
0
LINE
8
2
10
1358.60095079292
20
-583.727324823682
30
6.000109573965
11
1358.451099997511
21
-583.365553075829
31
6.00010959237
0
LINE
8
2
10
1358.451099997511
20
-583.365553075829
30
6.00010959237
11
1358.399988662461
21
-582.97732416158
31
6.000109610486
0
LINE
8
2
10
1358.399988662461
20
-582.97732416158
30
6.000109610486
11
1358.451099940786
21
-582.589095239864
31
6.000109627079
0
LINE
8
2
10
1358.451099940786
20
-582.589095239864
30
6.000109627079
11
1358.600950683335
21
-582.227323470115
31
6.000109641018
0
LINE
8
2
10
1358.600950683335
20
-582.227323470115
30
6.000109641018
11
1358.839328809643
21
-581.916663000587
31
6.000109651353
0
LINE
8
2
10
1358.839328809643
20
-581.916663000587
30
6.000109651353
11
1359.14998924434
21
-581.678284828888
31
6.00010965738
0
LINE
8
2
10
1359.14998924434
20
-581.678284828888
30
6.00010965738
11
1359.511760992193
21
-581.528434033479
31
6.000109658687
0
LINE
8
2
10
1359.511760992193
20
-581.528434033479
30
6.000109658687
11
1359.899989906442
21
-581.477322698428
31
6.000109655186
0
LINE
8
2
10
1419.899989926153
20
-638.065998822152
30
6.000108626969
11
1420.288218840402
21
-638.014887487101
31
6.000108628565
0
LINE
8
2
10
1420.288218840402
20
-638.014887487101
30
6.000108628565
11
1420.649990588256
21
-637.865036691692
31
6.000108644815
0
LINE
8
2
10
1420.649990588256
20
-637.865036691692
30
6.000108644815
11
1420.960651022953
21
-637.626658519992
31
6.000108674611
0
LINE
8
2
10
1420.960651022953
20
-637.626658519992
30
6.000108674611
11
1421.199029149261
21
-637.315998050464
31
6.000108715923
0
LINE
8
2
10
1421.199029149261
20
-637.315998050464
30
6.000108715923
11
1421.34887989181
21
-636.954226280716
31
6.000108765936
0
LINE
8
2
10
1421.34887989181
20
-636.954226280716
30
6.000108765936
11
1421.399991170135
21
-636.565997359
31
6.000108821241
0
LINE
8
2
10
1421.399991170135
20
-636.565997359
30
6.000108821241
11
1421.348879835083
21
-636.177768444751
31
6.00010887807
0
LINE
8
2
10
1421.348879835083
20
-636.177768444751
30
6.00010887807
11
1421.199029039675
21
-635.815996696898
31
6.000108932549
0
LINE
8
2
10
1421.199029039675
20
-635.815996696898
30
6.000108932549
11
1420.960650867976
21
-635.5053362622
31
6.000108980965
0
LINE
8
2
10
1420.960650867976
20
-635.5053362622
30
6.000108980965
11
1420.649990398448
21
-635.266958135892
31
6.000109020021
0
LINE
8
2
10
1420.649990398448
20
-635.266958135892
30
6.000109020021
11
1420.288218628699
21
-635.117107393343
31
6.000109047053
0
LINE
8
2
10
1420.288218628699
20
-635.117107393343
30
6.000109047053
11
1419.899989706983
21
-635.065996115018
31
6.00010906022
0
LINE
8
2
10
1419.899989926153
20
-668.688100422152
30
6.000108626969
11
1420.288218840402
21
-668.636989087101
31
6.000108628565
0
LINE
8
2
10
1420.288218840402
20
-668.636989087101
30
6.000108628565
11
1420.649990588256
21
-668.487138291692
31
6.000108644815
0
LINE
8
2
10
1420.649990588256
20
-668.487138291692
30
6.000108644815
11
1420.960651022953
21
-668.248760119992
31
6.000108674611
0
LINE
8
2
10
1420.960651022953
20
-668.248760119992
30
6.000108674611
11
1421.199029149261
21
-667.938099650464
31
6.000108715923
0
LINE
8
2
10
1421.199029149261
20
-667.938099650464
30
6.000108715923
11
1421.34887989181
21
-667.576327880716
31
6.000108765936
0
LINE
8
2
10
1421.34887989181
20
-667.576327880716
30
6.000108765936
11
1421.399991170135
21
-667.188098958999
31
6.000108821241
0
LINE
8
2
10
1421.399991170135
20
-667.188098958999
30
6.000108821241
11
1421.348879835083
21
-666.799870044751
31
6.00010887807
0
LINE
8
2
10
1421.348879835083
20
-666.799870044751
30
6.00010887807
11
1421.199029039675
21
-666.438098296897
31
6.000108932549
0
LINE
8
2
10
1421.199029039675
20
-666.438098296897
30
6.000108932549
11
1420.960650867976
21
-666.1274378622
31
6.000108980965
0
LINE
8
2
10
1420.960650867976
20
-666.1274378622
30
6.000108980965
11
1420.649990398448
21
-665.889059735892
31
6.000109020021
0
LINE
8
2
10
1420.649990398448
20
-665.889059735892
30
6.000109020021
11
1420.288218628699
21
-665.739208993343
31
6.000109047053
0
LINE
8
2
10
1420.288218628699
20
-665.739208993343
30
6.000109047053
11
1419.899989706983
21
-665.688097715018
31
6.00010906022
0
LINE
8
2
10
1359.899990125613
20
-668.688104805561
30
6.00010952108
11
1359.511761203896
21
-668.636993527236
31
6.00010952915
0
LINE
8
2
10
1359.511761203896
20
-668.636993527236
30
6.00010952915
11
1359.149989434148
21
-668.487142784687
31
6.00010954124
0
LINE
8
2
10
1359.149989434148
20
-668.487142784687
30
6.00010954124
11
1358.83932896462
21
-668.248764658379
31
6.000109556526
0
LINE
8
2
10
1358.83932896462
20
-668.248764658379
30
6.000109556526
11
1358.60095079292
21
-667.938104223682
31
6.000109573965
0
LINE
8
2
10
1358.60095079292
20
-667.938104223682
30
6.000109573965
11
1358.451099997511
21
-667.576332475829
31
6.00010959237
0
LINE
8
2
10
1358.451099997511
20
-667.576332475829
30
6.00010959237
11
1358.399988662461
21
-667.18810356158
31
6.000109610486
0
LINE
8
2
10
1358.399988662461
20
-667.18810356158
30
6.000109610486
11
1358.451099940786
21
-666.799874639863
31
6.000109627079
0
LINE
8
2
10
1358.451099940786
20
-666.799874639863
30
6.000109627079
11
1358.600950683335
21
-666.438102870115
31
6.000109641018
0
LINE
8
2
10
1358.600950683335
20
-666.438102870115
30
6.000109641018
11
1358.839328809643
21
-666.127442400587
31
6.000109651353
0
LINE
8
2
10
1358.839328809643
20
-666.127442400587
30
6.000109651353
11
1359.14998924434
21
-665.889064228887
31
6.00010965738
0
LINE
8
2
10
1359.14998924434
20
-665.889064228887
30
6.00010965738
11
1359.511760992193
21
-665.739213433479
31
6.000109658687
0
LINE
8
2
10
1359.511760992193
20
-665.739213433479
30
6.000109658687
11
1359.899989906442
21
-665.688102098428
31
6.000109655186
0
LINE
8
2
10
1359.899990125613
20
-638.066003205562
30
6.00010952108
11
1359.511761203896
21
-638.014891927236
31
6.00010952915
0
LINE
8
2
10
1359.511761203896
20
-638.014891927236
30
6.00010952915
11
1359.149989434148
21
-637.865041184688
31
6.00010954124
0
LINE
8
2
10
1359.149989434148
20
-637.865041184688
30
6.00010954124
11
1358.83932896462
21
-637.62666305838
31
6.000109556526
0
LINE
8
2
10
1358.83932896462
20
-637.62666305838
30
6.000109556526
11
1358.60095079292
21
-637.316002623682
31
6.000109573965
0
LINE
8
2
10
1358.60095079292
20
-637.316002623682
30
6.000109573965
11
1358.451099997511
21
-636.954230875829
31
6.00010959237
0
LINE
8
2
10
1358.451099997511
20
-636.954230875829
30
6.00010959237
11
1358.399988662461
21
-636.56600196158
31
6.000109610486
0
LINE
8
2
10
1358.399988662461
20
-636.56600196158
30
6.000109610486
11
1358.451099940786
21
-636.177773039864
31
6.000109627079
0
LINE
8
2
10
1358.451099940786
20
-636.177773039864
30
6.000109627079
11
1358.600950683335
21
-635.816001270115
31
6.000109641018
0
LINE
8
2
10
1358.600950683335
20
-635.816001270115
30
6.000109641018
11
1358.839328809643
21
-635.505340800587
31
6.000109651353
0
LINE
8
2
10
1358.839328809643
20
-635.505340800587
30
6.000109651353
11
1359.14998924434
21
-635.266962628887
31
6.00010965738
0
LINE
8
2
10
1359.14998924434
20
-635.266962628887
30
6.00010965738
11
1359.511760992193
21
-635.117111833479
31
6.000109658687
0
LINE
8
2
10
1359.511760992193
20
-635.117111833479
30
6.000109658687
11
1359.899989906442
21
-635.066000498428
31
6.000109655186
0
LINE
8
2
10
1419.899989926153
20
-645.721524222152
30
6.000108626969
11
1420.288218840402
21
-645.6704128871
31
6.000108628565
0
LINE
8
2
10
1420.288218840402
20
-645.6704128871
30
6.000108628565
11
1420.649990588256
21
-645.520562091692
31
6.000108644815
0
LINE
8
2
10
1420.649990588256
20
-645.520562091692
30
6.000108644815
11
1420.960651022953
21
-645.282183919992
31
6.000108674611
0
LINE
8
2
10
1420.960651022953
20
-645.282183919992
30
6.000108674611
11
1421.199029149261
21
-644.971523450464
31
6.000108715923
0
LINE
8
2
10
1421.199029149261
20
-644.971523450464
30
6.000108715923
11
1421.34887989181
21
-644.609751680716
31
6.000108765936
0
LINE
8
2
10
1421.34887989181
20
-644.609751680716
30
6.000108765936
11
1421.399991170135
21
-644.221522758999
31
6.000108821241
0
LINE
8
2
10
1421.399991170135
20
-644.221522758999
30
6.000108821241
11
1421.348879835083
21
-643.83329384475
31
6.00010887807
0
LINE
8
2
10
1421.348879835083
20
-643.83329384475
30
6.00010887807
11
1421.199029039675
21
-643.471522096898
31
6.000108932549
0
LINE
8
2
10
1421.199029039675
20
-643.471522096898
30
6.000108932549
11
1420.960650867976
21
-643.1608616622
31
6.000108980965
0
LINE
8
2
10
1420.960650867976
20
-643.1608616622
30
6.000108980965
11
1420.649990398448
21
-642.922483535892
31
6.000109020021
0
LINE
8
2
10
1420.649990398448
20
-642.922483535892
30
6.000109020021
11
1420.288218628699
21
-642.772632793343
31
6.000109047053
0
LINE
8
2
10
1420.288218628699
20
-642.772632793343
30
6.000109047053
11
1419.899989706983
21
-642.721521515018
31
6.00010906022
0
LINE
8
2
10
1359.899990125613
20
-645.721528605562
30
6.00010952108
11
1359.511761203896
21
-645.670417327236
31
6.00010952915
0
LINE
8
2
10
1359.511761203896
20
-645.670417327236
30
6.00010952915
11
1359.149989434148
21
-645.520566584688
31
6.00010954124
0
LINE
8
2
10
1359.149989434148
20
-645.520566584688
30
6.00010954124
11
1358.83932896462
21
-645.28218845838
31
6.000109556526
0
LINE
8
2
10
1358.83932896462
20
-645.28218845838
30
6.000109556526
11
1358.60095079292
21
-644.971528023682
31
6.000109573965
0
LINE
8
2
10
1358.60095079292
20
-644.971528023682
30
6.000109573965
11
1358.451099997511
21
-644.609756275829
31
6.00010959237
0
LINE
8
2
10
1358.451099997511
20
-644.609756275829
30
6.00010959237
11
1358.399988662461
21
-644.22152736158
31
6.000109610486
0
LINE
8
2
10
1358.399988662461
20
-644.22152736158
30
6.000109610486
11
1358.451099940786
21
-643.833298439864
31
6.000109627079
0
LINE
8
2
10
1358.451099940786
20
-643.833298439864
30
6.000109627079
11
1358.600950683335
21
-643.471526670115
31
6.000109641018
0
LINE
8
2
10
1358.600950683335
20
-643.471526670115
30
6.000109641018
11
1358.839328809643
21
-643.160866200587
31
6.000109651353
0
LINE
8
2
10
1358.839328809643
20
-643.160866200587
30
6.000109651353
11
1359.14998924434
21
-642.922488028887
31
6.00010965738
0
LINE
8
2
10
1359.14998924434
20
-642.922488028887
30
6.00010965738
11
1359.511760992193
21
-642.772637233479
31
6.000109658687
0
LINE
8
2
10
1359.511760992193
20
-642.772637233479
30
6.000109658687
11
1359.899989906442
21
-642.721525898428
31
6.000109655186
0
LINE
8
2
10
1419.899989926153
20
-653.377049622152
30
6.000108626969
11
1420.288218840402
21
-653.325938287101
31
6.000108628565
0
LINE
8
2
10
1420.288218840402
20
-653.325938287101
30
6.000108628565
11
1420.649990588256
21
-653.176087491692
31
6.000108644815
0
LINE
8
2
10
1420.649990588256
20
-653.176087491692
30
6.000108644815
11
1420.960651022953
21
-652.937709319992
31
6.000108674611
0
LINE
8
2
10
1420.960651022953
20
-652.937709319992
30
6.000108674611
11
1421.199029149261
21
-652.627048850464
31
6.000108715923
0
LINE
8
2
10
1421.199029149261
20
-652.627048850464
30
6.000108715923
11
1421.34887989181
21
-652.265277080716
31
6.000108765936
0
LINE
8
2
10
1421.34887989181
20
-652.265277080716
30
6.000108765936
11
1421.399991170135
21
-651.877048158999
31
6.000108821241
0
LINE
8
2
10
1421.399991170135
20
-651.877048158999
30
6.000108821241
11
1421.348879835083
21
-651.488819244751
31
6.00010887807
0
LINE
8
2
10
1421.348879835083
20
-651.488819244751
30
6.00010887807
11
1421.199029039675
21
-651.127047496897
31
6.000108932549
0
LINE
8
2
10
1421.199029039675
20
-651.127047496897
30
6.000108932549
11
1420.960650867976
21
-650.8163870622
31
6.000108980965
0
LINE
8
2
10
1420.960650867976
20
-650.8163870622
30
6.000108980965
11
1420.649990398448
21
-650.578008935892
31
6.000109020021
0
LINE
8
2
10
1420.649990398448
20
-650.578008935892
30
6.000109020021
11
1420.288218628699
21
-650.428158193343
31
6.000109047053
0
LINE
8
2
10
1420.288218628699
20
-650.428158193343
30
6.000109047053
11
1419.899989706983
21
-650.377046915018
31
6.00010906022
0
LINE
8
2
10
1359.899990125613
20
-653.377054005561
30
6.00010952108
11
1359.511761203896
21
-653.325942727236
31
6.00010952915
0
LINE
8
2
10
1359.511761203896
20
-653.325942727236
30
6.00010952915
11
1359.149989434148
21
-653.176091984687
31
6.00010954124
0
LINE
8
2
10
1359.149989434148
20
-653.176091984687
30
6.00010954124
11
1358.83932896462
21
-652.937713858379
31
6.000109556526
0
LINE
8
2
10
1358.83932896462
20
-652.937713858379
30
6.000109556526
11
1358.60095079292
21
-652.627053423682
31
6.000109573965
0
LINE
8
2
10
1358.60095079292
20
-652.627053423682
30
6.000109573965
11
1358.451099997511
21
-652.265281675829
31
6.00010959237
0
LINE
8
2
10
1358.451099997511
20
-652.265281675829
30
6.00010959237
11
1358.399988662461
21
-651.87705276158
31
6.000109610486
0
LINE
8
2
10
1358.399988662461
20
-651.87705276158
30
6.000109610486
11
1358.451099940786
21
-651.488823839863
31
6.000109627079
0
LINE
8
2
10
1358.451099940786
20
-651.488823839863
30
6.000109627079
11
1358.600950683335
21
-651.127052070115
31
6.000109641018
0
LINE
8
2
10
1358.600950683335
20
-651.127052070115
30
6.000109641018
11
1358.839328809643
21
-650.816391600587
31
6.000109651353
0
LINE
8
2
10
1358.839328809643
20
-650.816391600587
30
6.000109651353
11
1359.14998924434
21
-650.578013428888
31
6.00010965738
0
LINE
8
2
10
1359.14998924434
20
-650.578013428888
30
6.00010965738
11
1359.511760992193
21
-650.428162633479
31
6.000109658687
0
LINE
8
2
10
1359.511760992193
20
-650.428162633479
30
6.000109658687
11
1359.899989906442
21
-650.377051298428
31
6.000109655186
0
LINE
8
2
10
1419.899989926153
20
-661.032575022152
30
6.000108626969
11
1420.288218840402
21
-660.981463687101
31
6.000108628565
0
LINE
8
2
10
1420.288218840402
20
-660.981463687101
30
6.000108628565
11
1420.649990588256
21
-660.831612891692
31
6.000108644815
0
LINE
8
2
10
1420.649990588256
20
-660.831612891692
30
6.000108644815
11
1420.960651022953
21
-660.593234719992
31
6.000108674611
0
LINE
8
2
10
1420.960651022953
20
-660.593234719992
30
6.000108674611
11
1421.199029149261
21
-660.282574250464
31
6.000108715923
0
LINE
8
2
10
1421.199029149261
20
-660.282574250464
30
6.000108715923
11
1421.34887989181
21
-659.920802480716
31
6.000108765936
0
LINE
8
2
10
1421.34887989181
20
-659.920802480716
30
6.000108765936
11
1421.399991170135
21
-659.532573558999
31
6.000108821241
0
LINE
8
2
10
1421.399991170135
20
-659.532573558999
30
6.000108821241
11
1421.348879835083
21
-659.144344644751
31
6.00010887807
0
LINE
8
2
10
1421.348879835083
20
-659.144344644751
30
6.00010887807
11
1421.199029039675
21
-658.782572896897
31
6.000108932549
0
LINE
8
2
10
1421.199029039675
20
-658.782572896897
30
6.000108932549
11
1420.960650867976
21
-658.4719124622
31
6.000108980965
0
LINE
8
2
10
1420.960650867976
20
-658.4719124622
30
6.000108980965
11
1420.649990398448
21
-658.233534335892
31
6.000109020021
0
LINE
8
2
10
1420.649990398448
20
-658.233534335892
30
6.000109020021
11
1420.288218628699
21
-658.083683593343
31
6.000109047053
0
LINE
8
2
10
1420.288218628699
20
-658.083683593343
30
6.000109047053
11
1419.899989706983
21
-658.032572315018
31
6.00010906022
0
LINE
8
2
10
1359.899990125613
20
-661.032579405561
30
6.00010952108
11
1359.511761203896
21
-660.981468127236
31
6.00010952915
0
LINE
8
2
10
1359.511761203896
20
-660.981468127236
30
6.00010952915
11
1359.149989434148
21
-660.831617384687
31
6.00010954124
0
LINE
8
2
10
1359.149989434148
20
-660.831617384687
30
6.00010954124
11
1358.83932896462
21
-660.593239258379
31
6.000109556526
0
LINE
8
2
10
1358.83932896462
20
-660.593239258379
30
6.000109556526
11
1358.60095079292
21
-660.282578823682
31
6.000109573965
0
LINE
8
2
10
1358.60095079292
20
-660.282578823682
30
6.000109573965
11
1358.451099997511
21
-659.920807075829
31
6.00010959237
0
LINE
8
2
10
1358.451099997511
20
-659.920807075829
30
6.00010959237
11
1358.399988662461
21
-659.53257816158
31
6.000109610486
0
LINE
8
2
10
1358.399988662461
20
-659.53257816158
30
6.000109610486
11
1358.451099940786
21
-659.144349239863
31
6.000109627079
0
LINE
8
2
10
1358.451099940786
20
-659.144349239863
30
6.000109627079
11
1358.600950683335
21
-658.782577470115
31
6.000109641018
0
LINE
8
2
10
1358.600950683335
20
-658.782577470115
30
6.000109641018
11
1358.839328809643
21
-658.471917000587
31
6.000109651353
0
LINE
8
2
10
1358.839328809643
20
-658.471917000587
30
6.000109651353
11
1359.14998924434
21
-658.233538828888
31
6.00010965738
0
LINE
8
2
10
1359.14998924434
20
-658.233538828888
30
6.00010965738
11
1359.511760992193
21
-658.083688033479
31
6.000109658687
0
LINE
8
2
10
1359.511760992193
20
-658.083688033479
30
6.000109658687
11
1359.899989906442
21
-658.032576698428
31
6.000109655186
0
LINE
8
2
10
1359.899990125613
20
-553.855223805562
30
6.00010952108
11
1419.899989926153
21
-553.855219422152
31
6.000108626969
0
LINE
8
2
10
1359.899990125613
20
-706.965731805561
30
6.00010952108
11
1419.899989926153
21
-706.965727422151
31
6.000108626969
0
LINE
8
2
10
1333.899976396603
20
-419.299972878133
30
6.000118284715
11
1445.899987667608
21
-419.29995964245
31
6.000116615706
0
LINE
8
2
10
1333.900024814974
20
-806.299979300599
30
5.99998013047
11
1333.899976396603
21
-419.299972878133
31
6.000118284715
0
LINE
8
2
10
1419.899989706983
20
-474.299962715018
30
6.00010906022
11
1359.899989906442
21
-474.299967098428
31
6.000109655186
0
LINE
8
2
10
1445.900029949205
20
-722.299966064915
30
5.999982216428
11
1445.899995412258
21
-474.799971118252
31
6.000042639091
0
LINE
8
2
10
1439.899995412259
20
-474.799971955512
30
6.000042577772
11
1439.89999373774
21
-462.79997195554
31
6.000026163993
0
LINE
8
2
10
1633.900026495283
20
-829.29998269864
30
5.999974631764
11
1633.900024814974
21
-806.299957383548
31
5.999975659911
0
LINE
8
2
10
1578.400024376632
20
-800.299961438201
30
5.999976755177
11
1578.400024814974
21
-806.299961438202
31
5.999976486965
0
LINE
8
2
10
1578.4000186782
20
-722.299961438202
30
5.999980241931
11
1578.400019116541
21
-728.299961438202
31
5.999979973719
0
LINE
8
2
10
1743.899996249751
20
-415.299949347297
30
5.999991499183
11
1743.900026495284
21
-829.299974662388
31
5.99997299256
0
LINE
8
2
10
1445.899993737739
20
-462.799971118279
30
6.000026225313
11
1439.89999373774
21
-462.79997195554
31
6.000026163993
0
LINE
8
2
10
1725.899996103639
20
-413.29995066232
30
5.99999185682
11
1725.382356948461
21
-413.368096452091
31
5.999991861487
0
LINE
8
2
10
1742.899996123213
20
-413.567893756291
30
5.999991591511
11
1742.417635268773
21
-413.368095207547
31
5.99999160763
0
LINE
8
2
10
1741.899996103638
20
-413.299949493411
30
5.99999161839
11
1725.899996103639
21
-413.29995066232
31
5.99999185682
0
LINE
8
2
10
1724.899996123213
20
-413.567895071315
30
5.999991859744
11
1724.485781058543
21
-413.885735677748
31
5.999991851709
0
LINE
8
2
10
1725.382356948461
20
-413.368096452091
30
5.999991861487
11
1724.899996123213
21
-413.567895071315
31
5.999991859744
0
LINE
8
2
10
1445.899995412258
20
-474.799971118252
30
6.000042639091
11
1439.899995412259
21
-474.799971955512
31
6.000042577772
0
LINE
8
2
10
1723.968141963888
20
-414.782311643299
30
5.999991819344
11
1723.899996249752
21
-415.299950808434
31
5.999991797219
0
LINE
8
2
10
1743.899996249751
20
-415.299949347297
30
5.999991499183
11
1743.831850459981
21
-414.782310192119
31
5.999991523338
0
LINE
8
2
10
1590.400024814974
20
-806.29996056152
30
5.999976308142
11
1590.400024376633
21
-800.299960561519
31
5.999976576354
0
LINE
8
2
10
1590.400024376633
20
-800.299960561519
30
5.999976576354
11
1578.400024376632
21
-800.299961438201
31
5.999976755177
0
LINE
8
2
10
1723.899996249752
20
-415.299950808434
30
5.999991797219
11
1723.899996541979
21
-419.299950808434
31
5.999991618412
0
LINE
8
2
10
1724.485781058543
20
-413.885735677748
30
5.999991851709
11
1724.167940512633
21
-414.299950788859
31
5.999991837928
0
LINE
8
2
10
1633.899999719951
20
-462.799957383549
30
5.999991015043
11
1633.899996541979
21
-419.299957383549
31
5.99999295958
0
LINE
8
2
10
1639.900000596633
20
-474.799956945208
30
5.999990389208
11
1639.899999719951
21
-462.799956945208
31
5.999990925632
0
LINE
8
2
10
1724.167940512633
20
-414.299950788859
30
5.999991837928
11
1723.968141963888
21
-414.782311643299
31
5.999991819344
0
LINE
8
2
10
1445.900029949205
20
-722.299966064915
30
5.999982216428
11
1578.4000186782
21
-722.299961438202
31
5.999980241931
0
LINE
8
2
10
1633.899996541979
20
-419.299957383549
30
5.99999295958
11
1723.899996541979
21
-419.299950808434
31
5.999991618412
0
LINE
8
2
10
1590.400018678199
20
-722.29996056152
30
5.999980063109
11
1633.9000186782
21
-722.299957383547
31
5.999979414878
0
LINE
8
2
10
1633.9000186782
20
-722.299957383547
30
5.999979414878
11
1633.900000596633
21
-474.799957383549
31
5.999990478619
0
LINE
8
2
10
1590.400019116541
20
-728.29996056152
30
5.999979794897
11
1590.400018678199
21
-722.29996056152
31
5.999980063109
0
LINE
8
2
10
1359.899990125613
20
-691.654681005561
30
6.00010952108
11
1419.899989926153
21
-691.654676622151
31
6.000108626969
0
LINE
8
2
10
1359.899990125613
20
-699.310206405561
30
6.00010952108
11
1419.899989926153
21
-699.310202022151
31
6.000108626969
0
LINE
8
2
10
1639.899999719951
20
-462.799956945208
30
5.999990925632
11
1633.899999719951
21
-462.799957383549
31
5.999991015043
0
LINE
8
2
10
1633.900000596633
20
-474.799957383549
30
5.999990478619
11
1639.900000596633
21
-474.799956945208
31
5.999990389208
0
LINE
8
2
10
1377.400024376633
20
-800.299976122625
30
5.999979750451
11
1377.400024814973
21
-806.299976122627
31
5.999979482239
0
LINE
8
2
10
1389.400024376633
20
-800.299975245944
30
5.999979571629
11
1377.400024376633
21
-800.299976122625
31
5.999979750451
0
LINE
8
2
10
1359.899990125613
20
-477.299969805562
30
6.00010952108
11
1419.899989926153
21
-477.299965422152
31
6.000108626969
0
LINE
8
2
10
1743.632051840757
20
-414.299949366872
30
5.999991547877
11
1743.314211234324
21
-413.885734302202
31
5.99999157113
0
LINE
8
2
10
1377.400024814973
20
-806.299976122627
30
5.999979482239
11
1333.900024814974
21
-806.299979300599
31
5.99998013047
0
LINE
8
2
10
1743.831850459981
20
-414.782310192119
30
5.999991523338
11
1743.632051840757
21
-414.299949366872
31
5.999991547877
0
LINE
8
2
10
1742.417635268773
20
-413.368095207547
30
5.99999160763
11
1741.899996103638
21
-413.299949493411
31
5.99999161839
0
LINE
8
2
10
1633.900024814974
20
-806.299957383548
30
5.999975659911
11
1590.400024814974
21
-806.29996056152
31
5.999976308142
0
LINE
8
2
10
1578.400024814974
20
-806.299961438202
30
5.999976486965
11
1389.400024814974
21
-806.299975245945
31
5.999979303417
0
LINE
8
2
10
1743.900026495284
20
-829.299974662388
30
5.99997299256
11
1633.900026495283
21
-829.29998269864
31
5.999974631764
0
LINE
8
2
10
1359.899990125613
20
-561.510749205561
30
6.00010952108
11
1419.899989926153
21
-561.510744822152
31
6.000108626969
0
LINE
8
2
10
1419.899989706983
20
-558.510742115018
30
6.00010906022
11
1359.899989906442
21
-558.510746498428
31
6.000109655186
0
LINE
8
2
10
1359.899990125613
20
-569.166274605562
30
6.00010952108
11
1419.899989926153
21
-569.166270222152
31
6.000108626969
0
LINE
8
2
10
1419.899989706983
20
-612.099419915018
30
6.00010906022
11
1359.899989906442
21
-612.099424298428
31
6.000109655186
0
LINE
8
2
10
1359.899990125613
20
-622.754952405562
30
6.00010952108
11
1419.899989926153
21
-622.754948022152
31
6.000108626969
0
LINE
8
2
10
1359.899990125613
20
-530.888647605562
30
6.00010952108
11
1419.899989926153
21
-530.888643222152
31
6.000108626969
0
LINE
8
2
10
1419.899989706983
20
-527.888640515018
30
6.00010906022
11
1359.899989906442
21
-527.888644898428
31
6.000109655186
0
LINE
8
2
10
1419.899989706983
20
-535.544165915018
30
6.00010906022
11
1359.899989906442
21
-535.544170298428
31
6.000109655186
0
LINE
8
2
10
1359.899990125613
20
-538.544173005562
30
6.00010952108
11
1419.899989926153
21
-538.544168622152
31
6.000108626969
0
LINE
8
2
10
1359.899990125613
20
-546.199698405562
30
6.00010952108
11
1419.899989926153
21
-546.199694022152
31
6.000108626969
0
LINE
8
2
10
1419.899989706983
20
-543.199691315018
30
6.00010906022
11
1359.899989906442
21
-543.199695698428
31
6.000109655186
0
LINE
8
2
10
1419.899989706983
20
-550.855216715018
30
6.00010906022
11
1359.899989906442
21
-550.855221098428
31
6.000109655186
0
LINE
8
2
10
1419.899989706983
20
-504.922064315018
30
6.00010906022
11
1359.899989906442
21
-504.922068698428
31
6.000109655186
0
LINE
8
2
10
1359.899990125613
20
-507.922071405561
30
6.00010952108
11
1419.899989926153
21
-507.922067022152
31
6.000108626969
0
LINE
8
2
10
1419.899989706983
20
-512.577589715018
30
6.00010906022
11
1359.899989906442
21
-512.577594098428
31
6.000109655186
0
LINE
8
2
10
1359.899990125613
20
-515.577596805561
30
6.00010952108
11
1419.899989926153
21
-515.577592422152
31
6.000108626969
0
LINE
8
2
10
1359.899990125613
20
-523.233122205562
30
6.00010952108
11
1419.899989926153
21
-523.233117822152
31
6.000108626969
0
LINE
8
2
10
1419.899989706983
20
-520.233115115018
30
6.00010906022
11
1359.899989906442
21
-520.233119498428
31
6.000109655186
0
LINE
8
2
10
1419.899989706983
20
-688.654673915017
30
6.00010906022
11
1359.899989906442
21
-688.654678298428
31
6.000109655186
0
LINE
8
2
10
1419.899989706983
20
-680.999148515017
30
6.00010906022
11
1359.899989906442
21
-680.999152898428
31
6.000109655186
0
LINE
8
2
10
1359.899990125613
20
-676.343630205561
30
6.00010952108
11
1419.899989926153
21
-676.343625822151
31
6.000108626969
0
LINE
8
2
10
1389.400024814974
20
-806.299975245945
30
5.999979303417
11
1389.400024376633
21
-800.299975245944
31
5.999979571629
0
LINE
8
2
10
1743.314211234324
20
-413.885734302202
30
5.99999157113
11
1742.899996123213
21
-413.567893756291
31
5.999991591511
0
LINE
8
2
10
1578.400019116541
20
-728.299961438202
30
5.999979973719
11
1590.400019116541
21
-728.29996056152
31
5.999979794897
0
LINE
8
2
10
1445.899993737739
20
-462.799971118279
30
6.000026225313
11
1445.899987667608
21
-419.29995964245
31
6.000116615706
0
LINE
8
2
10
1359.899990125613
20
-484.955495205562
30
6.00010952108
11
1419.899989926153
21
-484.955490822152
31
6.000108626969
0
LINE
8
2
10
1419.899989706983
20
-489.611013515018
30
6.00010906022
11
1359.899989906442
21
-489.611017898428
31
6.000109655186
0
LINE
8
2
10
1359.899990125613
20
-492.611020605562
30
6.00010952108
11
1419.899989926153
21
-492.611016222152
31
6.000108626969
0
LINE
8
2
10
1359.899990125613
20
-500.266546005562
30
6.00010952108
11
1419.899989926153
21
-500.266541622152
31
6.000108626969
0
LINE
8
2
10
1419.899989706983
20
-497.266538915018
30
6.00010906022
11
1359.899989906442
21
-497.266543298428
31
6.000109655186
0
LINE
8
2
10
1419.899989706983
20
-573.821792915018
30
6.00010906022
11
1359.899989906442
21
-573.821797298428
31
6.000109655186
0
LINE
8
2
10
1359.899990125613
20
-584.477325405562
30
6.00010952108
11
1419.899989926153
21
-584.477321022152
31
6.000108626969
0
LINE
8
2
10
1419.899989706983
20
-581.477318315018
30
6.00010906022
11
1359.899989906442
21
-581.477322698428
31
6.000109655186
0
LINE
8
2
10
1419.899989706983
20
-665.688097715018
30
6.00010906022
11
1359.899989906442
21
-665.688102098428
31
6.000109655186
0
LINE
8
2
10
1419.899989706983
20
-481.955488115018
30
6.00010906022
11
1359.899989906442
21
-481.955492498428
31
6.000109655186
0
LINE
8
2
10
1359.899990125613
20
-661.032579405561
30
6.00010952108
11
1419.899989926153
21
-661.032575022152
31
6.000108626969
0
LINE
8
2
10
1419.899989706983
20
-673.343623115018
30
6.00010906022
11
1359.899989906442
21
-673.343627498428
31
6.000109655186
0
LINE
8
2
10
1359.899990125613
20
-668.688104805561
30
6.00010952108
11
1419.899989926153
21
-668.688100422152
31
6.000108626969
0
LINE
8
2
10
1359.899990125613
20
-630.410477805562
30
6.00010952108
11
1419.899989926153
21
-630.410473422152
31
6.000108626969
0
LINE
8
2
10
1419.899989706983
20
-627.410470715018
30
6.00010906022
11
1359.899989906442
21
-627.410475098428
31
6.000109655186
0
LINE
8
2
10
1419.899989706983
20
-566.166267515018
30
6.00010906022
11
1359.899989906442
21
-566.166271898428
31
6.000109655186
0
LINE
8
2
10
1419.899989706983
20
-604.443894515018
30
6.00010906022
11
1359.899989906442
21
-604.443898898428
31
6.000109655186
0
LINE
8
2
10
1359.899990125613
20
-607.443901605562
30
6.00010952108
11
1419.899989926153
21
-607.443897222152
31
6.000108626969
0
LINE
8
2
10
1359.899990125613
20
-638.066003205562
30
6.00010952108
11
1419.899989926153
21
-638.065998822152
31
6.000108626969
0
LINE
8
2
10
1419.899989706983
20
-642.721521515018
30
6.00010906022
11
1359.899989906442
21
-642.721525898428
31
6.000109655186
0
LINE
8
2
10
1359.899990125613
20
-645.721528605562
30
6.00010952108
11
1419.899989926153
21
-645.721524222152
31
6.000108626969
0
LINE
8
2
10
1419.899989706983
20
-650.377046915018
30
6.00010906022
11
1359.899989906442
21
-650.377051298428
31
6.000109655186
0
LINE
8
2
10
1359.899990125613
20
-653.377054005561
30
6.00010952108
11
1419.899989926153
21
-653.377049622152
31
6.000108626969
0
LINE
8
2
10
1419.899989706983
20
-658.032572315018
30
6.00010906022
11
1359.899989906442
21
-658.032576698428
31
6.000109655186
0
LINE
8
2
10
1359.899990125613
20
-592.132850805562
30
6.00010952108
11
1419.899989926153
21
-592.132846422152
31
6.000108626969
0
LINE
8
2
10
1419.899989706983
20
-596.788369115018
30
6.00010906022
11
1359.899989906442
21
-596.788373498428
31
6.000109655186
0
LINE
8
2
10
1359.899990125613
20
-615.099427005561
30
6.00010952108
11
1419.899989926153
21
-615.099422622152
31
6.000108626969
0
LINE
8
2
10
1359.899990125613
20
-576.821800005562
30
6.00010952108
11
1419.899989926153
21
-576.821795622152
31
6.000108626969
0
LINE
8
2
10
1419.899989706983
20
-589.132843715018
30
6.00010906022
11
1359.899989906442
21
-589.132848098428
31
6.000109655186
0
LINE
8
2
10
1419.899989706983
20
-703.965724715017
30
6.00010906022
11
1359.899989906442
21
-703.965729098428
31
6.000109655186
0
LINE
8
2
10
1419.899989706983
20
-696.310199315017
30
6.00010906022
11
1359.899989906442
21
-696.310203698428
31
6.000109655186
0
LINE
8
2
10
1359.899990125613
20
-599.788376205562
30
6.00010952108
11
1419.899989926153
21
-599.788371822152
31
6.000108626969
0
LINE
8
2
10
1359.899990125613
20
-683.999155605561
30
6.00010952108
11
1419.899989926153
21
-683.999151222151
31
6.000108626969
0
LINE
8
2
10
1419.899989706983
20
-619.754945315018
30
6.00010906022
11
1359.899989906442
21
-619.754949698428
31
6.000109655186
0
LINE
8
2
10
1419.899989706983
20
-635.065996115018
30
6.00010906022
11
1359.899989906442
21
-635.066000498428
31
6.000109655186
0
LINE
8
3
10
1490.813955468468
20
-413.299990293344
30
6.000009367136
11
1490.831065745687
21
-413.038937908902
31
6.000009366951
0
LINE
8
3
10
1490.813955468969
20
-417.299990293344
30
6.000009367276
11
1490.813955468468
21
-413.299990293344
31
6.000009367136
0
LINE
8
3
10
1490.966196403349
20
-412.534623428595
30
6.000009365553
11
1490.882103815825
21
-412.782352203131
31
6.000009366421
0
LINE
8
3
10
1491.081904660774
20
-412.29999029331
30
6.000009364362
11
1490.966196403349
21
-412.534623428595
31
6.000009365553
0
LINE
8
3
10
1490.882103815825
20
-412.782352203131
30
6.000009366421
11
1490.831065745687
21
-413.038937908902
31
6.000009366951
0
LINE
8
3
10
1502.813955346367
20
-720.299974434171
30
6.000009245347
11
1502.81407045069
21
-676.799988181218
31
5.999973033719
0
LINE
8
3
10
1466.81395812316
20
-674.39998768371
30
5.999997664451
11
1469.81395812316
21
-674.399987683718
31
5.999996852536
0
LINE
8
3
10
1470.813958123164
20
-672.899987683717
30
5.999997190829
11
1470.813958123174
21
-668.699975476688
31
5.999997664436
0
LINE
8
3
10
1469.813958123174
20
-668.699975476686
30
5.999997664436
11
1469.813958123174
21
-667.199975476686
31
5.999997664433
0
LINE
8
3
10
1466.813958123164
20
-672.899987306194
30
5.999997337616
11
1466.81395812316
21
-674.39998768371
31
5.999997664451
0
LINE
8
3
10
1455.813955581714
20
-720.299974443688
30
6.000009725671
11
1502.813955346367
21
-720.299974434171
31
6.000009245347
0
LINE
8
3
10
1507.331639737422
20
-676.731837829973
30
5.99997299706
11
1507.075054054295
21
-676.782876013954
31
5.99997299256
0
LINE
8
3
10
1507.579368474646
20
-676.647745132534
30
5.999973006262
11
1507.331639737422
21
-676.731837829973
31
5.99997299706
0
LINE
8
3
10
1508.40070801095
20
-676.017508561213
30
5.999973085812
11
1508.228214979985
21
-676.214199342081
31
5.999973060128
0
LINE
8
3
10
1469.81395812316
20
-672.899987683717
30
5.999997258489
11
1470.813958123164
21
-672.899987683717
31
5.999997190829
0
LINE
8
3
10
1469.81395812316
20
-674.399987683718
30
5.999996852536
11
1469.81395812316
21
-672.899987683717
31
5.999997258489
0
LINE
8
3
10
1508.546052041451
20
-675.799985638727
30
5.99997311468
11
1508.40070801095
21
-676.017508561213
31
5.999973085812
0
LINE
8
3
10
1506.814001677445
20
-676.799986406999
30
5.99997299284
11
1507.075054054295
21
-676.782876013954
31
5.99997299256
0
LINE
8
3
10
1508.661760194831
20
-675.565352452133
30
5.999973146239
11
1508.546052041451
21
-675.799985638727
31
5.99997311468
0
LINE
8
3
10
1508.228214979985
20
-676.214199342081
30
5.999973060128
11
1508.031524352141
21
-676.386692547535
31
5.999973038068
0
LINE
8
3
10
1507.814001558593
20
-676.532036771006
30
5.99997302001
11
1507.579368474646
21
-676.647745132534
31
5.999973006262
0
LINE
8
3
10
1508.745852672503
20
-675.317623640308
30
5.999973179947
11
1508.661760194831
21
-675.565352452133
31
5.999973146239
0
LINE
8
3
10
1470.813958123174
20
-668.699975476688
30
5.999997664436
11
1469.813958123174
21
-668.699975476686
31
5.999997664436
0
LINE
8
3
10
1455.813956496338
20
-672.899987683683
30
6.000002964826
11
1466.813958123164
21
-672.899987306194
31
5.999997337616
0
LINE
8
3
10
1502.81407045069
20
-676.799988181218
30
5.999973033719
11
1506.814001677445
21
-676.799986406999
31
5.99997299284
0
LINE
8
3
10
1455.813955581714
20
-720.299974443688
30
6.000009725671
11
1455.813956496338
21
-672.899987683683
31
6.000002964826
0
LINE
8
3
10
1508.031524352141
20
-676.386692547535
30
5.999973038068
11
1507.814001558593
21
-676.532036771006
31
5.99997302001
0
LINE
8
3
10
1449.882102853801
20
-570.317612543006
30
6.000012928115
11
1449.966195442946
21
-570.565341317402
31
6.000012918563
0
LINE
8
3
10
1467.579322446431
20
-623.952215376033
30
6.000005783546
11
1467.813955581701
21
-624.067923633487
31
6.000005643848
0
LINE
8
3
10
1449.882102731577
20
-560.782336074121
30
6.000012786653
11
1449.966195317543
21
-560.534607299467
31
6.00001276975
0
LINE
8
3
10
1449.813954387477
20
-561.299974164431
30
6.000012805051
11
1449.831064663054
21
-561.038921779964
31
6.000012798487
0
LINE
8
3
10
1449.966195442946
20
-570.565341317402
30
6.000012918563
11
1450.081903701906
21
-570.799974452494
31
6.000012903844
0
LINE
8
3
10
1449.831064781984
20
-570.061026837319
30
6.000012932337
11
1449.813954503057
21
-569.799974452906
31
6.000012931155
0
LINE
8
3
10
1450.081903701906
20
-570.799974452494
30
6.000012903844
11
1450.227247830288
21
-571.017497310288
31
6.00001288421
0
LINE
8
3
10
1451.048587650185
20
-571.647733516032
30
6.000012764369
11
1451.296316425251
21
-571.731826103207
31
6.000012726651
0
LINE
8
3
10
1449.813954503057
20
-569.799974452906
30
6.000012931155
11
1449.813954387477
21
-561.299974164431
31
6.000012805051
0
LINE
8
3
10
1455.813954515893
20
-571.79997444369
30
6.000012017072
11
1451.813954515893
21
-571.799974449834
31
6.000012646241
0
LINE
8
3
10
1455.813955581705
20
-623.799974441057
30
6.000012788527
11
1466.8139555817
21
-623.799974441056
31
6.000006239237
0
LINE
8
3
10
1451.813954515893
20
-571.799974449834
30
6.000012646241
11
1451.552902131343
21
-571.782864172982
31
6.000012687049
0
LINE
8
3
10
1455.813955581705
20
-623.799974441057
30
6.000012788527
11
1455.813954515893
21
-571.79997444369
31
6.000012017072
0
LINE
8
3
10
1450.227247830288
20
-571.017497310288
30
6.00001288421
11
1450.39974094976
21
-571.214188014379
31
6.000012859996
0
LINE
8
3
10
1466.8139555817
20
-623.799974441056
30
6.000006239237
11
1467.07500796614
21
-623.817084718308
31
6.000006083809
0
LINE
8
3
10
1449.831064781984
20
-570.061026837319
30
6.000012932337
11
1449.882102853801
21
-570.317612543006
31
6.000012928115
0
LINE
8
3
10
1450.813954514173
20
-571.532025258939
30
6.000012799558
11
1451.048587650185
21
-571.647733516032
31
6.000012764369
0
LINE
8
3
10
1467.331593671905
20
-623.868122788478
30
6.00000593104
11
1467.579322446431
21
-623.952215376033
31
6.000005783546
0
LINE
8
3
10
1450.39974094976
20
-571.214188014379
30
6.000012859996
11
1450.596431655223
21
-571.386681132286
31
6.000012831617
0
LINE
8
3
10
1450.08190357349
20
-560.299974164019
30
6.000012748069
11
1450.227247699081
21
-560.082451305778
31
6.000012721981
0
LINE
8
3
10
1450.596431655223
20
-571.386681132286
30
6.000012831617
11
1450.813954514173
21
-571.532025258939
31
6.000012799558
0
LINE
8
3
10
1467.07500796614
20
-623.817084718308
30
6.000006083809
11
1467.331593671905
21
-623.868122788478
31
6.00000593104
0
LINE
8
3
10
1508.796886848776
20
-666.538927807024
30
5.999974404415
11
1508.745848664795
21
-666.282342123898
31
5.999974440741
0
LINE
8
3
10
1502.814065127943
20
-664.799982845217
30
5.999974708214
11
1506.813996354697
21
-664.799981070999
31
5.999974667335
0
LINE
8
3
10
1508.745848664795
20
-666.282342123898
30
5.999974440741
11
1508.661755967356
21
-666.034613386673
31
5.999974476168
0
LINE
8
3
10
1506.813996354697
20
-664.799981070999
30
5.999974667335
11
1507.075048746727
21
-664.817091232459
31
5.999974662279
0
LINE
8
3
10
1507.579363286956
20
-664.952221666489
30
5.999974638269
11
1507.33163447513
21
-664.868129188817
31
5.999974652535
0
LINE
8
3
10
1508.796890628861
20
-675.061037911904
30
5.99997321523
11
1508.81400079032
21
-674.799985519875
31
5.999973251483
0
LINE
8
3
10
1508.81400079032
20
-674.799985519875
30
5.999973251483
11
1508.813997241821
21
-666.799980183875
31
5.999974367812
0
LINE
8
3
10
1507.813996473549
20
-665.067929819868
30
5.999974619725
11
1507.579363286956
21
-664.952221666489
31
5.999974638269
0
LINE
8
3
10
1508.400703382357
20
-665.582457509178
30
5.999974541931
11
1508.228210176903
21
-665.385766881334
31
5.99997457114
0
LINE
8
3
10
1508.813997241821
20
-666.799980183875
30
5.999974367812
11
1508.796886848776
21
-666.538927807024
31
5.999974404415
0
LINE
8
3
10
1507.33163447513
20
-664.868129188817
30
5.999974652535
11
1507.075048746727
21
-664.817091232459
31
5.999974662279
0
LINE
8
3
10
1508.228210176903
20
-665.385766881334
30
5.99997457114
11
1508.031519396036
21
-665.213273850369
31
5.99997459722
0
LINE
8
3
10
1508.661755967356
20
-666.034613386673
30
5.999974476168
11
1508.546047605828
21
-665.799980302727
31
5.999974510092
0
LINE
8
3
10
1508.546047605828
20
-665.799980302727
30
5.999974510092
11
1508.400703382357
21
-665.582457509178
31
5.999974541931
0
LINE
8
3
10
1508.031519396036
20
-665.213273850369
30
5.99997459722
11
1507.813996473549
21
-665.067929819868
31
5.999974619725
0
LINE
8
3
10
1508.796890628861
20
-675.061037911904
30
5.99997321523
11
1508.745852672503
21
-675.317623640308
31
5.999973179947
0
LINE
8
3
10
1468.546006389271
20
-635.799974443686
30
6.000005144884
11
1468.400662262284
21
-636.017497301704
31
6.000005197175
0
LINE
8
3
10
1468.031478439719
20
-636.386681124269
30
6.000005329997
11
1467.813955581702
21
-636.532025251255
31
6.000005408255
0
LINE
8
3
10
1468.74580723428
20
-635.317612533892
30
6.000005073001
11
1468.661714646724
21
-635.565341308417
31
6.000005103256
0
LINE
8
3
10
1468.8139555817
20
-625.799974441056
30
6.000005048462
11
1468.813955581701
21
-634.799974443686
31
6.000005048483
0
LINE
8
3
10
1467.813955581701
20
-624.067923633487
30
6.000005643848
11
1468.031478439718
21
-624.213267760473
31
6.000005514337
0
LINE
8
3
10
1468.796845304449
20
-635.061026828127
30
6.000005054639
11
1468.74580723428
21
-635.317612533892
31
6.000005073001
0
LINE
8
3
10
1468.400662262284
20
-636.017497301704
30
6.000005197175
11
1468.228169144075
21
-636.214188006059
31
6.000005259233
0
LINE
8
3
10
1467.579322446432
20
-636.647733508709
30
6.000005492669
11
1467.331593671907
21
-636.731826096265
31
6.000005581794
0
LINE
8
3
10
1468.796845304448
20
-625.538922056616
30
6.000005058648
11
1468.8139555817
21
-625.799974441056
31
6.000005048462
0
LINE
8
3
10
1468.813955581701
20
-634.799974443686
30
6.000005048483
11
1468.796845304449
21
-635.061026828127
31
6.000005054639
0
LINE
8
3
10
1467.075007966142
20
-636.782864166434
30
6.000005674105
11
1466.813955581702
21
-636.799974443687
31
6.000005768024
0
LINE
8
3
10
1455.813956352205
20
-668.69997547668
30
6.000003926802
11
1455.813955581705
21
-636.799974443688
31
6.000009725476
0
LINE
8
3
10
1467.331593671907
20
-636.731826096265
30
6.000005581794
11
1467.075007966142
21
-636.782864166434
31
6.000005674105
0
LINE
8
3
10
1468.400662262283
20
-624.582451583038
30
6.000005294529
11
1468.546006389269
21
-624.799974441055
31
6.000005207993
0
LINE
8
3
10
1468.745807234278
20
-625.28233635085
30
6.000005089035
11
1468.796845304448
21
-625.538922056616
31
6.000005058648
0
LINE
8
3
10
1467.813955581702
20
-636.532025251255
30
6.000005408255
11
1467.579322446432
21
-636.647733508709
31
6.000005492669
0
LINE
8
3
10
1468.546006389269
20
-624.799974441055
30
6.000005207993
11
1468.661714646723
21
-625.034607576325
31
6.000005139102
0
LINE
8
3
10
1468.661714646723
20
-625.034607576325
30
6.000005139102
11
1468.745807234278
21
-625.28233635085
31
6.000005089035
0
LINE
8
3
10
1466.813955581702
20
-636.799974443687
30
6.000005768024
11
1455.813955581705
21
-636.799974443688
31
6.000009725476
0
LINE
8
3
10
1466.813958123178
20
-668.699975476679
30
5.999997607189
11
1455.813956352205
21
-668.69997547668
31
6.000003926802
0
LINE
8
3
10
1466.813958123177
20
-667.199975476686
30
5.999997664433
11
1466.813958123178
21
-668.699975476679
31
5.999997607189
0
LINE
8
3
10
1469.813958123174
20
-667.199975476686
30
5.999997664433
11
1466.813958123177
21
-667.199975476686
31
5.999997664433
0
LINE
8
3
10
1501.075007730024
20
-411.317100569213
30
6.000009262201
11
1501.331593435795
21
-411.368138639349
31
6.000009259581
0
LINE
8
3
10
1500.813955345582
20
-411.299990291994
30
6.000009264869
11
1501.075007730024
21
-411.317100569213
31
6.000009262201
0
LINE
8
3
10
1492.552903083779
20
-411.317100570371
30
6.000009349294
11
1492.813955468217
21
-411.299990293085
31
6.000009346626
0
LINE
8
3
10
1492.552903083779
20
-411.317100570371
30
6.000009349294
11
1492.296317378021
21
-411.368138640574
31
6.000009351919
0
LINE
8
3
10
1492.048588603506
20
-411.452231228162
30
6.000009354453
11
1491.813955468251
21
-411.567939485646
31
6.000009356855
0
LINE
8
3
10
1501.579322210331
20
-411.452231226873
30
6.000009257052
11
1501.813955345615
21
-411.567939484296
31
6.000009254658
0
LINE
8
3
10
1491.813955468251
20
-411.567939485646
30
6.000009356855
11
1491.596432610252
21
-411.713283612661
31
6.000009359083
0
LINE
8
3
10
1502.031478203651
20
-411.713283611254
30
6.000009252441
11
1502.228168908028
21
-411.885776729438
31
6.000009250436
0
LINE
8
3
10
1492.813955468217
20
-411.299990293085
30
6.000009346626
11
1500.813955345582
21
-411.299990291994
31
6.000009264869
0
LINE
8
3
10
1491.399741905918
20
-411.885776730895
30
6.000009361099
11
1491.227248787733
21
-412.082467435273
31
6.000009362869
0
LINE
8
3
10
1491.227248787733
20
-412.082467435273
30
6.000009362869
11
1491.081904660774
21
-412.29999029331
31
6.000009364362
0
LINE
8
3
10
1491.596432610252
20
-411.713283612661
30
6.000009359083
11
1491.399741905918
21
-411.885776730895
31
6.000009361099
0
LINE
8
3
10
1492.296317378021
20
-411.368138640574
30
6.000009351919
11
1492.048588603506
21
-411.452231228162
31
6.000009354453
0
LINE
8
3
10
1501.331593435795
20
-411.368138639349
30
6.000009259581
11
1501.579322210331
21
-411.452231226873
31
6.000009257052
0
LINE
8
3
10
1501.813955345615
20
-411.567939484296
30
6.000009254658
11
1502.031478203651
21
-411.713283611254
31
6.000009252441
0
LINE
8
3
10
1451.296316425251
20
-571.731826103207
30
6.000012726651
11
1451.552902131343
21
-571.782864172982
31
6.000012687049
0
LINE
8
3
10
1502.546006153276
20
-412.29999029177
30
6.000009247203
11
1502.661714410759
21
-412.534623427025
31
6.000009246029
0
LINE
8
3
10
1449.966195317543
20
-560.534607299467
30
6.00001276975
11
1450.08190357349
21
-560.299974164019
31
6.000012748069
0
LINE
8
3
10
1468.661714646724
20
-635.565341308417
30
6.000005103256
11
1468.546006389271
21
-635.799974443686
31
6.000005144884
0
LINE
8
3
10
1502.745806998345
20
-412.782352201539
30
6.000009245178
11
1502.796845068547
21
-413.038937907297
31
6.000009244665
0
LINE
8
3
10
1502.400662026262
20
-412.082467433771
30
6.000009248681
11
1502.546006153276
21
-412.29999029177
31
6.000009247203
0
LINE
8
3
10
1502.228168908028
20
-411.885776729438
30
6.000009250436
11
1502.400662026262
21
-412.082467433771
31
6.000009248681
0
LINE
8
3
10
1449.831064663054
20
-561.038921779964
30
6.000012798487
11
1449.882102731577
21
-560.782336074121
31
6.000012786653
0
LINE
8
3
10
1468.228169144075
20
-636.214188006059
30
6.000005259233
11
1468.031478439719
21
-636.386681124269
31
6.000005329997
0
LINE
8
3
10
1502.813955345832
20
-413.299990291735
30
6.0000092445
11
1502.796845068547
21
-413.038937907297
31
6.000009244665
0
LINE
8
3
10
1468.228169144073
20
-624.385760878682
30
6.00000539723
11
1468.400662262283
21
-624.582451583038
31
6.000005294529
0
LINE
8
3
10
1468.031478439718
20
-624.213267760473
30
6.000005514337
11
1468.228169144073
21
-624.385760878682
31
6.00000539723
0
LINE
8
3
10
1502.814065127943
20
-664.799982845217
30
5.999974708214
11
1502.813955345832
21
-413.299990291735
31
6.0000092445
0
LINE
8
3
10
1502.661714410759
20
-412.534623427025
30
6.000009246029
11
1502.745806998345
21
-412.782352201539
31
6.000009245178
0
LINE
8
3
10
1455.813955581681
20
-417.299990301252
30
6.000009724964
11
1490.813955468969
21
-417.299990293344
31
6.000009367276
0
LINE
8
3
10
1455.813956352192
20
-475.399975476681
30
6.00001129298
11
1455.813955581681
21
-417.299990301252
31
6.000009724964
0
LINE
8
3
10
1466.813958123165
20
-475.399975476679
30
6.000004973367
11
1455.813956352192
21
-475.399975476681
31
6.00001129298
0
LINE
8
3
10
1466.813958123164
20
-473.899975476687
30
6.000005030611
11
1466.813958123165
21
-475.399975476679
31
6.000004973367
0
LINE
8
3
10
1469.813958123161
20
-473.899975476687
30
6.000005030611
11
1466.813958123164
21
-473.899975476687
31
6.000005030611
0
LINE
8
3
10
1469.813958123161
20
-475.399975476687
30
6.000005030614
11
1469.813958123161
21
-473.899975476687
31
6.000005030611
0
LINE
8
3
10
1470.813958123161
20
-475.399975476689
30
6.000005030614
11
1469.813958123161
21
-475.399975476687
31
6.000005030614
0
LINE
8
3
10
1470.813958123151
20
-479.599987683718
30
6.000004557007
11
1470.813958123161
21
-475.399975476689
31
6.000005030614
0
LINE
8
3
10
1469.813958123146
20
-479.599987683718
30
6.000004624667
11
1470.813958123151
21
-479.599987683718
31
6.000004557007
0
LINE
8
3
10
1469.813958123147
20
-481.099987683719
30
6.000004218714
11
1469.813958123146
21
-479.599987683718
31
6.000004624667
0
LINE
8
3
10
1466.813958123147
20
-481.099987683711
30
6.000005030629
11
1469.813958123147
21
-481.099987683719
31
6.000004218714
0
LINE
8
3
10
1466.813958123151
20
-479.599987306195
30
6.000004703794
11
1466.813958123147
21
-481.099987683711
31
6.000005030629
0
LINE
8
3
10
1455.813956496325
20
-479.599987683685
30
6.000010331004
11
1466.813958123151
21
-479.599987306195
31
6.000004703794
0
LINE
8
3
10
1455.813954374641
20
-559.299974155215
30
6.000011831626
11
1455.813956496325
21
-479.599987683685
31
6.000010331004
0
LINE
8
3
10
1455.813954374641
20
-559.299974155215
30
6.000011831626
11
1451.813954374641
21
-559.299974161359
31
6.000012460796
0
LINE
8
3
10
1451.813954374641
20
-559.299974161359
30
6.000012460796
11
1451.552901990311
21
-559.317084439012
31
6.000012502111
0
LINE
8
3
10
1451.296316284873
20
-559.368122509576
30
6.000012543227
11
1451.552901990311
21
-559.317084439012
31
6.000012502111
0
LINE
8
3
10
1451.048587510888
20
-559.452215097512
30
6.000012583441
11
1451.296316284873
21
-559.368122509576
31
6.000012543227
0
LINE
8
3
10
1450.813954376361
20
-559.567923355326
30
6.000012622063
11
1451.048587510888
21
-559.452215097512
31
6.000012583441
0
LINE
8
3
10
1450.596431519276
20
-559.713267482646
30
6.000012658434
11
1450.813954376361
21
-559.567923355326
31
6.000012622063
0
LINE
8
3
10
1450.399740816028
20
-559.885760601158
30
6.000012691931
11
1450.596431519276
21
-559.713267482646
31
6.000012658434
0
LINE
8
3
10
1450.227247699081
20
-560.082451305778
30
6.000012721981
11
1450.399740816028
21
-559.885760601158
31
6.000012691931
0
ENDSEC
0
EOF
