0
SECTION
2
ENTITIES
0
LINE
8
0
10
1816.299990125612
20
-665.432579405561
30
6.00010952108
11
1815.911761203895
21
-665.381468127236
31
6.00010952915
0
LINE
8
0
10
1815.911761203895
20
-665.381468127236
30
6.00010952915
11
1815.549989434146
21
-665.231617384688
31
6.00010954124
0
LINE
8
0
10
1815.549989434146
20
-665.231617384688
30
6.00010954124
11
1815.239328964618
21
-664.993239258379
31
6.000109556526
0
LINE
8
0
10
1815.239328964618
20
-664.993239258379
30
6.000109556526
11
1815.000950792918
21
-664.682578823682
31
6.000109573965
0
LINE
8
0
10
1815.000950792918
20
-664.682578823682
30
6.000109573965
11
1814.85109999751
21
-664.320807075829
31
6.00010959237
0
LINE
8
0
10
1814.85109999751
20
-664.320807075829
30
6.00010959237
11
1814.799988662459
21
-663.93257816158
31
6.000109610486
0
LINE
8
0
10
1814.799988662459
20
-663.93257816158
30
6.000109610486
11
1814.851099940784
21
-663.544349239864
31
6.000109627079
0
LINE
8
0
10
1814.851099940784
20
-663.544349239864
30
6.000109627079
11
1815.000950683334
21
-663.182577470115
31
6.000109641018
0
LINE
8
0
10
1815.000950683334
20
-663.182577470115
30
6.000109641018
11
1815.239328809641
21
-662.871917000587
31
6.000109651353
0
LINE
8
0
10
1815.239328809641
20
-662.871917000587
30
6.000109651353
11
1815.549989244339
21
-662.633538828888
31
6.00010965738
0
LINE
8
0
10
1815.549989244339
20
-662.633538828888
30
6.00010965738
11
1815.911760992192
21
-662.483688033479
31
6.000109658687
0
LINE
8
0
10
1815.911760992192
20
-662.483688033479
30
6.000109658687
11
1816.299989906441
21
-662.432576698428
31
6.000109655186
0
LINE
8
0
10
1816.299990125612
20
-512.322071405562
30
6.00010952108
11
1815.911761203895
21
-512.270960127237
31
6.00010952915
0
LINE
8
0
10
1815.911761203895
20
-512.270960127237
30
6.00010952915
11
1815.549989434146
21
-512.121109384687
31
6.00010954124
0
LINE
8
0
10
1815.549989434146
20
-512.121109384687
30
6.00010954124
11
1815.239328964618
21
-511.88273125838
31
6.000109556526
0
LINE
8
0
10
1815.239328964618
20
-511.88273125838
30
6.000109556526
11
1815.000950792918
21
-511.572070823682
31
6.000109573965
0
LINE
8
0
10
1815.000950792918
20
-511.572070823682
30
6.000109573965
11
1814.85109999751
21
-511.210299075829
31
6.00010959237
0
LINE
8
0
10
1814.85109999751
20
-511.210299075829
30
6.00010959237
11
1814.799988662459
21
-510.82207016158
31
6.000109610486
0
LINE
8
0
10
1814.799988662459
20
-510.82207016158
30
6.000109610486
11
1814.851099940784
21
-510.433841239863
31
6.000109627079
0
LINE
8
0
10
1814.851099940784
20
-510.433841239863
30
6.000109627079
11
1815.000950683334
21
-510.072069470115
31
6.000109641018
0
LINE
8
0
10
1815.000950683334
20
-510.072069470115
30
6.000109641018
11
1815.239328809641
21
-509.761409000587
31
6.000109651353
0
LINE
8
0
10
1815.239328809641
20
-509.761409000587
30
6.000109651353
11
1815.549989244339
21
-509.523030828887
31
6.00010965738
0
LINE
8
0
10
1815.549989244339
20
-509.523030828887
30
6.00010965738
11
1815.911760992192
21
-509.373180033479
31
6.000109658687
0
LINE
8
0
10
1815.911760992192
20
-509.373180033479
30
6.000109658687
11
1816.299989906441
21
-509.322068698428
31
6.000109655186
0
LINE
8
0
10
1876.299989926152
20
-665.432575022152
30
6.000108626969
11
1876.688218840401
21
-665.3814636871
31
6.000108628565
0
LINE
8
0
10
1876.688218840401
20
-665.3814636871
30
6.000108628565
11
1877.049990588254
21
-665.231612891692
31
6.000108644815
0
LINE
8
0
10
1877.049990588254
20
-665.231612891692
30
6.000108644815
11
1877.360651022952
21
-664.993234719992
31
6.000108674611
0
LINE
8
0
10
1877.360651022952
20
-664.993234719992
30
6.000108674611
11
1877.59902914926
21
-664.682574250464
31
6.000108715923
0
LINE
8
0
10
1877.59902914926
20
-664.682574250464
30
6.000108715923
11
1877.748879891808
21
-664.320802480716
31
6.000108765936
0
LINE
8
0
10
1877.748879891808
20
-664.320802480716
30
6.000108765936
11
1877.799991170134
21
-663.932573558999
31
6.000108821241
0
LINE
8
0
10
1877.799991170134
20
-663.932573558999
30
6.000108821241
11
1877.748879835082
21
-663.544344644751
31
6.00010887807
0
LINE
8
0
10
1877.748879835082
20
-663.544344644751
30
6.00010887807
11
1877.599029039674
21
-663.182572896897
31
6.000108932549
0
LINE
8
0
10
1877.599029039674
20
-663.182572896897
30
6.000108932549
11
1877.360650867975
21
-662.8719124622
31
6.000108980965
0
LINE
8
0
10
1877.360650867975
20
-662.8719124622
30
6.000108980965
11
1877.049990398446
21
-662.633534335891
31
6.000109020021
0
LINE
8
0
10
1877.049990398446
20
-662.633534335891
30
6.000109020021
11
1876.688218628698
21
-662.483683593343
31
6.000109047053
0
LINE
8
0
10
1876.688218628698
20
-662.483683593343
30
6.000109047053
11
1876.299989706981
21
-662.432572315018
31
6.00010906022
0
LINE
8
0
10
1816.299990125612
20
-657.777054005561
30
6.00010952108
11
1815.911761203895
21
-657.725942727236
31
6.00010952915
0
LINE
8
0
10
1815.911761203895
20
-657.725942727236
30
6.00010952915
11
1815.549989434146
21
-657.576091984688
31
6.00010954124
0
LINE
8
0
10
1815.549989434146
20
-657.576091984688
30
6.00010954124
11
1815.239328964618
21
-657.337713858379
31
6.000109556526
0
LINE
8
0
10
1815.239328964618
20
-657.337713858379
30
6.000109556526
11
1815.000950792918
21
-657.027053423682
31
6.000109573965
0
LINE
8
0
10
1815.000950792918
20
-657.027053423682
30
6.000109573965
11
1814.85109999751
21
-656.665281675829
31
6.00010959237
0
LINE
8
0
10
1814.85109999751
20
-656.665281675829
30
6.00010959237
11
1814.799988662459
21
-656.27705276158
31
6.000109610486
0
LINE
8
0
10
1814.799988662459
20
-656.27705276158
30
6.000109610486
11
1814.851099940784
21
-655.888823839864
31
6.000109627079
0
LINE
8
0
10
1814.851099940784
20
-655.888823839864
30
6.000109627079
11
1815.000950683334
21
-655.527052070115
31
6.000109641018
0
LINE
8
0
10
1815.000950683334
20
-655.527052070115
30
6.000109641018
11
1815.239328809641
21
-655.216391600587
31
6.000109651353
0
LINE
8
0
10
1815.239328809641
20
-655.216391600587
30
6.000109651353
11
1815.549989244339
21
-654.978013428888
31
6.00010965738
0
LINE
8
0
10
1815.549989244339
20
-654.978013428888
30
6.00010965738
11
1815.911760992192
21
-654.828162633479
31
6.000109658687
0
LINE
8
0
10
1815.911760992192
20
-654.828162633479
30
6.000109658687
11
1816.299989906441
21
-654.777051298428
31
6.000109655186
0
LINE
8
0
10
1876.299989926152
20
-657.777049622152
30
6.000108626969
11
1876.688218840401
21
-657.725938287101
31
6.000108628565
0
LINE
8
0
10
1876.688218840401
20
-657.725938287101
30
6.000108628565
11
1877.049990588254
21
-657.576087491692
31
6.000108644815
0
LINE
8
0
10
1877.049990588254
20
-657.576087491692
30
6.000108644815
11
1877.360651022952
21
-657.337709319992
31
6.000108674611
0
LINE
8
0
10
1877.360651022952
20
-657.337709319992
30
6.000108674611
11
1877.59902914926
21
-657.027048850464
31
6.000108715923
0
LINE
8
0
10
1877.59902914926
20
-657.027048850464
30
6.000108715923
11
1877.748879891808
21
-656.665277080716
31
6.000108765936
0
LINE
8
0
10
1877.748879891808
20
-656.665277080716
30
6.000108765936
11
1877.799991170134
21
-656.277048158999
31
6.000108821241
0
LINE
8
0
10
1877.799991170134
20
-656.277048158999
30
6.000108821241
11
1877.748879835082
21
-655.888819244751
31
6.00010887807
0
LINE
8
0
10
1877.748879835082
20
-655.888819244751
30
6.00010887807
11
1877.599029039674
21
-655.527047496897
31
6.000108932549
0
LINE
8
0
10
1877.599029039674
20
-655.527047496897
30
6.000108932549
11
1877.360650867975
21
-655.2163870622
31
6.000108980965
0
LINE
8
0
10
1877.360650867975
20
-655.2163870622
30
6.000108980965
11
1877.049990398446
21
-654.978008935892
31
6.000109020021
0
LINE
8
0
10
1877.049990398446
20
-654.978008935892
30
6.000109020021
11
1876.688218628698
21
-654.828158193343
31
6.000109047053
0
LINE
8
0
10
1876.688218628698
20
-654.828158193343
30
6.000109047053
11
1876.299989706981
21
-654.777046915018
31
6.00010906022
0
LINE
8
0
10
1876.299989926152
20
-512.322067022151
30
6.000108626969
11
1876.688218840401
21
-512.270955687101
31
6.000108628565
0
LINE
8
0
10
1876.688218840401
20
-512.270955687101
30
6.000108628565
11
1877.049990588254
21
-512.121104891692
31
6.000108644815
0
LINE
8
0
10
1877.049990588254
20
-512.121104891692
30
6.000108644815
11
1877.360651022952
21
-511.882726719992
31
6.000108674611
0
LINE
8
0
10
1877.360651022952
20
-511.882726719992
30
6.000108674611
11
1877.59902914926
21
-511.572066250465
31
6.000108715923
0
LINE
8
0
10
1877.59902914926
20
-511.572066250465
30
6.000108715923
11
1877.748879891808
21
-511.210294480716
31
6.000108765936
0
LINE
8
0
10
1877.748879891808
20
-511.210294480716
30
6.000108765936
11
1877.799991170134
21
-510.822065558999
31
6.000108821241
0
LINE
8
0
10
1877.799991170134
20
-510.822065558999
30
6.000108821241
11
1877.748879835082
21
-510.43383664475
31
6.00010887807
0
LINE
8
0
10
1877.748879835082
20
-510.43383664475
30
6.00010887807
11
1877.599029039674
21
-510.072064896898
31
6.000108932549
0
LINE
8
0
10
1877.599029039674
20
-510.072064896898
30
6.000108932549
11
1877.360650867975
21
-509.7614044622
31
6.000108980965
0
LINE
8
0
10
1877.360650867975
20
-509.7614044622
30
6.000108980965
11
1877.049990398446
21
-509.523026335892
31
6.000109020021
0
LINE
8
0
10
1877.049990398446
20
-509.523026335892
30
6.000109020021
11
1876.688218628698
21
-509.373175593343
31
6.000109047053
0
LINE
8
0
10
1876.688218628698
20
-509.373175593343
30
6.000109047053
11
1876.299989706981
21
-509.322064315018
31
6.00010906022
0
LINE
8
0
10
1816.299990125612
20
-673.088104805561
30
6.00010952108
11
1815.911761203895
21
-673.036993527236
31
6.00010952915
0
LINE
8
0
10
1815.911761203895
20
-673.036993527236
30
6.00010952915
11
1815.549989434146
21
-672.887142784688
31
6.00010954124
0
LINE
8
0
10
1815.549989434146
20
-672.887142784688
30
6.00010954124
11
1815.239328964618
21
-672.648764658379
31
6.000109556526
0
LINE
8
0
10
1815.239328964618
20
-672.648764658379
30
6.000109556526
11
1815.000950792918
21
-672.338104223682
31
6.000109573965
0
LINE
8
0
10
1815.000950792918
20
-672.338104223682
30
6.000109573965
11
1814.85109999751
21
-671.976332475829
31
6.00010959237
0
LINE
8
0
10
1814.85109999751
20
-671.976332475829
30
6.00010959237
11
1814.799988662459
21
-671.58810356158
31
6.000109610486
0
LINE
8
0
10
1814.799988662459
20
-671.58810356158
30
6.000109610486
11
1814.851099940784
21
-671.199874639863
31
6.000109627079
0
LINE
8
0
10
1814.851099940784
20
-671.199874639863
30
6.000109627079
11
1815.000950683334
21
-670.838102870115
31
6.000109641018
0
LINE
8
0
10
1815.000950683334
20
-670.838102870115
30
6.000109641018
11
1815.239328809641
21
-670.527442400587
31
6.000109651353
0
LINE
8
0
10
1815.239328809641
20
-670.527442400587
30
6.000109651353
11
1815.549989244339
21
-670.289064228888
31
6.00010965738
0
LINE
8
0
10
1815.549989244339
20
-670.289064228888
30
6.00010965738
11
1815.911760992192
21
-670.139213433479
31
6.000109658687
0
LINE
8
0
10
1815.911760992192
20
-670.139213433479
30
6.000109658687
11
1816.299989906441
21
-670.088102098428
31
6.000109655186
0
LINE
8
0
10
1876.299989926152
20
-573.566270222152
30
6.000108626969
11
1876.688218840401
21
-573.5151588871
31
6.000108628565
0
LINE
8
0
10
1876.688218840401
20
-573.5151588871
30
6.000108628565
11
1877.049990588254
21
-573.365308091692
31
6.000108644815
0
LINE
8
0
10
1877.049990588254
20
-573.365308091692
30
6.000108644815
11
1877.360651022952
21
-573.126929919992
31
6.000108674611
0
LINE
8
0
10
1877.360651022952
20
-573.126929919992
30
6.000108674611
11
1877.59902914926
21
-572.816269450465
31
6.000108715923
0
LINE
8
0
10
1877.59902914926
20
-572.816269450465
30
6.000108715923
11
1877.748879891808
21
-572.454497680716
31
6.000108765936
0
LINE
8
0
10
1877.748879891808
20
-572.454497680716
30
6.000108765936
11
1877.799991170134
21
-572.066268758999
31
6.000108821241
0
LINE
8
0
10
1877.799991170134
20
-572.066268758999
30
6.000108821241
11
1877.748879835082
21
-571.678039844751
31
6.00010887807
0
LINE
8
0
10
1877.748879835082
20
-571.678039844751
30
6.00010887807
11
1877.599029039674
21
-571.316268096898
31
6.000108932549
0
LINE
8
0
10
1877.599029039674
20
-571.316268096898
30
6.000108932549
11
1877.360650867975
21
-571.0056076622
31
6.000108980965
0
LINE
8
0
10
1877.360650867975
20
-571.0056076622
30
6.000108980965
11
1877.049990398446
21
-570.767229535892
31
6.000109020021
0
LINE
8
0
10
1877.049990398446
20
-570.767229535892
30
6.000109020021
11
1876.688218628698
21
-570.617378793343
31
6.000109047053
0
LINE
8
0
10
1876.688218628698
20
-570.617378793343
30
6.000109047053
11
1876.299989706981
21
-570.566267515018
31
6.00010906022
0
LINE
8
0
10
1876.299989926152
20
-673.088100422152
30
6.000108626969
11
1876.688218840401
21
-673.0369890871
31
6.000108628565
0
LINE
8
0
10
1876.688218840401
20
-673.0369890871
30
6.000108628565
11
1877.049990588254
21
-672.887138291692
31
6.000108644815
0
LINE
8
0
10
1877.049990588254
20
-672.887138291692
30
6.000108644815
11
1877.360651022952
21
-672.648760119992
31
6.000108674611
0
LINE
8
0
10
1877.360651022952
20
-672.648760119992
30
6.000108674611
11
1877.59902914926
21
-672.338099650464
31
6.000108715923
0
LINE
8
0
10
1877.59902914926
20
-672.338099650464
30
6.000108715923
11
1877.748879891808
21
-671.976327880716
31
6.000108765936
0
LINE
8
0
10
1877.748879891808
20
-671.976327880716
30
6.000108765936
11
1877.799991170134
21
-671.588098958999
31
6.000108821241
0
LINE
8
0
10
1877.799991170134
20
-671.588098958999
30
6.000108821241
11
1877.748879835082
21
-671.199870044751
31
6.00010887807
0
LINE
8
0
10
1877.748879835082
20
-671.199870044751
30
6.00010887807
11
1877.599029039674
21
-670.838098296897
31
6.000108932549
0
LINE
8
0
10
1877.599029039674
20
-670.838098296897
30
6.000108932549
11
1877.360650867975
21
-670.5274378622
31
6.000108980965
0
LINE
8
0
10
1877.360650867975
20
-670.5274378622
30
6.000108980965
11
1877.049990398446
21
-670.289059735891
31
6.000109020021
0
LINE
8
0
10
1877.049990398446
20
-670.289059735891
30
6.000109020021
11
1876.688218628698
21
-670.139208993343
31
6.000109047053
0
LINE
8
0
10
1876.688218628698
20
-670.139208993343
30
6.000109047053
11
1876.299989706981
21
-670.088097715018
31
6.00010906022
0
LINE
8
0
10
1876.299989926152
20
-565.910744822152
30
6.000108626969
11
1876.688218840401
21
-565.8596334871
31
6.000108628565
0
LINE
8
0
10
1876.688218840401
20
-565.8596334871
30
6.000108628565
11
1877.049990588254
21
-565.709782691692
31
6.000108644815
0
LINE
8
0
10
1877.049990588254
20
-565.709782691692
30
6.000108644815
11
1877.360651022952
21
-565.471404519992
31
6.000108674611
0
LINE
8
0
10
1877.360651022952
20
-565.471404519992
30
6.000108674611
11
1877.59902914926
21
-565.160744050464
31
6.000108715923
0
LINE
8
0
10
1877.59902914926
20
-565.160744050464
30
6.000108715923
11
1877.748879891808
21
-564.798972280716
31
6.000108765936
0
LINE
8
0
10
1877.748879891808
20
-564.798972280716
30
6.000108765936
11
1877.799991170134
21
-564.410743358999
31
6.000108821241
0
LINE
8
0
10
1877.799991170134
20
-564.410743358999
30
6.000108821241
11
1877.748879835082
21
-564.022514444751
31
6.00010887807
0
LINE
8
0
10
1877.748879835082
20
-564.022514444751
30
6.00010887807
11
1877.599029039674
21
-563.660742696897
31
6.000108932549
0
LINE
8
0
10
1877.599029039674
20
-563.660742696897
30
6.000108932549
11
1877.360650867975
21
-563.3500822622
31
6.000108980965
0
LINE
8
0
10
1877.360650867975
20
-563.3500822622
30
6.000108980965
11
1877.049990398446
21
-563.111704135892
31
6.000109020021
0
LINE
8
0
10
1877.049990398446
20
-563.111704135892
30
6.000109020021
11
1876.688218628698
21
-562.961853393343
31
6.000109047053
0
LINE
8
0
10
1876.688218628698
20
-562.961853393343
30
6.000109047053
11
1876.299989706981
21
-562.910742115018
31
6.00010906022
0
LINE
8
0
10
1816.299990125612
20
-642.466003205561
30
6.00010952108
11
1815.911761203895
21
-642.414891927236
31
6.00010952915
0
LINE
8
0
10
1815.911761203895
20
-642.414891927236
30
6.00010952915
11
1815.549989434146
21
-642.265041184688
31
6.00010954124
0
LINE
8
0
10
1815.549989434146
20
-642.265041184688
30
6.00010954124
11
1815.239328964618
21
-642.026663058379
31
6.000109556526
0
LINE
8
0
10
1815.239328964618
20
-642.026663058379
30
6.000109556526
11
1815.000950792918
21
-641.716002623682
31
6.000109573965
0
LINE
8
0
10
1815.000950792918
20
-641.716002623682
30
6.000109573965
11
1814.85109999751
21
-641.354230875828
31
6.00010959237
0
LINE
8
0
10
1814.85109999751
20
-641.354230875828
30
6.00010959237
11
1814.799988662459
21
-640.96600196158
31
6.000109610486
0
LINE
8
0
10
1814.799988662459
20
-640.96600196158
30
6.000109610486
11
1814.851099940784
21
-640.577773039864
31
6.000109627079
0
LINE
8
0
10
1814.851099940784
20
-640.577773039864
30
6.000109627079
11
1815.000950683334
21
-640.216001270115
31
6.000109641018
0
LINE
8
0
10
1815.000950683334
20
-640.216001270115
30
6.000109641018
11
1815.239328809641
21
-639.905340800587
31
6.000109651353
0
LINE
8
0
10
1815.239328809641
20
-639.905340800587
30
6.000109651353
11
1815.549989244339
21
-639.666962628887
31
6.00010965738
0
LINE
8
0
10
1815.549989244339
20
-639.666962628887
30
6.00010965738
11
1815.911760992192
21
-639.517111833479
31
6.000109658687
0
LINE
8
0
10
1815.911760992192
20
-639.517111833479
30
6.000109658687
11
1816.299989906441
21
-639.466000498428
31
6.000109655186
0
LINE
8
0
10
1876.299989926152
20
-642.465998822151
30
6.000108626969
11
1876.688218840401
21
-642.414887487101
31
6.000108628565
0
LINE
8
0
10
1876.688218840401
20
-642.414887487101
30
6.000108628565
11
1877.049990588254
21
-642.265036691692
31
6.000108644815
0
LINE
8
0
10
1877.049990588254
20
-642.265036691692
30
6.000108644815
11
1877.360651022952
21
-642.026658519992
31
6.000108674611
0
LINE
8
0
10
1877.360651022952
20
-642.026658519992
30
6.000108674611
11
1877.59902914926
21
-641.715998050464
31
6.000108715923
0
LINE
8
0
10
1877.59902914926
20
-641.715998050464
30
6.000108715923
11
1877.748879891808
21
-641.354226280716
31
6.000108765936
0
LINE
8
0
10
1877.748879891808
20
-641.354226280716
30
6.000108765936
11
1877.799991170134
21
-640.965997359
31
6.000108821241
0
LINE
8
0
10
1877.799991170134
20
-640.965997359
30
6.000108821241
11
1877.748879835082
21
-640.57776844475
31
6.00010887807
0
LINE
8
0
10
1877.748879835082
20
-640.57776844475
30
6.00010887807
11
1877.599029039674
21
-640.215996696897
31
6.000108932549
0
LINE
8
0
10
1877.599029039674
20
-640.215996696897
30
6.000108932549
11
1877.360650867975
21
-639.9053362622
31
6.000108980965
0
LINE
8
0
10
1877.360650867975
20
-639.9053362622
30
6.000108980965
11
1877.049990398446
21
-639.666958135892
31
6.000109020021
0
LINE
8
0
10
1877.049990398446
20
-639.666958135892
30
6.000109020021
11
1876.688218628698
21
-639.517107393343
31
6.000109047053
0
LINE
8
0
10
1876.688218628698
20
-639.517107393343
30
6.000109047053
11
1876.299989706981
21
-639.465996115017
31
6.00010906022
0
LINE
8
0
10
1816.299990125612
20
-573.566274605562
30
6.00010952108
11
1815.911761203895
21
-573.515163327236
31
6.00010952915
0
LINE
8
0
10
1815.911761203895
20
-573.515163327236
30
6.00010952915
11
1815.549989434146
21
-573.365312584688
31
6.00010954124
0
LINE
8
0
10
1815.549989434146
20
-573.365312584688
30
6.00010954124
11
1815.239328964618
21
-573.12693445838
31
6.000109556526
0
LINE
8
0
10
1815.239328964618
20
-573.12693445838
30
6.000109556526
11
1815.000950792918
21
-572.816274023682
31
6.000109573965
0
LINE
8
0
10
1815.000950792918
20
-572.816274023682
30
6.000109573965
11
1814.85109999751
21
-572.454502275829
31
6.00010959237
0
LINE
8
0
10
1814.85109999751
20
-572.454502275829
30
6.00010959237
11
1814.799988662459
21
-572.06627336158
31
6.000109610486
0
LINE
8
0
10
1814.799988662459
20
-572.06627336158
30
6.000109610486
11
1814.851099940784
21
-571.678044439863
31
6.000109627079
0
LINE
8
0
10
1814.851099940784
20
-571.678044439863
30
6.000109627079
11
1815.000950683334
21
-571.316272670115
31
6.000109641018
0
LINE
8
0
10
1815.000950683334
20
-571.316272670115
30
6.000109641018
11
1815.239328809641
21
-571.005612200587
31
6.000109651353
0
LINE
8
0
10
1815.239328809641
20
-571.005612200587
30
6.000109651353
11
1815.549989244339
21
-570.767234028888
31
6.00010965738
0
LINE
8
0
10
1815.549989244339
20
-570.767234028888
30
6.00010965738
11
1815.911760992192
21
-570.617383233479
31
6.000109658687
0
LINE
8
0
10
1815.911760992192
20
-570.617383233479
30
6.000109658687
11
1816.299989906441
21
-570.566271898428
31
6.000109655186
0
LINE
8
0
10
1816.299990125612
20
-696.054681005562
30
6.00010952108
11
1815.911761203895
21
-696.003569727236
31
6.00010952915
0
LINE
8
0
10
1815.911761203895
20
-696.003569727236
30
6.00010952915
11
1815.549989434146
21
-695.853718984687
31
6.00010954124
0
LINE
8
0
10
1815.549989434146
20
-695.853718984687
30
6.00010954124
11
1815.239328964618
21
-695.61534085838
31
6.000109556526
0
LINE
8
0
10
1815.239328964618
20
-695.61534085838
30
6.000109556526
11
1815.000950792918
21
-695.304680423682
31
6.000109573965
0
LINE
8
0
10
1815.000950792918
20
-695.304680423682
30
6.000109573965
11
1814.85109999751
21
-694.942908675829
31
6.00010959237
0
LINE
8
0
10
1814.85109999751
20
-694.942908675829
30
6.00010959237
11
1814.799988662459
21
-694.55467976158
31
6.000109610486
0
LINE
8
0
10
1814.799988662459
20
-694.55467976158
30
6.000109610486
11
1814.851099940784
21
-694.166450839863
31
6.000109627079
0
LINE
8
0
10
1814.851099940784
20
-694.166450839863
30
6.000109627079
11
1815.000950683334
21
-693.804679070115
31
6.000109641018
0
LINE
8
0
10
1815.000950683334
20
-693.804679070115
30
6.000109641018
11
1815.239328809641
21
-693.494018600587
31
6.000109651353
0
LINE
8
0
10
1815.239328809641
20
-693.494018600587
30
6.000109651353
11
1815.549989244339
21
-693.255640428887
31
6.00010965738
0
LINE
8
0
10
1815.549989244339
20
-693.255640428887
30
6.00010965738
11
1815.911760992192
21
-693.105789633479
31
6.000109658687
0
LINE
8
0
10
1815.911760992192
20
-693.105789633479
30
6.000109658687
11
1816.299989906441
21
-693.054678298428
31
6.000109655186
0
LINE
8
0
10
1876.299989926152
20
-650.121524222151
30
6.000108626969
11
1876.688218840401
21
-650.070412887101
31
6.000108628565
0
LINE
8
0
10
1876.688218840401
20
-650.070412887101
30
6.000108628565
11
1877.049990588254
21
-649.920562091692
31
6.000108644815
0
LINE
8
0
10
1877.049990588254
20
-649.920562091692
30
6.000108644815
11
1877.360651022952
21
-649.682183919992
31
6.000108674611
0
LINE
8
0
10
1877.360651022952
20
-649.682183919992
30
6.000108674611
11
1877.59902914926
21
-649.371523450464
31
6.000108715923
0
LINE
8
0
10
1877.59902914926
20
-649.371523450464
30
6.000108715923
11
1877.748879891808
21
-649.009751680716
31
6.000108765936
0
LINE
8
0
10
1877.748879891808
20
-649.009751680716
30
6.000108765936
11
1877.799991170134
21
-648.621522759
31
6.000108821241
0
LINE
8
0
10
1877.799991170134
20
-648.621522759
30
6.000108821241
11
1877.748879835082
21
-648.23329384475
31
6.00010887807
0
LINE
8
0
10
1877.748879835082
20
-648.23329384475
30
6.00010887807
11
1877.599029039674
21
-647.871522096897
31
6.000108932549
0
LINE
8
0
10
1877.599029039674
20
-647.871522096897
30
6.000108932549
11
1877.360650867975
21
-647.5608616622
31
6.000108980965
0
LINE
8
0
10
1877.360650867975
20
-647.5608616622
30
6.000108980965
11
1877.049990398446
21
-647.322483535892
31
6.000109020021
0
LINE
8
0
10
1877.049990398446
20
-647.322483535892
30
6.000109020021
11
1876.688218628698
21
-647.172632793343
31
6.000109047053
0
LINE
8
0
10
1876.688218628698
20
-647.172632793343
30
6.000109047053
11
1876.299989706981
21
-647.121521515017
31
6.00010906022
0
LINE
8
0
10
1876.299989926152
20
-696.054676622152
30
6.000108626969
11
1876.688218840401
21
-696.0035652871
31
6.000108628565
0
LINE
8
0
10
1876.688218840401
20
-696.0035652871
30
6.000108628565
11
1877.049990588254
21
-695.853714491692
31
6.000108644815
0
LINE
8
0
10
1877.049990588254
20
-695.853714491692
30
6.000108644815
11
1877.360651022952
21
-695.615336319992
31
6.000108674611
0
LINE
8
0
10
1877.360651022952
20
-695.615336319992
30
6.000108674611
11
1877.59902914926
21
-695.304675850464
31
6.000108715923
0
LINE
8
0
10
1877.59902914926
20
-695.304675850464
30
6.000108715923
11
1877.748879891808
21
-694.942904080716
31
6.000108765936
0
LINE
8
0
10
1877.748879891808
20
-694.942904080716
30
6.000108765936
11
1877.799991170134
21
-694.554675158999
31
6.000108821241
0
LINE
8
0
10
1877.799991170134
20
-694.554675158999
30
6.000108821241
11
1877.748879835082
21
-694.166446244751
31
6.00010887807
0
LINE
8
0
10
1877.748879835082
20
-694.166446244751
30
6.00010887807
11
1877.599029039674
21
-693.804674496898
31
6.000108932549
0
LINE
8
0
10
1877.599029039674
20
-693.804674496898
30
6.000108932549
11
1877.360650867975
21
-693.4940140622
31
6.000108980965
0
LINE
8
0
10
1877.360650867975
20
-693.4940140622
30
6.000108980965
11
1877.049990398446
21
-693.255635935892
31
6.000109020021
0
LINE
8
0
10
1877.049990398446
20
-693.255635935892
30
6.000109020021
11
1876.688218628698
21
-693.105785193343
31
6.000109047053
0
LINE
8
0
10
1876.688218628698
20
-693.105785193343
30
6.000109047053
11
1876.299989706981
21
-693.054673915018
31
6.00010906022
0
LINE
8
0
10
1816.299990125612
20
-650.121528605561
30
6.00010952108
11
1815.911761203895
21
-650.070417327236
31
6.00010952915
0
LINE
8
0
10
1815.911761203895
20
-650.070417327236
30
6.00010952915
11
1815.549989434146
21
-649.920566584688
31
6.00010954124
0
LINE
8
0
10
1815.549989434146
20
-649.920566584688
30
6.00010954124
11
1815.239328964618
21
-649.682188458379
31
6.000109556526
0
LINE
8
0
10
1815.239328964618
20
-649.682188458379
30
6.000109556526
11
1815.000950792918
21
-649.371528023682
31
6.000109573965
0
LINE
8
0
10
1815.000950792918
20
-649.371528023682
30
6.000109573965
11
1814.85109999751
21
-649.009756275828
31
6.00010959237
0
LINE
8
0
10
1814.85109999751
20
-649.009756275828
30
6.00010959237
11
1814.799988662459
21
-648.62152736158
31
6.000109610486
0
LINE
8
0
10
1814.799988662459
20
-648.62152736158
30
6.000109610486
11
1814.851099940784
21
-648.233298439864
31
6.000109627079
0
LINE
8
0
10
1814.851099940784
20
-648.233298439864
30
6.000109627079
11
1815.000950683334
21
-647.871526670115
31
6.000109641018
0
LINE
8
0
10
1815.000950683334
20
-647.871526670115
30
6.000109641018
11
1815.239328809641
21
-647.560866200587
31
6.000109651353
0
LINE
8
0
10
1815.239328809641
20
-647.560866200587
30
6.000109651353
11
1815.549989244339
21
-647.322488028887
31
6.00010965738
0
LINE
8
0
10
1815.549989244339
20
-647.322488028887
30
6.00010965738
11
1815.911760992192
21
-647.172637233479
31
6.000109658687
0
LINE
8
0
10
1815.911760992192
20
-647.172637233479
30
6.000109658687
11
1816.299989906441
21
-647.121525898428
31
6.000109655186
0
LINE
8
0
10
1876.299989926152
20
-497.011016222152
30
6.000108626969
11
1876.688218840401
21
-496.959904887101
31
6.000108628565
0
LINE
8
0
10
1876.688218840401
20
-496.959904887101
30
6.000108628565
11
1877.049990588254
21
-496.810054091692
31
6.000108644815
0
LINE
8
0
10
1877.049990588254
20
-496.810054091692
30
6.000108644815
11
1877.360651022952
21
-496.571675919993
31
6.000108674611
0
LINE
8
0
10
1877.360651022952
20
-496.571675919993
30
6.000108674611
11
1877.59902914926
21
-496.261015450465
31
6.000108715923
0
LINE
8
0
10
1877.59902914926
20
-496.261015450465
30
6.000108715923
11
1877.748879891808
21
-495.899243680716
31
6.000108765936
0
LINE
8
0
10
1877.748879891808
20
-495.899243680716
30
6.000108765936
11
1877.799991170134
21
-495.511014758999
31
6.000108821241
0
LINE
8
0
10
1877.799991170134
20
-495.511014758999
30
6.000108821241
11
1877.748879835082
21
-495.122785844751
31
6.00010887807
0
LINE
8
0
10
1877.748879835082
20
-495.122785844751
30
6.00010887807
11
1877.599029039674
21
-494.761014096898
31
6.000108932549
0
LINE
8
0
10
1877.599029039674
20
-494.761014096898
30
6.000108932549
11
1877.360650867975
21
-494.4503536622
31
6.000108980965
0
LINE
8
0
10
1877.360650867975
20
-494.4503536622
30
6.000108980965
11
1877.049990398446
21
-494.211975535892
31
6.000109020021
0
LINE
8
0
10
1877.049990398446
20
-494.211975535892
30
6.000109020021
11
1876.688218628698
21
-494.062124793343
31
6.000109047053
0
LINE
8
0
10
1876.688218628698
20
-494.062124793343
30
6.000109047053
11
1876.299989706981
21
-494.011013515018
31
6.00010906022
0
LINE
8
0
10
1816.299990125612
20
-504.666546005562
30
6.00010952108
11
1815.911761203895
21
-504.615434727237
31
6.00010952915
0
LINE
8
0
10
1815.911761203895
20
-504.615434727237
30
6.00010952915
11
1815.549989434146
21
-504.465583984687
31
6.00010954124
0
LINE
8
0
10
1815.549989434146
20
-504.465583984687
30
6.00010954124
11
1815.239328964618
21
-504.22720585838
31
6.000109556526
0
LINE
8
0
10
1815.239328964618
20
-504.22720585838
30
6.000109556526
11
1815.000950792918
21
-503.916545423682
31
6.000109573965
0
LINE
8
0
10
1815.000950792918
20
-503.916545423682
30
6.000109573965
11
1814.85109999751
21
-503.554773675829
31
6.00010959237
0
LINE
8
0
10
1814.85109999751
20
-503.554773675829
30
6.00010959237
11
1814.799988662459
21
-503.16654476158
31
6.000109610486
0
LINE
8
0
10
1814.799988662459
20
-503.16654476158
30
6.000109610486
11
1814.851099940784
21
-502.778315839863
31
6.000109627079
0
LINE
8
0
10
1814.851099940784
20
-502.778315839863
30
6.000109627079
11
1815.000950683334
21
-502.416544070115
31
6.000109641018
0
LINE
8
0
10
1815.000950683334
20
-502.416544070115
30
6.000109641018
11
1815.239328809641
21
-502.105883600587
31
6.000109651353
0
LINE
8
0
10
1815.239328809641
20
-502.105883600587
30
6.000109651353
11
1815.549989244339
21
-501.867505428887
31
6.00010965738
0
LINE
8
0
10
1815.549989244339
20
-501.867505428887
30
6.00010965738
11
1815.911760992192
21
-501.717654633479
31
6.000109658687
0
LINE
8
0
10
1815.911760992192
20
-501.717654633479
30
6.000109658687
11
1816.299989906441
21
-501.666543298428
31
6.000109655186
0
LINE
8
0
10
1816.299990125612
20
-497.011020605562
30
6.00010952108
11
1815.911761203895
21
-496.959909327237
31
6.00010952915
0
LINE
8
0
10
1815.911761203895
20
-496.959909327237
30
6.00010952915
11
1815.549989434146
21
-496.810058584687
31
6.00010954124
0
LINE
8
0
10
1815.549989434146
20
-496.810058584687
30
6.00010954124
11
1815.239328964618
21
-496.57168045838
31
6.000109556526
0
LINE
8
0
10
1815.239328964618
20
-496.57168045838
30
6.000109556526
11
1815.000950792918
21
-496.261020023682
31
6.000109573965
0
LINE
8
0
10
1815.000950792918
20
-496.261020023682
30
6.000109573965
11
1814.85109999751
21
-495.899248275829
31
6.00010959237
0
LINE
8
0
10
1814.85109999751
20
-495.899248275829
30
6.00010959237
11
1814.799988662459
21
-495.51101936158
31
6.000109610486
0
LINE
8
0
10
1814.799988662459
20
-495.51101936158
30
6.000109610486
11
1814.851099940784
21
-495.122790439863
31
6.000109627079
0
LINE
8
0
10
1814.851099940784
20
-495.122790439863
30
6.000109627079
11
1815.000950683334
21
-494.761018670116
31
6.000109641018
0
LINE
8
0
10
1815.000950683334
20
-494.761018670116
30
6.000109641018
11
1815.239328809641
21
-494.450358200588
31
6.000109651353
0
LINE
8
0
10
1815.239328809641
20
-494.450358200588
30
6.000109651353
11
1815.549989244339
21
-494.211980028888
31
6.00010965738
0
LINE
8
0
10
1815.549989244339
20
-494.211980028888
30
6.00010965738
11
1815.911760992192
21
-494.062129233479
31
6.000109658687
0
LINE
8
0
10
1815.911760992192
20
-494.062129233479
30
6.000109658687
11
1816.299989906441
21
-494.011017898428
31
6.000109655186
0
LINE
8
0
10
1876.299989926152
20
-504.666541622152
30
6.000108626969
11
1876.688218840401
21
-504.615430287101
31
6.000108628565
0
LINE
8
0
10
1876.688218840401
20
-504.615430287101
30
6.000108628565
11
1877.049990588254
21
-504.465579491692
31
6.000108644815
0
LINE
8
0
10
1877.049990588254
20
-504.465579491692
30
6.000108644815
11
1877.360651022952
21
-504.227201319993
31
6.000108674611
0
LINE
8
0
10
1877.360651022952
20
-504.227201319993
30
6.000108674611
11
1877.59902914926
21
-503.916540850465
31
6.000108715923
0
LINE
8
0
10
1877.59902914926
20
-503.916540850465
30
6.000108715923
11
1877.748879891808
21
-503.554769080716
31
6.000108765936
0
LINE
8
0
10
1877.748879891808
20
-503.554769080716
30
6.000108765936
11
1877.799991170134
21
-503.166540158999
31
6.000108821241
0
LINE
8
0
10
1877.799991170134
20
-503.166540158999
30
6.000108821241
11
1877.748879835082
21
-502.778311244751
31
6.00010887807
0
LINE
8
0
10
1877.748879835082
20
-502.778311244751
30
6.00010887807
11
1877.599029039674
21
-502.416539496898
31
6.000108932549
0
LINE
8
0
10
1877.599029039674
20
-502.416539496898
30
6.000108932549
11
1877.360650867975
21
-502.1058790622
31
6.000108980965
0
LINE
8
0
10
1877.360650867975
20
-502.1058790622
30
6.000108980965
11
1877.049990398446
21
-501.867500935892
31
6.000109020021
0
LINE
8
0
10
1877.049990398446
20
-501.867500935892
30
6.000109020021
11
1876.688218628698
21
-501.717650193343
31
6.000109047053
0
LINE
8
0
10
1876.688218628698
20
-501.717650193343
30
6.000109047053
11
1876.299989706981
21
-501.666538915018
31
6.00010906022
0
LINE
8
0
10
1876.299989926152
20
-489.355490822152
30
6.000108626969
11
1876.688218840401
21
-489.3043794871
31
6.000108628565
0
LINE
8
0
10
1876.688218840401
20
-489.3043794871
30
6.000108628565
11
1877.049990588254
21
-489.154528691692
31
6.000108644815
0
LINE
8
0
10
1877.049990588254
20
-489.154528691692
30
6.000108644815
11
1877.360651022952
21
-488.916150519992
31
6.000108674611
0
LINE
8
0
10
1877.360651022952
20
-488.916150519992
30
6.000108674611
11
1877.59902914926
21
-488.605490050465
31
6.000108715923
0
LINE
8
0
10
1877.59902914926
20
-488.605490050465
30
6.000108715923
11
1877.748879891808
21
-488.243718280716
31
6.000108765936
0
LINE
8
0
10
1877.748879891808
20
-488.243718280716
30
6.000108765936
11
1877.799991170134
21
-487.855489358999
31
6.000108821241
0
LINE
8
0
10
1877.799991170134
20
-487.855489358999
30
6.000108821241
11
1877.748879835082
21
-487.467260444751
31
6.00010887807
0
LINE
8
0
10
1877.748879835082
20
-487.467260444751
30
6.00010887807
11
1877.599029039674
21
-487.105488696898
31
6.000108932549
0
LINE
8
0
10
1877.599029039674
20
-487.105488696898
30
6.000108932549
11
1877.360650867975
21
-486.7948282622
31
6.000108980965
0
LINE
8
0
10
1877.360650867975
20
-486.7948282622
30
6.000108980965
11
1877.049990398446
21
-486.556450135892
31
6.000109020021
0
LINE
8
0
10
1877.049990398446
20
-486.556450135892
30
6.000109020021
11
1876.688218628698
21
-486.406599393343
31
6.000109047053
0
LINE
8
0
10
1876.688218628698
20
-486.406599393343
30
6.000109047053
11
1876.299989706981
21
-486.355488115018
31
6.00010906022
0
LINE
8
0
10
1876.299989926152
20
-680.743625822152
30
6.000108626969
11
1876.688218840401
21
-680.6925144871
31
6.000108628565
0
LINE
8
0
10
1876.688218840401
20
-680.6925144871
30
6.000108628565
11
1877.049990588254
21
-680.542663691692
31
6.000108644815
0
LINE
8
0
10
1877.049990588254
20
-680.542663691692
30
6.000108644815
11
1877.360651022952
21
-680.304285519992
31
6.000108674611
0
LINE
8
0
10
1877.360651022952
20
-680.304285519992
30
6.000108674611
11
1877.59902914926
21
-679.993625050464
31
6.000108715923
0
LINE
8
0
10
1877.59902914926
20
-679.993625050464
30
6.000108715923
11
1877.748879891808
21
-679.631853280716
31
6.000108765936
0
LINE
8
0
10
1877.748879891808
20
-679.631853280716
30
6.000108765936
11
1877.799991170134
21
-679.243624358999
31
6.000108821241
0
LINE
8
0
10
1877.799991170134
20
-679.243624358999
30
6.000108821241
11
1877.748879835082
21
-678.855395444751
31
6.00010887807
0
LINE
8
0
10
1877.748879835082
20
-678.855395444751
30
6.00010887807
11
1877.599029039674
21
-678.493623696897
31
6.000108932549
0
LINE
8
0
10
1877.599029039674
20
-678.493623696897
30
6.000108932549
11
1877.360650867975
21
-678.1829632622
31
6.000108980965
0
LINE
8
0
10
1877.360650867975
20
-678.1829632622
30
6.000108980965
11
1877.049990398446
21
-677.944585135891
31
6.000109020021
0
LINE
8
0
10
1877.049990398446
20
-677.944585135891
30
6.000109020021
11
1876.688218628698
21
-677.794734393343
31
6.000109047053
0
LINE
8
0
10
1876.688218628698
20
-677.794734393343
30
6.000109047053
11
1876.299989706981
21
-677.743623115018
31
6.00010906022
0
LINE
8
0
10
1816.299990125612
20
-680.743630205561
30
6.00010952108
11
1815.911761203895
21
-680.692518927236
31
6.00010952915
0
LINE
8
0
10
1815.911761203895
20
-680.692518927236
30
6.00010952915
11
1815.549989434146
21
-680.542668184687
31
6.00010954124
0
LINE
8
0
10
1815.549989434146
20
-680.542668184687
30
6.00010954124
11
1815.239328964618
21
-680.304290058379
31
6.000109556526
0
LINE
8
0
10
1815.239328964618
20
-680.304290058379
30
6.000109556526
11
1815.000950792918
21
-679.993629623682
31
6.000109573965
0
LINE
8
0
10
1815.000950792918
20
-679.993629623682
30
6.000109573965
11
1814.85109999751
21
-679.631857875829
31
6.00010959237
0
LINE
8
0
10
1814.85109999751
20
-679.631857875829
30
6.00010959237
11
1814.799988662459
21
-679.24362896158
31
6.000109610486
0
LINE
8
0
10
1814.799988662459
20
-679.24362896158
30
6.000109610486
11
1814.851099940784
21
-678.855400039863
31
6.000109627079
0
LINE
8
0
10
1814.851099940784
20
-678.855400039863
30
6.000109627079
11
1815.000950683334
21
-678.493628270115
31
6.000109641018
0
LINE
8
0
10
1815.000950683334
20
-678.493628270115
30
6.000109641018
11
1815.239328809641
21
-678.182967800587
31
6.000109651353
0
LINE
8
0
10
1815.239328809641
20
-678.182967800587
30
6.000109651353
11
1815.549989244339
21
-677.944589628888
31
6.00010965738
0
LINE
8
0
10
1815.549989244339
20
-677.944589628888
30
6.00010965738
11
1815.911760992192
21
-677.794738833478
31
6.000109658687
0
LINE
8
0
10
1815.911760992192
20
-677.794738833478
30
6.000109658687
11
1816.299989906441
21
-677.743627498428
31
6.000109655186
0
LINE
8
0
10
1816.299990125612
20
-489.355495205562
30
6.00010952108
11
1815.911761203895
21
-489.304383927236
31
6.00010952915
0
LINE
8
0
10
1815.911761203895
20
-489.304383927236
30
6.00010952915
11
1815.549989434146
21
-489.154533184687
31
6.00010954124
0
LINE
8
0
10
1815.549989434146
20
-489.154533184687
30
6.00010954124
11
1815.239328964618
21
-488.91615505838
31
6.000109556526
0
LINE
8
0
10
1815.239328964618
20
-488.91615505838
30
6.000109556526
11
1815.000950792918
21
-488.605494623682
31
6.000109573965
0
LINE
8
0
10
1815.000950792918
20
-488.605494623682
30
6.000109573965
11
1814.85109999751
21
-488.243722875829
31
6.00010959237
0
LINE
8
0
10
1814.85109999751
20
-488.243722875829
30
6.00010959237
11
1814.799988662459
21
-487.85549396158
31
6.000109610486
0
LINE
8
0
10
1814.799988662459
20
-487.85549396158
30
6.000109610486
11
1814.851099940784
21
-487.467265039863
31
6.000109627079
0
LINE
8
0
10
1814.851099940784
20
-487.467265039863
30
6.000109627079
11
1815.000950683334
21
-487.105493270115
31
6.000109641018
0
LINE
8
0
10
1815.000950683334
20
-487.105493270115
30
6.000109641018
11
1815.239328809641
21
-486.794832800587
31
6.000109651353
0
LINE
8
0
10
1815.239328809641
20
-486.794832800587
30
6.000109651353
11
1815.549989244339
21
-486.556454628888
31
6.00010965738
0
LINE
8
0
10
1815.549989244339
20
-486.556454628888
30
6.00010965738
11
1815.911760992192
21
-486.406603833479
31
6.000109658687
0
LINE
8
0
10
1815.911760992192
20
-486.406603833479
30
6.000109658687
11
1816.299989906441
21
-486.355492498428
31
6.000109655186
0
LINE
8
0
10
1876.299989926152
20
-604.188371822152
30
6.000108626969
11
1876.688218840401
21
-604.137260487101
31
6.000108628565
0
LINE
8
0
10
1876.688218840401
20
-604.137260487101
30
6.000108628565
11
1877.049990588254
21
-603.987409691693
31
6.000108644815
0
LINE
8
0
10
1877.049990588254
20
-603.987409691693
30
6.000108644815
11
1877.360651022952
21
-603.749031519993
31
6.000108674611
0
LINE
8
0
10
1877.360651022952
20
-603.749031519993
30
6.000108674611
11
1877.59902914926
21
-603.438371050465
31
6.000108715923
0
LINE
8
0
10
1877.59902914926
20
-603.438371050465
30
6.000108715923
11
1877.748879891808
21
-603.076599280717
31
6.000108765936
0
LINE
8
0
10
1877.748879891808
20
-603.076599280717
30
6.000108765936
11
1877.799991170134
21
-602.688370359
31
6.000108821241
0
LINE
8
0
10
1877.799991170134
20
-602.688370359
30
6.000108821241
11
1877.748879835082
21
-602.300141444751
31
6.00010887807
0
LINE
8
0
10
1877.748879835082
20
-602.300141444751
30
6.00010887807
11
1877.599029039674
21
-601.938369696898
31
6.000108932549
0
LINE
8
0
10
1877.599029039674
20
-601.938369696898
30
6.000108932549
11
1877.360650867975
21
-601.6277092622
31
6.000108980965
0
LINE
8
0
10
1877.360650867975
20
-601.6277092622
30
6.000108980965
11
1877.049990398446
21
-601.389331135892
31
6.000109020021
0
LINE
8
0
10
1877.049990398446
20
-601.389331135892
30
6.000109020021
11
1876.688218628698
21
-601.239480393343
31
6.000109047053
0
LINE
8
0
10
1876.688218628698
20
-601.239480393343
30
6.000109047053
11
1876.299989706981
21
-601.188369115018
31
6.00010906022
0
LINE
8
0
10
1816.299990125612
20
-627.154952405562
30
6.00010952108
11
1815.911761203895
21
-627.103841127236
31
6.00010952915
0
LINE
8
0
10
1815.911761203895
20
-627.103841127236
30
6.00010952915
11
1815.549989434146
21
-626.953990384688
31
6.00010954124
0
LINE
8
0
10
1815.549989434146
20
-626.953990384688
30
6.00010954124
11
1815.239328964618
21
-626.71561225838
31
6.000109556526
0
LINE
8
0
10
1815.239328964618
20
-626.71561225838
30
6.000109556526
11
1815.000950792918
21
-626.404951823682
31
6.000109573965
0
LINE
8
0
10
1815.000950792918
20
-626.404951823682
30
6.000109573965
11
1814.85109999751
21
-626.043180075829
31
6.00010959237
0
LINE
8
0
10
1814.85109999751
20
-626.043180075829
30
6.00010959237
11
1814.799988662459
21
-625.654951161581
31
6.000109610486
0
LINE
8
0
10
1814.799988662459
20
-625.654951161581
30
6.000109610486
11
1814.851099940784
21
-625.266722239864
31
6.000109627079
0
LINE
8
0
10
1814.851099940784
20
-625.266722239864
30
6.000109627079
11
1815.000950683334
21
-624.904950470115
31
6.000109641018
0
LINE
8
0
10
1815.000950683334
20
-624.904950470115
30
6.000109641018
11
1815.239328809641
21
-624.594290000587
31
6.000109651353
0
LINE
8
0
10
1815.239328809641
20
-624.594290000587
30
6.000109651353
11
1815.549989244339
21
-624.355911828888
31
6.00010965738
0
LINE
8
0
10
1815.549989244339
20
-624.355911828888
30
6.00010965738
11
1815.911760992192
21
-624.20606103348
31
6.000109658687
0
LINE
8
0
10
1815.911760992192
20
-624.20606103348
30
6.000109658687
11
1816.299989906441
21
-624.154949698428
31
6.000109655186
0
LINE
8
0
10
1876.299989926152
20
-627.154948022152
30
6.000108626969
11
1876.688218840401
21
-627.103836687101
31
6.000108628565
0
LINE
8
0
10
1876.688218840401
20
-627.103836687101
30
6.000108628565
11
1877.049990588254
21
-626.953985891692
31
6.000108644815
0
LINE
8
0
10
1877.049990588254
20
-626.953985891692
30
6.000108644815
11
1877.360651022952
21
-626.715607719992
31
6.000108674611
0
LINE
8
0
10
1877.360651022952
20
-626.715607719992
30
6.000108674611
11
1877.59902914926
21
-626.404947250465
31
6.000108715923
0
LINE
8
0
10
1877.59902914926
20
-626.404947250465
30
6.000108715923
11
1877.748879891808
21
-626.043175480717
31
6.000108765936
0
LINE
8
0
10
1877.748879891808
20
-626.043175480717
30
6.000108765936
11
1877.799991170134
21
-625.654946559
31
6.000108821241
0
LINE
8
0
10
1877.799991170134
20
-625.654946559
30
6.000108821241
11
1877.748879835082
21
-625.266717644751
31
6.00010887807
0
LINE
8
0
10
1877.748879835082
20
-625.266717644751
30
6.00010887807
11
1877.599029039674
21
-624.904945896898
31
6.000108932549
0
LINE
8
0
10
1877.599029039674
20
-624.904945896898
30
6.000108932549
11
1877.360650867975
21
-624.5942854622
31
6.000108980965
0
LINE
8
0
10
1877.360650867975
20
-624.5942854622
30
6.000108980965
11
1877.049990398446
21
-624.355907335893
31
6.000109020021
0
LINE
8
0
10
1877.049990398446
20
-624.355907335893
30
6.000109020021
11
1876.688218628698
21
-624.206056593343
31
6.000109047053
0
LINE
8
0
10
1876.688218628698
20
-624.206056593343
30
6.000109047053
11
1876.299989706981
21
-624.154945315018
31
6.00010906022
0
LINE
8
0
10
1816.299990125612
20
-604.188376205562
30
6.00010952108
11
1815.911761203895
21
-604.137264927237
31
6.00010952915
0
LINE
8
0
10
1815.911761203895
20
-604.137264927237
30
6.00010952915
11
1815.549989434146
21
-603.987414184688
31
6.00010954124
0
LINE
8
0
10
1815.549989434146
20
-603.987414184688
30
6.00010954124
11
1815.239328964618
21
-603.74903605838
31
6.000109556526
0
LINE
8
0
10
1815.239328964618
20
-603.74903605838
30
6.000109556526
11
1815.000950792918
21
-603.438375623682
31
6.000109573965
0
LINE
8
0
10
1815.000950792918
20
-603.438375623682
30
6.000109573965
11
1814.85109999751
21
-603.076603875829
31
6.00010959237
0
LINE
8
0
10
1814.85109999751
20
-603.076603875829
30
6.00010959237
11
1814.799988662459
21
-602.688374961581
31
6.000109610486
0
LINE
8
0
10
1814.799988662459
20
-602.688374961581
30
6.000109610486
11
1814.851099940784
21
-602.300146039864
31
6.000109627079
0
LINE
8
0
10
1814.851099940784
20
-602.300146039864
30
6.000109627079
11
1815.000950683334
21
-601.938374270115
31
6.000109641018
0
LINE
8
0
10
1815.000950683334
20
-601.938374270115
30
6.000109641018
11
1815.239328809641
21
-601.627713800587
31
6.000109651353
0
LINE
8
0
10
1815.239328809641
20
-601.627713800587
30
6.000109651353
11
1815.549989244339
21
-601.389335628888
31
6.00010965738
0
LINE
8
0
10
1815.549989244339
20
-601.389335628888
30
6.00010965738
11
1815.911760992192
21
-601.239484833479
31
6.000109658687
0
LINE
8
0
10
1815.911760992192
20
-601.239484833479
30
6.000109658687
11
1816.299989906441
21
-601.188373498428
31
6.000109655186
0
LINE
8
0
10
1816.299990125612
20
-611.843901605562
30
6.00010952108
11
1815.911761203895
21
-611.792790327237
31
6.00010952915
0
LINE
8
0
10
1815.911761203895
20
-611.792790327237
30
6.00010952915
11
1815.549989434146
21
-611.642939584688
31
6.00010954124
0
LINE
8
0
10
1815.549989434146
20
-611.642939584688
30
6.00010954124
11
1815.239328964618
21
-611.40456145838
31
6.000109556526
0
LINE
8
0
10
1815.239328964618
20
-611.40456145838
30
6.000109556526
11
1815.000950792918
21
-611.093901023682
31
6.000109573965
0
LINE
8
0
10
1815.000950792918
20
-611.093901023682
30
6.000109573965
11
1814.85109999751
21
-610.732129275829
31
6.00010959237
0
LINE
8
0
10
1814.85109999751
20
-610.732129275829
30
6.00010959237
11
1814.799988662459
21
-610.343900361581
31
6.000109610486
0
LINE
8
0
10
1814.799988662459
20
-610.343900361581
30
6.000109610486
11
1814.851099940784
21
-609.955671439864
31
6.000109627079
0
LINE
8
0
10
1814.851099940784
20
-609.955671439864
30
6.000109627079
11
1815.000950683334
21
-609.593899670115
31
6.000109641018
0
LINE
8
0
10
1815.000950683334
20
-609.593899670115
30
6.000109641018
11
1815.239328809641
21
-609.283239200587
31
6.000109651353
0
LINE
8
0
10
1815.239328809641
20
-609.283239200587
30
6.000109651353
11
1815.549989244339
21
-609.044861028888
31
6.00010965738
0
LINE
8
0
10
1815.549989244339
20
-609.044861028888
30
6.00010965738
11
1815.911760992192
21
-608.895010233479
31
6.000109658687
0
LINE
8
0
10
1815.911760992192
20
-608.895010233479
30
6.000109658687
11
1816.299989906441
21
-608.843898898428
31
6.000109655186
0
LINE
8
0
10
1876.299989926152
20
-611.843897222152
30
6.000108626969
11
1876.688218840401
21
-611.792785887101
31
6.000108628565
0
LINE
8
0
10
1876.688218840401
20
-611.792785887101
30
6.000108628565
11
1877.049990588254
21
-611.642935091692
31
6.000108644815
0
LINE
8
0
10
1877.049990588254
20
-611.642935091692
30
6.000108644815
11
1877.360651022952
21
-611.404556919993
31
6.000108674611
0
LINE
8
0
10
1877.360651022952
20
-611.404556919993
30
6.000108674611
11
1877.59902914926
21
-611.093896450465
31
6.000108715923
0
LINE
8
0
10
1877.59902914926
20
-611.093896450465
30
6.000108715923
11
1877.748879891808
21
-610.732124680717
31
6.000108765936
0
LINE
8
0
10
1877.748879891808
20
-610.732124680717
30
6.000108765936
11
1877.799991170134
21
-610.343895759
31
6.000108821241
0
LINE
8
0
10
1877.799991170134
20
-610.343895759
30
6.000108821241
11
1877.748879835082
21
-609.955666844751
31
6.00010887807
0
LINE
8
0
10
1877.748879835082
20
-609.955666844751
30
6.00010887807
11
1877.599029039674
21
-609.593895096898
31
6.000108932549
0
LINE
8
0
10
1877.599029039674
20
-609.593895096898
30
6.000108932549
11
1877.360650867975
21
-609.2832346622
31
6.000108980965
0
LINE
8
0
10
1877.360650867975
20
-609.2832346622
30
6.000108980965
11
1877.049990398446
21
-609.044856535892
31
6.000109020021
0
LINE
8
0
10
1877.049990398446
20
-609.044856535892
30
6.000109020021
11
1876.688218628698
21
-608.895005793343
31
6.000109047053
0
LINE
8
0
10
1876.688218628698
20
-608.895005793343
30
6.000109047053
11
1876.299989706981
21
-608.843894515018
31
6.00010906022
0
LINE
8
0
10
1816.299990125612
20
-588.877325405562
30
6.00010952108
11
1815.911761203895
21
-588.826214127236
31
6.00010952915
0
LINE
8
0
10
1815.911761203895
20
-588.826214127236
30
6.00010952915
11
1815.549989434146
21
-588.676363384687
31
6.00010954124
0
LINE
8
0
10
1815.549989434146
20
-588.676363384687
30
6.00010954124
11
1815.239328964618
21
-588.43798525838
31
6.000109556526
0
LINE
8
0
10
1815.239328964618
20
-588.43798525838
30
6.000109556526
11
1815.000950792918
21
-588.127324823682
31
6.000109573965
0
LINE
8
0
10
1815.000950792918
20
-588.127324823682
30
6.000109573965
11
1814.85109999751
21
-587.765553075829
31
6.00010959237
0
LINE
8
0
10
1814.85109999751
20
-587.765553075829
30
6.00010959237
11
1814.799988662459
21
-587.37732416158
31
6.000109610486
0
LINE
8
0
10
1814.799988662459
20
-587.37732416158
30
6.000109610486
11
1814.851099940784
21
-586.989095239863
31
6.000109627079
0
LINE
8
0
10
1814.851099940784
20
-586.989095239863
30
6.000109627079
11
1815.000950683334
21
-586.627323470115
31
6.000109641018
0
LINE
8
0
10
1815.000950683334
20
-586.627323470115
30
6.000109641018
11
1815.239328809641
21
-586.316663000587
31
6.000109651353
0
LINE
8
0
10
1815.239328809641
20
-586.316663000587
30
6.000109651353
11
1815.549989244339
21
-586.078284828887
31
6.00010965738
0
LINE
8
0
10
1815.549989244339
20
-586.078284828887
30
6.00010965738
11
1815.911760992192
21
-585.928434033479
31
6.000109658687
0
LINE
8
0
10
1815.911760992192
20
-585.928434033479
30
6.000109658687
11
1816.299989906441
21
-585.877322698428
31
6.000109655186
0
LINE
8
0
10
1876.299989926152
20
-588.877321022152
30
6.000108626969
11
1876.688218840401
21
-588.8262096871
31
6.000108628565
0
LINE
8
0
10
1876.688218840401
20
-588.8262096871
30
6.000108628565
11
1877.049990588254
21
-588.676358891692
31
6.000108644815
0
LINE
8
0
10
1877.049990588254
20
-588.676358891692
30
6.000108644815
11
1877.360651022952
21
-588.437980719992
31
6.000108674611
0
LINE
8
0
10
1877.360651022952
20
-588.437980719992
30
6.000108674611
11
1877.59902914926
21
-588.127320250465
31
6.000108715923
0
LINE
8
0
10
1877.59902914926
20
-588.127320250465
30
6.000108715923
11
1877.748879891808
21
-587.765548480716
31
6.000108765936
0
LINE
8
0
10
1877.748879891808
20
-587.765548480716
30
6.000108765936
11
1877.799991170134
21
-587.377319558999
31
6.000108821241
0
LINE
8
0
10
1877.799991170134
20
-587.377319558999
30
6.000108821241
11
1877.748879835082
21
-586.989090644751
31
6.00010887807
0
LINE
8
0
10
1877.748879835082
20
-586.989090644751
30
6.00010887807
11
1877.599029039674
21
-586.627318896898
31
6.000108932549
0
LINE
8
0
10
1877.599029039674
20
-586.627318896898
30
6.000108932549
11
1877.360650867975
21
-586.3166584622
31
6.000108980965
0
LINE
8
0
10
1877.360650867975
20
-586.3166584622
30
6.000108980965
11
1877.049990398446
21
-586.078280335892
31
6.000109020021
0
LINE
8
0
10
1877.049990398446
20
-586.078280335892
30
6.000109020021
11
1876.688218628698
21
-585.928429593343
31
6.000109047053
0
LINE
8
0
10
1876.688218628698
20
-585.928429593343
30
6.000109047053
11
1876.299989706981
21
-585.877318315018
31
6.00010906022
0
LINE
8
0
10
1816.299990125612
20
-565.910749205561
30
6.00010952108
11
1815.911761203895
21
-565.859637927236
31
6.00010952915
0
LINE
8
0
10
1815.911761203895
20
-565.859637927236
30
6.00010952915
11
1815.549989434146
21
-565.709787184688
31
6.00010954124
0
LINE
8
0
10
1815.549989434146
20
-565.709787184688
30
6.00010954124
11
1815.239328964618
21
-565.471409058379
31
6.000109556526
0
LINE
8
0
10
1815.239328964618
20
-565.471409058379
30
6.000109556526
11
1815.000950792918
21
-565.160748623682
31
6.000109573965
0
LINE
8
0
10
1815.000950792918
20
-565.160748623682
30
6.000109573965
11
1814.85109999751
21
-564.798976875829
31
6.00010959237
0
LINE
8
0
10
1814.85109999751
20
-564.798976875829
30
6.00010959237
11
1814.799988662459
21
-564.41074796158
31
6.000109610486
0
LINE
8
0
10
1814.799988662459
20
-564.41074796158
30
6.000109610486
11
1814.851099940784
21
-564.022519039864
31
6.000109627079
0
LINE
8
0
10
1814.851099940784
20
-564.022519039864
30
6.000109627079
11
1815.000950683334
21
-563.660747270115
31
6.000109641018
0
LINE
8
0
10
1815.000950683334
20
-563.660747270115
30
6.000109641018
11
1815.239328809641
21
-563.350086800587
31
6.000109651353
0
LINE
8
0
10
1815.239328809641
20
-563.350086800587
30
6.000109651353
11
1815.549989244339
21
-563.111708628888
31
6.00010965738
0
LINE
8
0
10
1815.549989244339
20
-563.111708628888
30
6.00010965738
11
1815.911760992192
21
-562.961857833479
31
6.000109658687
0
LINE
8
0
10
1815.911760992192
20
-562.961857833479
30
6.000109658687
11
1816.299989906441
21
-562.910746498428
31
6.000109655186
0
LINE
8
0
10
1876.299989926152
20
-542.944168622151
30
6.000108626969
11
1876.688218840401
21
-542.893057287101
31
6.000108628565
0
LINE
8
0
10
1876.688218840401
20
-542.893057287101
30
6.000108628565
11
1877.049990588254
21
-542.743206491692
31
6.000108644815
0
LINE
8
0
10
1877.049990588254
20
-542.743206491692
30
6.000108644815
11
1877.360651022952
21
-542.504828319992
31
6.000108674611
0
LINE
8
0
10
1877.360651022952
20
-542.504828319992
30
6.000108674611
11
1877.59902914926
21
-542.194167850464
31
6.000108715923
0
LINE
8
0
10
1877.59902914926
20
-542.194167850464
30
6.000108715923
11
1877.748879891808
21
-541.832396080716
31
6.000108765936
0
LINE
8
0
10
1877.748879891808
20
-541.832396080716
30
6.000108765936
11
1877.799991170134
21
-541.444167159
31
6.000108821241
0
LINE
8
0
10
1877.799991170134
20
-541.444167159
30
6.000108821241
11
1877.748879835082
21
-541.05593824475
31
6.00010887807
0
LINE
8
0
10
1877.748879835082
20
-541.05593824475
30
6.00010887807
11
1877.599029039674
21
-540.694166496897
31
6.000108932549
0
LINE
8
0
10
1877.599029039674
20
-540.694166496897
30
6.000108932549
11
1877.360650867975
21
-540.3835060622
31
6.000108980965
0
LINE
8
0
10
1877.360650867975
20
-540.3835060622
30
6.000108980965
11
1877.049990398446
21
-540.145127935892
31
6.000109020021
0
LINE
8
0
10
1877.049990398446
20
-540.145127935892
30
6.000109020021
11
1876.688218628698
21
-539.995277193343
31
6.000109047053
0
LINE
8
0
10
1876.688218628698
20
-539.995277193343
30
6.000109047053
11
1876.299989706981
21
-539.944165915017
31
6.00010906022
0
LINE
8
0
10
1816.299990125612
20
-558.255223805561
30
6.00010952108
11
1815.911761203895
21
-558.204112527236
31
6.00010952915
0
LINE
8
0
10
1815.911761203895
20
-558.204112527236
30
6.00010952915
11
1815.549989434146
21
-558.054261784688
31
6.00010954124
0
LINE
8
0
10
1815.549989434146
20
-558.054261784688
30
6.00010954124
11
1815.239328964618
21
-557.815883658379
31
6.000109556526
0
LINE
8
0
10
1815.239328964618
20
-557.815883658379
30
6.000109556526
11
1815.000950792918
21
-557.505223223682
31
6.000109573965
0
LINE
8
0
10
1815.000950792918
20
-557.505223223682
30
6.000109573965
11
1814.85109999751
21
-557.143451475829
31
6.00010959237
0
LINE
8
0
10
1814.85109999751
20
-557.143451475829
30
6.00010959237
11
1814.799988662459
21
-556.75522256158
31
6.000109610486
0
LINE
8
0
10
1814.799988662459
20
-556.75522256158
30
6.000109610486
11
1814.851099940784
21
-556.366993639864
31
6.000109627079
0
LINE
8
0
10
1814.851099940784
20
-556.366993639864
30
6.000109627079
11
1815.000950683334
21
-556.005221870115
31
6.000109641018
0
LINE
8
0
10
1815.000950683334
20
-556.005221870115
30
6.000109641018
11
1815.239328809641
21
-555.694561400587
31
6.000109651353
0
LINE
8
0
10
1815.239328809641
20
-555.694561400587
30
6.000109651353
11
1815.549989244339
21
-555.456183228888
31
6.00010965738
0
LINE
8
0
10
1815.549989244339
20
-555.456183228888
30
6.00010965738
11
1815.911760992192
21
-555.306332433479
31
6.000109658687
0
LINE
8
0
10
1815.911760992192
20
-555.306332433479
30
6.000109658687
11
1816.299989906441
21
-555.255221098428
31
6.000109655186
0
LINE
8
0
10
1876.299989926152
20
-558.255219422152
30
6.000108626969
11
1876.688218840401
21
-558.204108087101
31
6.000108628565
0
LINE
8
0
10
1876.688218840401
20
-558.204108087101
30
6.000108628565
11
1877.049990588254
21
-558.054257291692
31
6.000108644815
0
LINE
8
0
10
1877.049990588254
20
-558.054257291692
30
6.000108644815
11
1877.360651022952
21
-557.815879119992
31
6.000108674611
0
LINE
8
0
10
1877.360651022952
20
-557.815879119992
30
6.000108674611
11
1877.59902914926
21
-557.505218650464
31
6.000108715923
0
LINE
8
0
10
1877.59902914926
20
-557.505218650464
30
6.000108715923
11
1877.748879891808
21
-557.143446880716
31
6.000108765936
0
LINE
8
0
10
1877.748879891808
20
-557.143446880716
30
6.000108765936
11
1877.799991170134
21
-556.755217959
31
6.000108821241
0
LINE
8
0
10
1877.799991170134
20
-556.755217959
30
6.000108821241
11
1877.748879835082
21
-556.366989044751
31
6.00010887807
0
LINE
8
0
10
1877.748879835082
20
-556.366989044751
30
6.00010887807
11
1877.599029039674
21
-556.005217296897
31
6.000108932549
0
LINE
8
0
10
1877.599029039674
20
-556.005217296897
30
6.000108932549
11
1877.360650867975
21
-555.6945568622
31
6.000108980965
0
LINE
8
0
10
1877.360650867975
20
-555.6945568622
30
6.000108980965
11
1877.049990398446
21
-555.456178735892
31
6.000109020021
0
LINE
8
0
10
1877.049990398446
20
-555.456178735892
30
6.000109020021
11
1876.688218628698
21
-555.306327993343
31
6.000109047053
0
LINE
8
0
10
1876.688218628698
20
-555.306327993343
30
6.000109047053
11
1876.299989706981
21
-555.255216715018
31
6.00010906022
0
LINE
8
0
10
1816.299990125612
20
-519.977596805562
30
6.00010952108
11
1815.911761203895
21
-519.926485527237
31
6.00010952915
0
LINE
8
0
10
1815.911761203895
20
-519.926485527237
30
6.00010952915
11
1815.549989434146
21
-519.776634784687
31
6.00010954124
0
LINE
8
0
10
1815.549989434146
20
-519.776634784687
30
6.00010954124
11
1815.239328964618
21
-519.53825665838
31
6.000109556526
0
LINE
8
0
10
1815.239328964618
20
-519.53825665838
30
6.000109556526
11
1815.000950792918
21
-519.227596223682
31
6.000109573965
0
LINE
8
0
10
1815.000950792918
20
-519.227596223682
30
6.000109573965
11
1814.85109999751
21
-518.865824475829
31
6.00010959237
0
LINE
8
0
10
1814.85109999751
20
-518.865824475829
30
6.00010959237
11
1814.799988662459
21
-518.47759556158
31
6.000109610486
0
LINE
8
0
10
1814.799988662459
20
-518.47759556158
30
6.000109610486
11
1814.851099940784
21
-518.089366639863
31
6.000109627079
0
LINE
8
0
10
1814.851099940784
20
-518.089366639863
30
6.000109627079
11
1815.000950683334
21
-517.727594870115
31
6.000109641018
0
LINE
8
0
10
1815.000950683334
20
-517.727594870115
30
6.000109641018
11
1815.239328809641
21
-517.416934400587
31
6.000109651353
0
LINE
8
0
10
1815.239328809641
20
-517.416934400587
30
6.000109651353
11
1815.549989244339
21
-517.178556228887
31
6.00010965738
0
LINE
8
0
10
1815.549989244339
20
-517.178556228887
30
6.00010965738
11
1815.911760992192
21
-517.028705433479
31
6.000109658687
0
LINE
8
0
10
1815.911760992192
20
-517.028705433479
30
6.000109658687
11
1816.299989906441
21
-516.977594098428
31
6.000109655186
0
LINE
8
0
10
1876.299989926152
20
-519.977592422151
30
6.000108626969
11
1876.688218840401
21
-519.926481087101
31
6.000108628565
0
LINE
8
0
10
1876.688218840401
20
-519.926481087101
30
6.000108628565
11
1877.049990588254
21
-519.776630291692
31
6.000108644815
0
LINE
8
0
10
1877.049990588254
20
-519.776630291692
30
6.000108644815
11
1877.360651022952
21
-519.538252119992
31
6.000108674611
0
LINE
8
0
10
1877.360651022952
20
-519.538252119992
30
6.000108674611
11
1877.59902914926
21
-519.227591650464
31
6.000108715923
0
LINE
8
0
10
1877.59902914926
20
-519.227591650464
30
6.000108715923
11
1877.748879891808
21
-518.865819880716
31
6.000108765936
0
LINE
8
0
10
1877.748879891808
20
-518.865819880716
30
6.000108765936
11
1877.799991170134
21
-518.477590958999
31
6.000108821241
0
LINE
8
0
10
1877.799991170134
20
-518.477590958999
30
6.000108821241
11
1877.748879835082
21
-518.08936204475
31
6.00010887807
0
LINE
8
0
10
1877.748879835082
20
-518.08936204475
30
6.00010887807
11
1877.599029039674
21
-517.727590296897
31
6.000108932549
0
LINE
8
0
10
1877.599029039674
20
-517.727590296897
30
6.000108932549
11
1877.360650867975
21
-517.4169298622
31
6.000108980965
0
LINE
8
0
10
1877.360650867975
20
-517.4169298622
30
6.000108980965
11
1877.049990398446
21
-517.178551735892
31
6.000109020021
0
LINE
8
0
10
1877.049990398446
20
-517.178551735892
30
6.000109020021
11
1876.688218628698
21
-517.028700993343
31
6.000109047053
0
LINE
8
0
10
1876.688218628698
20
-517.028700993343
30
6.000109047053
11
1876.299989706981
21
-516.977589715018
31
6.00010906022
0
LINE
8
0
10
1876.299989926152
20
-527.633117822151
30
6.000108626969
11
1876.688218840401
21
-527.582006487101
31
6.000108628565
0
LINE
8
0
10
1876.688218840401
20
-527.582006487101
30
6.000108628565
11
1877.049990588254
21
-527.432155691692
31
6.000108644815
0
LINE
8
0
10
1877.049990588254
20
-527.432155691692
30
6.000108644815
11
1877.360651022952
21
-527.193777519992
31
6.000108674611
0
LINE
8
0
10
1877.360651022952
20
-527.193777519992
30
6.000108674611
11
1877.59902914926
21
-526.883117050464
31
6.000108715923
0
LINE
8
0
10
1877.59902914926
20
-526.883117050464
30
6.000108715923
11
1877.748879891808
21
-526.521345280716
31
6.000108765936
0
LINE
8
0
10
1877.748879891808
20
-526.521345280716
30
6.000108765936
11
1877.799991170134
21
-526.133116359
31
6.000108821241
0
LINE
8
0
10
1877.799991170134
20
-526.133116359
30
6.000108821241
11
1877.748879835082
21
-525.74488744475
31
6.00010887807
0
LINE
8
0
10
1877.748879835082
20
-525.74488744475
30
6.00010887807
11
1877.599029039674
21
-525.383115696897
31
6.000108932549
0
LINE
8
0
10
1877.599029039674
20
-525.383115696897
30
6.000108932549
11
1877.360650867975
21
-525.0724552622
31
6.000108980965
0
LINE
8
0
10
1877.360650867975
20
-525.0724552622
30
6.000108980965
11
1877.049990398446
21
-524.834077135892
31
6.000109020021
0
LINE
8
0
10
1877.049990398446
20
-524.834077135892
30
6.000109020021
11
1876.688218628698
21
-524.684226393343
31
6.000109047053
0
LINE
8
0
10
1876.688218628698
20
-524.684226393343
30
6.000109047053
11
1876.299989706981
21
-524.633115115018
31
6.00010906022
0
LINE
8
0
10
1816.299990125612
20
-535.288647605561
30
6.00010952108
11
1815.911761203895
21
-535.237536327236
31
6.00010952915
0
LINE
8
0
10
1815.911761203895
20
-535.237536327236
30
6.00010952915
11
1815.549989434146
21
-535.087685584688
31
6.00010954124
0
LINE
8
0
10
1815.549989434146
20
-535.087685584688
30
6.00010954124
11
1815.239328964618
21
-534.849307458379
31
6.000109556526
0
LINE
8
0
10
1815.239328964618
20
-534.849307458379
30
6.000109556526
11
1815.000950792918
21
-534.538647023682
31
6.000109573965
0
LINE
8
0
10
1815.000950792918
20
-534.538647023682
30
6.000109573965
11
1814.85109999751
21
-534.176875275828
31
6.00010959237
0
LINE
8
0
10
1814.85109999751
20
-534.176875275828
30
6.00010959237
11
1814.799988662459
21
-533.78864636158
31
6.000109610486
0
LINE
8
0
10
1814.799988662459
20
-533.78864636158
30
6.000109610486
11
1814.851099940784
21
-533.400417439864
31
6.000109627079
0
LINE
8
0
10
1814.851099940784
20
-533.400417439864
30
6.000109627079
11
1815.000950683334
21
-533.038645670115
31
6.000109641018
0
LINE
8
0
10
1815.000950683334
20
-533.038645670115
30
6.000109641018
11
1815.239328809641
21
-532.727985200587
31
6.000109651353
0
LINE
8
0
10
1815.239328809641
20
-532.727985200587
30
6.000109651353
11
1815.549989244339
21
-532.489607028887
31
6.00010965738
0
LINE
8
0
10
1815.549989244339
20
-532.489607028887
30
6.00010965738
11
1815.911760992192
21
-532.339756233479
31
6.000109658687
0
LINE
8
0
10
1815.911760992192
20
-532.339756233479
30
6.000109658687
11
1816.299989906441
21
-532.288644898428
31
6.000109655186
0
LINE
8
0
10
1876.299989926152
20
-535.288643222151
30
6.000108626969
11
1876.688218840401
21
-535.237531887101
31
6.000108628565
0
LINE
8
0
10
1876.688218840401
20
-535.237531887101
30
6.000108628565
11
1877.049990588254
21
-535.087681091692
31
6.000108644815
0
LINE
8
0
10
1877.049990588254
20
-535.087681091692
30
6.000108644815
11
1877.360651022952
21
-534.849302919992
31
6.000108674611
0
LINE
8
0
10
1877.360651022952
20
-534.849302919992
30
6.000108674611
11
1877.59902914926
21
-534.538642450464
31
6.000108715923
0
LINE
8
0
10
1877.59902914926
20
-534.538642450464
30
6.000108715923
11
1877.748879891808
21
-534.176870680716
31
6.000108765936
0
LINE
8
0
10
1877.748879891808
20
-534.176870680716
30
6.000108765936
11
1877.799991170134
21
-533.788641759
31
6.000108821241
0
LINE
8
0
10
1877.799991170134
20
-533.788641759
30
6.000108821241
11
1877.748879835082
21
-533.40041284475
31
6.00010887807
0
LINE
8
0
10
1877.748879835082
20
-533.40041284475
30
6.00010887807
11
1877.599029039674
21
-533.038641096897
31
6.000108932549
0
LINE
8
0
10
1877.599029039674
20
-533.038641096897
30
6.000108932549
11
1877.360650867975
21
-532.7279806622
31
6.000108980965
0
LINE
8
0
10
1877.360650867975
20
-532.7279806622
30
6.000108980965
11
1877.049990398446
21
-532.489602535892
31
6.000109020021
0
LINE
8
0
10
1877.049990398446
20
-532.489602535892
30
6.000109020021
11
1876.688218628698
21
-532.339751793343
31
6.000109047053
0
LINE
8
0
10
1876.688218628698
20
-532.339751793343
30
6.000109047053
11
1876.299989706981
21
-532.288640515017
31
6.00010906022
0
LINE
8
0
10
1816.299990125612
20
-703.710206405562
30
6.00010952108
11
1815.911761203895
21
-703.659095127236
31
6.00010952915
0
LINE
8
0
10
1815.911761203895
20
-703.659095127236
30
6.00010952915
11
1815.549989434146
21
-703.509244384687
31
6.00010954124
0
LINE
8
0
10
1815.549989434146
20
-703.509244384687
30
6.00010954124
11
1815.239328964618
21
-703.27086625838
31
6.000109556526
0
LINE
8
0
10
1815.239328964618
20
-703.27086625838
30
6.000109556526
11
1815.000950792918
21
-702.960205823682
31
6.000109573965
0
LINE
8
0
10
1815.000950792918
20
-702.960205823682
30
6.000109573965
11
1814.85109999751
21
-702.598434075829
31
6.00010959237
0
LINE
8
0
10
1814.85109999751
20
-702.598434075829
30
6.00010959237
11
1814.799988662459
21
-702.21020516158
31
6.000109610486
0
LINE
8
0
10
1814.799988662459
20
-702.21020516158
30
6.000109610486
11
1814.851099940784
21
-701.821976239863
31
6.000109627079
0
LINE
8
0
10
1814.851099940784
20
-701.821976239863
30
6.000109627079
11
1815.000950683334
21
-701.460204470115
31
6.000109641018
0
LINE
8
0
10
1815.000950683334
20
-701.460204470115
30
6.000109641018
11
1815.239328809641
21
-701.149544000587
31
6.000109651353
0
LINE
8
0
10
1815.239328809641
20
-701.149544000587
30
6.000109651353
11
1815.549989244339
21
-700.911165828887
31
6.00010965738
0
LINE
8
0
10
1815.549989244339
20
-700.911165828887
30
6.00010965738
11
1815.911760992192
21
-700.761315033479
31
6.000109658687
0
LINE
8
0
10
1815.911760992192
20
-700.761315033479
30
6.000109658687
11
1816.299989906441
21
-700.710203698428
31
6.000109655186
0
LINE
8
0
10
1876.299989926152
20
-481.699965422152
30
6.000108626969
11
1876.688218840401
21
-481.6488540871
31
6.000108628565
0
LINE
8
0
10
1876.688218840401
20
-481.6488540871
30
6.000108628565
11
1877.049990588254
21
-481.499003291692
31
6.000108644815
0
LINE
8
0
10
1877.049990588254
20
-481.499003291692
30
6.000108644815
11
1877.360651022952
21
-481.260625119992
31
6.000108674611
0
LINE
8
0
10
1877.360651022952
20
-481.260625119992
30
6.000108674611
11
1877.59902914926
21
-480.949964650465
31
6.000108715923
0
LINE
8
0
10
1877.59902914926
20
-480.949964650465
30
6.000108715923
11
1877.748879891808
21
-480.588192880716
31
6.000108765936
0
LINE
8
0
10
1877.748879891808
20
-480.588192880716
30
6.000108765936
11
1877.799991170134
21
-480.199963958999
31
6.000108821241
0
LINE
8
0
10
1877.799991170134
20
-480.199963958999
30
6.000108821241
11
1877.748879835082
21
-479.811735044751
31
6.00010887807
0
LINE
8
0
10
1877.748879835082
20
-479.811735044751
30
6.00010887807
11
1877.599029039674
21
-479.449963296898
31
6.000108932549
0
LINE
8
0
10
1877.599029039674
20
-479.449963296898
30
6.000108932549
11
1877.360650867975
21
-479.1393028622
31
6.000108980965
0
LINE
8
0
10
1877.360650867975
20
-479.1393028622
30
6.000108980965
11
1877.049990398446
21
-478.900924735892
31
6.000109020021
0
LINE
8
0
10
1877.049990398446
20
-478.900924735892
30
6.000109020021
11
1876.688218628698
21
-478.751073993343
31
6.000109047053
0
LINE
8
0
10
1876.688218628698
20
-478.751073993343
30
6.000109047053
11
1876.299989706981
21
-478.699962715018
31
6.00010906022
0
LINE
8
0
10
1876.299989926152
20
-550.599694022152
30
6.000108626969
11
1876.688218840401
21
-550.548582687101
31
6.000108628565
0
LINE
8
0
10
1876.688218840401
20
-550.548582687101
30
6.000108628565
11
1877.049990588254
21
-550.398731891692
31
6.000108644815
0
LINE
8
0
10
1877.049990588254
20
-550.398731891692
30
6.000108644815
11
1877.360651022952
21
-550.160353719992
31
6.000108674611
0
LINE
8
0
10
1877.360651022952
20
-550.160353719992
30
6.000108674611
11
1877.59902914926
21
-549.849693250464
31
6.000108715923
0
LINE
8
0
10
1877.59902914926
20
-549.849693250464
30
6.000108715923
11
1877.748879891808
21
-549.487921480716
31
6.000108765936
0
LINE
8
0
10
1877.748879891808
20
-549.487921480716
30
6.000108765936
11
1877.799991170134
21
-549.099692559
31
6.000108821241
0
LINE
8
0
10
1877.799991170134
20
-549.099692559
30
6.000108821241
11
1877.748879835082
21
-548.711463644751
31
6.00010887807
0
LINE
8
0
10
1877.748879835082
20
-548.711463644751
30
6.00010887807
11
1877.599029039674
21
-548.349691896897
31
6.000108932549
0
LINE
8
0
10
1877.599029039674
20
-548.349691896897
30
6.000108932549
11
1877.360650867975
21
-548.0390314622
31
6.000108980965
0
LINE
8
0
10
1877.360650867975
20
-548.0390314622
30
6.000108980965
11
1877.049990398446
21
-547.800653335892
31
6.000109020021
0
LINE
8
0
10
1877.049990398446
20
-547.800653335892
30
6.000109020021
11
1876.688218628698
21
-547.650802593343
31
6.000109047053
0
LINE
8
0
10
1876.688218628698
20
-547.650802593343
30
6.000109047053
11
1876.299989706981
21
-547.599691315018
31
6.00010906022
0
LINE
8
0
10
1816.299990125612
20
-550.599698405561
30
6.00010952108
11
1815.911761203895
21
-550.548587127236
31
6.00010952915
0
LINE
8
0
10
1815.911761203895
20
-550.548587127236
30
6.00010952915
11
1815.549989434146
21
-550.398736384688
31
6.00010954124
0
LINE
8
0
10
1815.549989434146
20
-550.398736384688
30
6.00010954124
11
1815.239328964618
21
-550.160358258379
31
6.000109556526
0
LINE
8
0
10
1815.239328964618
20
-550.160358258379
30
6.000109556526
11
1815.000950792918
21
-549.849697823682
31
6.000109573965
0
LINE
8
0
10
1815.000950792918
20
-549.849697823682
30
6.000109573965
11
1814.85109999751
21
-549.487926075829
31
6.00010959237
0
LINE
8
0
10
1814.85109999751
20
-549.487926075829
30
6.00010959237
11
1814.799988662459
21
-549.09969716158
31
6.000109610486
0
LINE
8
0
10
1814.799988662459
20
-549.09969716158
30
6.000109610486
11
1814.851099940784
21
-548.711468239864
31
6.000109627079
0
LINE
8
0
10
1814.851099940784
20
-548.711468239864
30
6.000109627079
11
1815.000950683334
21
-548.349696470115
31
6.000109641018
0
LINE
8
0
10
1815.000950683334
20
-548.349696470115
30
6.000109641018
11
1815.239328809641
21
-548.039036000587
31
6.000109651353
0
LINE
8
0
10
1815.239328809641
20
-548.039036000587
30
6.000109651353
11
1815.549989244339
21
-547.800657828888
31
6.00010965738
0
LINE
8
0
10
1815.549989244339
20
-547.800657828888
30
6.00010965738
11
1815.911760992192
21
-547.650807033479
31
6.000109658687
0
LINE
8
0
10
1815.911760992192
20
-547.650807033479
30
6.000109658687
11
1816.299989906441
21
-547.599695698428
31
6.000109655186
0
LINE
8
0
10
1876.299989926152
20
-711.365727422152
30
6.000108626969
11
1876.688218840401
21
-711.3146160871
31
6.000108628565
0
LINE
8
0
10
1876.688218840401
20
-711.3146160871
30
6.000108628565
11
1877.049990588254
21
-711.164765291692
31
6.000108644815
0
LINE
8
0
10
1877.049990588254
20
-711.164765291692
30
6.000108644815
11
1877.360651022952
21
-710.926387119992
31
6.000108674611
0
LINE
8
0
10
1877.360651022952
20
-710.926387119992
30
6.000108674611
11
1877.59902914926
21
-710.615726650464
31
6.000108715923
0
LINE
8
0
10
1877.59902914926
20
-710.615726650464
30
6.000108715923
11
1877.748879891808
21
-710.253954880716
31
6.000108765936
0
LINE
8
0
10
1877.748879891808
20
-710.253954880716
30
6.000108765936
11
1877.799991170134
21
-709.865725958999
31
6.000108821241
0
LINE
8
0
10
1877.799991170134
20
-709.865725958999
30
6.000108821241
11
1877.748879835082
21
-709.47749704475
31
6.00010887807
0
LINE
8
0
10
1877.748879835082
20
-709.47749704475
30
6.00010887807
11
1877.599029039674
21
-709.115725296897
31
6.000108932549
0
LINE
8
0
10
1877.599029039674
20
-709.115725296897
30
6.000108932549
11
1877.360650867975
21
-708.8050648622
31
6.000108980965
0
LINE
8
0
10
1877.360650867975
20
-708.8050648622
30
6.000108980965
11
1877.049990398446
21
-708.566686735892
31
6.000109020021
0
LINE
8
0
10
1877.049990398446
20
-708.566686735892
30
6.000109020021
11
1876.688218628698
21
-708.416835993342
31
6.000109047053
0
LINE
8
0
10
1876.688218628698
20
-708.416835993342
30
6.000109047053
11
1876.299989706981
21
-708.365724715018
31
6.00010906022
0
LINE
8
0
10
1816.299990125612
20
-711.365731805561
30
6.00010952108
11
1815.911761203895
21
-711.314620527236
31
6.00010952915
0
LINE
8
0
10
1815.911761203895
20
-711.314620527236
30
6.00010952915
11
1815.549989434146
21
-711.164769784687
31
6.00010954124
0
LINE
8
0
10
1815.549989434146
20
-711.164769784687
30
6.00010954124
11
1815.239328964618
21
-710.92639165838
31
6.000109556526
0
LINE
8
0
10
1815.239328964618
20
-710.92639165838
30
6.000109556526
11
1815.000950792918
21
-710.615731223682
31
6.000109573965
0
LINE
8
0
10
1815.000950792918
20
-710.615731223682
30
6.000109573965
11
1814.85109999751
21
-710.253959475829
31
6.00010959237
0
LINE
8
0
10
1814.85109999751
20
-710.253959475829
30
6.00010959237
11
1814.799988662459
21
-709.86573056158
31
6.000109610486
0
LINE
8
0
10
1814.799988662459
20
-709.86573056158
30
6.000109610486
11
1814.851099940784
21
-709.477501639863
31
6.000109627079
0
LINE
8
0
10
1814.851099940784
20
-709.477501639863
30
6.000109627079
11
1815.000950683334
21
-709.115729870115
31
6.000109641018
0
LINE
8
0
10
1815.000950683334
20
-709.115729870115
30
6.000109641018
11
1815.239328809641
21
-708.805069400587
31
6.000109651353
0
LINE
8
0
10
1815.239328809641
20
-708.805069400587
30
6.000109651353
11
1815.549989244339
21
-708.566691228887
31
6.00010965738
0
LINE
8
0
10
1815.549989244339
20
-708.566691228887
30
6.00010965738
11
1815.911760992192
21
-708.416840433479
31
6.000109658687
0
LINE
8
0
10
1815.911760992192
20
-708.416840433479
30
6.000109658687
11
1816.299989906441
21
-708.365729098428
31
6.000109655186
0
LINE
8
0
10
1816.299990125612
20
-481.699969805562
30
6.00010952108
11
1815.911761203895
21
-481.648858527236
31
6.00010952915
0
LINE
8
0
10
1815.911761203895
20
-481.648858527236
30
6.00010952915
11
1815.549989434146
21
-481.499007784687
31
6.00010954124
0
LINE
8
0
10
1815.549989434146
20
-481.499007784687
30
6.00010954124
11
1815.239328964618
21
-481.26062965838
31
6.000109556526
0
LINE
8
0
10
1815.239328964618
20
-481.26062965838
30
6.000109556526
11
1815.000950792918
21
-480.949969223682
31
6.000109573965
0
LINE
8
0
10
1815.000950792918
20
-480.949969223682
30
6.000109573965
11
1814.85109999751
21
-480.588197475829
31
6.00010959237
0
LINE
8
0
10
1814.85109999751
20
-480.588197475829
30
6.00010959237
11
1814.799988662459
21
-480.19996856158
31
6.000109610486
0
LINE
8
0
10
1814.799988662459
20
-480.19996856158
30
6.000109610486
11
1814.851099940784
21
-479.811739639864
31
6.000109627079
0
LINE
8
0
10
1814.851099940784
20
-479.811739639864
30
6.000109627079
11
1815.000950683334
21
-479.449967870115
31
6.000109641018
0
LINE
8
0
10
1815.000950683334
20
-479.449967870115
30
6.000109641018
11
1815.239328809641
21
-479.139307400587
31
6.000109651353
0
LINE
8
0
10
1815.239328809641
20
-479.139307400587
30
6.000109651353
11
1815.549989244339
21
-478.900929228888
31
6.00010965738
0
LINE
8
0
10
1815.549989244339
20
-478.900929228888
30
6.00010965738
11
1815.911760992192
21
-478.751078433479
31
6.000109658687
0
LINE
8
0
10
1815.911760992192
20
-478.751078433479
30
6.000109658687
11
1816.299989906441
21
-478.699967098428
31
6.000109655186
0
LINE
8
0
10
1816.299990125612
20
-581.221800005562
30
6.00010952108
11
1815.911761203895
21
-581.170688727236
31
6.00010952915
0
LINE
8
0
10
1815.911761203895
20
-581.170688727236
30
6.00010952915
11
1815.549989434146
21
-581.020837984687
31
6.00010954124
0
LINE
8
0
10
1815.549989434146
20
-581.020837984687
30
6.00010954124
11
1815.239328964618
21
-580.78245985838
31
6.000109556526
0
LINE
8
0
10
1815.239328964618
20
-580.78245985838
30
6.000109556526
11
1815.000950792918
21
-580.471799423682
31
6.000109573965
0
LINE
8
0
10
1815.000950792918
20
-580.471799423682
30
6.000109573965
11
1814.85109999751
21
-580.110027675829
31
6.00010959237
0
LINE
8
0
10
1814.85109999751
20
-580.110027675829
30
6.00010959237
11
1814.799988662459
21
-579.72179876158
31
6.000109610486
0
LINE
8
0
10
1814.799988662459
20
-579.72179876158
30
6.000109610486
11
1814.851099940784
21
-579.333569839863
31
6.000109627079
0
LINE
8
0
10
1814.851099940784
20
-579.333569839863
30
6.000109627079
11
1815.000950683334
21
-578.971798070115
31
6.000109641018
0
LINE
8
0
10
1815.000950683334
20
-578.971798070115
30
6.000109641018
11
1815.239328809641
21
-578.661137600587
31
6.000109651353
0
LINE
8
0
10
1815.239328809641
20
-578.661137600587
30
6.000109651353
11
1815.549989244339
21
-578.422759428888
31
6.00010965738
0
LINE
8
0
10
1815.549989244339
20
-578.422759428888
30
6.00010965738
11
1815.911760992192
21
-578.272908633479
31
6.000109658687
0
LINE
8
0
10
1815.911760992192
20
-578.272908633479
30
6.000109658687
11
1816.299989906441
21
-578.221797298428
31
6.000109655186
0
LINE
8
0
10
1876.299989926152
20
-581.221795622152
30
6.000108626969
11
1876.688218840401
21
-581.1706842871
31
6.000108628565
0
LINE
8
0
10
1876.688218840401
20
-581.1706842871
30
6.000108628565
11
1877.049990588254
21
-581.020833491692
31
6.000108644815
0
LINE
8
0
10
1877.049990588254
20
-581.020833491692
30
6.000108644815
11
1877.360651022952
21
-580.782455319992
31
6.000108674611
0
LINE
8
0
10
1877.360651022952
20
-580.782455319992
30
6.000108674611
11
1877.59902914926
21
-580.471794850465
31
6.000108715923
0
LINE
8
0
10
1877.59902914926
20
-580.471794850465
30
6.000108715923
11
1877.748879891808
21
-580.110023080716
31
6.000108765936
0
LINE
8
0
10
1877.748879891808
20
-580.110023080716
30
6.000108765936
11
1877.799991170134
21
-579.721794158999
31
6.000108821241
0
LINE
8
0
10
1877.799991170134
20
-579.721794158999
30
6.000108821241
11
1877.748879835082
21
-579.333565244751
31
6.00010887807
0
LINE
8
0
10
1877.748879835082
20
-579.333565244751
30
6.00010887807
11
1877.599029039674
21
-578.971793496898
31
6.000108932549
0
LINE
8
0
10
1877.599029039674
20
-578.971793496898
30
6.000108932549
11
1877.360650867975
21
-578.6611330622
31
6.000108980965
0
LINE
8
0
10
1877.360650867975
20
-578.6611330622
30
6.000108980965
11
1877.049990398446
21
-578.422754935892
31
6.000109020021
0
LINE
8
0
10
1877.049990398446
20
-578.422754935892
30
6.000109020021
11
1876.688218628698
21
-578.272904193343
31
6.000109047053
0
LINE
8
0
10
1876.688218628698
20
-578.272904193343
30
6.000109047053
11
1876.299989706981
21
-578.221792915018
31
6.00010906022
0
LINE
8
0
10
1876.299989926152
20
-688.399151222152
30
6.000108626969
11
1876.688218840401
21
-688.3480398871
31
6.000108628565
0
LINE
8
0
10
1876.688218840401
20
-688.3480398871
30
6.000108628565
11
1877.049990588254
21
-688.198189091692
31
6.000108644815
0
LINE
8
0
10
1877.049990588254
20
-688.198189091692
30
6.000108644815
11
1877.360651022952
21
-687.959810919992
31
6.000108674611
0
LINE
8
0
10
1877.360651022952
20
-687.959810919992
30
6.000108674611
11
1877.59902914926
21
-687.649150450465
31
6.000108715923
0
LINE
8
0
10
1877.59902914926
20
-687.649150450465
30
6.000108715923
11
1877.748879891808
21
-687.287378680716
31
6.000108765936
0
LINE
8
0
10
1877.748879891808
20
-687.287378680716
30
6.000108765936
11
1877.799991170134
21
-686.899149758999
31
6.000108821241
0
LINE
8
0
10
1877.799991170134
20
-686.899149758999
30
6.000108821241
11
1877.748879835082
21
-686.510920844751
31
6.00010887807
0
LINE
8
0
10
1877.748879835082
20
-686.510920844751
30
6.00010887807
11
1877.599029039674
21
-686.149149096898
31
6.000108932549
0
LINE
8
0
10
1877.599029039674
20
-686.149149096898
30
6.000108932549
11
1877.360650867975
21
-685.8384886622
31
6.000108980965
0
LINE
8
0
10
1877.360650867975
20
-685.8384886622
30
6.000108980965
11
1877.049990398446
21
-685.600110535892
31
6.000109020021
0
LINE
8
0
10
1877.049990398446
20
-685.600110535892
30
6.000109020021
11
1876.688218628698
21
-685.450259793343
31
6.000109047053
0
LINE
8
0
10
1876.688218628698
20
-685.450259793343
30
6.000109047053
11
1876.299989706981
21
-685.399148515018
31
6.00010906022
0
LINE
8
0
10
1816.299990125612
20
-527.633122205561
30
6.00010952108
11
1815.911761203895
21
-527.582010927237
31
6.00010952915
0
LINE
8
0
10
1815.911761203895
20
-527.582010927237
30
6.00010952915
11
1815.549989434146
21
-527.432160184688
31
6.00010954124
0
LINE
8
0
10
1815.549989434146
20
-527.432160184688
30
6.00010954124
11
1815.239328964618
21
-527.193782058379
31
6.000109556526
0
LINE
8
0
10
1815.239328964618
20
-527.193782058379
30
6.000109556526
11
1815.000950792918
21
-526.883121623682
31
6.000109573965
0
LINE
8
0
10
1815.000950792918
20
-526.883121623682
30
6.000109573965
11
1814.85109999751
21
-526.521349875828
31
6.00010959237
0
LINE
8
0
10
1814.85109999751
20
-526.521349875828
30
6.00010959237
11
1814.799988662459
21
-526.13312096158
31
6.000109610486
0
LINE
8
0
10
1814.799988662459
20
-526.13312096158
30
6.000109610486
11
1814.851099940784
21
-525.744892039864
31
6.000109627079
0
LINE
8
0
10
1814.851099940784
20
-525.744892039864
30
6.000109627079
11
1815.000950683334
21
-525.383120270115
31
6.000109641018
0
LINE
8
0
10
1815.000950683334
20
-525.383120270115
30
6.000109641018
11
1815.239328809641
21
-525.072459800587
31
6.000109651353
0
LINE
8
0
10
1815.239328809641
20
-525.072459800587
30
6.000109651353
11
1815.549989244339
21
-524.834081628887
31
6.00010965738
0
LINE
8
0
10
1815.549989244339
20
-524.834081628887
30
6.00010965738
11
1815.911760992192
21
-524.684230833479
31
6.000109658687
0
LINE
8
0
10
1815.911760992192
20
-524.684230833479
30
6.000109658687
11
1816.299989906441
21
-524.633119498428
31
6.000109655186
0
LINE
8
0
10
1816.299990125612
20
-619.499427005562
30
6.00010952108
11
1815.911761203895
21
-619.448315727236
31
6.00010952915
0
LINE
8
0
10
1815.911761203895
20
-619.448315727236
30
6.00010952915
11
1815.549989434146
21
-619.298464984688
31
6.00010954124
0
LINE
8
0
10
1815.549989434146
20
-619.298464984688
30
6.00010954124
11
1815.239328964618
21
-619.060086858379
31
6.000109556526
0
LINE
8
0
10
1815.239328964618
20
-619.060086858379
30
6.000109556526
11
1815.000950792918
21
-618.749426423682
31
6.000109573965
0
LINE
8
0
10
1815.000950792918
20
-618.749426423682
30
6.000109573965
11
1814.85109999751
21
-618.387654675829
31
6.00010959237
0
LINE
8
0
10
1814.85109999751
20
-618.387654675829
30
6.00010959237
11
1814.799988662459
21
-617.999425761581
31
6.000109610486
0
LINE
8
0
10
1814.799988662459
20
-617.999425761581
30
6.000109610486
11
1814.851099940784
21
-617.611196839864
31
6.000109627079
0
LINE
8
0
10
1814.851099940784
20
-617.611196839864
30
6.000109627079
11
1815.000950683334
21
-617.249425070115
31
6.000109641018
0
LINE
8
0
10
1815.000950683334
20
-617.249425070115
30
6.000109641018
11
1815.239328809641
21
-616.938764600587
31
6.000109651353
0
LINE
8
0
10
1815.239328809641
20
-616.938764600587
30
6.000109651353
11
1815.549989244339
21
-616.700386428888
31
6.00010965738
0
LINE
8
0
10
1815.549989244339
20
-616.700386428888
30
6.00010965738
11
1815.911760992192
21
-616.550535633479
31
6.000109658687
0
LINE
8
0
10
1815.911760992192
20
-616.550535633479
30
6.000109658687
11
1816.299989906441
21
-616.499424298428
31
6.000109655186
0
LINE
8
0
10
1876.299989926152
20
-619.499422622152
30
6.000108626969
11
1876.688218840401
21
-619.448311287101
31
6.000108628565
0
LINE
8
0
10
1876.688218840401
20
-619.448311287101
30
6.000108628565
11
1877.049990588254
21
-619.298460491692
31
6.000108644815
0
LINE
8
0
10
1877.049990588254
20
-619.298460491692
30
6.000108644815
11
1877.360651022952
21
-619.060082319992
31
6.000108674611
0
LINE
8
0
10
1877.360651022952
20
-619.060082319992
30
6.000108674611
11
1877.59902914926
21
-618.749421850464
31
6.000108715923
0
LINE
8
0
10
1877.59902914926
20
-618.749421850464
30
6.000108715923
11
1877.748879891808
21
-618.387650080717
31
6.000108765936
0
LINE
8
0
10
1877.748879891808
20
-618.387650080717
30
6.000108765936
11
1877.799991170134
21
-617.999421159
31
6.000108821241
0
LINE
8
0
10
1877.799991170134
20
-617.999421159
30
6.000108821241
11
1877.748879835082
21
-617.611192244751
31
6.00010887807
0
LINE
8
0
10
1877.748879835082
20
-617.611192244751
30
6.00010887807
11
1877.599029039674
21
-617.249420496897
31
6.000108932549
0
LINE
8
0
10
1877.599029039674
20
-617.249420496897
30
6.000108932549
11
1877.360650867975
21
-616.9387600622
31
6.000108980965
0
LINE
8
0
10
1877.360650867975
20
-616.9387600622
30
6.000108980965
11
1877.049990398446
21
-616.700381935892
31
6.000109020021
0
LINE
8
0
10
1877.049990398446
20
-616.700381935892
30
6.000109020021
11
1876.688218628698
21
-616.550531193343
31
6.000109047053
0
LINE
8
0
10
1876.688218628698
20
-616.550531193343
30
6.000109047053
11
1876.299989706981
21
-616.499419915018
31
6.00010906022
0
LINE
8
0
10
1816.299990125612
20
-596.532850805562
30
6.00010952108
11
1815.911761203895
21
-596.481739527237
31
6.00010952915
0
LINE
8
0
10
1815.911761203895
20
-596.481739527237
30
6.00010952915
11
1815.549989434146
21
-596.331888784687
31
6.00010954124
0
LINE
8
0
10
1815.549989434146
20
-596.331888784687
30
6.00010954124
11
1815.239328964618
21
-596.09351065838
31
6.000109556526
0
LINE
8
0
10
1815.239328964618
20
-596.09351065838
30
6.000109556526
11
1815.000950792918
21
-595.782850223682
31
6.000109573965
0
LINE
8
0
10
1815.000950792918
20
-595.782850223682
30
6.000109573965
11
1814.85109999751
21
-595.421078475829
31
6.00010959237
0
LINE
8
0
10
1814.85109999751
20
-595.421078475829
30
6.00010959237
11
1814.799988662459
21
-595.03284956158
31
6.000109610486
0
LINE
8
0
10
1814.799988662459
20
-595.03284956158
30
6.000109610486
11
1814.851099940784
21
-594.644620639863
31
6.000109627079
0
LINE
8
0
10
1814.851099940784
20
-594.644620639863
30
6.000109627079
11
1815.000950683334
21
-594.282848870115
31
6.000109641018
0
LINE
8
0
10
1815.000950683334
20
-594.282848870115
30
6.000109641018
11
1815.239328809641
21
-593.972188400587
31
6.000109651353
0
LINE
8
0
10
1815.239328809641
20
-593.972188400587
30
6.000109651353
11
1815.549989244339
21
-593.733810228887
31
6.00010965738
0
LINE
8
0
10
1815.549989244339
20
-593.733810228887
30
6.00010965738
11
1815.911760992192
21
-593.583959433479
31
6.000109658687
0
LINE
8
0
10
1815.911760992192
20
-593.583959433479
30
6.000109658687
11
1816.299989906441
21
-593.532848098428
31
6.000109655186
0
LINE
8
0
10
1876.299989926152
20
-703.710202022152
30
6.000108626969
11
1876.688218840401
21
-703.6590906871
31
6.000108628565
0
LINE
8
0
10
1876.688218840401
20
-703.6590906871
30
6.000108628565
11
1877.049990588254
21
-703.509239891692
31
6.000108644815
0
LINE
8
0
10
1877.049990588254
20
-703.509239891692
30
6.000108644815
11
1877.360651022952
21
-703.270861719992
31
6.000108674611
0
LINE
8
0
10
1877.360651022952
20
-703.270861719992
30
6.000108674611
11
1877.59902914926
21
-702.960201250464
31
6.000108715923
0
LINE
8
0
10
1877.59902914926
20
-702.960201250464
30
6.000108715923
11
1877.748879891808
21
-702.598429480716
31
6.000108765936
0
LINE
8
0
10
1877.748879891808
20
-702.598429480716
30
6.000108765936
11
1877.799991170134
21
-702.210200558999
31
6.000108821241
0
LINE
8
0
10
1877.799991170134
20
-702.210200558999
30
6.000108821241
11
1877.748879835082
21
-701.821971644751
31
6.00010887807
0
LINE
8
0
10
1877.748879835082
20
-701.821971644751
30
6.00010887807
11
1877.599029039674
21
-701.460199896898
31
6.000108932549
0
LINE
8
0
10
1877.599029039674
20
-701.460199896898
30
6.000108932549
11
1877.360650867975
21
-701.1495394622
31
6.000108980965
0
LINE
8
0
10
1877.360650867975
20
-701.1495394622
30
6.000108980965
11
1877.049990398446
21
-700.911161335892
31
6.000109020021
0
LINE
8
0
10
1877.049990398446
20
-700.911161335892
30
6.000109020021
11
1876.688218628698
21
-700.761310593343
31
6.000109047053
0
LINE
8
0
10
1876.688218628698
20
-700.761310593343
30
6.000109047053
11
1876.299989706981
21
-700.710199315018
31
6.00010906022
0
LINE
8
0
10
1876.299989926152
20
-634.810473422151
30
6.000108626969
11
1876.688218840401
21
-634.759362087101
31
6.000108628565
0
LINE
8
0
10
1876.688218840401
20
-634.759362087101
30
6.000108628565
11
1877.049990588254
21
-634.609511291692
31
6.000108644815
0
LINE
8
0
10
1877.049990588254
20
-634.609511291692
30
6.000108644815
11
1877.360651022952
21
-634.371133119992
31
6.000108674611
0
LINE
8
0
10
1877.360651022952
20
-634.371133119992
30
6.000108674611
11
1877.59902914926
21
-634.060472650464
31
6.000108715923
0
LINE
8
0
10
1877.59902914926
20
-634.060472650464
30
6.000108715923
11
1877.748879891808
21
-633.698700880716
31
6.000108765936
0
LINE
8
0
10
1877.748879891808
20
-633.698700880716
30
6.000108765936
11
1877.799991170134
21
-633.310471959
31
6.000108821241
0
LINE
8
0
10
1877.799991170134
20
-633.310471959
30
6.000108821241
11
1877.748879835082
21
-632.92224304475
31
6.00010887807
0
LINE
8
0
10
1877.748879835082
20
-632.92224304475
30
6.00010887807
11
1877.599029039674
21
-632.560471296897
31
6.000108932549
0
LINE
8
0
10
1877.599029039674
20
-632.560471296897
30
6.000108932549
11
1877.360650867975
21
-632.2498108622
31
6.000108980965
0
LINE
8
0
10
1877.360650867975
20
-632.2498108622
30
6.000108980965
11
1877.049990398446
21
-632.011432735892
31
6.000109020021
0
LINE
8
0
10
1877.049990398446
20
-632.011432735892
30
6.000109020021
11
1876.688218628698
21
-631.861581993343
31
6.000109047053
0
LINE
8
0
10
1876.688218628698
20
-631.861581993343
30
6.000109047053
11
1876.299989706981
21
-631.810470715017
31
6.00010906022
0
LINE
8
0
10
1876.299989926152
20
-596.532846422152
30
6.000108626969
11
1876.688218840401
21
-596.481735087101
31
6.000108628565
0
LINE
8
0
10
1876.688218840401
20
-596.481735087101
30
6.000108628565
11
1877.049990588254
21
-596.331884291692
31
6.000108644815
0
LINE
8
0
10
1877.049990588254
20
-596.331884291692
30
6.000108644815
11
1877.360651022952
21
-596.093506119993
31
6.000108674611
0
LINE
8
0
10
1877.360651022952
20
-596.093506119993
30
6.000108674611
11
1877.59902914926
21
-595.782845650465
31
6.000108715923
0
LINE
8
0
10
1877.59902914926
20
-595.782845650465
30
6.000108715923
11
1877.748879891808
21
-595.421073880716
31
6.000108765936
0
LINE
8
0
10
1877.748879891808
20
-595.421073880716
30
6.000108765936
11
1877.799991170134
21
-595.032844958999
31
6.000108821241
0
LINE
8
0
10
1877.799991170134
20
-595.032844958999
30
6.000108821241
11
1877.748879835082
21
-594.644616044751
31
6.00010887807
0
LINE
8
0
10
1877.748879835082
20
-594.644616044751
30
6.00010887807
11
1877.599029039674
21
-594.282844296898
31
6.000108932549
0
LINE
8
0
10
1877.599029039674
20
-594.282844296898
30
6.000108932549
11
1877.360650867975
21
-593.9721838622
31
6.000108980965
0
LINE
8
0
10
1877.360650867975
20
-593.9721838622
30
6.000108980965
11
1877.049990398446
21
-593.733805735892
31
6.000109020021
0
LINE
8
0
10
1877.049990398446
20
-593.733805735892
30
6.000109020021
11
1876.688218628698
21
-593.583954993343
31
6.000109047053
0
LINE
8
0
10
1876.688218628698
20
-593.583954993343
30
6.000109047053
11
1876.299989706981
21
-593.532843715018
31
6.00010906022
0
LINE
8
0
10
1816.299990125612
20
-634.810477805561
30
6.00010952108
11
1815.911761203895
21
-634.759366527236
31
6.00010952915
0
LINE
8
0
10
1815.911761203895
20
-634.759366527236
30
6.00010952915
11
1815.549989434146
21
-634.609515784688
31
6.00010954124
0
LINE
8
0
10
1815.549989434146
20
-634.609515784688
30
6.00010954124
11
1815.239328964618
21
-634.371137658379
31
6.000109556526
0
LINE
8
0
10
1815.239328964618
20
-634.371137658379
30
6.000109556526
11
1815.000950792918
21
-634.060477223682
31
6.000109573965
0
LINE
8
0
10
1815.000950792918
20
-634.060477223682
30
6.000109573965
11
1814.85109999751
21
-633.698705475828
31
6.00010959237
0
LINE
8
0
10
1814.85109999751
20
-633.698705475828
30
6.00010959237
11
1814.799988662459
21
-633.31047656158
31
6.000109610486
0
LINE
8
0
10
1814.799988662459
20
-633.31047656158
30
6.000109610486
11
1814.851099940784
21
-632.922247639864
31
6.000109627079
0
LINE
8
0
10
1814.851099940784
20
-632.922247639864
30
6.000109627079
11
1815.000950683334
21
-632.560475870115
31
6.000109641018
0
LINE
8
0
10
1815.000950683334
20
-632.560475870115
30
6.000109641018
11
1815.239328809641
21
-632.249815400587
31
6.000109651353
0
LINE
8
0
10
1815.239328809641
20
-632.249815400587
30
6.000109651353
11
1815.549989244339
21
-632.011437228887
31
6.00010965738
0
LINE
8
0
10
1815.549989244339
20
-632.011437228887
30
6.00010965738
11
1815.911760992192
21
-631.861586433479
31
6.000109658687
0
LINE
8
0
10
1815.911760992192
20
-631.861586433479
30
6.000109658687
11
1816.299989906441
21
-631.810475098428
31
6.000109655186
0
LINE
8
0
10
1816.299990125612
20
-542.944173005561
30
6.00010952108
11
1815.911761203895
21
-542.893061727236
31
6.00010952915
0
LINE
8
0
10
1815.911761203895
20
-542.893061727236
30
6.00010952915
11
1815.549989434146
21
-542.743210984688
31
6.00010954124
0
LINE
8
0
10
1815.549989434146
20
-542.743210984688
30
6.00010954124
11
1815.239328964618
21
-542.504832858379
31
6.000109556526
0
LINE
8
0
10
1815.239328964618
20
-542.504832858379
30
6.000109556526
11
1815.000950792918
21
-542.194172423682
31
6.000109573965
0
LINE
8
0
10
1815.000950792918
20
-542.194172423682
30
6.000109573965
11
1814.85109999751
21
-541.832400675828
31
6.00010959237
0
LINE
8
0
10
1814.85109999751
20
-541.832400675828
30
6.00010959237
11
1814.799988662459
21
-541.44417176158
31
6.000109610486
0
LINE
8
0
10
1814.799988662459
20
-541.44417176158
30
6.000109610486
11
1814.851099940784
21
-541.055942839864
31
6.000109627079
0
LINE
8
0
10
1814.851099940784
20
-541.055942839864
30
6.000109627079
11
1815.000950683334
21
-540.694171070115
31
6.000109641018
0
LINE
8
0
10
1815.000950683334
20
-540.694171070115
30
6.000109641018
11
1815.239328809641
21
-540.383510600587
31
6.000109651353
0
LINE
8
0
10
1815.239328809641
20
-540.383510600587
30
6.000109651353
11
1815.549989244339
21
-540.145132428887
31
6.00010965738
0
LINE
8
0
10
1815.549989244339
20
-540.145132428887
30
6.00010965738
11
1815.911760992192
21
-539.995281633479
31
6.000109658687
0
LINE
8
0
10
1815.911760992192
20
-539.995281633479
30
6.000109658687
11
1816.299989906441
21
-539.944170298428
31
6.000109655186
0
LINE
8
0
10
1816.299990125612
20
-688.399155605562
30
6.00010952108
11
1815.911761203895
21
-688.348044327236
31
6.00010952915
0
LINE
8
0
10
1815.911761203895
20
-688.348044327236
30
6.00010952915
11
1815.549989434146
21
-688.198193584687
31
6.00010954124
0
LINE
8
0
10
1815.549989434146
20
-688.198193584687
30
6.00010954124
11
1815.239328964618
21
-687.95981545838
31
6.000109556526
0
LINE
8
0
10
1815.239328964618
20
-687.95981545838
30
6.000109556526
11
1815.000950792918
21
-687.649155023682
31
6.000109573965
0
LINE
8
0
10
1815.000950792918
20
-687.649155023682
30
6.000109573965
11
1814.85109999751
21
-687.287383275829
31
6.00010959237
0
LINE
8
0
10
1814.85109999751
20
-687.287383275829
30
6.00010959237
11
1814.799988662459
21
-686.89915436158
31
6.000109610486
0
LINE
8
0
10
1814.799988662459
20
-686.89915436158
30
6.000109610486
11
1814.851099940784
21
-686.510925439863
31
6.000109627079
0
LINE
8
0
10
1814.851099940784
20
-686.510925439863
30
6.000109627079
11
1815.000950683334
21
-686.149153670115
31
6.000109641018
0
LINE
8
0
10
1815.000950683334
20
-686.149153670115
30
6.000109641018
11
1815.239328809641
21
-685.838493200587
31
6.000109651353
0
LINE
8
0
10
1815.239328809641
20
-685.838493200587
30
6.000109651353
11
1815.549989244339
21
-685.600115028888
31
6.00010965738
0
LINE
8
0
10
1815.549989244339
20
-685.600115028888
30
6.00010965738
11
1815.911760992192
21
-685.450264233479
31
6.000109658687
0
LINE
8
0
10
1815.911760992192
20
-685.450264233479
30
6.000109658687
11
1816.299989906441
21
-685.399152898428
31
6.000109655186
0
LINE
8
0
10
1876.299989706981
20
-509.322064315018
30
6.00010906022
11
1816.299989906441
21
-509.322068698428
31
6.000109655186
0
LINE
8
0
10
1816.299990125612
20
-665.432579405561
30
6.00010952108
11
1876.299989926152
21
-665.432575022152
31
6.000108626969
0
LINE
8
0
10
1816.299990125612
20
-657.777054005561
30
6.00010952108
11
1876.299989926152
21
-657.777049622152
31
6.000108626969
0
LINE
8
0
10
1876.299989706981
20
-654.777046915018
30
6.00010906022
11
1816.299989906441
21
-654.777051298428
31
6.000109655186
0
LINE
8
0
10
1816.299990125612
20
-512.322071405562
30
6.00010952108
11
1876.299989926152
21
-512.322067022151
31
6.000108626969
0
LINE
8
0
10
1876.299989706981
20
-562.910742115018
30
6.00010906022
11
1816.299989906441
21
-562.910746498428
31
6.000109655186
0
LINE
8
0
10
1816.299990125612
20
-673.088104805561
30
6.00010952108
11
1876.299989926152
21
-673.088100422152
31
6.000108626969
0
LINE
8
0
10
1876.299989706981
20
-662.432572315018
30
6.00010906022
11
1816.299989906441
21
-662.432576698428
31
6.000109655186
0
LINE
8
0
10
1816.299990125612
20
-642.466003205561
30
6.00010952108
11
1876.299989926152
21
-642.465998822151
31
6.000108626969
0
LINE
8
0
10
1876.299989706981
20
-570.566267515018
30
6.00010906022
11
1816.299989906441
21
-570.566271898428
31
6.000109655186
0
LINE
8
0
10
1816.299990125612
20
-573.566274605562
30
6.00010952108
11
1876.299989926152
21
-573.566270222152
31
6.000108626969
0
LINE
8
0
10
1876.299989706981
20
-693.054673915018
30
6.00010906022
11
1816.299989906441
21
-693.054678298428
31
6.000109655186
0
LINE
8
0
10
1816.299990125612
20
-650.121528605561
30
6.00010952108
11
1876.299989926152
21
-650.121524222151
31
6.000108626969
0
LINE
8
0
10
1876.299989706981
20
-639.465996115017
30
6.00010906022
11
1816.299989906441
21
-639.466000498428
31
6.000109655186
0
LINE
8
0
10
1876.299989706981
20
-494.011013515018
30
6.00010906022
11
1816.299989906441
21
-494.011017898428
31
6.000109655186
0
LINE
8
0
10
1816.299990125612
20
-497.011020605562
30
6.00010952108
11
1876.299989926152
21
-497.011016222152
31
6.000108626969
0
LINE
8
0
10
1816.299990125612
20
-504.666546005562
30
6.00010952108
11
1876.299989926152
21
-504.666541622152
31
6.000108626969
0
LINE
8
0
10
1816.299990125612
20
-680.743630205561
30
6.00010952108
11
1876.299989926152
21
-680.743625822152
31
6.000108626969
0
LINE
8
0
10
1876.299989706981
20
-486.355488115018
30
6.00010906022
11
1816.299989906441
21
-486.355492498428
31
6.000109655186
0
LINE
8
0
10
1816.299990125612
20
-489.355495205562
30
6.00010952108
11
1876.299989926152
21
-489.355490822152
31
6.000108626969
0
LINE
8
0
10
1816.299990125612
20
-627.154952405562
30
6.00010952108
11
1876.299989926152
21
-627.154948022152
31
6.000108626969
0
LINE
8
0
10
1816.299990125612
20
-604.188376205562
30
6.00010952108
11
1876.299989926152
21
-604.188371822152
31
6.000108626969
0
LINE
8
0
10
1876.299989706981
20
-601.188369115018
30
6.00010906022
11
1816.299989906441
21
-601.188373498428
31
6.000109655186
0
LINE
8
0
10
1876.299989706981
20
-608.843894515018
30
6.00010906022
11
1816.299989906441
21
-608.843898898428
31
6.000109655186
0
LINE
8
0
10
1816.299990125612
20
-611.843901605562
30
6.00010952108
11
1876.299989926152
21
-611.843897222152
31
6.000108626969
0
LINE
8
0
10
1876.299989706981
20
-585.877318315018
30
6.00010906022
11
1816.299989906441
21
-585.877322698428
31
6.000109655186
0
LINE
8
0
10
1876.299989706981
20
-501.666538915018
30
6.00010906022
11
1816.299989906441
21
-501.666543298428
31
6.000109655186
0
LINE
8
0
10
1876.299989706981
20
-647.121521515017
30
6.00010906022
11
1816.299989906441
21
-647.121525898428
31
6.000109655186
0
LINE
8
0
10
1816.299990125612
20
-588.877325405562
30
6.00010952108
11
1876.299989926152
21
-588.877321022152
31
6.000108626969
0
LINE
8
0
10
1816.299990125612
20
-565.910749205561
30
6.00010952108
11
1876.299989926152
21
-565.910744822152
31
6.000108626969
0
LINE
8
0
10
1876.299989706981
20
-539.944165915017
30
6.00010906022
11
1816.299989906441
21
-539.944170298428
31
6.000109655186
0
LINE
8
0
10
1816.299990125612
20
-558.255223805561
30
6.00010952108
11
1876.299989926152
21
-558.255219422152
31
6.000108626969
0
LINE
8
0
10
1876.299989706981
20
-555.255216715018
30
6.00010906022
11
1816.299989906441
21
-555.255221098428
31
6.000109655186
0
LINE
8
0
10
1876.299989706981
20
-516.977589715018
30
6.00010906022
11
1816.299989906441
21
-516.977594098428
31
6.000109655186
0
LINE
8
0
10
1816.299990125612
20
-519.977596805562
30
6.00010952108
11
1876.299989926152
21
-519.977592422151
31
6.000108626969
0
LINE
8
0
10
1816.299990125612
20
-535.288647605561
30
6.00010952108
11
1876.299989926152
21
-535.288643222151
31
6.000108626969
0
LINE
8
0
10
1845.800024376632
20
-804.699975245944
30
5.999979571629
11
1833.800024376631
21
-804.699976122625
31
5.999979750451
0
LINE
8
0
10
1876.299989706981
20
-547.599691315018
30
6.00010906022
11
1816.299989906441
21
-547.599695698428
31
6.000109655186
0
LINE
8
0
10
1816.299990125612
20
-711.365731805561
30
6.00010952108
11
1876.299989926152
21
-711.365727422152
31
6.000108626969
0
LINE
8
0
10
1810.299976396601
20
-424.19995964245
30
6.000116615706
11
1810.299976396601
21
-417.19995964245
31
6.00011745021
0
LINE
8
0
10
1882.299987667606
20
-424.19995964245
30
6.000116615706
11
1810.299976396601
21
-424.19995964245
31
6.000116615706
0
LINE
8
0
10
1882.299987667606
20
-424.19995964245
30
6.000116615706
11
1882.299976396602
21
-417.19995964245
31
6.00011745021
0
LINE
8
0
10
2180.299996541977
20
-424.199955922412
30
5.999992661542
11
2180.299996541977
21
-417.199950808434
31
5.999992139977
0
LINE
8
0
10
2110.299996541977
20
-417.199950808434
30
5.999992139977
11
2180.299996541977
21
-417.199950808434
31
5.999992139977
0
LINE
8
0
10
2200.300026495283
20
-833.699974662388
30
5.99997299256
11
2090.300026495282
21
-833.69998269864
31
5.999974631764
0
LINE
8
0
10
2090.300026495282
20
-833.69998269864
30
5.999974631764
11
2090.300024814973
21
-810.699957383549
31
5.999975659911
0
LINE
8
0
10
2090.300024814973
20
-810.699957383549
30
5.999975659911
11
2046.800024814972
21
-810.69996056152
31
5.999976308142
0
LINE
8
0
10
2046.800024814972
20
-810.69996056152
30
5.999976308142
11
2046.800024376631
21
-804.699960561519
31
5.999976576354
0
LINE
8
0
10
2046.800024376631
20
-804.699960561519
30
5.999976576354
11
2034.800024376631
21
-804.699961438202
31
5.999976755177
0
LINE
8
0
10
2034.800024376631
20
-804.699961438202
30
5.999976755177
11
2034.800024814972
21
-810.699961438202
31
5.999976486965
0
LINE
8
0
10
2034.800024814972
20
-810.699961438202
30
5.999976486965
11
1845.800024814973
21
-810.699975245945
31
5.999979303417
0
LINE
8
0
10
1845.800024814973
20
-810.699975245945
30
5.999979303417
11
1845.800024376632
21
-804.699975245944
31
5.999979571629
0
LINE
8
0
10
1902.299987667607
20
-412.19995592241
30
6.000113951173
11
1790.299976396602
21
-412.19995592241
31
6.000113951173
0
LINE
8
0
10
1902.299993737737
20
-467.199971118279
30
6.000026225313
11
1902.299987667607
21
-412.19995592241
31
6.000113951173
0
LINE
8
0
10
1902.299993737737
20
-467.199971118279
30
6.000026225313
11
1896.299993737739
21
-467.19997195554
31
6.000026163993
0
LINE
8
0
10
1896.299995412258
20
-479.199971955512
30
6.000042577772
11
1896.299993737739
21
-467.19997195554
31
6.000026163993
0
LINE
8
0
10
1902.299995412256
20
-479.199971118251
30
6.000042639091
11
1896.299995412258
21
-479.199971955512
31
6.000042577772
0
LINE
8
0
10
1902.300029949203
20
-726.699966064915
30
5.999982216428
11
1902.299995412256
21
-479.199971118251
31
6.000042639091
0
LINE
8
0
10
1902.300029949203
20
-726.699966064915
30
5.999982216428
11
2034.800018678198
21
-726.699961438202
31
5.999980241931
0
LINE
8
0
10
2034.800018678198
20
-726.699961438202
30
5.999980241931
11
2034.800019116539
21
-732.699961438202
31
5.999979973719
0
LINE
8
0
10
2034.800019116539
20
-732.699961438202
30
5.999979973719
11
2046.800019116539
21
-732.699960561521
31
5.999979794897
0
LINE
8
0
10
2046.800019116539
20
-732.699960561521
30
5.999979794897
11
2046.800018678198
21
-726.69996056152
31
5.999980063109
0
LINE
8
0
10
2046.800018678198
20
-726.69996056152
30
5.999980063109
11
2090.300018678199
21
-726.699957383547
31
5.999979414878
0
LINE
8
0
10
2090.300018678199
20
-726.699957383547
30
5.999979414878
11
2090.300000596631
21
-479.199957383549
31
5.999990478619
0
LINE
8
0
10
2090.300000596631
20
-479.199957383549
30
5.999990478619
11
2096.300000596631
21
-479.199956945208
31
5.999990389208
0
LINE
8
0
10
2096.300000596631
20
-479.199956945208
30
5.999990389208
11
2096.299999719949
21
-467.199956945208
31
5.999990925632
0
LINE
8
0
10
2096.299999719949
20
-467.199956945208
30
5.999990925632
11
2090.299999719949
21
-467.199957383549
31
5.999991015043
0
LINE
8
0
10
2090.299999719949
20
-467.199957383549
30
5.999991015043
11
2090.299997438584
21
-412.199949347298
31
5.99998865584
0
LINE
8
0
10
2200.299997438584
20
-412.199949347298
30
5.99998865584
11
2090.299997438584
21
-412.199949347298
31
5.99998865584
0
LINE
8
0
10
2200.299997438584
20
-412.199949347298
30
5.99998865584
11
2200.300026495283
21
-833.699974662388
31
5.99997299256
0
LINE
8
0
10
1790.300024814973
20
-810.699979300599
30
5.99998013047
11
1790.299976396602
21
-412.19995592241
31
6.000113951173
0
LINE
8
0
10
1833.800024814972
20
-810.699976122627
30
5.999979482239
11
1790.300024814973
21
-810.699979300599
31
5.99998013047
0
LINE
8
0
10
1833.800024376631
20
-804.699976122625
30
5.999979750451
11
1833.800024814972
21
-810.699976122627
31
5.999979482239
0
LINE
8
0
10
1876.299989706981
20
-708.365724715018
30
6.00010906022
11
1816.299989906441
21
-708.365729098428
31
6.000109655186
0
LINE
8
0
10
1816.299990125612
20
-550.599698405561
30
6.00010952108
11
1876.299989926152
21
-550.599694022152
31
6.000108626969
0
LINE
8
0
10
1816.299990125612
20
-481.699969805562
30
6.00010952108
11
1876.299989926152
21
-481.699965422152
31
6.000108626969
0
LINE
8
0
10
2110.299996541977
20
-424.199955922412
30
5.999992661542
11
2110.299996541977
21
-417.199950808434
31
5.999992139977
0
LINE
8
0
10
1876.299989706981
20
-478.699962715018
30
6.00010906022
11
1816.299989906441
21
-478.699967098428
31
6.000109655186
0
LINE
8
0
10
1876.299989706981
20
-578.221792915018
30
6.00010906022
11
1816.299989906441
21
-578.221797298428
31
6.000109655186
0
LINE
8
0
10
1816.299990125612
20
-581.221800005562
30
6.00010952108
11
1876.299989926152
21
-581.221795622152
31
6.000108626969
0
LINE
8
0
10
1816.299990125612
20
-696.054681005562
30
6.00010952108
11
1876.299989926152
21
-696.054676622152
31
6.000108626969
0
LINE
8
0
10
2110.299996541977
20
-424.199955922412
30
5.999992661542
11
2180.299996541977
21
-424.199955922412
31
5.999992661542
0
LINE
8
0
10
1810.299976396601
20
-417.19995964245
30
6.00011745021
11
1882.299976396602
21
-417.19995964245
31
6.00011745021
0
LINE
8
0
10
1816.299990125612
20
-527.633122205561
30
6.00010952108
11
1876.299989926152
21
-527.633117822151
31
6.000108626969
0
LINE
8
0
10
1876.299989706981
20
-524.633115115018
30
6.00010906022
11
1816.299989906441
21
-524.633119498428
31
6.000109655186
0
LINE
8
0
10
1876.299989706981
20
-532.288640515017
30
6.00010906022
11
1816.299989906441
21
-532.288644898428
31
6.000109655186
0
LINE
8
0
10
1876.299989706981
20
-616.499419915018
30
6.00010906022
11
1816.299989906441
21
-616.499424298428
31
6.000109655186
0
LINE
8
0
10
1816.299990125612
20
-619.499427005562
30
6.00010952108
11
1876.299989926152
21
-619.499422622152
31
6.000108626969
0
LINE
8
0
10
1876.299989706981
20
-624.154945315018
30
6.00010906022
11
1816.299989906441
21
-624.154949698428
31
6.000109655186
0
LINE
8
0
10
1876.299989706981
20
-700.710199315018
30
6.00010906022
11
1816.299989906441
21
-700.710203698428
31
6.000109655186
0
LINE
8
0
10
1816.299990125612
20
-703.710206405562
30
6.00010952108
11
1876.299989926152
21
-703.710202022152
31
6.000108626969
0
LINE
8
0
10
1816.299990125612
20
-634.810477805561
30
6.00010952108
11
1876.299989926152
21
-634.810473422151
31
6.000108626969
0
LINE
8
0
10
1816.299990125612
20
-596.532850805562
30
6.00010952108
11
1876.299989926152
21
-596.532846422152
31
6.000108626969
0
LINE
8
0
10
1876.299989706981
20
-593.532843715018
30
6.00010906022
11
1816.299989906441
21
-593.532848098428
31
6.000109655186
0
LINE
8
0
10
1876.299989706981
20
-631.810470715017
30
6.00010906022
11
1816.299989906441
21
-631.810475098428
31
6.000109655186
0
LINE
8
0
10
1816.299990125612
20
-688.399155605562
30
6.00010952108
11
1876.299989926152
21
-688.399151222152
31
6.000108626969
0
LINE
8
0
10
1876.299989706981
20
-685.399148515018
30
6.00010906022
11
1816.299989906441
21
-685.399152898428
31
6.000109655186
0
LINE
8
0
10
1816.299990125612
20
-542.944173005561
30
6.00010952108
11
1876.299989926152
21
-542.944168622151
31
6.000108626969
0
LINE
8
0
10
1876.299989706981
20
-677.743623115018
30
6.00010906022
11
1816.299989906441
21
-677.743627498428
31
6.000109655186
0
LINE
8
0
10
1876.299989706981
20
-670.088097715018
30
6.00010906022
11
1816.299989906441
21
-670.088102098428
31
6.000109655186
0
LINE
8
1
10
2015.113911892699
20
-718.199952974642
30
6.000033272097
11
1968.113911892699
21
-718.199952974608
31
6.000033272317
0
LINE
8
1
10
1968.113911892699
20
-718.199952974608
30
6.000033272317
11
1968.113911892774
21
-612.199946292119
31
6.000033270178
0
LINE
8
1
10
1980.113912015411
20
-612.199946292129
30
6.000033268906
11
1968.113911892774
21
-612.199946292119
31
6.000033270178
0
LINE
8
1
10
1980.113912015414
20
-606.199941900877
30
6.00003327009
11
1980.113912015411
21
-612.199946292129
31
6.000033268906
0
LINE
8
1
10
1968.113911892779
20
-606.199941900868
30
6.000033270146
11
1980.113912015414
21
-606.199941900877
31
6.00003327009
0
LINE
8
1
10
1968.113911892779
20
-606.199941900868
30
6.000033270146
11
1968.113911892872
21
-473.699952974609
31
6.000033271001
0
LINE
8
1
10
1968.113911892872
20
-473.699952974609
30
6.000033271001
11
1964.113911892872
21
-473.699952974605
31
6.00003327102
0
LINE
8
1
10
1963.596272732717
20
-473.631803407955
30
6.000033271022
11
1964.113911892872
21
-473.699952974605
31
6.00003327102
0
LINE
8
1
10
1963.113911892872
20
-473.432004823971
30
6.000033271023
11
1963.596272732717
21
-473.631803407955
31
6.000033271022
0
LINE
8
1
10
1963.596272732725
20
-461.768102541256
30
6.000033270958
11
1963.113911892881
21
-461.96790112524
31
6.000033270961
0
LINE
8
1
10
1964.11391189288
20
-461.699952974606
30
6.000033270955
11
1963.596272732725
21
-461.768102541256
31
6.000033270958
0
LINE
8
1
10
1964.11391189288
20
-461.699952974606
30
6.000033270955
11
1968.113911892881
21
-461.699952974608
31
6.000033270936
0
LINE
8
1
10
1968.182061459566
20
-413.682313814452
30
6.000033270678
11
1968.113911892914
21
-414.199952974609
31
6.000033270681
0
LINE
8
1
10
1968.38186004355
20
-413.199952974609
30
6.000033270674
11
1968.182061459566
21
-413.682313814452
31
6.000033270678
0
LINE
8
1
10
1968.699696805025
20
-412.785737886718
30
6.000033270671
11
1968.38186004355
21
-413.199952974609
31
6.000033270674
0
LINE
8
1
10
1969.113911892916
20
-412.467904939941
30
6.000033270667
11
1968.699696805025
21
-412.785737886718
31
6.000033270671
0
LINE
8
1
10
1969.59627273276
20
-412.268098726562
30
6.000033270664
11
1969.113911892916
21
-412.467904939941
31
6.000033270667
0
LINE
8
1
10
1970.113911892915
20
-412.199952974609
30
6.000033270661
11
1969.59627273276
21
-412.268098726562
31
6.000033270664
0
LINE
8
1
10
1978.631551053072
20
-412.268098726569
30
6.000033270621
11
1978.113911892916
21
-412.199952974615
31
6.000033270623
0
LINE
8
1
10
1979.113911892916
20
-412.467904939948
30
6.00003327062
11
1978.631551053072
21
-412.268098726569
31
6.000033270621
0
LINE
8
1
10
1980.113911892914
20
-414.199952974617
30
6.000033270625
11
1980.045762326264
21
-413.682313814461
31
6.000033270622
0
LINE
8
1
10
1980.113911892914
20
-414.199952974617
30
6.000033270625
11
1980.113911892912
21
-418.199952974619
31
6.000033270646
0
LINE
8
1
10
2015.113911892911
20
-418.199952974643
30
6.000033270483
11
2015.113911892902
21
-430.699952974642
31
6.00003327055
0
LINE
8
1
10
2015.113911892902
20
-430.699952974642
30
6.00003327055
11
2008.113911892903
21
-430.699952974637
31
6.000033270583
0
LINE
8
1
10
2008.113911892903
20
-430.699952974637
30
6.000033270583
11
2008.1139118929
21
-435.699952974636
31
6.00003327061
0
LINE
8
1
10
1962.699696804982
20
-473.114168062496
30
6.000033271023
11
1963.113911892872
21
-473.432004823971
31
6.000033271023
0
LINE
8
1
10
1962.381860043508
20
-472.699952974605
30
6.000033271022
11
1962.699696804982
21
-473.114168062496
31
6.000033271023
0
LINE
8
1
10
1962.182061459524
20
-472.217592134762
30
6.000033271021
11
1962.381860043508
21
-472.699952974605
31
6.000033271022
0
LINE
8
1
10
1962.113911892873
20
-471.699952974605
30
6.000033271018
11
1962.182061459524
21
-472.217592134762
31
6.000033271021
0
LINE
8
1
10
1962.113911892873
20
-471.699952974605
30
6.000033271018
11
1962.113911892879
21
-463.699952974605
31
6.000033270975
0
LINE
8
1
10
1962.381860043515
20
-462.699952974604
30
6.000033270969
11
1962.182061459531
21
-463.182313814449
31
6.000033270972
0
LINE
8
1
10
1962.69969680499
20
-462.285737886715
30
6.000033270965
11
1962.381860043515
21
-462.699952974604
31
6.000033270969
0
LINE
8
1
10
1963.113911892881
20
-461.96790112524
30
6.000033270961
11
1962.69969680499
21
-462.285737886715
31
6.000033270965
0
LINE
8
1
10
2015.113911892899
20
-435.699952974641
30
6.000033270577
11
2015.11391189289
21
-448.199952974642
31
6.000033270644
0
LINE
8
1
10
1968.113911892881
20
-461.699952974608
30
6.000033270936
11
1968.113911892914
21
-414.199952974609
31
6.000033270681
0
LINE
8
1
10
1970.113911892915
20
-412.199952974609
30
6.000033270661
11
1978.113911892916
21
-412.199952974615
31
6.000033270623
0
LINE
8
1
10
2008.1139118929
20
-435.699952974636
30
6.00003327061
11
2015.113911892899
21
-435.699952974641
31
6.000033270577
0
LINE
8
1
10
1980.113911892912
20
-418.199952974619
30
6.000033270646
11
2015.113911892911
21
-418.199952974643
31
6.000033270483
0
LINE
8
1
10
2015.11391189289
20
-448.199952974642
30
6.000033270644
11
2017.11391189289
21
-448.199952974643
31
6.000033270635
0
LINE
8
1
10
1979.528126980806
20
-412.785737886726
30
6.00003327062
11
1979.113911892916
21
-412.467904939948
31
6.00003327062
0
LINE
8
1
10
1979.845963742282
20
-413.199952974618
30
6.000033270621
11
1979.528126980806
21
-412.785737886726
31
6.00003327062
0
LINE
8
1
10
2019.113911892863
20
-487.199952974644
30
6.000033270836
11
2019.631550099344
21
-487.131805315343
31
6.000033270833
0
LINE
8
1
10
1962.182061459531
20
-463.182313814449
30
6.000033270972
11
1962.113911892879
21
-463.699952974605
31
6.000033270975
0
LINE
8
1
10
2020.528125073412
20
-475.785737886755
30
6.000033270767
11
2020.113911892871
21
-475.46790112528
31
6.000033270768
0
LINE
8
1
10
2004.113911892875
20
-469.799951448755
30
6.000033270812
11
2015.113911892874
21
-469.799951448763
31
6.000033270761
0
LINE
8
1
10
1980.045762326264
20
-413.682313814461
30
6.000033270622
11
1979.845963742282
21
-413.199952974618
31
6.000033270621
0
LINE
8
1
10
2001.113911892879
20
-465.599954500511
30
6.000033270803
11
2000.113911892878
21
-465.59995450051
31
6.000033270808
0
LINE
8
1
10
2021.113911892869
20
-477.199952974646
30
6.000033270772
11
2021.113911892864
21
-485.199952974645
31
6.000033270816
0
LINE
8
1
10
2021.113911892869
20
-477.199952974646
30
6.000033270772
11
2021.045763279894
21
-476.682313814489
31
6.000033270769
0
LINE
8
1
10
2021.045763279894
20
-476.682313814489
30
6.000033270769
11
2020.845962788562
21
-476.199952974644
31
6.000033270768
0
LINE
8
1
10
2020.845962788562
20
-476.199952974644
30
6.000033270768
11
2020.528125073412
21
-475.785737886755
31
6.000033270767
0
LINE
8
1
10
2020.113911892871
20
-475.46790112528
30
6.000033270768
11
2019.631550099353
21
-475.268102541296
31
6.000033270769
0
LINE
8
1
10
2019.631550099353
20
-475.268102541296
30
6.000033270769
11
2019.113911892871
21
-475.199952974644
31
6.000033270771
0
LINE
8
1
10
2017.113911892871
20
-475.199952974643
30
6.00003327078
11
2019.113911892871
21
-475.199952974644
31
6.000033270771
0
LINE
8
1
10
2015.113911892871
20
-475.199952974642
30
6.000033270789
11
2017.113911892871
21
-475.199952974643
31
6.00003327078
0
LINE
8
1
10
2015.113911892874
20
-469.799951448763
30
6.000033270761
11
2015.113911892871
21
-475.199952974642
31
6.000033270789
0
LINE
8
1
10
2004.113911892874
20
-471.299951448755
30
6.00003327082
11
2004.113911892875
21
-469.799951448755
31
6.000033270812
0
LINE
8
1
10
2001.113911892875
20
-471.299951448752
30
6.000033270834
11
2004.113911892874
21
-471.299951448755
31
6.00003327082
0
LINE
8
1
10
2001.113911892875
20
-469.799951448753
30
6.000033270826
11
2001.113911892875
21
-471.299951448752
31
6.000033270834
0
LINE
8
1
10
2000.113911892876
20
-469.799951448752
30
6.000033270831
11
2001.113911892875
21
-469.799951448753
31
6.000033270826
0
LINE
8
1
10
2000.113911892878
20
-465.59995450051
30
6.000033270808
11
2000.113911892876
21
-469.799951448752
31
6.000033270831
0
LINE
8
1
10
2001.11391189288
20
-464.09995450051
30
6.000033270795
11
2001.113911892879
21
-465.599954500511
31
6.000033270803
0
LINE
8
1
10
2004.113911892879
20
-464.099954500513
30
6.000033270781
11
2001.11391189288
21
-464.09995450051
31
6.000033270795
0
LINE
8
1
10
2004.113911892878
20
-465.599954500514
30
6.000033270789
11
2004.113911892879
21
-464.099954500513
31
6.000033270781
0
LINE
8
1
10
2015.113911892878
20
-465.599954500522
30
6.000033270738
11
2004.113911892878
21
-465.599954500514
31
6.000033270789
0
LINE
8
1
10
2015.113911892882
20
-460.199952974642
30
6.000033270709
11
2015.113911892878
21
-465.599954500522
31
6.000033270738
0
LINE
8
1
10
2017.113911892882
20
-460.199952974642
30
6.000033270699
11
2015.113911892882
21
-460.199952974642
31
6.000033270709
0
LINE
8
1
10
2019.113911892881
20
-460.199952974644
30
6.00003327069
11
2017.113911892882
21
-460.199952974642
31
6.000033270699
0
LINE
8
1
10
2019.113911892881
20
-460.199952974644
30
6.00003327069
11
2019.631550099364
21
-460.131803407993
31
6.000033270687
0
LINE
8
1
10
2019.631550099364
20
-460.131803407993
30
6.000033270687
11
2020.113911892882
21
-459.932004824011
31
6.000033270684
0
LINE
8
1
10
2020.113911892882
20
-459.932004824011
30
6.000033270684
11
2020.528125073425
21
-459.614168062536
31
6.000033270681
0
LINE
8
1
10
2020.528125073425
20
-459.614168062536
30
6.000033270681
11
2020.845962788574
21
-459.199952974646
31
6.000033270676
0
LINE
8
1
10
2020.845962788574
20
-459.199952974646
30
6.000033270676
11
2021.045763279908
21
-458.717592134801
31
6.000033270673
0
LINE
8
1
10
2021.045763279908
20
-458.717592134801
30
6.000033270673
11
2021.113911892883
21
-458.199952974646
31
6.00003327067
0
LINE
8
1
10
2021.113911892889
20
-450.199952974645
30
6.000033270627
11
2021.113911892883
21
-458.199952974646
31
6.00003327067
0
LINE
8
1
10
2021.113911892889
20
-450.199952974645
30
6.000033270627
11
2021.045763279913
21
-449.68231381449
31
6.000033270624
0
LINE
8
1
10
2021.045763279913
20
-449.68231381449
30
6.000033270624
11
2020.845962788581
21
-449.199952974645
31
6.000033270623
0
LINE
8
1
10
2020.845962788581
20
-449.199952974645
30
6.000033270623
11
2020.528125073432
21
-448.785737886755
31
6.000033270622
0
LINE
8
1
10
2020.528125073432
20
-448.785737886755
30
6.000033270622
11
2020.113911892891
21
-448.467904939977
31
6.000033270622
0
LINE
8
1
10
2020.113911892891
20
-448.467904939977
30
6.000033270622
11
2019.631550099371
21
-448.268098726598
31
6.000033270623
0
LINE
8
1
10
2019.631550099371
20
-448.268098726598
30
6.000033270623
11
2019.11391189289
21
-448.199952974644
31
6.000033270626
0
LINE
8
1
10
2017.11391189289
20
-448.199952974643
30
6.000033270635
11
2019.11391189289
21
-448.199952974644
31
6.000033270626
0
LINE
8
1
10
2015.113911892721
20
-688.199952974642
30
6.000033271935
11
2015.113911892699
21
-718.199952974642
31
6.000033272097
0
LINE
8
1
10
2017.113911892721
20
-688.199952974643
30
6.000033271927
11
2015.113911892721
21
-688.199952974642
31
6.000033271935
0
LINE
8
1
10
2019.11391189272
20
-688.199952974644
30
6.000033271917
11
2017.113911892721
21
-688.199952974643
31
6.000033271927
0
LINE
8
1
10
2019.11391189272
20
-688.199952974644
30
6.000033271917
11
2019.631550099203
21
-688.131807222691
31
6.000033271914
0
LINE
8
1
10
2019.631550099203
20
-688.131807222691
30
6.000033271914
11
2020.113911892721
21
-687.932008638707
31
6.000033271911
0
LINE
8
1
10
2020.113911892721
20
-687.932008638707
30
6.000033271911
11
2020.528125073262
21
-687.614168062536
31
6.000033271907
0
LINE
8
1
10
2020.528125073262
20
-687.614168062536
30
6.000033271907
11
2020.845962788412
21
-687.199952974646
31
6.000033271903
0
LINE
8
1
10
2020.845962788412
20
-687.199952974646
30
6.000033271903
11
2021.045763279746
21
-686.717592134801
31
6.0000332719
0
LINE
8
1
10
2021.045763279746
20
-686.717592134801
30
6.0000332719
11
2021.113911892723
21
-686.199952974645
31
6.000033271897
0
LINE
8
1
10
2021.113911892728
20
-678.199952974645
30
6.000033271854
11
2021.113911892723
21
-686.199952974645
31
6.000033271897
0
LINE
8
1
10
2021.113911892728
20
-678.199952974645
30
6.000033271854
11
2021.045763279752
21
-677.682313814489
31
6.000033271851
0
LINE
8
1
10
2021.045763279752
20
-677.682313814489
30
6.000033271851
11
2020.845962788419
21
-677.199952974646
31
6.00003327185
0
LINE
8
1
10
2020.845962788419
20
-677.199952974646
30
6.00003327185
11
2020.528125073272
21
-676.785737886754
31
6.000033271849
0
LINE
8
1
10
2020.528125073272
20
-676.785737886754
30
6.000033271849
11
2020.113911892729
21
-676.467897310582
31
6.000033271849
0
LINE
8
1
10
2020.113911892729
20
-676.467897310582
30
6.000033271849
11
2019.631550099212
21
-676.268098726597
31
6.000033271851
0
LINE
8
1
10
2019.631550099212
20
-676.268098726597
30
6.000033271851
11
2019.113911892729
21
-676.199952974644
31
6.000033271853
0
LINE
8
1
10
2017.113911892729
20
-676.199952974643
30
6.000033271862
11
2019.113911892729
21
-676.199952974644
31
6.000033271853
0
LINE
8
1
10
2015.113911892729
20
-676.199952974642
30
6.000033271871
11
2017.113911892729
21
-676.199952974643
31
6.000033271862
0
LINE
8
1
10
2015.113911892733
20
-670.799959078158
30
6.000033271842
11
2015.113911892729
21
-676.199952974642
31
6.000033271871
0
LINE
8
1
10
2004.113911892734
20
-670.79995907815
30
6.000033271894
11
2015.113911892733
21
-670.799959078158
31
6.000033271842
0
LINE
8
1
10
2004.113911892732
20
-672.29995907815
30
6.000033271902
11
2004.113911892734
21
-670.79995907815
31
6.000033271894
0
LINE
8
1
10
2001.113911892732
20
-672.299959078147
30
6.000033271916
11
2004.113911892732
21
-672.29995907815
31
6.000033271902
0
LINE
8
1
10
2001.113911892734
20
-670.799959078147
30
6.000033271907
11
2001.113911892732
21
-672.299959078147
31
6.000033271916
0
LINE
8
1
10
2000.113911892733
20
-670.799959078146
30
6.000033271912
11
2001.113911892734
21
-670.799959078147
31
6.000033271907
0
LINE
8
1
10
2000.113911892736
20
-666.599946871114
30
6.000033271889
11
2000.113911892733
21
-670.799959078146
31
6.000033271912
0
LINE
8
1
10
2001.113911892736
20
-666.599946871115
30
6.000033271885
11
2000.113911892736
21
-666.599946871114
31
6.000033271889
0
LINE
8
1
10
2001.113911892737
20
-665.099946871115
30
6.000033271877
11
2001.113911892736
21
-666.599946871115
31
6.000033271885
0
LINE
8
1
10
2004.113911892738
20
-665.099946871118
30
6.000033271863
11
2001.113911892737
21
-665.099946871115
31
6.000033271877
0
LINE
8
1
10
2004.113911892736
20
-666.599946871117
30
6.000033271871
11
2004.113911892738
21
-665.099946871118
31
6.000033271863
0
LINE
8
1
10
2015.113911892736
20
-666.599946871125
30
6.000033271819
11
2004.113911892736
21
-666.599946871117
31
6.000033271871
0
LINE
8
1
10
2015.113911892739
20
-661.199952974641
30
6.00003327179
11
2015.113911892736
21
-666.599946871125
31
6.000033271819
0
LINE
8
1
10
2017.113911892739
20
-661.199952974643
30
6.000033271781
11
2015.113911892739
21
-661.199952974641
31
6.00003327179
0
LINE
8
1
10
2019.11391189274
20
-661.199952974643
30
6.000033271772
11
2017.113911892739
21
-661.199952974643
31
6.000033271781
0
LINE
8
1
10
2019.11391189274
20
-661.199952974643
30
6.000033271772
11
2019.631550099221
21
-661.131807222691
31
6.000033271769
0
LINE
8
1
10
2019.631550099221
20
-661.131807222691
30
6.000033271769
11
2020.11391189274
21
-660.932008638707
31
6.000033271765
0
LINE
8
1
10
2020.11391189274
20
-660.932008638707
30
6.000033271765
11
2020.528125073282
21
-660.614168062536
31
6.000033271762
0
LINE
8
1
10
2020.528125073282
20
-660.614168062536
30
6.000033271762
11
2020.845962788432
21
-660.199952974646
31
6.000033271758
0
LINE
8
1
10
2020.845962788432
20
-660.199952974646
30
6.000033271758
11
2021.045763279764
21
-659.717592134802
31
6.000033271754
0
LINE
8
1
10
2021.045763279764
20
-659.717592134802
30
6.000033271754
11
2021.113911892741
21
-659.199952974646
31
6.000033271752
0
LINE
8
1
10
2021.113911892747
20
-651.199952974645
30
6.000033271709
11
2021.113911892741
21
-659.199952974646
31
6.000033271752
0
LINE
8
1
10
2021.113911892747
20
-651.199952974645
30
6.000033271709
11
2021.045763279771
21
-650.682313814489
31
6.000033271706
0
LINE
8
1
10
2021.045763279771
20
-650.682313814489
30
6.000033271706
11
2020.845962788439
21
-650.199952974645
31
6.000033271704
0
LINE
8
1
10
2020.845962788439
20
-650.199952974645
30
6.000033271704
11
2020.52812507329
21
-649.785737886754
31
6.000033271704
0
LINE
8
1
10
2020.52812507329
20
-649.785737886754
30
6.000033271704
11
2020.113911892748
21
-649.467897310582
31
6.000033271704
0
LINE
8
1
10
2020.113911892748
20
-649.467897310582
30
6.000033271704
11
2019.631550099231
21
-649.268098726598
31
6.000033271705
0
LINE
8
1
10
2019.631550099231
20
-649.268098726598
30
6.000033271705
11
2019.113911892749
21
-649.199952974645
31
6.000033271707
0
LINE
8
1
10
2017.113911892748
20
-649.199952974643
30
6.000033271716
11
2019.113911892749
21
-649.199952974645
31
6.000033271707
0
LINE
8
1
10
2015.113911892748
20
-649.199952974642
30
6.000033271726
11
2017.113911892748
21
-649.199952974643
31
6.000033271716
0
LINE
8
1
10
2015.113911892863
20
-487.199952974641
30
6.000033270854
11
2015.113911892748
21
-649.199952974642
31
6.000033271726
0
LINE
8
1
10
2017.113911892863
20
-487.199952974642
30
6.000033270845
11
2015.113911892863
21
-487.199952974641
31
6.000033270854
0
LINE
8
1
10
2019.113911892863
20
-487.199952974644
30
6.000033270836
11
2017.113911892863
21
-487.199952974642
31
6.000033270845
0
LINE
8
1
10
2019.631550099344
20
-487.131805315343
30
6.000033270833
11
2020.113911892864
21
-486.932002916661
31
6.00003327083
0
LINE
8
1
10
2020.113911892864
20
-486.932002916661
30
6.00003327083
11
2020.528125073406
21
-486.614166155186
31
6.000033270826
0
LINE
8
1
10
2020.528125073406
20
-486.614166155186
30
6.000033270826
11
2020.845962788555
21
-486.199952974646
31
6.000033270822
0
LINE
8
1
10
2020.845962788555
20
-486.199952974646
30
6.000033270822
11
2021.045763279888
21
-485.717590227453
31
6.000033270818
0
LINE
8
1
10
2021.045763279888
20
-485.717590227453
30
6.000033270818
11
2021.113911892864
21
-485.199952974645
31
6.000033270816
0
LINE
8
2
10
1948.952903083787
20
-412.217063587613
30
6.000036778885
11
1948.696317378028
21
-412.268101657816
31
6.000036781509
0
LINE
8
2
10
1948.448588603514
20
-412.352194245404
30
6.000036784044
11
1948.213955468259
21
-412.467902502888
31
6.000036786445
0
LINE
8
2
10
1906.627247699088
20
-560.98241432302
30
6.000040151571
11
1906.799740816035
21
-560.7857236184
31
6.000040121522
0
LINE
8
2
10
1906.799740816035
20
-560.7857236184
30
6.000040121522
11
1906.996431519284
21
-560.613230499888
31
6.000040088025
0
LINE
8
2
10
1906.996431519284
20
-560.613230499888
30
6.000040088025
11
1907.213954376368
21
-560.467886372568
31
6.000040051654
0
LINE
8
2
10
1907.213954376368
20
-560.467886372568
30
6.000040051654
11
1907.448587510896
21
-560.352178114754
31
6.000040013031
0
LINE
8
2
10
1907.448587510896
20
-560.352178114754
30
6.000040013031
11
1907.696316284881
21
-560.268085526818
31
6.000039972818
0
LINE
8
2
10
1907.696316284881
20
-560.268085526818
30
6.000039972818
11
1907.952901990318
21
-560.217047456254
31
6.000039931702
0
LINE
8
2
10
1908.213954374648
20
-560.199937178601
30
6.000039890386
11
1907.952901990318
21
-560.217047456254
31
6.000039931702
0
LINE
8
2
10
1912.213954374649
20
-560.199937172457
30
6.000039261217
11
1908.213954374648
21
-560.199937178601
31
6.000039890386
0
LINE
8
2
10
1912.213954374649
20
-560.199937172457
30
6.000039261217
11
1912.213956496332
21
-480.499950700927
31
6.000037760595
0
LINE
8
2
10
1912.213956496332
20
-480.499950700927
30
6.000037760595
11
1923.213958123158
21
-480.499950323437
31
6.000032133385
0
LINE
8
2
10
1923.213958123158
20
-480.499950323437
30
6.000032133385
11
1923.213958123154
21
-481.999950700953
31
6.00003246022
0
LINE
8
2
10
1923.213958123154
20
-481.999950700953
30
6.00003246022
11
1926.213958123154
21
-481.999950700961
31
6.000031648304
0
LINE
8
2
10
1926.213958123154
20
-481.999950700961
30
6.000031648304
11
1926.213958123154
21
-480.49995070096
31
6.000032054258
0
LINE
8
2
10
1926.213958123154
20
-480.49995070096
30
6.000032054258
11
1927.213958123158
21
-480.49995070096
31
6.000031986598
0
LINE
8
2
10
1927.213958123158
20
-480.49995070096
30
6.000031986598
11
1927.213958123169
21
-476.299938493931
31
6.000032460205
0
LINE
8
2
10
1927.213958123169
20
-476.299938493931
30
6.000032460205
11
1926.213958123168
21
-476.299938493929
31
6.000032460205
0
LINE
8
2
10
1926.213958123168
20
-476.299938493929
30
6.000032460205
11
1926.213958123168
21
-474.799938493929
31
6.000032460201
0
LINE
8
2
10
1926.213958123168
20
-474.799938493929
30
6.000032460201
11
1923.213958123172
21
-474.799938493929
31
6.000032460201
0
LINE
8
2
10
1923.213958123172
20
-474.799938493929
30
6.000032460201
11
1923.213958123172
21
-476.299938493921
31
6.000032402958
0
LINE
8
2
10
1923.213958123172
20
-476.299938493921
30
6.000032402958
11
1912.2139563522
21
-476.299938493923
31
6.000038722571
0
LINE
8
2
10
1912.2139563522
20
-476.299938493923
30
6.000038722571
11
1912.213955581688
21
-418.199953318494
31
6.000037154554
0
LINE
8
2
10
1912.213955581688
20
-418.199953318494
30
6.000037154554
11
1947.213955468976
21
-418.199953310586
31
6.000036796867
0
LINE
8
2
10
1959.061714410766
20
-413.434586444267
30
6.00003667562
11
1959.145806998353
21
-413.682315218781
31
6.000036674769
0
LINE
8
2
10
1959.214065127951
20
-665.699945862459
30
6.000002137804
11
1959.21395534584
21
-414.199953308977
31
6.000036674091
0
LINE
8
2
10
1924.431478439725
20
-625.113230777715
30
6.000032943928
11
1924.628169144081
21
-625.285723895924
31
6.00003282682
0
LINE
8
2
10
1924.628169144081
20
-625.285723895924
30
6.00003282682
11
1924.800662262291
21
-625.48241460028
31
6.00003272412
0
LINE
8
2
10
1959.21395534584
20
-414.199953308977
30
6.000036674091
11
1959.196845068554
21
-413.938900924539
31
6.000036674256
0
LINE
8
2
10
1924.628169144082
20
-637.114151023301
30
6.000032688824
11
1924.431478439727
21
-637.286644141511
31
6.000032759587
0
LINE
8
2
10
1906.231064663062
20
-561.938884797206
30
6.000040228078
11
1906.282102731584
21
-561.682299091363
31
6.000040216244
0
LINE
8
2
10
1958.628168908036
20
-412.78573974668
30
6.000036680027
11
1958.80066202627
21
-412.982430451013
31
6.000036678271
0
LINE
8
2
10
1958.80066202627
20
-412.982430451013
30
6.000036678271
11
1958.946006153283
21
-413.199953309012
31
6.000036676794
0
LINE
8
2
10
1959.145806998353
20
-413.682315218781
30
6.000036674769
11
1959.196845068554
21
-413.938900924539
31
6.000036674256
0
LINE
8
2
10
1925.061714646732
20
-636.465304325659
30
6.000032532846
11
1924.946006389278
21
-636.699937460928
31
6.000032574475
0
LINE
8
2
10
1906.36619531755
20
-561.434570316709
30
6.000040199341
11
1906.481903573498
21
-561.199937181261
31
6.00004017766
0
LINE
8
2
10
1958.946006153283
20
-413.199953309012
30
6.000036676794
11
1959.061714410766
21
-413.434586444267
31
6.00003667562
0
LINE
8
2
10
1907.696316425258
20
-572.631789120449
30
6.000040156241
11
1907.952902131351
21
-572.682827190224
31
6.00004011664
0
LINE
8
2
10
1958.213955345623
20
-412.467902501538
30
6.000036684249
11
1958.431478203658
21
-412.613246628496
31
6.000036682031
0
LINE
8
2
10
1957.731593435803
20
-412.268101656591
30
6.000036689172
11
1957.979322210339
21
-412.352194244115
31
6.000036686643
0
LINE
8
2
10
1948.696317378028
20
-412.268101657816
30
6.000036781509
11
1948.448588603514
21
-412.352194245404
31
6.000036784044
0
LINE
8
2
10
1947.996432610259
20
-412.613246629903
30
6.000036788674
11
1947.799741905925
21
-412.785739748138
31
6.00003679069
0
LINE
8
2
10
1947.799741905925
20
-412.785739748138
30
6.00003679069
11
1947.62724878774
21
-412.982430452515
31
6.00003679246
0
LINE
8
2
10
1958.431478203658
20
-412.613246628496
30
6.000036682031
11
1958.628168908036
21
-412.78573974668
31
6.000036680027
0
LINE
8
2
10
1948.213955468259
20
-412.467902502888
30
6.000036786445
11
1947.996432610259
21
-412.613246629903
31
6.000036788674
0
LINE
8
2
10
1947.62724878774
20
-412.982430452515
30
6.00003679246
11
1947.481904660781
21
-413.199953310552
31
6.000036793953
0
LINE
8
2
10
1949.213955468225
20
-412.199953310327
30
6.000036776216
11
1957.213955345589
21
-412.199953309236
31
6.000036694459
0
LINE
8
2
10
1957.979322210339
20
-412.352194244115
30
6.000036686643
11
1958.213955345623
21
-412.467902501538
31
6.000036684249
0
LINE
8
2
10
1963.979363286963
20
-665.852184683731
30
6.000002067859
11
1963.731634475138
21
-665.768092206058
31
6.000002082125
0
LINE
8
2
10
1906.799740949768
20
-572.114151031621
30
6.000040289587
11
1906.996431655231
21
-572.286644149528
31
6.000040261207
0
LINE
8
2
10
1923.731593671913
20
-624.76808580572
30
6.000033360631
11
1923.979322446438
21
-624.852178393275
31
6.000033213137
0
LINE
8
2
10
1907.213954514181
20
-572.431988276181
30
6.000040229149
11
1907.448587650193
21
-572.547696533274
31
6.00004019396
0
LINE
8
2
10
1906.627247830296
20
-571.91746032753
30
6.0000403138
11
1906.799740949768
21
-572.114151031621
31
6.000040289587
0
LINE
8
2
10
1923.213955581708
20
-624.699937458298
30
6.000033668828
11
1923.475007966148
21
-624.71704773555
31
6.0000335134
0
LINE
8
2
10
1906.481903573498
20
-561.199937181261
30
6.00004017766
11
1906.627247699088
21
-560.98241432302
31
6.000040151571
0
LINE
8
2
10
1906.996431655231
20
-572.286644149528
30
6.000040261207
11
1907.213954514181
21
-572.431988276181
31
6.000040229149
0
LINE
8
2
10
1906.231064781992
20
-570.960989854561
30
6.000040361927
11
1906.282102853809
21
-571.217575560248
31
6.000040357706
0
LINE
8
2
10
1923.475007966148
20
-624.71704773555
30
6.0000335134
11
1923.731593671913
21
-624.76808580572
31
6.000033360631
0
LINE
8
2
10
1965.145848664803
20
-667.18230514114
30
6.000001870332
11
1965.061755967364
21
-666.934576403915
31
6.000001905759
0
LINE
8
2
10
1965.196886848784
20
-667.438890824266
30
6.000001834005
11
1965.145848664803
21
-667.18230514114
31
6.000001870332
0
LINE
8
2
10
1959.214065127951
20
-665.699945862459
30
6.000002137804
11
1963.213996354705
21
-665.699944088241
31
6.000002096926
0
LINE
8
2
10
1963.213996354705
20
-665.699944088241
30
6.000002096926
11
1963.475048746734
21
-665.7170542497
31
6.000002091869
0
LINE
8
2
10
1965.196890628868
20
-675.961000929146
30
6.00000064482
11
1965.214000790328
21
-675.699948537117
31
6.000000681074
0
LINE
8
2
10
1965.214000790328
20
-675.699948537117
30
6.000000681074
11
1965.213997241829
21
-667.699943201117
31
6.000001797403
0
LINE
8
2
10
1964.213996473557
20
-665.96789283711
30
6.000002049315
11
1963.979363286963
21
-665.852184683731
31
6.000002067859
0
LINE
8
2
10
1964.800703382364
20
-666.48242052642
30
6.000001971521
11
1964.62821017691
21
-666.285729898577
31
6.000002000731
0
LINE
8
2
10
1912.213955581713
20
-624.699937458299
30
6.000040218117
11
1912.2139545159
21
-572.699937460932
31
6.000039446663
0
LINE
8
2
10
1908.213954515901
20
-572.699937467076
30
6.000040075832
11
1907.952902131351
21
-572.682827190224
31
6.00004011664
0
LINE
8
2
10
1912.213955581713
20
-624.699937458299
30
6.000040218117
11
1923.213955581708
21
-624.699937458298
31
6.000033668828
0
LINE
8
2
10
1912.2139545159
20
-572.699937460932
30
6.000039446663
11
1908.213954515901
21
-572.699937467076
31
6.000040075832
0
LINE
8
2
10
1906.213954503064
20
-570.699937470148
30
6.000040360745
11
1906.213954387485
21
-562.199937181673
31
6.000040234642
0
LINE
8
2
10
1907.448587650193
20
-572.547696533274
30
6.00004019396
11
1907.696316425258
21
-572.631789120449
31
6.000040156241
0
LINE
8
2
10
1906.481903701914
20
-571.699937469736
30
6.000040333435
11
1906.627247830296
21
-571.91746032753
31
6.0000403138
0
LINE
8
2
10
1906.231064781992
20
-570.960989854561
30
6.000040361927
11
1906.213954503064
21
-570.699937470148
31
6.000040360745
0
LINE
8
2
10
1906.366195442954
20
-571.465304334644
30
6.000040348154
11
1906.481903701914
21
-571.699937469736
31
6.000040333435
0
LINE
8
2
10
1906.213954387485
20
-562.199937181673
30
6.000040234642
11
1906.231064663062
21
-561.938884797206
31
6.000040228078
0
LINE
8
2
10
1906.282102731584
20
-561.682299091363
30
6.000040216244
11
1906.36619531755
21
-561.434570316709
31
6.000040199341
0
LINE
8
2
10
1923.979322446438
20
-624.852178393275
30
6.000033213137
11
1924.213955581708
21
-624.967886650729
31
6.000033073438
0
LINE
8
2
10
1906.282102853809
20
-571.217575560248
30
6.000040357706
11
1906.366195442954
21
-571.465304334644
31
6.000040348154
0
LINE
8
2
10
1964.431524352148
20
-677.286655564777
30
6.000000467659
11
1964.2140015586
21
-677.431999788248
31
6.000000449601
0
LINE
8
2
10
1912.213955581722
20
-721.19993746093
30
6.000037155262
11
1912.213956496345
21
-673.799950700925
31
6.000030394417
0
LINE
8
2
10
1959.214070450698
20
-677.69995119846
30
6.000000463309
11
1963.214001677452
21
-677.699949424241
31
6.00000042243
0
LINE
8
2
10
1912.213956496345
20
-673.799950700925
30
6.000030394417
11
1923.213958123171
21
-673.799950323436
31
6.000024767207
0
LINE
8
2
10
1927.213958123182
20
-669.59993849393
30
6.000025094027
11
1926.213958123181
21
-669.599938493928
31
6.000025094027
0
LINE
8
2
10
1965.145852672511
20
-676.21758665755
30
6.000000609538
11
1965.061760194838
21
-676.465315469375
31
6.000000575829
0
LINE
8
2
10
1964.2140015586
20
-677.431999788248
30
6.000000449601
11
1963.979368474654
21
-677.547708149776
31
6.000000435853
0
LINE
8
2
10
1964.628214979993
20
-677.114162359323
30
6.000000489719
11
1964.431524352148
21
-677.286655564777
31
6.000000467659
0
LINE
8
2
10
1965.061760194838
20
-676.465315469375
30
6.000000575829
11
1964.946052041459
21
-676.699948655969
31
6.00000054427
0
LINE
8
2
10
1963.214001677452
20
-677.699949424241
30
6.00000042243
11
1963.475054054303
21
-677.682839031196
31
6.00000042215
0
LINE
8
2
10
1964.946052041459
20
-676.699948655969
30
6.00000054427
11
1964.800708010957
21
-676.917471578455
31
6.000000515402
0
LINE
8
2
10
1926.213958123167
20
-675.29995070096
30
6.000024282126
11
1926.213958123167
21
-673.799950700959
31
6.00002468808
0
LINE
8
2
10
1926.213958123167
20
-673.799950700959
30
6.00002468808
11
1927.213958123171
21
-673.799950700959
31
6.00002462042
0
LINE
8
2
10
1964.800708010957
20
-676.917471578455
30
6.000000515402
11
1964.628214979993
21
-677.114162359323
31
6.000000489719
0
LINE
8
2
10
1963.979368474654
20
-677.547708149776
30
6.000000435853
11
1963.731639737429
21
-677.631800847215
31
6.00000042665
0
LINE
8
2
10
1963.731639737429
20
-677.631800847215
30
6.00000042665
11
1963.475054054303
21
-677.682839031196
31
6.00000042215
0
LINE
8
2
10
1912.213955581722
20
-721.19993746093
30
6.000037155262
11
1959.213955346374
21
-721.199937451413
31
6.000036674938
0
LINE
8
2
10
1923.213958123171
20
-673.799950323436
30
6.000024767207
11
1923.213958123167
21
-675.299950700952
31
6.000025094042
0
LINE
8
2
10
1926.213958123181
20
-669.599938493928
30
6.000025094027
11
1926.213958123181
21
-668.099938493928
31
6.000025094023
0
LINE
8
2
10
1927.213958123171
20
-673.799950700959
30
6.00002462042
11
1927.213958123182
21
-669.59993849393
31
6.000025094027
0
LINE
8
2
10
1923.213958123167
20
-675.299950700952
30
6.000025094042
11
1926.213958123167
21
-675.29995070096
31
6.000024282126
0
LINE
8
2
10
1959.213955346374
20
-721.199937451413
30
6.000036674938
11
1959.214070450698
21
-677.69995119846
31
6.000000463309
0
LINE
8
2
10
1947.282103815832
20
-413.682315220373
30
6.000036796011
11
1947.231065745695
21
-413.938900926144
31
6.000036796542
0
LINE
8
2
10
1947.481904660781
20
-413.199953310552
30
6.000036793953
11
1947.366196403357
21
-413.434586445837
31
6.000036795144
0
LINE
8
2
10
1947.366196403357
20
-413.434586445837
30
6.000036795144
11
1947.282103815832
21
-413.682315220373
31
6.000036796011
0
LINE
8
2
10
1965.061755967364
20
-666.934576403915
30
6.000001905759
11
1964.946047605836
21
-666.699943319969
31
6.000001939682
0
LINE
8
2
10
1964.62821017691
20
-666.285729898577
30
6.000002000731
11
1964.431519396044
21
-666.113236867611
31
6.000002026811
0
LINE
8
2
10
1963.731634475138
20
-665.768092206058
30
6.000002082125
11
1963.475048746734
21
-665.7170542497
31
6.000002091869
0
LINE
8
2
10
1965.213997241829
20
-667.699943201117
30
6.000001797403
11
1965.196886848784
21
-667.438890824266
31
6.000001834005
0
LINE
8
2
10
1924.431478439727
20
-637.286644141511
30
6.000032759587
11
1924.213955581709
21
-637.431988268497
31
6.000032837846
0
LINE
8
2
10
1924.946006389278
20
-636.699937460928
30
6.000032574475
11
1924.800662262292
21
-636.917460318946
31
6.000032626766
0
LINE
8
2
10
1965.196890628868
20
-675.961000929146
30
6.00000064482
11
1965.145852672511
21
-676.21758665755
31
6.000000609538
0
LINE
8
2
10
1964.431519396044
20
-666.113236867611
30
6.000002026811
11
1964.213996473557
21
-665.96789283711
31
6.000002049315
0
LINE
8
2
10
1925.145807234287
20
-636.217575551134
30
6.000032502592
11
1925.061714646732
21
-636.465304325659
31
6.000032532846
0
LINE
8
2
10
1925.213955581708
20
-626.699937458298
30
6.000032478052
11
1925.213955581709
21
-635.699937460928
31
6.000032478073
0
LINE
8
2
10
1964.946047605836
20
-666.699943319969
30
6.000001939682
11
1964.800703382364
21
-666.48242052642
31
6.000001971521
0
LINE
8
2
10
1924.213955581708
20
-624.967886650729
30
6.000033073438
11
1924.431478439725
21
-625.113230777715
31
6.000032943928
0
LINE
8
2
10
1925.196845304457
20
-635.960989845369
30
6.00003248423
11
1925.145807234287
21
-636.217575551134
31
6.000032502592
0
LINE
8
2
10
1924.800662262292
20
-636.917460318946
30
6.000032626766
11
1924.628169144082
21
-637.114151023301
31
6.000032688824
0
LINE
8
2
10
1923.97932244644
20
-637.547696525951
30
6.00003292226
11
1923.731593671914
21
-637.631789113507
31
6.000033011385
0
LINE
8
2
10
1925.196845304456
20
-626.438885073858
30
6.000032488239
11
1925.213955581708
21
-626.699937458298
31
6.000032478052
0
LINE
8
2
10
1925.213955581709
20
-635.699937460928
30
6.000032478073
11
1925.196845304457
21
-635.960989845369
31
6.00003248423
0
LINE
8
2
10
1923.47500796615
20
-637.682827183676
30
6.000033103696
11
1923.21395558171
21
-637.699937460929
31
6.000033197615
0
LINE
8
2
10
1912.213956352212
20
-669.599938493922
30
6.000031356393
11
1912.213955581712
21
-637.69993746093
31
6.000037155067
0
LINE
8
2
10
1923.731593671914
20
-637.631789113507
30
6.000033011385
11
1923.47500796615
21
-637.682827183676
31
6.000033103696
0
LINE
8
2
10
1924.800662262291
20
-625.48241460028
30
6.00003272412
11
1924.946006389277
21
-625.699937458297
31
6.000032637584
0
LINE
8
2
10
1925.145807234286
20
-626.182299368092
30
6.000032518626
11
1925.196845304456
21
-626.438885073858
31
6.000032488239
0
LINE
8
2
10
1924.213955581709
20
-637.431988268497
30
6.000032837846
11
1923.97932244644
21
-637.547696525951
31
6.00003292226
0
LINE
8
2
10
1924.946006389277
20
-625.699937458297
30
6.000032637584
11
1925.061714646731
21
-625.934570593567
31
6.000032568693
0
LINE
8
2
10
1925.061714646731
20
-625.934570593567
30
6.000032568693
11
1925.145807234286
21
-626.182299368092
31
6.000032518626
0
LINE
8
2
10
1923.21395558171
20
-637.699937460929
30
6.000033197615
11
1912.213955581712
21
-637.69993746093
31
6.000037155067
0
LINE
8
2
10
1923.213958123185
20
-669.599938493921
30
6.00002503678
11
1912.213956352212
21
-669.599938493922
31
6.000031356393
0
LINE
8
2
10
1923.213958123185
20
-668.099938493928
30
6.000025094023
11
1923.213958123185
21
-669.599938493921
31
6.00002503678
0
LINE
8
2
10
1926.213958123181
20
-668.099938493928
30
6.000025094023
11
1923.213958123185
21
-668.099938493928
31
6.000025094023
0
LINE
8
2
10
1957.475007730031
20
-412.217063586455
30
6.000036691792
11
1957.731593435803
21
-412.268101656591
31
6.000036689172
0
LINE
8
2
10
1957.213955345589
20
-412.199953309236
30
6.000036694459
11
1957.475007730031
21
-412.217063586455
31
6.000036691792
0
LINE
8
2
10
1948.952903083787
20
-412.217063587613
30
6.000036778885
11
1949.213955468225
21
-412.199953310327
31
6.000036776216
0
LINE
8
2
10
1947.213955468475
20
-414.199953310586
30
6.000036796727
11
1947.231065745695
21
-413.938900926144
31
6.000036796542
0
LINE
8
2
10
1947.213955468976
20
-418.199953310586
30
6.000036796867
11
1947.213955468475
21
-414.199953310586
31
6.000036796727
0
LINE
8
3
10
2078.746021013244
20
-413.19995147398
30
6.000004674192
11
2078.428184257942
21
-412.785736381354
31
6.000004674193
0
LINE
8
3
10
2068.496330017608
20
-412.268097073201
30
6.00000467421
11
2068.013969174787
21
-412.467903279392
31
6.000004674211
0
LINE
8
3
10
2078.94581959004
20
-413.682312316801
30
6.000004674192
11
2078.746021013244
21
-413.19995147398
31
6.000004674192
0
LINE
8
3
10
2068.013969174787
20
-412.467903279392
30
6.000004674211
11
2067.59975408216
21
-412.785736219997
31
6.000004674211
0
LINE
8
3
10
2079.013969148977
20
-414.199951477973
30
6.000004674192
11
2078.94581959004
21
-413.682312316801
31
6.000004674192
0
LINE
8
3
10
2079.013969148977
20
-414.199951477973
30
6.000004674192
11
2079.01396844117
21
-461.699951477973
31
6.000004674192
0
LINE
8
3
10
2085.013968411367
20
-463.69995156738
30
6.000004674182
11
2084.94581885243
21
-463.182312406209
31
6.000004674182
0
LINE
8
3
10
2069.01396917878
20
-412.199951328961
30
6.000004674209
11
2068.496330017608
21
-412.268097073201
31
6.00000467421
0
LINE
8
3
10
2069.01396917878
20
-412.199951328961
30
6.000004674209
11
2077.013969178779
21
-412.199951448171
31
6.000004674195
0
LINE
8
3
10
2077.531608337921
20
-412.268097207837
30
6.000004674194
11
2077.013969178779
21
-412.199951448171
31
6.000004674195
0
LINE
8
3
10
2078.428184257942
20
-412.785736381354
30
6.000004674193
11
2078.013969174787
21
-412.467903428404
31
6.000004674194
0
LINE
8
3
10
2078.013969174787
20
-412.467903428404
30
6.000004674194
11
2077.531608337921
21
-412.268097207837
31
6.000004674194
0
LINE
8
3
10
2026.281917731744
20
-449.199950692202
30
6.000004674282
11
2026.082117233223
21
-449.682311529068
31
6.000004674283
0
LINE
8
3
10
2026.281914185256
20
-687.199950692202
30
6.000004674282
11
2026.599751894233
21
-687.614165784829
31
6.000004674282
0
LINE
8
3
10
2084.94581885243
20
-463.182312406209
30
6.000004674182
11
2084.746020275634
21
-462.699951563388
31
6.000004674182
0
LINE
8
3
10
2084.428183520331
20
-462.285736470761
30
6.000004674183
11
2084.013968437177
21
-461.967899703114
31
6.000004674183
0
LINE
8
3
10
2084.013968437177
20
-461.967899703114
30
6.000004674183
11
2083.531607600311
21
-461.768101111942
31
6.000004674184
0
LINE
8
3
10
2083.531607600311
20
-461.768101111942
30
6.000004674184
11
2083.01396844117
21
-461.699951537578
31
6.000004674185
0
LINE
8
3
10
2079.01396844117
20
-461.699951477973
30
6.000004674192
11
2083.01396844117
21
-461.699951537578
31
6.000004674185
0
LINE
8
3
10
2026.082113701111
20
-686.717589849381
30
6.000004674283
11
2026.281914185256
21
-687.199950692202
31
6.000004674282
0
LINE
8
3
10
2026.599751894233
20
-687.614165784829
30
6.000004674282
11
2027.013965070039
21
-687.932006367173
31
6.000004674281
0
LINE
8
3
10
2027.013965070039
20
-687.932006367173
30
6.000004674281
11
2027.49632686058
21
-688.131804958345
31
6.00000467428
0
LINE
8
3
10
2027.49632686058
20
-688.131804958345
30
6.00000467428
11
2028.013965066046
21
-688.199950718011
31
6.000004674279
0
LINE
8
3
10
2030.013965066046
20
-688.199950747814
30
6.000004674276
11
2028.013965066046
21
-688.199950718011
31
6.000004674279
0
LINE
8
3
10
2032.013965066046
20
-688.199950777616
30
6.000004674272
11
2030.013965066046
21
-688.199950747814
31
6.000004674276
0
LINE
8
3
10
2032.01396461901
20
-718.199950777616
30
6.000004674272
11
2032.013965066046
21
-688.199950777616
31
6.000004674272
0
LINE
8
3
10
2079.01396461901
20
-718.199951477973
30
6.000004674192
11
2032.01396461901
21
-718.199950777616
31
6.000004674272
0
LINE
8
3
10
2079.013965267212
20
-674.699951477973
30
6.000004674192
11
2079.01396461901
21
-718.199951477973
31
6.000004674192
0
LINE
8
3
10
2083.013965267212
20
-674.699951537578
30
6.000004674185
11
2079.013965267212
21
-674.699951477973
31
6.000004674192
0
LINE
8
3
10
2083.013965267212
20
-674.699951537578
30
6.000004674185
11
2083.531604428384
21
-674.631805793338
31
6.000004674184
0
LINE
8
3
10
2083.531604428384
20
-674.631805793338
30
6.000004674184
11
2084.013965271205
21
-674.432007216542
31
6.000004674183
0
LINE
8
3
10
2084.013965271205
20
-674.432007216542
30
6.000004674183
11
2084.428180363832
21
-674.114166646542
31
6.000004674183
0
LINE
8
3
10
2084.428180363832
20
-674.114166646542
30
6.000004674183
11
2084.746017131479
21
-673.699951563388
31
6.000004674182
0
LINE
8
3
10
2084.746017131479
20
-673.699951563388
30
6.000004674182
11
2084.945815722651
21
-673.217590726521
31
6.000004674182
0
LINE
8
3
10
2084.945815722651
20
-673.217590726521
30
6.000004674182
11
2085.013965297015
21
-672.69995156738
31
6.000004674182
0
LINE
8
3
10
2085.013965416224
20
-664.69995156738
30
6.000004674182
11
2085.013965297015
21
-672.69995156738
31
6.000004674182
0
LINE
8
3
10
2085.013965416224
20
-664.69995156738
30
6.000004674182
11
2084.945815857287
21
-664.182312406209
31
6.000004674182
0
LINE
8
3
10
2084.945815857287
20
-664.182312406209
30
6.000004674182
11
2084.746017280491
21
-663.699951563388
31
6.000004674182
0
LINE
8
3
10
2084.746017280491
20
-663.699951563388
30
6.000004674182
11
2084.428180525189
21
-663.285736470761
31
6.000004674183
0
LINE
8
3
10
2084.428180525189
20
-663.285736470761
30
6.000004674183
11
2084.013965442034
21
-662.967895888417
31
6.000004674183
0
LINE
8
3
10
2084.013965442034
20
-662.967895888417
30
6.000004674183
11
2083.531604605168
21
-662.768097297245
31
6.000004674184
0
LINE
8
3
10
2083.531604605168
20
-662.768097297245
30
6.000004674184
11
2083.013965446027
21
-662.699951537578
31
6.000004674185
0
LINE
8
3
10
2079.013965446027
20
-662.699951477973
30
6.000004674192
11
2083.013965446027
21
-662.699951537578
31
6.000004674185
0
LINE
8
3
10
2079.013968262355
20
-473.699951477973
30
6.000004674192
11
2079.013965446027
21
-662.699951477973
31
6.000004674192
0
LINE
8
3
10
2083.013968262355
20
-473.699951537578
30
6.000004674185
11
2079.013968262355
21
-473.699951477973
31
6.000004674192
0
LINE
8
3
10
2083.013968262355
20
-473.699951537578
30
6.000004674185
11
2083.531607423527
21
-473.631801978641
31
6.000004674184
0
LINE
8
3
10
2083.531607423527
20
-473.631801978641
30
6.000004674184
11
2084.013968266348
21
-473.432003401844
31
6.000004674183
0
LINE
8
3
10
2084.013968266348
20
-473.432003401844
30
6.000004674183
11
2084.428183358975
21
-473.114166646542
31
6.000004674183
0
LINE
8
3
10
2084.428183358975
20
-473.114166646542
30
6.000004674183
11
2084.746020126622
21
-472.699951563388
31
6.000004674182
0
LINE
8
3
10
2084.746020126622
20
-472.699951563388
30
6.000004674182
11
2084.945818717794
21
-472.217590726521
31
6.000004674182
0
LINE
8
3
10
2084.945818717794
20
-472.217590726521
30
6.000004674182
11
2085.013968292158
21
-471.69995156738
31
6.000004674182
0
LINE
8
3
10
2085.013968411367
20
-463.69995156738
30
6.000004674182
11
2085.013968292158
21
-471.69995156738
31
6.000004674182
0
LINE
8
3
10
2084.746020275634
20
-462.699951563388
30
6.000004674182
11
2084.428183520331
21
-462.285736470761
31
6.000004674183
0
LINE
8
3
10
2067.59975408216
20
-412.785736219997
30
6.000004674211
11
2067.281917314513
21
-413.199951303151
31
6.000004674212
0
LINE
8
3
10
2067.281917314513
20
-413.199951303151
30
6.000004674212
11
2067.082118723341
21
-413.682312140018
31
6.000004674212
0
LINE
8
3
10
2067.082118723341
20
-413.682312140018
30
6.000004674212
11
2067.013969148977
21
-414.199951299159
31
6.000004674212
0
LINE
8
3
10
2067.013969089372
20
-418.199951299158
30
6.000004674212
11
2067.013969148977
21
-414.199951299159
31
6.000004674212
0
LINE
8
3
10
2032.013969089372
20
-418.199950777616
30
6.000004674272
11
2067.013969089372
21
-418.199951299158
31
6.000004674212
0
LINE
8
3
10
2032.013968642336
20
-448.199950777616
30
6.000004674272
11
2032.013969089372
21
-418.199950777616
31
6.000004674272
0
LINE
8
3
10
2030.013968642336
20
-448.199950747814
30
6.000004674276
11
2032.013968642336
21
-448.199950777616
31
6.000004674272
0
LINE
8
3
10
2028.013968642336
20
-448.199950718012
30
6.000004674279
11
2030.013968642336
21
-448.199950747814
31
6.000004674276
0
LINE
8
3
10
2028.013968642336
20
-448.199950718012
30
6.000004674279
11
2027.496330434839
21
-448.268096462251
31
6.00000467428
0
LINE
8
3
10
2027.496330434839
20
-448.268096462251
30
6.00000467428
11
2027.013968638343
21
-448.467902668442
31
6.000004674281
0
LINE
8
3
10
2027.013968638343
20
-448.467902668442
30
6.000004674281
11
2026.599755453065
21
-448.785735609047
31
6.000004674282
0
LINE
8
3
10
2026.599755453065
20
-448.785735609047
30
6.000004674282
11
2026.281917731744
21
-449.199950692202
31
6.000004674282
0
LINE
8
3
10
2026.082117233223
20
-449.682311529068
30
6.000004674283
11
2026.013968612534
21
-450.199950688209
31
6.000004674283
0
LINE
8
3
10
2026.013968493324
20
-458.199950688209
30
6.000004674283
11
2026.013968612534
21
-450.199950688209
31
6.000004674283
0
LINE
8
3
10
2026.013968493324
20
-458.199950688209
30
6.000004674283
11
2026.082117098587
21
-458.717589849381
31
6.000004674283
0
LINE
8
3
10
2026.082117098587
20
-458.717589849381
30
6.000004674283
11
2026.281917582732
21
-459.199950692202
31
6.000004674282
0
LINE
8
3
10
2026.281917582732
20
-459.199950692202
30
6.000004674282
11
2026.599755291709
21
-459.614165784829
31
6.000004674282
0
LINE
8
3
10
2026.599755291709
20
-459.614165784829
30
6.000004674282
11
2027.013968467515
21
-459.932002552475
31
6.000004674281
0
LINE
8
3
10
2027.013968467515
20
-459.932002552475
30
6.000004674281
11
2027.496330258055
21
-460.131801143648
31
6.00000467428
0
LINE
8
3
10
2027.496330258055
20
-460.131801143648
30
6.00000467428
11
2028.013968463521
21
-460.199950718011
31
6.000004674279
0
LINE
8
3
10
2030.013968463522
20
-460.199950747814
30
6.000004674276
11
2028.013968463521
21
-460.199950718011
31
6.000004674279
0
LINE
8
3
10
2032.013968463522
20
-460.199950777616
30
6.000004674272
11
2030.013968463522
21
-460.199950747814
31
6.000004674276
0
LINE
8
3
10
2032.013968383055
20
-465.599952303495
30
6.000004674272
11
2032.013968463522
21
-460.199950777616
31
6.000004674272
0
LINE
8
3
10
2043.013968383055
20
-465.599952467409
30
6.000004674254
11
2032.013968383055
21
-465.599952303495
31
6.000004674272
0
LINE
8
3
10
2043.013968405407
20
-464.099952467409
30
6.000004674254
11
2043.013968383055
21
-465.599952467409
31
6.000004674254
0
LINE
8
3
10
2046.013968405407
20
-464.099952512112
30
6.000004674248
11
2043.013968405407
21
-464.099952467409
31
6.000004674254
0
LINE
8
3
10
2046.013968383055
20
-465.599952512112
30
6.000004674248
11
2046.013968405407
21
-464.099952512112
31
6.000004674248
0
LINE
8
3
10
2047.013968383055
20
-465.599952527013
30
6.000004674247
11
2046.013968383055
21
-465.599952512112
31
6.000004674248
0
LINE
8
3
10
2047.01396832047
20
-469.799949475256
30
6.000004674247
11
2047.013968383055
21
-465.599952527013
31
6.000004674247
0
LINE
8
3
10
2046.01396832047
20
-469.799949460354
30
6.000004674248
11
2047.01396832047
21
-469.799949475256
31
6.000004674247
0
LINE
8
3
10
2046.013968298118
20
-471.299949460354
30
6.000004674248
11
2046.01396832047
21
-469.799949460354
31
6.000004674248
0
LINE
8
3
10
2043.013968298118
20
-471.299949415651
30
6.000004674254
11
2046.013968298118
21
-471.299949460354
31
6.000004674248
0
LINE
8
3
10
2043.01396832047
20
-469.799949415651
30
6.000004674254
11
2043.013968298118
21
-471.299949415651
31
6.000004674254
0
LINE
8
3
10
2032.01396832047
20
-469.799949251737
30
6.000004674272
11
2043.01396832047
21
-469.799949415651
31
6.000004674254
0
LINE
8
3
10
2032.013968240004
20
-475.199950777616
30
6.000004674272
11
2032.01396832047
21
-469.799949251737
31
6.000004674272
0
LINE
8
3
10
2030.013968240004
20
-475.199950747814
30
6.000004674276
11
2032.013968240004
21
-475.199950777616
31
6.000004674272
0
LINE
8
3
10
2028.013968240004
20
-475.199950718012
30
6.000004674279
11
2030.013968240004
21
-475.199950747814
31
6.000004674276
0
LINE
8
3
10
2028.013968240004
20
-475.199950718012
30
6.000004674279
11
2027.496330032506
21
-475.268100276948
31
6.00000467428
0
LINE
8
3
10
2027.496330032506
20
-475.268100276948
30
6.00000467428
11
2027.013968236011
21
-475.467898853745
31
6.000004674281
0
LINE
8
3
10
2027.013968236011
20
-475.467898853745
30
6.000004674281
11
2026.599755050733
21
-475.785735609047
31
6.000004674282
0
LINE
8
3
10
2026.599755050733
20
-475.785735609047
30
6.000004674282
11
2026.281917329411
21
-476.199950692202
31
6.000004674282
0
LINE
8
3
10
2026.281917329411
20
-476.199950692202
30
6.000004674282
11
2026.082116830891
21
-476.682311529068
31
6.000004674283
0
LINE
8
3
10
2026.082116830891
20
-476.682311529068
30
6.000004674283
11
2026.013968210201
21
-477.199950688209
31
6.000004674283
0
LINE
8
3
10
2026.013968090992
20
-485.199950688209
30
6.000004674283
11
2026.013968210201
21
-477.199950688209
31
6.000004674283
0
LINE
8
3
10
2026.013968090992
20
-485.199950688209
30
6.000004674283
11
2026.082116696254
21
-485.717587942032
31
6.000004674283
0
LINE
8
3
10
2026.082116696254
20
-485.717587942032
30
6.000004674283
11
2026.281917180399
21
-486.199950692202
31
6.000004674282
0
LINE
8
3
10
2026.281917180399
20
-486.199950692202
30
6.000004674282
11
2026.599754889376
21
-486.61416387748
31
6.000004674282
0
LINE
8
3
10
2026.599754889376
20
-486.61416387748
30
6.000004674282
11
2027.013968065182
21
-486.932000645127
31
6.000004674281
0
LINE
8
3
10
2027.013968065182
20
-486.932000645127
30
6.000004674281
11
2027.496329855722
21
-487.131803050996
31
6.00000467428
0
LINE
8
3
10
2027.496329855722
20
-487.131803050996
30
6.00000467428
11
2028.013968061189
21
-487.199950718011
31
6.000004674279
0
LINE
8
3
10
2030.013968061189
20
-487.199950747814
30
6.000004674276
11
2028.013968061189
21
-487.199950718011
31
6.000004674279
0
LINE
8
3
10
2032.013968061189
20
-487.199950777616
30
6.000004674272
11
2030.013968061189
21
-487.199950747814
31
6.000004674276
0
LINE
8
3
10
2032.013965647193
20
-649.199950777616
30
6.000004674272
11
2032.013968061189
21
-487.199950777616
31
6.000004674272
0
LINE
8
3
10
2030.013965647193
20
-649.199950747814
30
6.000004674276
11
2032.013965647193
21
-649.199950777616
31
6.000004674272
0
LINE
8
3
10
2028.013965647193
20
-649.199950718011
30
6.000004674279
11
2030.013965647193
21
-649.199950747814
31
6.000004674276
0
LINE
8
3
10
2028.013965647193
20
-649.199950718011
30
6.000004674279
11
2027.496327439696
21
-649.268096462251
31
6.00000467428
0
LINE
8
3
10
2027.496327439696
20
-649.268096462251
30
6.00000467428
11
2027.013965643201
21
-649.467895039048
31
6.000004674281
0
LINE
8
3
10
2027.013965643201
20
-649.467895039048
30
6.000004674281
11
2026.599752457922
21
-649.785735609047
31
6.000004674282
0
LINE
8
3
10
2026.599752457922
20
-649.785735609047
30
6.000004674282
11
2026.281914736601
21
-650.199950692202
31
6.000004674282
0
LINE
8
3
10
2026.281914736601
20
-650.199950692202
30
6.000004674282
11
2026.082114238081
21
-650.682311529068
31
6.000004674283
0
LINE
8
3
10
2026.082114238081
20
-650.682311529068
30
6.000004674283
11
2026.013965617391
21
-651.199950688209
31
6.000004674283
0
LINE
8
3
10
2026.013965498181
20
-659.199950688209
30
6.000004674283
11
2026.013965617391
21
-651.199950688209
31
6.000004674283
0
LINE
8
3
10
2026.013965498181
20
-659.199950688209
30
6.000004674283
11
2026.082114103444
21
-659.717589849381
31
6.000004674283
0
LINE
8
3
10
2026.082114103444
20
-659.717589849381
30
6.000004674283
11
2026.281914587589
21
-660.199950692202
31
6.000004674282
0
LINE
8
3
10
2026.281914587589
20
-660.199950692202
30
6.000004674282
11
2026.599752296566
21
-660.614165784829
31
6.000004674282
0
LINE
8
3
10
2026.599752296566
20
-660.614165784829
30
6.000004674282
11
2027.013965472371
21
-660.932006367173
31
6.000004674281
0
LINE
8
3
10
2027.013965472371
20
-660.932006367173
30
6.000004674281
11
2027.496327262912
21
-661.131804958345
31
6.00000467428
0
LINE
8
3
10
2027.496327262912
20
-661.131804958345
30
6.00000467428
11
2028.013965468379
21
-661.199950718011
31
6.000004674279
0
LINE
8
3
10
2030.013965468379
20
-661.199950747814
30
6.000004674276
11
2028.013965468379
21
-661.199950718011
31
6.000004674279
0
LINE
8
3
10
2032.013965468379
20
-661.199950777616
30
6.000004674272
11
2030.013965468379
21
-661.199950747814
31
6.000004674276
0
LINE
8
3
10
2032.013965387912
20
-666.599944674101
30
6.000004674272
11
2032.013965468379
21
-661.199950777616
31
6.000004674272
0
LINE
8
3
10
2043.013965387912
20
-666.599944838014
30
6.000004674254
11
2032.013965387912
21
-666.599944674101
31
6.000004674272
0
LINE
8
3
10
2043.013965410264
20
-665.099944838014
30
6.000004674254
11
2043.013965387912
21
-666.599944838014
31
6.000004674254
0
LINE
8
3
10
2046.013965410264
20
-665.099944882718
30
6.000004674248
11
2043.013965410264
21
-665.099944838014
31
6.000004674254
0
LINE
8
3
10
2046.013965387912
20
-666.599944882718
30
6.000004674248
11
2046.013965410264
21
-665.099944882718
31
6.000004674248
0
LINE
8
3
10
2047.013965387912
20
-666.599944897619
30
6.000004674247
11
2046.013965387912
21
-666.599944882718
31
6.000004674248
0
LINE
8
3
10
2047.013965325327
20
-670.79995710465
30
6.000004674247
11
2047.013965387912
21
-666.599944897619
31
6.000004674247
0
LINE
8
3
10
2046.013965325327
20
-670.799957089749
30
6.000004674248
11
2047.013965325327
21
-670.79995710465
31
6.000004674247
0
LINE
8
3
10
2046.013965302976
20
-672.299957089749
30
6.000004674248
11
2046.013965325327
21
-670.799957089749
31
6.000004674248
0
LINE
8
3
10
2043.013965302975
20
-672.299957045045
30
6.000004674254
11
2046.013965302976
21
-672.299957089749
31
6.000004674248
0
LINE
8
3
10
2043.013965325327
20
-670.799957045045
30
6.000004674254
11
2043.013965302975
21
-672.299957045045
31
6.000004674254
0
LINE
8
3
10
2032.013965325327
20
-670.799956881132
30
6.000004674272
11
2043.013965325327
21
-670.799957045045
31
6.000004674254
0
LINE
8
3
10
2032.01396524486
20
-676.199950777616
30
6.000004674272
11
2032.013965325327
21
-670.799956881132
31
6.000004674272
0
LINE
8
3
10
2030.013965244861
20
-676.199950747814
30
6.000004674276
11
2032.01396524486
21
-676.199950777616
31
6.000004674272
0
LINE
8
3
10
2028.013965244861
20
-676.199950718011
30
6.000004674279
11
2030.013965244861
21
-676.199950747814
31
6.000004674276
0
LINE
8
3
10
2028.013965244861
20
-676.199950718011
30
6.000004674279
11
2027.496327037363
21
-676.268096462251
31
6.00000467428
0
LINE
8
3
10
2027.496327037363
20
-676.268096462251
30
6.00000467428
11
2027.013965240868
21
-676.467895039048
31
6.000004674281
0
LINE
8
3
10
2027.013965240868
20
-676.467895039048
30
6.000004674281
11
2026.59975205559
21
-676.785735609047
31
6.000004674282
0
LINE
8
3
10
2026.59975205559
20
-676.785735609047
30
6.000004674282
11
2026.281914334269
21
-677.199950692202
31
6.000004674282
0
LINE
8
3
10
2026.281914334269
20
-677.199950692202
30
6.000004674282
11
2026.082113835748
21
-677.682311529068
31
6.000004674283
0
LINE
8
3
10
2026.082113835748
20
-677.682311529068
30
6.000004674283
11
2026.013965215058
21
-678.199950688209
31
6.000004674283
0
LINE
8
3
10
2026.013965095849
20
-686.199950688209
30
6.000004674283
11
2026.013965215058
21
-678.199950688209
31
6.000004674283
0
LINE
8
3
10
2026.013965095849
20
-686.199950688209
30
6.000004674283
11
2026.082113701111
21
-686.717589849381
31
6.000004674283
0
ENDSEC
0
EOF
