0
SECTION
2
ENTITIES
0
LINE
8
0
10
1656.009788945316
20
-1145.385520191127
30
6.000006449352
11
1656.444713185801
21
-1145.719249298586
31
6.000006447293
0
LINE
8
0
10
1656.444713185801
20
-1145.719249298586
30
6.000006447293
11
1656.95119319108
21
-1145.929040185851
31
6.000006441849
0
LINE
8
0
10
1656.95119319108
20
-1145.929040185851
30
6.000006441849
11
1657.494713185792
21
-1146.00059595065
31
6.000006433394
0
LINE
8
0
10
1657.494713185792
20
-1146.00059595065
30
6.000006433394
11
1658.038233180506
21
-1145.929040185863
31
6.000006422501
0
LINE
8
0
10
1658.038233180506
20
-1145.929040185863
30
6.000006422501
11
1658.54471318579
21
-1145.719249298611
31
6.000006409914
0
LINE
8
0
10
1658.54471318579
20
-1145.719249298611
30
6.000006409914
11
1658.979637426284
21
-1145.385520191163
31
6.000006396491
0
LINE
8
0
10
1658.979637426284
20
-1145.385520191163
30
6.000006396491
11
1659.313366533743
21
-1144.950595950677
31
6.000006383146
0
LINE
8
0
10
1659.313366533743
20
-1144.950595950677
30
6.000006383146
11
1659.523157421007
21
-1144.444115945397
31
6.000006370789
0
LINE
8
0
10
1659.523157421007
20
-1144.444115945397
30
6.000006370789
11
1659.594713185806
21
-1143.900595950685
31
6.000006360261
0
LINE
8
0
10
1659.594713185806
20
-1143.900595950685
30
6.000006360261
11
1659.52315742102
21
-1143.357075955972
31
6.000006352281
0
LINE
8
0
10
1659.52315742102
20
-1143.357075955972
30
6.000006352281
11
1659.313366533767
21
-1142.850595950687
31
6.000006347392
0
LINE
8
0
10
1659.313366533767
20
-1142.850595950687
30
6.000006347392
11
1658.979637426319
21
-1142.415671710194
31
6.000006345927
0
LINE
8
0
10
1658.979637426319
20
-1142.415671710194
30
6.000006345927
11
1658.544713185833
21
-1142.081942602735
31
6.000006347986
0
LINE
8
0
10
1658.544713185833
20
-1142.081942602735
30
6.000006347986
11
1658.038233180554
21
-1141.87215171547
31
6.000006353429
0
LINE
8
0
10
1658.038233180554
20
-1141.87215171547
30
6.000006353429
11
1657.494713185842
21
-1141.800595950671
31
6.000006361885
0
LINE
8
0
10
1657.494713185842
20
-1141.800595950671
30
6.000006361885
11
1656.951193191129
21
-1141.872151715457
31
6.000006372778
0
LINE
8
0
10
1656.951193191129
20
-1141.872151715457
30
6.000006372778
11
1656.444713185844
21
-1142.08194260271
31
6.000006385364
0
LINE
8
0
10
1656.444713185844
20
-1142.08194260271
30
6.000006385364
11
1656.00978894535
21
-1142.415671710158
31
6.000006398788
0
LINE
8
0
10
1656.00978894535
20
-1142.415671710158
30
6.000006398788
11
1655.676059837891
21
-1142.850595950644
31
6.000006412133
0
LINE
8
0
10
1655.676059837891
20
-1142.850595950644
30
6.000006412133
11
1655.466268950627
21
-1143.357075955923
31
6.00000642449
0
LINE
8
0
10
1655.466268950627
20
-1143.357075955923
30
6.00000642449
11
1655.394713185828
21
-1143.900595950635
31
6.000006435018
0
LINE
8
0
10
1655.394713185828
20
-1143.900595950635
30
6.000006435018
11
1655.466268950614
21
-1144.444115945349
31
6.000006442998
0
LINE
8
0
10
1655.466268950614
20
-1144.444115945349
30
6.000006442998
11
1655.676059837867
21
-1144.950595950633
31
6.000006447887
0
LINE
8
0
10
1655.676059837867
20
-1144.950595950633
30
6.000006447887
11
1656.009788945316
21
-1145.385520191127
31
6.000006449352
0
LINE
8
0
10
1401.676083753867
20
-1142.850595947607
30
6.000010933117
11
1401.466292866602
21
-1143.357075952889
31
6.000010945475
0
LINE
8
0
10
1401.466292866602
20
-1143.357075952889
30
6.000010945475
11
1401.394737101803
21
-1143.900595947603
31
6.000010956002
0
LINE
8
0
10
1401.394737101803
20
-1143.900595947603
30
6.000010956002
11
1401.466292866589
21
-1144.444115942319
31
6.000010963982
0
LINE
8
0
10
1401.466292866589
20
-1144.444115942319
30
6.000010963982
11
1401.676083753842
21
-1144.950595947606
31
6.000010968872
0
LINE
8
0
10
1401.676083753842
20
-1144.950595947606
30
6.000010968872
11
1402.009812861293
21
-1145.385520188102
31
6.000010970336
0
LINE
8
0
10
1402.009812861293
20
-1145.385520188102
30
6.000010970336
11
1402.444737101781
21
-1145.719249295563
31
6.000010968277
0
LINE
8
0
10
1402.444737101781
20
-1145.719249295563
30
6.000010968277
11
1402.951217107063
21
-1145.929040182828
31
6.000010962834
0
LINE
8
0
10
1402.951217107063
20
-1145.929040182828
30
6.000010962834
11
1403.494737101777
21
-1146.000595947628
31
6.000010954378
0
LINE
8
0
10
1403.494737101777
20
-1146.000595947628
30
6.000010954378
11
1404.038257096493
21
-1145.929040182841
31
6.000010943486
0
LINE
8
0
10
1404.038257096493
20
-1145.929040182841
30
6.000010943486
11
1404.54473710178
21
-1145.719249295587
31
6.000010930899
0
LINE
8
0
10
1404.54473710178
20
-1145.719249295587
30
6.000010930899
11
1404.979661342276
21
-1145.385520188137
31
6.000010917476
0
LINE
8
0
10
1404.979661342276
20
-1145.385520188137
30
6.000010917476
11
1405.313390449736
21
-1144.950595947649
31
6.000010904131
0
LINE
8
0
10
1405.313390449736
20
-1144.950595947649
30
6.000010904131
11
1405.523181337002
21
-1144.444115942367
31
6.000010891773
0
LINE
8
0
10
1405.523181337002
20
-1144.444115942367
30
6.000010891773
11
1405.594737101801
21
-1143.900595947653
31
6.000010881246
0
LINE
8
0
10
1405.594737101801
20
-1143.900595947653
30
6.000010881246
11
1405.523181337014
21
-1143.357075952937
31
6.000010873266
0
LINE
8
0
10
1405.523181337014
20
-1143.357075952937
30
6.000010873266
11
1405.313390449761
21
-1142.85059594765
31
6.000010868376
0
LINE
8
0
10
1405.313390449761
20
-1142.85059594765
30
6.000010868376
11
1404.979661342311
21
-1142.415671707154
31
6.000010866912
0
LINE
8
0
10
1404.979661342311
20
-1142.415671707154
30
6.000010866912
11
1404.544737101823
21
-1142.081942599694
31
6.000010868971
0
LINE
8
0
10
1404.544737101823
20
-1142.081942599694
30
6.000010868971
11
1404.038257096542
21
-1141.872151712428
31
6.000010874414
0
LINE
8
0
10
1404.038257096542
20
-1141.872151712428
30
6.000010874414
11
1403.494737101827
21
-1141.800595947629
31
6.00001088287
0
LINE
8
0
10
1403.494737101827
20
-1141.800595947629
30
6.00001088287
11
1402.951217107111
21
-1141.872151712415
31
6.000010893762
0
LINE
8
0
10
1402.951217107111
20
-1141.872151712415
30
6.000010893762
11
1402.444737101823
21
-1142.081942599669
31
6.000010906349
0
LINE
8
0
10
1402.444737101823
20
-1142.081942599669
30
6.000010906349
11
1402.009812861329
21
-1142.415671707119
31
6.000010919772
0
LINE
8
0
10
1402.009812861329
20
-1142.415671707119
30
6.000010919772
11
1401.676083753867
21
-1142.850595947607
31
6.000010933117
0
LINE
8
0
10
1421.038224767357
20
-1615.645289497248
30
6.000018638203
11
1421.544704769516
21
-1615.435498602449
31
6.000018625617
0
LINE
8
0
10
1421.544704769516
20
-1615.435498602449
30
6.000018625617
11
1421.979629005036
21
-1615.101769488518
31
6.000018612193
0
LINE
8
0
10
1421.979629005036
20
-1615.101769488518
30
6.000018612193
11
1422.313358106015
21
-1614.666845243059
31
6.000018598848
0
LINE
8
0
10
1422.313358106015
20
-1614.666845243059
30
6.000018598848
11
1422.523148985732
21
-1614.160365234653
31
6.000018586491
0
LINE
8
0
10
1422.523148985732
20
-1614.160365234653
30
6.000018586491
11
1422.594704742432
21
-1613.616845238875
31
6.000018575963
0
LINE
8
0
10
1422.594704742432
20
-1613.616845238875
30
6.000018575963
11
1422.523148969547
21
-1613.073325245229
31
6.000018567983
0
LINE
8
0
10
1422.523148969547
20
-1613.073325245229
30
6.000018567983
11
1422.313358074746
21
-1612.566845243069
31
6.000018563094
0
LINE
8
0
10
1422.313358074746
20
-1612.566845243069
30
6.000018563094
11
1421.979628960816
21
-1612.131921007548
31
6.000018561629
0
LINE
8
0
10
1421.979628960816
20
-1612.131921007548
30
6.000018561629
11
1421.544704715358
21
-1611.798191906571
31
6.000018563688
0
LINE
8
0
10
1421.544704715358
20
-1611.798191906571
30
6.000018563688
11
1421.038224706952
21
-1611.588401026853
31
6.000018569131
0
LINE
8
0
10
1421.038224706952
20
-1611.588401026853
30
6.000018569131
11
1420.494704711174
21
-1611.516845270153
31
6.000018577587
0
LINE
8
0
10
1420.494704711174
20
-1611.516845270153
30
6.000018577587
11
1419.951184717526
21
-1611.588401043037
31
6.00001858848
0
LINE
8
0
10
1419.951184717526
20
-1611.588401043037
30
6.00001858848
11
1419.444704715367
21
-1611.798191937839
31
6.000018601067
0
LINE
8
0
10
1419.444704715367
20
-1611.798191937839
30
6.000018601067
11
1419.009780479847
21
-1612.131921051767
31
6.00001861449
0
LINE
8
0
10
1419.009780479847
20
-1612.131921051767
30
6.00001861449
11
1418.676051378869
21
-1612.566845297226
31
6.000018627835
0
LINE
8
0
10
1418.676051378869
20
-1612.566845297226
30
6.000018627835
11
1418.466260499151
21
-1613.073325305633
31
6.000018640192
0
LINE
8
0
10
1418.466260499151
20
-1613.073325305633
30
6.000018640192
11
1418.394704742451
21
-1613.616845301412
31
6.00001865072
0
LINE
8
0
10
1418.394704742451
20
-1613.616845301412
30
6.00001865072
11
1418.466260515337
21
-1614.160365295058
31
6.0000186587
0
LINE
8
0
10
1418.466260515337
20
-1614.160365295058
30
6.0000186587
11
1418.676051410137
21
-1614.666845297216
31
6.000018663589
0
LINE
8
0
10
1418.676051410137
20
-1614.666845297216
30
6.000018663589
11
1419.009780524066
21
-1615.101769532737
31
6.000018665054
0
LINE
8
0
10
1419.009780524066
20
-1615.101769532737
30
6.000018665054
11
1419.444704769525
21
-1615.435498633717
31
6.000018662995
0
LINE
8
0
10
1419.444704769525
20
-1615.435498633717
30
6.000018662995
11
1419.951184777931
21
-1615.645289513433
31
6.000018657552
0
LINE
8
0
10
1419.951184777931
20
-1615.645289513433
30
6.000018657552
11
1420.494704773709
21
-1615.716845270134
31
6.000018649096
0
LINE
8
0
10
1420.494704773709
20
-1615.716845270134
30
6.000018649096
11
1421.038224767357
21
-1615.645289497248
31
6.000018638203
0
LINE
8
0
10
1689.444704742465
20
-1611.798187902013
30
6.000013795295
11
1689.009780501972
21
-1612.131917009463
31
6.000013808718
0
LINE
8
0
10
1689.009780501972
20
-1612.131917009463
30
6.000013808718
11
1688.676051394508
21
-1612.566841249952
31
6.000013822063
0
LINE
8
0
10
1688.676051394508
20
-1612.566841249952
30
6.000013822063
11
1688.466260507243
21
-1613.073321255233
31
6.000013834421
0
LINE
8
0
10
1688.466260507243
20
-1613.073321255233
30
6.000013834421
11
1688.394704742443
21
-1613.616841249948
31
6.000013844948
0
LINE
8
0
10
1688.394704742443
20
-1613.616841249948
30
6.000013844948
11
1688.466260507233
21
-1614.160361244663
31
6.000013852928
0
LINE
8
0
10
1688.466260507233
20
-1614.160361244663
30
6.000013852928
11
1688.676051394483
21
-1614.666841249952
31
6.000013857818
0
LINE
8
0
10
1688.676051394483
20
-1614.666841249952
30
6.000013857818
11
1689.009780501934
21
-1615.101765490446
31
6.000013859282
0
LINE
8
0
10
1689.009780501934
20
-1615.101765490446
30
6.000013859282
11
1689.444704742422
21
-1615.435494597907
31
6.000013857223
0
LINE
8
0
10
1689.444704742422
20
-1615.435494597907
30
6.000013857223
11
1689.951184747704
21
-1615.645285485173
31
6.00001385178
0
LINE
8
0
10
1689.951184747704
20
-1615.645285485173
30
6.00001385178
11
1690.494704742418
21
-1615.716841249973
31
6.000013843324
0
LINE
8
0
10
1690.494704742418
20
-1615.716841249973
30
6.000013843324
11
1691.038224737134
21
-1615.645285485185
31
6.000013832432
0
LINE
8
0
10
1691.038224737134
20
-1615.645285485185
30
6.000013832432
11
1691.544704742422
21
-1615.435494597932
31
6.000013819845
0
LINE
8
0
10
1691.544704742422
20
-1615.435494597932
30
6.000013819845
11
1691.979628982918
21
-1615.101765490482
31
6.000013806422
0
LINE
8
0
10
1691.979628982918
20
-1615.101765490482
30
6.000013806422
11
1692.313358090378
21
-1614.666841249994
31
6.000013793077
0
LINE
8
0
10
1692.313358090378
20
-1614.666841249994
30
6.000013793077
11
1692.523148977647
21
-1614.160361244712
31
6.000013780719
0
LINE
8
0
10
1692.523148977647
20
-1614.160361244712
30
6.000013780719
11
1692.594704742443
21
-1613.616841249998
31
6.000013770192
0
LINE
8
0
10
1692.594704742443
20
-1613.616841249998
30
6.000013770192
11
1692.523148977657
21
-1613.073321255282
31
6.000013762211
0
LINE
8
0
10
1692.523148977657
20
-1613.073321255282
30
6.000013762211
11
1692.313358090403
21
-1612.566841249994
31
6.000013757322
0
LINE
8
0
10
1692.313358090403
20
-1612.566841249994
30
6.000013757322
11
1691.979628982956
21
-1612.1319170095
31
6.000013755857
0
LINE
8
0
10
1691.979628982956
20
-1612.1319170095
30
6.000013755857
11
1691.544704742465
21
-1611.798187902038
31
6.000013757917
0
LINE
8
0
10
1691.544704742465
20
-1611.798187902038
30
6.000013757917
11
1691.038224737183
21
-1611.588397014772
31
6.00001376336
0
LINE
8
0
10
1691.038224737183
20
-1611.588397014772
30
6.00001376336
11
1690.494704742469
21
-1611.516841249973
31
6.000013771816
0
LINE
8
0
10
1690.494704742469
20
-1611.516841249973
30
6.000013771816
11
1689.951184747752
21
-1611.588397014759
31
6.000013782708
0
LINE
8
0
10
1689.951184747752
20
-1611.588397014759
30
6.000013782708
11
1689.444704742465
21
-1611.798187902013
31
6.000013795295
0
LINE
8
0
10
1343.726556412784
20
-1116.383784624244
30
6.000007809087
11
1343.777594484998
21
-1116.640370330011
31
6.000007818762
0
LINE
8
0
10
1660.494753965743
20
-1151.400576452598
30
6.000006471934
11
1660.494753965594
21
-1163.900542460904
31
6.000006684757
0
LINE
8
0
10
1660.494753965594
20
-1163.900542460904
30
6.000006684757
11
1654.494754918058
21
-1163.900542460831
31
6.000006791551
0
LINE
8
0
10
1654.494754918207
20
-1151.400576452527
30
6.000006578729
11
1660.494753965743
21
-1151.400576452598
31
6.000006471934
0
LINE
8
0
10
1654.494754918058
20
-1163.900542460831
30
6.000006791551
11
1654.494754918207
21
-1151.400576452527
31
6.000006578729
0
LINE
8
0
10
1654.494716247897
20
-1123.900560432839
30
6.00000611052
11
1660.494715887473
21
-1123.90056043291
31
6.000006003725
0
LINE
8
0
10
1660.494715887323
20
-1136.400594393844
30
6.000006216548
11
1654.494716247748
21
-1136.400594393773
31
6.000006323343
0
LINE
8
0
10
1654.494716247748
20
-1136.400594393773
30
6.000006323343
11
1654.494716247897
21
-1123.900560432839
31
6.00000611052
0
LINE
8
0
10
1350.494702484616
20
-1129.901422642691
30
6.000008260364
11
1343.794704867931
21
-1129.901422714451
31
6.000008361909
0
LINE
8
0
10
1343.794704764331
20
-1116.901422714452
30
6.000007829178
11
1343.794704867931
21
-1129.901422714451
31
6.000008361909
0
LINE
8
0
10
1343.777594484998
20
-1116.640370330011
30
6.000007818762
11
1343.794704764331
21
-1116.901422714452
31
6.000007829178
0
LINE
8
0
10
1343.642463823255
20
-1116.136055849711
30
6.000007800322
11
1343.726556412784
21
-1116.383784624244
31
6.000007809087
0
LINE
8
0
10
1343.526755563931
20
-1115.901422714434
30
6.000007792611
11
1343.642463823255
21
-1116.136055849711
31
6.000007800322
0
LINE
8
0
10
1343.381411435211
20
-1115.683899856407
30
6.000007786091
11
1343.526755563931
21
-1115.901422714434
31
6.000007792611
0
LINE
8
0
10
1343.208918315434
20
-1115.487209152039
30
6.000007780871
11
1343.381411435211
21
-1115.683899856407
31
6.000007786091
0
LINE
8
0
10
1343.012227609704
20
-1115.314716033816
30
6.000007777042
11
1343.208918315434
21
-1115.487209152039
31
6.000007780871
0
LINE
8
0
10
1342.794704750529
20
-1115.169371906816
30
6.000007774667
11
1343.012227609704
21
-1115.314716033816
31
6.000007777042
0
LINE
8
0
10
1342.560071614336
20
-1115.053663649346
30
6.000007773789
11
1342.794704750529
21
-1115.169371906816
31
6.000007774667
0
LINE
8
0
10
1342.312342839141
20
-1114.969571061774
30
6.000007774421
11
1342.560071614336
21
-1115.053663649346
31
6.000007773789
0
LINE
8
0
10
1342.055757132969
20
-1114.918532991588
30
6.000007776556
11
1342.312342839141
21
-1114.969571061774
31
6.000007774421
0
LINE
8
0
10
1342.055757132969
20
-1114.918532991588
30
6.000007776556
11
1341.794704748393
21
-1114.901422714317
31
6.000007780154
0
LINE
8
0
10
1341.794704748393
20
-1114.901422714317
30
6.000007780154
11
1335.994702364733
21
-1114.9014227021
31
6.000007875663
0
LINE
8
0
10
1335.994702364733
20
-1114.9014227021
30
6.000007875663
11
1335.733649980547
21
-1114.918532983236
31
6.000007880301
0
LINE
8
0
10
1335.477064275541
20
-1114.969571057224
30
6.00000788639
11
1335.733649980547
21
-1114.918532983236
31
6.000007880301
0
LINE
8
0
10
1335.229335502267
20
-1115.053663648467
30
6.000007893826
11
1335.477064275541
21
-1114.969571057224
31
6.00000788639
0
LINE
8
0
10
1334.99470236872
20
-1115.169371909412
30
6.00000790248
11
1335.229335502267
21
-1115.053663648467
31
6.000007893826
0
LINE
8
0
10
1334.777179512865
20
-1115.314716039636
30
6.000007912207
11
1334.99470236872
21
-1115.169371909412
31
6.00000790248
0
LINE
8
0
10
1334.580488811076
20
-1115.487209160773
30
6.000007922837
11
1334.777179512865
21
-1115.314716039636
31
6.000007912207
0
LINE
8
0
10
1334.407995695793
20
-1115.683899867695
30
6.000007934188
11
1334.580488811076
21
-1115.487209160773
31
6.000007922837
0
LINE
8
0
10
1334.262651572044
20
-1115.901422727876
30
6.00000794607
11
1334.407995695793
21
-1115.683899867695
31
6.000007934188
0
LINE
8
0
10
1334.146943318081
20
-1116.136055864868
30
6.000007958278
11
1334.262651572044
21
-1115.901422727876
31
6.00000794607
0
LINE
8
0
10
1334.062850734212
20
-1116.383784640644
30
6.000007970598
11
1334.146943318081
21
-1116.136055864868
31
6.000007958278
0
LINE
8
0
10
1334.011812667859
20
-1116.640370347169
30
6.000007982828
11
1334.062850734212
21
-1116.383784640644
31
6.000007970598
0
LINE
8
0
10
1334.011812667859
20
-1116.640370347169
30
6.000007982828
11
1333.994702394491
21
-1116.901422731864
31
6.000007994751
0
LINE
8
0
10
1333.994702394491
20
-1116.901422731864
30
6.000007994751
11
1333.994703227632
21
-1169.901422727175
31
6.000010400187
0
LINE
8
0
10
1333.994703227632
20
-1169.901422727175
30
6.000010400187
11
1334.011813508768
21
-1170.16247511136
31
6.000010411604
0
LINE
8
0
10
1334.011813508768
20
-1170.16247511136
30
6.000010411604
11
1334.062851582756
21
-1170.419060816366
31
6.000010422316
0
LINE
8
0
10
1334.062851582756
20
-1170.419060816366
30
6.000010422316
11
1334.146944173997
21
-1170.66678958964
31
6.000010432144
0
LINE
8
0
10
1334.146944173997
20
-1170.66678958964
30
6.000010432144
11
1334.262652434943
21
-1170.901422723187
31
6.000010440915
0
LINE
8
0
10
1334.262652434943
20
-1170.901422723187
30
6.000010440915
11
1334.407996565165
21
-1171.118945579042
31
6.000010448483
0
LINE
8
0
10
1334.407996565165
20
-1171.118945579042
30
6.000010448483
11
1334.580489686302
21
-1171.315636280831
31
6.000010454717
0
LINE
8
0
10
1334.580489686302
20
-1171.315636280831
30
6.000010454717
11
1334.777180393224
21
-1171.488129396113
31
6.000010459509
0
LINE
8
0
10
1334.777180393224
20
-1171.488129396113
30
6.000010459509
11
1334.994703253404
21
-1171.633473519862
31
6.000010462777
0
LINE
8
0
10
1334.994703253404
20
-1171.633473519862
30
6.000010462777
11
1335.229336390395
21
-1171.749181773824
31
6.000010464469
0
LINE
8
0
10
1335.229336390395
20
-1171.749181773824
30
6.000010464469
11
1335.477065166172
21
-1171.833274357692
31
6.000010464552
0
LINE
8
0
10
1335.477065166172
20
-1171.833274357692
30
6.000010464552
11
1335.733650872696
21
-1171.884312424043
31
6.000010463026
0
LINE
8
0
10
1350.494703257737
20
-1171.901422638001
30
6.000010229929
11
1335.733650872696
21
-1171.884312424043
31
6.000010463026
0
LINE
8
0
10
1350.494703257737
20
-1171.901422638001
30
6.000010229929
11
1350.494704710015
21
-1622.90141653054
31
6.000019225475
0
LINE
8
0
10
1350.494704710015
20
-1622.90141653054
30
6.000019225475
11
1351.246408210659
21
-1631.538852443634
31
6.000019471692
0
LINE
8
0
10
1351.246408210659
20
-1631.538852443634
30
6.000019471692
11
1353.478916393085
21
-1639.91657613751
31
6.000019688115
0
LINE
8
0
10
1353.478916393085
20
-1639.91657613751
30
6.000019688115
11
1357.125102029512
21
-1647.782685985576
31
6.000019868231
0
LINE
8
0
10
1357.125102029512
20
-1647.782685985576
30
6.000019868231
11
1362.075331197365
21
-1654.900663127969
31
6.000020006629
0
LINE
8
0
10
1362.075331197365
20
-1654.900663127969
30
6.000020006629
11
1368.180758939296
21
-1661.056480159903
31
6.000020099145
0
LINE
8
0
10
1368.180758939296
20
-1661.056480159903
30
6.000020099145
11
1375.257808194607
21
-1666.065047970045
31
6.000020142996
0
LINE
8
0
10
1375.257808194607
20
-1666.065047970045
30
6.000020142996
11
1383.09368084471
21
-1669.775764217697
31
6.000020136866
0
LINE
8
0
10
1383.09368084471
20
-1669.775764217697
30
6.000020136866
11
1391.452773557084
21
-1672.077056637231
31
6.000020080941
0
LINE
8
0
10
1391.452773557084
20
-1672.077056637231
30
6.000020080941
11
1400.083739743598
21
-1672.899726620243
31
6.000019976898
0
LINE
8
0
10
1400.083739743598
20
-1672.899726620243
30
6.000019976898
11
1408.727061734573
21
-1672.219043484361
31
6.000019827867
0
LINE
8
0
10
1408.727061734573
20
-1672.219043484361
30
6.000019827867
11
1558.494704709726
21
-1647.21904348615
31
6.000016851982
0
LINE
8
0
10
1558.494704709726
20
-1647.21904348615
30
6.000016851982
11
1708.262343869585
21
-1672.219043487937
31
6.000015366216
0
LINE
8
0
10
1708.262343869585
20
-1672.219043487937
30
6.000015366216
11
1716.90568493403
21
-1672.899726624027
31
6.000015257756
0
LINE
8
0
10
1716.90568493403
20
-1672.899726624027
30
6.000015257756
11
1725.536635861773
21
-1672.07705664122
31
6.000015104678
0
LINE
8
0
10
1725.536635861773
20
-1672.07705664122
30
6.000015104678
11
1733.895736203602
21
-1669.775764221884
31
6.000014911584
0
LINE
8
0
10
1733.895736203602
20
-1669.775764221884
30
6.000014911584
11
1741.731612668487
21
-1666.065047974421
31
6.000014684279
0
LINE
8
0
10
1741.731612668487
20
-1666.065047974421
30
6.000014684279
11
1748.808639035733
21
-1661.056480164446
31
6.000014429597
0
LINE
8
0
10
1748.808639035733
20
-1661.056480164446
30
6.000014429597
11
1754.914077268229
21
-1654.900663132657
31
6.000014155199
0
LINE
8
0
10
1754.914077268229
20
-1654.900663132657
30
6.000014155199
11
1759.864303098392
21
-1647.782685990384
31
6.000013869332
0
LINE
8
0
10
1759.864303098392
20
-1647.782685990384
30
6.000013869332
11
1763.510482297705
21
-1639.916576142405
31
6.000013580593
0
LINE
8
0
10
1763.510482297705
20
-1639.916576142405
30
6.000013580593
11
1765.742995725538
21
-1631.538852448582
31
6.000013297664
0
LINE
8
0
10
1765.742995725538
20
-1631.538852448582
30
6.000013297664
11
1766.494704710017
21
-1622.901416535505
31
6.000013029051
0
LINE
8
0
10
1766.494704710017
20
-1622.901416535505
30
6.000013029051
11
1766.494704743167
21
-1552.901416535506
31
6.000010971714
0
LINE
8
0
10
1766.494704743167
20
-1552.901416535506
30
6.000010971714
11
1760.494704743167
21
-1552.901416535435
31
6.000011061086
0
LINE
8
0
10
1760.494704743167
20
-1552.901416535435
30
6.000011061086
11
1760.494704743647
21
-1512.901416535434
31
6.000009868993
0
LINE
8
0
10
1760.494704743647
20
-1512.901416535434
30
6.000009868993
11
1766.494704743647
21
-1512.901416535506
31
6.000009779621
0
LINE
8
0
10
1766.494704743647
20
-1512.901416535506
30
6.000009779621
11
1766.494701482656
21
-1183.900570546067
31
6.000000333627
0
LINE
8
0
10
1766.494701482656
20
-1183.900570546067
30
6.000000333627
11
1760.494701482657
21
-1183.900570545997
31
6.000000422998
0
LINE
8
0
10
1760.494701482657
20
-1183.900570545997
30
6.000000422998
11
1760.494701483133
21
-1143.900570545996
31
5.999999230905
0
LINE
8
0
10
1760.494701483133
20
-1143.900570545996
30
5.999999230905
11
1766.494701483133
21
-1143.900570546067
31
5.999999141534
0
LINE
8
0
10
1766.494701483133
20
-1143.900570546067
30
5.999999141534
11
1766.494700909384
21
-1103.900570221981
31
6.000018699322
0
LINE
8
0
10
1350.494702298442
20
-1103.900570217014
30
6.000026184842
11
1766.494700909384
21
-1103.900570221981
31
6.000018699322
0
LINE
8
0
10
1350.494702298442
20
-1103.900570217014
30
6.000026184842
11
1350.494702484616
21
-1129.901422642691
31
6.000008260364
0
LINE
8
0
10
1710.494704746413
20
-1280.901416534838
30
6.000007786835
11
1697.994704746413
21
-1280.901416534689
31
6.000008009325
0
LINE
8
0
10
1697.994704746413
20
-1280.901416534689
30
6.000008009325
11
1697.994704746484
21
-1274.901416534689
31
6.00000790717
0
LINE
8
0
10
1697.994704746484
20
-1274.901416534689
30
6.00000790717
11
1710.494704746484
21
-1274.901416534838
31
6.00000768468
0
LINE
8
0
10
1710.494704746484
20
-1274.901416534838
30
6.00000768468
11
1710.494704746413
21
-1280.901416534838
31
6.000007786835
0
LINE
8
0
10
1420.494704746422
20
-1280.001422634892
30
6.000012933267
11
1421.038222812829
21
-1279.929858914195
31
6.000012922374
0
LINE
8
0
10
1419.951186680017
20
-1279.929858914182
30
6.000012941722
11
1420.494704746422
21
-1280.001422634892
31
6.000012933267
0
LINE
8
0
10
1419.444701694668
20
-1279.720081082145
30
6.000012947166
11
1419.951186680017
21
-1279.929858914182
31
6.000012941722
0
LINE
8
0
10
1419.009780430023
20
-1279.386340847765
30
6.000012949225
11
1419.444701694668
21
-1279.720081082145
31
6.000012947166
0
LINE
8
0
10
1418.676047825048
20
-1278.951404324323
30
6.00001294776
11
1419.009780430023
21
-1279.386340847765
31
6.000012949225
0
LINE
8
0
10
1418.466262363628
20
-1278.444934597758
30
6.000012942871
11
1418.676047825048
21
-1278.951404324323
31
6.00001294776
0
LINE
8
0
10
1418.394706272327
20
-1277.90141653135
30
6.000012934891
11
1418.466262363628
21
-1278.444934597758
31
6.000012942871
0
LINE
8
0
10
1418.466262363641
20
-1277.357898464946
30
6.000012924363
11
1418.394706272327
21
-1277.90141653135
31
6.000012934891
0
LINE
8
0
10
1418.676047825073
20
-1276.851428738386
30
6.000012912006
11
1418.466262363641
21
-1277.357898464946
31
6.000012924363
0
LINE
8
0
10
1419.009780430059
20
-1276.416492214953
30
6.000012898661
11
1418.676047825073
21
-1276.851428738386
31
6.000012912006
0
LINE
8
0
10
1419.444701694711
20
-1276.082751980583
30
6.000012885237
11
1419.009780430059
21
-1276.416492214953
31
6.000012898661
0
LINE
8
0
10
1419.951186680065
20
-1275.872974148558
30
6.000012872651
11
1419.444701694711
21
-1276.082751980583
31
6.000012885237
0
LINE
8
0
10
1420.494704746473
20
-1275.801410427861
30
6.000012861758
11
1419.951186680065
21
-1275.872974148558
31
6.000012872651
0
LINE
8
0
10
1421.038222812877
20
-1275.87297414857
30
6.000012853302
11
1420.494704746473
21
-1275.801410427861
31
6.000012861758
0
LINE
8
0
10
1421.544707798226
20
-1276.082751980607
30
6.000012847859
11
1421.038222812877
21
-1275.87297414857
31
6.000012853302
0
LINE
8
0
10
1421.979629062871
20
-1276.416492214988
30
6.0000128458
11
1421.544707798226
21
-1276.082751980607
31
6.000012847859
0
LINE
8
0
10
1422.313361667846
20
-1276.851428738429
30
6.000012847265
11
1421.979629062871
21
-1276.416492214988
31
6.0000128458
0
LINE
8
0
10
1422.523147129267
20
-1277.357898464994
30
6.000012852154
11
1422.313361667846
21
-1276.851428738429
31
6.000012847265
0
LINE
8
0
10
1422.594703220569
20
-1277.901416531402
30
6.000012860134
11
1422.523147129267
21
-1277.357898464994
31
6.000012852154
0
LINE
8
0
10
1422.523147129253
20
-1278.444934597807
30
6.000012870662
11
1422.594703220569
21
-1277.901416531402
31
6.000012860134
0
LINE
8
0
10
1422.313361667822
20
-1278.951404324367
30
6.000012883019
11
1422.523147129253
21
-1278.444934597807
31
6.000012870662
0
LINE
8
0
10
1421.979629062836
20
-1279.386340847801
30
6.000012896364
11
1422.313361667822
21
-1278.951404324367
31
6.000012883019
0
LINE
8
0
10
1421.544707798183
20
-1279.72008108217
30
6.000012909787
11
1421.979629062836
21
-1279.386340847801
31
6.000012896364
0
LINE
8
0
10
1421.038222812829
20
-1279.929858914195
30
6.000012922374
11
1421.544707798183
21
-1279.72008108217
31
6.000012909787
0
LINE
8
0
10
1412.994704746411
20
-1280.901416531287
30
6.000013082083
11
1400.494704746411
21
-1280.901416531137
31
6.000013304573
0
LINE
8
0
10
1400.494704746411
20
-1280.901416531137
30
6.000013304573
11
1400.494704746483
21
-1274.901416531136
31
6.000013202418
0
LINE
8
0
10
1400.494704746483
20
-1274.901416531136
30
6.000013202418
11
1412.994704746483
21
-1274.901416531287
31
6.000012979929
0
LINE
8
0
10
1412.994704746483
20
-1274.901416531287
30
6.000012979929
11
1412.994704746411
21
-1280.901416531287
31
6.000013082083
0
LINE
8
0
10
1690.494704746423
20
-1280.001422638115
30
6.000008127495
11
1691.038222812831
21
-1279.929858917418
31
6.000008116602
0
LINE
8
0
10
1689.951186680018
20
-1279.929858917406
30
6.000008135951
11
1690.494704746423
21
-1280.001422638115
31
6.000008127495
0
LINE
8
0
10
1689.444716953458
20
-1279.720081085367
30
6.000008141394
11
1689.951186680018
21
-1279.929858917406
31
6.000008135951
0
LINE
8
0
10
1689.009780430024
20
-1279.386340850987
30
6.000008143453
11
1689.444716953458
21
-1279.720081085367
31
6.000008141394
0
LINE
8
0
10
1688.676040195655
20
-1278.951404327546
30
6.000008141988
11
1689.009780430024
21
-1279.386340850987
31
6.000008143453
0
LINE
8
0
10
1688.46626236363
20
-1278.44493460098
30
6.000008137099
11
1688.676040195655
21
-1278.951404327546
31
6.000008141988
0
LINE
8
0
10
1688.394698642933
20
-1277.901416534574
30
6.000008129119
11
1688.46626236363
21
-1278.44493460098
31
6.000008137099
0
LINE
8
0
10
1688.466262363642
20
-1277.357898468168
30
6.000008118591
11
1688.394698642933
21
-1277.901416534574
31
6.000008129119
0
LINE
8
0
10
1688.67604019568
20
-1276.851428741609
30
6.000008106235
11
1688.466262363642
21
-1277.357898468168
31
6.000008118591
0
LINE
8
0
10
1689.00978043006
20
-1276.416492218174
30
6.000008092889
11
1688.67604019568
21
-1276.851428741609
31
6.000008106235
0
LINE
8
0
10
1689.444716953502
20
-1276.082751983805
30
6.000008079465
11
1689.00978043006
21
-1276.416492218174
31
6.000008092889
0
LINE
8
0
10
1689.951186680067
20
-1275.872974151781
30
6.000008066879
11
1689.444716953502
21
-1276.082751983805
31
6.000008079465
0
LINE
8
0
10
1690.494704746478
20
-1275.801410431084
30
6.000008055986
11
1689.951186680067
21
-1275.872974151781
31
6.000008066879
0
LINE
8
0
10
1691.038222812879
20
-1275.872974151793
30
6.000008047531
11
1690.494704746478
21
-1275.801410431084
31
6.000008055986
0
LINE
8
0
10
1691.544692539439
20
-1276.082751983832
30
6.000008042088
11
1691.038222812879
21
-1275.872974151793
31
6.000008047531
0
LINE
8
0
10
1691.979629062872
20
-1276.416492218211
30
6.000008040028
11
1691.544692539439
21
-1276.082751983832
31
6.000008042088
0
LINE
8
0
10
1692.313369297243
20
-1276.851428741653
30
6.000008041493
11
1691.979629062872
21
-1276.416492218211
31
6.000008040028
0
LINE
8
0
10
1692.523147129267
20
-1277.357898468218
30
6.000008046382
11
1692.313369297243
21
-1276.851428741653
31
6.000008041493
0
LINE
8
0
10
1692.594710849964
20
-1277.901416534625
30
6.000008054362
11
1692.523147129267
21
-1277.357898468218
31
6.000008046382
0
LINE
8
0
10
1692.523147129254
20
-1278.444934601031
30
6.00000806489
11
1692.594710849964
21
-1277.901416534625
31
6.000008054362
0
LINE
8
0
10
1692.313369297218
20
-1278.95140432759
30
6.000008077247
11
1692.523147129254
21
-1278.444934601031
31
6.00000806489
0
LINE
8
0
10
1691.979629062837
20
-1279.386340851024
30
6.000008090592
11
1692.313369297218
21
-1278.95140432759
31
6.000008077247
0
LINE
8
0
10
1691.544692539396
20
-1279.720081085394
30
6.000008104016
11
1691.979629062837
21
-1279.386340851024
31
6.000008090592
0
LINE
8
0
10
1691.038222812831
20
-1279.929858917418
30
6.000008116602
11
1691.544692539396
21
-1279.720081085394
31
6.000008104016
0
LINE
8
0
10
1670.494704746413
20
-1280.901416534361
30
6.000008498801
11
1670.494704746484
21
-1274.901416534361
31
6.000008396646
0
LINE
8
0
10
1670.494704746484
20
-1274.901416534361
30
6.000008396646
11
1682.994704746484
21
-1274.90141653451
31
6.000008174157
0
LINE
8
0
10
1682.994704746484
20
-1274.90141653451
30
6.000008174157
11
1682.994704746413
21
-1280.90141653451
31
6.000008276312
0
LINE
8
0
10
1682.994704746413
20
-1280.90141653451
30
6.000008276312
11
1670.494704746413
21
-1280.901416534361
31
6.000008498801
0
LINE
8
0
10
1427.994704746483
20
-1274.901416531465
30
6.000012712941
11
1440.494704746483
21
-1274.901416531616
31
6.000012490452
0
LINE
8
0
10
1440.494704746483
20
-1274.901416531616
30
6.000012490452
11
1440.494704746412
21
-1280.901416531616
31
6.000012592607
0
LINE
8
0
10
1440.494704746412
20
-1280.901416531616
30
6.000012592607
11
1427.994704746412
21
-1280.901416531465
31
6.000012815096
0
LINE
8
0
10
1427.994704746412
20
-1280.901416531465
30
6.000012815096
11
1427.994704746483
21
-1274.901416531465
31
6.000012712941
0
LINE
8
0
10
1400.49470475313
20
-1616.616845545537
30
6.000019020402
11
1412.99470475313
21
-1616.616845545687
31
6.000018797913
0
LINE
8
0
10
1400.494704753202
20
-1610.616845359269
30
6.000018918247
11
1400.49470475313
21
-1616.616845545537
31
6.000019020402
0
LINE
8
0
10
1412.994704753202
20
-1610.616845359419
30
6.000018695758
11
1400.494704753202
21
-1610.616845359269
31
6.000018918247
0
LINE
8
0
10
1412.99470475313
20
-1616.616845545687
30
6.000018797913
11
1412.994704753202
21
-1610.616845359419
31
6.000018695758
0
LINE
8
0
10
1427.994704753201
20
-1610.616844949809
30
6.00001842877
11
1427.99470475313
21
-1616.616845136077
31
6.000018530925
0
LINE
8
0
10
1440.494704753191
20
-1610.616844949958
30
6.000018206281
11
1427.994704753201
21
-1610.616844949809
31
6.00001842877
0
LINE
8
0
10
1440.49470475312
20
-1616.616845136227
30
6.000018308436
11
1440.494704753191
21
-1610.616844949958
31
6.000018206281
0
LINE
8
0
10
1427.99470475313
20
-1616.616845136077
30
6.000018530925
11
1440.49470475312
21
-1616.616845136227
31
6.000018308436
0
LINE
8
0
10
1682.994704753131
20
-1616.616841525518
30
6.000013992141
11
1682.994704753202
21
-1610.61684133925
31
6.000013889986
0
LINE
8
0
10
1670.494704753131
20
-1616.616841525369
30
6.00001421463
11
1682.994704753131
21
-1616.616841525518
31
6.000013992141
0
LINE
8
0
10
1670.494704753202
20
-1610.6168413391
30
6.000014112476
11
1670.494704753131
21
-1616.616841525369
31
6.00001421463
0
LINE
8
0
10
1682.994704753202
20
-1610.61684133925
30
6.000013889986
11
1670.494704753202
21
-1610.6168413391
31
6.000014112476
0
LINE
8
0
10
1697.99470475313
20
-1616.616841115908
30
6.000013725154
11
1710.49470475312
21
-1616.616841116057
31
6.000013502664
0
LINE
8
0
10
1697.994704753203
20
-1610.616840929639
30
6.000013622999
11
1697.99470475313
21
-1616.616841115908
31
6.000013725154
0
LINE
8
0
10
1710.494704753192
20
-1610.616840929789
30
6.000013400509
11
1697.994704753203
21
-1610.616840929639
31
6.000013622999
0
LINE
8
0
10
1710.49470475312
20
-1616.616841116057
30
6.000013502664
11
1710.494704753192
21
-1610.616840929789
31
6.000013400509
0
LINE
8
0
10
1634.494724905313
20
-1629.950175282827
30
6.000015082411
11
1640.494724706538
21
-1629.950175282898
31
6.000014975616
0
LINE
8
0
10
1640.494724706538
20
-1629.950175282898
30
6.000014975616
11
1640.494724706379
21
-1643.28350870564
31
6.000015202626
0
LINE
8
0
10
1640.494724706379
20
-1643.28350870564
30
6.000015202626
11
1634.494724905152
21
-1643.283508705568
31
6.000015309421
0
LINE
8
0
10
1634.494724905152
20
-1643.283508705568
30
6.000015309421
11
1634.494724905313
21
-1629.950175282827
31
6.000015082411
0
LINE
8
0
10
1476.494705207012
20
-1629.95017772493
30
6.000017894677
11
1476.494705206852
21
-1643.283511147672
31
6.000018121688
0
LINE
8
0
10
1476.494705206852
20
-1643.283511147672
30
6.000018121688
11
1470.494705405627
21
-1643.2835111476
31
6.000018228483
0
LINE
8
0
10
1470.494705405627
20
-1643.2835111476
30
6.000018228483
11
1470.494705405786
21
-1629.950177724858
31
6.000018001472
0
LINE
8
0
10
1470.494705405786
20
-1629.950177724858
30
6.000018001472
11
1476.494705207012
21
-1629.95017772493
31
6.000017894677
0
LINE
8
0
10
1406.494694416439
20
-1136.400596005842
30
6.000010737534
11
1400.494778779956
21
-1136.40059600577
31
6.000010844327
0
LINE
8
0
10
1400.494778779956
20
-1136.40059600577
30
6.000010844327
11
1400.494778780105
21
-1123.900562044838
31
6.000010631504
0
LINE
8
0
10
1400.494778780105
20
-1123.900562044838
30
6.000010631504
11
1406.494694416588
21
-1123.90056204491
31
6.00001052471
0
LINE
8
0
10
1406.494694416588
20
-1123.90056204491
30
6.00001052471
11
1406.494694416439
21
-1136.400596005842
31
6.000010737534
0
LINE
8
0
10
1400.494778101893
20
-1163.900522747133
30
6.000011312536
11
1400.494778102042
21
-1151.400556738832
31
6.000011099714
0
LINE
8
0
10
1400.494778102042
20
-1151.400556738832
30
6.000011099714
11
1406.494861344708
21
-1151.400556738904
31
6.000010992917
0
LINE
8
0
10
1406.494861344708
20
-1151.400556738904
30
6.000010992917
11
1406.49486134456
21
-1163.900522747207
31
6.000011205739
0
LINE
8
0
10
1406.49486134456
20
-1163.900522747207
30
6.000011205739
11
1400.494778101893
21
-1163.900522747133
31
6.000011312536
0
LINE
8
0
10
1660.494715887473
20
-1123.90056043291
30
6.000006003725
11
1660.494715887323
21
-1136.400594393844
31
6.000006216548
0
ENDSEC
0
EOF
